<?xml version='1.0' encoding='UTF-8' standalone='no'?>
<!-- Created with Fritzing (http://www.fritzing.org/) -->
<svg xmlns:svg='http://www.w3.org/2000/svg' xmlns='http://www.w3.org/2000/svg' version='1.2' baseProfile='tiny' x='0in' y='0in' width='0.7in' height='0.33in' viewBox='0 0 50.4 23.76' >
<g partID='854713910'><g  id="breadboard" gorn="0.3.0">
 <rect  x="0" y="2.16" height="19.44" id="middle" fill="#303030" width="50.4" gorn="0.3.0.0"/>
 <rect  x="0" y="2.16" height="1.7712" id="top" fill="#3d3d3d" width="50.4" gorn="0.3.0.1"/>
 <rect  x="0" y="19.8288" height="1.7712" id="bottom" fill="#000000" width="50.4" gorn="0.3.0.2"/>
 <g transform="matrix(1, 0, 0, 1, -7.2, 0)">
  <g >
   <g >
    <g >
     <polygon  points="57.6,2.16,57.06,3.9312,57.06,19.8288,57.6,21.6" id="right" fill="#141414" gorn="0.3.0.3.0.0.0"/>
    </g>
   </g>
  </g>
 </g>
 <polygon  points="0,21.6,0,2.16,0.54,3.9312,0.54,19.8288" id="left" fill="#1f1f1f" gorn="0.3.0.4"/>
 <polygon  points="0.4032,11.88,3.6,11.88,3.6,8.28,0.54,8.2512,0.4032,9.7776" id="left-upper-rect" fill="#1c1c1c" gorn="0.3.0.5"/>
 <polygon  points="0.4032,11.88,0.4032,13.9824,0.54,15.516,3.6,15.516,3.6,11.88" id="left-lower-rect" fill="#383838" gorn="0.3.0.6"/>
 <path  id="slot" fill="#262626" d="m0.4032,9.7776,0,4.1976C1.4616,13.8528,2.2896,12.9672,2.2896,11.8728,2.2896,10.7784,1.4688,9.9,0.4032,9.7776z" gorn="0.3.0.7"/>
 <path  id="cover" fill="#303030" d="m0.54,3.9312,0,4.3128c1.7136,0.324,3.0168,1.8216,3.0168,3.6288,0,1.8072,-1.296,3.312,-3.0168,3.636l0,0.0072,3.6,0,0,-11.5848,-3.6,0z" gorn="0.3.0.8"/>
 <circle  id="circle16" fill="#212121" cx="4.68" cy="16.8984" r="1.4832" d="m 6.1631998,16.898399 c 0,0.819149 -0.6640513,1.4832 -1.4832,1.4832 -0.8191487,0 -1.4831999,-0.664051 -1.4831999,-1.4832 0,-0.819148 0.6640512,-1.4832 1.4831999,-1.4832 0.8191487,0 1.4832,0.664052 1.4832,1.4832 z" gorn="0.3.0.9"/>
 <text  font-size="4.608" x="4.68" y="11.88" id="label" fill="#e6e6e6" style="text-anchor:start;font-family:OCRA" stroke="none" gorn="0.3.0.10">IC</text>
 <rect  x="2.52" y="20.6352" height="3.1248" id="connector0pin" fill="#8c8c8c" width="2.16" gorn="0.3.0.11"/>
 <rect  x="2.52" y="21.6" height="2.16" id="connector0terminal" fill="#8c8c8c" width="2.16" gorn="0.3.0.12"/>
 <polygon  points="6.12,20.6352,2.52,20.6352,2.52,22.0752,4.68,22.0752,6.12,21.4128" id="polygon011" fill="#8c8c8c" gorn="0.3.0.13"/>
 <rect  x="9.72" y="21.6" height="2.16" id="connector1terminal" fill="#8c8c8c" width="2.16" gorn="0.3.0.14"/>
 <rect  x="9.72" y="20.6352" height="3.1248" id="connector1pin" fill="#8c8c8c" width="2.16" gorn="0.3.0.15"/>
 <polygon  points="8.28,20.6352,8.28,21.4128,9.72,22.0752,11.88,22.0752,13.32,21.4128,13.32,20.6352" id="polygon01x" fill="#8c8c8c" gorn="0.3.0.16"/>
 <rect  x="2.52" y="0" height="3.1248" id="connector13pin" fill="#8c8c8c" width="2.16" gorn="0.3.0.17"/>
 <rect  x="2.52" y="0" height="2.16" id="connector13terminal" fill="#8c8c8c" width="2.16" gorn="0.3.0.18"/>
 <polygon  points="6.12,3.1248,6.12,2.3472,4.68,1.6848,2.52,1.6848,2.52,3.1248" id="polygon13x" fill="#8c8c8c" gorn="0.3.0.19"/>
 <g transform="matrix(1, 0, 0, 1, -7.2, 0)">
  <g >
   <g >
    <g >
     <polygon  points="52.92,22.0752,55.08,22.0752,55.08,20.6352,51.48,20.6352,51.48,21.4128" id="polygon06x" fill="#8c8c8c" gorn="0.3.0.20.0.0.0"/>
    </g>
   </g>
  </g>
 </g>
 <g transform="matrix(1, 0, 0, 1, -7.2, 0)">
  <g >
   <g >
    <g >
     <polygon  points="55.08,1.6848,52.92,1.6848,51.48,2.3472,51.48,3.1248,55.08,3.1248" id="polygon07x" fill="#8c8c8c" gorn="0.3.0.21.0.0.0"/>
    </g>
   </g>
  </g>
 </g>
 <rect  x="9.72" y="0" height="3.1248" id="connector12pin" fill="#8c8c8c" width="2.16" gorn="0.3.0.22"/>
 <rect  x="9.72" y="0" height="2.16" id="connector12terminal" fill="#8c8c8c" width="2.16" gorn="0.3.0.23"/>
 <polygon  points="8.28,3.1248,13.32,3.1248,13.32,2.3472,11.88,1.6848,9.72,1.6848,8.28,2.3472" id="polygon12x" fill="#8c8c8c" gorn="0.3.0.24"/>
 <rect  x="16.92" y="0" height="3.1248" id="connector11pin" fill="#8c8c8c" width="2.16" gorn="0.3.0.25"/>
 <rect  x="16.92" y="0" height="2.16" id="connector11terminal" fill="#8c8c8c" width="2.16" gorn="0.3.0.26"/>
 <polygon  points="15.48,3.1248,20.52,3.1248,20.52,2.3472,19.08,1.6848,16.92,1.6848,15.48,2.3472" id="polygon11x" fill="#8c8c8c" gorn="0.3.0.27"/>
 <rect  x="24.12" y="0" height="3.1248" id="connector10pin" fill="#8c8c8c" width="2.16" gorn="0.3.0.28"/>
 <rect  x="24.12" y="0" height="2.16" id="connector10terminal" fill="#8c8c8c" width="2.16" gorn="0.3.0.29"/>
 <polygon  points="22.68,3.1248,27.72,3.1248,27.72,2.3472,26.28,1.6848,24.12,1.6848,22.68,2.3472" id="polygon10x" fill="#8c8c8c" gorn="0.3.0.30"/>
 <rect  x="31.32" y="0" height="3.1248" id="connector9pin" fill="#8c8c8c" width="2.16" gorn="0.3.0.31"/>
 <rect  x="31.32" y="0" height="2.16" id="connector9terminal" fill="#8c8c8c" width="2.16" gorn="0.3.0.32"/>
 <polygon  points="29.88,3.1248,34.92,3.1248,34.92,2.3472,33.48,1.6848,31.32,1.6848,29.88,2.3472" id="polygon09x" fill="#8c8c8c" gorn="0.3.0.33"/>
 <rect  x="38.52" y="0" height="3.1248" id="connector8pin" fill="#8c8c8c" width="2.16" gorn="0.3.0.34"/>
 <rect  x="38.52" y="0" height="2.16" id="connector8terminal" fill="#8c8c8c" width="2.16" gorn="0.3.0.35"/>
 <polygon  points="37.08,3.1248,42.12,3.1248,42.12,2.3472,40.68,1.6848,38.52,1.6848,37.08,2.3472" id="polygon08x" fill="#8c8c8c" gorn="0.3.0.36"/>
 <rect  x="45.72" y="0" height="3.1248" id="connector7pin" fill="#8c8c8c" width="2.16" gorn="0.3.0.37"/>
 <rect  x="45.72" y="0" height="2.16" id="connector7terminal" fill="#8c8c8c" width="2.16" gorn="0.3.0.38"/>
 <rect  x="16.92" y="20.6352" height="3.1248" id="connector2pin" fill="#8c8c8c" width="2.16" gorn="0.3.0.39"/>
 <rect  x="16.92" y="21.6" height="2.16" id="connector2terminal" fill="#8c8c8c" width="2.16" gorn="0.3.0.40"/>
 <polygon  points="20.52,20.6352,15.48,20.6352,15.48,21.4128,16.92,22.0752,19.08,22.0752,20.52,21.4128" id="polygon02x" fill="#8c8c8c" gorn="0.3.0.41"/>
 <rect  x="24.12" y="20.6352" height="3.1248" id="connector3pin" fill="#8c8c8c" width="2.16" gorn="0.3.0.42"/>
 <rect  x="24.12" y="21.6" height="2.16" id="connector3terminal" fill="#8c8c8c" width="2.16" gorn="0.3.0.43"/>
 <polygon  points="27.72,20.6352,22.68,20.6352,22.68,21.4128,24.12,22.0752,26.28,22.0752,27.72,21.4128" id="polygon03x" fill="#8c8c8c" gorn="0.3.0.44"/>
 <rect  x="31.32" y="20.6352" height="3.1248" id="connector4pin" fill="#8c8c8c" width="2.16" gorn="0.3.0.45"/>
 <rect  x="31.32" y="21.6" height="2.16" id="connector4terminal" fill="#8c8c8c" width="2.16" gorn="0.3.0.46"/>
 <polygon  points="34.92,20.6352,29.88,20.6352,29.88,21.4128,31.32,22.0752,33.48,22.0752,34.92,21.4128" id="polygon04x" fill="#8c8c8c" gorn="0.3.0.47"/>
 <rect  x="38.52" y="20.6352" height="3.1248" id="connector5pin" fill="#8c8c8c" width="2.16" gorn="0.3.0.48"/>
 <rect  x="38.52" y="21.6" height="2.16" id="connector5terminal" fill="#8c8c8c" width="2.16" gorn="0.3.0.49"/>
 <polygon  points="42.12,21.4128,42.12,20.6352,37.08,20.6352,37.08,21.4128,38.52,22.0752,40.68,22.0752" id="polygon05x" fill="#8c8c8c" gorn="0.3.0.50"/>
 <rect  x="45.72" y="20.6352" height="3.1248" id="connector6pin" fill="#8c8c8c" width="2.16" gorn="0.3.0.51"/>
 <rect  x="45.72" y="21.6" height="2.16" id="connector6terminal" fill="#8c8c8c" width="2.16" gorn="0.3.0.52"/>
</g>
</g></svg>