<?xml version="1.0" encoding="UTF-8" standalone="no"?>
<!-- Created with Fritzing (http://www.fritzing.org/) -->

<svg
   xmlns:dc="http://purl.org/dc/elements/1.1/"
   xmlns:cc="http://creativecommons.org/ns#"
   xmlns:rdf="http://www.w3.org/1999/02/22-rdf-syntax-ns#"
   xmlns:svg="http://www.w3.org/2000/svg"
   xmlns="http://www.w3.org/2000/svg"
   xmlns:sodipodi="http://sodipodi.sourceforge.net/DTD/sodipodi-0.dtd"
   xmlns:inkscape="http://www.inkscape.org/namespaces/inkscape"
   version="1.2"
   x="0in"
   y="0in"
   width="0.712in"
   height="0.404in"
   viewBox="0 0 51.264 29.088"
   id="svg2"
   inkscape:version="0.48.5 r10040"
   sodipodi:docname="74LS02_pcb.svg">
  <metadata
     id="metadata112">
    <rdf:RDF>
      <cc:Work
         rdf:about="">
        <dc:format>image/svg+xml</dc:format>
        <dc:type
           rdf:resource="http://purl.org/dc/dcmitype/StillImage" />
      </cc:Work>
    </rdf:RDF>
  </metadata>
  <defs
     id="defs110" />
  <sodipodi:namedview
     pagecolor="#ffff"
     bordercolor="#666666"
     borderopacity="1"
     objecttolerance="10"
     gridtolerance="10"
     guidetolerance="10"
     inkscape:pageopacity="0"
     inkscape:pageshadow="2"
     inkscape:window-width="1004"
     inkscape:window-height="487"
     id="namedview108"
     showgrid="false"
     inkscape:zoom="5.1186016"
     inkscape:cx="32.040001"
     inkscape:cy="18.18"
     inkscape:window-x="0"
     inkscape:window-y="0"
     inkscape:window-maximized="0"
     inkscape:current-layer="svg2" />
  <g
     partID="854713910"
     id="g4">
    <g
       id="copper0"
       gorn="0.3.0">
      <circle
         id="connector0pad"
         stroke-width="0.72"
         fill="none"
         cx="4.032"
         cy="25.344"
         connectorname="1"
         r="1.512"
         stroke="#f7bd13"
         gorn="0.3.0.0" />
      <path
         id="path8"
         fill="#f7bd13"
         d="m4.032,21.6a1.872,1.872,0,0,1,1.872,1.872l0,3.744a1.872,1.872,0,0,1,-1.872,1.872l0,0A1.872,1.872,0,0,1,2.16,27.216l0,-3.744A1.872,1.872,0,0,1,4.032,21.6l0,0zM2.88,25.344a1.152,1.152,0,1,0,2.304,0,1.152,1.152,0,1,0,-2.304,0z"
         stroke="none"
         gorn="0.3.0.1" />
      <circle
         id="connector1pad"
         stroke-width="0.72"
         fill="none"
         cx="11.232"
         cy="25.344"
         connectorname="2"
         r="1.512"
         stroke="#f7bd13"
         gorn="0.3.0.2" />
      <path
         id="path11"
         fill="#f7bd13"
         d="m11.232,21.6a1.872,1.872,0,0,1,1.872,1.872l0,3.744a1.872,1.872,0,0,1,-1.872,1.872l0,0A1.872,1.872,0,0,1,9.36,27.216l0,-3.744A1.872,1.872,0,0,1,11.232,21.6l0,0zm-1.152,3.744a1.152,1.152,0,1,0,2.304,0,1.152,1.152,0,1,0,-2.304,0z"
         stroke="none"
         gorn="0.3.0.3" />
      <circle
         id="connector2pad"
         stroke-width="0.72"
         fill="none"
         cx="18.432"
         cy="25.344"
         connectorname="3"
         r="1.512"
         stroke="#f7bd13"
         gorn="0.3.0.4" />
      <path
         id="path14"
         fill="#f7bd13"
         d="m18.432,21.6a1.872,1.872,0,0,1,1.872,1.872l0,3.744a1.872,1.872,0,0,1,-1.872,1.872l0,0A1.872,1.872,0,0,1,16.56,27.216l0,-3.744A1.872,1.872,0,0,1,18.432,21.6l0,0zm-1.152,3.744a1.152,1.152,0,1,0,2.304,0,1.152,1.152,0,1,0,-2.304,0z"
         stroke="none"
         gorn="0.3.0.5" />
      <circle
         id="connector3pad"
         stroke-width="0.72"
         fill="none"
         cx="25.632"
         cy="25.344"
         connectorname="4"
         r="1.512"
         stroke="#f7bd13"
         gorn="0.3.0.6" />
      <path
         id="path17"
         fill="#f7bd13"
         d="m25.632,21.6a1.872,1.872,0,0,1,1.872,1.872l0,3.744a1.872,1.872,0,0,1,-1.872,1.872l0,0A1.872,1.872,0,0,1,23.76,27.216l0,-3.744A1.872,1.872,0,0,1,25.632,21.6l0,0zm-1.152,3.744a1.152,1.152,0,1,0,2.304,0,1.152,1.152,0,1,0,-2.304,0z"
         stroke="none"
         gorn="0.3.0.7" />
      <circle
         id="connector4pad"
         stroke-width="0.72"
         fill="none"
         cx="32.832"
         cy="25.344"
         connectorname="5"
         r="1.512"
         stroke="#f7bd13"
         gorn="0.3.0.8" />
      <path
         id="path20"
         fill="#f7bd13"
         d="m32.832,21.6a1.872,1.872,0,0,1,1.872,1.872l0,3.744a1.872,1.872,0,0,1,-1.872,1.872l0,0A1.872,1.872,0,0,1,30.96,27.216l0,-3.744A1.872,1.872,0,0,1,32.832,21.6l0,0zm-1.152,3.744a1.152,1.152,0,1,0,2.304,0,1.152,1.152,0,1,0,-2.304,0z"
         stroke="none"
         gorn="0.3.0.9" />
      <circle
         id="connector5pad"
         stroke-width="0.72"
         fill="none"
         cx="40.032"
         cy="25.344"
         connectorname="6"
         r="1.512"
         stroke="#f7bd13"
         gorn="0.3.0.10" />
      <path
         id="path23"
         fill="#f7bd13"
         d="m40.032,21.6a1.872,1.872,0,0,1,1.872,1.872l0,3.744a1.872,1.872,0,0,1,-1.872,1.872l0,0A1.872,1.872,0,0,1,38.16,27.216l0,-3.744A1.872,1.872,0,0,1,40.032,21.6l0,0zm-1.152,3.744a1.152,1.152,0,1,0,2.304,0,1.152,1.152,0,1,0,-2.304,0z"
         stroke="none"
         gorn="0.3.0.11" />
      <circle
         id="connector6pad"
         stroke-width="0.72"
         fill="none"
         cx="47.232"
         cy="25.344"
         connectorname="7"
         r="1.512"
         stroke="#f7bd13"
         gorn="0.3.0.12" />
      <path
         id="path26"
         fill="#f7bd13"
         d="m47.232,21.6a1.872,1.872,0,0,1,1.872,1.872l0,3.744a1.872,1.872,0,0,1,-1.872,1.872l0,0A1.872,1.872,0,0,1,45.36,27.216l0,-3.744A1.872,1.872,0,0,1,47.232,21.6l0,0zm-1.152,3.744a1.152,1.152,0,1,0,2.304,0,1.152,1.152,0,1,0,-2.304,0z"
         stroke="none"
         gorn="0.3.0.13" />
      <circle
         id="connector7pad"
         stroke-width="0.72"
         fill="none"
         cx="47.232"
         cy="3.744"
         connectorname="10"
         r="1.512"
         stroke="#f7bd13"
         gorn="0.3.0.14" />
      <path
         id="path35"
         fill="#f7bd13"
         d="m47.232,0a1.872,1.872,0,0,1,1.872,1.872l0,3.744a1.872,1.872,0,0,1,-1.872,1.872l0,0A1.872,1.872,0,0,1,45.36,5.616l0,-3.744A1.872,1.872,0,0,1,47.232,0l0,0zM46.08,3.744a1.152,1.152,0,1,0,2.304,0,1.152,1.152,0,1,0,-2.304,0z"
         stroke="none"
         gorn="0.3.0.15" />
      <circle
         id="connector8pad"
         stroke-width="0.72"
         fill="none"
         cx="40.032"
         cy="3.744"
         connectorname="11"
         r="1.512"
         stroke="#f7bd13"
         gorn="0.3.0.16" />
      <path
         id="path38"
         fill="#f7bd13"
         d="m40.032,0a1.872,1.872,0,0,1,1.872,1.872l0,3.744a1.872,1.872,0,0,1,-1.872,1.872l0,0A1.872,1.872,0,0,1,38.16,5.616l0,-3.744A1.872,1.872,0,0,1,40.032,0l0,0zM38.88,3.744a1.152,1.152,0,1,0,2.304,0,1.152,1.152,0,1,0,-2.304,0z"
         stroke="none"
         gorn="0.3.0.17" />
      <circle
         id="connector9pad"
         stroke-width="0.72"
         fill="none"
         cx="32.832"
         cy="3.744"
         connectorname="12"
         r="1.512"
         stroke="#f7bd13"
         gorn="0.3.0.18" />
      <path
         id="path41"
         fill="#f7bd13"
         d="m32.832,0a1.872,1.872,0,0,1,1.872,1.872l0,3.744a1.872,1.872,0,0,1,-1.872,1.872l0,0A1.872,1.872,0,0,1,30.96,5.616l0,-3.744A1.872,1.872,0,0,1,32.832,0l0,0zM31.68,3.744a1.152,1.152,0,1,0,2.304,0,1.152,1.152,0,1,0,-2.304,0z"
         stroke="none"
         gorn="0.3.0.19" />
      <circle
         id="connector10pad"
         stroke-width="0.72"
         fill="none"
         cx="25.632"
         cy="3.744"
         connectorname="13"
         r="1.512"
         stroke="#f7bd13"
         gorn="0.3.0.20" />
      <path
         id="path44"
         fill="#f7bd13"
         d="m25.632,0a1.872,1.872,0,0,1,1.872,1.872l0,3.744a1.872,1.872,0,0,1,-1.872,1.872l0,0A1.872,1.872,0,0,1,23.76,5.616l0,-3.744A1.872,1.872,0,0,1,25.632,0l0,0zM24.48,3.744a1.152,1.152,0,1,0,2.304,0,1.152,1.152,0,1,0,-2.304,0z"
         stroke="none"
         gorn="0.3.0.21" />
      <circle
         id="connector11pad"
         stroke-width="0.72"
         fill="none"
         cx="18.432"
         cy="3.744"
         connectorname="14"
         r="1.512"
         stroke="#f7bd13"
         gorn="0.3.0.22" />
      <path
         id="path47"
         fill="#f7bd13"
         d="m18.432,0a1.872,1.872,0,0,1,1.872,1.872l0,3.744a1.872,1.872,0,0,1,-1.872,1.872l0,0A1.872,1.872,0,0,1,16.56,5.616l0,-3.744A1.872,1.872,0,0,1,18.432,0l0,0zM17.28,3.744a1.152,1.152,0,1,0,2.304,0,1.152,1.152,0,1,0,-2.304,0z"
         stroke="none"
         gorn="0.3.0.23" />
      <circle
         id="connector12pad"
         stroke-width="0.72"
         fill="none"
         cx="11.232"
         cy="3.744"
         connectorname="15"
         r="1.512"
         stroke="#f7bd13"
         gorn="0.3.0.24" />
      <path
         id="path50"
         fill="#f7bd13"
         d="m11.232,0a1.872,1.872,0,0,1,1.872,1.872l0,3.744a1.872,1.872,0,0,1,-1.872,1.872l0,0A1.872,1.872,0,0,1,9.36,5.616l0,-3.744A1.872,1.872,0,0,1,11.232,0l0,0zM10.08,3.744a1.152,1.152,0,1,0,2.304,0,1.152,1.152,0,1,0,-2.304,0z"
         stroke="none"
         gorn="0.3.0.25" />
      <circle
         id="connector13pad"
         stroke-width="0.72"
         fill="none"
         cx="4.032"
         cy="3.744"
         connectorname="16"
         r="1.512"
         stroke="#f7bd13"
         gorn="0.3.0.26" />
      <path
         id="path53"
         fill="#f7bd13"
         d="m4.032,0a1.872,1.872,0,0,1,1.872,1.872l0,3.744A1.872,1.872,0,0,1,4.032,7.488l0,0A1.872,1.872,0,0,1,2.16,5.616l0,-3.744A1.872,1.872,0,0,1,4.032,0l0,0zM2.88,3.744a1.152,1.152,0,1,0,2.304,0,1.152,1.152,0,1,0,-2.304,0z"
         stroke="none"
         gorn="0.3.0.27" />
    </g>
  </g>
  <g
     partID="854713911"
     id="g35">
    <g
       id="copper1"
       gorn="0.4.0">
      <circle
         id="circle58"
         stroke-width="0.72"
         fill="none"
         cx="4.032"
         cy="25.344"
         connectorname="1"
         r="1.512"
         stroke="#f7bd13"
         gorn="0.4.0.0" />
      <path
         id="path60"
         fill="#f7bd13"
         d="m4.032,21.6a1.872,1.872,0,0,1,1.872,1.872l0,3.744a1.872,1.872,0,0,1,-1.872,1.872l0,0A1.872,1.872,0,0,1,2.16,27.216l0,-3.744A1.872,1.872,0,0,1,4.032,21.6l0,0zM2.88,25.344a1.152,1.152,0,1,0,2.304,0,1.152,1.152,0,1,0,-2.304,0z"
         stroke="none"
         gorn="0.4.0.1" />
      <circle
         id="circle62"
         stroke-width="0.72"
         fill="none"
         cx="11.232"
         cy="25.344"
         connectorname="2"
         r="1.512"
         stroke="#f7bd13"
         gorn="0.4.0.2" />
      <path
         id="path64"
         fill="#f7bd13"
         d="m11.232,21.6a1.872,1.872,0,0,1,1.872,1.872l0,3.744a1.872,1.872,0,0,1,-1.872,1.872l0,0A1.872,1.872,0,0,1,9.36,27.216l0,-3.744A1.872,1.872,0,0,1,11.232,21.6l0,0zm-1.152,3.744a1.152,1.152,0,1,0,2.304,0,1.152,1.152,0,1,0,-2.304,0z"
         stroke="none"
         gorn="0.4.0.3" />
      <circle
         id="circle66"
         stroke-width="0.72"
         fill="none"
         cx="18.432"
         cy="25.344"
         connectorname="3"
         r="1.512"
         stroke="#f7bd13"
         gorn="0.4.0.4" />
      <path
         id="path68"
         fill="#f7bd13"
         d="m18.432,21.6a1.872,1.872,0,0,1,1.872,1.872l0,3.744a1.872,1.872,0,0,1,-1.872,1.872l0,0A1.872,1.872,0,0,1,16.56,27.216l0,-3.744A1.872,1.872,0,0,1,18.432,21.6l0,0zm-1.152,3.744a1.152,1.152,0,1,0,2.304,0,1.152,1.152,0,1,0,-2.304,0z"
         stroke="none"
         gorn="0.4.0.5" />
      <circle
         id="circle70"
         stroke-width="0.72"
         fill="none"
         cx="25.632"
         cy="25.344"
         connectorname="4"
         r="1.512"
         stroke="#f7bd13"
         gorn="0.4.0.6" />
      <path
         id="path72"
         fill="#f7bd13"
         d="m25.632,21.6a1.872,1.872,0,0,1,1.872,1.872l0,3.744a1.872,1.872,0,0,1,-1.872,1.872l0,0A1.872,1.872,0,0,1,23.76,27.216l0,-3.744A1.872,1.872,0,0,1,25.632,21.6l0,0zm-1.152,3.744a1.152,1.152,0,1,0,2.304,0,1.152,1.152,0,1,0,-2.304,0z"
         stroke="none"
         gorn="0.4.0.7" />
      <circle
         id="circle74"
         stroke-width="0.72"
         fill="none"
         cx="32.832"
         cy="25.344"
         connectorname="5"
         r="1.512"
         stroke="#f7bd13"
         gorn="0.4.0.8" />
      <path
         id="path76"
         fill="#f7bd13"
         d="m32.832,21.6a1.872,1.872,0,0,1,1.872,1.872l0,3.744a1.872,1.872,0,0,1,-1.872,1.872l0,0A1.872,1.872,0,0,1,30.96,27.216l0,-3.744A1.872,1.872,0,0,1,32.832,21.6l0,0zm-1.152,3.744a1.152,1.152,0,1,0,2.304,0,1.152,1.152,0,1,0,-2.304,0z"
         stroke="none"
         gorn="0.4.0.9" />
      <circle
         id="circle78"
         stroke-width="0.72"
         fill="none"
         cx="40.032"
         cy="25.344"
         connectorname="6"
         r="1.512"
         stroke="#f7bd13"
         gorn="0.4.0.10" />
      <path
         id="path80"
         fill="#f7bd13"
         d="m40.032,21.6a1.872,1.872,0,0,1,1.872,1.872l0,3.744a1.872,1.872,0,0,1,-1.872,1.872l0,0A1.872,1.872,0,0,1,38.16,27.216l0,-3.744A1.872,1.872,0,0,1,40.032,21.6l0,0zm-1.152,3.744a1.152,1.152,0,1,0,2.304,0,1.152,1.152,0,1,0,-2.304,0z"
         stroke="none"
         gorn="0.4.0.11" />
      <circle
         id="circle82"
         stroke-width="0.72"
         fill="none"
         cx="47.232"
         cy="25.344"
         connectorname="7"
         r="1.512"
         stroke="#f7bd13"
         gorn="0.4.0.12" />
      <path
         id="path84"
         fill="#f7bd13"
         d="m47.232,21.6a1.872,1.872,0,0,1,1.872,1.872l0,3.744a1.872,1.872,0,0,1,-1.872,1.872l0,0A1.872,1.872,0,0,1,45.36,27.216l0,-3.744A1.872,1.872,0,0,1,47.232,21.6l0,0zm-1.152,3.744a1.152,1.152,0,1,0,2.304,0,1.152,1.152,0,1,0,-2.304,0z"
         stroke="none"
         gorn="0.4.0.13" />
      <circle
         id="circle94"
         stroke-width="0.72"
         fill="none"
         cx="47.232"
         cy="3.744"
         connectorname="10"
         r="1.512"
         stroke="#f7bd13"
         gorn="0.4.0.14" />
      <path
         id="path96"
         fill="#f7bd13"
         d="m47.232,0a1.872,1.872,0,0,1,1.872,1.872l0,3.744a1.872,1.872,0,0,1,-1.872,1.872l0,0A1.872,1.872,0,0,1,45.36,5.616l0,-3.744A1.872,1.872,0,0,1,47.232,0l0,0zM46.08,3.744a1.152,1.152,0,1,0,2.304,0,1.152,1.152,0,1,0,-2.304,0z"
         stroke="none"
         gorn="0.4.0.15" />
      <circle
         id="circle98"
         stroke-width="0.72"
         fill="none"
         cx="40.032"
         cy="3.744"
         connectorname="11"
         r="1.512"
         stroke="#f7bd13"
         gorn="0.4.0.16" />
      <path
         id="path100"
         fill="#f7bd13"
         d="m40.032,0a1.872,1.872,0,0,1,1.872,1.872l0,3.744a1.872,1.872,0,0,1,-1.872,1.872l0,0A1.872,1.872,0,0,1,38.16,5.616l0,-3.744A1.872,1.872,0,0,1,40.032,0l0,0zM38.88,3.744a1.152,1.152,0,1,0,2.304,0,1.152,1.152,0,1,0,-2.304,0z"
         stroke="none"
         gorn="0.4.0.17" />
      <circle
         id="circle102"
         stroke-width="0.72"
         fill="none"
         cx="32.832"
         cy="3.744"
         connectorname="12"
         r="1.512"
         stroke="#f7bd13"
         gorn="0.4.0.18" />
      <path
         id="path104"
         fill="#f7bd13"
         d="m32.832,0a1.872,1.872,0,0,1,1.872,1.872l0,3.744a1.872,1.872,0,0,1,-1.872,1.872l0,0A1.872,1.872,0,0,1,30.96,5.616l0,-3.744A1.872,1.872,0,0,1,32.832,0l0,0zM31.68,3.744a1.152,1.152,0,1,0,2.304,0,1.152,1.152,0,1,0,-2.304,0z"
         stroke="none"
         gorn="0.4.0.19" />
      <circle
         id="circle106"
         stroke-width="0.72"
         fill="none"
         cx="25.632"
         cy="3.744"
         connectorname="13"
         r="1.512"
         stroke="#f7bd13"
         gorn="0.4.0.20" />
      <path
         id="path108"
         fill="#f7bd13"
         d="m25.632,0a1.872,1.872,0,0,1,1.872,1.872l0,3.744a1.872,1.872,0,0,1,-1.872,1.872l0,0A1.872,1.872,0,0,1,23.76,5.616l0,-3.744A1.872,1.872,0,0,1,25.632,0l0,0zM24.48,3.744a1.152,1.152,0,1,0,2.304,0,1.152,1.152,0,1,0,-2.304,0z"
         stroke="none"
         gorn="0.4.0.21" />
      <circle
         id="circle110"
         stroke-width="0.72"
         fill="none"
         cx="18.432"
         cy="3.744"
         connectorname="14"
         r="1.512"
         stroke="#f7bd13"
         gorn="0.4.0.22" />
      <path
         id="path112"
         fill="#f7bd13"
         d="m18.432,0a1.872,1.872,0,0,1,1.872,1.872l0,3.744a1.872,1.872,0,0,1,-1.872,1.872l0,0A1.872,1.872,0,0,1,16.56,5.616l0,-3.744A1.872,1.872,0,0,1,18.432,0l0,0zM17.28,3.744a1.152,1.152,0,1,0,2.304,0,1.152,1.152,0,1,0,-2.304,0z"
         stroke="none"
         gorn="0.4.0.23" />
      <circle
         id="circle114"
         stroke-width="0.72"
         fill="none"
         cx="11.232"
         cy="3.744"
         connectorname="15"
         r="1.512"
         stroke="#f7bd13"
         gorn="0.4.0.24" />
      <path
         id="path116"
         fill="#f7bd13"
         d="m11.232,0a1.872,1.872,0,0,1,1.872,1.872l0,3.744a1.872,1.872,0,0,1,-1.872,1.872l0,0A1.872,1.872,0,0,1,9.36,5.616l0,-3.744A1.872,1.872,0,0,1,11.232,0l0,0zM10.08,3.744a1.152,1.152,0,1,0,2.304,0,1.152,1.152,0,1,0,-2.304,0z"
         stroke="none"
         gorn="0.4.0.25" />
      <circle
         id="circle118"
         stroke-width="0.72"
         fill="none"
         cx="4.032"
         cy="3.744"
         connectorname="16"
         r="1.512"
         stroke="#f7bd13"
         gorn="0.4.0.26" />
      <path
         id="path120"
         fill="#f7bd13"
         d="m4.032,0a1.872,1.872,0,0,1,1.872,1.872l0,3.744A1.872,1.872,0,0,1,4.032,7.488l0,0A1.872,1.872,0,0,1,2.16,5.616l0,-3.744A1.872,1.872,0,0,1,4.032,0l0,0zM2.88,3.744a1.152,1.152,0,1,0,2.304,0,1.152,1.152,0,1,0,-2.304,0z"
         stroke="none"
         gorn="0.4.0.27" />
      <g
         id="g122"
         gorn="0.4.0.28">
        <circle
           id="circle124"
           stroke-width="0.72"
           fill="none"
           cx="4.032"
           cy="25.344"
           connectorname="1"
           r="1.512"
           stroke="#f7bd13"
           gorn="0.4.0.28.0" />
        <path
           id="path126"
           fill="#f7bd13"
           d="m4.032,21.6a1.872,1.872,0,0,1,1.872,1.872l0,3.744a1.872,1.872,0,0,1,-1.872,1.872l0,0A1.872,1.872,0,0,1,2.16,27.216l0,-3.744A1.872,1.872,0,0,1,4.032,21.6l0,0zM2.88,25.344a1.152,1.152,0,1,0,2.304,0,1.152,1.152,0,1,0,-2.304,0z"
           stroke="none"
           gorn="0.4.0.28.1" />
        <circle
           id="circle128"
           stroke-width="0.72"
           fill="none"
           cx="11.232"
           cy="25.344"
           connectorname="2"
           r="1.512"
           stroke="#f7bd13"
           gorn="0.4.0.28.2" />
        <path
           id="path130"
           fill="#f7bd13"
           d="m11.232,21.6a1.872,1.872,0,0,1,1.872,1.872l0,3.744a1.872,1.872,0,0,1,-1.872,1.872l0,0A1.872,1.872,0,0,1,9.36,27.216l0,-3.744A1.872,1.872,0,0,1,11.232,21.6l0,0zm-1.152,3.744a1.152,1.152,0,1,0,2.304,0,1.152,1.152,0,1,0,-2.304,0z"
           stroke="none"
           gorn="0.4.0.28.3" />
        <circle
           id="circle132"
           stroke-width="0.72"
           fill="none"
           cx="18.432"
           cy="25.344"
           connectorname="3"
           r="1.512"
           stroke="#f7bd13"
           gorn="0.4.0.28.4" />
        <path
           id="path134"
           fill="#f7bd13"
           d="m18.432,21.6a1.872,1.872,0,0,1,1.872,1.872l0,3.744a1.872,1.872,0,0,1,-1.872,1.872l0,0A1.872,1.872,0,0,1,16.56,27.216l0,-3.744A1.872,1.872,0,0,1,18.432,21.6l0,0zm-1.152,3.744a1.152,1.152,0,1,0,2.304,0,1.152,1.152,0,1,0,-2.304,0z"
           stroke="none"
           gorn="0.4.0.28.5" />
        <circle
           id="circle136"
           stroke-width="0.72"
           fill="none"
           cx="25.632"
           cy="25.344"
           connectorname="4"
           r="1.512"
           stroke="#f7bd13"
           gorn="0.4.0.28.6" />
        <path
           id="path138"
           fill="#f7bd13"
           d="m25.632,21.6a1.872,1.872,0,0,1,1.872,1.872l0,3.744a1.872,1.872,0,0,1,-1.872,1.872l0,0A1.872,1.872,0,0,1,23.76,27.216l0,-3.744A1.872,1.872,0,0,1,25.632,21.6l0,0zm-1.152,3.744a1.152,1.152,0,1,0,2.304,0,1.152,1.152,0,1,0,-2.304,0z"
           stroke="none"
           gorn="0.4.0.28.7" />
        <circle
           id="circle140"
           stroke-width="0.72"
           fill="none"
           cx="32.832"
           cy="25.344"
           connectorname="5"
           r="1.512"
           stroke="#f7bd13"
           gorn="0.4.0.28.8" />
        <path
           id="path142"
           fill="#f7bd13"
           d="m32.832,21.6a1.872,1.872,0,0,1,1.872,1.872l0,3.744a1.872,1.872,0,0,1,-1.872,1.872l0,0A1.872,1.872,0,0,1,30.96,27.216l0,-3.744A1.872,1.872,0,0,1,32.832,21.6l0,0zm-1.152,3.744a1.152,1.152,0,1,0,2.304,0,1.152,1.152,0,1,0,-2.304,0z"
           stroke="none"
           gorn="0.4.0.28.9" />
        <circle
           id="circle144"
           stroke-width="0.72"
           fill="none"
           cx="40.032"
           cy="25.344"
           connectorname="6"
           r="1.512"
           stroke="#f7bd13"
           gorn="0.4.0.28.10" />
        <path
           id="path146"
           fill="#f7bd13"
           d="m40.032,21.6a1.872,1.872,0,0,1,1.872,1.872l0,3.744a1.872,1.872,0,0,1,-1.872,1.872l0,0A1.872,1.872,0,0,1,38.16,27.216l0,-3.744A1.872,1.872,0,0,1,40.032,21.6l0,0zm-1.152,3.744a1.152,1.152,0,1,0,2.304,0,1.152,1.152,0,1,0,-2.304,0z"
           stroke="none"
           gorn="0.4.0.28.11" />
        <circle
           id="circle148"
           stroke-width="0.72"
           fill="none"
           cx="47.232"
           cy="25.344"
           connectorname="7"
           r="1.512"
           stroke="#f7bd13"
           gorn="0.4.0.28.12" />
        <path
           id="path150"
           fill="#f7bd13"
           d="m47.232,21.6a1.872,1.872,0,0,1,1.872,1.872l0,3.744a1.872,1.872,0,0,1,-1.872,1.872l0,0A1.872,1.872,0,0,1,45.36,27.216l0,-3.744A1.872,1.872,0,0,1,47.232,21.6l0,0zm-1.152,3.744a1.152,1.152,0,1,0,2.304,0,1.152,1.152,0,1,0,-2.304,0z"
           stroke="none"
           gorn="0.4.0.28.13" />
        <circle
           id="circle160"
           stroke-width="0.72"
           fill="none"
           cx="47.232"
           cy="3.744"
           connectorname="10"
           r="1.512"
           stroke="#f7bd13"
           gorn="0.4.0.28.14" />
        <path
           id="path162"
           fill="#f7bd13"
           d="m47.232,0a1.872,1.872,0,0,1,1.872,1.872l0,3.744a1.872,1.872,0,0,1,-1.872,1.872l0,0A1.872,1.872,0,0,1,45.36,5.616l0,-3.744A1.872,1.872,0,0,1,47.232,0l0,0zM46.08,3.744a1.152,1.152,0,1,0,2.304,0,1.152,1.152,0,1,0,-2.304,0z"
           stroke="none"
           gorn="0.4.0.28.15" />
        <circle
           id="circle164"
           stroke-width="0.72"
           fill="none"
           cx="40.032"
           cy="3.744"
           connectorname="11"
           r="1.512"
           stroke="#f7bd13"
           gorn="0.4.0.28.16" />
        <path
           id="path166"
           fill="#f7bd13"
           d="m40.032,0a1.872,1.872,0,0,1,1.872,1.872l0,3.744a1.872,1.872,0,0,1,-1.872,1.872l0,0A1.872,1.872,0,0,1,38.16,5.616l0,-3.744A1.872,1.872,0,0,1,40.032,0l0,0zM38.88,3.744a1.152,1.152,0,1,0,2.304,0,1.152,1.152,0,1,0,-2.304,0z"
           stroke="none"
           gorn="0.4.0.28.17" />
        <circle
           id="circle168"
           stroke-width="0.72"
           fill="none"
           cx="32.832"
           cy="3.744"
           connectorname="12"
           r="1.512"
           stroke="#f7bd13"
           gorn="0.4.0.28.18" />
        <path
           id="path170"
           fill="#f7bd13"
           d="m32.832,0a1.872,1.872,0,0,1,1.872,1.872l0,3.744a1.872,1.872,0,0,1,-1.872,1.872l0,0A1.872,1.872,0,0,1,30.96,5.616l0,-3.744A1.872,1.872,0,0,1,32.832,0l0,0zM31.68,3.744a1.152,1.152,0,1,0,2.304,0,1.152,1.152,0,1,0,-2.304,0z"
           stroke="none"
           gorn="0.4.0.28.19" />
        <circle
           id="circle172"
           stroke-width="0.72"
           fill="none"
           cx="25.632"
           cy="3.744"
           connectorname="13"
           r="1.512"
           stroke="#f7bd13"
           gorn="0.4.0.28.20" />
        <path
           id="path174"
           fill="#f7bd13"
           d="m25.632,0a1.872,1.872,0,0,1,1.872,1.872l0,3.744a1.872,1.872,0,0,1,-1.872,1.872l0,0A1.872,1.872,0,0,1,23.76,5.616l0,-3.744A1.872,1.872,0,0,1,25.632,0l0,0zM24.48,3.744a1.152,1.152,0,1,0,2.304,0,1.152,1.152,0,1,0,-2.304,0z"
           stroke="none"
           gorn="0.4.0.28.21" />
        <circle
           id="circle176"
           stroke-width="0.72"
           fill="none"
           cx="18.432"
           cy="3.744"
           connectorname="14"
           r="1.512"
           stroke="#f7bd13"
           gorn="0.4.0.28.22" />
        <path
           id="path178"
           fill="#f7bd13"
           d="m18.432,0a1.872,1.872,0,0,1,1.872,1.872l0,3.744a1.872,1.872,0,0,1,-1.872,1.872l0,0A1.872,1.872,0,0,1,16.56,5.616l0,-3.744A1.872,1.872,0,0,1,18.432,0l0,0zM17.28,3.744a1.152,1.152,0,1,0,2.304,0,1.152,1.152,0,1,0,-2.304,0z"
           stroke="none"
           gorn="0.4.0.28.23" />
        <circle
           id="circle180"
           stroke-width="0.72"
           fill="none"
           cx="11.232"
           cy="3.744"
           connectorname="15"
           r="1.512"
           stroke="#f7bd13"
           gorn="0.4.0.28.24" />
        <path
           id="path182"
           fill="#f7bd13"
           d="m11.232,0a1.872,1.872,0,0,1,1.872,1.872l0,3.744a1.872,1.872,0,0,1,-1.872,1.872l0,0A1.872,1.872,0,0,1,9.36,5.616l0,-3.744A1.872,1.872,0,0,1,11.232,0l0,0zM10.08,3.744a1.152,1.152,0,1,0,2.304,0,1.152,1.152,0,1,0,-2.304,0z"
           stroke="none"
           gorn="0.4.0.28.25" />
        <circle
           id="circle184"
           stroke-width="0.72"
           fill="none"
           cx="4.032"
           cy="3.744"
           connectorname="16"
           r="1.512"
           stroke="#f7bd13"
           gorn="0.4.0.28.26" />
        <path
           id="path186"
           fill="#f7bd13"
           d="m4.032,0a1.872,1.872,0,0,1,1.872,1.872l0,3.744A1.872,1.872,0,0,1,4.032,7.488l0,0A1.872,1.872,0,0,1,2.16,5.616l0,-3.744A1.872,1.872,0,0,1,4.032,0l0,0zM2.88,3.744a1.152,1.152,0,1,0,2.304,0,1.152,1.152,0,1,0,-2.304,0z"
           stroke="none"
           gorn="0.4.0.28.27" />
      </g>
    </g>
  </g>
  <g
     partID="854713912"
     id="g95">
    <g
       transform="scale(0.87684734,1)"
       id="g97">
      <g
         id="silkscreen">
        <g
           gorn="0.5.0.0.0.0"
           id="g100">
          <line
             id="line191"
             stroke-width="0.864"
             y1="6.264"
             y2="6.264"
             x1="58.032"
             x2="0.432"
             style="stroke-linecap:round"
             class="other"
             stroke="#f0f0f0"
             gorn="0.5.0.0.0.0.0" />
          <line
             id="line193"
             stroke-width="0.864"
             y1="22.824"
             y2="22.824"
             x1="0.432"
             x2="58.032"
             style="stroke-linecap:round"
             class="other"
             stroke="#f0f0f0"
             gorn="0.5.0.0.0.0.1" />
          <line
             id="line195"
             stroke-width="0.864"
             y1="6.264"
             y2="22.824"
             x1="58.032"
             x2="58.032"
             style="stroke-linecap:round"
             class="other"
             stroke="#f0f0f0"
             gorn="0.5.0.0.0.0.2" />
          <line
             id="line197"
             stroke-width="0.864"
             y1="6.264"
             y2="11.664"
             x1="0.432"
             x2="0.432"
             style="stroke-linecap:round"
             class="other"
             stroke="#f0f0f0"
             gorn="0.5.0.0.0.0.3" />
          <line
             id="line199"
             stroke-width="0.864"
             y1="22.824"
             y2="17.424"
             x1="0.432"
             x2="0.432"
             style="stroke-linecap:round"
             class="other"
             stroke="#f0f0f0"
             gorn="0.5.0.0.0.0.4" />
          <path
             id="path201"
             stroke-width="0.864"
             fill="none"
             d="m0.432,17.424a2.88,2.88,0,1,0,0,-5.76"
             class="other"
             stroke="#f0f0f0"
             gorn="0.5.0.0.0.0.5" />
        </g>
      </g>
    </g>
  </g>
</svg>
