M48
;DRILL file {KiCad 4.0.1-stable} date 2016 February 20, Saturday 16:09:10
;FORMAT={-:-/ absolute / inch / decimal}
FMAT,2
INCH,TZ
T1C0.031
T2C0.039
T3C0.040
%
G90
G05
M72
T1
X5.05Y-4.
X5.05Y-4.1
X5.05Y-4.2
X5.05Y-4.3
X5.05Y-4.4
X5.05Y-4.5
X5.05Y-4.6
X5.05Y-4.7
X5.35Y-4.
X5.35Y-4.1
X5.35Y-4.2
X5.35Y-4.3
X5.35Y-4.4
X5.35Y-4.5
X5.35Y-4.6
X5.35Y-4.7
X6.25Y-3.9
X6.25Y-4.5
X6.35Y-3.9
X6.35Y-4.5
X6.45Y-3.9
X6.45Y-4.5
X6.55Y-3.9
X6.55Y-4.5
X6.65Y-3.9
X6.65Y-4.5
T2
X5.592Y-3.65
X5.592Y-3.8
X5.592Y-3.95
X5.592Y-4.1
X5.592Y-4.25
X5.592Y-4.4
X5.592Y-4.55
X5.592Y-4.7
X5.992Y-3.65
X5.992Y-3.8
X5.992Y-3.95
X5.992Y-4.1
X5.992Y-4.25
X5.992Y-4.4
X5.992Y-4.55
X5.992Y-4.7
T3
X5.05Y-3.65
X5.15Y-3.65
X5.25Y-3.65
X5.35Y-3.65
X5.45Y-3.65
T0
M30
