G04 #@! TF.FileFunction,Legend,Bot*
%FSLAX46Y46*%
G04 Gerber Fmt 4.6, Leading zero omitted, Abs format (unit mm)*
G04 Created by KiCad (PCBNEW 4.0.1-stable) date 2016 February 20, Saturday 16:26:08*
%MOMM*%
G01*
G04 APERTURE LIST*
%ADD10C,0.100000*%
%ADD11C,0.300000*%
G04 APERTURE END LIST*
D10*
D11*
X167966188Y-121006429D02*
X167966188Y-122058810D01*
X168028093Y-122182619D01*
X168089998Y-122244524D01*
X168213807Y-122306429D01*
X168399522Y-122306429D01*
X168523331Y-122244524D01*
X167966188Y-121811190D02*
X168089998Y-121873095D01*
X168337617Y-121873095D01*
X168461426Y-121811190D01*
X168523331Y-121749286D01*
X168585236Y-121625476D01*
X168585236Y-121254048D01*
X168523331Y-121130238D01*
X168461426Y-121068333D01*
X168337617Y-121006429D01*
X168089998Y-121006429D01*
X167966188Y-121068333D01*
X167347141Y-121873095D02*
X167347141Y-121006429D01*
X167347141Y-120573095D02*
X167409046Y-120635000D01*
X167347141Y-120696905D01*
X167285236Y-120635000D01*
X167347141Y-120573095D01*
X167347141Y-120696905D01*
X166913807Y-121006429D02*
X166418569Y-121006429D01*
X166728093Y-120573095D02*
X166728093Y-121687381D01*
X166666188Y-121811190D01*
X166542379Y-121873095D01*
X166418569Y-121873095D01*
X165985236Y-121873095D02*
X165985236Y-120573095D01*
X165428093Y-121873095D02*
X165428093Y-121192143D01*
X165489998Y-121068333D01*
X165613808Y-121006429D01*
X165799522Y-121006429D01*
X165923331Y-121068333D01*
X165985236Y-121130238D01*
X164251903Y-121006429D02*
X164251903Y-121873095D01*
X164809046Y-121006429D02*
X164809046Y-121687381D01*
X164747141Y-121811190D01*
X164623332Y-121873095D01*
X164437618Y-121873095D01*
X164313808Y-121811190D01*
X164251903Y-121749286D01*
X163632856Y-121873095D02*
X163632856Y-120573095D01*
X163632856Y-121068333D02*
X163509047Y-121006429D01*
X163261428Y-121006429D01*
X163137618Y-121068333D01*
X163075713Y-121130238D01*
X163013809Y-121254048D01*
X163013809Y-121625476D01*
X163075713Y-121749286D01*
X163137618Y-121811190D01*
X163261428Y-121873095D01*
X163509047Y-121873095D01*
X163632856Y-121811190D01*
X162456666Y-121749286D02*
X162394761Y-121811190D01*
X162456666Y-121873095D01*
X162518571Y-121811190D01*
X162456666Y-121749286D01*
X162456666Y-121873095D01*
X161280475Y-121811190D02*
X161404285Y-121873095D01*
X161651904Y-121873095D01*
X161775713Y-121811190D01*
X161837618Y-121749286D01*
X161899523Y-121625476D01*
X161899523Y-121254048D01*
X161837618Y-121130238D01*
X161775713Y-121068333D01*
X161651904Y-121006429D01*
X161404285Y-121006429D01*
X161280475Y-121068333D01*
X160537618Y-121873095D02*
X160661427Y-121811190D01*
X160723332Y-121749286D01*
X160785237Y-121625476D01*
X160785237Y-121254048D01*
X160723332Y-121130238D01*
X160661427Y-121068333D01*
X160537618Y-121006429D01*
X160351904Y-121006429D01*
X160228094Y-121068333D01*
X160166189Y-121130238D01*
X160104285Y-121254048D01*
X160104285Y-121625476D01*
X160166189Y-121749286D01*
X160228094Y-121811190D01*
X160351904Y-121873095D01*
X160537618Y-121873095D01*
X159547142Y-121873095D02*
X159547142Y-121006429D01*
X159547142Y-121130238D02*
X159485237Y-121068333D01*
X159361428Y-121006429D01*
X159175714Y-121006429D01*
X159051904Y-121068333D01*
X158989999Y-121192143D01*
X158989999Y-121873095D01*
X158989999Y-121192143D02*
X158928095Y-121068333D01*
X158804285Y-121006429D01*
X158618571Y-121006429D01*
X158494761Y-121068333D01*
X158432856Y-121192143D01*
X158432856Y-121873095D01*
X156885238Y-120511190D02*
X157999523Y-122182619D01*
X156637618Y-121006429D02*
X156142380Y-121006429D01*
X156451904Y-120573095D02*
X156451904Y-121687381D01*
X156389999Y-121811190D01*
X156266190Y-121873095D01*
X156142380Y-121873095D01*
X155151904Y-121873095D02*
X155151904Y-121192143D01*
X155213809Y-121068333D01*
X155337619Y-121006429D01*
X155585238Y-121006429D01*
X155709047Y-121068333D01*
X155151904Y-121811190D02*
X155275714Y-121873095D01*
X155585238Y-121873095D01*
X155709047Y-121811190D01*
X155770952Y-121687381D01*
X155770952Y-121563571D01*
X155709047Y-121439762D01*
X155585238Y-121377857D01*
X155275714Y-121377857D01*
X155151904Y-121315952D01*
X154532857Y-121873095D02*
X154532857Y-121006429D01*
X154532857Y-121254048D02*
X154470952Y-121130238D01*
X154409048Y-121068333D01*
X154285238Y-121006429D01*
X154161429Y-121006429D01*
X153170952Y-121873095D02*
X153170952Y-120573095D01*
X153170952Y-121811190D02*
X153294762Y-121873095D01*
X153542381Y-121873095D01*
X153666190Y-121811190D01*
X153728095Y-121749286D01*
X153790000Y-121625476D01*
X153790000Y-121254048D01*
X153728095Y-121130238D01*
X153666190Y-121068333D01*
X153542381Y-121006429D01*
X153294762Y-121006429D01*
X153170952Y-121068333D01*
X151994762Y-121873095D02*
X151994762Y-121192143D01*
X152056667Y-121068333D01*
X152180477Y-121006429D01*
X152428096Y-121006429D01*
X152551905Y-121068333D01*
X151994762Y-121811190D02*
X152118572Y-121873095D01*
X152428096Y-121873095D01*
X152551905Y-121811190D01*
X152613810Y-121687381D01*
X152613810Y-121563571D01*
X152551905Y-121439762D01*
X152428096Y-121377857D01*
X152118572Y-121377857D01*
X151994762Y-121315952D01*
X151561429Y-121006429D02*
X151066191Y-121006429D01*
X151375715Y-120573095D02*
X151375715Y-121687381D01*
X151313810Y-121811190D01*
X151190001Y-121873095D01*
X151066191Y-121873095D01*
X150137620Y-121811190D02*
X150261430Y-121873095D01*
X150509049Y-121873095D01*
X150632858Y-121811190D01*
X150694763Y-121687381D01*
X150694763Y-121192143D01*
X150632858Y-121068333D01*
X150509049Y-121006429D01*
X150261430Y-121006429D01*
X150137620Y-121068333D01*
X150075715Y-121192143D01*
X150075715Y-121315952D01*
X150694763Y-121439762D01*
X148590001Y-120511190D02*
X149704286Y-122182619D01*
X147537620Y-121873095D02*
X148156667Y-121873095D01*
X148156667Y-120573095D01*
X147104286Y-121873095D02*
X147104286Y-121006429D01*
X147104286Y-120573095D02*
X147166191Y-120635000D01*
X147104286Y-120696905D01*
X147042381Y-120635000D01*
X147104286Y-120573095D01*
X147104286Y-120696905D01*
X146670952Y-121006429D02*
X146175714Y-121006429D01*
X146485238Y-120573095D02*
X146485238Y-121687381D01*
X146423333Y-121811190D01*
X146299524Y-121873095D01*
X146175714Y-121873095D01*
X145928095Y-121006429D02*
X145432857Y-121006429D01*
X145742381Y-120573095D02*
X145742381Y-121687381D01*
X145680476Y-121811190D01*
X145556667Y-121873095D01*
X145432857Y-121873095D01*
X144813810Y-121873095D02*
X144937619Y-121811190D01*
X144999524Y-121687381D01*
X144999524Y-120573095D01*
X143823334Y-121811190D02*
X143947144Y-121873095D01*
X144194763Y-121873095D01*
X144318572Y-121811190D01*
X144380477Y-121687381D01*
X144380477Y-121192143D01*
X144318572Y-121068333D01*
X144194763Y-121006429D01*
X143947144Y-121006429D01*
X143823334Y-121068333D01*
X143761429Y-121192143D01*
X143761429Y-121315952D01*
X144380477Y-121439762D01*
X143266191Y-121501667D02*
X142647143Y-121501667D01*
X143390000Y-121873095D02*
X142956667Y-120573095D01*
X142523334Y-121873095D01*
X142090000Y-121873095D02*
X142090000Y-121006429D01*
X142090000Y-121254048D02*
X142028095Y-121130238D01*
X141966191Y-121068333D01*
X141842381Y-121006429D01*
X141718572Y-121006429D01*
X140728095Y-121873095D02*
X140728095Y-120573095D01*
X140728095Y-121811190D02*
X140851905Y-121873095D01*
X141099524Y-121873095D01*
X141223333Y-121811190D01*
X141285238Y-121749286D01*
X141347143Y-121625476D01*
X141347143Y-121254048D01*
X141285238Y-121130238D01*
X141223333Y-121068333D01*
X141099524Y-121006429D01*
X140851905Y-121006429D01*
X140728095Y-121068333D01*
X139551905Y-121006429D02*
X139551905Y-121873095D01*
X140109048Y-121006429D02*
X140109048Y-121687381D01*
X140047143Y-121811190D01*
X139923334Y-121873095D01*
X139737620Y-121873095D01*
X139613810Y-121811190D01*
X139551905Y-121749286D01*
X138932858Y-121873095D02*
X138932858Y-121006429D01*
X138932858Y-120573095D02*
X138994763Y-120635000D01*
X138932858Y-120696905D01*
X138870953Y-120635000D01*
X138932858Y-120573095D01*
X138932858Y-120696905D01*
X138313810Y-121006429D02*
X138313810Y-121873095D01*
X138313810Y-121130238D02*
X138251905Y-121068333D01*
X138128096Y-121006429D01*
X137942382Y-121006429D01*
X137818572Y-121068333D01*
X137756667Y-121192143D01*
X137756667Y-121873095D01*
X136951906Y-121873095D02*
X137075715Y-121811190D01*
X137137620Y-121749286D01*
X137199525Y-121625476D01*
X137199525Y-121254048D01*
X137137620Y-121130238D01*
X137075715Y-121068333D01*
X136951906Y-121006429D01*
X136766192Y-121006429D01*
X136642382Y-121068333D01*
X136580477Y-121130238D01*
X136518573Y-121254048D01*
X136518573Y-121625476D01*
X136580477Y-121749286D01*
X136642382Y-121811190D01*
X136766192Y-121873095D01*
X136951906Y-121873095D01*
X135961430Y-121873095D02*
X135961430Y-120573095D01*
X135466192Y-120573095D01*
X135342383Y-120635000D01*
X135280478Y-120696905D01*
X135218573Y-120820714D01*
X135218573Y-121006429D01*
X135280478Y-121130238D01*
X135342383Y-121192143D01*
X135466192Y-121254048D01*
X135961430Y-121254048D01*
X134661430Y-121873095D02*
X134661430Y-121006429D01*
X134661430Y-121254048D02*
X134599525Y-121130238D01*
X134537621Y-121068333D01*
X134413811Y-121006429D01*
X134290002Y-121006429D01*
X133670954Y-121873095D02*
X133794763Y-121811190D01*
X133856668Y-121749286D01*
X133918573Y-121625476D01*
X133918573Y-121254048D01*
X133856668Y-121130238D01*
X133794763Y-121068333D01*
X133670954Y-121006429D01*
X133485240Y-121006429D01*
X133361430Y-121068333D01*
X133299525Y-121130238D01*
X133237621Y-121254048D01*
X133237621Y-121625476D01*
X133299525Y-121749286D01*
X133361430Y-121811190D01*
X133485240Y-121873095D01*
X133670954Y-121873095D01*
X132680478Y-121006429D02*
X132680478Y-122120714D01*
X132742383Y-122244524D01*
X132866192Y-122306429D01*
X132928097Y-122306429D01*
X132680478Y-120573095D02*
X132742383Y-120635000D01*
X132680478Y-120696905D01*
X132618573Y-120635000D01*
X132680478Y-120573095D01*
X132680478Y-120696905D01*
X131566192Y-121811190D02*
X131690002Y-121873095D01*
X131937621Y-121873095D01*
X132061430Y-121811190D01*
X132123335Y-121687381D01*
X132123335Y-121192143D01*
X132061430Y-121068333D01*
X131937621Y-121006429D01*
X131690002Y-121006429D01*
X131566192Y-121068333D01*
X131504287Y-121192143D01*
X131504287Y-121315952D01*
X132123335Y-121439762D01*
X130390001Y-121811190D02*
X130513811Y-121873095D01*
X130761430Y-121873095D01*
X130885239Y-121811190D01*
X130947144Y-121749286D01*
X131009049Y-121625476D01*
X131009049Y-121254048D01*
X130947144Y-121130238D01*
X130885239Y-121068333D01*
X130761430Y-121006429D01*
X130513811Y-121006429D01*
X130390001Y-121068333D01*
X130018572Y-121006429D02*
X129523334Y-121006429D01*
X129832858Y-120573095D02*
X129832858Y-121687381D01*
X129770953Y-121811190D01*
X129647144Y-121873095D01*
X129523334Y-121873095D01*
X129151906Y-121811190D02*
X129028096Y-121873095D01*
X128780477Y-121873095D01*
X128656668Y-121811190D01*
X128594763Y-121687381D01*
X128594763Y-121625476D01*
X128656668Y-121501667D01*
X128780477Y-121439762D01*
X128966192Y-121439762D01*
X129090001Y-121377857D01*
X129151906Y-121254048D01*
X129151906Y-121192143D01*
X129090001Y-121068333D01*
X128966192Y-121006429D01*
X128780477Y-121006429D01*
X128656668Y-121068333D01*
M02*
