G04 #@! TF.FileFunction,Copper,L2,Bot,Signal*
%FSLAX46Y46*%
G04 Gerber Fmt 4.6, Leading zero omitted, Abs format (unit mm)*
G04 Created by KiCad (PCBNEW 4.0.1-stable) date 2016 February 20, Saturday 16:26:08*
%MOMM*%
G01*
G04 APERTURE LIST*
%ADD10C,0.100000*%
%ADD11O,1.524000X2.524000*%
%ADD12R,1.727200X2.032000*%
%ADD13O,1.727200X2.032000*%
%ADD14C,1.998980*%
%ADD15O,1.600000X1.600000*%
%ADD16C,0.400000*%
%ADD17C,0.254000*%
G04 APERTURE END LIST*
D10*
D11*
X158750000Y-114300000D03*
X161290000Y-114300000D03*
X163830000Y-114300000D03*
X166370000Y-114300000D03*
X168910000Y-114300000D03*
X168910000Y-99060000D03*
X166370000Y-99060000D03*
X163830000Y-99060000D03*
X161290000Y-99060000D03*
X158750000Y-99060000D03*
D12*
X138430000Y-92710000D03*
D13*
X135890000Y-92710000D03*
X133350000Y-92710000D03*
X130810000Y-92710000D03*
X128270000Y-92710000D03*
D14*
X142036800Y-92710000D03*
X152196800Y-92710000D03*
X142036800Y-96520000D03*
X152196800Y-96520000D03*
X142036800Y-100330000D03*
X152196800Y-100330000D03*
X142036800Y-104140000D03*
X152196800Y-104140000D03*
X142036800Y-107950000D03*
X152196800Y-107950000D03*
X142036800Y-111760000D03*
X152196800Y-111760000D03*
X142036800Y-115570000D03*
X152196800Y-115570000D03*
X142036800Y-119380000D03*
X152196800Y-119380000D03*
D15*
X135890000Y-119380000D03*
X135890000Y-116840000D03*
X135890000Y-114300000D03*
X135890000Y-111760000D03*
X135890000Y-109220000D03*
X135890000Y-106680000D03*
X135890000Y-104140000D03*
X135890000Y-101600000D03*
X128270000Y-101600000D03*
X128270000Y-104140000D03*
X128270000Y-106680000D03*
X128270000Y-109220000D03*
X128270000Y-111760000D03*
X128270000Y-114300000D03*
X128270000Y-116840000D03*
X128270000Y-119380000D03*
D16*
X135890000Y-101600000D02*
X141087552Y-101600000D01*
X141087552Y-101600000D02*
X141317043Y-101829491D01*
X141317043Y-101829491D02*
X161560509Y-101829491D01*
X161560509Y-101829491D02*
X163830000Y-99560000D01*
X163830000Y-99560000D02*
X163830000Y-99060000D01*
X163830000Y-114300000D02*
X163830000Y-99060000D01*
X163830000Y-98560000D02*
X163830000Y-99060000D01*
X135890000Y-101600000D02*
X129570001Y-107919999D01*
X129570001Y-107919999D02*
X129570001Y-110459999D01*
X129570001Y-110459999D02*
X129069999Y-110960001D01*
X129069999Y-110960001D02*
X128270000Y-111760000D01*
X135890000Y-92710000D02*
X135890000Y-101600000D01*
D17*
G36*
X171323000Y-122428000D02*
X125857000Y-122428000D01*
X125857000Y-114300000D01*
X126806887Y-114300000D01*
X126916120Y-114849151D01*
X127227189Y-115314698D01*
X127609275Y-115570000D01*
X127227189Y-115825302D01*
X126916120Y-116290849D01*
X126806887Y-116840000D01*
X126916120Y-117389151D01*
X127227189Y-117854698D01*
X127609275Y-118110000D01*
X127227189Y-118365302D01*
X126916120Y-118830849D01*
X126806887Y-119380000D01*
X126916120Y-119929151D01*
X127227189Y-120394698D01*
X127692736Y-120705767D01*
X128241887Y-120815000D01*
X128298113Y-120815000D01*
X128847264Y-120705767D01*
X129312811Y-120394698D01*
X129623880Y-119929151D01*
X129733113Y-119380000D01*
X129623880Y-118830849D01*
X129312811Y-118365302D01*
X128930725Y-118110000D01*
X129312811Y-117854698D01*
X129623880Y-117389151D01*
X129733113Y-116840000D01*
X129623880Y-116290849D01*
X129312811Y-115825302D01*
X128930725Y-115570000D01*
X129312811Y-115314698D01*
X129623880Y-114849151D01*
X129733113Y-114300000D01*
X129623880Y-113750849D01*
X129312811Y-113285302D01*
X128908297Y-113015014D01*
X129125134Y-112912389D01*
X129501041Y-112497423D01*
X129661904Y-112109039D01*
X129539915Y-111887000D01*
X128397000Y-111887000D01*
X128397000Y-111907000D01*
X128143000Y-111907000D01*
X128143000Y-111887000D01*
X127000085Y-111887000D01*
X126878096Y-112109039D01*
X127038959Y-112497423D01*
X127414866Y-112912389D01*
X127631703Y-113015014D01*
X127227189Y-113285302D01*
X126916120Y-113750849D01*
X126806887Y-114300000D01*
X125857000Y-114300000D01*
X125857000Y-101600000D01*
X126806887Y-101600000D01*
X126916120Y-102149151D01*
X127227189Y-102614698D01*
X127609275Y-102870000D01*
X127227189Y-103125302D01*
X126916120Y-103590849D01*
X126806887Y-104140000D01*
X126916120Y-104689151D01*
X127227189Y-105154698D01*
X127609275Y-105410000D01*
X127227189Y-105665302D01*
X126916120Y-106130849D01*
X126806887Y-106680000D01*
X126916120Y-107229151D01*
X127227189Y-107694698D01*
X127609275Y-107950000D01*
X127227189Y-108205302D01*
X126916120Y-108670849D01*
X126806887Y-109220000D01*
X126916120Y-109769151D01*
X127227189Y-110234698D01*
X127631703Y-110504986D01*
X127414866Y-110607611D01*
X127038959Y-111022577D01*
X126878096Y-111410961D01*
X127000085Y-111633000D01*
X128143000Y-111633000D01*
X128143000Y-111613000D01*
X128397000Y-111613000D01*
X128397000Y-111633000D01*
X129539915Y-111633000D01*
X129661904Y-111410961D01*
X129501041Y-111022577D01*
X129125134Y-110607611D01*
X128908297Y-110504986D01*
X129312811Y-110234698D01*
X129623880Y-109769151D01*
X129733113Y-109220000D01*
X129623880Y-108670849D01*
X129312811Y-108205302D01*
X128930725Y-107950000D01*
X129312811Y-107694698D01*
X129623880Y-107229151D01*
X129733113Y-106680000D01*
X129623880Y-106130849D01*
X129312811Y-105665302D01*
X128930725Y-105410000D01*
X129312811Y-105154698D01*
X129623880Y-104689151D01*
X129733113Y-104140000D01*
X134426887Y-104140000D01*
X134536120Y-104689151D01*
X134847189Y-105154698D01*
X135229275Y-105410000D01*
X134847189Y-105665302D01*
X134536120Y-106130849D01*
X134426887Y-106680000D01*
X134536120Y-107229151D01*
X134847189Y-107694698D01*
X135229275Y-107950000D01*
X134847189Y-108205302D01*
X134536120Y-108670849D01*
X134426887Y-109220000D01*
X134536120Y-109769151D01*
X134847189Y-110234698D01*
X135229275Y-110490000D01*
X134847189Y-110745302D01*
X134536120Y-111210849D01*
X134426887Y-111760000D01*
X134536120Y-112309151D01*
X134847189Y-112774698D01*
X135229275Y-113030000D01*
X134847189Y-113285302D01*
X134536120Y-113750849D01*
X134426887Y-114300000D01*
X134536120Y-114849151D01*
X134847189Y-115314698D01*
X135229275Y-115570000D01*
X134847189Y-115825302D01*
X134536120Y-116290849D01*
X134426887Y-116840000D01*
X134536120Y-117389151D01*
X134847189Y-117854698D01*
X135229275Y-118110000D01*
X134847189Y-118365302D01*
X134536120Y-118830849D01*
X134426887Y-119380000D01*
X134536120Y-119929151D01*
X134847189Y-120394698D01*
X135312736Y-120705767D01*
X135861887Y-120815000D01*
X135918113Y-120815000D01*
X136467264Y-120705767D01*
X136932811Y-120394698D01*
X137243880Y-119929151D01*
X137288726Y-119703694D01*
X140402026Y-119703694D01*
X140650338Y-120304655D01*
X141109727Y-120764846D01*
X141710253Y-121014206D01*
X142360494Y-121014774D01*
X142961455Y-120766462D01*
X143421646Y-120307073D01*
X143671006Y-119706547D01*
X143671008Y-119703694D01*
X150562026Y-119703694D01*
X150810338Y-120304655D01*
X151269727Y-120764846D01*
X151870253Y-121014206D01*
X152520494Y-121014774D01*
X153121455Y-120766462D01*
X153581646Y-120307073D01*
X153831006Y-119706547D01*
X153831574Y-119056306D01*
X153583262Y-118455345D01*
X153123873Y-117995154D01*
X152523347Y-117745794D01*
X151873106Y-117745226D01*
X151272145Y-117993538D01*
X150811954Y-118452927D01*
X150562594Y-119053453D01*
X150562026Y-119703694D01*
X143671008Y-119703694D01*
X143671574Y-119056306D01*
X143423262Y-118455345D01*
X142963873Y-117995154D01*
X142363347Y-117745794D01*
X141713106Y-117745226D01*
X141112145Y-117993538D01*
X140651954Y-118452927D01*
X140402594Y-119053453D01*
X140402026Y-119703694D01*
X137288726Y-119703694D01*
X137353113Y-119380000D01*
X137243880Y-118830849D01*
X136932811Y-118365302D01*
X136550725Y-118110000D01*
X136932811Y-117854698D01*
X137243880Y-117389151D01*
X137353113Y-116840000D01*
X137243880Y-116290849D01*
X136978510Y-115893694D01*
X140402026Y-115893694D01*
X140650338Y-116494655D01*
X141109727Y-116954846D01*
X141710253Y-117204206D01*
X142360494Y-117204774D01*
X142961455Y-116956462D01*
X143421646Y-116497073D01*
X143671006Y-115896547D01*
X143671008Y-115893694D01*
X150562026Y-115893694D01*
X150810338Y-116494655D01*
X151269727Y-116954846D01*
X151870253Y-117204206D01*
X152520494Y-117204774D01*
X153121455Y-116956462D01*
X153581646Y-116497073D01*
X153831006Y-115896547D01*
X153831574Y-115246306D01*
X153583262Y-114645345D01*
X153123873Y-114185154D01*
X152523347Y-113935794D01*
X151873106Y-113935226D01*
X151272145Y-114183538D01*
X150811954Y-114642927D01*
X150562594Y-115243453D01*
X150562026Y-115893694D01*
X143671008Y-115893694D01*
X143671574Y-115246306D01*
X143423262Y-114645345D01*
X142963873Y-114185154D01*
X142363347Y-113935794D01*
X141713106Y-113935226D01*
X141112145Y-114183538D01*
X140651954Y-114642927D01*
X140402594Y-115243453D01*
X140402026Y-115893694D01*
X136978510Y-115893694D01*
X136932811Y-115825302D01*
X136550725Y-115570000D01*
X136932811Y-115314698D01*
X137243880Y-114849151D01*
X137353113Y-114300000D01*
X137246265Y-113762836D01*
X157353000Y-113762836D01*
X157353000Y-114837164D01*
X157459340Y-115371773D01*
X157762172Y-115824992D01*
X158215391Y-116127824D01*
X158750000Y-116234164D01*
X159284609Y-116127824D01*
X159737828Y-115824992D01*
X160020000Y-115402693D01*
X160302172Y-115824992D01*
X160755391Y-116127824D01*
X161290000Y-116234164D01*
X161824609Y-116127824D01*
X162277828Y-115824992D01*
X162569298Y-115388778D01*
X162587941Y-115451941D01*
X162931974Y-115877630D01*
X163412723Y-116139260D01*
X163486930Y-116154220D01*
X163703000Y-116031720D01*
X163703000Y-114427000D01*
X163683000Y-114427000D01*
X163683000Y-114173000D01*
X163703000Y-114173000D01*
X163703000Y-112568280D01*
X163957000Y-112568280D01*
X163957000Y-114173000D01*
X163977000Y-114173000D01*
X163977000Y-114427000D01*
X163957000Y-114427000D01*
X163957000Y-116031720D01*
X164173070Y-116154220D01*
X164247277Y-116139260D01*
X164728026Y-115877630D01*
X165072059Y-115451941D01*
X165090702Y-115388778D01*
X165382172Y-115824992D01*
X165835391Y-116127824D01*
X166370000Y-116234164D01*
X166904609Y-116127824D01*
X167357828Y-115824992D01*
X167640000Y-115402693D01*
X167922172Y-115824992D01*
X168375391Y-116127824D01*
X168910000Y-116234164D01*
X169444609Y-116127824D01*
X169897828Y-115824992D01*
X170200660Y-115371773D01*
X170307000Y-114837164D01*
X170307000Y-113762836D01*
X170200660Y-113228227D01*
X169897828Y-112775008D01*
X169444609Y-112472176D01*
X168910000Y-112365836D01*
X168375391Y-112472176D01*
X167922172Y-112775008D01*
X167640000Y-113197307D01*
X167357828Y-112775008D01*
X166904609Y-112472176D01*
X166370000Y-112365836D01*
X165835391Y-112472176D01*
X165382172Y-112775008D01*
X165090702Y-113211222D01*
X165072059Y-113148059D01*
X164728026Y-112722370D01*
X164247277Y-112460740D01*
X164173070Y-112445780D01*
X163957000Y-112568280D01*
X163703000Y-112568280D01*
X163486930Y-112445780D01*
X163412723Y-112460740D01*
X162931974Y-112722370D01*
X162587941Y-113148059D01*
X162569298Y-113211222D01*
X162277828Y-112775008D01*
X161824609Y-112472176D01*
X161290000Y-112365836D01*
X160755391Y-112472176D01*
X160302172Y-112775008D01*
X160020000Y-113197307D01*
X159737828Y-112775008D01*
X159284609Y-112472176D01*
X158750000Y-112365836D01*
X158215391Y-112472176D01*
X157762172Y-112775008D01*
X157459340Y-113228227D01*
X157353000Y-113762836D01*
X137246265Y-113762836D01*
X137243880Y-113750849D01*
X136932811Y-113285302D01*
X136550725Y-113030000D01*
X136932811Y-112774698D01*
X137243880Y-112309151D01*
X137288726Y-112083694D01*
X140402026Y-112083694D01*
X140650338Y-112684655D01*
X141109727Y-113144846D01*
X141710253Y-113394206D01*
X142360494Y-113394774D01*
X142961455Y-113146462D01*
X143421646Y-112687073D01*
X143671006Y-112086547D01*
X143671008Y-112083694D01*
X150562026Y-112083694D01*
X150810338Y-112684655D01*
X151269727Y-113144846D01*
X151870253Y-113394206D01*
X152520494Y-113394774D01*
X153121455Y-113146462D01*
X153581646Y-112687073D01*
X153831006Y-112086547D01*
X153831574Y-111436306D01*
X153583262Y-110835345D01*
X153123873Y-110375154D01*
X152523347Y-110125794D01*
X151873106Y-110125226D01*
X151272145Y-110373538D01*
X150811954Y-110832927D01*
X150562594Y-111433453D01*
X150562026Y-112083694D01*
X143671008Y-112083694D01*
X143671574Y-111436306D01*
X143423262Y-110835345D01*
X142963873Y-110375154D01*
X142363347Y-110125794D01*
X141713106Y-110125226D01*
X141112145Y-110373538D01*
X140651954Y-110832927D01*
X140402594Y-111433453D01*
X140402026Y-112083694D01*
X137288726Y-112083694D01*
X137353113Y-111760000D01*
X137243880Y-111210849D01*
X136932811Y-110745302D01*
X136550725Y-110490000D01*
X136932811Y-110234698D01*
X137243880Y-109769151D01*
X137353113Y-109220000D01*
X137243880Y-108670849D01*
X136978510Y-108273694D01*
X140402026Y-108273694D01*
X140650338Y-108874655D01*
X141109727Y-109334846D01*
X141710253Y-109584206D01*
X142360494Y-109584774D01*
X142961455Y-109336462D01*
X143421646Y-108877073D01*
X143671006Y-108276547D01*
X143671008Y-108273694D01*
X150562026Y-108273694D01*
X150810338Y-108874655D01*
X151269727Y-109334846D01*
X151870253Y-109584206D01*
X152520494Y-109584774D01*
X153121455Y-109336462D01*
X153581646Y-108877073D01*
X153831006Y-108276547D01*
X153831574Y-107626306D01*
X153583262Y-107025345D01*
X153123873Y-106565154D01*
X152523347Y-106315794D01*
X151873106Y-106315226D01*
X151272145Y-106563538D01*
X150811954Y-107022927D01*
X150562594Y-107623453D01*
X150562026Y-108273694D01*
X143671008Y-108273694D01*
X143671574Y-107626306D01*
X143423262Y-107025345D01*
X142963873Y-106565154D01*
X142363347Y-106315794D01*
X141713106Y-106315226D01*
X141112145Y-106563538D01*
X140651954Y-107022927D01*
X140402594Y-107623453D01*
X140402026Y-108273694D01*
X136978510Y-108273694D01*
X136932811Y-108205302D01*
X136550725Y-107950000D01*
X136932811Y-107694698D01*
X137243880Y-107229151D01*
X137353113Y-106680000D01*
X137243880Y-106130849D01*
X136932811Y-105665302D01*
X136550725Y-105410000D01*
X136932811Y-105154698D01*
X137243880Y-104689151D01*
X137288726Y-104463694D01*
X140402026Y-104463694D01*
X140650338Y-105064655D01*
X141109727Y-105524846D01*
X141710253Y-105774206D01*
X142360494Y-105774774D01*
X142961455Y-105526462D01*
X143421646Y-105067073D01*
X143671006Y-104466547D01*
X143671008Y-104463694D01*
X150562026Y-104463694D01*
X150810338Y-105064655D01*
X151269727Y-105524846D01*
X151870253Y-105774206D01*
X152520494Y-105774774D01*
X153121455Y-105526462D01*
X153581646Y-105067073D01*
X153831006Y-104466547D01*
X153831574Y-103816306D01*
X153583262Y-103215345D01*
X153123873Y-102755154D01*
X152523347Y-102505794D01*
X151873106Y-102505226D01*
X151272145Y-102753538D01*
X150811954Y-103212927D01*
X150562594Y-103813453D01*
X150562026Y-104463694D01*
X143671008Y-104463694D01*
X143671574Y-103816306D01*
X143423262Y-103215345D01*
X142963873Y-102755154D01*
X142363347Y-102505794D01*
X141713106Y-102505226D01*
X141112145Y-102753538D01*
X140651954Y-103212927D01*
X140402594Y-103813453D01*
X140402026Y-104463694D01*
X137288726Y-104463694D01*
X137353113Y-104140000D01*
X137243880Y-103590849D01*
X136932811Y-103125302D01*
X136528297Y-102855014D01*
X136745134Y-102752389D01*
X137121041Y-102337423D01*
X137281904Y-101949039D01*
X137159915Y-101727000D01*
X136017000Y-101727000D01*
X136017000Y-101747000D01*
X135763000Y-101747000D01*
X135763000Y-101727000D01*
X134620085Y-101727000D01*
X134498096Y-101949039D01*
X134658959Y-102337423D01*
X135034866Y-102752389D01*
X135251703Y-102855014D01*
X134847189Y-103125302D01*
X134536120Y-103590849D01*
X134426887Y-104140000D01*
X129733113Y-104140000D01*
X129623880Y-103590849D01*
X129312811Y-103125302D01*
X128930725Y-102870000D01*
X129312811Y-102614698D01*
X129623880Y-102149151D01*
X129733113Y-101600000D01*
X129663685Y-101250961D01*
X134498096Y-101250961D01*
X134620085Y-101473000D01*
X135763000Y-101473000D01*
X135763000Y-100329371D01*
X136017000Y-100329371D01*
X136017000Y-101473000D01*
X137159915Y-101473000D01*
X137281904Y-101250961D01*
X137121041Y-100862577D01*
X136931820Y-100653694D01*
X140402026Y-100653694D01*
X140650338Y-101254655D01*
X141109727Y-101714846D01*
X141710253Y-101964206D01*
X142360494Y-101964774D01*
X142961455Y-101716462D01*
X143421646Y-101257073D01*
X143671006Y-100656547D01*
X143671008Y-100653694D01*
X150562026Y-100653694D01*
X150810338Y-101254655D01*
X151269727Y-101714846D01*
X151870253Y-101964206D01*
X152520494Y-101964774D01*
X153121455Y-101716462D01*
X153581646Y-101257073D01*
X153831006Y-100656547D01*
X153831574Y-100006306D01*
X153583262Y-99405345D01*
X153123873Y-98945154D01*
X152523347Y-98695794D01*
X151873106Y-98695226D01*
X151272145Y-98943538D01*
X150811954Y-99402927D01*
X150562594Y-100003453D01*
X150562026Y-100653694D01*
X143671008Y-100653694D01*
X143671574Y-100006306D01*
X143423262Y-99405345D01*
X142963873Y-98945154D01*
X142363347Y-98695794D01*
X141713106Y-98695226D01*
X141112145Y-98943538D01*
X140651954Y-99402927D01*
X140402594Y-100003453D01*
X140402026Y-100653694D01*
X136931820Y-100653694D01*
X136745134Y-100447611D01*
X136239041Y-100208086D01*
X136017000Y-100329371D01*
X135763000Y-100329371D01*
X135540959Y-100208086D01*
X135034866Y-100447611D01*
X134658959Y-100862577D01*
X134498096Y-101250961D01*
X129663685Y-101250961D01*
X129623880Y-101050849D01*
X129312811Y-100585302D01*
X128847264Y-100274233D01*
X128298113Y-100165000D01*
X128241887Y-100165000D01*
X127692736Y-100274233D01*
X127227189Y-100585302D01*
X126916120Y-101050849D01*
X126806887Y-101600000D01*
X125857000Y-101600000D01*
X125857000Y-98522836D01*
X157353000Y-98522836D01*
X157353000Y-99597164D01*
X157459340Y-100131773D01*
X157762172Y-100584992D01*
X158215391Y-100887824D01*
X158750000Y-100994164D01*
X159284609Y-100887824D01*
X159737828Y-100584992D01*
X160020000Y-100162693D01*
X160302172Y-100584992D01*
X160755391Y-100887824D01*
X161290000Y-100994164D01*
X161824609Y-100887824D01*
X162277828Y-100584992D01*
X162569298Y-100148778D01*
X162587941Y-100211941D01*
X162931974Y-100637630D01*
X163412723Y-100899260D01*
X163486930Y-100914220D01*
X163703000Y-100791720D01*
X163703000Y-99187000D01*
X163683000Y-99187000D01*
X163683000Y-98933000D01*
X163703000Y-98933000D01*
X163703000Y-97328280D01*
X163957000Y-97328280D01*
X163957000Y-98933000D01*
X163977000Y-98933000D01*
X163977000Y-99187000D01*
X163957000Y-99187000D01*
X163957000Y-100791720D01*
X164173070Y-100914220D01*
X164247277Y-100899260D01*
X164728026Y-100637630D01*
X165072059Y-100211941D01*
X165090702Y-100148778D01*
X165382172Y-100584992D01*
X165835391Y-100887824D01*
X166370000Y-100994164D01*
X166904609Y-100887824D01*
X167357828Y-100584992D01*
X167640000Y-100162693D01*
X167922172Y-100584992D01*
X168375391Y-100887824D01*
X168910000Y-100994164D01*
X169444609Y-100887824D01*
X169897828Y-100584992D01*
X170200660Y-100131773D01*
X170307000Y-99597164D01*
X170307000Y-98522836D01*
X170200660Y-97988227D01*
X169897828Y-97535008D01*
X169444609Y-97232176D01*
X168910000Y-97125836D01*
X168375391Y-97232176D01*
X167922172Y-97535008D01*
X167640000Y-97957307D01*
X167357828Y-97535008D01*
X166904609Y-97232176D01*
X166370000Y-97125836D01*
X165835391Y-97232176D01*
X165382172Y-97535008D01*
X165090702Y-97971222D01*
X165072059Y-97908059D01*
X164728026Y-97482370D01*
X164247277Y-97220740D01*
X164173070Y-97205780D01*
X163957000Y-97328280D01*
X163703000Y-97328280D01*
X163486930Y-97205780D01*
X163412723Y-97220740D01*
X162931974Y-97482370D01*
X162587941Y-97908059D01*
X162569298Y-97971222D01*
X162277828Y-97535008D01*
X161824609Y-97232176D01*
X161290000Y-97125836D01*
X160755391Y-97232176D01*
X160302172Y-97535008D01*
X160020000Y-97957307D01*
X159737828Y-97535008D01*
X159284609Y-97232176D01*
X158750000Y-97125836D01*
X158215391Y-97232176D01*
X157762172Y-97535008D01*
X157459340Y-97988227D01*
X157353000Y-98522836D01*
X125857000Y-98522836D01*
X125857000Y-96843694D01*
X140402026Y-96843694D01*
X140650338Y-97444655D01*
X141109727Y-97904846D01*
X141710253Y-98154206D01*
X142360494Y-98154774D01*
X142961455Y-97906462D01*
X143421646Y-97447073D01*
X143671006Y-96846547D01*
X143671008Y-96843694D01*
X150562026Y-96843694D01*
X150810338Y-97444655D01*
X151269727Y-97904846D01*
X151870253Y-98154206D01*
X152520494Y-98154774D01*
X153121455Y-97906462D01*
X153581646Y-97447073D01*
X153831006Y-96846547D01*
X153831574Y-96196306D01*
X153583262Y-95595345D01*
X153123873Y-95135154D01*
X152523347Y-94885794D01*
X151873106Y-94885226D01*
X151272145Y-95133538D01*
X150811954Y-95592927D01*
X150562594Y-96193453D01*
X150562026Y-96843694D01*
X143671008Y-96843694D01*
X143671574Y-96196306D01*
X143423262Y-95595345D01*
X142963873Y-95135154D01*
X142363347Y-94885794D01*
X141713106Y-94885226D01*
X141112145Y-95133538D01*
X140651954Y-95592927D01*
X140402594Y-96193453D01*
X140402026Y-96843694D01*
X125857000Y-96843694D01*
X125857000Y-92525255D01*
X126771400Y-92525255D01*
X126771400Y-92894745D01*
X126885474Y-93468234D01*
X127210330Y-93954415D01*
X127696511Y-94279271D01*
X128270000Y-94393345D01*
X128843489Y-94279271D01*
X129329670Y-93954415D01*
X129540000Y-93639634D01*
X129750330Y-93954415D01*
X130236511Y-94279271D01*
X130810000Y-94393345D01*
X131383489Y-94279271D01*
X131869670Y-93954415D01*
X132080000Y-93639634D01*
X132290330Y-93954415D01*
X132776511Y-94279271D01*
X133350000Y-94393345D01*
X133923489Y-94279271D01*
X134409670Y-93954415D01*
X134616461Y-93644931D01*
X134987964Y-94060732D01*
X135515209Y-94314709D01*
X135530974Y-94317358D01*
X135763000Y-94196217D01*
X135763000Y-92837000D01*
X135743000Y-92837000D01*
X135743000Y-92583000D01*
X135763000Y-92583000D01*
X135763000Y-91223783D01*
X136017000Y-91223783D01*
X136017000Y-92583000D01*
X136037000Y-92583000D01*
X136037000Y-92837000D01*
X136017000Y-92837000D01*
X136017000Y-94196217D01*
X136249026Y-94317358D01*
X136264791Y-94314709D01*
X136792036Y-94060732D01*
X136948907Y-93885155D01*
X136963238Y-93961317D01*
X137102310Y-94177441D01*
X137314510Y-94322431D01*
X137566400Y-94373440D01*
X139293600Y-94373440D01*
X139528917Y-94329162D01*
X139745041Y-94190090D01*
X139890031Y-93977890D01*
X139941040Y-93726000D01*
X139941040Y-93033694D01*
X140402026Y-93033694D01*
X140650338Y-93634655D01*
X141109727Y-94094846D01*
X141710253Y-94344206D01*
X142360494Y-94344774D01*
X142961455Y-94096462D01*
X143421646Y-93637073D01*
X143671006Y-93036547D01*
X143671008Y-93033694D01*
X150562026Y-93033694D01*
X150810338Y-93634655D01*
X151269727Y-94094846D01*
X151870253Y-94344206D01*
X152520494Y-94344774D01*
X153121455Y-94096462D01*
X153581646Y-93637073D01*
X153831006Y-93036547D01*
X153831574Y-92386306D01*
X153583262Y-91785345D01*
X153123873Y-91325154D01*
X152523347Y-91075794D01*
X151873106Y-91075226D01*
X151272145Y-91323538D01*
X150811954Y-91782927D01*
X150562594Y-92383453D01*
X150562026Y-93033694D01*
X143671008Y-93033694D01*
X143671574Y-92386306D01*
X143423262Y-91785345D01*
X142963873Y-91325154D01*
X142363347Y-91075794D01*
X141713106Y-91075226D01*
X141112145Y-91323538D01*
X140651954Y-91782927D01*
X140402594Y-92383453D01*
X140402026Y-93033694D01*
X139941040Y-93033694D01*
X139941040Y-91694000D01*
X139896762Y-91458683D01*
X139757690Y-91242559D01*
X139545490Y-91097569D01*
X139293600Y-91046560D01*
X137566400Y-91046560D01*
X137331083Y-91090838D01*
X137114959Y-91229910D01*
X136969969Y-91442110D01*
X136950768Y-91536927D01*
X136792036Y-91359268D01*
X136264791Y-91105291D01*
X136249026Y-91102642D01*
X136017000Y-91223783D01*
X135763000Y-91223783D01*
X135530974Y-91102642D01*
X135515209Y-91105291D01*
X134987964Y-91359268D01*
X134616461Y-91775069D01*
X134409670Y-91465585D01*
X133923489Y-91140729D01*
X133350000Y-91026655D01*
X132776511Y-91140729D01*
X132290330Y-91465585D01*
X132080000Y-91780366D01*
X131869670Y-91465585D01*
X131383489Y-91140729D01*
X130810000Y-91026655D01*
X130236511Y-91140729D01*
X129750330Y-91465585D01*
X129540000Y-91780366D01*
X129329670Y-91465585D01*
X128843489Y-91140729D01*
X128270000Y-91026655D01*
X127696511Y-91140729D01*
X127210330Y-91465585D01*
X126885474Y-91951766D01*
X126771400Y-92525255D01*
X125857000Y-92525255D01*
X125857000Y-90932000D01*
X171323000Y-90932000D01*
X171323000Y-122428000D01*
X171323000Y-122428000D01*
G37*
X171323000Y-122428000D02*
X125857000Y-122428000D01*
X125857000Y-114300000D01*
X126806887Y-114300000D01*
X126916120Y-114849151D01*
X127227189Y-115314698D01*
X127609275Y-115570000D01*
X127227189Y-115825302D01*
X126916120Y-116290849D01*
X126806887Y-116840000D01*
X126916120Y-117389151D01*
X127227189Y-117854698D01*
X127609275Y-118110000D01*
X127227189Y-118365302D01*
X126916120Y-118830849D01*
X126806887Y-119380000D01*
X126916120Y-119929151D01*
X127227189Y-120394698D01*
X127692736Y-120705767D01*
X128241887Y-120815000D01*
X128298113Y-120815000D01*
X128847264Y-120705767D01*
X129312811Y-120394698D01*
X129623880Y-119929151D01*
X129733113Y-119380000D01*
X129623880Y-118830849D01*
X129312811Y-118365302D01*
X128930725Y-118110000D01*
X129312811Y-117854698D01*
X129623880Y-117389151D01*
X129733113Y-116840000D01*
X129623880Y-116290849D01*
X129312811Y-115825302D01*
X128930725Y-115570000D01*
X129312811Y-115314698D01*
X129623880Y-114849151D01*
X129733113Y-114300000D01*
X129623880Y-113750849D01*
X129312811Y-113285302D01*
X128908297Y-113015014D01*
X129125134Y-112912389D01*
X129501041Y-112497423D01*
X129661904Y-112109039D01*
X129539915Y-111887000D01*
X128397000Y-111887000D01*
X128397000Y-111907000D01*
X128143000Y-111907000D01*
X128143000Y-111887000D01*
X127000085Y-111887000D01*
X126878096Y-112109039D01*
X127038959Y-112497423D01*
X127414866Y-112912389D01*
X127631703Y-113015014D01*
X127227189Y-113285302D01*
X126916120Y-113750849D01*
X126806887Y-114300000D01*
X125857000Y-114300000D01*
X125857000Y-101600000D01*
X126806887Y-101600000D01*
X126916120Y-102149151D01*
X127227189Y-102614698D01*
X127609275Y-102870000D01*
X127227189Y-103125302D01*
X126916120Y-103590849D01*
X126806887Y-104140000D01*
X126916120Y-104689151D01*
X127227189Y-105154698D01*
X127609275Y-105410000D01*
X127227189Y-105665302D01*
X126916120Y-106130849D01*
X126806887Y-106680000D01*
X126916120Y-107229151D01*
X127227189Y-107694698D01*
X127609275Y-107950000D01*
X127227189Y-108205302D01*
X126916120Y-108670849D01*
X126806887Y-109220000D01*
X126916120Y-109769151D01*
X127227189Y-110234698D01*
X127631703Y-110504986D01*
X127414866Y-110607611D01*
X127038959Y-111022577D01*
X126878096Y-111410961D01*
X127000085Y-111633000D01*
X128143000Y-111633000D01*
X128143000Y-111613000D01*
X128397000Y-111613000D01*
X128397000Y-111633000D01*
X129539915Y-111633000D01*
X129661904Y-111410961D01*
X129501041Y-111022577D01*
X129125134Y-110607611D01*
X128908297Y-110504986D01*
X129312811Y-110234698D01*
X129623880Y-109769151D01*
X129733113Y-109220000D01*
X129623880Y-108670849D01*
X129312811Y-108205302D01*
X128930725Y-107950000D01*
X129312811Y-107694698D01*
X129623880Y-107229151D01*
X129733113Y-106680000D01*
X129623880Y-106130849D01*
X129312811Y-105665302D01*
X128930725Y-105410000D01*
X129312811Y-105154698D01*
X129623880Y-104689151D01*
X129733113Y-104140000D01*
X134426887Y-104140000D01*
X134536120Y-104689151D01*
X134847189Y-105154698D01*
X135229275Y-105410000D01*
X134847189Y-105665302D01*
X134536120Y-106130849D01*
X134426887Y-106680000D01*
X134536120Y-107229151D01*
X134847189Y-107694698D01*
X135229275Y-107950000D01*
X134847189Y-108205302D01*
X134536120Y-108670849D01*
X134426887Y-109220000D01*
X134536120Y-109769151D01*
X134847189Y-110234698D01*
X135229275Y-110490000D01*
X134847189Y-110745302D01*
X134536120Y-111210849D01*
X134426887Y-111760000D01*
X134536120Y-112309151D01*
X134847189Y-112774698D01*
X135229275Y-113030000D01*
X134847189Y-113285302D01*
X134536120Y-113750849D01*
X134426887Y-114300000D01*
X134536120Y-114849151D01*
X134847189Y-115314698D01*
X135229275Y-115570000D01*
X134847189Y-115825302D01*
X134536120Y-116290849D01*
X134426887Y-116840000D01*
X134536120Y-117389151D01*
X134847189Y-117854698D01*
X135229275Y-118110000D01*
X134847189Y-118365302D01*
X134536120Y-118830849D01*
X134426887Y-119380000D01*
X134536120Y-119929151D01*
X134847189Y-120394698D01*
X135312736Y-120705767D01*
X135861887Y-120815000D01*
X135918113Y-120815000D01*
X136467264Y-120705767D01*
X136932811Y-120394698D01*
X137243880Y-119929151D01*
X137288726Y-119703694D01*
X140402026Y-119703694D01*
X140650338Y-120304655D01*
X141109727Y-120764846D01*
X141710253Y-121014206D01*
X142360494Y-121014774D01*
X142961455Y-120766462D01*
X143421646Y-120307073D01*
X143671006Y-119706547D01*
X143671008Y-119703694D01*
X150562026Y-119703694D01*
X150810338Y-120304655D01*
X151269727Y-120764846D01*
X151870253Y-121014206D01*
X152520494Y-121014774D01*
X153121455Y-120766462D01*
X153581646Y-120307073D01*
X153831006Y-119706547D01*
X153831574Y-119056306D01*
X153583262Y-118455345D01*
X153123873Y-117995154D01*
X152523347Y-117745794D01*
X151873106Y-117745226D01*
X151272145Y-117993538D01*
X150811954Y-118452927D01*
X150562594Y-119053453D01*
X150562026Y-119703694D01*
X143671008Y-119703694D01*
X143671574Y-119056306D01*
X143423262Y-118455345D01*
X142963873Y-117995154D01*
X142363347Y-117745794D01*
X141713106Y-117745226D01*
X141112145Y-117993538D01*
X140651954Y-118452927D01*
X140402594Y-119053453D01*
X140402026Y-119703694D01*
X137288726Y-119703694D01*
X137353113Y-119380000D01*
X137243880Y-118830849D01*
X136932811Y-118365302D01*
X136550725Y-118110000D01*
X136932811Y-117854698D01*
X137243880Y-117389151D01*
X137353113Y-116840000D01*
X137243880Y-116290849D01*
X136978510Y-115893694D01*
X140402026Y-115893694D01*
X140650338Y-116494655D01*
X141109727Y-116954846D01*
X141710253Y-117204206D01*
X142360494Y-117204774D01*
X142961455Y-116956462D01*
X143421646Y-116497073D01*
X143671006Y-115896547D01*
X143671008Y-115893694D01*
X150562026Y-115893694D01*
X150810338Y-116494655D01*
X151269727Y-116954846D01*
X151870253Y-117204206D01*
X152520494Y-117204774D01*
X153121455Y-116956462D01*
X153581646Y-116497073D01*
X153831006Y-115896547D01*
X153831574Y-115246306D01*
X153583262Y-114645345D01*
X153123873Y-114185154D01*
X152523347Y-113935794D01*
X151873106Y-113935226D01*
X151272145Y-114183538D01*
X150811954Y-114642927D01*
X150562594Y-115243453D01*
X150562026Y-115893694D01*
X143671008Y-115893694D01*
X143671574Y-115246306D01*
X143423262Y-114645345D01*
X142963873Y-114185154D01*
X142363347Y-113935794D01*
X141713106Y-113935226D01*
X141112145Y-114183538D01*
X140651954Y-114642927D01*
X140402594Y-115243453D01*
X140402026Y-115893694D01*
X136978510Y-115893694D01*
X136932811Y-115825302D01*
X136550725Y-115570000D01*
X136932811Y-115314698D01*
X137243880Y-114849151D01*
X137353113Y-114300000D01*
X137246265Y-113762836D01*
X157353000Y-113762836D01*
X157353000Y-114837164D01*
X157459340Y-115371773D01*
X157762172Y-115824992D01*
X158215391Y-116127824D01*
X158750000Y-116234164D01*
X159284609Y-116127824D01*
X159737828Y-115824992D01*
X160020000Y-115402693D01*
X160302172Y-115824992D01*
X160755391Y-116127824D01*
X161290000Y-116234164D01*
X161824609Y-116127824D01*
X162277828Y-115824992D01*
X162569298Y-115388778D01*
X162587941Y-115451941D01*
X162931974Y-115877630D01*
X163412723Y-116139260D01*
X163486930Y-116154220D01*
X163703000Y-116031720D01*
X163703000Y-114427000D01*
X163683000Y-114427000D01*
X163683000Y-114173000D01*
X163703000Y-114173000D01*
X163703000Y-112568280D01*
X163957000Y-112568280D01*
X163957000Y-114173000D01*
X163977000Y-114173000D01*
X163977000Y-114427000D01*
X163957000Y-114427000D01*
X163957000Y-116031720D01*
X164173070Y-116154220D01*
X164247277Y-116139260D01*
X164728026Y-115877630D01*
X165072059Y-115451941D01*
X165090702Y-115388778D01*
X165382172Y-115824992D01*
X165835391Y-116127824D01*
X166370000Y-116234164D01*
X166904609Y-116127824D01*
X167357828Y-115824992D01*
X167640000Y-115402693D01*
X167922172Y-115824992D01*
X168375391Y-116127824D01*
X168910000Y-116234164D01*
X169444609Y-116127824D01*
X169897828Y-115824992D01*
X170200660Y-115371773D01*
X170307000Y-114837164D01*
X170307000Y-113762836D01*
X170200660Y-113228227D01*
X169897828Y-112775008D01*
X169444609Y-112472176D01*
X168910000Y-112365836D01*
X168375391Y-112472176D01*
X167922172Y-112775008D01*
X167640000Y-113197307D01*
X167357828Y-112775008D01*
X166904609Y-112472176D01*
X166370000Y-112365836D01*
X165835391Y-112472176D01*
X165382172Y-112775008D01*
X165090702Y-113211222D01*
X165072059Y-113148059D01*
X164728026Y-112722370D01*
X164247277Y-112460740D01*
X164173070Y-112445780D01*
X163957000Y-112568280D01*
X163703000Y-112568280D01*
X163486930Y-112445780D01*
X163412723Y-112460740D01*
X162931974Y-112722370D01*
X162587941Y-113148059D01*
X162569298Y-113211222D01*
X162277828Y-112775008D01*
X161824609Y-112472176D01*
X161290000Y-112365836D01*
X160755391Y-112472176D01*
X160302172Y-112775008D01*
X160020000Y-113197307D01*
X159737828Y-112775008D01*
X159284609Y-112472176D01*
X158750000Y-112365836D01*
X158215391Y-112472176D01*
X157762172Y-112775008D01*
X157459340Y-113228227D01*
X157353000Y-113762836D01*
X137246265Y-113762836D01*
X137243880Y-113750849D01*
X136932811Y-113285302D01*
X136550725Y-113030000D01*
X136932811Y-112774698D01*
X137243880Y-112309151D01*
X137288726Y-112083694D01*
X140402026Y-112083694D01*
X140650338Y-112684655D01*
X141109727Y-113144846D01*
X141710253Y-113394206D01*
X142360494Y-113394774D01*
X142961455Y-113146462D01*
X143421646Y-112687073D01*
X143671006Y-112086547D01*
X143671008Y-112083694D01*
X150562026Y-112083694D01*
X150810338Y-112684655D01*
X151269727Y-113144846D01*
X151870253Y-113394206D01*
X152520494Y-113394774D01*
X153121455Y-113146462D01*
X153581646Y-112687073D01*
X153831006Y-112086547D01*
X153831574Y-111436306D01*
X153583262Y-110835345D01*
X153123873Y-110375154D01*
X152523347Y-110125794D01*
X151873106Y-110125226D01*
X151272145Y-110373538D01*
X150811954Y-110832927D01*
X150562594Y-111433453D01*
X150562026Y-112083694D01*
X143671008Y-112083694D01*
X143671574Y-111436306D01*
X143423262Y-110835345D01*
X142963873Y-110375154D01*
X142363347Y-110125794D01*
X141713106Y-110125226D01*
X141112145Y-110373538D01*
X140651954Y-110832927D01*
X140402594Y-111433453D01*
X140402026Y-112083694D01*
X137288726Y-112083694D01*
X137353113Y-111760000D01*
X137243880Y-111210849D01*
X136932811Y-110745302D01*
X136550725Y-110490000D01*
X136932811Y-110234698D01*
X137243880Y-109769151D01*
X137353113Y-109220000D01*
X137243880Y-108670849D01*
X136978510Y-108273694D01*
X140402026Y-108273694D01*
X140650338Y-108874655D01*
X141109727Y-109334846D01*
X141710253Y-109584206D01*
X142360494Y-109584774D01*
X142961455Y-109336462D01*
X143421646Y-108877073D01*
X143671006Y-108276547D01*
X143671008Y-108273694D01*
X150562026Y-108273694D01*
X150810338Y-108874655D01*
X151269727Y-109334846D01*
X151870253Y-109584206D01*
X152520494Y-109584774D01*
X153121455Y-109336462D01*
X153581646Y-108877073D01*
X153831006Y-108276547D01*
X153831574Y-107626306D01*
X153583262Y-107025345D01*
X153123873Y-106565154D01*
X152523347Y-106315794D01*
X151873106Y-106315226D01*
X151272145Y-106563538D01*
X150811954Y-107022927D01*
X150562594Y-107623453D01*
X150562026Y-108273694D01*
X143671008Y-108273694D01*
X143671574Y-107626306D01*
X143423262Y-107025345D01*
X142963873Y-106565154D01*
X142363347Y-106315794D01*
X141713106Y-106315226D01*
X141112145Y-106563538D01*
X140651954Y-107022927D01*
X140402594Y-107623453D01*
X140402026Y-108273694D01*
X136978510Y-108273694D01*
X136932811Y-108205302D01*
X136550725Y-107950000D01*
X136932811Y-107694698D01*
X137243880Y-107229151D01*
X137353113Y-106680000D01*
X137243880Y-106130849D01*
X136932811Y-105665302D01*
X136550725Y-105410000D01*
X136932811Y-105154698D01*
X137243880Y-104689151D01*
X137288726Y-104463694D01*
X140402026Y-104463694D01*
X140650338Y-105064655D01*
X141109727Y-105524846D01*
X141710253Y-105774206D01*
X142360494Y-105774774D01*
X142961455Y-105526462D01*
X143421646Y-105067073D01*
X143671006Y-104466547D01*
X143671008Y-104463694D01*
X150562026Y-104463694D01*
X150810338Y-105064655D01*
X151269727Y-105524846D01*
X151870253Y-105774206D01*
X152520494Y-105774774D01*
X153121455Y-105526462D01*
X153581646Y-105067073D01*
X153831006Y-104466547D01*
X153831574Y-103816306D01*
X153583262Y-103215345D01*
X153123873Y-102755154D01*
X152523347Y-102505794D01*
X151873106Y-102505226D01*
X151272145Y-102753538D01*
X150811954Y-103212927D01*
X150562594Y-103813453D01*
X150562026Y-104463694D01*
X143671008Y-104463694D01*
X143671574Y-103816306D01*
X143423262Y-103215345D01*
X142963873Y-102755154D01*
X142363347Y-102505794D01*
X141713106Y-102505226D01*
X141112145Y-102753538D01*
X140651954Y-103212927D01*
X140402594Y-103813453D01*
X140402026Y-104463694D01*
X137288726Y-104463694D01*
X137353113Y-104140000D01*
X137243880Y-103590849D01*
X136932811Y-103125302D01*
X136528297Y-102855014D01*
X136745134Y-102752389D01*
X137121041Y-102337423D01*
X137281904Y-101949039D01*
X137159915Y-101727000D01*
X136017000Y-101727000D01*
X136017000Y-101747000D01*
X135763000Y-101747000D01*
X135763000Y-101727000D01*
X134620085Y-101727000D01*
X134498096Y-101949039D01*
X134658959Y-102337423D01*
X135034866Y-102752389D01*
X135251703Y-102855014D01*
X134847189Y-103125302D01*
X134536120Y-103590849D01*
X134426887Y-104140000D01*
X129733113Y-104140000D01*
X129623880Y-103590849D01*
X129312811Y-103125302D01*
X128930725Y-102870000D01*
X129312811Y-102614698D01*
X129623880Y-102149151D01*
X129733113Y-101600000D01*
X129663685Y-101250961D01*
X134498096Y-101250961D01*
X134620085Y-101473000D01*
X135763000Y-101473000D01*
X135763000Y-100329371D01*
X136017000Y-100329371D01*
X136017000Y-101473000D01*
X137159915Y-101473000D01*
X137281904Y-101250961D01*
X137121041Y-100862577D01*
X136931820Y-100653694D01*
X140402026Y-100653694D01*
X140650338Y-101254655D01*
X141109727Y-101714846D01*
X141710253Y-101964206D01*
X142360494Y-101964774D01*
X142961455Y-101716462D01*
X143421646Y-101257073D01*
X143671006Y-100656547D01*
X143671008Y-100653694D01*
X150562026Y-100653694D01*
X150810338Y-101254655D01*
X151269727Y-101714846D01*
X151870253Y-101964206D01*
X152520494Y-101964774D01*
X153121455Y-101716462D01*
X153581646Y-101257073D01*
X153831006Y-100656547D01*
X153831574Y-100006306D01*
X153583262Y-99405345D01*
X153123873Y-98945154D01*
X152523347Y-98695794D01*
X151873106Y-98695226D01*
X151272145Y-98943538D01*
X150811954Y-99402927D01*
X150562594Y-100003453D01*
X150562026Y-100653694D01*
X143671008Y-100653694D01*
X143671574Y-100006306D01*
X143423262Y-99405345D01*
X142963873Y-98945154D01*
X142363347Y-98695794D01*
X141713106Y-98695226D01*
X141112145Y-98943538D01*
X140651954Y-99402927D01*
X140402594Y-100003453D01*
X140402026Y-100653694D01*
X136931820Y-100653694D01*
X136745134Y-100447611D01*
X136239041Y-100208086D01*
X136017000Y-100329371D01*
X135763000Y-100329371D01*
X135540959Y-100208086D01*
X135034866Y-100447611D01*
X134658959Y-100862577D01*
X134498096Y-101250961D01*
X129663685Y-101250961D01*
X129623880Y-101050849D01*
X129312811Y-100585302D01*
X128847264Y-100274233D01*
X128298113Y-100165000D01*
X128241887Y-100165000D01*
X127692736Y-100274233D01*
X127227189Y-100585302D01*
X126916120Y-101050849D01*
X126806887Y-101600000D01*
X125857000Y-101600000D01*
X125857000Y-98522836D01*
X157353000Y-98522836D01*
X157353000Y-99597164D01*
X157459340Y-100131773D01*
X157762172Y-100584992D01*
X158215391Y-100887824D01*
X158750000Y-100994164D01*
X159284609Y-100887824D01*
X159737828Y-100584992D01*
X160020000Y-100162693D01*
X160302172Y-100584992D01*
X160755391Y-100887824D01*
X161290000Y-100994164D01*
X161824609Y-100887824D01*
X162277828Y-100584992D01*
X162569298Y-100148778D01*
X162587941Y-100211941D01*
X162931974Y-100637630D01*
X163412723Y-100899260D01*
X163486930Y-100914220D01*
X163703000Y-100791720D01*
X163703000Y-99187000D01*
X163683000Y-99187000D01*
X163683000Y-98933000D01*
X163703000Y-98933000D01*
X163703000Y-97328280D01*
X163957000Y-97328280D01*
X163957000Y-98933000D01*
X163977000Y-98933000D01*
X163977000Y-99187000D01*
X163957000Y-99187000D01*
X163957000Y-100791720D01*
X164173070Y-100914220D01*
X164247277Y-100899260D01*
X164728026Y-100637630D01*
X165072059Y-100211941D01*
X165090702Y-100148778D01*
X165382172Y-100584992D01*
X165835391Y-100887824D01*
X166370000Y-100994164D01*
X166904609Y-100887824D01*
X167357828Y-100584992D01*
X167640000Y-100162693D01*
X167922172Y-100584992D01*
X168375391Y-100887824D01*
X168910000Y-100994164D01*
X169444609Y-100887824D01*
X169897828Y-100584992D01*
X170200660Y-100131773D01*
X170307000Y-99597164D01*
X170307000Y-98522836D01*
X170200660Y-97988227D01*
X169897828Y-97535008D01*
X169444609Y-97232176D01*
X168910000Y-97125836D01*
X168375391Y-97232176D01*
X167922172Y-97535008D01*
X167640000Y-97957307D01*
X167357828Y-97535008D01*
X166904609Y-97232176D01*
X166370000Y-97125836D01*
X165835391Y-97232176D01*
X165382172Y-97535008D01*
X165090702Y-97971222D01*
X165072059Y-97908059D01*
X164728026Y-97482370D01*
X164247277Y-97220740D01*
X164173070Y-97205780D01*
X163957000Y-97328280D01*
X163703000Y-97328280D01*
X163486930Y-97205780D01*
X163412723Y-97220740D01*
X162931974Y-97482370D01*
X162587941Y-97908059D01*
X162569298Y-97971222D01*
X162277828Y-97535008D01*
X161824609Y-97232176D01*
X161290000Y-97125836D01*
X160755391Y-97232176D01*
X160302172Y-97535008D01*
X160020000Y-97957307D01*
X159737828Y-97535008D01*
X159284609Y-97232176D01*
X158750000Y-97125836D01*
X158215391Y-97232176D01*
X157762172Y-97535008D01*
X157459340Y-97988227D01*
X157353000Y-98522836D01*
X125857000Y-98522836D01*
X125857000Y-96843694D01*
X140402026Y-96843694D01*
X140650338Y-97444655D01*
X141109727Y-97904846D01*
X141710253Y-98154206D01*
X142360494Y-98154774D01*
X142961455Y-97906462D01*
X143421646Y-97447073D01*
X143671006Y-96846547D01*
X143671008Y-96843694D01*
X150562026Y-96843694D01*
X150810338Y-97444655D01*
X151269727Y-97904846D01*
X151870253Y-98154206D01*
X152520494Y-98154774D01*
X153121455Y-97906462D01*
X153581646Y-97447073D01*
X153831006Y-96846547D01*
X153831574Y-96196306D01*
X153583262Y-95595345D01*
X153123873Y-95135154D01*
X152523347Y-94885794D01*
X151873106Y-94885226D01*
X151272145Y-95133538D01*
X150811954Y-95592927D01*
X150562594Y-96193453D01*
X150562026Y-96843694D01*
X143671008Y-96843694D01*
X143671574Y-96196306D01*
X143423262Y-95595345D01*
X142963873Y-95135154D01*
X142363347Y-94885794D01*
X141713106Y-94885226D01*
X141112145Y-95133538D01*
X140651954Y-95592927D01*
X140402594Y-96193453D01*
X140402026Y-96843694D01*
X125857000Y-96843694D01*
X125857000Y-92525255D01*
X126771400Y-92525255D01*
X126771400Y-92894745D01*
X126885474Y-93468234D01*
X127210330Y-93954415D01*
X127696511Y-94279271D01*
X128270000Y-94393345D01*
X128843489Y-94279271D01*
X129329670Y-93954415D01*
X129540000Y-93639634D01*
X129750330Y-93954415D01*
X130236511Y-94279271D01*
X130810000Y-94393345D01*
X131383489Y-94279271D01*
X131869670Y-93954415D01*
X132080000Y-93639634D01*
X132290330Y-93954415D01*
X132776511Y-94279271D01*
X133350000Y-94393345D01*
X133923489Y-94279271D01*
X134409670Y-93954415D01*
X134616461Y-93644931D01*
X134987964Y-94060732D01*
X135515209Y-94314709D01*
X135530974Y-94317358D01*
X135763000Y-94196217D01*
X135763000Y-92837000D01*
X135743000Y-92837000D01*
X135743000Y-92583000D01*
X135763000Y-92583000D01*
X135763000Y-91223783D01*
X136017000Y-91223783D01*
X136017000Y-92583000D01*
X136037000Y-92583000D01*
X136037000Y-92837000D01*
X136017000Y-92837000D01*
X136017000Y-94196217D01*
X136249026Y-94317358D01*
X136264791Y-94314709D01*
X136792036Y-94060732D01*
X136948907Y-93885155D01*
X136963238Y-93961317D01*
X137102310Y-94177441D01*
X137314510Y-94322431D01*
X137566400Y-94373440D01*
X139293600Y-94373440D01*
X139528917Y-94329162D01*
X139745041Y-94190090D01*
X139890031Y-93977890D01*
X139941040Y-93726000D01*
X139941040Y-93033694D01*
X140402026Y-93033694D01*
X140650338Y-93634655D01*
X141109727Y-94094846D01*
X141710253Y-94344206D01*
X142360494Y-94344774D01*
X142961455Y-94096462D01*
X143421646Y-93637073D01*
X143671006Y-93036547D01*
X143671008Y-93033694D01*
X150562026Y-93033694D01*
X150810338Y-93634655D01*
X151269727Y-94094846D01*
X151870253Y-94344206D01*
X152520494Y-94344774D01*
X153121455Y-94096462D01*
X153581646Y-93637073D01*
X153831006Y-93036547D01*
X153831574Y-92386306D01*
X153583262Y-91785345D01*
X153123873Y-91325154D01*
X152523347Y-91075794D01*
X151873106Y-91075226D01*
X151272145Y-91323538D01*
X150811954Y-91782927D01*
X150562594Y-92383453D01*
X150562026Y-93033694D01*
X143671008Y-93033694D01*
X143671574Y-92386306D01*
X143423262Y-91785345D01*
X142963873Y-91325154D01*
X142363347Y-91075794D01*
X141713106Y-91075226D01*
X141112145Y-91323538D01*
X140651954Y-91782927D01*
X140402594Y-92383453D01*
X140402026Y-93033694D01*
X139941040Y-93033694D01*
X139941040Y-91694000D01*
X139896762Y-91458683D01*
X139757690Y-91242559D01*
X139545490Y-91097569D01*
X139293600Y-91046560D01*
X137566400Y-91046560D01*
X137331083Y-91090838D01*
X137114959Y-91229910D01*
X136969969Y-91442110D01*
X136950768Y-91536927D01*
X136792036Y-91359268D01*
X136264791Y-91105291D01*
X136249026Y-91102642D01*
X136017000Y-91223783D01*
X135763000Y-91223783D01*
X135530974Y-91102642D01*
X135515209Y-91105291D01*
X134987964Y-91359268D01*
X134616461Y-91775069D01*
X134409670Y-91465585D01*
X133923489Y-91140729D01*
X133350000Y-91026655D01*
X132776511Y-91140729D01*
X132290330Y-91465585D01*
X132080000Y-91780366D01*
X131869670Y-91465585D01*
X131383489Y-91140729D01*
X130810000Y-91026655D01*
X130236511Y-91140729D01*
X129750330Y-91465585D01*
X129540000Y-91780366D01*
X129329670Y-91465585D01*
X128843489Y-91140729D01*
X128270000Y-91026655D01*
X127696511Y-91140729D01*
X127210330Y-91465585D01*
X126885474Y-91951766D01*
X126771400Y-92525255D01*
X125857000Y-92525255D01*
X125857000Y-90932000D01*
X171323000Y-90932000D01*
X171323000Y-122428000D01*
M02*
