G04 #@! TF.FileFunction,Legend,Top*
%FSLAX46Y46*%
G04 Gerber Fmt 4.6, Leading zero omitted, Abs format (unit mm)*
G04 Created by KiCad (PCBNEW 4.0.1-stable) date 2016 February 20, Saturday 16:26:08*
%MOMM*%
G01*
G04 APERTURE LIST*
%ADD10C,0.100000*%
%ADD11C,0.125000*%
%ADD12C,0.200000*%
%ADD13C,0.150000*%
G04 APERTURE END LIST*
D10*
D11*
X155742620Y-119907857D02*
X155742620Y-120312619D01*
X155718811Y-120360238D01*
X155695001Y-120384048D01*
X155647382Y-120407857D01*
X155575954Y-120407857D01*
X155528335Y-120384048D01*
X155742620Y-120217381D02*
X155695001Y-120241190D01*
X155599763Y-120241190D01*
X155552144Y-120217381D01*
X155528335Y-120193571D01*
X155504525Y-120145952D01*
X155504525Y-120003095D01*
X155528335Y-119955476D01*
X155552144Y-119931667D01*
X155599763Y-119907857D01*
X155695001Y-119907857D01*
X155742620Y-119931667D01*
X155980716Y-120241190D02*
X155980716Y-119907857D01*
X155980716Y-119741190D02*
X155956906Y-119765000D01*
X155980716Y-119788810D01*
X156004525Y-119765000D01*
X155980716Y-119741190D01*
X155980716Y-119788810D01*
X156147382Y-119907857D02*
X156337858Y-119907857D01*
X156218811Y-119741190D02*
X156218811Y-120169762D01*
X156242620Y-120217381D01*
X156290239Y-120241190D01*
X156337858Y-120241190D01*
X156504525Y-120241190D02*
X156504525Y-119741190D01*
X156718810Y-120241190D02*
X156718810Y-119979286D01*
X156695001Y-119931667D01*
X156647382Y-119907857D01*
X156575953Y-119907857D01*
X156528334Y-119931667D01*
X156504525Y-119955476D01*
X157171191Y-119907857D02*
X157171191Y-120241190D01*
X156956906Y-119907857D02*
X156956906Y-120169762D01*
X156980715Y-120217381D01*
X157028334Y-120241190D01*
X157099763Y-120241190D01*
X157147382Y-120217381D01*
X157171191Y-120193571D01*
X157409287Y-120241190D02*
X157409287Y-119741190D01*
X157409287Y-119931667D02*
X157456906Y-119907857D01*
X157552144Y-119907857D01*
X157599763Y-119931667D01*
X157623572Y-119955476D01*
X157647382Y-120003095D01*
X157647382Y-120145952D01*
X157623572Y-120193571D01*
X157599763Y-120217381D01*
X157552144Y-120241190D01*
X157456906Y-120241190D01*
X157409287Y-120217381D01*
X157861668Y-120193571D02*
X157885477Y-120217381D01*
X157861668Y-120241190D01*
X157837858Y-120217381D01*
X157861668Y-120193571D01*
X157861668Y-120241190D01*
X158314048Y-120217381D02*
X158266429Y-120241190D01*
X158171191Y-120241190D01*
X158123572Y-120217381D01*
X158099763Y-120193571D01*
X158075953Y-120145952D01*
X158075953Y-120003095D01*
X158099763Y-119955476D01*
X158123572Y-119931667D01*
X158171191Y-119907857D01*
X158266429Y-119907857D01*
X158314048Y-119931667D01*
X158599762Y-120241190D02*
X158552143Y-120217381D01*
X158528334Y-120193571D01*
X158504524Y-120145952D01*
X158504524Y-120003095D01*
X158528334Y-119955476D01*
X158552143Y-119931667D01*
X158599762Y-119907857D01*
X158671191Y-119907857D01*
X158718810Y-119931667D01*
X158742619Y-119955476D01*
X158766429Y-120003095D01*
X158766429Y-120145952D01*
X158742619Y-120193571D01*
X158718810Y-120217381D01*
X158671191Y-120241190D01*
X158599762Y-120241190D01*
X158980715Y-120241190D02*
X158980715Y-119907857D01*
X158980715Y-119955476D02*
X159004524Y-119931667D01*
X159052143Y-119907857D01*
X159123572Y-119907857D01*
X159171191Y-119931667D01*
X159195000Y-119979286D01*
X159195000Y-120241190D01*
X159195000Y-119979286D02*
X159218810Y-119931667D01*
X159266429Y-119907857D01*
X159337857Y-119907857D01*
X159385477Y-119931667D01*
X159409286Y-119979286D01*
X159409286Y-120241190D01*
X160004524Y-119717381D02*
X159575953Y-120360238D01*
X160099763Y-119907857D02*
X160290239Y-119907857D01*
X160171192Y-119741190D02*
X160171192Y-120169762D01*
X160195001Y-120217381D01*
X160242620Y-120241190D01*
X160290239Y-120241190D01*
X160671191Y-120241190D02*
X160671191Y-119979286D01*
X160647382Y-119931667D01*
X160599763Y-119907857D01*
X160504525Y-119907857D01*
X160456906Y-119931667D01*
X160671191Y-120217381D02*
X160623572Y-120241190D01*
X160504525Y-120241190D01*
X160456906Y-120217381D01*
X160433096Y-120169762D01*
X160433096Y-120122143D01*
X160456906Y-120074524D01*
X160504525Y-120050714D01*
X160623572Y-120050714D01*
X160671191Y-120026905D01*
X160909287Y-120241190D02*
X160909287Y-119907857D01*
X160909287Y-120003095D02*
X160933096Y-119955476D01*
X160956906Y-119931667D01*
X161004525Y-119907857D01*
X161052144Y-119907857D01*
X161433096Y-120241190D02*
X161433096Y-119741190D01*
X161433096Y-120217381D02*
X161385477Y-120241190D01*
X161290239Y-120241190D01*
X161242620Y-120217381D01*
X161218811Y-120193571D01*
X161195001Y-120145952D01*
X161195001Y-120003095D01*
X161218811Y-119955476D01*
X161242620Y-119931667D01*
X161290239Y-119907857D01*
X161385477Y-119907857D01*
X161433096Y-119931667D01*
X161885477Y-120241190D02*
X161885477Y-119979286D01*
X161861668Y-119931667D01*
X161814049Y-119907857D01*
X161718811Y-119907857D01*
X161671192Y-119931667D01*
X161885477Y-120217381D02*
X161837858Y-120241190D01*
X161718811Y-120241190D01*
X161671192Y-120217381D01*
X161647382Y-120169762D01*
X161647382Y-120122143D01*
X161671192Y-120074524D01*
X161718811Y-120050714D01*
X161837858Y-120050714D01*
X161885477Y-120026905D01*
X162052144Y-119907857D02*
X162242620Y-119907857D01*
X162123573Y-119741190D02*
X162123573Y-120169762D01*
X162147382Y-120217381D01*
X162195001Y-120241190D01*
X162242620Y-120241190D01*
X162599763Y-120217381D02*
X162552144Y-120241190D01*
X162456906Y-120241190D01*
X162409287Y-120217381D01*
X162385477Y-120169762D01*
X162385477Y-119979286D01*
X162409287Y-119931667D01*
X162456906Y-119907857D01*
X162552144Y-119907857D01*
X162599763Y-119931667D01*
X162623572Y-119979286D01*
X162623572Y-120026905D01*
X162385477Y-120074524D01*
X163195000Y-119717381D02*
X162766429Y-120360238D01*
X163599763Y-120241190D02*
X163361668Y-120241190D01*
X163361668Y-119741190D01*
X163766430Y-120241190D02*
X163766430Y-119907857D01*
X163766430Y-119741190D02*
X163742620Y-119765000D01*
X163766430Y-119788810D01*
X163790239Y-119765000D01*
X163766430Y-119741190D01*
X163766430Y-119788810D01*
X163933096Y-119907857D02*
X164123572Y-119907857D01*
X164004525Y-119741190D02*
X164004525Y-120169762D01*
X164028334Y-120217381D01*
X164075953Y-120241190D01*
X164123572Y-120241190D01*
X164218810Y-119907857D02*
X164409286Y-119907857D01*
X164290239Y-119741190D02*
X164290239Y-120169762D01*
X164314048Y-120217381D01*
X164361667Y-120241190D01*
X164409286Y-120241190D01*
X164647381Y-120241190D02*
X164599762Y-120217381D01*
X164575953Y-120169762D01*
X164575953Y-119741190D01*
X165028334Y-120217381D02*
X164980715Y-120241190D01*
X164885477Y-120241190D01*
X164837858Y-120217381D01*
X164814048Y-120169762D01*
X164814048Y-119979286D01*
X164837858Y-119931667D01*
X164885477Y-119907857D01*
X164980715Y-119907857D01*
X165028334Y-119931667D01*
X165052143Y-119979286D01*
X165052143Y-120026905D01*
X164814048Y-120074524D01*
X165242619Y-120098333D02*
X165480714Y-120098333D01*
X165195000Y-120241190D02*
X165361667Y-119741190D01*
X165528333Y-120241190D01*
X165695000Y-120241190D02*
X165695000Y-119907857D01*
X165695000Y-120003095D02*
X165718809Y-119955476D01*
X165742619Y-119931667D01*
X165790238Y-119907857D01*
X165837857Y-119907857D01*
X166218809Y-120241190D02*
X166218809Y-119741190D01*
X166218809Y-120217381D02*
X166171190Y-120241190D01*
X166075952Y-120241190D01*
X166028333Y-120217381D01*
X166004524Y-120193571D01*
X165980714Y-120145952D01*
X165980714Y-120003095D01*
X166004524Y-119955476D01*
X166028333Y-119931667D01*
X166075952Y-119907857D01*
X166171190Y-119907857D01*
X166218809Y-119931667D01*
X166671190Y-119907857D02*
X166671190Y-120241190D01*
X166456905Y-119907857D02*
X166456905Y-120169762D01*
X166480714Y-120217381D01*
X166528333Y-120241190D01*
X166599762Y-120241190D01*
X166647381Y-120217381D01*
X166671190Y-120193571D01*
X166909286Y-120241190D02*
X166909286Y-119907857D01*
X166909286Y-119741190D02*
X166885476Y-119765000D01*
X166909286Y-119788810D01*
X166933095Y-119765000D01*
X166909286Y-119741190D01*
X166909286Y-119788810D01*
X167147381Y-119907857D02*
X167147381Y-120241190D01*
X167147381Y-119955476D02*
X167171190Y-119931667D01*
X167218809Y-119907857D01*
X167290238Y-119907857D01*
X167337857Y-119931667D01*
X167361666Y-119979286D01*
X167361666Y-120241190D01*
X167671190Y-120241190D02*
X167623571Y-120217381D01*
X167599762Y-120193571D01*
X167575952Y-120145952D01*
X167575952Y-120003095D01*
X167599762Y-119955476D01*
X167623571Y-119931667D01*
X167671190Y-119907857D01*
X167742619Y-119907857D01*
X167790238Y-119931667D01*
X167814047Y-119955476D01*
X167837857Y-120003095D01*
X167837857Y-120145952D01*
X167814047Y-120193571D01*
X167790238Y-120217381D01*
X167742619Y-120241190D01*
X167671190Y-120241190D01*
X168052143Y-120241190D02*
X168052143Y-119741190D01*
X168242619Y-119741190D01*
X168290238Y-119765000D01*
X168314047Y-119788810D01*
X168337857Y-119836429D01*
X168337857Y-119907857D01*
X168314047Y-119955476D01*
X168290238Y-119979286D01*
X168242619Y-120003095D01*
X168052143Y-120003095D01*
X168552143Y-120241190D02*
X168552143Y-119907857D01*
X168552143Y-120003095D02*
X168575952Y-119955476D01*
X168599762Y-119931667D01*
X168647381Y-119907857D01*
X168695000Y-119907857D01*
X168933095Y-120241190D02*
X168885476Y-120217381D01*
X168861667Y-120193571D01*
X168837857Y-120145952D01*
X168837857Y-120003095D01*
X168861667Y-119955476D01*
X168885476Y-119931667D01*
X168933095Y-119907857D01*
X169004524Y-119907857D01*
X169052143Y-119931667D01*
X169075952Y-119955476D01*
X169099762Y-120003095D01*
X169099762Y-120145952D01*
X169075952Y-120193571D01*
X169052143Y-120217381D01*
X169004524Y-120241190D01*
X168933095Y-120241190D01*
X169314048Y-119907857D02*
X169314048Y-120336429D01*
X169290238Y-120384048D01*
X169242619Y-120407857D01*
X169218810Y-120407857D01*
X169314048Y-119741190D02*
X169290238Y-119765000D01*
X169314048Y-119788810D01*
X169337857Y-119765000D01*
X169314048Y-119741190D01*
X169314048Y-119788810D01*
X169742619Y-120217381D02*
X169695000Y-120241190D01*
X169599762Y-120241190D01*
X169552143Y-120217381D01*
X169528333Y-120169762D01*
X169528333Y-119979286D01*
X169552143Y-119931667D01*
X169599762Y-119907857D01*
X169695000Y-119907857D01*
X169742619Y-119931667D01*
X169766428Y-119979286D01*
X169766428Y-120026905D01*
X169528333Y-120074524D01*
X170194999Y-120217381D02*
X170147380Y-120241190D01*
X170052142Y-120241190D01*
X170004523Y-120217381D01*
X169980714Y-120193571D01*
X169956904Y-120145952D01*
X169956904Y-120003095D01*
X169980714Y-119955476D01*
X170004523Y-119931667D01*
X170052142Y-119907857D01*
X170147380Y-119907857D01*
X170194999Y-119931667D01*
X170337856Y-119907857D02*
X170528332Y-119907857D01*
X170409285Y-119741190D02*
X170409285Y-120169762D01*
X170433094Y-120217381D01*
X170480713Y-120241190D01*
X170528332Y-120241190D01*
X170671189Y-120217381D02*
X170718808Y-120241190D01*
X170814046Y-120241190D01*
X170861665Y-120217381D01*
X170885475Y-120169762D01*
X170885475Y-120145952D01*
X170861665Y-120098333D01*
X170814046Y-120074524D01*
X170742618Y-120074524D01*
X170694999Y-120050714D01*
X170671189Y-120003095D01*
X170671189Y-119979286D01*
X170694999Y-119931667D01*
X170742618Y-119907857D01*
X170814046Y-119907857D01*
X170861665Y-119931667D01*
D12*
X167195715Y-93173571D02*
X167386191Y-93706905D01*
X167576667Y-93173571D01*
X168300477Y-93706905D02*
X167843334Y-93706905D01*
X168071905Y-93706905D02*
X168071905Y-92906905D01*
X167995715Y-93021190D01*
X167919524Y-93097381D01*
X167843334Y-93135476D01*
X168643334Y-93630714D02*
X168681429Y-93668810D01*
X168643334Y-93706905D01*
X168605239Y-93668810D01*
X168643334Y-93630714D01*
X168643334Y-93706905D01*
X169443334Y-93706905D02*
X168986191Y-93706905D01*
X169214762Y-93706905D02*
X169214762Y-92906905D01*
X169138572Y-93021190D01*
X169062381Y-93097381D01*
X168986191Y-93135476D01*
X169786191Y-93630714D02*
X169824286Y-93668810D01*
X169786191Y-93706905D01*
X169748096Y-93668810D01*
X169786191Y-93630714D01*
X169786191Y-93706905D01*
X170319524Y-92906905D02*
X170395715Y-92906905D01*
X170471905Y-92945000D01*
X170510000Y-92983095D01*
X170548096Y-93059286D01*
X170586191Y-93211667D01*
X170586191Y-93402143D01*
X170548096Y-93554524D01*
X170510000Y-93630714D01*
X170471905Y-93668810D01*
X170395715Y-93706905D01*
X170319524Y-93706905D01*
X170243334Y-93668810D01*
X170205238Y-93630714D01*
X170167143Y-93554524D01*
X170129048Y-93402143D01*
X170129048Y-93211667D01*
X170167143Y-93059286D01*
X170205238Y-92983095D01*
X170243334Y-92945000D01*
X170319524Y-92906905D01*
X154388570Y-91001905D02*
X154921903Y-91001905D01*
X154579046Y-91801905D01*
X155226665Y-91497143D02*
X155836189Y-91497143D01*
X156179046Y-91763810D02*
X156293332Y-91801905D01*
X156483808Y-91801905D01*
X156559998Y-91763810D01*
X156598094Y-91725714D01*
X156636189Y-91649524D01*
X156636189Y-91573333D01*
X156598094Y-91497143D01*
X156559998Y-91459048D01*
X156483808Y-91420952D01*
X156331427Y-91382857D01*
X156255236Y-91344762D01*
X156217141Y-91306667D01*
X156179046Y-91230476D01*
X156179046Y-91154286D01*
X156217141Y-91078095D01*
X156255236Y-91040000D01*
X156331427Y-91001905D01*
X156521903Y-91001905D01*
X156636189Y-91040000D01*
X157283808Y-91763810D02*
X157207618Y-91801905D01*
X157055237Y-91801905D01*
X156979046Y-91763810D01*
X156940951Y-91687619D01*
X156940951Y-91382857D01*
X156979046Y-91306667D01*
X157055237Y-91268571D01*
X157207618Y-91268571D01*
X157283808Y-91306667D01*
X157321903Y-91382857D01*
X157321903Y-91459048D01*
X156940951Y-91535238D01*
X158007617Y-91268571D02*
X158007617Y-91916190D01*
X157969522Y-91992381D01*
X157931427Y-92030476D01*
X157855236Y-92068571D01*
X157740951Y-92068571D01*
X157664760Y-92030476D01*
X158007617Y-91763810D02*
X157931427Y-91801905D01*
X157779046Y-91801905D01*
X157702855Y-91763810D01*
X157664760Y-91725714D01*
X157626665Y-91649524D01*
X157626665Y-91420952D01*
X157664760Y-91344762D01*
X157702855Y-91306667D01*
X157779046Y-91268571D01*
X157931427Y-91268571D01*
X158007617Y-91306667D01*
X158388570Y-91801905D02*
X158388570Y-91268571D01*
X158388570Y-91344762D02*
X158426665Y-91306667D01*
X158502856Y-91268571D01*
X158617142Y-91268571D01*
X158693332Y-91306667D01*
X158731427Y-91382857D01*
X158731427Y-91801905D01*
X158731427Y-91382857D02*
X158769523Y-91306667D01*
X158845713Y-91268571D01*
X158959999Y-91268571D01*
X159036189Y-91306667D01*
X159074284Y-91382857D01*
X159074284Y-91801905D01*
X159759999Y-91763810D02*
X159683809Y-91801905D01*
X159531428Y-91801905D01*
X159455237Y-91763810D01*
X159417142Y-91687619D01*
X159417142Y-91382857D01*
X159455237Y-91306667D01*
X159531428Y-91268571D01*
X159683809Y-91268571D01*
X159759999Y-91306667D01*
X159798094Y-91382857D01*
X159798094Y-91459048D01*
X159417142Y-91535238D01*
X160140951Y-91268571D02*
X160140951Y-91801905D01*
X160140951Y-91344762D02*
X160179046Y-91306667D01*
X160255237Y-91268571D01*
X160369523Y-91268571D01*
X160445713Y-91306667D01*
X160483808Y-91382857D01*
X160483808Y-91801905D01*
X160750475Y-91268571D02*
X161055237Y-91268571D01*
X160864761Y-91001905D02*
X160864761Y-91687619D01*
X160902856Y-91763810D01*
X160979047Y-91801905D01*
X161055237Y-91801905D01*
X161931428Y-91801905D02*
X161931428Y-91001905D01*
X162121904Y-91001905D01*
X162236190Y-91040000D01*
X162312381Y-91116190D01*
X162350476Y-91192381D01*
X162388571Y-91344762D01*
X162388571Y-91459048D01*
X162350476Y-91611429D01*
X162312381Y-91687619D01*
X162236190Y-91763810D01*
X162121904Y-91801905D01*
X161931428Y-91801905D01*
X162731428Y-91801905D02*
X162731428Y-91268571D01*
X162731428Y-91001905D02*
X162693333Y-91040000D01*
X162731428Y-91078095D01*
X162769523Y-91040000D01*
X162731428Y-91001905D01*
X162731428Y-91078095D01*
X163074285Y-91763810D02*
X163150475Y-91801905D01*
X163302856Y-91801905D01*
X163379047Y-91763810D01*
X163417142Y-91687619D01*
X163417142Y-91649524D01*
X163379047Y-91573333D01*
X163302856Y-91535238D01*
X163188571Y-91535238D01*
X163112380Y-91497143D01*
X163074285Y-91420952D01*
X163074285Y-91382857D01*
X163112380Y-91306667D01*
X163188571Y-91268571D01*
X163302856Y-91268571D01*
X163379047Y-91306667D01*
X163759999Y-91268571D02*
X163759999Y-92068571D01*
X163759999Y-91306667D02*
X163836190Y-91268571D01*
X163988571Y-91268571D01*
X164064761Y-91306667D01*
X164102856Y-91344762D01*
X164140952Y-91420952D01*
X164140952Y-91649524D01*
X164102856Y-91725714D01*
X164064761Y-91763810D01*
X163988571Y-91801905D01*
X163836190Y-91801905D01*
X163759999Y-91763810D01*
X164598095Y-91801905D02*
X164521904Y-91763810D01*
X164483809Y-91687619D01*
X164483809Y-91001905D01*
X165245714Y-91801905D02*
X165245714Y-91382857D01*
X165207619Y-91306667D01*
X165131429Y-91268571D01*
X164979048Y-91268571D01*
X164902857Y-91306667D01*
X165245714Y-91763810D02*
X165169524Y-91801905D01*
X164979048Y-91801905D01*
X164902857Y-91763810D01*
X164864762Y-91687619D01*
X164864762Y-91611429D01*
X164902857Y-91535238D01*
X164979048Y-91497143D01*
X165169524Y-91497143D01*
X165245714Y-91459048D01*
X165550477Y-91268571D02*
X165740953Y-91801905D01*
X165931429Y-91268571D02*
X165740953Y-91801905D01*
X165664762Y-91992381D01*
X165626667Y-92030476D01*
X165550477Y-92068571D01*
X166845715Y-91801905D02*
X166845715Y-91001905D01*
X167112382Y-91573333D01*
X167379049Y-91001905D01*
X167379049Y-91801905D01*
X167874287Y-91801905D02*
X167798096Y-91763810D01*
X167760001Y-91725714D01*
X167721906Y-91649524D01*
X167721906Y-91420952D01*
X167760001Y-91344762D01*
X167798096Y-91306667D01*
X167874287Y-91268571D01*
X167988573Y-91268571D01*
X168064763Y-91306667D01*
X168102858Y-91344762D01*
X168140954Y-91420952D01*
X168140954Y-91649524D01*
X168102858Y-91725714D01*
X168064763Y-91763810D01*
X167988573Y-91801905D01*
X167874287Y-91801905D01*
X168826668Y-91801905D02*
X168826668Y-91001905D01*
X168826668Y-91763810D02*
X168750478Y-91801905D01*
X168598097Y-91801905D01*
X168521906Y-91763810D01*
X168483811Y-91725714D01*
X168445716Y-91649524D01*
X168445716Y-91420952D01*
X168483811Y-91344762D01*
X168521906Y-91306667D01*
X168598097Y-91268571D01*
X168750478Y-91268571D01*
X168826668Y-91306667D01*
X169550478Y-91268571D02*
X169550478Y-91801905D01*
X169207621Y-91268571D02*
X169207621Y-91687619D01*
X169245716Y-91763810D01*
X169321907Y-91801905D01*
X169436193Y-91801905D01*
X169512383Y-91763810D01*
X169550478Y-91725714D01*
X170045717Y-91801905D02*
X169969526Y-91763810D01*
X169931431Y-91687619D01*
X169931431Y-91001905D01*
X170655241Y-91763810D02*
X170579051Y-91801905D01*
X170426670Y-91801905D01*
X170350479Y-91763810D01*
X170312384Y-91687619D01*
X170312384Y-91382857D01*
X170350479Y-91306667D01*
X170426670Y-91268571D01*
X170579051Y-91268571D01*
X170655241Y-91306667D01*
X170693336Y-91382857D01*
X170693336Y-91459048D01*
X170312384Y-91535238D01*
D10*
X133003981Y-96396133D02*
X132984933Y-96377086D01*
X132946838Y-96319943D01*
X132927790Y-96281848D01*
X132908743Y-96224705D01*
X132889695Y-96129467D01*
X132889695Y-96053276D01*
X132908743Y-95958038D01*
X132927790Y-95900895D01*
X132946838Y-95862800D01*
X132984933Y-95805657D01*
X133003981Y-95786610D01*
X133156362Y-96243752D02*
X133156362Y-95843752D01*
X133251600Y-95843752D01*
X133308743Y-95862800D01*
X133346838Y-95900895D01*
X133365886Y-95938990D01*
X133384934Y-96015181D01*
X133384934Y-96072324D01*
X133365886Y-96148514D01*
X133346838Y-96186610D01*
X133308743Y-96224705D01*
X133251600Y-96243752D01*
X133156362Y-96243752D01*
X133537314Y-96224705D02*
X133594457Y-96243752D01*
X133689695Y-96243752D01*
X133727791Y-96224705D01*
X133746838Y-96205657D01*
X133765886Y-96167562D01*
X133765886Y-96129467D01*
X133746838Y-96091371D01*
X133727791Y-96072324D01*
X133689695Y-96053276D01*
X133613505Y-96034229D01*
X133575410Y-96015181D01*
X133556362Y-95996133D01*
X133537314Y-95958038D01*
X133537314Y-95919943D01*
X133556362Y-95881848D01*
X133575410Y-95862800D01*
X133613505Y-95843752D01*
X133708743Y-95843752D01*
X133765886Y-95862800D01*
X133899219Y-96396133D02*
X133918266Y-96377086D01*
X133956362Y-96319943D01*
X133975409Y-96281848D01*
X133994457Y-96224705D01*
X134013505Y-96129467D01*
X134013505Y-96053276D01*
X133994457Y-95958038D01*
X133975409Y-95900895D01*
X133956362Y-95862800D01*
X133918266Y-95805657D01*
X133899219Y-95786610D01*
X129730619Y-96421533D02*
X129711571Y-96402486D01*
X129673476Y-96345343D01*
X129654428Y-96307248D01*
X129635381Y-96250105D01*
X129616333Y-96154867D01*
X129616333Y-96078676D01*
X129635381Y-95983438D01*
X129654428Y-95926295D01*
X129673476Y-95888200D01*
X129711571Y-95831057D01*
X129730619Y-95812010D01*
X129863952Y-96250105D02*
X129921095Y-96269152D01*
X130016333Y-96269152D01*
X130054429Y-96250105D01*
X130073476Y-96231057D01*
X130092524Y-96192962D01*
X130092524Y-96154867D01*
X130073476Y-96116771D01*
X130054429Y-96097724D01*
X130016333Y-96078676D01*
X129940143Y-96059629D01*
X129902048Y-96040581D01*
X129883000Y-96021533D01*
X129863952Y-95983438D01*
X129863952Y-95945343D01*
X129883000Y-95907248D01*
X129902048Y-95888200D01*
X129940143Y-95869152D01*
X130035381Y-95869152D01*
X130092524Y-95888200D01*
X130206809Y-95869152D02*
X130435381Y-95869152D01*
X130321095Y-96269152D02*
X130321095Y-95869152D01*
X130473476Y-96307248D02*
X130778238Y-96307248D01*
X131102048Y-96231057D02*
X131083000Y-96250105D01*
X131025857Y-96269152D01*
X130987762Y-96269152D01*
X130930619Y-96250105D01*
X130892524Y-96212010D01*
X130873476Y-96173914D01*
X130854428Y-96097724D01*
X130854428Y-96040581D01*
X130873476Y-95964390D01*
X130892524Y-95926295D01*
X130930619Y-95888200D01*
X130987762Y-95869152D01*
X131025857Y-95869152D01*
X131083000Y-95888200D01*
X131102048Y-95907248D01*
X131273476Y-96269152D02*
X131273476Y-95869152D01*
X131425857Y-95869152D01*
X131463952Y-95888200D01*
X131483000Y-95907248D01*
X131502048Y-95945343D01*
X131502048Y-96002486D01*
X131483000Y-96040581D01*
X131463952Y-96059629D01*
X131425857Y-96078676D01*
X131273476Y-96078676D01*
X131635381Y-96421533D02*
X131654428Y-96402486D01*
X131692524Y-96345343D01*
X131711571Y-96307248D01*
X131730619Y-96250105D01*
X131749667Y-96154867D01*
X131749667Y-96078676D01*
X131730619Y-95983438D01*
X131711571Y-95926295D01*
X131692524Y-95888200D01*
X131654428Y-95831057D01*
X131635381Y-95812010D01*
X126879476Y-96421533D02*
X126860428Y-96402486D01*
X126822333Y-96345343D01*
X126803285Y-96307248D01*
X126784238Y-96250105D01*
X126765190Y-96154867D01*
X126765190Y-96078676D01*
X126784238Y-95983438D01*
X126803285Y-95926295D01*
X126822333Y-95888200D01*
X126860428Y-95831057D01*
X126879476Y-95812010D01*
X127012809Y-96250105D02*
X127069952Y-96269152D01*
X127165190Y-96269152D01*
X127203286Y-96250105D01*
X127222333Y-96231057D01*
X127241381Y-96192962D01*
X127241381Y-96154867D01*
X127222333Y-96116771D01*
X127203286Y-96097724D01*
X127165190Y-96078676D01*
X127089000Y-96059629D01*
X127050905Y-96040581D01*
X127031857Y-96021533D01*
X127012809Y-95983438D01*
X127012809Y-95945343D01*
X127031857Y-95907248D01*
X127050905Y-95888200D01*
X127089000Y-95869152D01*
X127184238Y-95869152D01*
X127241381Y-95888200D01*
X127412809Y-96269152D02*
X127412809Y-95869152D01*
X127412809Y-96059629D02*
X127641381Y-96059629D01*
X127641381Y-96269152D02*
X127641381Y-95869152D01*
X127736619Y-96307248D02*
X128041381Y-96307248D01*
X128365191Y-96231057D02*
X128346143Y-96250105D01*
X128289000Y-96269152D01*
X128250905Y-96269152D01*
X128193762Y-96250105D01*
X128155667Y-96212010D01*
X128136619Y-96173914D01*
X128117571Y-96097724D01*
X128117571Y-96040581D01*
X128136619Y-95964390D01*
X128155667Y-95926295D01*
X128193762Y-95888200D01*
X128250905Y-95869152D01*
X128289000Y-95869152D01*
X128346143Y-95888200D01*
X128365191Y-95907248D01*
X128536619Y-96269152D02*
X128536619Y-95869152D01*
X128689000Y-95869152D01*
X128727095Y-95888200D01*
X128746143Y-95907248D01*
X128765191Y-95945343D01*
X128765191Y-96002486D01*
X128746143Y-96040581D01*
X128727095Y-96059629D01*
X128689000Y-96078676D01*
X128536619Y-96078676D01*
X128898524Y-96421533D02*
X128917571Y-96402486D01*
X128955667Y-96345343D01*
X128974714Y-96307248D01*
X128993762Y-96250105D01*
X129012810Y-96154867D01*
X129012810Y-96078676D01*
X128993762Y-95983438D01*
X128974714Y-95926295D01*
X128955667Y-95888200D01*
X128917571Y-95831057D01*
X128898524Y-95812010D01*
D12*
X125857000Y-104457500D02*
X125857000Y-103314500D01*
X125857000Y-112268000D02*
X125857000Y-111252000D01*
D13*
X137368000Y-101739642D02*
X137339429Y-101796785D01*
X137339429Y-101882499D01*
X137368000Y-101968214D01*
X137425143Y-102025356D01*
X137482286Y-102053928D01*
X137596571Y-102082499D01*
X137682286Y-102082499D01*
X137796571Y-102053928D01*
X137853714Y-102025356D01*
X137910857Y-101968214D01*
X137939429Y-101882499D01*
X137939429Y-101825356D01*
X137910857Y-101739642D01*
X137882286Y-101711071D01*
X137682286Y-101711071D01*
X137682286Y-101825356D01*
X137939429Y-101453928D02*
X137339429Y-101453928D01*
X137939429Y-101111071D01*
X137339429Y-101111071D01*
X137939429Y-100825357D02*
X137339429Y-100825357D01*
X137339429Y-100682500D01*
X137368000Y-100596785D01*
X137425143Y-100539643D01*
X137482286Y-100511071D01*
X137596571Y-100482500D01*
X137682286Y-100482500D01*
X137796571Y-100511071D01*
X137853714Y-100539643D01*
X137910857Y-100596785D01*
X137939429Y-100682500D01*
X137939429Y-100825357D01*
X137996571Y-104759000D02*
X137968000Y-104816143D01*
X137910857Y-104873286D01*
X137825143Y-104959000D01*
X137796571Y-105016143D01*
X137796571Y-105073286D01*
X137939429Y-105044714D02*
X137910857Y-105101857D01*
X137853714Y-105159000D01*
X137739429Y-105187571D01*
X137539429Y-105187571D01*
X137425143Y-105159000D01*
X137368000Y-105101857D01*
X137339429Y-105044714D01*
X137339429Y-104930428D01*
X137368000Y-104873286D01*
X137425143Y-104816143D01*
X137539429Y-104787571D01*
X137739429Y-104787571D01*
X137853714Y-104816143D01*
X137910857Y-104873286D01*
X137939429Y-104930428D01*
X137939429Y-105044714D01*
X137339429Y-104587572D02*
X137339429Y-104187572D01*
X137939429Y-104444715D01*
X138168000Y-103787571D02*
X138139429Y-103816143D01*
X138053714Y-103873286D01*
X137996571Y-103901857D01*
X137910857Y-103930428D01*
X137768000Y-103959000D01*
X137653714Y-103959000D01*
X137510857Y-103930428D01*
X137425143Y-103901857D01*
X137368000Y-103873286D01*
X137282286Y-103816143D01*
X137253714Y-103787571D01*
X137939429Y-103301857D02*
X137339429Y-103301857D01*
X137910857Y-103301857D02*
X137939429Y-103359000D01*
X137939429Y-103473286D01*
X137910857Y-103530428D01*
X137882286Y-103559000D01*
X137825143Y-103587571D01*
X137653714Y-103587571D01*
X137596571Y-103559000D01*
X137568000Y-103530428D01*
X137539429Y-103473286D01*
X137539429Y-103359000D01*
X137568000Y-103301857D01*
X137539429Y-103016143D02*
X138139429Y-103016143D01*
X137568000Y-103016143D02*
X137539429Y-102959000D01*
X137539429Y-102844714D01*
X137568000Y-102787571D01*
X137596571Y-102759000D01*
X137653714Y-102730429D01*
X137825143Y-102730429D01*
X137882286Y-102759000D01*
X137910857Y-102787571D01*
X137939429Y-102844714D01*
X137939429Y-102959000D01*
X137910857Y-103016143D01*
X138168000Y-102530429D02*
X138139429Y-102501857D01*
X138053714Y-102444714D01*
X137996571Y-102416143D01*
X137910857Y-102387572D01*
X137768000Y-102359000D01*
X137653714Y-102359000D01*
X137510857Y-102387572D01*
X137425143Y-102416143D01*
X137368000Y-102444714D01*
X137282286Y-102501857D01*
X137253714Y-102530429D01*
X137996571Y-107408571D02*
X137968000Y-107465714D01*
X137910857Y-107522857D01*
X137825143Y-107608571D01*
X137796571Y-107665714D01*
X137796571Y-107722857D01*
X137939429Y-107694285D02*
X137910857Y-107751428D01*
X137853714Y-107808571D01*
X137739429Y-107837142D01*
X137539429Y-107837142D01*
X137425143Y-107808571D01*
X137368000Y-107751428D01*
X137339429Y-107694285D01*
X137339429Y-107579999D01*
X137368000Y-107522857D01*
X137425143Y-107465714D01*
X137539429Y-107437142D01*
X137739429Y-107437142D01*
X137853714Y-107465714D01*
X137910857Y-107522857D01*
X137939429Y-107579999D01*
X137939429Y-107694285D01*
X137339429Y-106922857D02*
X137339429Y-107037143D01*
X137368000Y-107094286D01*
X137396571Y-107122857D01*
X137482286Y-107180000D01*
X137596571Y-107208571D01*
X137825143Y-107208571D01*
X137882286Y-107180000D01*
X137910857Y-107151428D01*
X137939429Y-107094286D01*
X137939429Y-106980000D01*
X137910857Y-106922857D01*
X137882286Y-106894286D01*
X137825143Y-106865714D01*
X137682286Y-106865714D01*
X137625143Y-106894286D01*
X137596571Y-106922857D01*
X137568000Y-106980000D01*
X137568000Y-107094286D01*
X137596571Y-107151428D01*
X137625143Y-107180000D01*
X137682286Y-107208571D01*
X138168000Y-106437142D02*
X138139429Y-106465714D01*
X138053714Y-106522857D01*
X137996571Y-106551428D01*
X137910857Y-106579999D01*
X137768000Y-106608571D01*
X137653714Y-106608571D01*
X137510857Y-106579999D01*
X137425143Y-106551428D01*
X137368000Y-106522857D01*
X137282286Y-106465714D01*
X137253714Y-106437142D01*
X137539429Y-105951428D02*
X138025143Y-105951428D01*
X138082286Y-105979999D01*
X138110857Y-106008571D01*
X138139429Y-106065714D01*
X138139429Y-106151428D01*
X138110857Y-106208571D01*
X137910857Y-105951428D02*
X137939429Y-106008571D01*
X137939429Y-106122857D01*
X137910857Y-106179999D01*
X137882286Y-106208571D01*
X137825143Y-106237142D01*
X137653714Y-106237142D01*
X137596571Y-106208571D01*
X137568000Y-106179999D01*
X137539429Y-106122857D01*
X137539429Y-106008571D01*
X137568000Y-105951428D01*
X138168000Y-105722857D02*
X138139429Y-105694285D01*
X138053714Y-105637142D01*
X137996571Y-105608571D01*
X137910857Y-105580000D01*
X137768000Y-105551428D01*
X137653714Y-105551428D01*
X137510857Y-105580000D01*
X137425143Y-105608571D01*
X137368000Y-105637142D01*
X137282286Y-105694285D01*
X137253714Y-105722857D01*
X137996571Y-109848571D02*
X137968000Y-109905714D01*
X137910857Y-109962857D01*
X137825143Y-110048571D01*
X137796571Y-110105714D01*
X137796571Y-110162857D01*
X137939429Y-110134285D02*
X137910857Y-110191428D01*
X137853714Y-110248571D01*
X137739429Y-110277142D01*
X137539429Y-110277142D01*
X137425143Y-110248571D01*
X137368000Y-110191428D01*
X137339429Y-110134285D01*
X137339429Y-110019999D01*
X137368000Y-109962857D01*
X137425143Y-109905714D01*
X137539429Y-109877142D01*
X137739429Y-109877142D01*
X137853714Y-109905714D01*
X137910857Y-109962857D01*
X137939429Y-110019999D01*
X137939429Y-110134285D01*
X137339429Y-109334286D02*
X137339429Y-109620000D01*
X137625143Y-109648571D01*
X137596571Y-109620000D01*
X137568000Y-109562857D01*
X137568000Y-109420000D01*
X137596571Y-109362857D01*
X137625143Y-109334286D01*
X137682286Y-109305714D01*
X137825143Y-109305714D01*
X137882286Y-109334286D01*
X137910857Y-109362857D01*
X137939429Y-109420000D01*
X137939429Y-109562857D01*
X137910857Y-109620000D01*
X137882286Y-109648571D01*
X138168000Y-108877142D02*
X138139429Y-108905714D01*
X138053714Y-108962857D01*
X137996571Y-108991428D01*
X137910857Y-109019999D01*
X137768000Y-109048571D01*
X137653714Y-109048571D01*
X137510857Y-109019999D01*
X137425143Y-108991428D01*
X137368000Y-108962857D01*
X137282286Y-108905714D01*
X137253714Y-108877142D01*
X137539429Y-108734285D02*
X137539429Y-108505714D01*
X137939429Y-108648571D02*
X137425143Y-108648571D01*
X137368000Y-108619999D01*
X137339429Y-108562857D01*
X137339429Y-108505714D01*
X138168000Y-108362857D02*
X138139429Y-108334285D01*
X138053714Y-108277142D01*
X137996571Y-108248571D01*
X137910857Y-108220000D01*
X137768000Y-108191428D01*
X137653714Y-108191428D01*
X137510857Y-108220000D01*
X137425143Y-108248571D01*
X137368000Y-108277142D01*
X137282286Y-108334285D01*
X137253714Y-108362857D01*
X137996571Y-112474286D02*
X137968000Y-112531429D01*
X137910857Y-112588572D01*
X137825143Y-112674286D01*
X137796571Y-112731429D01*
X137796571Y-112788572D01*
X137939429Y-112760000D02*
X137910857Y-112817143D01*
X137853714Y-112874286D01*
X137739429Y-112902857D01*
X137539429Y-112902857D01*
X137425143Y-112874286D01*
X137368000Y-112817143D01*
X137339429Y-112760000D01*
X137339429Y-112645714D01*
X137368000Y-112588572D01*
X137425143Y-112531429D01*
X137539429Y-112502857D01*
X137739429Y-112502857D01*
X137853714Y-112531429D01*
X137910857Y-112588572D01*
X137939429Y-112645714D01*
X137939429Y-112760000D01*
X137539429Y-111988572D02*
X137939429Y-111988572D01*
X137310857Y-112131429D02*
X137739429Y-112274286D01*
X137739429Y-111902858D01*
X138168000Y-111502857D02*
X138139429Y-111531429D01*
X138053714Y-111588572D01*
X137996571Y-111617143D01*
X137910857Y-111645714D01*
X137768000Y-111674286D01*
X137653714Y-111674286D01*
X137510857Y-111645714D01*
X137425143Y-111617143D01*
X137368000Y-111588572D01*
X137282286Y-111531429D01*
X137253714Y-111502857D01*
X137910857Y-111045714D02*
X137939429Y-111102857D01*
X137939429Y-111217143D01*
X137910857Y-111274286D01*
X137853714Y-111302857D01*
X137625143Y-111302857D01*
X137568000Y-111274286D01*
X137539429Y-111217143D01*
X137539429Y-111102857D01*
X137568000Y-111045714D01*
X137625143Y-111017143D01*
X137682286Y-111017143D01*
X137739429Y-111302857D01*
X138168000Y-110817143D02*
X138139429Y-110788571D01*
X138053714Y-110731428D01*
X137996571Y-110702857D01*
X137910857Y-110674286D01*
X137768000Y-110645714D01*
X137653714Y-110645714D01*
X137510857Y-110674286D01*
X137425143Y-110702857D01*
X137368000Y-110731428D01*
X137282286Y-110788571D01*
X137253714Y-110817143D01*
X137996571Y-115155571D02*
X137968000Y-115212714D01*
X137910857Y-115269857D01*
X137825143Y-115355571D01*
X137796571Y-115412714D01*
X137796571Y-115469857D01*
X137939429Y-115441285D02*
X137910857Y-115498428D01*
X137853714Y-115555571D01*
X137739429Y-115584142D01*
X137539429Y-115584142D01*
X137425143Y-115555571D01*
X137368000Y-115498428D01*
X137339429Y-115441285D01*
X137339429Y-115326999D01*
X137368000Y-115269857D01*
X137425143Y-115212714D01*
X137539429Y-115184142D01*
X137739429Y-115184142D01*
X137853714Y-115212714D01*
X137910857Y-115269857D01*
X137939429Y-115326999D01*
X137939429Y-115441285D01*
X137339429Y-114984143D02*
X137339429Y-114612714D01*
X137568000Y-114812714D01*
X137568000Y-114727000D01*
X137596571Y-114669857D01*
X137625143Y-114641286D01*
X137682286Y-114612714D01*
X137825143Y-114612714D01*
X137882286Y-114641286D01*
X137910857Y-114669857D01*
X137939429Y-114727000D01*
X137939429Y-114898428D01*
X137910857Y-114955571D01*
X137882286Y-114984143D01*
X138168000Y-114184142D02*
X138139429Y-114212714D01*
X138053714Y-114269857D01*
X137996571Y-114298428D01*
X137910857Y-114326999D01*
X137768000Y-114355571D01*
X137653714Y-114355571D01*
X137510857Y-114326999D01*
X137425143Y-114298428D01*
X137368000Y-114269857D01*
X137282286Y-114212714D01*
X137253714Y-114184142D01*
X137939429Y-113698428D02*
X137339429Y-113698428D01*
X137910857Y-113698428D02*
X137939429Y-113755571D01*
X137939429Y-113869857D01*
X137910857Y-113926999D01*
X137882286Y-113955571D01*
X137825143Y-113984142D01*
X137653714Y-113984142D01*
X137596571Y-113955571D01*
X137568000Y-113926999D01*
X137539429Y-113869857D01*
X137539429Y-113755571D01*
X137568000Y-113698428D01*
X138168000Y-113469857D02*
X138139429Y-113441285D01*
X138053714Y-113384142D01*
X137996571Y-113355571D01*
X137910857Y-113327000D01*
X137768000Y-113298428D01*
X137653714Y-113298428D01*
X137510857Y-113327000D01*
X137425143Y-113355571D01*
X137368000Y-113384142D01*
X137282286Y-113441285D01*
X137253714Y-113469857D01*
X137996571Y-117744786D02*
X137968000Y-117801929D01*
X137910857Y-117859072D01*
X137825143Y-117944786D01*
X137796571Y-118001929D01*
X137796571Y-118059072D01*
X137939429Y-118030500D02*
X137910857Y-118087643D01*
X137853714Y-118144786D01*
X137739429Y-118173357D01*
X137539429Y-118173357D01*
X137425143Y-118144786D01*
X137368000Y-118087643D01*
X137339429Y-118030500D01*
X137339429Y-117916214D01*
X137368000Y-117859072D01*
X137425143Y-117801929D01*
X137539429Y-117773357D01*
X137739429Y-117773357D01*
X137853714Y-117801929D01*
X137910857Y-117859072D01*
X137939429Y-117916214D01*
X137939429Y-118030500D01*
X137396571Y-117544786D02*
X137368000Y-117516215D01*
X137339429Y-117459072D01*
X137339429Y-117316215D01*
X137368000Y-117259072D01*
X137396571Y-117230501D01*
X137453714Y-117201929D01*
X137510857Y-117201929D01*
X137596571Y-117230501D01*
X137939429Y-117573358D01*
X137939429Y-117201929D01*
X138168000Y-116773357D02*
X138139429Y-116801929D01*
X138053714Y-116859072D01*
X137996571Y-116887643D01*
X137910857Y-116916214D01*
X137768000Y-116944786D01*
X137653714Y-116944786D01*
X137510857Y-116916214D01*
X137425143Y-116887643D01*
X137368000Y-116859072D01*
X137282286Y-116801929D01*
X137253714Y-116773357D01*
X137910857Y-116287643D02*
X137939429Y-116344786D01*
X137939429Y-116459072D01*
X137910857Y-116516214D01*
X137882286Y-116544786D01*
X137825143Y-116573357D01*
X137653714Y-116573357D01*
X137596571Y-116544786D01*
X137568000Y-116516214D01*
X137539429Y-116459072D01*
X137539429Y-116344786D01*
X137568000Y-116287643D01*
X138168000Y-116087643D02*
X138139429Y-116059071D01*
X138053714Y-116001928D01*
X137996571Y-115973357D01*
X137910857Y-115944786D01*
X137768000Y-115916214D01*
X137653714Y-115916214D01*
X137510857Y-115944786D01*
X137425143Y-115973357D01*
X137368000Y-116001928D01*
X137282286Y-116059071D01*
X137253714Y-116087643D01*
X137996571Y-120362571D02*
X137968000Y-120419714D01*
X137910857Y-120476857D01*
X137825143Y-120562571D01*
X137796571Y-120619714D01*
X137796571Y-120676857D01*
X137939429Y-120648285D02*
X137910857Y-120705428D01*
X137853714Y-120762571D01*
X137739429Y-120791142D01*
X137539429Y-120791142D01*
X137425143Y-120762571D01*
X137368000Y-120705428D01*
X137339429Y-120648285D01*
X137339429Y-120533999D01*
X137368000Y-120476857D01*
X137425143Y-120419714D01*
X137539429Y-120391142D01*
X137739429Y-120391142D01*
X137853714Y-120419714D01*
X137910857Y-120476857D01*
X137939429Y-120533999D01*
X137939429Y-120648285D01*
X137939429Y-119819714D02*
X137939429Y-120162571D01*
X137939429Y-119991143D02*
X137339429Y-119991143D01*
X137425143Y-120048286D01*
X137482286Y-120105428D01*
X137510857Y-120162571D01*
X138168000Y-119391142D02*
X138139429Y-119419714D01*
X138053714Y-119476857D01*
X137996571Y-119505428D01*
X137910857Y-119533999D01*
X137768000Y-119562571D01*
X137653714Y-119562571D01*
X137510857Y-119533999D01*
X137425143Y-119505428D01*
X137368000Y-119476857D01*
X137282286Y-119419714D01*
X137253714Y-119391142D01*
X137939429Y-119162571D02*
X137339429Y-119162571D01*
X137568000Y-119162571D02*
X137539429Y-119105428D01*
X137539429Y-118991142D01*
X137568000Y-118933999D01*
X137596571Y-118905428D01*
X137653714Y-118876857D01*
X137825143Y-118876857D01*
X137882286Y-118905428D01*
X137910857Y-118933999D01*
X137939429Y-118991142D01*
X137939429Y-119105428D01*
X137910857Y-119162571D01*
X138168000Y-118676857D02*
X138139429Y-118648285D01*
X138053714Y-118591142D01*
X137996571Y-118562571D01*
X137910857Y-118534000D01*
X137768000Y-118505428D01*
X137653714Y-118505428D01*
X137510857Y-118534000D01*
X137425143Y-118562571D01*
X137368000Y-118591142D01*
X137282286Y-118648285D01*
X137253714Y-118676857D01*
X126163429Y-120094286D02*
X126763429Y-119894286D01*
X126163429Y-119694286D01*
X126734857Y-119237143D02*
X126763429Y-119294286D01*
X126763429Y-119408572D01*
X126734857Y-119465714D01*
X126706286Y-119494286D01*
X126649143Y-119522857D01*
X126477714Y-119522857D01*
X126420571Y-119494286D01*
X126392000Y-119465714D01*
X126363429Y-119408572D01*
X126363429Y-119294286D01*
X126392000Y-119237143D01*
X126734857Y-118722857D02*
X126763429Y-118780000D01*
X126763429Y-118894286D01*
X126734857Y-118951428D01*
X126706286Y-118980000D01*
X126649143Y-119008571D01*
X126477714Y-119008571D01*
X126420571Y-118980000D01*
X126392000Y-118951428D01*
X126363429Y-118894286D01*
X126363429Y-118780000D01*
X126392000Y-118722857D01*
X126820571Y-117378071D02*
X126792000Y-117435214D01*
X126734857Y-117492357D01*
X126649143Y-117578071D01*
X126620571Y-117635214D01*
X126620571Y-117692357D01*
X126763429Y-117663785D02*
X126734857Y-117720928D01*
X126677714Y-117778071D01*
X126563429Y-117806642D01*
X126363429Y-117806642D01*
X126249143Y-117778071D01*
X126192000Y-117720928D01*
X126163429Y-117663785D01*
X126163429Y-117549499D01*
X126192000Y-117492357D01*
X126249143Y-117435214D01*
X126363429Y-117406642D01*
X126563429Y-117406642D01*
X126677714Y-117435214D01*
X126734857Y-117492357D01*
X126763429Y-117549499D01*
X126763429Y-117663785D01*
X126163429Y-117035214D02*
X126163429Y-116978071D01*
X126192000Y-116920928D01*
X126220571Y-116892357D01*
X126277714Y-116863786D01*
X126392000Y-116835214D01*
X126534857Y-116835214D01*
X126649143Y-116863786D01*
X126706286Y-116892357D01*
X126734857Y-116920928D01*
X126763429Y-116978071D01*
X126763429Y-117035214D01*
X126734857Y-117092357D01*
X126706286Y-117120928D01*
X126649143Y-117149500D01*
X126534857Y-117178071D01*
X126392000Y-117178071D01*
X126277714Y-117149500D01*
X126220571Y-117120928D01*
X126192000Y-117092357D01*
X126163429Y-117035214D01*
X126992000Y-116406642D02*
X126963429Y-116435214D01*
X126877714Y-116492357D01*
X126820571Y-116520928D01*
X126734857Y-116549499D01*
X126592000Y-116578071D01*
X126477714Y-116578071D01*
X126334857Y-116549499D01*
X126249143Y-116520928D01*
X126192000Y-116492357D01*
X126106286Y-116435214D01*
X126077714Y-116406642D01*
X126763429Y-115920928D02*
X126449143Y-115920928D01*
X126392000Y-115949499D01*
X126363429Y-116006642D01*
X126363429Y-116120928D01*
X126392000Y-116178071D01*
X126734857Y-115920928D02*
X126763429Y-115978071D01*
X126763429Y-116120928D01*
X126734857Y-116178071D01*
X126677714Y-116206642D01*
X126620571Y-116206642D01*
X126563429Y-116178071D01*
X126534857Y-116120928D01*
X126534857Y-115978071D01*
X126506286Y-115920928D01*
X126992000Y-115692357D02*
X126963429Y-115663785D01*
X126877714Y-115606642D01*
X126820571Y-115578071D01*
X126734857Y-115549500D01*
X126592000Y-115520928D01*
X126477714Y-115520928D01*
X126334857Y-115549500D01*
X126249143Y-115578071D01*
X126192000Y-115606642D01*
X126106286Y-115663785D01*
X126077714Y-115692357D01*
X126763429Y-114615857D02*
X126163429Y-114615857D01*
X126163429Y-114473000D01*
X126192000Y-114387285D01*
X126249143Y-114330143D01*
X126306286Y-114301571D01*
X126420571Y-114273000D01*
X126506286Y-114273000D01*
X126620571Y-114301571D01*
X126677714Y-114330143D01*
X126734857Y-114387285D01*
X126763429Y-114473000D01*
X126763429Y-114615857D01*
X126734857Y-114044428D02*
X126763429Y-113958714D01*
X126763429Y-113815857D01*
X126734857Y-113758714D01*
X126706286Y-113730143D01*
X126649143Y-113701571D01*
X126592000Y-113701571D01*
X126534857Y-113730143D01*
X126506286Y-113758714D01*
X126477714Y-113815857D01*
X126449143Y-113930143D01*
X126420571Y-113987285D01*
X126392000Y-114015857D01*
X126334857Y-114044428D01*
X126277714Y-114044428D01*
X126220571Y-114015857D01*
X126192000Y-113987285D01*
X126163429Y-113930143D01*
X126163429Y-113787285D01*
X126192000Y-113701571D01*
X126163429Y-112088571D02*
X126163429Y-111974285D01*
X126192000Y-111917143D01*
X126249143Y-111860000D01*
X126363429Y-111831428D01*
X126563429Y-111831428D01*
X126677714Y-111860000D01*
X126734857Y-111917143D01*
X126763429Y-111974285D01*
X126763429Y-112088571D01*
X126734857Y-112145714D01*
X126677714Y-112202857D01*
X126563429Y-112231428D01*
X126363429Y-112231428D01*
X126249143Y-112202857D01*
X126192000Y-112145714D01*
X126163429Y-112088571D01*
X126449143Y-111574286D02*
X126449143Y-111374286D01*
X126763429Y-111288572D02*
X126763429Y-111574286D01*
X126163429Y-111574286D01*
X126163429Y-111288572D01*
X126734857Y-110575571D02*
X126763429Y-110489857D01*
X126763429Y-110347000D01*
X126734857Y-110289857D01*
X126706286Y-110261286D01*
X126649143Y-110232714D01*
X126592000Y-110232714D01*
X126534857Y-110261286D01*
X126506286Y-110289857D01*
X126477714Y-110347000D01*
X126449143Y-110461286D01*
X126420571Y-110518428D01*
X126392000Y-110547000D01*
X126334857Y-110575571D01*
X126277714Y-110575571D01*
X126220571Y-110547000D01*
X126192000Y-110518428D01*
X126163429Y-110461286D01*
X126163429Y-110318428D01*
X126192000Y-110232714D01*
X126163429Y-110061285D02*
X126163429Y-109718428D01*
X126763429Y-109889857D02*
X126163429Y-109889857D01*
X126820571Y-109661285D02*
X126820571Y-109204142D01*
X126706286Y-108718428D02*
X126734857Y-108746999D01*
X126763429Y-108832713D01*
X126763429Y-108889856D01*
X126734857Y-108975571D01*
X126677714Y-109032713D01*
X126620571Y-109061285D01*
X126506286Y-109089856D01*
X126420571Y-109089856D01*
X126306286Y-109061285D01*
X126249143Y-109032713D01*
X126192000Y-108975571D01*
X126163429Y-108889856D01*
X126163429Y-108832713D01*
X126192000Y-108746999D01*
X126220571Y-108718428D01*
X126763429Y-108461285D02*
X126163429Y-108461285D01*
X126163429Y-108232713D01*
X126192000Y-108175571D01*
X126220571Y-108146999D01*
X126277714Y-108118428D01*
X126363429Y-108118428D01*
X126420571Y-108146999D01*
X126449143Y-108175571D01*
X126477714Y-108232713D01*
X126477714Y-108461285D01*
X126734857Y-107613285D02*
X126763429Y-107527571D01*
X126763429Y-107384714D01*
X126734857Y-107327571D01*
X126706286Y-107299000D01*
X126649143Y-107270428D01*
X126592000Y-107270428D01*
X126534857Y-107299000D01*
X126506286Y-107327571D01*
X126477714Y-107384714D01*
X126449143Y-107499000D01*
X126420571Y-107556142D01*
X126392000Y-107584714D01*
X126334857Y-107613285D01*
X126277714Y-107613285D01*
X126220571Y-107584714D01*
X126192000Y-107556142D01*
X126163429Y-107499000D01*
X126163429Y-107356142D01*
X126192000Y-107270428D01*
X126763429Y-107013285D02*
X126163429Y-107013285D01*
X126449143Y-107013285D02*
X126449143Y-106670428D01*
X126763429Y-106670428D02*
X126163429Y-106670428D01*
X126820571Y-106527571D02*
X126820571Y-106070428D01*
X126706286Y-105584714D02*
X126734857Y-105613285D01*
X126763429Y-105698999D01*
X126763429Y-105756142D01*
X126734857Y-105841857D01*
X126677714Y-105898999D01*
X126620571Y-105927571D01*
X126506286Y-105956142D01*
X126420571Y-105956142D01*
X126306286Y-105927571D01*
X126249143Y-105898999D01*
X126192000Y-105841857D01*
X126163429Y-105756142D01*
X126163429Y-105698999D01*
X126192000Y-105613285D01*
X126220571Y-105584714D01*
X126763429Y-105327571D02*
X126163429Y-105327571D01*
X126163429Y-105098999D01*
X126192000Y-105041857D01*
X126220571Y-105013285D01*
X126277714Y-104984714D01*
X126363429Y-104984714D01*
X126420571Y-105013285D01*
X126449143Y-105041857D01*
X126477714Y-105098999D01*
X126477714Y-105327571D01*
X126763429Y-104386000D02*
X126163429Y-104386000D01*
X126592000Y-104186000D01*
X126163429Y-103986000D01*
X126763429Y-103986000D01*
X126763429Y-103357429D02*
X126477714Y-103557429D01*
X126763429Y-103700286D02*
X126163429Y-103700286D01*
X126163429Y-103471714D01*
X126192000Y-103414572D01*
X126220571Y-103386000D01*
X126277714Y-103357429D01*
X126363429Y-103357429D01*
X126420571Y-103386000D01*
X126449143Y-103414572D01*
X126477714Y-103471714D01*
X126477714Y-103700286D01*
X126820571Y-101609500D02*
X126792000Y-101666643D01*
X126734857Y-101723786D01*
X126649143Y-101809500D01*
X126620571Y-101866643D01*
X126620571Y-101923786D01*
X126763429Y-101895214D02*
X126734857Y-101952357D01*
X126677714Y-102009500D01*
X126563429Y-102038071D01*
X126363429Y-102038071D01*
X126249143Y-102009500D01*
X126192000Y-101952357D01*
X126163429Y-101895214D01*
X126163429Y-101780928D01*
X126192000Y-101723786D01*
X126249143Y-101666643D01*
X126363429Y-101638071D01*
X126563429Y-101638071D01*
X126677714Y-101666643D01*
X126734857Y-101723786D01*
X126763429Y-101780928D01*
X126763429Y-101895214D01*
X126163429Y-101438072D02*
X126163429Y-101038072D01*
X126763429Y-101295215D01*
X126163429Y-100780928D02*
X126277714Y-100838071D01*
X168781429Y-96537429D02*
X168781429Y-95937429D01*
X168781429Y-96166000D02*
X168838572Y-96137429D01*
X168952858Y-96137429D01*
X169010001Y-96166000D01*
X169038572Y-96194571D01*
X169067143Y-96251714D01*
X169067143Y-96423143D01*
X169038572Y-96480286D01*
X169010001Y-96508857D01*
X168952858Y-96537429D01*
X168838572Y-96537429D01*
X168781429Y-96508857D01*
X166498572Y-96537429D02*
X166498572Y-96223143D01*
X166470001Y-96166000D01*
X166412858Y-96137429D01*
X166298572Y-96137429D01*
X166241429Y-96166000D01*
X166498572Y-96508857D02*
X166441429Y-96537429D01*
X166298572Y-96537429D01*
X166241429Y-96508857D01*
X166212858Y-96451714D01*
X166212858Y-96394571D01*
X166241429Y-96337429D01*
X166298572Y-96308857D01*
X166441429Y-96308857D01*
X166498572Y-96280286D01*
X163372858Y-95966000D02*
X163315715Y-95937429D01*
X163230001Y-95937429D01*
X163144286Y-95966000D01*
X163087144Y-96023143D01*
X163058572Y-96080286D01*
X163030001Y-96194571D01*
X163030001Y-96280286D01*
X163058572Y-96394571D01*
X163087144Y-96451714D01*
X163144286Y-96508857D01*
X163230001Y-96537429D01*
X163287144Y-96537429D01*
X163372858Y-96508857D01*
X163401429Y-96480286D01*
X163401429Y-96280286D01*
X163287144Y-96280286D01*
X163658572Y-96537429D02*
X163658572Y-95937429D01*
X164001429Y-96537429D01*
X164001429Y-95937429D01*
X164287143Y-96537429D02*
X164287143Y-95937429D01*
X164430000Y-95937429D01*
X164515715Y-95966000D01*
X164572857Y-96023143D01*
X164601429Y-96080286D01*
X164630000Y-96194571D01*
X164630000Y-96280286D01*
X164601429Y-96394571D01*
X164572857Y-96451714D01*
X164515715Y-96508857D01*
X164430000Y-96537429D01*
X164287143Y-96537429D01*
X160921715Y-96137429D02*
X161150286Y-96137429D01*
X161007429Y-96537429D02*
X161007429Y-96023143D01*
X161036001Y-95966000D01*
X161093143Y-95937429D01*
X161150286Y-95937429D01*
X158624572Y-96137429D02*
X158624572Y-96623143D01*
X158596001Y-96680286D01*
X158567429Y-96708857D01*
X158510286Y-96737429D01*
X158424572Y-96737429D01*
X158367429Y-96708857D01*
X158624572Y-96508857D02*
X158567429Y-96537429D01*
X158453143Y-96537429D01*
X158396001Y-96508857D01*
X158367429Y-96480286D01*
X158338858Y-96423143D01*
X158338858Y-96251714D01*
X158367429Y-96194571D01*
X158396001Y-96166000D01*
X158453143Y-96137429D01*
X158567429Y-96137429D01*
X158624572Y-96166000D01*
X168452857Y-117365429D02*
X168452857Y-116765429D01*
X168595714Y-116765429D01*
X168681429Y-116794000D01*
X168738571Y-116851143D01*
X168767143Y-116908286D01*
X168795714Y-117022571D01*
X168795714Y-117108286D01*
X168767143Y-117222571D01*
X168738571Y-117279714D01*
X168681429Y-117336857D01*
X168595714Y-117365429D01*
X168452857Y-117365429D01*
X169052857Y-117365429D02*
X169052857Y-116765429D01*
X169281429Y-116765429D01*
X169338571Y-116794000D01*
X169367143Y-116822571D01*
X169395714Y-116879714D01*
X169395714Y-116965429D01*
X169367143Y-117022571D01*
X169338571Y-117051143D01*
X169281429Y-117079714D01*
X169052857Y-117079714D01*
X166512857Y-117336857D02*
X166455714Y-117365429D01*
X166341428Y-117365429D01*
X166284286Y-117336857D01*
X166255714Y-117308286D01*
X166227143Y-117251143D01*
X166227143Y-117079714D01*
X166255714Y-117022571D01*
X166284286Y-116994000D01*
X166341428Y-116965429D01*
X166455714Y-116965429D01*
X166512857Y-116994000D01*
X163372858Y-116794000D02*
X163315715Y-116765429D01*
X163230001Y-116765429D01*
X163144286Y-116794000D01*
X163087144Y-116851143D01*
X163058572Y-116908286D01*
X163030001Y-117022571D01*
X163030001Y-117108286D01*
X163058572Y-117222571D01*
X163087144Y-117279714D01*
X163144286Y-117336857D01*
X163230001Y-117365429D01*
X163287144Y-117365429D01*
X163372858Y-117336857D01*
X163401429Y-117308286D01*
X163401429Y-117108286D01*
X163287144Y-117108286D01*
X163658572Y-117365429D02*
X163658572Y-116765429D01*
X164001429Y-117365429D01*
X164001429Y-116765429D01*
X164287143Y-117365429D02*
X164287143Y-116765429D01*
X164430000Y-116765429D01*
X164515715Y-116794000D01*
X164572857Y-116851143D01*
X164601429Y-116908286D01*
X164630000Y-117022571D01*
X164630000Y-117108286D01*
X164601429Y-117222571D01*
X164572857Y-117279714D01*
X164515715Y-117336857D01*
X164430000Y-117365429D01*
X164287143Y-117365429D01*
X161418572Y-117365429D02*
X161418572Y-116765429D01*
X161418572Y-117336857D02*
X161361429Y-117365429D01*
X161247143Y-117365429D01*
X161190001Y-117336857D01*
X161161429Y-117308286D01*
X161132858Y-117251143D01*
X161132858Y-117079714D01*
X161161429Y-117022571D01*
X161190001Y-116994000D01*
X161247143Y-116965429D01*
X161361429Y-116965429D01*
X161418572Y-116994000D01*
X158864286Y-117336857D02*
X158807143Y-117365429D01*
X158692857Y-117365429D01*
X158635714Y-117336857D01*
X158607143Y-117279714D01*
X158607143Y-117051143D01*
X158635714Y-116994000D01*
X158692857Y-116965429D01*
X158807143Y-116965429D01*
X158864286Y-116994000D01*
X158892857Y-117051143D01*
X158892857Y-117108286D01*
X158607143Y-117165429D01*
X137715714Y-94921429D02*
X137915714Y-95521429D01*
X138115714Y-94921429D01*
X138572857Y-95492857D02*
X138515714Y-95521429D01*
X138401428Y-95521429D01*
X138344286Y-95492857D01*
X138315714Y-95464286D01*
X138287143Y-95407143D01*
X138287143Y-95235714D01*
X138315714Y-95178571D01*
X138344286Y-95150000D01*
X138401428Y-95121429D01*
X138515714Y-95121429D01*
X138572857Y-95150000D01*
X139087143Y-95492857D02*
X139030000Y-95521429D01*
X138915714Y-95521429D01*
X138858572Y-95492857D01*
X138830000Y-95464286D01*
X138801429Y-95407143D01*
X138801429Y-95235714D01*
X138830000Y-95178571D01*
X138858572Y-95150000D01*
X138915714Y-95121429D01*
X139030000Y-95121429D01*
X139087143Y-95150000D01*
X135432858Y-94950000D02*
X135375715Y-94921429D01*
X135290001Y-94921429D01*
X135204286Y-94950000D01*
X135147144Y-95007143D01*
X135118572Y-95064286D01*
X135090001Y-95178571D01*
X135090001Y-95264286D01*
X135118572Y-95378571D01*
X135147144Y-95435714D01*
X135204286Y-95492857D01*
X135290001Y-95521429D01*
X135347144Y-95521429D01*
X135432858Y-95492857D01*
X135461429Y-95464286D01*
X135461429Y-95264286D01*
X135347144Y-95264286D01*
X135718572Y-95521429D02*
X135718572Y-94921429D01*
X136061429Y-95521429D01*
X136061429Y-94921429D01*
X136347143Y-95521429D02*
X136347143Y-94921429D01*
X136490000Y-94921429D01*
X136575715Y-94950000D01*
X136632857Y-95007143D01*
X136661429Y-95064286D01*
X136690000Y-95178571D01*
X136690000Y-95264286D01*
X136661429Y-95378571D01*
X136632857Y-95435714D01*
X136575715Y-95492857D01*
X136490000Y-95521429D01*
X136347143Y-95521429D01*
X132513500Y-95521429D02*
X132513500Y-94921429D01*
X132656357Y-94921429D01*
X132742072Y-94950000D01*
X132799214Y-95007143D01*
X132827786Y-95064286D01*
X132856357Y-95178571D01*
X132856357Y-95264286D01*
X132827786Y-95378571D01*
X132799214Y-95435714D01*
X132742072Y-95492857D01*
X132656357Y-95521429D01*
X132513500Y-95521429D01*
X133084929Y-95350000D02*
X133370643Y-95350000D01*
X133027786Y-95521429D02*
X133227786Y-94921429D01*
X133427786Y-95521429D01*
X133542072Y-94921429D02*
X133884929Y-94921429D01*
X133713500Y-95521429D02*
X133713500Y-94921429D01*
X134056358Y-95350000D02*
X134342072Y-95350000D01*
X133999215Y-95521429D02*
X134199215Y-94921429D01*
X134399215Y-95521429D01*
X129768714Y-95521429D02*
X129483000Y-95521429D01*
X129483000Y-94921429D01*
X129940143Y-95350000D02*
X130225857Y-95350000D01*
X129883000Y-95521429D02*
X130083000Y-94921429D01*
X130283000Y-95521429D01*
X130397286Y-94921429D02*
X130740143Y-94921429D01*
X130568714Y-95521429D02*
X130568714Y-94921429D01*
X131283000Y-95464286D02*
X131254429Y-95492857D01*
X131168715Y-95521429D01*
X131111572Y-95521429D01*
X131025857Y-95492857D01*
X130968715Y-95435714D01*
X130940143Y-95378571D01*
X130911572Y-95264286D01*
X130911572Y-95178571D01*
X130940143Y-95064286D01*
X130968715Y-95007143D01*
X131025857Y-94950000D01*
X131111572Y-94921429D01*
X131168715Y-94921429D01*
X131254429Y-94950000D01*
X131283000Y-94978571D01*
X131540143Y-95521429D02*
X131540143Y-94921429D01*
X131540143Y-95207143D02*
X131883000Y-95207143D01*
X131883000Y-95521429D02*
X131883000Y-94921429D01*
X127168357Y-95464286D02*
X127139786Y-95492857D01*
X127054072Y-95521429D01*
X126996929Y-95521429D01*
X126911214Y-95492857D01*
X126854072Y-95435714D01*
X126825500Y-95378571D01*
X126796929Y-95264286D01*
X126796929Y-95178571D01*
X126825500Y-95064286D01*
X126854072Y-95007143D01*
X126911214Y-94950000D01*
X126996929Y-94921429D01*
X127054072Y-94921429D01*
X127139786Y-94950000D01*
X127168357Y-94978571D01*
X127711214Y-95521429D02*
X127425500Y-95521429D01*
X127425500Y-94921429D01*
X128254071Y-95464286D02*
X128225500Y-95492857D01*
X128139786Y-95521429D01*
X128082643Y-95521429D01*
X127996928Y-95492857D01*
X127939786Y-95435714D01*
X127911214Y-95378571D01*
X127882643Y-95264286D01*
X127882643Y-95178571D01*
X127911214Y-95064286D01*
X127939786Y-95007143D01*
X127996928Y-94950000D01*
X128082643Y-94921429D01*
X128139786Y-94921429D01*
X128225500Y-94950000D01*
X128254071Y-94978571D01*
X128511214Y-95521429D02*
X128511214Y-94921429D01*
X128854071Y-95521429D02*
X128596928Y-95178571D01*
X128854071Y-94921429D02*
X128511214Y-95264286D01*
X168277214Y-111680000D02*
G75*
G03X168277214Y-111680000I-447214J0D01*
G01*
X160830000Y-101680000D02*
X159830000Y-106680000D01*
X159830000Y-106680000D02*
X158830000Y-111680000D01*
X158830000Y-111680000D02*
X165830000Y-111680000D01*
X165830000Y-111680000D02*
X166830000Y-106680000D01*
X167830000Y-101680000D02*
X166830000Y-106680000D01*
X166830000Y-106680000D02*
X159830000Y-106680000D01*
X160830000Y-101680000D02*
X167830000Y-101680000D01*
X170130000Y-116280000D02*
X157530000Y-116280000D01*
X157530000Y-100980000D02*
X157530000Y-112380000D01*
X170130000Y-100980000D02*
X170130000Y-112380000D01*
X157530000Y-97080000D02*
X170130000Y-97080000D01*
X138430000Y-91160000D02*
X139980000Y-91160000D01*
X139980000Y-91160000D02*
X139980000Y-94260000D01*
X139980000Y-94260000D02*
X138430000Y-94260000D01*
X137160000Y-93980000D02*
X127000000Y-93980000D01*
X127000000Y-93980000D02*
X127000000Y-91440000D01*
X127000000Y-91440000D02*
X137160000Y-91440000D01*
X137160000Y-93980000D02*
X137160000Y-91440000D01*
X144576800Y-91440000D02*
X149656800Y-91440000D01*
X149656800Y-91440000D02*
X149656800Y-93980000D01*
X149656800Y-93980000D02*
X144576800Y-93980000D01*
X144576800Y-93980000D02*
X144576800Y-91440000D01*
X144576800Y-92710000D02*
X143306800Y-92710000D01*
X149656800Y-92710000D02*
X150926800Y-92710000D01*
X144576800Y-95250000D02*
X149656800Y-95250000D01*
X149656800Y-95250000D02*
X149656800Y-97790000D01*
X149656800Y-97790000D02*
X144576800Y-97790000D01*
X144576800Y-97790000D02*
X144576800Y-95250000D01*
X144576800Y-96520000D02*
X143306800Y-96520000D01*
X149656800Y-96520000D02*
X150926800Y-96520000D01*
X144576800Y-99060000D02*
X149656800Y-99060000D01*
X149656800Y-99060000D02*
X149656800Y-101600000D01*
X149656800Y-101600000D02*
X144576800Y-101600000D01*
X144576800Y-101600000D02*
X144576800Y-99060000D01*
X144576800Y-100330000D02*
X143306800Y-100330000D01*
X149656800Y-100330000D02*
X150926800Y-100330000D01*
X144576800Y-102870000D02*
X149656800Y-102870000D01*
X149656800Y-102870000D02*
X149656800Y-105410000D01*
X149656800Y-105410000D02*
X144576800Y-105410000D01*
X144576800Y-105410000D02*
X144576800Y-102870000D01*
X144576800Y-104140000D02*
X143306800Y-104140000D01*
X149656800Y-104140000D02*
X150926800Y-104140000D01*
X144576800Y-106680000D02*
X149656800Y-106680000D01*
X149656800Y-106680000D02*
X149656800Y-109220000D01*
X149656800Y-109220000D02*
X144576800Y-109220000D01*
X144576800Y-109220000D02*
X144576800Y-106680000D01*
X144576800Y-107950000D02*
X143306800Y-107950000D01*
X149656800Y-107950000D02*
X150926800Y-107950000D01*
X144576800Y-110490000D02*
X149656800Y-110490000D01*
X149656800Y-110490000D02*
X149656800Y-113030000D01*
X149656800Y-113030000D02*
X144576800Y-113030000D01*
X144576800Y-113030000D02*
X144576800Y-110490000D01*
X144576800Y-111760000D02*
X143306800Y-111760000D01*
X149656800Y-111760000D02*
X150926800Y-111760000D01*
X144576800Y-114300000D02*
X149656800Y-114300000D01*
X149656800Y-114300000D02*
X149656800Y-116840000D01*
X149656800Y-116840000D02*
X144576800Y-116840000D01*
X144576800Y-116840000D02*
X144576800Y-114300000D01*
X144576800Y-115570000D02*
X143306800Y-115570000D01*
X149656800Y-115570000D02*
X150926800Y-115570000D01*
X144576800Y-118110000D02*
X149656800Y-118110000D01*
X149656800Y-118110000D02*
X149656800Y-120650000D01*
X149656800Y-120650000D02*
X144576800Y-120650000D01*
X144576800Y-120650000D02*
X144576800Y-118110000D01*
X144576800Y-119380000D02*
X143306800Y-119380000D01*
X149656800Y-119380000D02*
X150926800Y-119380000D01*
X135755000Y-121675000D02*
X135755000Y-120405000D01*
X128405000Y-121675000D02*
X128405000Y-120405000D01*
X128405000Y-99305000D02*
X128405000Y-100575000D01*
X135755000Y-99305000D02*
X135755000Y-100575000D01*
X135755000Y-121675000D02*
X128405000Y-121675000D01*
X135755000Y-99305000D02*
X128405000Y-99305000D01*
X135755000Y-120405000D02*
X136690000Y-120405000D01*
X156597333Y-113017142D02*
X156597333Y-112636190D01*
X156825905Y-113093333D02*
X156025905Y-112826666D01*
X156825905Y-112559999D01*
X156406857Y-112026666D02*
X156406857Y-112293333D01*
X156825905Y-112293333D02*
X156025905Y-112293333D01*
X156025905Y-111912380D01*
X156406857Y-111340952D02*
X156406857Y-111607619D01*
X156825905Y-111607619D02*
X156025905Y-111607619D01*
X156025905Y-111226666D01*
X156825905Y-110502857D02*
X156825905Y-110960000D01*
X156825905Y-110731429D02*
X156025905Y-110731429D01*
X156140190Y-110807619D01*
X156216381Y-110883810D01*
X156254476Y-110960000D01*
X156825905Y-107416190D02*
X156825905Y-107797143D01*
X156025905Y-107797143D01*
X156025905Y-107263810D02*
X156025905Y-106806667D01*
X156825905Y-107035238D02*
X156025905Y-107035238D01*
X156787810Y-106578095D02*
X156825905Y-106463809D01*
X156825905Y-106273333D01*
X156787810Y-106197143D01*
X156749714Y-106159047D01*
X156673524Y-106120952D01*
X156597333Y-106120952D01*
X156521143Y-106159047D01*
X156483048Y-106197143D01*
X156444952Y-106273333D01*
X156406857Y-106425714D01*
X156368762Y-106501905D01*
X156330667Y-106540000D01*
X156254476Y-106578095D01*
X156178286Y-106578095D01*
X156102095Y-106540000D01*
X156064000Y-106501905D01*
X156025905Y-106425714D01*
X156025905Y-106235238D01*
X156064000Y-106120952D01*
X156521143Y-105778095D02*
X156521143Y-105168571D01*
X156025905Y-104444762D02*
X156025905Y-104597143D01*
X156064000Y-104673333D01*
X156102095Y-104711428D01*
X156216381Y-104787619D01*
X156368762Y-104825714D01*
X156673524Y-104825714D01*
X156749714Y-104787619D01*
X156787810Y-104749524D01*
X156825905Y-104673333D01*
X156825905Y-104520952D01*
X156787810Y-104444762D01*
X156749714Y-104406666D01*
X156673524Y-104368571D01*
X156483048Y-104368571D01*
X156406857Y-104406666D01*
X156368762Y-104444762D01*
X156330667Y-104520952D01*
X156330667Y-104673333D01*
X156368762Y-104749524D01*
X156406857Y-104787619D01*
X156483048Y-104825714D01*
X156825905Y-103987619D02*
X156825905Y-103835238D01*
X156787810Y-103759047D01*
X156749714Y-103720952D01*
X156635429Y-103644761D01*
X156483048Y-103606666D01*
X156178286Y-103606666D01*
X156102095Y-103644761D01*
X156064000Y-103682857D01*
X156025905Y-103759047D01*
X156025905Y-103911428D01*
X156064000Y-103987619D01*
X156102095Y-104025714D01*
X156178286Y-104063809D01*
X156368762Y-104063809D01*
X156444952Y-104025714D01*
X156483048Y-103987619D01*
X156521143Y-103911428D01*
X156521143Y-103759047D01*
X156483048Y-103682857D01*
X156444952Y-103644761D01*
X156368762Y-103606666D01*
X156368762Y-103149523D02*
X156330667Y-103225714D01*
X156292571Y-103263809D01*
X156216381Y-103301904D01*
X156178286Y-103301904D01*
X156102095Y-103263809D01*
X156064000Y-103225714D01*
X156025905Y-103149523D01*
X156025905Y-102997142D01*
X156064000Y-102920952D01*
X156102095Y-102882856D01*
X156178286Y-102844761D01*
X156216381Y-102844761D01*
X156292571Y-102882856D01*
X156330667Y-102920952D01*
X156368762Y-102997142D01*
X156368762Y-103149523D01*
X156406857Y-103225714D01*
X156444952Y-103263809D01*
X156521143Y-103301904D01*
X156673524Y-103301904D01*
X156749714Y-103263809D01*
X156787810Y-103225714D01*
X156825905Y-103149523D01*
X156825905Y-102997142D01*
X156787810Y-102920952D01*
X156749714Y-102882856D01*
X156673524Y-102844761D01*
X156521143Y-102844761D01*
X156444952Y-102882856D01*
X156406857Y-102920952D01*
X156368762Y-102997142D01*
X156025905Y-102349523D02*
X156025905Y-102273332D01*
X156064000Y-102197142D01*
X156102095Y-102159047D01*
X156178286Y-102120951D01*
X156330667Y-102082856D01*
X156521143Y-102082856D01*
X156673524Y-102120951D01*
X156749714Y-102159047D01*
X156787810Y-102197142D01*
X156825905Y-102273332D01*
X156825905Y-102349523D01*
X156787810Y-102425713D01*
X156749714Y-102463809D01*
X156673524Y-102501904D01*
X156521143Y-102539999D01*
X156330667Y-102539999D01*
X156178286Y-102501904D01*
X156102095Y-102463809D01*
X156064000Y-102425713D01*
X156025905Y-102349523D01*
X156825905Y-101739999D02*
X156025905Y-101739999D01*
X156406857Y-101739999D02*
X156406857Y-101282856D01*
X156825905Y-101282856D02*
X156025905Y-101282856D01*
X156825905Y-100444761D02*
X156444952Y-100711428D01*
X156825905Y-100901904D02*
X156025905Y-100901904D01*
X156025905Y-100597142D01*
X156064000Y-100520951D01*
X156102095Y-100482856D01*
X156178286Y-100444761D01*
X156292571Y-100444761D01*
X156368762Y-100482856D01*
X156406857Y-100520951D01*
X156444952Y-100597142D01*
X156444952Y-100901904D01*
X126309381Y-93321095D02*
X125309381Y-93321095D01*
X125309381Y-92940142D01*
X125357000Y-92844904D01*
X125404619Y-92797285D01*
X125499857Y-92749666D01*
X125642714Y-92749666D01*
X125737952Y-92797285D01*
X125785571Y-92844904D01*
X125833190Y-92940142D01*
X125833190Y-93321095D01*
X126309381Y-91797285D02*
X126309381Y-92368714D01*
X126309381Y-92083000D02*
X125309381Y-92083000D01*
X125452238Y-92178238D01*
X125547476Y-92273476D01*
X125595095Y-92368714D01*
X145492800Y-92981429D02*
X145292800Y-92695714D01*
X145149943Y-92981429D02*
X145149943Y-92381429D01*
X145378515Y-92381429D01*
X145435657Y-92410000D01*
X145464229Y-92438571D01*
X145492800Y-92495714D01*
X145492800Y-92581429D01*
X145464229Y-92638571D01*
X145435657Y-92667143D01*
X145378515Y-92695714D01*
X145149943Y-92695714D01*
X146064229Y-92981429D02*
X145721372Y-92981429D01*
X145892800Y-92981429D02*
X145892800Y-92381429D01*
X145835657Y-92467143D01*
X145778515Y-92524286D01*
X145721372Y-92552857D01*
X147047086Y-92438571D02*
X147075657Y-92410000D01*
X147132800Y-92381429D01*
X147275657Y-92381429D01*
X147332800Y-92410000D01*
X147361371Y-92438571D01*
X147389943Y-92495714D01*
X147389943Y-92552857D01*
X147361371Y-92638571D01*
X147018514Y-92981429D01*
X147389943Y-92981429D01*
X147618515Y-92438571D02*
X147647086Y-92410000D01*
X147704229Y-92381429D01*
X147847086Y-92381429D01*
X147904229Y-92410000D01*
X147932800Y-92438571D01*
X147961372Y-92495714D01*
X147961372Y-92552857D01*
X147932800Y-92638571D01*
X147589943Y-92981429D01*
X147961372Y-92981429D01*
X148332801Y-92381429D02*
X148389944Y-92381429D01*
X148447087Y-92410000D01*
X148475658Y-92438571D01*
X148504229Y-92495714D01*
X148532801Y-92610000D01*
X148532801Y-92752857D01*
X148504229Y-92867143D01*
X148475658Y-92924286D01*
X148447087Y-92952857D01*
X148389944Y-92981429D01*
X148332801Y-92981429D01*
X148275658Y-92952857D01*
X148247087Y-92924286D01*
X148218515Y-92867143D01*
X148189944Y-92752857D01*
X148189944Y-92610000D01*
X148218515Y-92495714D01*
X148247087Y-92438571D01*
X148275658Y-92410000D01*
X148332801Y-92381429D01*
X148761373Y-92981429D02*
X148904230Y-92981429D01*
X148904230Y-92867143D01*
X148847087Y-92838571D01*
X148789944Y-92781429D01*
X148761373Y-92695714D01*
X148761373Y-92552857D01*
X148789944Y-92467143D01*
X148847087Y-92410000D01*
X148932801Y-92381429D01*
X149047087Y-92381429D01*
X149132801Y-92410000D01*
X149189944Y-92467143D01*
X149218516Y-92552857D01*
X149218516Y-92695714D01*
X149189944Y-92781429D01*
X149132801Y-92838571D01*
X149075658Y-92867143D01*
X149075658Y-92981429D01*
X149218516Y-92981429D01*
X145492800Y-96791429D02*
X145292800Y-96505714D01*
X145149943Y-96791429D02*
X145149943Y-96191429D01*
X145378515Y-96191429D01*
X145435657Y-96220000D01*
X145464229Y-96248571D01*
X145492800Y-96305714D01*
X145492800Y-96391429D01*
X145464229Y-96448571D01*
X145435657Y-96477143D01*
X145378515Y-96505714D01*
X145149943Y-96505714D01*
X145721372Y-96248571D02*
X145749943Y-96220000D01*
X145807086Y-96191429D01*
X145949943Y-96191429D01*
X146007086Y-96220000D01*
X146035657Y-96248571D01*
X146064229Y-96305714D01*
X146064229Y-96362857D01*
X146035657Y-96448571D01*
X145692800Y-96791429D01*
X146064229Y-96791429D01*
X147047086Y-96248571D02*
X147075657Y-96220000D01*
X147132800Y-96191429D01*
X147275657Y-96191429D01*
X147332800Y-96220000D01*
X147361371Y-96248571D01*
X147389943Y-96305714D01*
X147389943Y-96362857D01*
X147361371Y-96448571D01*
X147018514Y-96791429D01*
X147389943Y-96791429D01*
X147618515Y-96248571D02*
X147647086Y-96220000D01*
X147704229Y-96191429D01*
X147847086Y-96191429D01*
X147904229Y-96220000D01*
X147932800Y-96248571D01*
X147961372Y-96305714D01*
X147961372Y-96362857D01*
X147932800Y-96448571D01*
X147589943Y-96791429D01*
X147961372Y-96791429D01*
X148332801Y-96191429D02*
X148389944Y-96191429D01*
X148447087Y-96220000D01*
X148475658Y-96248571D01*
X148504229Y-96305714D01*
X148532801Y-96420000D01*
X148532801Y-96562857D01*
X148504229Y-96677143D01*
X148475658Y-96734286D01*
X148447087Y-96762857D01*
X148389944Y-96791429D01*
X148332801Y-96791429D01*
X148275658Y-96762857D01*
X148247087Y-96734286D01*
X148218515Y-96677143D01*
X148189944Y-96562857D01*
X148189944Y-96420000D01*
X148218515Y-96305714D01*
X148247087Y-96248571D01*
X148275658Y-96220000D01*
X148332801Y-96191429D01*
X148761373Y-96791429D02*
X148904230Y-96791429D01*
X148904230Y-96677143D01*
X148847087Y-96648571D01*
X148789944Y-96591429D01*
X148761373Y-96505714D01*
X148761373Y-96362857D01*
X148789944Y-96277143D01*
X148847087Y-96220000D01*
X148932801Y-96191429D01*
X149047087Y-96191429D01*
X149132801Y-96220000D01*
X149189944Y-96277143D01*
X149218516Y-96362857D01*
X149218516Y-96505714D01*
X149189944Y-96591429D01*
X149132801Y-96648571D01*
X149075658Y-96677143D01*
X149075658Y-96791429D01*
X149218516Y-96791429D01*
X145492800Y-100601429D02*
X145292800Y-100315714D01*
X145149943Y-100601429D02*
X145149943Y-100001429D01*
X145378515Y-100001429D01*
X145435657Y-100030000D01*
X145464229Y-100058571D01*
X145492800Y-100115714D01*
X145492800Y-100201429D01*
X145464229Y-100258571D01*
X145435657Y-100287143D01*
X145378515Y-100315714D01*
X145149943Y-100315714D01*
X145692800Y-100001429D02*
X146064229Y-100001429D01*
X145864229Y-100230000D01*
X145949943Y-100230000D01*
X146007086Y-100258571D01*
X146035657Y-100287143D01*
X146064229Y-100344286D01*
X146064229Y-100487143D01*
X146035657Y-100544286D01*
X146007086Y-100572857D01*
X145949943Y-100601429D01*
X145778515Y-100601429D01*
X145721372Y-100572857D01*
X145692800Y-100544286D01*
X147047086Y-100058571D02*
X147075657Y-100030000D01*
X147132800Y-100001429D01*
X147275657Y-100001429D01*
X147332800Y-100030000D01*
X147361371Y-100058571D01*
X147389943Y-100115714D01*
X147389943Y-100172857D01*
X147361371Y-100258571D01*
X147018514Y-100601429D01*
X147389943Y-100601429D01*
X147618515Y-100058571D02*
X147647086Y-100030000D01*
X147704229Y-100001429D01*
X147847086Y-100001429D01*
X147904229Y-100030000D01*
X147932800Y-100058571D01*
X147961372Y-100115714D01*
X147961372Y-100172857D01*
X147932800Y-100258571D01*
X147589943Y-100601429D01*
X147961372Y-100601429D01*
X148332801Y-100001429D02*
X148389944Y-100001429D01*
X148447087Y-100030000D01*
X148475658Y-100058571D01*
X148504229Y-100115714D01*
X148532801Y-100230000D01*
X148532801Y-100372857D01*
X148504229Y-100487143D01*
X148475658Y-100544286D01*
X148447087Y-100572857D01*
X148389944Y-100601429D01*
X148332801Y-100601429D01*
X148275658Y-100572857D01*
X148247087Y-100544286D01*
X148218515Y-100487143D01*
X148189944Y-100372857D01*
X148189944Y-100230000D01*
X148218515Y-100115714D01*
X148247087Y-100058571D01*
X148275658Y-100030000D01*
X148332801Y-100001429D01*
X148761373Y-100601429D02*
X148904230Y-100601429D01*
X148904230Y-100487143D01*
X148847087Y-100458571D01*
X148789944Y-100401429D01*
X148761373Y-100315714D01*
X148761373Y-100172857D01*
X148789944Y-100087143D01*
X148847087Y-100030000D01*
X148932801Y-100001429D01*
X149047087Y-100001429D01*
X149132801Y-100030000D01*
X149189944Y-100087143D01*
X149218516Y-100172857D01*
X149218516Y-100315714D01*
X149189944Y-100401429D01*
X149132801Y-100458571D01*
X149075658Y-100487143D01*
X149075658Y-100601429D01*
X149218516Y-100601429D01*
X145492800Y-104411429D02*
X145292800Y-104125714D01*
X145149943Y-104411429D02*
X145149943Y-103811429D01*
X145378515Y-103811429D01*
X145435657Y-103840000D01*
X145464229Y-103868571D01*
X145492800Y-103925714D01*
X145492800Y-104011429D01*
X145464229Y-104068571D01*
X145435657Y-104097143D01*
X145378515Y-104125714D01*
X145149943Y-104125714D01*
X146007086Y-104011429D02*
X146007086Y-104411429D01*
X145864229Y-103782857D02*
X145721372Y-104211429D01*
X146092800Y-104211429D01*
X147047086Y-103868571D02*
X147075657Y-103840000D01*
X147132800Y-103811429D01*
X147275657Y-103811429D01*
X147332800Y-103840000D01*
X147361371Y-103868571D01*
X147389943Y-103925714D01*
X147389943Y-103982857D01*
X147361371Y-104068571D01*
X147018514Y-104411429D01*
X147389943Y-104411429D01*
X147618515Y-103868571D02*
X147647086Y-103840000D01*
X147704229Y-103811429D01*
X147847086Y-103811429D01*
X147904229Y-103840000D01*
X147932800Y-103868571D01*
X147961372Y-103925714D01*
X147961372Y-103982857D01*
X147932800Y-104068571D01*
X147589943Y-104411429D01*
X147961372Y-104411429D01*
X148332801Y-103811429D02*
X148389944Y-103811429D01*
X148447087Y-103840000D01*
X148475658Y-103868571D01*
X148504229Y-103925714D01*
X148532801Y-104040000D01*
X148532801Y-104182857D01*
X148504229Y-104297143D01*
X148475658Y-104354286D01*
X148447087Y-104382857D01*
X148389944Y-104411429D01*
X148332801Y-104411429D01*
X148275658Y-104382857D01*
X148247087Y-104354286D01*
X148218515Y-104297143D01*
X148189944Y-104182857D01*
X148189944Y-104040000D01*
X148218515Y-103925714D01*
X148247087Y-103868571D01*
X148275658Y-103840000D01*
X148332801Y-103811429D01*
X148761373Y-104411429D02*
X148904230Y-104411429D01*
X148904230Y-104297143D01*
X148847087Y-104268571D01*
X148789944Y-104211429D01*
X148761373Y-104125714D01*
X148761373Y-103982857D01*
X148789944Y-103897143D01*
X148847087Y-103840000D01*
X148932801Y-103811429D01*
X149047087Y-103811429D01*
X149132801Y-103840000D01*
X149189944Y-103897143D01*
X149218516Y-103982857D01*
X149218516Y-104125714D01*
X149189944Y-104211429D01*
X149132801Y-104268571D01*
X149075658Y-104297143D01*
X149075658Y-104411429D01*
X149218516Y-104411429D01*
X145492800Y-108221429D02*
X145292800Y-107935714D01*
X145149943Y-108221429D02*
X145149943Y-107621429D01*
X145378515Y-107621429D01*
X145435657Y-107650000D01*
X145464229Y-107678571D01*
X145492800Y-107735714D01*
X145492800Y-107821429D01*
X145464229Y-107878571D01*
X145435657Y-107907143D01*
X145378515Y-107935714D01*
X145149943Y-107935714D01*
X146035657Y-107621429D02*
X145749943Y-107621429D01*
X145721372Y-107907143D01*
X145749943Y-107878571D01*
X145807086Y-107850000D01*
X145949943Y-107850000D01*
X146007086Y-107878571D01*
X146035657Y-107907143D01*
X146064229Y-107964286D01*
X146064229Y-108107143D01*
X146035657Y-108164286D01*
X146007086Y-108192857D01*
X145949943Y-108221429D01*
X145807086Y-108221429D01*
X145749943Y-108192857D01*
X145721372Y-108164286D01*
X147047086Y-107678571D02*
X147075657Y-107650000D01*
X147132800Y-107621429D01*
X147275657Y-107621429D01*
X147332800Y-107650000D01*
X147361371Y-107678571D01*
X147389943Y-107735714D01*
X147389943Y-107792857D01*
X147361371Y-107878571D01*
X147018514Y-108221429D01*
X147389943Y-108221429D01*
X147618515Y-107678571D02*
X147647086Y-107650000D01*
X147704229Y-107621429D01*
X147847086Y-107621429D01*
X147904229Y-107650000D01*
X147932800Y-107678571D01*
X147961372Y-107735714D01*
X147961372Y-107792857D01*
X147932800Y-107878571D01*
X147589943Y-108221429D01*
X147961372Y-108221429D01*
X148332801Y-107621429D02*
X148389944Y-107621429D01*
X148447087Y-107650000D01*
X148475658Y-107678571D01*
X148504229Y-107735714D01*
X148532801Y-107850000D01*
X148532801Y-107992857D01*
X148504229Y-108107143D01*
X148475658Y-108164286D01*
X148447087Y-108192857D01*
X148389944Y-108221429D01*
X148332801Y-108221429D01*
X148275658Y-108192857D01*
X148247087Y-108164286D01*
X148218515Y-108107143D01*
X148189944Y-107992857D01*
X148189944Y-107850000D01*
X148218515Y-107735714D01*
X148247087Y-107678571D01*
X148275658Y-107650000D01*
X148332801Y-107621429D01*
X148761373Y-108221429D02*
X148904230Y-108221429D01*
X148904230Y-108107143D01*
X148847087Y-108078571D01*
X148789944Y-108021429D01*
X148761373Y-107935714D01*
X148761373Y-107792857D01*
X148789944Y-107707143D01*
X148847087Y-107650000D01*
X148932801Y-107621429D01*
X149047087Y-107621429D01*
X149132801Y-107650000D01*
X149189944Y-107707143D01*
X149218516Y-107792857D01*
X149218516Y-107935714D01*
X149189944Y-108021429D01*
X149132801Y-108078571D01*
X149075658Y-108107143D01*
X149075658Y-108221429D01*
X149218516Y-108221429D01*
X145492800Y-112031429D02*
X145292800Y-111745714D01*
X145149943Y-112031429D02*
X145149943Y-111431429D01*
X145378515Y-111431429D01*
X145435657Y-111460000D01*
X145464229Y-111488571D01*
X145492800Y-111545714D01*
X145492800Y-111631429D01*
X145464229Y-111688571D01*
X145435657Y-111717143D01*
X145378515Y-111745714D01*
X145149943Y-111745714D01*
X146007086Y-111431429D02*
X145892800Y-111431429D01*
X145835657Y-111460000D01*
X145807086Y-111488571D01*
X145749943Y-111574286D01*
X145721372Y-111688571D01*
X145721372Y-111917143D01*
X145749943Y-111974286D01*
X145778515Y-112002857D01*
X145835657Y-112031429D01*
X145949943Y-112031429D01*
X146007086Y-112002857D01*
X146035657Y-111974286D01*
X146064229Y-111917143D01*
X146064229Y-111774286D01*
X146035657Y-111717143D01*
X146007086Y-111688571D01*
X145949943Y-111660000D01*
X145835657Y-111660000D01*
X145778515Y-111688571D01*
X145749943Y-111717143D01*
X145721372Y-111774286D01*
X147047086Y-111488571D02*
X147075657Y-111460000D01*
X147132800Y-111431429D01*
X147275657Y-111431429D01*
X147332800Y-111460000D01*
X147361371Y-111488571D01*
X147389943Y-111545714D01*
X147389943Y-111602857D01*
X147361371Y-111688571D01*
X147018514Y-112031429D01*
X147389943Y-112031429D01*
X147618515Y-111488571D02*
X147647086Y-111460000D01*
X147704229Y-111431429D01*
X147847086Y-111431429D01*
X147904229Y-111460000D01*
X147932800Y-111488571D01*
X147961372Y-111545714D01*
X147961372Y-111602857D01*
X147932800Y-111688571D01*
X147589943Y-112031429D01*
X147961372Y-112031429D01*
X148332801Y-111431429D02*
X148389944Y-111431429D01*
X148447087Y-111460000D01*
X148475658Y-111488571D01*
X148504229Y-111545714D01*
X148532801Y-111660000D01*
X148532801Y-111802857D01*
X148504229Y-111917143D01*
X148475658Y-111974286D01*
X148447087Y-112002857D01*
X148389944Y-112031429D01*
X148332801Y-112031429D01*
X148275658Y-112002857D01*
X148247087Y-111974286D01*
X148218515Y-111917143D01*
X148189944Y-111802857D01*
X148189944Y-111660000D01*
X148218515Y-111545714D01*
X148247087Y-111488571D01*
X148275658Y-111460000D01*
X148332801Y-111431429D01*
X148761373Y-112031429D02*
X148904230Y-112031429D01*
X148904230Y-111917143D01*
X148847087Y-111888571D01*
X148789944Y-111831429D01*
X148761373Y-111745714D01*
X148761373Y-111602857D01*
X148789944Y-111517143D01*
X148847087Y-111460000D01*
X148932801Y-111431429D01*
X149047087Y-111431429D01*
X149132801Y-111460000D01*
X149189944Y-111517143D01*
X149218516Y-111602857D01*
X149218516Y-111745714D01*
X149189944Y-111831429D01*
X149132801Y-111888571D01*
X149075658Y-111917143D01*
X149075658Y-112031429D01*
X149218516Y-112031429D01*
X145492800Y-115841429D02*
X145292800Y-115555714D01*
X145149943Y-115841429D02*
X145149943Y-115241429D01*
X145378515Y-115241429D01*
X145435657Y-115270000D01*
X145464229Y-115298571D01*
X145492800Y-115355714D01*
X145492800Y-115441429D01*
X145464229Y-115498571D01*
X145435657Y-115527143D01*
X145378515Y-115555714D01*
X145149943Y-115555714D01*
X145692800Y-115241429D02*
X146092800Y-115241429D01*
X145835657Y-115841429D01*
X147047086Y-115298571D02*
X147075657Y-115270000D01*
X147132800Y-115241429D01*
X147275657Y-115241429D01*
X147332800Y-115270000D01*
X147361371Y-115298571D01*
X147389943Y-115355714D01*
X147389943Y-115412857D01*
X147361371Y-115498571D01*
X147018514Y-115841429D01*
X147389943Y-115841429D01*
X147618515Y-115298571D02*
X147647086Y-115270000D01*
X147704229Y-115241429D01*
X147847086Y-115241429D01*
X147904229Y-115270000D01*
X147932800Y-115298571D01*
X147961372Y-115355714D01*
X147961372Y-115412857D01*
X147932800Y-115498571D01*
X147589943Y-115841429D01*
X147961372Y-115841429D01*
X148332801Y-115241429D02*
X148389944Y-115241429D01*
X148447087Y-115270000D01*
X148475658Y-115298571D01*
X148504229Y-115355714D01*
X148532801Y-115470000D01*
X148532801Y-115612857D01*
X148504229Y-115727143D01*
X148475658Y-115784286D01*
X148447087Y-115812857D01*
X148389944Y-115841429D01*
X148332801Y-115841429D01*
X148275658Y-115812857D01*
X148247087Y-115784286D01*
X148218515Y-115727143D01*
X148189944Y-115612857D01*
X148189944Y-115470000D01*
X148218515Y-115355714D01*
X148247087Y-115298571D01*
X148275658Y-115270000D01*
X148332801Y-115241429D01*
X148761373Y-115841429D02*
X148904230Y-115841429D01*
X148904230Y-115727143D01*
X148847087Y-115698571D01*
X148789944Y-115641429D01*
X148761373Y-115555714D01*
X148761373Y-115412857D01*
X148789944Y-115327143D01*
X148847087Y-115270000D01*
X148932801Y-115241429D01*
X149047087Y-115241429D01*
X149132801Y-115270000D01*
X149189944Y-115327143D01*
X149218516Y-115412857D01*
X149218516Y-115555714D01*
X149189944Y-115641429D01*
X149132801Y-115698571D01*
X149075658Y-115727143D01*
X149075658Y-115841429D01*
X149218516Y-115841429D01*
X145492800Y-119651429D02*
X145292800Y-119365714D01*
X145149943Y-119651429D02*
X145149943Y-119051429D01*
X145378515Y-119051429D01*
X145435657Y-119080000D01*
X145464229Y-119108571D01*
X145492800Y-119165714D01*
X145492800Y-119251429D01*
X145464229Y-119308571D01*
X145435657Y-119337143D01*
X145378515Y-119365714D01*
X145149943Y-119365714D01*
X145835657Y-119308571D02*
X145778515Y-119280000D01*
X145749943Y-119251429D01*
X145721372Y-119194286D01*
X145721372Y-119165714D01*
X145749943Y-119108571D01*
X145778515Y-119080000D01*
X145835657Y-119051429D01*
X145949943Y-119051429D01*
X146007086Y-119080000D01*
X146035657Y-119108571D01*
X146064229Y-119165714D01*
X146064229Y-119194286D01*
X146035657Y-119251429D01*
X146007086Y-119280000D01*
X145949943Y-119308571D01*
X145835657Y-119308571D01*
X145778515Y-119337143D01*
X145749943Y-119365714D01*
X145721372Y-119422857D01*
X145721372Y-119537143D01*
X145749943Y-119594286D01*
X145778515Y-119622857D01*
X145835657Y-119651429D01*
X145949943Y-119651429D01*
X146007086Y-119622857D01*
X146035657Y-119594286D01*
X146064229Y-119537143D01*
X146064229Y-119422857D01*
X146035657Y-119365714D01*
X146007086Y-119337143D01*
X145949943Y-119308571D01*
X147047086Y-119108571D02*
X147075657Y-119080000D01*
X147132800Y-119051429D01*
X147275657Y-119051429D01*
X147332800Y-119080000D01*
X147361371Y-119108571D01*
X147389943Y-119165714D01*
X147389943Y-119222857D01*
X147361371Y-119308571D01*
X147018514Y-119651429D01*
X147389943Y-119651429D01*
X147618515Y-119108571D02*
X147647086Y-119080000D01*
X147704229Y-119051429D01*
X147847086Y-119051429D01*
X147904229Y-119080000D01*
X147932800Y-119108571D01*
X147961372Y-119165714D01*
X147961372Y-119222857D01*
X147932800Y-119308571D01*
X147589943Y-119651429D01*
X147961372Y-119651429D01*
X148332801Y-119051429D02*
X148389944Y-119051429D01*
X148447087Y-119080000D01*
X148475658Y-119108571D01*
X148504229Y-119165714D01*
X148532801Y-119280000D01*
X148532801Y-119422857D01*
X148504229Y-119537143D01*
X148475658Y-119594286D01*
X148447087Y-119622857D01*
X148389944Y-119651429D01*
X148332801Y-119651429D01*
X148275658Y-119622857D01*
X148247087Y-119594286D01*
X148218515Y-119537143D01*
X148189944Y-119422857D01*
X148189944Y-119280000D01*
X148218515Y-119165714D01*
X148247087Y-119108571D01*
X148275658Y-119080000D01*
X148332801Y-119051429D01*
X148761373Y-119651429D02*
X148904230Y-119651429D01*
X148904230Y-119537143D01*
X148847087Y-119508571D01*
X148789944Y-119451429D01*
X148761373Y-119365714D01*
X148761373Y-119222857D01*
X148789944Y-119137143D01*
X148847087Y-119080000D01*
X148932801Y-119051429D01*
X149047087Y-119051429D01*
X149132801Y-119080000D01*
X149189944Y-119137143D01*
X149218516Y-119222857D01*
X149218516Y-119365714D01*
X149189944Y-119451429D01*
X149132801Y-119508571D01*
X149075658Y-119537143D01*
X149075658Y-119651429D01*
X149218516Y-119651429D01*
X127406476Y-97859905D02*
X127406476Y-98507524D01*
X127444571Y-98583714D01*
X127482667Y-98621810D01*
X127558857Y-98659905D01*
X127711238Y-98659905D01*
X127787429Y-98621810D01*
X127825524Y-98583714D01*
X127863619Y-98507524D01*
X127863619Y-97859905D01*
X128663619Y-98659905D02*
X128206476Y-98659905D01*
X128435047Y-98659905D02*
X128435047Y-97859905D01*
X128358857Y-97974190D01*
X128282666Y-98050381D01*
X128206476Y-98088476D01*
X131502476Y-97859905D02*
X132035809Y-97859905D01*
X131692952Y-98659905D01*
X132683428Y-98126571D02*
X132683428Y-98659905D01*
X132492952Y-97821810D02*
X132302476Y-98393238D01*
X132797714Y-98393238D01*
X133102476Y-98659905D02*
X133102476Y-97859905D01*
X133102476Y-98240857D02*
X133559619Y-98240857D01*
X133559619Y-98659905D02*
X133559619Y-97859905D01*
X134397714Y-98583714D02*
X134359619Y-98621810D01*
X134245333Y-98659905D01*
X134169143Y-98659905D01*
X134054857Y-98621810D01*
X133978666Y-98545619D01*
X133940571Y-98469429D01*
X133902476Y-98317048D01*
X133902476Y-98202762D01*
X133940571Y-98050381D01*
X133978666Y-97974190D01*
X134054857Y-97898000D01*
X134169143Y-97859905D01*
X134245333Y-97859905D01*
X134359619Y-97898000D01*
X134397714Y-97936095D01*
X135121524Y-97859905D02*
X134740571Y-97859905D01*
X134702476Y-98240857D01*
X134740571Y-98202762D01*
X134816762Y-98164667D01*
X135007238Y-98164667D01*
X135083428Y-98202762D01*
X135121524Y-98240857D01*
X135159619Y-98317048D01*
X135159619Y-98507524D01*
X135121524Y-98583714D01*
X135083428Y-98621810D01*
X135007238Y-98659905D01*
X134816762Y-98659905D01*
X134740571Y-98621810D01*
X134702476Y-98583714D01*
X135540571Y-98659905D02*
X135692952Y-98659905D01*
X135769143Y-98621810D01*
X135807238Y-98583714D01*
X135883429Y-98469429D01*
X135921524Y-98317048D01*
X135921524Y-98012286D01*
X135883429Y-97936095D01*
X135845333Y-97898000D01*
X135769143Y-97859905D01*
X135616762Y-97859905D01*
X135540571Y-97898000D01*
X135502476Y-97936095D01*
X135464381Y-98012286D01*
X135464381Y-98202762D01*
X135502476Y-98278952D01*
X135540571Y-98317048D01*
X135616762Y-98355143D01*
X135769143Y-98355143D01*
X135845333Y-98317048D01*
X135883429Y-98278952D01*
X135921524Y-98202762D01*
X136645334Y-97859905D02*
X136264381Y-97859905D01*
X136226286Y-98240857D01*
X136264381Y-98202762D01*
X136340572Y-98164667D01*
X136531048Y-98164667D01*
X136607238Y-98202762D01*
X136645334Y-98240857D01*
X136683429Y-98317048D01*
X136683429Y-98507524D01*
X136645334Y-98583714D01*
X136607238Y-98621810D01*
X136531048Y-98659905D01*
X136340572Y-98659905D01*
X136264381Y-98621810D01*
X136226286Y-98583714D01*
M02*
