<?xml version="1.0" encoding="UTF-8" standalone="no"?>
<!-- Created with Fritzing (http://www.fritzing.org/) -->

<svg
   xmlns:dc="http://purl.org/dc/elements/1.1/"
   xmlns:cc="http://creativecommons.org/ns#"
   xmlns:rdf="http://www.w3.org/1999/02/22-rdf-syntax-ns#"
   xmlns:svg="http://www.w3.org/2000/svg"
   xmlns="http://www.w3.org/2000/svg"
   xmlns:sodipodi="http://sodipodi.sourceforge.net/DTD/sodipodi-0.dtd"
   xmlns:inkscape="http://www.inkscape.org/namespaces/inkscape"
   version="1.2"
   x="0in"
   y="0in"
   width="1.58689in"
   height="0.508944in"
   viewBox="0 0 114.256 36.644"
   id="svg2"
   inkscape:version="0.48.5 r10040"
   sodipodi:docname="SMA420564_bb.svg">
  <metadata
     id="metadata103">
    <rdf:RDF>
      <cc:Work
         rdf:about="">
        <dc:format>image/svg+xml</dc:format>
        <dc:type
           rdf:resource="http://purl.org/dc/dcmitype/StillImage" />
      </cc:Work>
    </rdf:RDF>
  </metadata>
  <defs
     id="defs101" />
  <sodipodi:namedview
     pagecolor="#ffffff"
     bordercolor="#666666"
     borderopacity="1"
     objecttolerance="10"
     gridtolerance="10"
     guidetolerance="10"
     inkscape:pageopacity="0"
     inkscape:pageshadow="2"
     inkscape:window-width="857"
     inkscape:window-height="806"
     id="namedview99"
     showgrid="false"
     inkscape:zoom="2.2965955"
     inkscape:cx="71.410049"
     inkscape:cy="22.902479"
     inkscape:window-x="0"
     inkscape:window-y="0"
     inkscape:window-maximized="0"
     inkscape:current-layer="svg2" />
  <g
     partID="854764810"
     id="g4">
    <g
       gorn="0.0"
       id="breadboard">
      <circle
         cx="39.127998"
         cy="32.722"
         gorn="0.0.1"
         r="1.827"
         id="connector1pin"
         sodipodi:cx="39.127998"
         sodipodi:cy="32.722"
         sodipodi:rx="1.827"
         sodipodi:ry="1.827"
         style="fill:none;stroke:#9a916c;stroke-width:0.48899999" />
      <circle
         cx="46.327999"
         cy="32.722"
         gorn="0.0.2"
         r="1.827"
         id="connector2pin"
         sodipodi:cx="46.327999"
         sodipodi:cy="32.722"
         sodipodi:rx="1.827"
         sodipodi:ry="1.827"
         style="fill:none;stroke:#9a916c;stroke-width:0.48899999" />
      <circle
         cx="53.528"
         cy="32.722"
         gorn="0.0.3"
         r="1.827"
         id="connector3pin"
         sodipodi:cx="53.528"
         sodipodi:cy="32.722"
         sodipodi:rx="1.827"
         sodipodi:ry="1.827"
         style="fill:none;stroke:#9a916c;stroke-width:0.48899999" />
      <circle
         cx="60.728001"
         cy="32.722"
         gorn="0.0.4"
         r="1.827"
         id="connector4pin"
         sodipodi:cx="60.728001"
         sodipodi:cy="32.722"
         sodipodi:rx="1.827"
         sodipodi:ry="1.827"
         style="fill:none;stroke:#9a916c;stroke-width:0.48899999" />
      <circle
         cx="67.929001"
         cy="32.722"
         gorn="0.0.5"
         r="1.827"
         id="connector5pin"
         sodipodi:cx="67.929001"
         sodipodi:cy="32.722"
         sodipodi:rx="1.827"
         sodipodi:ry="1.827"
         style="fill:none;stroke:#9a916c;stroke-width:0.48899999" />
      <circle
         cx="75.128098"
         cy="32.722"
         gorn="0.0.7"
         r="1.827"
         id="connector6pin"
         sodipodi:cx="75.128098"
         sodipodi:cy="32.722"
         sodipodi:rx="1.827"
         sodipodi:ry="1.827"
         style="fill:none;stroke:#9a916c;stroke-width:0.48899999" />
      <circle
         cx="39.127998"
         cy="3.9219999"
         gorn="0.0.8"
         r="1.827"
         id="connector7pin"
         sodipodi:cx="39.127998"
         sodipodi:cy="3.9219999"
         sodipodi:rx="1.827"
         sodipodi:ry="1.827"
         style="fill:none;stroke:#9a916c;stroke-width:0.48899999" />
      <circle
         cx="46.327999"
         cy="3.9219999"
         gorn="0.0.9"
         r="1.827"
         id="connector8pin"
         sodipodi:cx="46.327999"
         sodipodi:cy="3.9219999"
         sodipodi:rx="1.827"
         sodipodi:ry="1.827"
         style="fill:none;stroke:#9a916c;stroke-width:0.48899999" />
      <circle
         cx="53.528"
         cy="3.9219999"
         gorn="0.0.10"
         r="1.827"
         id="connector9pin"
         sodipodi:cx="53.528"
         sodipodi:cy="3.9219999"
         sodipodi:rx="1.827"
         sodipodi:ry="1.827"
         style="fill:none;stroke:#9a916c;stroke-width:0.48899999" />
      <circle
         cx="60.728001"
         cy="3.9219999"
         gorn="0.0.11"
         r="1.827"
         id="connector10pin"
         sodipodi:cx="60.728001"
         sodipodi:cy="3.9219999"
         sodipodi:rx="1.827"
         sodipodi:ry="1.827"
         style="fill:none;stroke:#9a916c;stroke-width:0.48899999" />
      <circle
         cx="67.928001"
         cy="3.9219999"
         gorn="0.0.13"
         r="1.827"
         id="connector11pin"
         sodipodi:cx="67.928001"
         sodipodi:cy="3.9219999"
         sodipodi:rx="1.827"
         sodipodi:ry="1.827"
         style="fill:none;stroke:#9a916c;stroke-width:0.48899999" />
      <circle
         cx="75.127998"
         cy="3.9219999"
         gorn="0.0.14"
         r="1.827"
         id="connector12pin"
         sodipodi:cx="75.127998"
         sodipodi:cy="3.9219999"
         sodipodi:rx="1.827"
         sodipodi:ry="1.827"
         style="fill:none;stroke:#9a916c;stroke-width:0.48899999" />
      <polygon
         points="0,0,113.365,0,114.48,0.999999,114.48,36.863,1,36.863,0,35.556"
         fill="#323232"
         id="polygon23" />
      <polygon
         points="9.71801,3.491,22.16,3.491,22.989,4.318,21.329,6.80799,10.545,6.80799,8.89001,4.318"
         fill="#646464"
         id="polygon25" />
      <polygon
         points="23.819,5.147,24.648,6.80799,22.989,15.934,21.329,17.591,19.672,15.934,21.329,7.63599"
         fill="#EF1818"
         id="polygon27" />
      <polygon
         points="21.329,18.42,22.16,20.078,20.501,29.205,18.842,30.863,17.184,29.205,18.842,20.912"
         fill="#EF1818"
         id="polygon29" />
      <polygon
         points="17.184,32.521,4.74,32.521,3.91,31.689,5.569,29.205,16.354,29.205,18.013,31.691"
         fill="#646464"
         id="polygon31" />
      <polygon
         points="3.08,30.863,2.252,29.205,3.91,20.078,5.569,18.42,7.22801,20.078,5.569,28.373"
         fill="#EF1818"
         id="polygon33" />
      <polygon
         points="5.569,17.591,4.74,15.934,6.4,6.80799,8.05801,5.147,9.71801,6.80799,8.05801,15.104"
         fill="#EF1818"
         id="polygon35" />
      <polyline
         points="6.4,17.591,8.05801,15.934,18.842,15.934,20.501,17.591,18.842,19.25,8.05801,19.25"
         fill="#EF1818"
         id="polyline37" />
      <circle
         cx="22.634"
         cy="30.859"
         r="1.748"
         fill="#646464"
         id="circle39" />
      <polygon
         points="38.506,3.491,50.948,3.491,51.777,4.318,50.117,6.80799,39.333,6.80799,37.677,4.318"
         fill="#646464"
         id="polygon41" />
      <polygon
         points="52.607,5.147,53.437,6.80799,51.777,15.934,50.117,17.591,48.46,15.934,50.117,7.63599"
         fill="#EF1818"
         id="polygon43" />
      <polygon
         points="50.117,18.42,50.948,20.078,49.289,29.205,47.63,30.863,45.972,29.205,47.63,20.912"
         fill="#EF1818"
         id="polygon45" />
      <polygon
         points="45.972,32.521,33.528,32.521,32.698,31.689,34.357,29.205,45.143,29.205,46.8,31.691"
         fill="#EF1818"
         id="polygon47" />
      <polygon
         points="31.868,30.863,31.04,29.205,32.698,20.078,34.357,18.42,36.016,20.078,34.357,28.373"
         fill="#EF1818"
         id="polygon49" />
      <polygon
         points="34.357,17.591,33.528,15.934,35.188,6.80799,36.846,5.147,38.506,6.80799,36.846,15.104"
         fill="#EF1818"
         id="polygon51" />
      <polyline
         points="35.188,17.591,36.846,15.934,47.63,15.934,49.289,17.591,47.63,19.25,36.846,19.25"
         fill="#646464"
         id="polyline53" />
      <circle
         cx="51.422"
         cy="30.859"
         r="1.748"
         fill="#646464"
         id="circle55" />
      <polygon
         points="67.306,3.491,79.7481,3.491,80.5771,4.318,78.9171,6.80799,68.133,6.80799,66.477,4.318"
         fill="#646464"
         id="polygon63" />
      <polygon
         points="81.4061,5.147,82.2361,6.80799,80.5771,15.934,78.9171,17.591,77.2601,15.934,78.9171,7.63599"
         fill="#EF1818"
         id="polygon65" />
      <polygon
         points="78.9171,18.42,79.7481,20.078,78.0891,29.205,76.4301,30.863,74.7711,29.205,76.4301,20.912"
         fill="#EF1818"
         id="polygon67" />
      <polygon
         points="74.7711,32.521,62.328,32.521,61.498,31.689,63.157,29.205,73.9411,29.205,75.6001,31.691"
         fill="#646464"
         id="polygon69" />
      <polygon
         points="60.668,30.863,59.84,29.205,61.498,20.078,63.157,18.42,64.815,20.078,63.157,28.373"
         fill="#EF1818"
         id="polygon71" />
      <polygon
         points="63.157,17.591,62.328,15.934,63.988,6.80799,65.646,5.147,67.306,6.80799,65.646,15.104"
         fill="#EF1818"
         id="polygon73" />
      <polyline
         points="63.988,17.591,65.646,15.934,76.4301,15.934,78.0891,17.591,76.4301,19.25,65.646,19.25"
         fill="#EF1818"
         id="polyline75" />
      <circle
         cx="80.2231"
         cy="30.859"
         r="1.748"
         fill="#646464"
         id="circle77" />
      <polygon
         points="96.1811,3.491,108.623,3.491,109.452,4.318,107.792,6.80799,97.0081,6.80799,95.3521,4.318"
         fill="#646464"
         id="polygon79" />
      <polygon
         points="110.281,5.147,111.111,6.80799,109.452,15.934,107.792,17.591,106.135,15.934,107.792,7.63599"
         fill="#EF1818"
         id="polygon81" />
      <polygon
         points="107.792,18.42,108.623,20.078,106.964,29.205,105.305,30.863,103.646,29.205,105.305,20.912"
         fill="#EF1818"
         id="polygon83" />
      <polygon
         points="103.646,32.521,91.2031,32.521,90.3731,31.689,92.0321,29.205,102.816,29.205,104.475,31.691"
         fill="#EF1818"
         id="polygon85" />
      <polygon
         points="89.5431,30.863,88.7151,29.205,90.3731,20.078,92.0321,18.42,93.6901,20.078,92.0321,28.373"
         fill="#EF1818"
         id="polygon87" />
      <polygon
         points="92.0321,17.591,91.2031,15.934,92.8631,6.80799,94.5211,5.147,96.1811,6.80799,94.5211,15.104"
         fill="#EF1818"
         id="polygon89" />
      <polyline
         points="92.8631,17.591,94.5211,15.934,105.305,15.934,106.964,17.591,105.305,19.25,94.5211,19.25"
         fill="#646464"
         id="polyline91" />
      <circle
         cx="109.098"
         cy="30.859"
         r="1.748"
         fill="#646464"
         id="circle93" />
      <polygon
         points="113.48,35.556,0,35.556,1,36.863,114.48,36.863"
         fill="#C7C7C7"
         id="polygon95" />
      <polygon
         points="113.365,35.556,114.48,36.863,114.48,0.999999,113.365,0"
         fill="#AAAAAA"
         id="polygon97" />
    </g>
  </g>
</svg>
