<?xml version="1.0" encoding="UTF-8" standalone="no"?>
<!-- Created with Fritzing (http://www.fritzing.org/) -->

<svg
   xmlns:dc="http://purl.org/dc/elements/1.1/"
   xmlns:cc="http://creativecommons.org/ns#"
   xmlns:rdf="http://www.w3.org/1999/02/22-rdf-syntax-ns#"
   xmlns:svg="http://www.w3.org/2000/svg"
   xmlns="http://www.w3.org/2000/svg"
   xmlns:sodipodi="http://sodipodi.sourceforge.net/DTD/sodipodi-0.dtd"
   xmlns:inkscape="http://www.inkscape.org/namespaces/inkscape"
   version="1.2"
   x="0in"
   y="0in"
   width="0.6in"
   height="0.2in"
   viewBox="0 0 43.2 14.4"
   id="svg2"
   inkscape:version="0.48.5 r10040"
   sodipodi:docname="28BYJ48_pcb.svg">
  <metadata
     id="metadata37">
    <rdf:RDF>
      <cc:Work
         rdf:about="">
        <dc:format>image/svg+xml</dc:format>
        <dc:type
           rdf:resource="http://purl.org/dc/dcmitype/StillImage" />
      </cc:Work>
    </rdf:RDF>
  </metadata>
  <defs
     id="defs35" />
  <sodipodi:namedview
     pagecolor="#ffffff"
     bordercolor="#666666"
     borderopacity="1"
     objecttolerance="10"
     gridtolerance="10"
     guidetolerance="10"
     inkscape:pageopacity="0"
     inkscape:pageshadow="2"
     inkscape:window-width="1247"
     inkscape:window-height="716"
     id="namedview33"
     showgrid="false"
     inkscape:zoom="6.0740736"
     inkscape:cx="27.000002"
     inkscape:cy="9"
     inkscape:window-x="0"
     inkscape:window-y="0"
     inkscape:window-maximized="0"
     inkscape:current-layer="svg2" />
  <g
     partID="854147070"
     id="g4">
    <g
       gorn="0.4.0"
       id="copper0">
      <path
         gorn="0.4.1.0"
         d="m9,7.2a1.8,1.8,0,0,1,-3.6,0,1.8,1.8,0,1,1,3.6,0z"
         style="stroke-linecap:round;stroke-linejoin:round;stroke-miterlimit:4;stroke-dasharray:none;stroke-dashoffset:0;display:inline"
         id="path15"
         stroke="#f6ca34"
         stroke-width="1.44"
         fill="none"
         stroke-opacity="1" />
      <path
         gorn="0.4.1.1"
         d="m16.2,7.2a1.8,1.8,0,0,1,-3.6,0,1.8,1.8,0,1,1,3.6,0z"
         style="stroke-linecap:round;stroke-linejoin:round;stroke-miterlimit:4;stroke-dasharray:none;stroke-dashoffset:0;display:inline"
         id="path17"
         stroke="#f6ca34"
         stroke-width="1.44"
         fill="none"
         stroke-opacity="1" />
      <path
         gorn="0.4.1.2"
         d="m23.4,7.2a1.8,1.8,0,0,1,-3.6,0,1.8,1.8,0,1,1,3.6,0z"
         style="stroke-linecap:round;stroke-linejoin:round;stroke-miterlimit:4;stroke-dasharray:none;stroke-dashoffset:0;display:inline"
         id="path19"
         stroke="#f6ca34"
         stroke-width="1.44"
         fill="none"
         stroke-opacity="1" />
      <path
         gorn="0.4.1.3"
         d="m30.6,7.2a1.8,1.8,0,0,1,-3.6,0,1.8,1.8,0,1,1,3.6,0z"
         style="stroke-linecap:round;stroke-linejoin:round;stroke-miterlimit:4;stroke-dasharray:none;stroke-dashoffset:0;display:inline"
         id="path21"
         stroke="#f6ca34"
         stroke-width="1.44"
         fill="none"
         stroke-opacity="1" />
      <path
         gorn="0.4.1.4"
         d="m37.8,7.2a1.8,1.8,0,0,1,-3.6,0,1.8,1.8,0,1,1,3.6,0z"
         style="stroke-linecap:round;stroke-linejoin:round;stroke-miterlimit:4;stroke-dasharray:none;stroke-dashoffset:0;display:inline"
         id="path23"
         stroke="#f6ca34"
         stroke-width="1.44"
         fill="none"
         stroke-opacity="1" />
      <path
         gorn="0.4.0.0"
         d="m9,7.2a1.8,1.8,0,0,1,-3.6,0,1.8,1.8,0,1,1,3.6,0z"
         style="stroke-linecap:round;stroke-linejoin:round;stroke-miterlimit:4;stroke-dasharray:none;stroke-dashoffset:0;display:inline"
         id="connector1pad"
         stroke="#f6ca34"
         stroke-width="1.44"
         fill="none"
         stroke-opacity="1" />
      <path
         gorn="0.4.0.1"
         d="m16.2,7.2a1.8,1.8,0,0,1,-3.6,0,1.8,1.8,0,1,1,3.6,0z"
         style="stroke-linecap:round;stroke-linejoin:round;stroke-miterlimit:4;stroke-dasharray:none;stroke-dashoffset:0;display:inline"
         id="connector2pad"
         stroke="#f6ca34"
         stroke-width="1.44"
         fill="none"
         stroke-opacity="1" />
      <path
         gorn="0.4.0.2"
         d="m23.4,7.2a1.8,1.8,0,0,1,-3.6,0,1.8,1.8,0,1,1,3.6,0z"
         style="stroke-linecap:round;stroke-linejoin:round;stroke-miterlimit:4;stroke-dasharray:none;stroke-dashoffset:0;display:inline"
         id="connector3pad"
         stroke="#f6ca34"
         stroke-width="1.44"
         fill="none"
         stroke-opacity="1" />
      <path
         gorn="0.4.0.3"
         d="m30.6,7.2a1.8,1.8,0,0,1,-3.6,0,1.8,1.8,0,1,1,3.6,0z"
         style="stroke-linecap:round;stroke-linejoin:round;stroke-miterlimit:4;stroke-dasharray:none;stroke-dashoffset:0;display:inline"
         id="connector4pad"
         stroke="#f6ca34"
         stroke-width="1.44"
         fill="none"
         stroke-opacity="1" />
      <path
         gorn="0.4.0.4"
         d="m37.8,7.2a1.8,1.8,0,0,1,-3.6,0,1.8,1.8,0,1,1,3.6,0z"
         style="stroke-linecap:round;stroke-linejoin:round;stroke-miterlimit:4;stroke-dasharray:none;stroke-dashoffset:0;display:inline"
         id="connector5pad"
         stroke="#f6ca34"
         stroke-width="1.44"
         fill="none"
         stroke-opacity="1" />
    </g>
  </g>
  <g
     partID="854147071"
     id="g25">
    <g
       transform="matrix(1.52777, 0, 0, 0.473684, -0.379992, -6.4421)"
       id="g27">
      <g
         id="silkscreen">
        <g
           gorn="0.4.2.0.0.0"
           id="g30">
          <rect
             gorn="0.4.2.0.0.0.0"
             style="stroke-miterlimit:4;stroke-dasharray:none"
             id="rect214639"
             stroke="#ffffff"
             width="27.36"
             x="0.72"
             y="15.12"
             stroke-width="0.3"
             fill="none"
             height="27.36"
             stroke-opacity="1" />
        </g>
      </g>
    </g>
  </g>
</svg>
