G04 #@! TF.FileFunction,Copper,L1,Top,Signal*
%FSLAX46Y46*%
G04 Gerber Fmt 4.6, Leading zero omitted, Abs format (unit mm)*
G04 Created by KiCad (PCBNEW 4.0.1-stable) date 2016 January 17, Sunday 11:36:18*
%MOMM*%
G01*
G04 APERTURE LIST*
%ADD10C,0.100000*%
%ADD11R,2.032000X1.727200*%
%ADD12O,2.032000X1.727200*%
%ADD13C,1.524000*%
%ADD14R,1.524000X1.524000*%
%ADD15C,1.300000*%
%ADD16R,1.300000X1.300000*%
%ADD17C,0.250000*%
%ADD18C,0.508000*%
%ADD19C,0.254000*%
G04 APERTURE END LIST*
D10*
D11*
X151765000Y-107950000D03*
D12*
X151765000Y-110490000D03*
X151765000Y-113030000D03*
X151765000Y-115570000D03*
X151765000Y-118110000D03*
X151765000Y-120650000D03*
X151765000Y-123190000D03*
X151765000Y-125730000D03*
D13*
X146050000Y-118110000D03*
X146050000Y-115570000D03*
X146050000Y-113030000D03*
X143510000Y-113030000D03*
X143510000Y-115570000D03*
X143510000Y-118110000D03*
X143510000Y-120650000D03*
D14*
X146050000Y-120650000D03*
D15*
X146010000Y-126365000D03*
D16*
X143510000Y-126365000D03*
D17*
X146050000Y-118110000D02*
X145415000Y-118110000D01*
X145415000Y-118110000D02*
X144145000Y-116840000D01*
X144145000Y-116840000D02*
X141605000Y-116840000D01*
X141605000Y-116840000D02*
X141605000Y-110490000D01*
X141605000Y-110490000D02*
X150495000Y-110490000D01*
X150495000Y-110490000D02*
X151255000Y-110365000D01*
X151255000Y-110365000D02*
X152428333Y-110365000D01*
X146050000Y-115570000D02*
X145415000Y-115570000D01*
X145415000Y-115570000D02*
X144780000Y-114935000D01*
X144780000Y-114935000D02*
X144780000Y-111760000D01*
X144780000Y-111760000D02*
X148590000Y-111760000D01*
X148590000Y-111760000D02*
X149735000Y-112905000D01*
X149735000Y-112905000D02*
X152428333Y-112905000D01*
X146050000Y-113030000D02*
X148590000Y-113030000D01*
X151005000Y-115445000D02*
X152428333Y-115445000D01*
X148590000Y-113030000D02*
X151005000Y-115445000D01*
X143510000Y-113030000D02*
X143510000Y-111125000D01*
X153670000Y-118110000D02*
X151765000Y-118110000D01*
X153670000Y-111760000D02*
X153670000Y-118110000D01*
X149860000Y-111760000D02*
X153670000Y-111760000D01*
X149225000Y-111125000D02*
X149860000Y-111760000D01*
X143510000Y-111125000D02*
X149225000Y-111125000D01*
X143510000Y-115570000D02*
X144145000Y-115570000D01*
X144145000Y-115570000D02*
X145415000Y-116840000D01*
X145415000Y-116840000D02*
X147320000Y-116840000D01*
X147320000Y-116840000D02*
X151130000Y-120650000D01*
X151130000Y-120650000D02*
X151765000Y-120650000D01*
X143510000Y-118110000D02*
X144780000Y-119380000D01*
X147320000Y-119380000D02*
X151130000Y-123190000D01*
X144780000Y-119380000D02*
X147320000Y-119380000D01*
X151130000Y-123190000D02*
X151765000Y-123190000D01*
D18*
X143510000Y-126365000D02*
X144614001Y-127469001D01*
X144614001Y-127469001D02*
X148501999Y-127469001D01*
X148501999Y-127469001D02*
X150241000Y-125730000D01*
X150241000Y-125730000D02*
X151765000Y-125730000D01*
X143510000Y-120650000D02*
X143510000Y-126365000D01*
D17*
X152303333Y-125730000D02*
X152428333Y-125605000D01*
D18*
X146050000Y-120650000D02*
X146050000Y-126325000D01*
X146050000Y-126325000D02*
X146010000Y-126365000D01*
X146050000Y-120650000D02*
X149860000Y-124460000D01*
X154305000Y-124460000D02*
X154305000Y-107950000D01*
D17*
X149860000Y-124460000D02*
X154305000Y-124460000D01*
D18*
X154305000Y-107950000D02*
X152400000Y-107950000D01*
D17*
X151130000Y-107950000D02*
X152303333Y-107950000D01*
X152303333Y-107950000D02*
X152428333Y-107825000D01*
X146050000Y-120650000D02*
X145415000Y-120650000D01*
X151130000Y-107950000D02*
X151158333Y-107921667D01*
X151158333Y-107921667D02*
X151158333Y-107825000D01*
D19*
G36*
X154230000Y-111256421D02*
X154207401Y-111222599D01*
X153960839Y-111057852D01*
X153670000Y-111000000D01*
X153346900Y-111000000D01*
X153448345Y-110490000D01*
X153334271Y-109916511D01*
X153009415Y-109430330D01*
X152987220Y-109415500D01*
X153140698Y-109351927D01*
X153319327Y-109173299D01*
X153416000Y-108939910D01*
X153416000Y-108235750D01*
X153257250Y-108077000D01*
X151892000Y-108077000D01*
X151892000Y-108097000D01*
X151638000Y-108097000D01*
X151638000Y-108077000D01*
X150272750Y-108077000D01*
X150114000Y-108235750D01*
X150114000Y-108939910D01*
X150210673Y-109173299D01*
X150389302Y-109351927D01*
X150542780Y-109415500D01*
X150520585Y-109430330D01*
X150320352Y-109730000D01*
X141605000Y-109730000D01*
X141314161Y-109787852D01*
X141067599Y-109952599D01*
X140902852Y-110199161D01*
X140845000Y-110490000D01*
X140845000Y-116840000D01*
X140902852Y-117130839D01*
X141067599Y-117377401D01*
X141314161Y-117542148D01*
X141605000Y-117600000D01*
X142209121Y-117600000D01*
X142113243Y-117830900D01*
X142112758Y-118386661D01*
X142324990Y-118900303D01*
X142717630Y-119293629D01*
X142925512Y-119379949D01*
X142719697Y-119464990D01*
X142326371Y-119857630D01*
X142113243Y-120370900D01*
X142112758Y-120926661D01*
X142324990Y-121440303D01*
X142621000Y-121736830D01*
X142621000Y-125114208D01*
X142408559Y-125250910D01*
X142263569Y-125463110D01*
X142212560Y-125715000D01*
X142212560Y-127015000D01*
X142256838Y-127250317D01*
X142395910Y-127466441D01*
X142608110Y-127611431D01*
X142860000Y-127662440D01*
X143550204Y-127662440D01*
X143985383Y-128097619D01*
X144273795Y-128290330D01*
X144614001Y-128358001D01*
X148501999Y-128358001D01*
X148842205Y-128290330D01*
X149130617Y-128097619D01*
X150487733Y-126740503D01*
X150520585Y-126789670D01*
X151006766Y-127114526D01*
X151580255Y-127228600D01*
X151949745Y-127228600D01*
X152523234Y-127114526D01*
X153009415Y-126789670D01*
X153334271Y-126303489D01*
X153448345Y-125730000D01*
X153334271Y-125156511D01*
X153009415Y-124670330D01*
X152694634Y-124460000D01*
X153009415Y-124249670D01*
X153334271Y-123763489D01*
X153448345Y-123190000D01*
X153334271Y-122616511D01*
X153009415Y-122130330D01*
X152694634Y-121920000D01*
X153009415Y-121709670D01*
X153334271Y-121223489D01*
X153448345Y-120650000D01*
X153334271Y-120076511D01*
X153009415Y-119590330D01*
X152694634Y-119380000D01*
X153009415Y-119169670D01*
X153209648Y-118870000D01*
X153670000Y-118870000D01*
X153960839Y-118812148D01*
X154207401Y-118647401D01*
X154230000Y-118613579D01*
X154230000Y-129465000D01*
X130885000Y-129465000D01*
X130885000Y-106960090D01*
X150114000Y-106960090D01*
X150114000Y-107664250D01*
X150272750Y-107823000D01*
X151638000Y-107823000D01*
X151638000Y-106610150D01*
X151892000Y-106610150D01*
X151892000Y-107823000D01*
X153257250Y-107823000D01*
X153416000Y-107664250D01*
X153416000Y-106960090D01*
X153319327Y-106726701D01*
X153140698Y-106548073D01*
X152907309Y-106451400D01*
X152050750Y-106451400D01*
X151892000Y-106610150D01*
X151638000Y-106610150D01*
X151479250Y-106451400D01*
X150622691Y-106451400D01*
X150389302Y-106548073D01*
X150210673Y-106726701D01*
X150114000Y-106960090D01*
X130885000Y-106960090D01*
X130885000Y-106120000D01*
X154230000Y-106120000D01*
X154230000Y-111256421D01*
X154230000Y-111256421D01*
G37*
X154230000Y-111256421D02*
X154207401Y-111222599D01*
X153960839Y-111057852D01*
X153670000Y-111000000D01*
X153346900Y-111000000D01*
X153448345Y-110490000D01*
X153334271Y-109916511D01*
X153009415Y-109430330D01*
X152987220Y-109415500D01*
X153140698Y-109351927D01*
X153319327Y-109173299D01*
X153416000Y-108939910D01*
X153416000Y-108235750D01*
X153257250Y-108077000D01*
X151892000Y-108077000D01*
X151892000Y-108097000D01*
X151638000Y-108097000D01*
X151638000Y-108077000D01*
X150272750Y-108077000D01*
X150114000Y-108235750D01*
X150114000Y-108939910D01*
X150210673Y-109173299D01*
X150389302Y-109351927D01*
X150542780Y-109415500D01*
X150520585Y-109430330D01*
X150320352Y-109730000D01*
X141605000Y-109730000D01*
X141314161Y-109787852D01*
X141067599Y-109952599D01*
X140902852Y-110199161D01*
X140845000Y-110490000D01*
X140845000Y-116840000D01*
X140902852Y-117130839D01*
X141067599Y-117377401D01*
X141314161Y-117542148D01*
X141605000Y-117600000D01*
X142209121Y-117600000D01*
X142113243Y-117830900D01*
X142112758Y-118386661D01*
X142324990Y-118900303D01*
X142717630Y-119293629D01*
X142925512Y-119379949D01*
X142719697Y-119464990D01*
X142326371Y-119857630D01*
X142113243Y-120370900D01*
X142112758Y-120926661D01*
X142324990Y-121440303D01*
X142621000Y-121736830D01*
X142621000Y-125114208D01*
X142408559Y-125250910D01*
X142263569Y-125463110D01*
X142212560Y-125715000D01*
X142212560Y-127015000D01*
X142256838Y-127250317D01*
X142395910Y-127466441D01*
X142608110Y-127611431D01*
X142860000Y-127662440D01*
X143550204Y-127662440D01*
X143985383Y-128097619D01*
X144273795Y-128290330D01*
X144614001Y-128358001D01*
X148501999Y-128358001D01*
X148842205Y-128290330D01*
X149130617Y-128097619D01*
X150487733Y-126740503D01*
X150520585Y-126789670D01*
X151006766Y-127114526D01*
X151580255Y-127228600D01*
X151949745Y-127228600D01*
X152523234Y-127114526D01*
X153009415Y-126789670D01*
X153334271Y-126303489D01*
X153448345Y-125730000D01*
X153334271Y-125156511D01*
X153009415Y-124670330D01*
X152694634Y-124460000D01*
X153009415Y-124249670D01*
X153334271Y-123763489D01*
X153448345Y-123190000D01*
X153334271Y-122616511D01*
X153009415Y-122130330D01*
X152694634Y-121920000D01*
X153009415Y-121709670D01*
X153334271Y-121223489D01*
X153448345Y-120650000D01*
X153334271Y-120076511D01*
X153009415Y-119590330D01*
X152694634Y-119380000D01*
X153009415Y-119169670D01*
X153209648Y-118870000D01*
X153670000Y-118870000D01*
X153960839Y-118812148D01*
X154207401Y-118647401D01*
X154230000Y-118613579D01*
X154230000Y-129465000D01*
X130885000Y-129465000D01*
X130885000Y-106960090D01*
X150114000Y-106960090D01*
X150114000Y-107664250D01*
X150272750Y-107823000D01*
X151638000Y-107823000D01*
X151638000Y-106610150D01*
X151892000Y-106610150D01*
X151892000Y-107823000D01*
X153257250Y-107823000D01*
X153416000Y-107664250D01*
X153416000Y-106960090D01*
X153319327Y-106726701D01*
X153140698Y-106548073D01*
X152907309Y-106451400D01*
X152050750Y-106451400D01*
X151892000Y-106610150D01*
X151638000Y-106610150D01*
X151479250Y-106451400D01*
X150622691Y-106451400D01*
X150389302Y-106548073D01*
X150210673Y-106726701D01*
X150114000Y-106960090D01*
X130885000Y-106960090D01*
X130885000Y-106120000D01*
X154230000Y-106120000D01*
X154230000Y-111256421D01*
G36*
X150088224Y-123223026D02*
X150195729Y-123763489D01*
X150520585Y-124249670D01*
X150835366Y-124460000D01*
X150520585Y-124670330D01*
X150406547Y-124841000D01*
X150241000Y-124841000D01*
X149900794Y-124908671D01*
X149663273Y-125067378D01*
X149612382Y-125101382D01*
X148133763Y-126580001D01*
X147295763Y-126580001D01*
X147307622Y-126545922D01*
X147278083Y-126035572D01*
X147139611Y-125701271D01*
X146909016Y-125645590D01*
X146189605Y-126365000D01*
X146203748Y-126379143D01*
X146024143Y-126558748D01*
X146010000Y-126544605D01*
X145995858Y-126558748D01*
X145816253Y-126379143D01*
X145830395Y-126365000D01*
X145110984Y-125645590D01*
X144880389Y-125701271D01*
X144807440Y-125910902D01*
X144807440Y-125715000D01*
X144763162Y-125479683D01*
X144754347Y-125465984D01*
X145290590Y-125465984D01*
X146010000Y-126185395D01*
X146729410Y-125465984D01*
X146673729Y-125235389D01*
X146190922Y-125067378D01*
X145680572Y-125096917D01*
X145346271Y-125235389D01*
X145290590Y-125465984D01*
X144754347Y-125465984D01*
X144624090Y-125263559D01*
X144411890Y-125118569D01*
X144399000Y-125115959D01*
X144399000Y-121736485D01*
X144653000Y-121482928D01*
X144653000Y-121538310D01*
X144749673Y-121771699D01*
X144928302Y-121950327D01*
X145161691Y-122047000D01*
X145764250Y-122047000D01*
X145923000Y-121888250D01*
X145923000Y-120777000D01*
X146177000Y-120777000D01*
X146177000Y-121888250D01*
X146335750Y-122047000D01*
X146938309Y-122047000D01*
X147171698Y-121950327D01*
X147350327Y-121771699D01*
X147447000Y-121538310D01*
X147447000Y-120935750D01*
X147288250Y-120777000D01*
X146177000Y-120777000D01*
X145923000Y-120777000D01*
X145903000Y-120777000D01*
X145903000Y-120523000D01*
X145923000Y-120523000D01*
X145923000Y-120503000D01*
X146177000Y-120503000D01*
X146177000Y-120523000D01*
X147288250Y-120523000D01*
X147338224Y-120473026D01*
X150088224Y-123223026D01*
X150088224Y-123223026D01*
G37*
X150088224Y-123223026D02*
X150195729Y-123763489D01*
X150520585Y-124249670D01*
X150835366Y-124460000D01*
X150520585Y-124670330D01*
X150406547Y-124841000D01*
X150241000Y-124841000D01*
X149900794Y-124908671D01*
X149663273Y-125067378D01*
X149612382Y-125101382D01*
X148133763Y-126580001D01*
X147295763Y-126580001D01*
X147307622Y-126545922D01*
X147278083Y-126035572D01*
X147139611Y-125701271D01*
X146909016Y-125645590D01*
X146189605Y-126365000D01*
X146203748Y-126379143D01*
X146024143Y-126558748D01*
X146010000Y-126544605D01*
X145995858Y-126558748D01*
X145816253Y-126379143D01*
X145830395Y-126365000D01*
X145110984Y-125645590D01*
X144880389Y-125701271D01*
X144807440Y-125910902D01*
X144807440Y-125715000D01*
X144763162Y-125479683D01*
X144754347Y-125465984D01*
X145290590Y-125465984D01*
X146010000Y-126185395D01*
X146729410Y-125465984D01*
X146673729Y-125235389D01*
X146190922Y-125067378D01*
X145680572Y-125096917D01*
X145346271Y-125235389D01*
X145290590Y-125465984D01*
X144754347Y-125465984D01*
X144624090Y-125263559D01*
X144411890Y-125118569D01*
X144399000Y-125115959D01*
X144399000Y-121736485D01*
X144653000Y-121482928D01*
X144653000Y-121538310D01*
X144749673Y-121771699D01*
X144928302Y-121950327D01*
X145161691Y-122047000D01*
X145764250Y-122047000D01*
X145923000Y-121888250D01*
X145923000Y-120777000D01*
X146177000Y-120777000D01*
X146177000Y-121888250D01*
X146335750Y-122047000D01*
X146938309Y-122047000D01*
X147171698Y-121950327D01*
X147350327Y-121771699D01*
X147447000Y-121538310D01*
X147447000Y-120935750D01*
X147288250Y-120777000D01*
X146177000Y-120777000D01*
X145923000Y-120777000D01*
X145903000Y-120777000D01*
X145903000Y-120523000D01*
X145923000Y-120523000D01*
X145923000Y-120503000D01*
X146177000Y-120503000D01*
X146177000Y-120523000D01*
X147288250Y-120523000D01*
X147338224Y-120473026D01*
X150088224Y-123223026D01*
M02*
