G04 #@! TF.FileFunction,Legend,Bot*
%FSLAX46Y46*%
G04 Gerber Fmt 4.6, Leading zero omitted, Abs format (unit mm)*
G04 Created by KiCad (PCBNEW 4.0.1-stable) date 2016 January 17, Sunday 11:36:18*
%MOMM*%
G01*
G04 APERTURE LIST*
%ADD10C,0.100000*%
%ADD11C,0.150000*%
G04 APERTURE END LIST*
D10*
D11*
X151563856Y-128649429D02*
X151563856Y-129135143D01*
X151592427Y-129192286D01*
X151620999Y-129220857D01*
X151678142Y-129249429D01*
X151763856Y-129249429D01*
X151820999Y-129220857D01*
X151563856Y-129020857D02*
X151620999Y-129049429D01*
X151735285Y-129049429D01*
X151792427Y-129020857D01*
X151820999Y-128992286D01*
X151849570Y-128935143D01*
X151849570Y-128763714D01*
X151820999Y-128706571D01*
X151792427Y-128678000D01*
X151735285Y-128649429D01*
X151620999Y-128649429D01*
X151563856Y-128678000D01*
X151278142Y-129049429D02*
X151278142Y-128649429D01*
X151278142Y-128449429D02*
X151306713Y-128478000D01*
X151278142Y-128506571D01*
X151249570Y-128478000D01*
X151278142Y-128449429D01*
X151278142Y-128506571D01*
X151078142Y-128649429D02*
X150849571Y-128649429D01*
X150992428Y-128449429D02*
X150992428Y-128963714D01*
X150963856Y-129020857D01*
X150906714Y-129049429D01*
X150849571Y-129049429D01*
X150649571Y-129049429D02*
X150649571Y-128449429D01*
X150392428Y-129049429D02*
X150392428Y-128735143D01*
X150420999Y-128678000D01*
X150478142Y-128649429D01*
X150563857Y-128649429D01*
X150620999Y-128678000D01*
X150649571Y-128706571D01*
X149849571Y-128649429D02*
X149849571Y-129049429D01*
X150106714Y-128649429D02*
X150106714Y-128963714D01*
X150078142Y-129020857D01*
X150021000Y-129049429D01*
X149935285Y-129049429D01*
X149878142Y-129020857D01*
X149849571Y-128992286D01*
X149563857Y-129049429D02*
X149563857Y-128449429D01*
X149563857Y-128678000D02*
X149506714Y-128649429D01*
X149392428Y-128649429D01*
X149335285Y-128678000D01*
X149306714Y-128706571D01*
X149278143Y-128763714D01*
X149278143Y-128935143D01*
X149306714Y-128992286D01*
X149335285Y-129020857D01*
X149392428Y-129049429D01*
X149506714Y-129049429D01*
X149563857Y-129020857D01*
X149021000Y-128992286D02*
X148992428Y-129020857D01*
X149021000Y-129049429D01*
X149049571Y-129020857D01*
X149021000Y-128992286D01*
X149021000Y-129049429D01*
X148478143Y-129020857D02*
X148535286Y-129049429D01*
X148649572Y-129049429D01*
X148706714Y-129020857D01*
X148735286Y-128992286D01*
X148763857Y-128935143D01*
X148763857Y-128763714D01*
X148735286Y-128706571D01*
X148706714Y-128678000D01*
X148649572Y-128649429D01*
X148535286Y-128649429D01*
X148478143Y-128678000D01*
X148135286Y-129049429D02*
X148192428Y-129020857D01*
X148221000Y-128992286D01*
X148249571Y-128935143D01*
X148249571Y-128763714D01*
X148221000Y-128706571D01*
X148192428Y-128678000D01*
X148135286Y-128649429D01*
X148049571Y-128649429D01*
X147992428Y-128678000D01*
X147963857Y-128706571D01*
X147935286Y-128763714D01*
X147935286Y-128935143D01*
X147963857Y-128992286D01*
X147992428Y-129020857D01*
X148049571Y-129049429D01*
X148135286Y-129049429D01*
X147678143Y-129049429D02*
X147678143Y-128649429D01*
X147678143Y-128706571D02*
X147649571Y-128678000D01*
X147592429Y-128649429D01*
X147506714Y-128649429D01*
X147449571Y-128678000D01*
X147421000Y-128735143D01*
X147421000Y-129049429D01*
X147421000Y-128735143D02*
X147392429Y-128678000D01*
X147335286Y-128649429D01*
X147249571Y-128649429D01*
X147192429Y-128678000D01*
X147163857Y-128735143D01*
X147163857Y-129049429D01*
X146449571Y-128420857D02*
X146963857Y-129192286D01*
X146335286Y-128649429D02*
X146106715Y-128649429D01*
X146249572Y-128449429D02*
X146249572Y-128963714D01*
X146221000Y-129020857D01*
X146163858Y-129049429D01*
X146106715Y-129049429D01*
X145649572Y-129049429D02*
X145649572Y-128735143D01*
X145678143Y-128678000D01*
X145735286Y-128649429D01*
X145849572Y-128649429D01*
X145906715Y-128678000D01*
X145649572Y-129020857D02*
X145706715Y-129049429D01*
X145849572Y-129049429D01*
X145906715Y-129020857D01*
X145935286Y-128963714D01*
X145935286Y-128906571D01*
X145906715Y-128849429D01*
X145849572Y-128820857D01*
X145706715Y-128820857D01*
X145649572Y-128792286D01*
X145363858Y-129049429D02*
X145363858Y-128649429D01*
X145363858Y-128763714D02*
X145335286Y-128706571D01*
X145306715Y-128678000D01*
X145249572Y-128649429D01*
X145192429Y-128649429D01*
X144735286Y-129049429D02*
X144735286Y-128449429D01*
X144735286Y-129020857D02*
X144792429Y-129049429D01*
X144906715Y-129049429D01*
X144963857Y-129020857D01*
X144992429Y-128992286D01*
X145021000Y-128935143D01*
X145021000Y-128763714D01*
X144992429Y-128706571D01*
X144963857Y-128678000D01*
X144906715Y-128649429D01*
X144792429Y-128649429D01*
X144735286Y-128678000D01*
X144192429Y-129049429D02*
X144192429Y-128735143D01*
X144221000Y-128678000D01*
X144278143Y-128649429D01*
X144392429Y-128649429D01*
X144449572Y-128678000D01*
X144192429Y-129020857D02*
X144249572Y-129049429D01*
X144392429Y-129049429D01*
X144449572Y-129020857D01*
X144478143Y-128963714D01*
X144478143Y-128906571D01*
X144449572Y-128849429D01*
X144392429Y-128820857D01*
X144249572Y-128820857D01*
X144192429Y-128792286D01*
X143992429Y-128649429D02*
X143763858Y-128649429D01*
X143906715Y-128449429D02*
X143906715Y-128963714D01*
X143878143Y-129020857D01*
X143821001Y-129049429D01*
X143763858Y-129049429D01*
X143335286Y-129020857D02*
X143392429Y-129049429D01*
X143506715Y-129049429D01*
X143563858Y-129020857D01*
X143592429Y-128963714D01*
X143592429Y-128735143D01*
X143563858Y-128678000D01*
X143506715Y-128649429D01*
X143392429Y-128649429D01*
X143335286Y-128678000D01*
X143306715Y-128735143D01*
X143306715Y-128792286D01*
X143592429Y-128849429D01*
X142621000Y-128420857D02*
X143135286Y-129192286D01*
X142135287Y-129049429D02*
X142421001Y-129049429D01*
X142421001Y-128449429D01*
X141935287Y-129049429D02*
X141935287Y-128649429D01*
X141935287Y-128449429D02*
X141963858Y-128478000D01*
X141935287Y-128506571D01*
X141906715Y-128478000D01*
X141935287Y-128449429D01*
X141935287Y-128506571D01*
X141735287Y-128649429D02*
X141506716Y-128649429D01*
X141649573Y-128449429D02*
X141649573Y-128963714D01*
X141621001Y-129020857D01*
X141563859Y-129049429D01*
X141506716Y-129049429D01*
X141392430Y-128649429D02*
X141163859Y-128649429D01*
X141306716Y-128449429D02*
X141306716Y-128963714D01*
X141278144Y-129020857D01*
X141221002Y-129049429D01*
X141163859Y-129049429D01*
X140878145Y-129049429D02*
X140935287Y-129020857D01*
X140963859Y-128963714D01*
X140963859Y-128449429D01*
X140421001Y-129020857D02*
X140478144Y-129049429D01*
X140592430Y-129049429D01*
X140649573Y-129020857D01*
X140678144Y-128963714D01*
X140678144Y-128735143D01*
X140649573Y-128678000D01*
X140592430Y-128649429D01*
X140478144Y-128649429D01*
X140421001Y-128678000D01*
X140392430Y-128735143D01*
X140392430Y-128792286D01*
X140678144Y-128849429D01*
X140163858Y-128878000D02*
X139878144Y-128878000D01*
X140221001Y-129049429D02*
X140021001Y-128449429D01*
X139821001Y-129049429D01*
X139621001Y-129049429D02*
X139621001Y-128649429D01*
X139621001Y-128763714D02*
X139592429Y-128706571D01*
X139563858Y-128678000D01*
X139506715Y-128649429D01*
X139449572Y-128649429D01*
X138992429Y-129049429D02*
X138992429Y-128449429D01*
X138992429Y-129020857D02*
X139049572Y-129049429D01*
X139163858Y-129049429D01*
X139221000Y-129020857D01*
X139249572Y-128992286D01*
X139278143Y-128935143D01*
X139278143Y-128763714D01*
X139249572Y-128706571D01*
X139221000Y-128678000D01*
X139163858Y-128649429D01*
X139049572Y-128649429D01*
X138992429Y-128678000D01*
X138449572Y-128649429D02*
X138449572Y-129049429D01*
X138706715Y-128649429D02*
X138706715Y-128963714D01*
X138678143Y-129020857D01*
X138621001Y-129049429D01*
X138535286Y-129049429D01*
X138478143Y-129020857D01*
X138449572Y-128992286D01*
X138163858Y-129049429D02*
X138163858Y-128649429D01*
X138163858Y-128449429D02*
X138192429Y-128478000D01*
X138163858Y-128506571D01*
X138135286Y-128478000D01*
X138163858Y-128449429D01*
X138163858Y-128506571D01*
X137878144Y-128649429D02*
X137878144Y-129049429D01*
X137878144Y-128706571D02*
X137849572Y-128678000D01*
X137792430Y-128649429D01*
X137706715Y-128649429D01*
X137649572Y-128678000D01*
X137621001Y-128735143D01*
X137621001Y-129049429D01*
X137249573Y-129049429D02*
X137306715Y-129020857D01*
X137335287Y-128992286D01*
X137363858Y-128935143D01*
X137363858Y-128763714D01*
X137335287Y-128706571D01*
X137306715Y-128678000D01*
X137249573Y-128649429D01*
X137163858Y-128649429D01*
X137106715Y-128678000D01*
X137078144Y-128706571D01*
X137049573Y-128763714D01*
X137049573Y-128935143D01*
X137078144Y-128992286D01*
X137106715Y-129020857D01*
X137163858Y-129049429D01*
X137249573Y-129049429D01*
X136792430Y-129049429D02*
X136792430Y-128449429D01*
X136563858Y-128449429D01*
X136506716Y-128478000D01*
X136478144Y-128506571D01*
X136449573Y-128563714D01*
X136449573Y-128649429D01*
X136478144Y-128706571D01*
X136506716Y-128735143D01*
X136563858Y-128763714D01*
X136792430Y-128763714D01*
X136192430Y-129049429D02*
X136192430Y-128649429D01*
X136192430Y-128763714D02*
X136163858Y-128706571D01*
X136135287Y-128678000D01*
X136078144Y-128649429D01*
X136021001Y-128649429D01*
X135735287Y-129049429D02*
X135792429Y-129020857D01*
X135821001Y-128992286D01*
X135849572Y-128935143D01*
X135849572Y-128763714D01*
X135821001Y-128706571D01*
X135792429Y-128678000D01*
X135735287Y-128649429D01*
X135649572Y-128649429D01*
X135592429Y-128678000D01*
X135563858Y-128706571D01*
X135535287Y-128763714D01*
X135535287Y-128935143D01*
X135563858Y-128992286D01*
X135592429Y-129020857D01*
X135649572Y-129049429D01*
X135735287Y-129049429D01*
X135278144Y-128649429D02*
X135278144Y-129163714D01*
X135306715Y-129220857D01*
X135363858Y-129249429D01*
X135392430Y-129249429D01*
X135278144Y-128449429D02*
X135306715Y-128478000D01*
X135278144Y-128506571D01*
X135249572Y-128478000D01*
X135278144Y-128449429D01*
X135278144Y-128506571D01*
X134763858Y-129020857D02*
X134821001Y-129049429D01*
X134935287Y-129049429D01*
X134992430Y-129020857D01*
X135021001Y-128963714D01*
X135021001Y-128735143D01*
X134992430Y-128678000D01*
X134935287Y-128649429D01*
X134821001Y-128649429D01*
X134763858Y-128678000D01*
X134735287Y-128735143D01*
X134735287Y-128792286D01*
X135021001Y-128849429D01*
X134221001Y-129020857D02*
X134278144Y-129049429D01*
X134392430Y-129049429D01*
X134449572Y-129020857D01*
X134478144Y-128992286D01*
X134506715Y-128935143D01*
X134506715Y-128763714D01*
X134478144Y-128706571D01*
X134449572Y-128678000D01*
X134392430Y-128649429D01*
X134278144Y-128649429D01*
X134221001Y-128678000D01*
X134049572Y-128649429D02*
X133821001Y-128649429D01*
X133963858Y-128449429D02*
X133963858Y-128963714D01*
X133935286Y-129020857D01*
X133878144Y-129049429D01*
X133821001Y-129049429D01*
X133649572Y-129020857D02*
X133592429Y-129049429D01*
X133478144Y-129049429D01*
X133421001Y-129020857D01*
X133392429Y-128963714D01*
X133392429Y-128935143D01*
X133421001Y-128878000D01*
X133478144Y-128849429D01*
X133563858Y-128849429D01*
X133621001Y-128820857D01*
X133649572Y-128763714D01*
X133649572Y-128735143D01*
X133621001Y-128678000D01*
X133563858Y-128649429D01*
X133478144Y-128649429D01*
X133421001Y-128678000D01*
M02*
