<?xml version="1.0" encoding="UTF-8" standalone="no"?>
<!-- Created with Fritzing (http://www.fritzing.org/) -->

<svg
   xmlns:dc="http://purl.org/dc/elements/1.1/"
   xmlns:cc="http://creativecommons.org/ns#"
   xmlns:rdf="http://www.w3.org/1999/02/22-rdf-syntax-ns#"
   xmlns:svg="http://www.w3.org/2000/svg"
   xmlns="http://www.w3.org/2000/svg"
   xmlns:sodipodi="http://sodipodi.sourceforge.net/DTD/sodipodi-0.dtd"
   xmlns:inkscape="http://www.inkscape.org/namespaces/inkscape"
   version="1.2"
   x="0in"
   y="0in"
   width="0.712in"
   height="0.404in"
   viewBox="0 0 51.264 29.088"
   id="svg2"
   inkscape:version="0.48.5 r10040"
   sodipodi:docname="74LS122_pcb.svg">
  <metadata
     id="metadata114">
    <rdf:RDF>
      <cc:Work
         rdf:about="">
        <dc:format>image/svg+xml</dc:format>
        <dc:type
           rdf:resource="http://purl.org/dc/dcmitype/StillImage" />
      </cc:Work>
    </rdf:RDF>
  </metadata>
  <defs
     id="defs112" />
  <sodipodi:namedview
     pagecolor="#ffffff"
     bordercolor="#666666"
     borderopacity="1"
     objecttolerance="10"
     gridtolerance="10"
     guidetolerance="10"
     inkscape:pageopacity="0"
     inkscape:pageshadow="2"
     inkscape:window-width="915"
     inkscape:window-height="586"
     id="namedview110"
     showgrid="false"
     inkscape:zoom="5.1186016"
     inkscape:cx="32.040001"
     inkscape:cy="18.18"
     inkscape:window-x="0"
     inkscape:window-y="0"
     inkscape:window-maximized="0"
     inkscape:current-layer="svg2" />
  <g
     partID="854761740"
     id="g4">
    <g
       gorn="0.3.0"
       id="copper0">
      <circle
         cx="4.032"
         fill="none"
         cy="25.344"
         connectorname="1"
         stroke-width="0.72"
         r="1.512"
         stroke="#f7bd13"
         gorn="0.3.0.0"
         id="connector0pad" />
      <path
         fill="#f7bd13"
         stroke="none"
         d="m4.032,21.6a1.872,1.872,0,0,1,1.872,1.872l0,3.744a1.872,1.872,0,0,1,-1.872,1.872l0,0A1.872,1.872,0,0,1,2.16,27.216l0,-3.744A1.872,1.872,0,0,1,4.032,21.6l0,0zM2.88,25.344a1.152,1.152,0,1,0,2.304,0,1.152,1.152,0,1,0,-2.304,0z"
         gorn="0.3.0.1"
         id="path8" />
      <circle
         cx="11.232"
         fill="none"
         cy="25.344"
         connectorname="2"
         stroke-width="0.72"
         r="1.512"
         stroke="#f7bd13"
         gorn="0.3.0.2"
         id="connector1pad" />
      <path
         fill="#f7bd13"
         stroke="none"
         d="m11.232,21.6a1.872,1.872,0,0,1,1.872,1.872l0,3.744a1.872,1.872,0,0,1,-1.872,1.872l0,0A1.872,1.872,0,0,1,9.36,27.216l0,-3.744A1.872,1.872,0,0,1,11.232,21.6l0,0zm-1.152,3.744a1.152,1.152,0,1,0,2.304,0,1.152,1.152,0,1,0,-2.304,0z"
         gorn="0.3.0.3"
         id="path11" />
      <circle
         cx="18.432"
         fill="none"
         cy="25.344"
         connectorname="3"
         stroke-width="0.72"
         r="1.512"
         stroke="#f7bd13"
         gorn="0.3.0.4"
         id="connector2pad" />
      <path
         fill="#f7bd13"
         stroke="none"
         d="m18.432,21.6a1.872,1.872,0,0,1,1.872,1.872l0,3.744a1.872,1.872,0,0,1,-1.872,1.872l0,0A1.872,1.872,0,0,1,16.56,27.216l0,-3.744A1.872,1.872,0,0,1,18.432,21.6l0,0zm-1.152,3.744a1.152,1.152,0,1,0,2.304,0,1.152,1.152,0,1,0,-2.304,0z"
         gorn="0.3.0.5"
         id="path14" />
      <circle
         cx="25.632"
         fill="none"
         cy="25.344"
         connectorname="4"
         stroke-width="0.72"
         r="1.512"
         stroke="#f7bd13"
         gorn="0.3.0.6"
         id="connector3pad" />
      <path
         fill="#f7bd13"
         stroke="none"
         d="m25.632,21.6a1.872,1.872,0,0,1,1.872,1.872l0,3.744a1.872,1.872,0,0,1,-1.872,1.872l0,0A1.872,1.872,0,0,1,23.76,27.216l0,-3.744A1.872,1.872,0,0,1,25.632,21.6l0,0zm-1.152,3.744a1.152,1.152,0,1,0,2.304,0,1.152,1.152,0,1,0,-2.304,0z"
         gorn="0.3.0.7"
         id="path17" />
      <circle
         cx="32.832"
         fill="none"
         cy="25.344"
         connectorname="5"
         stroke-width="0.72"
         r="1.512"
         stroke="#f7bd13"
         gorn="0.3.0.8"
         id="connector4pad" />
      <path
         fill="#f7bd13"
         stroke="none"
         d="m32.832,21.6a1.872,1.872,0,0,1,1.872,1.872l0,3.744a1.872,1.872,0,0,1,-1.872,1.872l0,0A1.872,1.872,0,0,1,30.96,27.216l0,-3.744A1.872,1.872,0,0,1,32.832,21.6l0,0zm-1.152,3.744a1.152,1.152,0,1,0,2.304,0,1.152,1.152,0,1,0,-2.304,0z"
         gorn="0.3.0.9"
         id="path20" />
      <circle
         cx="40.032"
         fill="none"
         cy="25.344"
         connectorname="6"
         stroke-width="0.72"
         r="1.512"
         stroke="#f7bd13"
         gorn="0.3.0.10"
         id="connector5pad" />
      <path
         fill="#f7bd13"
         stroke="none"
         d="m40.032,21.6a1.872,1.872,0,0,1,1.872,1.872l0,3.744a1.872,1.872,0,0,1,-1.872,1.872l0,0A1.872,1.872,0,0,1,38.16,27.216l0,-3.744A1.872,1.872,0,0,1,40.032,21.6l0,0zm-1.152,3.744a1.152,1.152,0,1,0,2.304,0,1.152,1.152,0,1,0,-2.304,0z"
         gorn="0.3.0.11"
         id="path23" />
      <circle
         cx="47.232"
         fill="none"
         cy="25.344"
         connectorname="7"
         stroke-width="0.72"
         r="1.512"
         stroke="#f7bd13"
         gorn="0.3.0.12"
         id="connector6pad" />
      <path
         fill="#f7bd13"
         stroke="none"
         d="m47.232,21.6a1.872,1.872,0,0,1,1.872,1.872l0,3.744a1.872,1.872,0,0,1,-1.872,1.872l0,0A1.872,1.872,0,0,1,45.36,27.216l0,-3.744A1.872,1.872,0,0,1,47.232,21.6l0,0zm-1.152,3.744a1.152,1.152,0,1,0,2.304,0,1.152,1.152,0,1,0,-2.304,0z"
         gorn="0.3.0.13"
         id="path26" />
      <circle
         cx="47.232"
         fill="none"
         cy="3.744"
         connectorname="10"
         stroke-width="0.72"
         r="1.512"
         stroke="#f7bd13"
         gorn="0.3.0.14"
         id="connector7pad" />
      <path
         fill="#f7bd13"
         stroke="none"
         d="m47.232,0a1.872,1.872,0,0,1,1.872,1.872l0,3.744a1.872,1.872,0,0,1,-1.872,1.872l0,0A1.872,1.872,0,0,1,45.36,5.616l0,-3.744A1.872,1.872,0,0,1,47.232,0l0,0zM46.08,3.744a1.152,1.152,0,1,0,2.304,0,1.152,1.152,0,1,0,-2.304,0z"
         gorn="0.3.0.15"
         id="path35" />
      <circle
         cx="40.032"
         fill="none"
         cy="3.744"
         connectorname="11"
         stroke-width="0.72"
         r="1.512"
         stroke="#f7bd13"
         gorn="0.3.0.16"
         id="connector8pad" />
      <path
         fill="#f7bd13"
         stroke="none"
         d="m40.032,0a1.872,1.872,0,0,1,1.872,1.872l0,3.744a1.872,1.872,0,0,1,-1.872,1.872l0,0A1.872,1.872,0,0,1,38.16,5.616l0,-3.744A1.872,1.872,0,0,1,40.032,0l0,0zM38.88,3.744a1.152,1.152,0,1,0,2.304,0,1.152,1.152,0,1,0,-2.304,0z"
         gorn="0.3.0.17"
         id="path38" />
      <circle
         cx="32.832"
         fill="none"
         cy="3.744"
         connectorname="12"
         stroke-width="0.72"
         r="1.512"
         stroke="#f7bd13"
         gorn="0.3.0.18"
         id="connector9pad" />
      <path
         fill="#f7bd13"
         stroke="none"
         d="m32.832,0a1.872,1.872,0,0,1,1.872,1.872l0,3.744a1.872,1.872,0,0,1,-1.872,1.872l0,0A1.872,1.872,0,0,1,30.96,5.616l0,-3.744A1.872,1.872,0,0,1,32.832,0l0,0zM31.68,3.744a1.152,1.152,0,1,0,2.304,0,1.152,1.152,0,1,0,-2.304,0z"
         gorn="0.3.0.19"
         id="path41" />
      <circle
         cx="25.632"
         fill="none"
         cy="3.744"
         connectorname="13"
         stroke-width="0.72"
         r="1.512"
         stroke="#f7bd13"
         gorn="0.3.0.20"
         id="connector10pad" />
      <path
         fill="#f7bd13"
         stroke="none"
         d="m25.632,0a1.872,1.872,0,0,1,1.872,1.872l0,3.744a1.872,1.872,0,0,1,-1.872,1.872l0,0A1.872,1.872,0,0,1,23.76,5.616l0,-3.744A1.872,1.872,0,0,1,25.632,0l0,0zM24.48,3.744a1.152,1.152,0,1,0,2.304,0,1.152,1.152,0,1,0,-2.304,0z"
         gorn="0.3.0.21"
         id="path44" />
      <circle
         cx="18.432"
         fill="none"
         cy="3.744"
         connectorname="14"
         stroke-width="0.72"
         r="1.512"
         stroke="#f7bd13"
         gorn="0.3.0.22"
         id="connector11pad" />
      <path
         fill="#f7bd13"
         stroke="none"
         d="m18.432,0a1.872,1.872,0,0,1,1.872,1.872l0,3.744a1.872,1.872,0,0,1,-1.872,1.872l0,0A1.872,1.872,0,0,1,16.56,5.616l0,-3.744A1.872,1.872,0,0,1,18.432,0l0,0zM17.28,3.744a1.152,1.152,0,1,0,2.304,0,1.152,1.152,0,1,0,-2.304,0z"
         gorn="0.3.0.23"
         id="path47" />
      <circle
         cx="11.232"
         fill="none"
         cy="3.744"
         connectorname="15"
         stroke-width="0.72"
         r="1.512"
         stroke="#f7bd13"
         gorn="0.3.0.24"
         id="connector12pad" />
      <path
         fill="#f7bd13"
         stroke="none"
         d="m11.232,0a1.872,1.872,0,0,1,1.872,1.872l0,3.744a1.872,1.872,0,0,1,-1.872,1.872l0,0A1.872,1.872,0,0,1,9.36,5.616l0,-3.744A1.872,1.872,0,0,1,11.232,0l0,0zM10.08,3.744a1.152,1.152,0,1,0,2.304,0,1.152,1.152,0,1,0,-2.304,0z"
         gorn="0.3.0.25"
         id="path50" />
      <circle
         cx="4.032"
         fill="none"
         cy="3.744"
         connectorname="16"
         stroke-width="0.72"
         r="1.512"
         stroke="#f7bd13"
         gorn="0.3.0.26"
         id="connector13pad" />
      <path
         fill="#f7bd13"
         stroke="none"
         d="m4.032,0a1.872,1.872,0,0,1,1.872,1.872l0,3.744A1.872,1.872,0,0,1,4.032,7.488l0,0A1.872,1.872,0,0,1,2.16,5.616l0,-3.744A1.872,1.872,0,0,1,4.032,0l0,0zM2.88,3.744a1.152,1.152,0,1,0,2.304,0,1.152,1.152,0,1,0,-2.304,0z"
         gorn="0.3.0.27"
         id="path53" />
    </g>
  </g>
  <g
     partID="854761741"
     id="g35">
    <g
       gorn="0.4.0"
       id="copper1">
      <circle
         cx="4.0320001"
         cy="25.344"
         connectorname="1"
         r="1.512"
         gorn="0.4.0.0"
         id="circle58"
         sodipodi:cx="4.0320001"
         sodipodi:cy="25.344"
         sodipodi:rx="1.512"
         sodipodi:ry="1.512"
         style="fill:none;stroke:#f7bd13;stroke-width:0.72000003" />
      <path
         fill="#f7bd13"
         stroke="none"
         d="m4.032,21.6a1.872,1.872,0,0,1,1.872,1.872l0,3.744a1.872,1.872,0,0,1,-1.872,1.872l0,0A1.872,1.872,0,0,1,2.16,27.216l0,-3.744A1.872,1.872,0,0,1,4.032,21.6l0,0zM2.88,25.344a1.152,1.152,0,1,0,2.304,0,1.152,1.152,0,1,0,-2.304,0z"
         gorn="0.4.0.1"
         id="path60" />
      <circle
         cx="11.232"
         fill="none"
         cy="25.344"
         connectorname="2"
         stroke-width="0.72"
         r="1.512"
         stroke="#f7bd13"
         gorn="0.4.0.2"
         id="circle62" />
      <path
         fill="#f7bd13"
         stroke="none"
         d="m11.232,21.6a1.872,1.872,0,0,1,1.872,1.872l0,3.744a1.872,1.872,0,0,1,-1.872,1.872l0,0A1.872,1.872,0,0,1,9.36,27.216l0,-3.744A1.872,1.872,0,0,1,11.232,21.6l0,0zm-1.152,3.744a1.152,1.152,0,1,0,2.304,0,1.152,1.152,0,1,0,-2.304,0z"
         gorn="0.4.0.3"
         id="path64" />
      <circle
         cx="18.432"
         fill="none"
         cy="25.344"
         connectorname="3"
         stroke-width="0.72"
         r="1.512"
         stroke="#f7bd13"
         gorn="0.4.0.4"
         id="circle66" />
      <path
         fill="#f7bd13"
         stroke="none"
         d="m18.432,21.6a1.872,1.872,0,0,1,1.872,1.872l0,3.744a1.872,1.872,0,0,1,-1.872,1.872l0,0A1.872,1.872,0,0,1,16.56,27.216l0,-3.744A1.872,1.872,0,0,1,18.432,21.6l0,0zm-1.152,3.744a1.152,1.152,0,1,0,2.304,0,1.152,1.152,0,1,0,-2.304,0z"
         gorn="0.4.0.5"
         id="path68" />
      <circle
         cx="25.632"
         fill="none"
         cy="25.344"
         connectorname="4"
         stroke-width="0.72"
         r="1.512"
         stroke="#f7bd13"
         gorn="0.4.0.6"
         id="circle70" />
      <path
         fill="#f7bd13"
         stroke="none"
         d="m25.632,21.6a1.872,1.872,0,0,1,1.872,1.872l0,3.744a1.872,1.872,0,0,1,-1.872,1.872l0,0A1.872,1.872,0,0,1,23.76,27.216l0,-3.744A1.872,1.872,0,0,1,25.632,21.6l0,0zm-1.152,3.744a1.152,1.152,0,1,0,2.304,0,1.152,1.152,0,1,0,-2.304,0z"
         gorn="0.4.0.7"
         id="path72" />
      <circle
         cx="32.832"
         fill="none"
         cy="25.344"
         connectorname="5"
         stroke-width="0.72"
         r="1.512"
         stroke="#f7bd13"
         gorn="0.4.0.8"
         id="circle74" />
      <path
         fill="#f7bd13"
         stroke="none"
         d="m32.832,21.6a1.872,1.872,0,0,1,1.872,1.872l0,3.744a1.872,1.872,0,0,1,-1.872,1.872l0,0A1.872,1.872,0,0,1,30.96,27.216l0,-3.744A1.872,1.872,0,0,1,32.832,21.6l0,0zm-1.152,3.744a1.152,1.152,0,1,0,2.304,0,1.152,1.152,0,1,0,-2.304,0z"
         gorn="0.4.0.9"
         id="path76" />
      <circle
         cx="40.032"
         fill="none"
         cy="25.344"
         connectorname="6"
         stroke-width="0.72"
         r="1.512"
         stroke="#f7bd13"
         gorn="0.4.0.10"
         id="circle78" />
      <path
         fill="#f7bd13"
         stroke="none"
         d="m40.032,21.6a1.872,1.872,0,0,1,1.872,1.872l0,3.744a1.872,1.872,0,0,1,-1.872,1.872l0,0A1.872,1.872,0,0,1,38.16,27.216l0,-3.744A1.872,1.872,0,0,1,40.032,21.6l0,0zm-1.152,3.744a1.152,1.152,0,1,0,2.304,0,1.152,1.152,0,1,0,-2.304,0z"
         gorn="0.4.0.11"
         id="path80" />
      <circle
         cx="47.232"
         fill="none"
         cy="25.344"
         connectorname="7"
         stroke-width="0.72"
         r="1.512"
         stroke="#f7bd13"
         gorn="0.4.0.12"
         id="circle82" />
      <path
         fill="#f7bd13"
         stroke="none"
         d="m47.232,21.6a1.872,1.872,0,0,1,1.872,1.872l0,3.744a1.872,1.872,0,0,1,-1.872,1.872l0,0A1.872,1.872,0,0,1,45.36,27.216l0,-3.744A1.872,1.872,0,0,1,47.232,21.6l0,0zm-1.152,3.744a1.152,1.152,0,1,0,2.304,0,1.152,1.152,0,1,0,-2.304,0z"
         gorn="0.4.0.13"
         id="path84" />
      <circle
         cx="47.232"
         fill="none"
         cy="3.744"
         connectorname="10"
         stroke-width="0.72"
         r="1.512"
         stroke="#f7bd13"
         gorn="0.4.0.14"
         id="circle94" />
      <path
         fill="#f7bd13"
         stroke="none"
         d="m47.232,0a1.872,1.872,0,0,1,1.872,1.872l0,3.744a1.872,1.872,0,0,1,-1.872,1.872l0,0A1.872,1.872,0,0,1,45.36,5.616l0,-3.744A1.872,1.872,0,0,1,47.232,0l0,0zM46.08,3.744a1.152,1.152,0,1,0,2.304,0,1.152,1.152,0,1,0,-2.304,0z"
         gorn="0.4.0.15"
         id="path96" />
      <circle
         cx="40.032"
         fill="none"
         cy="3.744"
         connectorname="11"
         stroke-width="0.72"
         r="1.512"
         stroke="#f7bd13"
         gorn="0.4.0.16"
         id="circle98" />
      <path
         fill="#f7bd13"
         stroke="none"
         d="m40.032,0a1.872,1.872,0,0,1,1.872,1.872l0,3.744a1.872,1.872,0,0,1,-1.872,1.872l0,0A1.872,1.872,0,0,1,38.16,5.616l0,-3.744A1.872,1.872,0,0,1,40.032,0l0,0zM38.88,3.744a1.152,1.152,0,1,0,2.304,0,1.152,1.152,0,1,0,-2.304,0z"
         gorn="0.4.0.17"
         id="path100" />
      <circle
         cx="32.832"
         fill="none"
         cy="3.744"
         connectorname="12"
         stroke-width="0.72"
         r="1.512"
         stroke="#f7bd13"
         gorn="0.4.0.18"
         id="circle102" />
      <path
         fill="#f7bd13"
         stroke="none"
         d="m32.832,0a1.872,1.872,0,0,1,1.872,1.872l0,3.744a1.872,1.872,0,0,1,-1.872,1.872l0,0A1.872,1.872,0,0,1,30.96,5.616l0,-3.744A1.872,1.872,0,0,1,32.832,0l0,0zM31.68,3.744a1.152,1.152,0,1,0,2.304,0,1.152,1.152,0,1,0,-2.304,0z"
         gorn="0.4.0.19"
         id="path104" />
      <circle
         cx="25.632"
         fill="none"
         cy="3.744"
         connectorname="13"
         stroke-width="0.72"
         r="1.512"
         stroke="#f7bd13"
         gorn="0.4.0.20"
         id="circle106" />
      <path
         fill="#f7bd13"
         stroke="none"
         d="m25.632,0a1.872,1.872,0,0,1,1.872,1.872l0,3.744a1.872,1.872,0,0,1,-1.872,1.872l0,0A1.872,1.872,0,0,1,23.76,5.616l0,-3.744A1.872,1.872,0,0,1,25.632,0l0,0zM24.48,3.744a1.152,1.152,0,1,0,2.304,0,1.152,1.152,0,1,0,-2.304,0z"
         gorn="0.4.0.21"
         id="path108" />
      <circle
         cx="18.432"
         fill="none"
         cy="3.744"
         connectorname="14"
         stroke-width="0.72"
         r="1.512"
         stroke="#f7bd13"
         gorn="0.4.0.22"
         id="circle110" />
      <path
         fill="#f7bd13"
         stroke="none"
         d="m18.432,0a1.872,1.872,0,0,1,1.872,1.872l0,3.744a1.872,1.872,0,0,1,-1.872,1.872l0,0A1.872,1.872,0,0,1,16.56,5.616l0,-3.744A1.872,1.872,0,0,1,18.432,0l0,0zM17.28,3.744a1.152,1.152,0,1,0,2.304,0,1.152,1.152,0,1,0,-2.304,0z"
         gorn="0.4.0.23"
         id="path112" />
      <circle
         cx="11.232"
         fill="none"
         cy="3.744"
         connectorname="15"
         stroke-width="0.72"
         r="1.512"
         stroke="#f7bd13"
         gorn="0.4.0.24"
         id="circle114" />
      <path
         fill="#f7bd13"
         stroke="none"
         d="m11.232,0a1.872,1.872,0,0,1,1.872,1.872l0,3.744a1.872,1.872,0,0,1,-1.872,1.872l0,0A1.872,1.872,0,0,1,9.36,5.616l0,-3.744A1.872,1.872,0,0,1,11.232,0l0,0zM10.08,3.744a1.152,1.152,0,1,0,2.304,0,1.152,1.152,0,1,0,-2.304,0z"
         gorn="0.4.0.25"
         id="path116" />
      <circle
         cx="4.032"
         fill="none"
         cy="3.744"
         connectorname="16"
         stroke-width="0.72"
         r="1.512"
         stroke="#f7bd13"
         gorn="0.4.0.26"
         id="circle118" />
      <path
         fill="#f7bd13"
         stroke="none"
         d="m4.032,0a1.872,1.872,0,0,1,1.872,1.872l0,3.744A1.872,1.872,0,0,1,4.032,7.488l0,0A1.872,1.872,0,0,1,2.16,5.616l0,-3.744A1.872,1.872,0,0,1,4.032,0l0,0zM2.88,3.744a1.152,1.152,0,1,0,2.304,0,1.152,1.152,0,1,0,-2.304,0z"
         gorn="0.4.0.27"
         id="path120" />
      <g
         gorn="0.4.0.28"
         id="g122">
        <circle
           cx="4.032"
           fill="none"
           cy="25.344"
           connectorname="1"
           stroke-width="0.72"
           r="1.512"
           stroke="#f7bd13"
           gorn="0.4.0.28.0"
           id="circle124" />
        <path
           fill="#f7bd13"
           stroke="none"
           d="m4.032,21.6a1.872,1.872,0,0,1,1.872,1.872l0,3.744a1.872,1.872,0,0,1,-1.872,1.872l0,0A1.872,1.872,0,0,1,2.16,27.216l0,-3.744A1.872,1.872,0,0,1,4.032,21.6l0,0zM2.88,25.344a1.152,1.152,0,1,0,2.304,0,1.152,1.152,0,1,0,-2.304,0z"
           gorn="0.4.0.28.1"
           id="path126" />
        <circle
           cx="11.232"
           fill="none"
           cy="25.344"
           connectorname="2"
           stroke-width="0.72"
           r="1.512"
           stroke="#f7bd13"
           gorn="0.4.0.28.2"
           id="circle128" />
        <path
           fill="#f7bd13"
           stroke="none"
           d="m11.232,21.6a1.872,1.872,0,0,1,1.872,1.872l0,3.744a1.872,1.872,0,0,1,-1.872,1.872l0,0A1.872,1.872,0,0,1,9.36,27.216l0,-3.744A1.872,1.872,0,0,1,11.232,21.6l0,0zm-1.152,3.744a1.152,1.152,0,1,0,2.304,0,1.152,1.152,0,1,0,-2.304,0z"
           gorn="0.4.0.28.3"
           id="path130" />
        <circle
           cx="18.432"
           fill="none"
           cy="25.344"
           connectorname="3"
           stroke-width="0.72"
           r="1.512"
           stroke="#f7bd13"
           gorn="0.4.0.28.4"
           id="circle132" />
        <path
           fill="#f7bd13"
           stroke="none"
           d="m18.432,21.6a1.872,1.872,0,0,1,1.872,1.872l0,3.744a1.872,1.872,0,0,1,-1.872,1.872l0,0A1.872,1.872,0,0,1,16.56,27.216l0,-3.744A1.872,1.872,0,0,1,18.432,21.6l0,0zm-1.152,3.744a1.152,1.152,0,1,0,2.304,0,1.152,1.152,0,1,0,-2.304,0z"
           gorn="0.4.0.28.5"
           id="path134" />
        <circle
           cx="25.632"
           fill="none"
           cy="25.344"
           connectorname="4"
           stroke-width="0.72"
           r="1.512"
           stroke="#f7bd13"
           gorn="0.4.0.28.6"
           id="circle136" />
        <path
           fill="#f7bd13"
           stroke="none"
           d="m25.632,21.6a1.872,1.872,0,0,1,1.872,1.872l0,3.744a1.872,1.872,0,0,1,-1.872,1.872l0,0A1.872,1.872,0,0,1,23.76,27.216l0,-3.744A1.872,1.872,0,0,1,25.632,21.6l0,0zm-1.152,3.744a1.152,1.152,0,1,0,2.304,0,1.152,1.152,0,1,0,-2.304,0z"
           gorn="0.4.0.28.7"
           id="path138" />
        <circle
           cx="32.832"
           fill="none"
           cy="25.344"
           connectorname="5"
           stroke-width="0.72"
           r="1.512"
           stroke="#f7bd13"
           gorn="0.4.0.28.8"
           id="circle140" />
        <path
           fill="#f7bd13"
           stroke="none"
           d="m32.832,21.6a1.872,1.872,0,0,1,1.872,1.872l0,3.744a1.872,1.872,0,0,1,-1.872,1.872l0,0A1.872,1.872,0,0,1,30.96,27.216l0,-3.744A1.872,1.872,0,0,1,32.832,21.6l0,0zm-1.152,3.744a1.152,1.152,0,1,0,2.304,0,1.152,1.152,0,1,0,-2.304,0z"
           gorn="0.4.0.28.9"
           id="path142" />
        <circle
           cx="40.032"
           fill="none"
           cy="25.344"
           connectorname="6"
           stroke-width="0.72"
           r="1.512"
           stroke="#f7bd13"
           gorn="0.4.0.28.10"
           id="circle144" />
        <path
           fill="#f7bd13"
           stroke="none"
           d="m40.032,21.6a1.872,1.872,0,0,1,1.872,1.872l0,3.744a1.872,1.872,0,0,1,-1.872,1.872l0,0A1.872,1.872,0,0,1,38.16,27.216l0,-3.744A1.872,1.872,0,0,1,40.032,21.6l0,0zm-1.152,3.744a1.152,1.152,0,1,0,2.304,0,1.152,1.152,0,1,0,-2.304,0z"
           gorn="0.4.0.28.11"
           id="path146" />
        <circle
           cx="47.232"
           fill="none"
           cy="25.344"
           connectorname="7"
           stroke-width="0.72"
           r="1.512"
           stroke="#f7bd13"
           gorn="0.4.0.28.12"
           id="circle148" />
        <path
           fill="#f7bd13"
           stroke="none"
           d="m47.232,21.6a1.872,1.872,0,0,1,1.872,1.872l0,3.744a1.872,1.872,0,0,1,-1.872,1.872l0,0A1.872,1.872,0,0,1,45.36,27.216l0,-3.744A1.872,1.872,0,0,1,47.232,21.6l0,0zm-1.152,3.744a1.152,1.152,0,1,0,2.304,0,1.152,1.152,0,1,0,-2.304,0z"
           gorn="0.4.0.28.13"
           id="path150" />
        <circle
           cx="47.232"
           fill="none"
           cy="3.744"
           connectorname="10"
           stroke-width="0.72"
           r="1.512"
           stroke="#f7bd13"
           gorn="0.4.0.28.14"
           id="circle160" />
        <path
           fill="#f7bd13"
           stroke="none"
           d="m47.232,0a1.872,1.872,0,0,1,1.872,1.872l0,3.744a1.872,1.872,0,0,1,-1.872,1.872l0,0A1.872,1.872,0,0,1,45.36,5.616l0,-3.744A1.872,1.872,0,0,1,47.232,0l0,0zM46.08,3.744a1.152,1.152,0,1,0,2.304,0,1.152,1.152,0,1,0,-2.304,0z"
           gorn="0.4.0.28.15"
           id="path162" />
        <circle
           cx="40.032"
           fill="none"
           cy="3.744"
           connectorname="11"
           stroke-width="0.72"
           r="1.512"
           stroke="#f7bd13"
           gorn="0.4.0.28.16"
           id="circle164" />
        <path
           fill="#f7bd13"
           stroke="none"
           d="m40.032,0a1.872,1.872,0,0,1,1.872,1.872l0,3.744a1.872,1.872,0,0,1,-1.872,1.872l0,0A1.872,1.872,0,0,1,38.16,5.616l0,-3.744A1.872,1.872,0,0,1,40.032,0l0,0zM38.88,3.744a1.152,1.152,0,1,0,2.304,0,1.152,1.152,0,1,0,-2.304,0z"
           gorn="0.4.0.28.17"
           id="path166" />
        <circle
           cx="32.832"
           fill="none"
           cy="3.744"
           connectorname="12"
           stroke-width="0.72"
           r="1.512"
           stroke="#f7bd13"
           gorn="0.4.0.28.18"
           id="circle168" />
        <path
           fill="#f7bd13"
           stroke="none"
           d="m32.832,0a1.872,1.872,0,0,1,1.872,1.872l0,3.744a1.872,1.872,0,0,1,-1.872,1.872l0,0A1.872,1.872,0,0,1,30.96,5.616l0,-3.744A1.872,1.872,0,0,1,32.832,0l0,0zM31.68,3.744a1.152,1.152,0,1,0,2.304,0,1.152,1.152,0,1,0,-2.304,0z"
           gorn="0.4.0.28.19"
           id="path170" />
        <circle
           cx="25.632"
           fill="none"
           cy="3.744"
           connectorname="13"
           stroke-width="0.72"
           r="1.512"
           stroke="#f7bd13"
           gorn="0.4.0.28.20"
           id="circle172" />
        <path
           fill="#f7bd13"
           stroke="none"
           d="m25.632,0a1.872,1.872,0,0,1,1.872,1.872l0,3.744a1.872,1.872,0,0,1,-1.872,1.872l0,0A1.872,1.872,0,0,1,23.76,5.616l0,-3.744A1.872,1.872,0,0,1,25.632,0l0,0zM24.48,3.744a1.152,1.152,0,1,0,2.304,0,1.152,1.152,0,1,0,-2.304,0z"
           gorn="0.4.0.28.21"
           id="path174" />
        <circle
           cx="18.432"
           fill="none"
           cy="3.744"
           connectorname="14"
           stroke-width="0.72"
           r="1.512"
           stroke="#f7bd13"
           gorn="0.4.0.28.22"
           id="circle176" />
        <path
           fill="#f7bd13"
           stroke="none"
           d="m18.432,0a1.872,1.872,0,0,1,1.872,1.872l0,3.744a1.872,1.872,0,0,1,-1.872,1.872l0,0A1.872,1.872,0,0,1,16.56,5.616l0,-3.744A1.872,1.872,0,0,1,18.432,0l0,0zM17.28,3.744a1.152,1.152,0,1,0,2.304,0,1.152,1.152,0,1,0,-2.304,0z"
           gorn="0.4.0.28.23"
           id="path178" />
        <circle
           cx="11.232"
           fill="none"
           cy="3.744"
           connectorname="15"
           stroke-width="0.72"
           r="1.512"
           stroke="#f7bd13"
           gorn="0.4.0.28.24"
           id="circle180" />
        <path
           fill="#f7bd13"
           stroke="none"
           d="m11.232,0a1.872,1.872,0,0,1,1.872,1.872l0,3.744a1.872,1.872,0,0,1,-1.872,1.872l0,0A1.872,1.872,0,0,1,9.36,5.616l0,-3.744A1.872,1.872,0,0,1,11.232,0l0,0zM10.08,3.744a1.152,1.152,0,1,0,2.304,0,1.152,1.152,0,1,0,-2.304,0z"
           gorn="0.4.0.28.25"
           id="path182" />
        <circle
           cx="4.032"
           fill="none"
           cy="3.744"
           connectorname="16"
           stroke-width="0.72"
           r="1.512"
           stroke="#f7bd13"
           gorn="0.4.0.28.26"
           id="circle184" />
        <path
           fill="#f7bd13"
           stroke="none"
           d="m4.032,0a1.872,1.872,0,0,1,1.872,1.872l0,3.744A1.872,1.872,0,0,1,4.032,7.488l0,0A1.872,1.872,0,0,1,2.16,5.616l0,-3.744A1.872,1.872,0,0,1,4.032,0l0,0zM2.88,3.744a1.152,1.152,0,1,0,2.304,0,1.152,1.152,0,1,0,-2.304,0z"
           gorn="0.4.0.28.27"
           id="path186" />
      </g>
    </g>
  </g>
  <g
     partID="854761742"
     id="g95">
    <g
       transform="scale(0.87684734,1)"
       id="g97">
      <g
         id="silkscreen">
        <g
           gorn="0.5.0.0.0.0.0.0"
           id="g100">
          <g
             gorn="0.5.0.0.0.0.0.0.0"
             id="g102">
            <line
               y2="6.264"
               x1="58.032"
               x2="0.432"
               stroke-width="0.864"
               style="stroke-linecap:round"
               stroke="#f0f0f0"
               gorn="0.5.0.0.0.0.0.0.0.0"
               id="line191"
               class="other"
               y1="6.264" />
            <line
               y2="22.824"
               x1="0.432"
               x2="58.032"
               stroke-width="0.864"
               style="stroke-linecap:round"
               stroke="#f0f0f0"
               gorn="0.5.0.0.0.0.0.0.0.1"
               id="line193"
               class="other"
               y1="22.824" />
            <line
               y2="22.824"
               x1="58.032"
               x2="58.032"
               stroke-width="0.864"
               style="stroke-linecap:round"
               stroke="#f0f0f0"
               gorn="0.5.0.0.0.0.0.0.0.2"
               id="line195"
               class="other"
               y1="6.264" />
            <line
               y2="11.664"
               x1="0.432"
               x2="0.432"
               stroke-width="0.864"
               style="stroke-linecap:round"
               stroke="#f0f0f0"
               gorn="0.5.0.0.0.0.0.0.0.3"
               id="line197"
               class="other"
               y1="6.264" />
            <line
               y2="17.424"
               x1="0.432"
               x2="0.432"
               stroke-width="0.864"
               style="stroke-linecap:round"
               stroke="#f0f0f0"
               gorn="0.5.0.0.0.0.0.0.0.4"
               id="line199"
               class="other"
               y1="22.824" />
            <path
               fill="none"
               stroke-width="0.864"
               stroke="#f0f0f0"
               d="m0.432,17.424a2.88,2.88,0,1,0,0,-5.76"
               gorn="0.5.0.0.0.0.0.0.0.5"
               id="path201"
               class="other" />
          </g>
        </g>
      </g>
    </g>
  </g>
</svg>
