<?xml version="1.0" standalone="no"?>
<!DOCTYPE svg PUBLIC "-//W3C//DTD SVG 1.1//EN"
  "http://www.w3.org/Graphics/SVG/1.1/DTD/svg11.dtd">
<svg width="94mm" height="25.999999999999993mm" viewBox="-61 -34.99999999999999 94 25.999999999999993" xmlns="http://www.w3.org/2000/svg" version="1.1">
	<title>svgOutput</title>
	<desc>made with tinkercad</desc>
<path d="M -51.10599899291992 -33.59099960327148 L -48 -33.99999999999999 L -39.99800109863281 -33.99999999999999 L 32 -33.99999999999999 L 32 -13.998000144958493 L 32 -9.999999999999998 L -48 -9.999999999999998 L -49.152000427246094 -10.151696205139158 L -51.10599899291992 -10.409000396728514 L -54 -11.60799980163574 L -56.00299835205078 -13.145111083984371 L -56.48500061035156 -13.51500034332275 L -58.391998291015625 -15.999999999999996 L -58.55109405517578 -16.38400077819824 L -59.590999603271484 -18.89399909973144 L -60 -21.999999999999996 L -59.660789489746094 -24.57600021362304 L -59.61680221557617 -24.91005897521972 L -59.590999603271484 -25.106000900268548 L -58.464691162109375 -27.824544906616204 L -58.391998291015625 -27.999999999999993 L -56.48500061035156 -30.485000610351555 L -56.00299835205078 -30.854888916015618 L -54 -32.39199829101562 L -53.09245681762695 -32.76800155639648 L -51.10599899291992 -33.59099960327148 M -48.48126220703125 -29.926713943481438 L -49.152000427246094 -29.820394515991204 L -50.472999572753906 -29.61100006103515 L -52.419185638427734 -28.61915206909179 L -52.70399856567383 -28.474000930786126 L -53.89473342895508 -27.28326797485351 L -54.4739990234375 -26.704000473022454 L -55.038169860839844 -25.596992492675774 L -55.55850601196289 -24.57600021362304 L -55.611000061035156 -24.4729995727539 L -56.00299835205078 -21.999999999999996 L -55.92671585083008 -21.51873970031738 L -55.611000061035156 -19.52700042724609 L -55.542816162109375 -19.393207550048825 L -54.61873245239258 -17.579990386962887 L -54.4739990234375 -17.295999526977536 L -53.5620002746582 -16.38400077819824 L -52.70399856567383 -15.52600002288818 L -50.472999572753906 -14.38899993896484 L -49.63367462158203 -14.25629615783691 L -49.152000427246094 -14.180139541625973 L -48 -13.998000144958493 L -45.527000427246094 -14.38899993896484 L -43.29600143432617 -15.52600002288818 L -42.4379997253418 -16.38400077819824 L -41.5260009765625 -17.295999526977536 L -40.388999938964844 -19.52700042724609 L -39.99800109863281 -21.999999999999996 L -40.388999938964844 -24.4729995727539 L -41.5260009765625 -26.704000473022454 L -43.29600143432617 -28.474000930786126 L -45.527000427246094 -29.61100006103515 L -48 -30.003000259399407 L -48.48126220703125 -29.926713943481438 z" fill="none" stroke="rgb(255,0,0)" stroke-width="0.001mm" />
</svg>