<?xml version="1.0" encoding="UTF-8" standalone="no"?>
<!-- Created with Inkscape (http://www.inkscape.org/) -->

<svg
   xmlns:dc="http://purl.org/dc/elements/1.1/"
   xmlns:cc="http://creativecommons.org/ns#"
   xmlns:rdf="http://www.w3.org/1999/02/22-rdf-syntax-ns#"
   xmlns:svg="http://www.w3.org/2000/svg"
   xmlns="http://www.w3.org/2000/svg"
   xmlns:sodipodi="http://sodipodi.sourceforge.net/DTD/sodipodi-0.dtd"
   xmlns:inkscape="http://www.inkscape.org/namespaces/inkscape"
   width="420mm"
   height="297mm"
   viewBox="0 0 420 297"
   version="1.1"
   id="svg5123"
   inkscape:version="0.92.4 (5da689c313, 2019-01-14)"
   sodipodi:docname="keychain final.svg">
  <defs
     id="defs5117" />
  <sodipodi:namedview
     id="base"
     pagecolor="#ffffff"
     bordercolor="#666666"
     borderopacity="1.0"
     inkscape:pageopacity="0.0"
     inkscape:pageshadow="2"
     inkscape:zoom="2.8"
     inkscape:cx="186.9866"
     inkscape:cy="45.166484"
     inkscape:document-units="mm"
     inkscape:current-layer="layer1"
     showgrid="false"
     inkscape:window-width="1920"
     inkscape:window-height="974"
     inkscape:window-x="-11"
     inkscape:window-y="-11"
     inkscape:window-maximized="1" />
  <metadata
     id="metadata5120">
    <rdf:RDF>
      <cc:Work
         rdf:about="">
        <dc:format>image/svg+xml</dc:format>
        <dc:type
           rdf:resource="http://purl.org/dc/dcmitype/StillImage" />
        <dc:title></dc:title>
      </cc:Work>
    </rdf:RDF>
  </metadata>
  <g
     inkscape:label="Layer 1"
     inkscape:groupmode="layer"
     id="layer1">
    <path
       id="path5686"
       d="m 11.001018,271.53589 3.09709,-0.40452 h 7.979044 71.791471 v 19.78302 3.95423 H 14.098108 l -1.148697,-0.15003 -1.948393,-0.2545 -2.8856995,-1.18587 -1.997254,-1.52028 -0.4806181,-0.36585 -1.901528,-2.45779 -0.158638,-0.37979 -1.0369241,-2.48252 -0.407827,-3.072 0.338237,-2.5478 0.04386,-0.3304 0.02573,-0.19379 1.1230781,-2.68878 0.07248,-0.17353 1.901528,-2.4578 0.4806181,-0.36584 1.997254,-1.52028 0.90494,-0.37189 1.9807595,-0.81399 m 2.617208,3.62417 -0.668815,0.10516 -1.31721,0.2071 -1.9406024,0.98099 -0.283997,0.14356 -1.1873191,1.1777 -0.577604,0.57293 -0.562552,1.09488 -0.518844,1.00981 -0.05234,0.10188 -0.390875,2.44592 0.07606,0.476 0.314811,1.96993 0.06798,0.13233 0.921433,1.79336 0.144318,0.28088 0.909384,0.90202 0.8555391,0.8486 2.2245994,1.12456 0.836918,0.13125 0.480292,0.0753 1.148697,0.18015 2.465906,-0.38672 2.224599,-1.12456 0.85554,-0.8486 0.909382,-0.90202 1.13374,-2.20657 0.389877,-2.44593 -0.389877,-2.44592 -1.13374,-2.20657 -1.764922,-1.75063 -2.224599,-1.12455 -2.465906,-0.38771 z"
       inkscape:connector-curvature="0"
       style="fill:none;stroke:#ff0000;stroke-width:0.26275334;stroke-miterlimit:4;stroke-dasharray:none;stroke-opacity:1" />
    <flowRoot
       xml:space="preserve"
       id="flowRoot5697"
       style="font-style:normal;font-weight:normal;font-size:40px;line-height:1.25;font-family:sans-serif;letter-spacing:0px;word-spacing:0px;fill:#000000;fill-opacity:1;stroke:none"
       transform="matrix(0.60258925,0,0,0.25472637,-34.317183,6.839799)"><flowRegion
         id="flowRegion5699"><rect
           id="rect5701"
           width="230.35715"
           height="55.357143"
           x="101.78571"
           y="1046.4482" /></flowRegion><flowPara
         id="flowPara5703"
         style="font-style:normal;font-variant:normal;font-weight:normal;font-stretch:normal;font-family:'Showcard Gothic';-inkscape-font-specification:'Showcard Gothic'">Paul</flowPara></flowRoot>    <flowRoot
       xml:space="preserve"
       id="flowRoot5705"
       style="font-style:normal;font-weight:normal;font-size:40px;line-height:1.25;font-family:sans-serif;letter-spacing:0px;word-spacing:0px;fill:#000000;fill-opacity:1;stroke:none"
       transform="scale(0.26458333)"><flowRegion
         id="flowRegion5707"><rect
           id="rect5709"
           width="257.5"
           height="40.714287"
           x="82.85714"
           y="1105.3768" /></flowRegion><flowPara
         id="flowPara5711">modelart.tardate.com</flowPara></flowRoot>    <text
       xml:space="preserve"
       style="font-style:normal;font-weight:normal;font-size:12.75557899px;line-height:1.25;font-family:sans-serif;letter-spacing:0px;word-spacing:0px;fill:#000000;fill-opacity:1;stroke:none;stroke-width:0.31888947"
       x="33.531357"
       y="237.54465"
       id="text5715"
       transform="scale(0.81722354,1.2236554)"><tspan
         sodipodi:role="line"
         id="tspan5713"
         x="33.531357"
         y="237.54465"
         style="font-style:normal;font-variant:normal;font-weight:normal;font-stretch:normal;font-size:5.95260382px;font-family:'Showcard Gothic';-inkscape-font-specification:'Showcard Gothic';stroke-width:0.31888947">modelart.tardate.com</tspan></text>
  </g>
</svg>
