<?xml version="1.0" encoding="UTF-8" ?>
<!DOCTYPE score-partwise PUBLIC '-//Recordare//DTD MusicXML 2.0 Partwise//EN' 'http://www.musicxml.org/dtds/2.0/partwise.dtd'>
<score-partwise version="3.0">
 <work>
  <work-title>BURN</work-title>
 </work>
 <identification>
  <creator type="composer">Deep Purple</creator>
  <creator type="lyricist">Ritchie Blackmore, David Coverdale, Jon Lord &amp; Ian Paice</creator>
  <creator type="arranger">Ritchie Blackmore, David Coverdale, Jon Lord &amp; Ian Paice</creator>
  <creator type="transcriber">simplified transription for use with Bolport Club Stringy</creator>
  <rights>© Copyright 1974 Deep Purple Music (Overseas) Limited.</rights>
  <encoding>
   <encoding-date>2017-10-16</encoding-date>
   <software>Guitar Pro 7.0.6</software>
   <encoder>simplified transription for use with Bolport Club Stringy</encoder>
  </encoding>
 </identification>
 <defaults>
  <scaling>
   <millimeters>6.4</millimeters>
   <tenths>40</tenths>
  </scaling>
  <page-layout>
   <page-height>1850</page-height>
   <page-width>1310</page-width>
  </page-layout>
 </defaults>
 <credit>
  <credit-words font-size="24" default-x="655" default-y="1790" justify="center" valign="top">BURN</credit-words>
 </credit>
 <credit>
  <credit-words font-size="14" default-x="655" default-y="1757.94" justify="center" valign="top">Deep Purple</credit-words>
 </credit>
 <credit>
  <credit-words font-size="14" default-x="655" default-y="1729.67" justify="center" valign="top">Burn</credit-words>
 </credit>
 <credit>
  <credit-words font-size="12" justify="right" valign="bottom">Ritchie Blackmore, David Coverdale, Jon Lord &amp; Ian Paice</credit-words>
 </credit>
 <credit>
  <credit-words font-size="12" justify="left" valign="bottom">Ritchie Blackmore, David Coverdale, Jon Lord &amp; Ian Paice</credit-words>
 </credit>
 <part-list>
  <score-part id="P1">
   <part-name>E.Guitar I</part-name>
   <part-abbreviation>E.Gtr</part-abbreviation>
   <midi-instrument id="P1">
    <midi-channel>7</midi-channel>
    <midi-bank>1</midi-bank>
    <midi-program>28</midi-program>
    <volume>80</volume>
    <pan>0</pan>
   </midi-instrument>
  </score-part>
 </part-list>
 <part id="P1">
  <measure number="1">
   <attributes>
    <divisions>2</divisions>
    <key>
     <fifths>-1</fifths>
     <mode>major</mode>
    </key>
    <time>
     <beats>4</beats>
     <beat-type>4</beat-type>
    </time>
    <staves>2</staves>
    <clef number="1">
     <sign>G</sign>
     <line>2</line>
    </clef>
    <clef number="2">
     <sign>TAB</sign>
     <line>5</line>
    </clef>
    <staff-details number="1">
     <staff-lines>6</staff-lines>
     <staff-tuning line="1">
      <tuning-step>E</tuning-step>
      <tuning-octave>2</tuning-octave>
     </staff-tuning>
     <staff-tuning line="2">
      <tuning-step>A</tuning-step>
      <tuning-octave>2</tuning-octave>
     </staff-tuning>
     <staff-tuning line="3">
      <tuning-step>D</tuning-step>
      <tuning-octave>3</tuning-octave>
     </staff-tuning>
     <staff-tuning line="4">
      <tuning-step>G</tuning-step>
      <tuning-octave>3</tuning-octave>
     </staff-tuning>
     <staff-tuning line="5">
      <tuning-step>B</tuning-step>
      <tuning-octave>3</tuning-octave>
     </staff-tuning>
     <staff-tuning line="6">
      <tuning-step>E</tuning-step>
      <tuning-octave>4</tuning-octave>
     </staff-tuning>
    </staff-details>
    <staff-details number="2">
     <staff-lines>6</staff-lines>
     <staff-tuning line="1">
      <tuning-step>E</tuning-step>
      <tuning-octave>2</tuning-octave>
     </staff-tuning>
     <staff-tuning line="2">
      <tuning-step>A</tuning-step>
      <tuning-octave>2</tuning-octave>
     </staff-tuning>
     <staff-tuning line="3">
      <tuning-step>D</tuning-step>
      <tuning-octave>3</tuning-octave>
     </staff-tuning>
     <staff-tuning line="4">
      <tuning-step>G</tuning-step>
      <tuning-octave>3</tuning-octave>
     </staff-tuning>
     <staff-tuning line="5">
      <tuning-step>B</tuning-step>
      <tuning-octave>3</tuning-octave>
     </staff-tuning>
     <staff-tuning line="6">
      <tuning-step>E</tuning-step>
      <tuning-octave>4</tuning-octave>
     </staff-tuning>
    </staff-details>
    <transpose number="1">
     <diatonic>0</diatonic>
     <chromatic>0</chromatic>
     <octave-change>-1</octave-change>
    </transpose>
   </attributes>
   <direction directive="yes">
    <direction-type>
     <metronome default-y="40" parentheses="yes">
      <beat-unit>quarter</beat-unit>
      <per-minute>190</per-minute>
     </metronome>
    </direction-type>
    <sound tempo="190"/>
   </direction>
   <note>
    <pitch>
     <step>G</step>
     <octave>3</octave>
    </pitch>
    <duration>1</duration>
    <voice>1</voice>
    <type>eighth</type>
    <stem>up</stem>
    <notehead>normal</notehead>
    <staff>1</staff>
    <beam number="1">begin</beam>
    <notations>
     <dynamics>
      <f/>
     </dynamics>
     <technical>
      <string>6</string>
      <fret>3</fret>
     </technical>
    </notations>
   </note>
   <note>
    <pitch>
     <step>B</step>
     <alter>-1</alter>
     <octave>4</octave>
    </pitch>
    <duration>1</duration>
    <voice>1</voice>
    <type>eighth</type>
    <accidental>flat</accidental>
    <stem>up</stem>
    <notehead>normal</notehead>
    <staff>1</staff>
    <beam number="1">end</beam>
    <notations>
     <dynamics>
      <f/>
     </dynamics>
     <technical>
      <string>3</string>
      <fret>3</fret>
     </technical>
     <slur type="start"/>
     <slide number="4" type="start"/>
    </notations>
   </note>
   <note>
    <pitch>
     <step>A</step>
     <octave>4</octave>
    </pitch>
    <duration>1</duration>
    <voice>1</voice>
    <type>eighth</type>
    <stem>up</stem>
    <notehead>normal</notehead>
    <staff>1</staff>
    <beam number="1">begin</beam>
    <notations>
     <dynamics>
      <f/>
     </dynamics>
     <technical>
      <string>3</string>
      <fret>2</fret>
     </technical>
     <slur type="stop"/>
     <slide number="4" type="stop"/>
    </notations>
   </note>
   <note>
    <pitch>
     <step>D</step>
     <octave>4</octave>
    </pitch>
    <notehead parentheses="yes">normal</notehead>
    <duration>1</duration>
    <voice>1</voice>
    <type>eighth</type>
    <stem>up</stem>
    <notehead>normal</notehead>
    <staff>1</staff>
    <beam number="1">end</beam>
    <notations>
     <dynamics>
      <f/>
     </dynamics>
     <technical>
      <string>5</string>
      <fret>5</fret>
     </technical>
    </notations>
   </note>
   <note>
    <pitch>
     <step>C</step>
     <octave>5</octave>
    </pitch>
    <duration>3</duration>
    <voice>1</voice>
    <type>quarter</type>
    <dot/>
    <stem>up</stem>
    <notehead>normal</notehead>
    <staff>1</staff>
    <notations>
     <dynamics>
      <f/>
     </dynamics>
     <technical>
      <string>3</string>
      <fret>5</fret>
     </technical>
    </notations>
   </note>
   <note>
    <pitch>
     <step>G</step>
     <octave>3</octave>
    </pitch>
    <duration>1</duration>
    <voice>1</voice>
    <type>eighth</type>
    <stem>up</stem>
    <notehead>normal</notehead>
    <staff>1</staff>
    <notations>
     <dynamics>
      <f/>
     </dynamics>
     <technical>
      <string>6</string>
      <fret>3</fret>
     </technical>
    </notations>
   </note>
   <backup>
    <duration>8</duration>
   </backup>
   <note>
    <pitch>
     <step>G</step>
     <octave>2</octave>
    </pitch>
    <duration>1</duration>
    <voice>5</voice>
    <type>eighth</type>
    <stem>up</stem>
    <staff>2</staff>
    <beam number="1">begin</beam>
    <notations>
     <dynamics>
      <f/>
     </dynamics>
     <technical>
      <string>6</string>
      <fret>3</fret>
     </technical>
    </notations>
   </note>
   <note>
    <pitch>
     <step>B</step>
     <octave>3</octave>
    </pitch>
    <duration>1</duration>
    <voice>5</voice>
    <type>eighth</type>
    <stem>up</stem>
    <staff>2</staff>
    <beam number="1">end</beam>
    <notations>
     <dynamics>
      <f/>
     </dynamics>
     <technical>
      <string>3</string>
      <fret>3</fret>
     </technical>
     <slur type="start"/>
     <slide number="4" type="start"/>
    </notations>
   </note>
   <note>
    <pitch>
     <step>A</step>
     <octave>3</octave>
    </pitch>
    <duration>1</duration>
    <voice>5</voice>
    <type>eighth</type>
    <stem>up</stem>
    <staff>2</staff>
    <beam number="1">begin</beam>
    <notations>
     <dynamics>
      <f/>
     </dynamics>
     <technical>
      <string>3</string>
      <fret>2</fret>
     </technical>
     <slur type="stop"/>
     <slide number="4" type="stop"/>
    </notations>
   </note>
   <note>
    <pitch>
     <step>D</step>
     <octave>3</octave>
    </pitch>
    <notehead parentheses="yes">normal</notehead>
    <duration>1</duration>
    <voice>5</voice>
    <type>eighth</type>
    <stem>up</stem>
    <staff>2</staff>
    <beam number="1">end</beam>
    <notations>
     <dynamics>
      <f/>
     </dynamics>
     <technical>
      <string>5</string>
      <fret>5</fret>
     </technical>
    </notations>
   </note>
   <note>
    <pitch>
     <step>C</step>
     <octave>4</octave>
    </pitch>
    <duration>3</duration>
    <voice>5</voice>
    <type>quarter</type>
    <dot/>
    <stem>up</stem>
    <staff>2</staff>
    <notations>
     <dynamics>
      <f/>
     </dynamics>
     <technical>
      <string>3</string>
      <fret>5</fret>
     </technical>
    </notations>
   </note>
   <note>
    <pitch>
     <step>G</step>
     <octave>2</octave>
    </pitch>
    <duration>1</duration>
    <voice>5</voice>
    <type>eighth</type>
    <stem>up</stem>
    <staff>2</staff>
    <notations>
     <dynamics>
      <f/>
     </dynamics>
     <technical>
      <string>6</string>
      <fret>3</fret>
     </technical>
    </notations>
   </note>
  </measure>
  <measure number="2">
   <note>
    <pitch>
     <step>B</step>
     <alter>-1</alter>
     <octave>4</octave>
    </pitch>
    <duration>1</duration>
    <voice>1</voice>
    <type>eighth</type>
    <accidental>flat</accidental>
    <stem>up</stem>
    <notehead>normal</notehead>
    <staff>1</staff>
    <beam number="1">begin</beam>
    <notations>
     <technical>
      <string>3</string>
      <fret>3</fret>
     </technical>
     <slur type="start"/>
     <slide number="4" type="start"/>
    </notations>
   </note>
   <note>
    <pitch>
     <step>A</step>
     <octave>4</octave>
    </pitch>
    <duration>1</duration>
    <voice>1</voice>
    <type>eighth</type>
    <stem>up</stem>
    <notehead>normal</notehead>
    <staff>1</staff>
    <beam number="1">end</beam>
    <notations>
     <technical>
      <string>3</string>
      <fret>2</fret>
     </technical>
     <slur type="stop"/>
     <slide number="4" type="stop"/>
    </notations>
   </note>
   <note>
    <pitch>
     <step>D</step>
     <octave>4</octave>
    </pitch>
    <duration>1</duration>
    <voice>1</voice>
    <type>eighth</type>
    <stem>up</stem>
    <notehead>normal</notehead>
    <staff>1</staff>
    <notations>
     <technical>
      <string>5</string>
      <fret>5</fret>
     </technical>
    </notations>
   </note>
   <note>
    <pitch>
     <step>C</step>
     <octave>5</octave>
    </pitch>
    <duration>3</duration>
    <voice>1</voice>
    <type>quarter</type>
    <dot/>
    <stem>up</stem>
    <notehead>normal</notehead>
    <staff>1</staff>
    <notations>
     <technical>
      <string>3</string>
      <fret>5</fret>
     </technical>
    </notations>
   </note>
   <note>
    <pitch>
     <step>B</step>
     <alter>-1</alter>
     <octave>4</octave>
    </pitch>
    <duration>2</duration>
    <voice>1</voice>
    <type>quarter</type>
    <stem>up</stem>
    <notehead>normal</notehead>
    <staff>1</staff>
    <notations>
     <technical>
      <string>3</string>
      <fret>3</fret>
     </technical>
    </notations>
   </note>
   <backup>
    <duration>8</duration>
   </backup>
   <note>
    <rest/>
    <duration>8</duration>
    <voice>2</voice>
    <type>whole</type>
    <staff>1</staff>
   </note>
   <backup>
    <duration>8</duration>
   </backup>
   <note>
    <rest/>
    <duration>8</duration>
    <voice>3</voice>
    <type>whole</type>
    <staff>1</staff>
   </note>
   <backup>
    <duration>8</duration>
   </backup>
   <note>
    <rest/>
    <duration>8</duration>
    <voice>4</voice>
    <type>whole</type>
    <staff>1</staff>
   </note>
   <backup>
    <duration>8</duration>
   </backup>
   <note>
    <pitch>
     <step>B</step>
     <octave>3</octave>
    </pitch>
    <duration>1</duration>
    <voice>5</voice>
    <type>eighth</type>
    <stem>up</stem>
    <staff>2</staff>
    <beam number="1">begin</beam>
    <notations>
     <technical>
      <string>3</string>
      <fret>3</fret>
     </technical>
     <slur type="start"/>
     <slide number="4" type="start"/>
    </notations>
   </note>
   <note>
    <pitch>
     <step>A</step>
     <octave>3</octave>
    </pitch>
    <duration>1</duration>
    <voice>5</voice>
    <type>eighth</type>
    <stem>up</stem>
    <staff>2</staff>
    <beam number="1">end</beam>
    <notations>
     <technical>
      <string>3</string>
      <fret>2</fret>
     </technical>
     <slur type="stop"/>
     <slide number="4" type="stop"/>
    </notations>
   </note>
   <note>
    <pitch>
     <step>D</step>
     <octave>3</octave>
    </pitch>
    <duration>1</duration>
    <voice>5</voice>
    <type>eighth</type>
    <stem>up</stem>
    <staff>2</staff>
    <notations>
     <technical>
      <string>5</string>
      <fret>5</fret>
     </technical>
    </notations>
   </note>
   <note>
    <pitch>
     <step>C</step>
     <octave>4</octave>
    </pitch>
    <duration>3</duration>
    <voice>5</voice>
    <type>quarter</type>
    <dot/>
    <stem>up</stem>
    <staff>2</staff>
    <notations>
     <technical>
      <string>3</string>
      <fret>5</fret>
     </technical>
    </notations>
   </note>
   <note>
    <pitch>
     <step>B</step>
     <octave>3</octave>
    </pitch>
    <duration>2</duration>
    <voice>5</voice>
    <type>quarter</type>
    <stem>up</stem>
    <staff>2</staff>
    <notations>
     <technical>
      <string>3</string>
      <fret>3</fret>
     </technical>
    </notations>
   </note>
   <backup>
    <duration>8</duration>
   </backup>
   <note>
    <rest/>
    <duration>8</duration>
    <voice>6</voice>
    <type>whole</type>
    <staff>2</staff>
   </note>
   <backup>
    <duration>8</duration>
   </backup>
   <note>
    <rest/>
    <duration>8</duration>
    <voice>7</voice>
    <type>whole</type>
    <staff>2</staff>
   </note>
   <backup>
    <duration>8</duration>
   </backup>
   <note>
    <rest/>
    <duration>8</duration>
    <voice>8</voice>
    <type>whole</type>
    <staff>2</staff>
   </note>
  </measure>
  <measure number="3">
   <note>
    <pitch>
     <step>G</step>
     <octave>3</octave>
    </pitch>
    <duration>1</duration>
    <voice>1</voice>
    <type>eighth</type>
    <stem>up</stem>
    <notehead>normal</notehead>
    <staff>1</staff>
    <beam number="1">begin</beam>
    <notations>
     <technical>
      <string>6</string>
      <fret>3</fret>
     </technical>
    </notations>
   </note>
   <note>
    <pitch>
     <step>B</step>
     <alter>-1</alter>
     <octave>4</octave>
    </pitch>
    <duration>1</duration>
    <voice>1</voice>
    <type>eighth</type>
    <accidental>flat</accidental>
    <stem>up</stem>
    <notehead>normal</notehead>
    <staff>1</staff>
    <beam number="1">end</beam>
    <notations>
     <technical>
      <string>3</string>
      <fret>3</fret>
     </technical>
     <slur type="start"/>
     <slide number="4" type="start"/>
    </notations>
   </note>
   <note>
    <pitch>
     <step>A</step>
     <octave>4</octave>
    </pitch>
    <duration>1</duration>
    <voice>1</voice>
    <type>eighth</type>
    <stem>up</stem>
    <notehead>normal</notehead>
    <staff>1</staff>
    <beam number="1">begin</beam>
    <notations>
     <technical>
      <string>3</string>
      <fret>2</fret>
     </technical>
     <slur type="stop"/>
     <slide number="4" type="stop"/>
    </notations>
   </note>
   <note>
    <pitch>
     <step>D</step>
     <octave>4</octave>
    </pitch>
    <notehead parentheses="yes">normal</notehead>
    <duration>1</duration>
    <voice>1</voice>
    <type>eighth</type>
    <stem>up</stem>
    <notehead>normal</notehead>
    <staff>1</staff>
    <beam number="1">end</beam>
    <notations>
     <technical>
      <string>5</string>
      <fret>5</fret>
     </technical>
    </notations>
   </note>
   <note>
    <pitch>
     <step>C</step>
     <octave>5</octave>
    </pitch>
    <duration>3</duration>
    <voice>1</voice>
    <type>quarter</type>
    <dot/>
    <stem>up</stem>
    <notehead>normal</notehead>
    <staff>1</staff>
    <notations>
     <technical>
      <string>3</string>
      <fret>5</fret>
     </technical>
    </notations>
   </note>
   <note>
    <pitch>
     <step>G</step>
     <octave>3</octave>
    </pitch>
    <duration>1</duration>
    <voice>1</voice>
    <type>eighth</type>
    <stem>up</stem>
    <notehead>normal</notehead>
    <staff>1</staff>
    <notations>
     <technical>
      <string>6</string>
      <fret>3</fret>
     </technical>
    </notations>
   </note>
   <backup>
    <duration>8</duration>
   </backup>
   <note>
    <pitch>
     <step>G</step>
     <octave>2</octave>
    </pitch>
    <duration>1</duration>
    <voice>5</voice>
    <type>eighth</type>
    <stem>up</stem>
    <staff>2</staff>
    <beam number="1">begin</beam>
    <notations>
     <technical>
      <string>6</string>
      <fret>3</fret>
     </technical>
    </notations>
   </note>
   <note>
    <pitch>
     <step>B</step>
     <octave>3</octave>
    </pitch>
    <duration>1</duration>
    <voice>5</voice>
    <type>eighth</type>
    <stem>up</stem>
    <staff>2</staff>
    <beam number="1">end</beam>
    <notations>
     <technical>
      <string>3</string>
      <fret>3</fret>
     </technical>
     <slur type="start"/>
     <slide number="4" type="start"/>
    </notations>
   </note>
   <note>
    <pitch>
     <step>A</step>
     <octave>3</octave>
    </pitch>
    <duration>1</duration>
    <voice>5</voice>
    <type>eighth</type>
    <stem>up</stem>
    <staff>2</staff>
    <beam number="1">begin</beam>
    <notations>
     <technical>
      <string>3</string>
      <fret>2</fret>
     </technical>
     <slur type="stop"/>
     <slide number="4" type="stop"/>
    </notations>
   </note>
   <note>
    <pitch>
     <step>D</step>
     <octave>3</octave>
    </pitch>
    <notehead parentheses="yes">normal</notehead>
    <duration>1</duration>
    <voice>5</voice>
    <type>eighth</type>
    <stem>up</stem>
    <staff>2</staff>
    <beam number="1">end</beam>
    <notations>
     <technical>
      <string>5</string>
      <fret>5</fret>
     </technical>
    </notations>
   </note>
   <note>
    <pitch>
     <step>C</step>
     <octave>4</octave>
    </pitch>
    <duration>3</duration>
    <voice>5</voice>
    <type>quarter</type>
    <dot/>
    <stem>up</stem>
    <staff>2</staff>
    <notations>
     <technical>
      <string>3</string>
      <fret>5</fret>
     </technical>
    </notations>
   </note>
   <note>
    <pitch>
     <step>G</step>
     <octave>2</octave>
    </pitch>
    <duration>1</duration>
    <voice>5</voice>
    <type>eighth</type>
    <stem>up</stem>
    <staff>2</staff>
    <notations>
     <technical>
      <string>6</string>
      <fret>3</fret>
     </technical>
    </notations>
   </note>
  </measure>
  <measure number="4">
   <note>
    <pitch>
     <step>B</step>
     <alter>-1</alter>
     <octave>4</octave>
    </pitch>
    <duration>1</duration>
    <voice>1</voice>
    <type>eighth</type>
    <accidental>flat</accidental>
    <stem>up</stem>
    <notehead>normal</notehead>
    <staff>1</staff>
    <beam number="1">begin</beam>
    <notations>
     <technical>
      <string>3</string>
      <fret>3</fret>
     </technical>
     <slur type="start"/>
     <slide number="4" type="start"/>
    </notations>
   </note>
   <note>
    <pitch>
     <step>A</step>
     <octave>4</octave>
    </pitch>
    <duration>1</duration>
    <voice>1</voice>
    <type>eighth</type>
    <stem>up</stem>
    <notehead>normal</notehead>
    <staff>1</staff>
    <beam number="1">end</beam>
    <notations>
     <technical>
      <string>3</string>
      <fret>2</fret>
     </technical>
     <slur type="stop"/>
     <slide number="4" type="stop"/>
    </notations>
   </note>
   <note>
    <pitch>
     <step>D</step>
     <octave>4</octave>
    </pitch>
    <duration>1</duration>
    <voice>1</voice>
    <type>eighth</type>
    <stem>up</stem>
    <notehead>normal</notehead>
    <staff>1</staff>
    <notations>
     <technical>
      <string>4</string>
      <fret>0</fret>
     </technical>
    </notations>
   </note>
   <note>
    <pitch>
     <step>F</step>
     <octave>4</octave>
    </pitch>
    <duration>4</duration>
    <voice>1</voice>
    <type>half</type>
    <accidental>natural</accidental>
    <stem>up</stem>
    <notehead>normal</notehead>
    <staff>1</staff>
    <notations>
     <technical>
      <string>4</string>
      <fret>3</fret>
     </technical>
    </notations>
   </note>
   <note>
    <rest/>
    <duration>1</duration>
    <voice>1</voice>
    <type>eighth</type>
    <staff>1</staff>
   </note>
   <backup>
    <duration>8</duration>
   </backup>
   <note>
    <pitch>
     <step>B</step>
     <octave>3</octave>
    </pitch>
    <duration>1</duration>
    <voice>5</voice>
    <type>eighth</type>
    <stem>up</stem>
    <staff>2</staff>
    <beam number="1">begin</beam>
    <notations>
     <technical>
      <string>3</string>
      <fret>3</fret>
     </technical>
     <slur type="start"/>
     <slide number="4" type="start"/>
    </notations>
   </note>
   <note>
    <pitch>
     <step>A</step>
     <octave>3</octave>
    </pitch>
    <duration>1</duration>
    <voice>5</voice>
    <type>eighth</type>
    <stem>up</stem>
    <staff>2</staff>
    <beam number="1">end</beam>
    <notations>
     <technical>
      <string>3</string>
      <fret>2</fret>
     </technical>
     <slur type="stop"/>
     <slide number="4" type="stop"/>
    </notations>
   </note>
   <note>
    <pitch>
     <step>D</step>
     <octave>3</octave>
    </pitch>
    <duration>1</duration>
    <voice>5</voice>
    <type>eighth</type>
    <stem>up</stem>
    <staff>2</staff>
    <notations>
     <technical>
      <string>4</string>
      <fret>0</fret>
     </technical>
    </notations>
   </note>
   <note>
    <pitch>
     <step>F</step>
     <octave>3</octave>
    </pitch>
    <duration>4</duration>
    <voice>5</voice>
    <type>half</type>
    <stem>up</stem>
    <staff>2</staff>
    <notations>
     <technical>
      <string>4</string>
      <fret>3</fret>
     </technical>
    </notations>
   </note>
   <note>
    <rest/>
    <duration>1</duration>
    <voice>5</voice>
    <type>eighth</type>
    <staff>2</staff>
   </note>
  </measure>
  <measure number="5">
   <note>
    <pitch>
     <step>G</step>
     <octave>3</octave>
    </pitch>
    <duration>1</duration>
    <voice>1</voice>
    <type>eighth</type>
    <stem>up</stem>
    <notehead>normal</notehead>
    <staff>1</staff>
    <beam number="1">begin</beam>
    <notations>
     <technical>
      <string>6</string>
      <fret>3</fret>
     </technical>
    </notations>
   </note>
   <note>
    <pitch>
     <step>B</step>
     <alter>-1</alter>
     <octave>4</octave>
    </pitch>
    <duration>1</duration>
    <voice>1</voice>
    <type>eighth</type>
    <accidental>flat</accidental>
    <stem>up</stem>
    <notehead>normal</notehead>
    <staff>1</staff>
    <beam number="1">end</beam>
    <notations>
     <technical>
      <string>3</string>
      <fret>3</fret>
     </technical>
     <slur type="start"/>
     <slide number="4" type="start"/>
    </notations>
   </note>
   <note>
    <pitch>
     <step>A</step>
     <octave>4</octave>
    </pitch>
    <duration>1</duration>
    <voice>1</voice>
    <type>eighth</type>
    <stem>up</stem>
    <notehead>normal</notehead>
    <staff>1</staff>
    <beam number="1">begin</beam>
    <notations>
     <technical>
      <string>3</string>
      <fret>2</fret>
     </technical>
     <slur type="stop"/>
     <slide number="4" type="stop"/>
    </notations>
   </note>
   <note>
    <pitch>
     <step>D</step>
     <octave>4</octave>
    </pitch>
    <notehead parentheses="yes">normal</notehead>
    <duration>1</duration>
    <voice>1</voice>
    <type>eighth</type>
    <stem>up</stem>
    <notehead>normal</notehead>
    <staff>1</staff>
    <beam number="1">end</beam>
    <notations>
     <technical>
      <string>5</string>
      <fret>5</fret>
     </technical>
    </notations>
   </note>
   <note>
    <pitch>
     <step>C</step>
     <octave>5</octave>
    </pitch>
    <duration>3</duration>
    <voice>1</voice>
    <type>quarter</type>
    <dot/>
    <stem>up</stem>
    <notehead>normal</notehead>
    <staff>1</staff>
    <notations>
     <technical>
      <string>3</string>
      <fret>5</fret>
     </technical>
    </notations>
   </note>
   <note>
    <pitch>
     <step>G</step>
     <octave>3</octave>
    </pitch>
    <duration>1</duration>
    <voice>1</voice>
    <type>eighth</type>
    <stem>up</stem>
    <notehead>normal</notehead>
    <staff>1</staff>
    <notations>
     <technical>
      <string>6</string>
      <fret>3</fret>
     </technical>
    </notations>
   </note>
   <backup>
    <duration>8</duration>
   </backup>
   <note>
    <pitch>
     <step>G</step>
     <octave>2</octave>
    </pitch>
    <duration>1</duration>
    <voice>5</voice>
    <type>eighth</type>
    <stem>up</stem>
    <staff>2</staff>
    <beam number="1">begin</beam>
    <notations>
     <technical>
      <string>6</string>
      <fret>3</fret>
     </technical>
    </notations>
   </note>
   <note>
    <pitch>
     <step>B</step>
     <octave>3</octave>
    </pitch>
    <duration>1</duration>
    <voice>5</voice>
    <type>eighth</type>
    <stem>up</stem>
    <staff>2</staff>
    <beam number="1">end</beam>
    <notations>
     <technical>
      <string>3</string>
      <fret>3</fret>
     </technical>
     <slur type="start"/>
     <slide number="4" type="start"/>
    </notations>
   </note>
   <note>
    <pitch>
     <step>A</step>
     <octave>3</octave>
    </pitch>
    <duration>1</duration>
    <voice>5</voice>
    <type>eighth</type>
    <stem>up</stem>
    <staff>2</staff>
    <beam number="1">begin</beam>
    <notations>
     <technical>
      <string>3</string>
      <fret>2</fret>
     </technical>
     <slur type="stop"/>
     <slide number="4" type="stop"/>
    </notations>
   </note>
   <note>
    <pitch>
     <step>D</step>
     <octave>3</octave>
    </pitch>
    <notehead parentheses="yes">normal</notehead>
    <duration>1</duration>
    <voice>5</voice>
    <type>eighth</type>
    <stem>up</stem>
    <staff>2</staff>
    <beam number="1">end</beam>
    <notations>
     <technical>
      <string>5</string>
      <fret>5</fret>
     </technical>
    </notations>
   </note>
   <note>
    <pitch>
     <step>C</step>
     <octave>4</octave>
    </pitch>
    <duration>3</duration>
    <voice>5</voice>
    <type>quarter</type>
    <dot/>
    <stem>up</stem>
    <staff>2</staff>
    <notations>
     <technical>
      <string>3</string>
      <fret>5</fret>
     </technical>
    </notations>
   </note>
   <note>
    <pitch>
     <step>G</step>
     <octave>2</octave>
    </pitch>
    <duration>1</duration>
    <voice>5</voice>
    <type>eighth</type>
    <stem>up</stem>
    <staff>2</staff>
    <notations>
     <technical>
      <string>6</string>
      <fret>3</fret>
     </technical>
    </notations>
   </note>
  </measure>
  <measure number="6">
   <note>
    <pitch>
     <step>B</step>
     <alter>-1</alter>
     <octave>4</octave>
    </pitch>
    <duration>1</duration>
    <voice>1</voice>
    <type>eighth</type>
    <accidental>flat</accidental>
    <stem>up</stem>
    <notehead>normal</notehead>
    <staff>1</staff>
    <beam number="1">begin</beam>
    <notations>
     <technical>
      <string>3</string>
      <fret>3</fret>
     </technical>
     <slur type="start"/>
     <slide number="4" type="start"/>
    </notations>
   </note>
   <note>
    <pitch>
     <step>A</step>
     <octave>4</octave>
    </pitch>
    <duration>1</duration>
    <voice>1</voice>
    <type>eighth</type>
    <stem>up</stem>
    <notehead>normal</notehead>
    <staff>1</staff>
    <beam number="1">end</beam>
    <notations>
     <technical>
      <string>3</string>
      <fret>2</fret>
     </technical>
     <slur type="stop"/>
     <slide number="4" type="stop"/>
    </notations>
   </note>
   <note>
    <pitch>
     <step>D</step>
     <octave>4</octave>
    </pitch>
    <duration>1</duration>
    <voice>1</voice>
    <type>eighth</type>
    <stem>up</stem>
    <notehead>normal</notehead>
    <staff>1</staff>
    <notations>
     <technical>
      <string>5</string>
      <fret>5</fret>
     </technical>
    </notations>
   </note>
   <note>
    <pitch>
     <step>C</step>
     <octave>5</octave>
    </pitch>
    <duration>3</duration>
    <voice>1</voice>
    <type>quarter</type>
    <dot/>
    <stem>up</stem>
    <notehead>normal</notehead>
    <staff>1</staff>
    <notations>
     <technical>
      <string>3</string>
      <fret>5</fret>
     </technical>
    </notations>
   </note>
   <note>
    <pitch>
     <step>B</step>
     <alter>-1</alter>
     <octave>4</octave>
    </pitch>
    <duration>2</duration>
    <voice>1</voice>
    <type>quarter</type>
    <stem>up</stem>
    <notehead>normal</notehead>
    <staff>1</staff>
    <notations>
     <technical>
      <string>3</string>
      <fret>3</fret>
     </technical>
    </notations>
   </note>
   <backup>
    <duration>8</duration>
   </backup>
   <note>
    <rest/>
    <duration>6</duration>
    <voice>2</voice>
    <type>half</type>
    <dot/>
    <staff>1</staff>
   </note>
   <backup>
    <duration>6</duration>
   </backup>
   <note>
    <rest/>
    <duration>6</duration>
    <voice>3</voice>
    <type>half</type>
    <dot/>
    <staff>1</staff>
   </note>
   <backup>
    <duration>6</duration>
   </backup>
   <note>
    <rest/>
    <duration>6</duration>
    <voice>4</voice>
    <type>half</type>
    <dot/>
    <staff>1</staff>
   </note>
   <backup>
    <duration>6</duration>
   </backup>
   <note>
    <pitch>
     <step>B</step>
     <octave>3</octave>
    </pitch>
    <duration>1</duration>
    <voice>5</voice>
    <type>eighth</type>
    <stem>up</stem>
    <staff>2</staff>
    <beam number="1">begin</beam>
    <notations>
     <technical>
      <string>3</string>
      <fret>3</fret>
     </technical>
     <slur type="start"/>
     <slide number="4" type="start"/>
    </notations>
   </note>
   <note>
    <pitch>
     <step>A</step>
     <octave>3</octave>
    </pitch>
    <duration>1</duration>
    <voice>5</voice>
    <type>eighth</type>
    <stem>up</stem>
    <staff>2</staff>
    <beam number="1">end</beam>
    <notations>
     <technical>
      <string>3</string>
      <fret>2</fret>
     </technical>
     <slur type="stop"/>
     <slide number="4" type="stop"/>
    </notations>
   </note>
   <note>
    <pitch>
     <step>D</step>
     <octave>3</octave>
    </pitch>
    <duration>1</duration>
    <voice>5</voice>
    <type>eighth</type>
    <stem>up</stem>
    <staff>2</staff>
    <notations>
     <technical>
      <string>5</string>
      <fret>5</fret>
     </technical>
    </notations>
   </note>
   <note>
    <pitch>
     <step>C</step>
     <octave>4</octave>
    </pitch>
    <duration>3</duration>
    <voice>5</voice>
    <type>quarter</type>
    <dot/>
    <stem>up</stem>
    <staff>2</staff>
    <notations>
     <technical>
      <string>3</string>
      <fret>5</fret>
     </technical>
    </notations>
   </note>
   <note>
    <pitch>
     <step>B</step>
     <octave>3</octave>
    </pitch>
    <duration>2</duration>
    <voice>5</voice>
    <type>quarter</type>
    <stem>up</stem>
    <staff>2</staff>
    <notations>
     <technical>
      <string>3</string>
      <fret>3</fret>
     </technical>
    </notations>
   </note>
   <backup>
    <duration>8</duration>
   </backup>
   <note>
    <rest/>
    <duration>6</duration>
    <voice>6</voice>
    <type>half</type>
    <dot/>
    <staff>2</staff>
   </note>
   <backup>
    <duration>6</duration>
   </backup>
   <note>
    <rest/>
    <duration>6</duration>
    <voice>7</voice>
    <type>half</type>
    <dot/>
    <staff>2</staff>
   </note>
   <backup>
    <duration>6</duration>
   </backup>
   <note>
    <rest/>
    <duration>6</duration>
    <voice>8</voice>
    <type>half</type>
    <dot/>
    <staff>2</staff>
   </note>
  </measure>
  <measure number="7">
   <note>
    <pitch>
     <step>G</step>
     <octave>3</octave>
    </pitch>
    <duration>1</duration>
    <voice>1</voice>
    <type>eighth</type>
    <stem>up</stem>
    <notehead>normal</notehead>
    <staff>1</staff>
    <beam number="1">begin</beam>
    <notations>
     <technical>
      <string>6</string>
      <fret>3</fret>
     </technical>
    </notations>
   </note>
   <note>
    <pitch>
     <step>B</step>
     <alter>-1</alter>
     <octave>4</octave>
    </pitch>
    <duration>1</duration>
    <voice>1</voice>
    <type>eighth</type>
    <accidental>flat</accidental>
    <stem>up</stem>
    <notehead>normal</notehead>
    <staff>1</staff>
    <beam number="1">end</beam>
    <notations>
     <technical>
      <string>3</string>
      <fret>3</fret>
     </technical>
     <slur type="start"/>
     <slide number="4" type="start"/>
    </notations>
   </note>
   <note>
    <pitch>
     <step>A</step>
     <octave>4</octave>
    </pitch>
    <duration>1</duration>
    <voice>1</voice>
    <type>eighth</type>
    <stem>up</stem>
    <notehead>normal</notehead>
    <staff>1</staff>
    <beam number="1">begin</beam>
    <notations>
     <technical>
      <string>3</string>
      <fret>2</fret>
     </technical>
     <slur type="stop"/>
     <slide number="4" type="stop"/>
    </notations>
   </note>
   <note>
    <pitch>
     <step>D</step>
     <octave>4</octave>
    </pitch>
    <notehead parentheses="yes">normal</notehead>
    <duration>1</duration>
    <voice>1</voice>
    <type>eighth</type>
    <stem>up</stem>
    <notehead>normal</notehead>
    <staff>1</staff>
    <beam number="1">end</beam>
    <notations>
     <technical>
      <string>5</string>
      <fret>5</fret>
     </technical>
    </notations>
   </note>
   <note>
    <pitch>
     <step>C</step>
     <octave>5</octave>
    </pitch>
    <duration>3</duration>
    <voice>1</voice>
    <type>quarter</type>
    <dot/>
    <stem>up</stem>
    <notehead>normal</notehead>
    <staff>1</staff>
    <notations>
     <technical>
      <string>3</string>
      <fret>5</fret>
     </technical>
    </notations>
   </note>
   <note>
    <pitch>
     <step>G</step>
     <octave>3</octave>
    </pitch>
    <duration>1</duration>
    <voice>1</voice>
    <type>eighth</type>
    <stem>up</stem>
    <notehead>normal</notehead>
    <staff>1</staff>
    <notations>
     <technical>
      <string>6</string>
      <fret>3</fret>
     </technical>
    </notations>
   </note>
   <backup>
    <duration>8</duration>
   </backup>
   <note>
    <pitch>
     <step>G</step>
     <octave>2</octave>
    </pitch>
    <duration>1</duration>
    <voice>5</voice>
    <type>eighth</type>
    <stem>up</stem>
    <staff>2</staff>
    <beam number="1">begin</beam>
    <notations>
     <technical>
      <string>6</string>
      <fret>3</fret>
     </technical>
    </notations>
   </note>
   <note>
    <pitch>
     <step>B</step>
     <octave>3</octave>
    </pitch>
    <duration>1</duration>
    <voice>5</voice>
    <type>eighth</type>
    <stem>up</stem>
    <staff>2</staff>
    <beam number="1">end</beam>
    <notations>
     <technical>
      <string>3</string>
      <fret>3</fret>
     </technical>
     <slur type="start"/>
     <slide number="4" type="start"/>
    </notations>
   </note>
   <note>
    <pitch>
     <step>A</step>
     <octave>3</octave>
    </pitch>
    <duration>1</duration>
    <voice>5</voice>
    <type>eighth</type>
    <stem>up</stem>
    <staff>2</staff>
    <beam number="1">begin</beam>
    <notations>
     <technical>
      <string>3</string>
      <fret>2</fret>
     </technical>
     <slur type="stop"/>
     <slide number="4" type="stop"/>
    </notations>
   </note>
   <note>
    <pitch>
     <step>D</step>
     <octave>3</octave>
    </pitch>
    <notehead parentheses="yes">normal</notehead>
    <duration>1</duration>
    <voice>5</voice>
    <type>eighth</type>
    <stem>up</stem>
    <staff>2</staff>
    <beam number="1">end</beam>
    <notations>
     <technical>
      <string>5</string>
      <fret>5</fret>
     </technical>
    </notations>
   </note>
   <note>
    <pitch>
     <step>C</step>
     <octave>4</octave>
    </pitch>
    <duration>3</duration>
    <voice>5</voice>
    <type>quarter</type>
    <dot/>
    <stem>up</stem>
    <staff>2</staff>
    <notations>
     <technical>
      <string>3</string>
      <fret>5</fret>
     </technical>
    </notations>
   </note>
   <note>
    <pitch>
     <step>G</step>
     <octave>2</octave>
    </pitch>
    <duration>1</duration>
    <voice>5</voice>
    <type>eighth</type>
    <stem>up</stem>
    <staff>2</staff>
    <notations>
     <technical>
      <string>6</string>
      <fret>3</fret>
     </technical>
    </notations>
   </note>
  </measure>
  <measure number="8">
   <note>
    <pitch>
     <step>B</step>
     <alter>-1</alter>
     <octave>4</octave>
    </pitch>
    <duration>1</duration>
    <voice>1</voice>
    <type>eighth</type>
    <accidental>flat</accidental>
    <stem>up</stem>
    <notehead>normal</notehead>
    <staff>1</staff>
    <beam number="1">begin</beam>
    <notations>
     <technical>
      <string>3</string>
      <fret>3</fret>
     </technical>
     <slur type="start"/>
     <slide number="4" type="start"/>
    </notations>
   </note>
   <note>
    <pitch>
     <step>A</step>
     <octave>4</octave>
    </pitch>
    <duration>1</duration>
    <voice>1</voice>
    <type>eighth</type>
    <stem>up</stem>
    <notehead>normal</notehead>
    <staff>1</staff>
    <beam number="1">end</beam>
    <notations>
     <technical>
      <string>3</string>
      <fret>2</fret>
     </technical>
     <slur type="stop"/>
     <slide number="4" type="stop"/>
    </notations>
   </note>
   <note>
    <pitch>
     <step>D</step>
     <octave>4</octave>
    </pitch>
    <duration>1</duration>
    <voice>1</voice>
    <type>eighth</type>
    <stem>up</stem>
    <notehead>normal</notehead>
    <staff>1</staff>
    <notations>
     <technical>
      <string>4</string>
      <fret>0</fret>
     </technical>
    </notations>
   </note>
   <note>
    <pitch>
     <step>F</step>
     <octave>4</octave>
    </pitch>
    <duration>4</duration>
    <voice>1</voice>
    <type>half</type>
    <accidental>natural</accidental>
    <stem>up</stem>
    <notehead>normal</notehead>
    <staff>1</staff>
    <notations>
     <technical>
      <string>4</string>
      <fret>3</fret>
     </technical>
    </notations>
   </note>
   <note>
    <rest/>
    <duration>1</duration>
    <voice>1</voice>
    <type>eighth</type>
    <staff>1</staff>
   </note>
   <backup>
    <duration>8</duration>
   </backup>
   <note>
    <pitch>
     <step>B</step>
     <octave>3</octave>
    </pitch>
    <duration>1</duration>
    <voice>5</voice>
    <type>eighth</type>
    <stem>up</stem>
    <staff>2</staff>
    <beam number="1">begin</beam>
    <notations>
     <technical>
      <string>3</string>
      <fret>3</fret>
     </technical>
     <slur type="start"/>
     <slide number="4" type="start"/>
    </notations>
   </note>
   <note>
    <pitch>
     <step>A</step>
     <octave>3</octave>
    </pitch>
    <duration>1</duration>
    <voice>5</voice>
    <type>eighth</type>
    <stem>up</stem>
    <staff>2</staff>
    <beam number="1">end</beam>
    <notations>
     <technical>
      <string>3</string>
      <fret>2</fret>
     </technical>
     <slur type="stop"/>
     <slide number="4" type="stop"/>
    </notations>
   </note>
   <note>
    <pitch>
     <step>D</step>
     <octave>3</octave>
    </pitch>
    <duration>1</duration>
    <voice>5</voice>
    <type>eighth</type>
    <stem>up</stem>
    <staff>2</staff>
    <notations>
     <technical>
      <string>4</string>
      <fret>0</fret>
     </technical>
    </notations>
   </note>
   <note>
    <pitch>
     <step>F</step>
     <octave>3</octave>
    </pitch>
    <duration>4</duration>
    <voice>5</voice>
    <type>half</type>
    <stem>up</stem>
    <staff>2</staff>
    <notations>
     <technical>
      <string>4</string>
      <fret>3</fret>
     </technical>
    </notations>
   </note>
   <note>
    <rest/>
    <duration>1</duration>
    <voice>5</voice>
    <type>eighth</type>
    <staff>2</staff>
   </note>
  </measure>
  <measure number="9">
   <note>
    <pitch>
     <step>G</step>
     <octave>3</octave>
    </pitch>
    <duration>1</duration>
    <voice>1</voice>
    <type>eighth</type>
    <stem>up</stem>
    <notehead>normal</notehead>
    <staff>1</staff>
    <beam number="1">begin</beam>
    <notations>
     <technical>
      <string>6</string>
      <fret>3</fret>
     </technical>
    </notations>
   </note>
   <note>
    <pitch>
     <step>B</step>
     <alter>-1</alter>
     <octave>4</octave>
    </pitch>
    <duration>1</duration>
    <voice>1</voice>
    <type>eighth</type>
    <accidental>flat</accidental>
    <stem>up</stem>
    <notehead>normal</notehead>
    <staff>1</staff>
    <beam number="1">end</beam>
    <notations>
     <technical>
      <string>3</string>
      <fret>3</fret>
     </technical>
     <slur type="start"/>
     <slide number="4" type="start"/>
    </notations>
   </note>
   <note>
    <pitch>
     <step>A</step>
     <octave>4</octave>
    </pitch>
    <duration>1</duration>
    <voice>1</voice>
    <type>eighth</type>
    <stem>up</stem>
    <notehead>normal</notehead>
    <staff>1</staff>
    <beam number="1">begin</beam>
    <notations>
     <technical>
      <string>3</string>
      <fret>2</fret>
     </technical>
     <slur type="stop"/>
     <slide number="4" type="stop"/>
    </notations>
   </note>
   <note>
    <pitch>
     <step>D</step>
     <octave>4</octave>
    </pitch>
    <notehead parentheses="yes">normal</notehead>
    <duration>1</duration>
    <voice>1</voice>
    <type>eighth</type>
    <stem>up</stem>
    <notehead>normal</notehead>
    <staff>1</staff>
    <beam number="1">end</beam>
    <notations>
     <technical>
      <string>5</string>
      <fret>5</fret>
     </technical>
    </notations>
   </note>
   <note>
    <pitch>
     <step>C</step>
     <octave>5</octave>
    </pitch>
    <duration>3</duration>
    <voice>1</voice>
    <type>quarter</type>
    <dot/>
    <stem>up</stem>
    <notehead>normal</notehead>
    <staff>1</staff>
    <notations>
     <technical>
      <string>3</string>
      <fret>5</fret>
     </technical>
    </notations>
   </note>
   <note>
    <pitch>
     <step>G</step>
     <octave>3</octave>
    </pitch>
    <duration>1</duration>
    <voice>1</voice>
    <type>eighth</type>
    <stem>up</stem>
    <notehead>normal</notehead>
    <staff>1</staff>
    <notations>
     <technical>
      <string>6</string>
      <fret>3</fret>
     </technical>
    </notations>
   </note>
   <backup>
    <duration>8</duration>
   </backup>
   <note>
    <pitch>
     <step>G</step>
     <octave>2</octave>
    </pitch>
    <duration>1</duration>
    <voice>5</voice>
    <type>eighth</type>
    <stem>up</stem>
    <staff>2</staff>
    <beam number="1">begin</beam>
    <notations>
     <technical>
      <string>6</string>
      <fret>3</fret>
     </technical>
    </notations>
   </note>
   <note>
    <pitch>
     <step>B</step>
     <octave>3</octave>
    </pitch>
    <duration>1</duration>
    <voice>5</voice>
    <type>eighth</type>
    <stem>up</stem>
    <staff>2</staff>
    <beam number="1">end</beam>
    <notations>
     <technical>
      <string>3</string>
      <fret>3</fret>
     </technical>
     <slur type="start"/>
     <slide number="4" type="start"/>
    </notations>
   </note>
   <note>
    <pitch>
     <step>A</step>
     <octave>3</octave>
    </pitch>
    <duration>1</duration>
    <voice>5</voice>
    <type>eighth</type>
    <stem>up</stem>
    <staff>2</staff>
    <beam number="1">begin</beam>
    <notations>
     <technical>
      <string>3</string>
      <fret>2</fret>
     </technical>
     <slur type="stop"/>
     <slide number="4" type="stop"/>
    </notations>
   </note>
   <note>
    <pitch>
     <step>D</step>
     <octave>3</octave>
    </pitch>
    <notehead parentheses="yes">normal</notehead>
    <duration>1</duration>
    <voice>5</voice>
    <type>eighth</type>
    <stem>up</stem>
    <staff>2</staff>
    <beam number="1">end</beam>
    <notations>
     <technical>
      <string>5</string>
      <fret>5</fret>
     </technical>
    </notations>
   </note>
   <note>
    <pitch>
     <step>C</step>
     <octave>4</octave>
    </pitch>
    <duration>3</duration>
    <voice>5</voice>
    <type>quarter</type>
    <dot/>
    <stem>up</stem>
    <staff>2</staff>
    <notations>
     <technical>
      <string>3</string>
      <fret>5</fret>
     </technical>
    </notations>
   </note>
   <note>
    <pitch>
     <step>G</step>
     <octave>2</octave>
    </pitch>
    <duration>1</duration>
    <voice>5</voice>
    <type>eighth</type>
    <stem>up</stem>
    <staff>2</staff>
    <notations>
     <technical>
      <string>6</string>
      <fret>3</fret>
     </technical>
    </notations>
   </note>
  </measure>
  <measure number="10">
   <note>
    <pitch>
     <step>B</step>
     <alter>-1</alter>
     <octave>4</octave>
    </pitch>
    <duration>1</duration>
    <voice>1</voice>
    <type>eighth</type>
    <accidental>flat</accidental>
    <stem>up</stem>
    <notehead>normal</notehead>
    <staff>1</staff>
    <beam number="1">begin</beam>
    <notations>
     <technical>
      <string>3</string>
      <fret>3</fret>
     </technical>
     <slur type="start"/>
     <slide number="4" type="start"/>
    </notations>
   </note>
   <note>
    <pitch>
     <step>A</step>
     <octave>4</octave>
    </pitch>
    <duration>1</duration>
    <voice>1</voice>
    <type>eighth</type>
    <stem>up</stem>
    <notehead>normal</notehead>
    <staff>1</staff>
    <beam number="1">end</beam>
    <notations>
     <technical>
      <string>3</string>
      <fret>2</fret>
     </technical>
     <slur type="stop"/>
     <slide number="4" type="stop"/>
    </notations>
   </note>
   <note>
    <pitch>
     <step>D</step>
     <octave>4</octave>
    </pitch>
    <duration>1</duration>
    <voice>1</voice>
    <type>eighth</type>
    <stem>up</stem>
    <notehead>normal</notehead>
    <staff>1</staff>
    <notations>
     <technical>
      <string>5</string>
      <fret>5</fret>
     </technical>
    </notations>
   </note>
   <note>
    <pitch>
     <step>C</step>
     <octave>5</octave>
    </pitch>
    <duration>3</duration>
    <voice>1</voice>
    <type>quarter</type>
    <dot/>
    <stem>up</stem>
    <notehead>normal</notehead>
    <staff>1</staff>
    <notations>
     <technical>
      <string>3</string>
      <fret>5</fret>
     </technical>
    </notations>
   </note>
   <note>
    <pitch>
     <step>B</step>
     <alter>-1</alter>
     <octave>4</octave>
    </pitch>
    <duration>2</duration>
    <voice>1</voice>
    <type>quarter</type>
    <stem>up</stem>
    <notehead>normal</notehead>
    <staff>1</staff>
    <notations>
     <technical>
      <string>3</string>
      <fret>3</fret>
     </technical>
    </notations>
   </note>
   <backup>
    <duration>8</duration>
   </backup>
   <note>
    <rest/>
    <duration>6</duration>
    <voice>2</voice>
    <type>half</type>
    <dot/>
    <staff>1</staff>
   </note>
   <backup>
    <duration>6</duration>
   </backup>
   <note>
    <rest/>
    <duration>6</duration>
    <voice>3</voice>
    <type>half</type>
    <dot/>
    <staff>1</staff>
   </note>
   <backup>
    <duration>6</duration>
   </backup>
   <note>
    <rest/>
    <duration>6</duration>
    <voice>4</voice>
    <type>half</type>
    <dot/>
    <staff>1</staff>
   </note>
   <backup>
    <duration>6</duration>
   </backup>
   <note>
    <pitch>
     <step>B</step>
     <octave>3</octave>
    </pitch>
    <duration>1</duration>
    <voice>5</voice>
    <type>eighth</type>
    <stem>up</stem>
    <staff>2</staff>
    <beam number="1">begin</beam>
    <notations>
     <technical>
      <string>3</string>
      <fret>3</fret>
     </technical>
     <slur type="start"/>
     <slide number="4" type="start"/>
    </notations>
   </note>
   <note>
    <pitch>
     <step>A</step>
     <octave>3</octave>
    </pitch>
    <duration>1</duration>
    <voice>5</voice>
    <type>eighth</type>
    <stem>up</stem>
    <staff>2</staff>
    <beam number="1">end</beam>
    <notations>
     <technical>
      <string>3</string>
      <fret>2</fret>
     </technical>
     <slur type="stop"/>
     <slide number="4" type="stop"/>
    </notations>
   </note>
   <note>
    <pitch>
     <step>D</step>
     <octave>3</octave>
    </pitch>
    <duration>1</duration>
    <voice>5</voice>
    <type>eighth</type>
    <stem>up</stem>
    <staff>2</staff>
    <notations>
     <technical>
      <string>5</string>
      <fret>5</fret>
     </technical>
    </notations>
   </note>
   <note>
    <pitch>
     <step>C</step>
     <octave>4</octave>
    </pitch>
    <duration>3</duration>
    <voice>5</voice>
    <type>quarter</type>
    <dot/>
    <stem>up</stem>
    <staff>2</staff>
    <notations>
     <technical>
      <string>3</string>
      <fret>5</fret>
     </technical>
    </notations>
   </note>
   <note>
    <pitch>
     <step>B</step>
     <octave>3</octave>
    </pitch>
    <duration>2</duration>
    <voice>5</voice>
    <type>quarter</type>
    <stem>up</stem>
    <staff>2</staff>
    <notations>
     <technical>
      <string>3</string>
      <fret>3</fret>
     </technical>
    </notations>
   </note>
   <backup>
    <duration>8</duration>
   </backup>
   <note>
    <rest/>
    <duration>6</duration>
    <voice>6</voice>
    <type>half</type>
    <dot/>
    <staff>2</staff>
   </note>
   <backup>
    <duration>6</duration>
   </backup>
   <note>
    <rest/>
    <duration>6</duration>
    <voice>7</voice>
    <type>half</type>
    <dot/>
    <staff>2</staff>
   </note>
   <backup>
    <duration>6</duration>
   </backup>
   <note>
    <rest/>
    <duration>6</duration>
    <voice>8</voice>
    <type>half</type>
    <dot/>
    <staff>2</staff>
   </note>
  </measure>
  <measure number="11">
   <note>
    <pitch>
     <step>G</step>
     <octave>3</octave>
    </pitch>
    <duration>1</duration>
    <voice>1</voice>
    <type>eighth</type>
    <stem>up</stem>
    <notehead>normal</notehead>
    <staff>1</staff>
    <beam number="1">begin</beam>
    <notations>
     <technical>
      <string>6</string>
      <fret>3</fret>
     </technical>
    </notations>
   </note>
   <note>
    <pitch>
     <step>B</step>
     <alter>-1</alter>
     <octave>4</octave>
    </pitch>
    <duration>1</duration>
    <voice>1</voice>
    <type>eighth</type>
    <accidental>flat</accidental>
    <stem>up</stem>
    <notehead>normal</notehead>
    <staff>1</staff>
    <beam number="1">end</beam>
    <notations>
     <technical>
      <string>3</string>
      <fret>3</fret>
     </technical>
     <slur type="start"/>
     <slide number="4" type="start"/>
    </notations>
   </note>
   <note>
    <pitch>
     <step>A</step>
     <octave>4</octave>
    </pitch>
    <duration>1</duration>
    <voice>1</voice>
    <type>eighth</type>
    <stem>up</stem>
    <notehead>normal</notehead>
    <staff>1</staff>
    <beam number="1">begin</beam>
    <notations>
     <technical>
      <string>3</string>
      <fret>2</fret>
     </technical>
     <slur type="stop"/>
     <slide number="4" type="stop"/>
    </notations>
   </note>
   <note>
    <pitch>
     <step>D</step>
     <octave>4</octave>
    </pitch>
    <notehead parentheses="yes">normal</notehead>
    <duration>1</duration>
    <voice>1</voice>
    <type>eighth</type>
    <stem>up</stem>
    <notehead>normal</notehead>
    <staff>1</staff>
    <beam number="1">end</beam>
    <notations>
     <technical>
      <string>5</string>
      <fret>5</fret>
     </technical>
    </notations>
   </note>
   <note>
    <pitch>
     <step>C</step>
     <octave>5</octave>
    </pitch>
    <duration>3</duration>
    <voice>1</voice>
    <type>quarter</type>
    <dot/>
    <stem>up</stem>
    <notehead>normal</notehead>
    <staff>1</staff>
    <notations>
     <technical>
      <string>3</string>
      <fret>5</fret>
     </technical>
    </notations>
   </note>
   <note>
    <pitch>
     <step>G</step>
     <octave>3</octave>
    </pitch>
    <duration>1</duration>
    <voice>1</voice>
    <type>eighth</type>
    <stem>up</stem>
    <notehead>normal</notehead>
    <staff>1</staff>
    <notations>
     <technical>
      <string>6</string>
      <fret>3</fret>
     </technical>
    </notations>
   </note>
   <backup>
    <duration>8</duration>
   </backup>
   <note>
    <pitch>
     <step>G</step>
     <octave>2</octave>
    </pitch>
    <duration>1</duration>
    <voice>5</voice>
    <type>eighth</type>
    <stem>up</stem>
    <staff>2</staff>
    <beam number="1">begin</beam>
    <notations>
     <technical>
      <string>6</string>
      <fret>3</fret>
     </technical>
    </notations>
   </note>
   <note>
    <pitch>
     <step>B</step>
     <octave>3</octave>
    </pitch>
    <duration>1</duration>
    <voice>5</voice>
    <type>eighth</type>
    <stem>up</stem>
    <staff>2</staff>
    <beam number="1">end</beam>
    <notations>
     <technical>
      <string>3</string>
      <fret>3</fret>
     </technical>
     <slur type="start"/>
     <slide number="4" type="start"/>
    </notations>
   </note>
   <note>
    <pitch>
     <step>A</step>
     <octave>3</octave>
    </pitch>
    <duration>1</duration>
    <voice>5</voice>
    <type>eighth</type>
    <stem>up</stem>
    <staff>2</staff>
    <beam number="1">begin</beam>
    <notations>
     <technical>
      <string>3</string>
      <fret>2</fret>
     </technical>
     <slur type="stop"/>
     <slide number="4" type="stop"/>
    </notations>
   </note>
   <note>
    <pitch>
     <step>D</step>
     <octave>3</octave>
    </pitch>
    <notehead parentheses="yes">normal</notehead>
    <duration>1</duration>
    <voice>5</voice>
    <type>eighth</type>
    <stem>up</stem>
    <staff>2</staff>
    <beam number="1">end</beam>
    <notations>
     <technical>
      <string>5</string>
      <fret>5</fret>
     </technical>
    </notations>
   </note>
   <note>
    <pitch>
     <step>C</step>
     <octave>4</octave>
    </pitch>
    <duration>3</duration>
    <voice>5</voice>
    <type>quarter</type>
    <dot/>
    <stem>up</stem>
    <staff>2</staff>
    <notations>
     <technical>
      <string>3</string>
      <fret>5</fret>
     </technical>
    </notations>
   </note>
   <note>
    <pitch>
     <step>G</step>
     <octave>2</octave>
    </pitch>
    <duration>1</duration>
    <voice>5</voice>
    <type>eighth</type>
    <stem>up</stem>
    <staff>2</staff>
    <notations>
     <technical>
      <string>6</string>
      <fret>3</fret>
     </technical>
    </notations>
   </note>
  </measure>
  <measure number="12">
   <note>
    <pitch>
     <step>B</step>
     <alter>-1</alter>
     <octave>4</octave>
    </pitch>
    <duration>1</duration>
    <voice>1</voice>
    <type>eighth</type>
    <accidental>flat</accidental>
    <stem>up</stem>
    <notehead>normal</notehead>
    <staff>1</staff>
    <beam number="1">begin</beam>
    <notations>
     <technical>
      <string>3</string>
      <fret>3</fret>
     </technical>
     <slur type="start"/>
     <slide number="4" type="start"/>
    </notations>
   </note>
   <note>
    <pitch>
     <step>A</step>
     <octave>4</octave>
    </pitch>
    <duration>1</duration>
    <voice>1</voice>
    <type>eighth</type>
    <stem>up</stem>
    <notehead>normal</notehead>
    <staff>1</staff>
    <beam number="1">end</beam>
    <notations>
     <technical>
      <string>3</string>
      <fret>2</fret>
     </technical>
     <slur type="stop"/>
     <slide number="4" type="stop"/>
    </notations>
   </note>
   <note>
    <pitch>
     <step>D</step>
     <octave>4</octave>
    </pitch>
    <duration>1</duration>
    <voice>1</voice>
    <type>eighth</type>
    <stem>up</stem>
    <notehead>normal</notehead>
    <staff>1</staff>
    <notations>
     <technical>
      <string>4</string>
      <fret>0</fret>
     </technical>
    </notations>
   </note>
   <note>
    <pitch>
     <step>F</step>
     <octave>4</octave>
    </pitch>
    <duration>4</duration>
    <voice>1</voice>
    <type>half</type>
    <accidental>natural</accidental>
    <stem>up</stem>
    <notehead>normal</notehead>
    <staff>1</staff>
    <notations>
     <technical>
      <string>4</string>
      <fret>3</fret>
     </technical>
    </notations>
   </note>
   <note>
    <rest/>
    <duration>1</duration>
    <voice>1</voice>
    <type>eighth</type>
    <staff>1</staff>
   </note>
   <backup>
    <duration>8</duration>
   </backup>
   <note>
    <pitch>
     <step>B</step>
     <octave>3</octave>
    </pitch>
    <duration>1</duration>
    <voice>5</voice>
    <type>eighth</type>
    <stem>up</stem>
    <staff>2</staff>
    <beam number="1">begin</beam>
    <notations>
     <technical>
      <string>3</string>
      <fret>3</fret>
     </technical>
     <slur type="start"/>
     <slide number="4" type="start"/>
    </notations>
   </note>
   <note>
    <pitch>
     <step>A</step>
     <octave>3</octave>
    </pitch>
    <duration>1</duration>
    <voice>5</voice>
    <type>eighth</type>
    <stem>up</stem>
    <staff>2</staff>
    <beam number="1">end</beam>
    <notations>
     <technical>
      <string>3</string>
      <fret>2</fret>
     </technical>
     <slur type="stop"/>
     <slide number="4" type="stop"/>
    </notations>
   </note>
   <note>
    <pitch>
     <step>D</step>
     <octave>3</octave>
    </pitch>
    <duration>1</duration>
    <voice>5</voice>
    <type>eighth</type>
    <stem>up</stem>
    <staff>2</staff>
    <notations>
     <technical>
      <string>4</string>
      <fret>0</fret>
     </technical>
    </notations>
   </note>
   <note>
    <pitch>
     <step>F</step>
     <octave>3</octave>
    </pitch>
    <duration>4</duration>
    <voice>5</voice>
    <type>half</type>
    <stem>up</stem>
    <staff>2</staff>
    <notations>
     <technical>
      <string>4</string>
      <fret>3</fret>
     </technical>
    </notations>
   </note>
   <note>
    <rest/>
    <duration>1</duration>
    <voice>5</voice>
    <type>eighth</type>
    <staff>2</staff>
   </note>
  </measure>
  <measure number="13">
   <note>
    <pitch>
     <step>G</step>
     <octave>3</octave>
    </pitch>
    <duration>1</duration>
    <voice>1</voice>
    <type>eighth</type>
    <stem>up</stem>
    <notehead>normal</notehead>
    <staff>1</staff>
    <beam number="1">begin</beam>
    <notations>
     <technical>
      <string>6</string>
      <fret>3</fret>
     </technical>
    </notations>
   </note>
   <note>
    <pitch>
     <step>B</step>
     <alter>-1</alter>
     <octave>4</octave>
    </pitch>
    <duration>1</duration>
    <voice>1</voice>
    <type>eighth</type>
    <accidental>flat</accidental>
    <stem>up</stem>
    <notehead>normal</notehead>
    <staff>1</staff>
    <beam number="1">end</beam>
    <notations>
     <technical>
      <string>3</string>
      <fret>3</fret>
     </technical>
     <slur type="start"/>
     <slide number="4" type="start"/>
    </notations>
   </note>
   <note>
    <pitch>
     <step>A</step>
     <octave>4</octave>
    </pitch>
    <duration>1</duration>
    <voice>1</voice>
    <type>eighth</type>
    <stem>up</stem>
    <notehead>normal</notehead>
    <staff>1</staff>
    <beam number="1">begin</beam>
    <notations>
     <technical>
      <string>3</string>
      <fret>2</fret>
     </technical>
     <slur type="stop"/>
     <slide number="4" type="stop"/>
    </notations>
   </note>
   <note>
    <pitch>
     <step>D</step>
     <octave>4</octave>
    </pitch>
    <notehead parentheses="yes">normal</notehead>
    <duration>1</duration>
    <voice>1</voice>
    <type>eighth</type>
    <stem>up</stem>
    <notehead>normal</notehead>
    <staff>1</staff>
    <beam number="1">end</beam>
    <notations>
     <technical>
      <string>5</string>
      <fret>5</fret>
     </technical>
    </notations>
   </note>
   <note>
    <pitch>
     <step>C</step>
     <octave>5</octave>
    </pitch>
    <duration>3</duration>
    <voice>1</voice>
    <type>quarter</type>
    <dot/>
    <stem>up</stem>
    <notehead>normal</notehead>
    <staff>1</staff>
    <notations>
     <technical>
      <string>3</string>
      <fret>5</fret>
     </technical>
    </notations>
   </note>
   <note>
    <pitch>
     <step>G</step>
     <octave>3</octave>
    </pitch>
    <duration>1</duration>
    <voice>1</voice>
    <type>eighth</type>
    <stem>up</stem>
    <notehead>normal</notehead>
    <staff>1</staff>
    <notations>
     <technical>
      <string>6</string>
      <fret>3</fret>
     </technical>
    </notations>
   </note>
   <backup>
    <duration>8</duration>
   </backup>
   <note>
    <pitch>
     <step>G</step>
     <octave>2</octave>
    </pitch>
    <duration>1</duration>
    <voice>5</voice>
    <type>eighth</type>
    <stem>up</stem>
    <staff>2</staff>
    <beam number="1">begin</beam>
    <notations>
     <technical>
      <string>6</string>
      <fret>3</fret>
     </technical>
    </notations>
   </note>
   <note>
    <pitch>
     <step>B</step>
     <octave>3</octave>
    </pitch>
    <duration>1</duration>
    <voice>5</voice>
    <type>eighth</type>
    <stem>up</stem>
    <staff>2</staff>
    <beam number="1">end</beam>
    <notations>
     <technical>
      <string>3</string>
      <fret>3</fret>
     </technical>
     <slur type="start"/>
     <slide number="4" type="start"/>
    </notations>
   </note>
   <note>
    <pitch>
     <step>A</step>
     <octave>3</octave>
    </pitch>
    <duration>1</duration>
    <voice>5</voice>
    <type>eighth</type>
    <stem>up</stem>
    <staff>2</staff>
    <beam number="1">begin</beam>
    <notations>
     <technical>
      <string>3</string>
      <fret>2</fret>
     </technical>
     <slur type="stop"/>
     <slide number="4" type="stop"/>
    </notations>
   </note>
   <note>
    <pitch>
     <step>D</step>
     <octave>3</octave>
    </pitch>
    <notehead parentheses="yes">normal</notehead>
    <duration>1</duration>
    <voice>5</voice>
    <type>eighth</type>
    <stem>up</stem>
    <staff>2</staff>
    <beam number="1">end</beam>
    <notations>
     <technical>
      <string>5</string>
      <fret>5</fret>
     </technical>
    </notations>
   </note>
   <note>
    <pitch>
     <step>C</step>
     <octave>4</octave>
    </pitch>
    <duration>3</duration>
    <voice>5</voice>
    <type>quarter</type>
    <dot/>
    <stem>up</stem>
    <staff>2</staff>
    <notations>
     <technical>
      <string>3</string>
      <fret>5</fret>
     </technical>
    </notations>
   </note>
   <note>
    <pitch>
     <step>G</step>
     <octave>2</octave>
    </pitch>
    <duration>1</duration>
    <voice>5</voice>
    <type>eighth</type>
    <stem>up</stem>
    <staff>2</staff>
    <notations>
     <technical>
      <string>6</string>
      <fret>3</fret>
     </technical>
    </notations>
   </note>
  </measure>
  <measure number="14">
   <note>
    <pitch>
     <step>B</step>
     <alter>-1</alter>
     <octave>4</octave>
    </pitch>
    <duration>1</duration>
    <voice>1</voice>
    <type>eighth</type>
    <accidental>flat</accidental>
    <stem>up</stem>
    <notehead>normal</notehead>
    <staff>1</staff>
    <beam number="1">begin</beam>
    <notations>
     <technical>
      <string>3</string>
      <fret>3</fret>
     </technical>
     <slur type="start"/>
     <slide number="4" type="start"/>
    </notations>
   </note>
   <note>
    <pitch>
     <step>A</step>
     <octave>4</octave>
    </pitch>
    <duration>1</duration>
    <voice>1</voice>
    <type>eighth</type>
    <stem>up</stem>
    <notehead>normal</notehead>
    <staff>1</staff>
    <beam number="1">end</beam>
    <notations>
     <technical>
      <string>3</string>
      <fret>2</fret>
     </technical>
     <slur type="stop"/>
     <slide number="4" type="stop"/>
    </notations>
   </note>
   <note>
    <pitch>
     <step>D</step>
     <octave>4</octave>
    </pitch>
    <duration>1</duration>
    <voice>1</voice>
    <type>eighth</type>
    <stem>up</stem>
    <notehead>normal</notehead>
    <staff>1</staff>
    <notations>
     <technical>
      <string>5</string>
      <fret>5</fret>
     </technical>
    </notations>
   </note>
   <note>
    <pitch>
     <step>C</step>
     <octave>5</octave>
    </pitch>
    <duration>3</duration>
    <voice>1</voice>
    <type>quarter</type>
    <dot/>
    <stem>up</stem>
    <notehead>normal</notehead>
    <staff>1</staff>
    <notations>
     <technical>
      <string>3</string>
      <fret>5</fret>
     </technical>
    </notations>
   </note>
   <note>
    <pitch>
     <step>B</step>
     <alter>-1</alter>
     <octave>4</octave>
    </pitch>
    <duration>2</duration>
    <voice>1</voice>
    <type>quarter</type>
    <stem>up</stem>
    <notehead>normal</notehead>
    <staff>1</staff>
    <notations>
     <technical>
      <string>3</string>
      <fret>3</fret>
     </technical>
    </notations>
   </note>
   <backup>
    <duration>8</duration>
   </backup>
   <note>
    <rest/>
    <duration>6</duration>
    <voice>2</voice>
    <type>half</type>
    <dot/>
    <staff>1</staff>
   </note>
   <backup>
    <duration>6</duration>
   </backup>
   <note>
    <rest/>
    <duration>6</duration>
    <voice>3</voice>
    <type>half</type>
    <dot/>
    <staff>1</staff>
   </note>
   <backup>
    <duration>6</duration>
   </backup>
   <note>
    <rest/>
    <duration>6</duration>
    <voice>4</voice>
    <type>half</type>
    <dot/>
    <staff>1</staff>
   </note>
   <backup>
    <duration>6</duration>
   </backup>
   <note>
    <pitch>
     <step>B</step>
     <octave>3</octave>
    </pitch>
    <duration>1</duration>
    <voice>5</voice>
    <type>eighth</type>
    <stem>up</stem>
    <staff>2</staff>
    <beam number="1">begin</beam>
    <notations>
     <technical>
      <string>3</string>
      <fret>3</fret>
     </technical>
     <slur type="start"/>
     <slide number="4" type="start"/>
    </notations>
   </note>
   <note>
    <pitch>
     <step>A</step>
     <octave>3</octave>
    </pitch>
    <duration>1</duration>
    <voice>5</voice>
    <type>eighth</type>
    <stem>up</stem>
    <staff>2</staff>
    <beam number="1">end</beam>
    <notations>
     <technical>
      <string>3</string>
      <fret>2</fret>
     </technical>
     <slur type="stop"/>
     <slide number="4" type="stop"/>
    </notations>
   </note>
   <note>
    <pitch>
     <step>D</step>
     <octave>3</octave>
    </pitch>
    <duration>1</duration>
    <voice>5</voice>
    <type>eighth</type>
    <stem>up</stem>
    <staff>2</staff>
    <notations>
     <technical>
      <string>5</string>
      <fret>5</fret>
     </technical>
    </notations>
   </note>
   <note>
    <pitch>
     <step>C</step>
     <octave>4</octave>
    </pitch>
    <duration>3</duration>
    <voice>5</voice>
    <type>quarter</type>
    <dot/>
    <stem>up</stem>
    <staff>2</staff>
    <notations>
     <technical>
      <string>3</string>
      <fret>5</fret>
     </technical>
    </notations>
   </note>
   <note>
    <pitch>
     <step>B</step>
     <octave>3</octave>
    </pitch>
    <duration>2</duration>
    <voice>5</voice>
    <type>quarter</type>
    <stem>up</stem>
    <staff>2</staff>
    <notations>
     <technical>
      <string>3</string>
      <fret>3</fret>
     </technical>
    </notations>
   </note>
   <backup>
    <duration>8</duration>
   </backup>
   <note>
    <rest/>
    <duration>6</duration>
    <voice>6</voice>
    <type>half</type>
    <dot/>
    <staff>2</staff>
   </note>
   <backup>
    <duration>6</duration>
   </backup>
   <note>
    <rest/>
    <duration>6</duration>
    <voice>7</voice>
    <type>half</type>
    <dot/>
    <staff>2</staff>
   </note>
   <backup>
    <duration>6</duration>
   </backup>
   <note>
    <rest/>
    <duration>6</duration>
    <voice>8</voice>
    <type>half</type>
    <dot/>
    <staff>2</staff>
   </note>
  </measure>
  <measure number="15">
   <note>
    <pitch>
     <step>G</step>
     <octave>3</octave>
    </pitch>
    <duration>1</duration>
    <voice>1</voice>
    <type>eighth</type>
    <stem>up</stem>
    <notehead>normal</notehead>
    <staff>1</staff>
    <beam number="1">begin</beam>
    <notations>
     <technical>
      <string>6</string>
      <fret>3</fret>
     </technical>
    </notations>
   </note>
   <note>
    <pitch>
     <step>B</step>
     <alter>-1</alter>
     <octave>4</octave>
    </pitch>
    <duration>1</duration>
    <voice>1</voice>
    <type>eighth</type>
    <accidental>flat</accidental>
    <stem>up</stem>
    <notehead>normal</notehead>
    <staff>1</staff>
    <beam number="1">end</beam>
    <notations>
     <technical>
      <string>3</string>
      <fret>3</fret>
     </technical>
     <slur type="start"/>
     <slide number="4" type="start"/>
    </notations>
   </note>
   <note>
    <pitch>
     <step>A</step>
     <octave>4</octave>
    </pitch>
    <duration>1</duration>
    <voice>1</voice>
    <type>eighth</type>
    <stem>up</stem>
    <notehead>normal</notehead>
    <staff>1</staff>
    <beam number="1">begin</beam>
    <notations>
     <technical>
      <string>3</string>
      <fret>2</fret>
     </technical>
     <slur type="stop"/>
     <slide number="4" type="stop"/>
    </notations>
   </note>
   <note>
    <pitch>
     <step>D</step>
     <octave>4</octave>
    </pitch>
    <notehead parentheses="yes">normal</notehead>
    <duration>1</duration>
    <voice>1</voice>
    <type>eighth</type>
    <stem>up</stem>
    <notehead>normal</notehead>
    <staff>1</staff>
    <beam number="1">end</beam>
    <notations>
     <technical>
      <string>5</string>
      <fret>5</fret>
     </technical>
    </notations>
   </note>
   <note>
    <pitch>
     <step>C</step>
     <octave>5</octave>
    </pitch>
    <duration>3</duration>
    <voice>1</voice>
    <type>quarter</type>
    <dot/>
    <stem>up</stem>
    <notehead>normal</notehead>
    <staff>1</staff>
    <notations>
     <technical>
      <string>3</string>
      <fret>5</fret>
     </technical>
    </notations>
   </note>
   <note>
    <pitch>
     <step>G</step>
     <octave>3</octave>
    </pitch>
    <duration>1</duration>
    <voice>1</voice>
    <type>eighth</type>
    <stem>up</stem>
    <notehead>normal</notehead>
    <staff>1</staff>
    <notations>
     <technical>
      <string>6</string>
      <fret>3</fret>
     </technical>
    </notations>
   </note>
   <backup>
    <duration>8</duration>
   </backup>
   <note>
    <pitch>
     <step>G</step>
     <octave>2</octave>
    </pitch>
    <duration>1</duration>
    <voice>5</voice>
    <type>eighth</type>
    <stem>up</stem>
    <staff>2</staff>
    <beam number="1">begin</beam>
    <notations>
     <technical>
      <string>6</string>
      <fret>3</fret>
     </technical>
    </notations>
   </note>
   <note>
    <pitch>
     <step>B</step>
     <octave>3</octave>
    </pitch>
    <duration>1</duration>
    <voice>5</voice>
    <type>eighth</type>
    <stem>up</stem>
    <staff>2</staff>
    <beam number="1">end</beam>
    <notations>
     <technical>
      <string>3</string>
      <fret>3</fret>
     </technical>
     <slur type="start"/>
     <slide number="4" type="start"/>
    </notations>
   </note>
   <note>
    <pitch>
     <step>A</step>
     <octave>3</octave>
    </pitch>
    <duration>1</duration>
    <voice>5</voice>
    <type>eighth</type>
    <stem>up</stem>
    <staff>2</staff>
    <beam number="1">begin</beam>
    <notations>
     <technical>
      <string>3</string>
      <fret>2</fret>
     </technical>
     <slur type="stop"/>
     <slide number="4" type="stop"/>
    </notations>
   </note>
   <note>
    <pitch>
     <step>D</step>
     <octave>3</octave>
    </pitch>
    <notehead parentheses="yes">normal</notehead>
    <duration>1</duration>
    <voice>5</voice>
    <type>eighth</type>
    <stem>up</stem>
    <staff>2</staff>
    <beam number="1">end</beam>
    <notations>
     <technical>
      <string>5</string>
      <fret>5</fret>
     </technical>
    </notations>
   </note>
   <note>
    <pitch>
     <step>C</step>
     <octave>4</octave>
    </pitch>
    <duration>3</duration>
    <voice>5</voice>
    <type>quarter</type>
    <dot/>
    <stem>up</stem>
    <staff>2</staff>
    <notations>
     <technical>
      <string>3</string>
      <fret>5</fret>
     </technical>
    </notations>
   </note>
   <note>
    <pitch>
     <step>G</step>
     <octave>2</octave>
    </pitch>
    <duration>1</duration>
    <voice>5</voice>
    <type>eighth</type>
    <stem>up</stem>
    <staff>2</staff>
    <notations>
     <technical>
      <string>6</string>
      <fret>3</fret>
     </technical>
    </notations>
   </note>
  </measure>
  <measure number="16">
   <note>
    <pitch>
     <step>B</step>
     <alter>-1</alter>
     <octave>4</octave>
    </pitch>
    <duration>1</duration>
    <voice>1</voice>
    <type>eighth</type>
    <accidental>flat</accidental>
    <stem>up</stem>
    <notehead>normal</notehead>
    <staff>1</staff>
    <beam number="1">begin</beam>
    <notations>
     <technical>
      <string>3</string>
      <fret>3</fret>
     </technical>
     <slur type="start"/>
     <slide number="4" type="start"/>
    </notations>
   </note>
   <note>
    <pitch>
     <step>A</step>
     <octave>4</octave>
    </pitch>
    <duration>1</duration>
    <voice>1</voice>
    <type>eighth</type>
    <stem>up</stem>
    <notehead>normal</notehead>
    <staff>1</staff>
    <beam number="1">end</beam>
    <notations>
     <technical>
      <string>3</string>
      <fret>2</fret>
     </technical>
     <slur type="stop"/>
     <slide number="4" type="stop"/>
    </notations>
   </note>
   <note>
    <pitch>
     <step>D</step>
     <octave>4</octave>
    </pitch>
    <duration>1</duration>
    <voice>1</voice>
    <type>eighth</type>
    <stem>up</stem>
    <notehead>normal</notehead>
    <staff>1</staff>
    <notations>
     <technical>
      <string>4</string>
      <fret>0</fret>
     </technical>
    </notations>
   </note>
   <note>
    <pitch>
     <step>F</step>
     <octave>3</octave>
    </pitch>
    <duration>4</duration>
    <voice>1</voice>
    <type>half</type>
    <accidental>natural</accidental>
    <stem>up</stem>
    <notehead>normal</notehead>
    <staff>1</staff>
    <notations>
     <technical>
      <string>6</string>
      <fret>1</fret>
     </technical>
    </notations>
   </note>
   <note>
    <rest/>
    <duration>1</duration>
    <voice>1</voice>
    <type>eighth</type>
    <staff>1</staff>
   </note>
   <backup>
    <duration>8</duration>
   </backup>
   <note>
    <pitch>
     <step>B</step>
     <octave>3</octave>
    </pitch>
    <duration>1</duration>
    <voice>5</voice>
    <type>eighth</type>
    <stem>up</stem>
    <staff>2</staff>
    <beam number="1">begin</beam>
    <notations>
     <technical>
      <string>3</string>
      <fret>3</fret>
     </technical>
     <slur type="start"/>
     <slide number="4" type="start"/>
    </notations>
   </note>
   <note>
    <pitch>
     <step>A</step>
     <octave>3</octave>
    </pitch>
    <duration>1</duration>
    <voice>5</voice>
    <type>eighth</type>
    <stem>up</stem>
    <staff>2</staff>
    <beam number="1">end</beam>
    <notations>
     <technical>
      <string>3</string>
      <fret>2</fret>
     </technical>
     <slur type="stop"/>
     <slide number="4" type="stop"/>
    </notations>
   </note>
   <note>
    <pitch>
     <step>D</step>
     <octave>3</octave>
    </pitch>
    <duration>1</duration>
    <voice>5</voice>
    <type>eighth</type>
    <stem>up</stem>
    <staff>2</staff>
    <notations>
     <technical>
      <string>4</string>
      <fret>0</fret>
     </technical>
    </notations>
   </note>
   <note>
    <pitch>
     <step>F</step>
     <octave>2</octave>
    </pitch>
    <duration>4</duration>
    <voice>5</voice>
    <type>half</type>
    <stem>up</stem>
    <staff>2</staff>
    <notations>
     <technical>
      <string>6</string>
      <fret>1</fret>
     </technical>
    </notations>
   </note>
   <note>
    <rest/>
    <duration>1</duration>
    <voice>5</voice>
    <type>eighth</type>
    <staff>2</staff>
   </note>
  </measure>
 </part>
</score-partwise>
