G04 #@! TF.FileFunction,Soldermask,Top*
%FSLAX46Y46*%
G04 Gerber Fmt 4.6, Leading zero omitted, Abs format (unit mm)*
G04 Created by KiCad (PCBNEW 4.0.1-stable) date 2016 May 22, Sunday 15:19:25*
%MOMM*%
G01*
G04 APERTURE LIST*
%ADD10C,0.100000*%
%ADD11R,3.999180X2.000200*%
%ADD12R,1.598880X1.598880*%
%ADD13R,2.127200X2.432000*%
%ADD14O,2.127200X2.432000*%
%ADD15R,1.900000X1.700000*%
%ADD16R,1.543000X0.908000*%
G04 APERTURE END LIST*
D10*
D11*
X114510820Y-72390000D03*
X109009180Y-72390000D03*
D12*
X92489020Y-50800000D03*
X90390980Y-50800000D03*
X92489020Y-54610000D03*
X90390980Y-54610000D03*
X92489020Y-58420000D03*
X90390980Y-58420000D03*
X92489020Y-62230000D03*
X90390980Y-62230000D03*
X92489020Y-66040000D03*
X90390980Y-66040000D03*
X92489020Y-69850000D03*
X90390980Y-69850000D03*
X92489020Y-73660000D03*
X90390980Y-73660000D03*
X92489020Y-77470000D03*
X90390980Y-77470000D03*
X131030980Y-77470000D03*
X133129020Y-77470000D03*
X131030980Y-73660000D03*
X133129020Y-73660000D03*
X131030980Y-69850000D03*
X133129020Y-69850000D03*
X131030980Y-66040000D03*
X133129020Y-66040000D03*
X131030980Y-62230000D03*
X133129020Y-62230000D03*
X131030980Y-58420000D03*
X133129020Y-58420000D03*
X131030980Y-54610000D03*
X133129020Y-54610000D03*
X131030980Y-50800000D03*
X133129020Y-50800000D03*
D13*
X116840000Y-50800000D03*
D14*
X114300000Y-50800000D03*
X111760000Y-50800000D03*
X109220000Y-50800000D03*
X106680000Y-50800000D03*
D15*
X95170000Y-50800000D03*
X97870000Y-50800000D03*
X95170000Y-54610000D03*
X97870000Y-54610000D03*
X95170000Y-58420000D03*
X97870000Y-58420000D03*
X95170000Y-62230000D03*
X97870000Y-62230000D03*
X95170000Y-66040000D03*
X97870000Y-66040000D03*
X95170000Y-69850000D03*
X97870000Y-69850000D03*
X95170000Y-73660000D03*
X97870000Y-73660000D03*
X95170000Y-77470000D03*
X97870000Y-77470000D03*
X128350000Y-77470000D03*
X125650000Y-77470000D03*
X128350000Y-73660000D03*
X125650000Y-73660000D03*
X128350000Y-69850000D03*
X125650000Y-69850000D03*
X128350000Y-66040000D03*
X125650000Y-66040000D03*
X128350000Y-62230000D03*
X125650000Y-62230000D03*
X128350000Y-58420000D03*
X125650000Y-58420000D03*
X128350000Y-54610000D03*
X125650000Y-54610000D03*
X128350000Y-50800000D03*
X125650000Y-50800000D03*
D16*
X108585000Y-56515000D03*
X108585000Y-59055000D03*
X108585000Y-60325000D03*
X108585000Y-61595000D03*
X108585000Y-62865000D03*
X108585000Y-64135000D03*
X108585000Y-65405000D03*
X102235000Y-65405000D03*
X102235000Y-64135000D03*
X102235000Y-62865000D03*
X102235000Y-61595000D03*
X102235000Y-60325000D03*
X102235000Y-59055000D03*
X102235000Y-57785000D03*
X102235000Y-56515000D03*
X108585000Y-57785000D03*
X114935000Y-65405000D03*
X114935000Y-62865000D03*
X114935000Y-61595000D03*
X114935000Y-60325000D03*
X114935000Y-59055000D03*
X114935000Y-57785000D03*
X114935000Y-56515000D03*
X121285000Y-56515000D03*
X121285000Y-57785000D03*
X121285000Y-59055000D03*
X121285000Y-60325000D03*
X121285000Y-61595000D03*
X121285000Y-62865000D03*
X121285000Y-64135000D03*
X121285000Y-65405000D03*
X114935000Y-64135000D03*
M02*
