G04 #@! TF.FileFunction,Copper,L1,Top,Signal*
%FSLAX46Y46*%
G04 Gerber Fmt 4.6, Leading zero omitted, Abs format (unit mm)*
G04 Created by KiCad (PCBNEW 4.0.1-stable) date 2016 May 22, Sunday 15:19:24*
%MOMM*%
G01*
G04 APERTURE LIST*
%ADD10C,0.100000*%
%ADD11R,3.599180X1.600200*%
%ADD12R,1.198880X1.198880*%
%ADD13R,1.727200X2.032000*%
%ADD14O,1.727200X2.032000*%
%ADD15R,1.500000X1.300000*%
%ADD16R,1.143000X0.508000*%
%ADD17C,0.600000*%
%ADD18C,0.400000*%
%ADD19C,0.380000*%
%ADD20C,0.250000*%
%ADD21C,0.254000*%
G04 APERTURE END LIST*
D10*
D11*
X114510820Y-72390000D03*
X109009180Y-72390000D03*
D12*
X92489020Y-50800000D03*
X90390980Y-50800000D03*
X92489020Y-54610000D03*
X90390980Y-54610000D03*
X92489020Y-58420000D03*
X90390980Y-58420000D03*
X92489020Y-62230000D03*
X90390980Y-62230000D03*
X92489020Y-66040000D03*
X90390980Y-66040000D03*
X92489020Y-69850000D03*
X90390980Y-69850000D03*
X92489020Y-73660000D03*
X90390980Y-73660000D03*
X92489020Y-77470000D03*
X90390980Y-77470000D03*
X131030980Y-77470000D03*
X133129020Y-77470000D03*
X131030980Y-73660000D03*
X133129020Y-73660000D03*
X131030980Y-69850000D03*
X133129020Y-69850000D03*
X131030980Y-66040000D03*
X133129020Y-66040000D03*
X131030980Y-62230000D03*
X133129020Y-62230000D03*
X131030980Y-58420000D03*
X133129020Y-58420000D03*
X131030980Y-54610000D03*
X133129020Y-54610000D03*
X131030980Y-50800000D03*
X133129020Y-50800000D03*
D13*
X116840000Y-50800000D03*
D14*
X114300000Y-50800000D03*
X111760000Y-50800000D03*
X109220000Y-50800000D03*
X106680000Y-50800000D03*
D15*
X95170000Y-50800000D03*
X97870000Y-50800000D03*
X95170000Y-54610000D03*
X97870000Y-54610000D03*
X95170000Y-58420000D03*
X97870000Y-58420000D03*
X95170000Y-62230000D03*
X97870000Y-62230000D03*
X95170000Y-66040000D03*
X97870000Y-66040000D03*
X95170000Y-69850000D03*
X97870000Y-69850000D03*
X95170000Y-73660000D03*
X97870000Y-73660000D03*
X95170000Y-77470000D03*
X97870000Y-77470000D03*
X128350000Y-77470000D03*
X125650000Y-77470000D03*
X128350000Y-73660000D03*
X125650000Y-73660000D03*
X128350000Y-69850000D03*
X125650000Y-69850000D03*
X128350000Y-66040000D03*
X125650000Y-66040000D03*
X128350000Y-62230000D03*
X125650000Y-62230000D03*
X128350000Y-58420000D03*
X125650000Y-58420000D03*
X128350000Y-54610000D03*
X125650000Y-54610000D03*
X128350000Y-50800000D03*
X125650000Y-50800000D03*
D16*
X108585000Y-56515000D03*
X108585000Y-59055000D03*
X108585000Y-60325000D03*
X108585000Y-61595000D03*
X108585000Y-62865000D03*
X108585000Y-64135000D03*
X108585000Y-65405000D03*
X102235000Y-65405000D03*
X102235000Y-64135000D03*
X102235000Y-62865000D03*
X102235000Y-61595000D03*
X102235000Y-60325000D03*
X102235000Y-59055000D03*
X102235000Y-57785000D03*
X102235000Y-56515000D03*
X108585000Y-57785000D03*
X114935000Y-65405000D03*
X114935000Y-62865000D03*
X114935000Y-61595000D03*
X114935000Y-60325000D03*
X114935000Y-59055000D03*
X114935000Y-57785000D03*
X114935000Y-56515000D03*
X121285000Y-56515000D03*
X121285000Y-57785000D03*
X121285000Y-59055000D03*
X121285000Y-60325000D03*
X121285000Y-61595000D03*
X121285000Y-62865000D03*
X121285000Y-64135000D03*
X121285000Y-65405000D03*
X114935000Y-64135000D03*
D17*
X105918000Y-54610000D03*
D18*
X107315000Y-54610000D03*
X99695000Y-77470000D03*
X99695000Y-73660000D03*
X99695000Y-69850000D03*
X99695000Y-66040000D03*
X99695000Y-62230000D03*
X99695000Y-58420000D03*
X99695000Y-54610000D03*
X99695000Y-50800000D03*
X123825000Y-77470000D03*
X123825000Y-73660000D03*
X123825000Y-69850000D03*
X123825000Y-66040000D03*
X123825000Y-50800000D03*
X123825000Y-54610000D03*
X123825000Y-58420000D03*
X123825000Y-62230000D03*
X116713000Y-61595000D03*
X102235000Y-66675000D03*
X106172000Y-72136000D03*
X121285000Y-55245000D03*
D19*
X105918000Y-54610000D02*
X103464990Y-50800000D01*
X103464990Y-50800000D02*
X99695000Y-50800000D01*
X108585000Y-56515000D02*
X108585000Y-54610000D01*
X108585000Y-54610000D02*
X107315000Y-54610000D01*
X108585000Y-64135000D02*
X113347500Y-64135000D01*
X113347500Y-64135000D02*
X114617500Y-65405000D01*
X114617500Y-65405000D02*
X114935000Y-65405000D01*
X118745000Y-72390000D02*
X123825000Y-77470000D01*
X123825000Y-77470000D02*
X125650000Y-77470000D01*
X114510820Y-72390000D02*
X118745000Y-72390000D01*
X114510820Y-72390000D02*
X116840000Y-72390000D01*
X116840000Y-72390000D02*
X116840000Y-65405000D01*
X116840000Y-65405000D02*
X114935000Y-65405000D01*
X97870000Y-77470000D02*
X99695000Y-77470000D01*
X97870000Y-73660000D02*
X99695000Y-73660000D01*
X97870000Y-69850000D02*
X99695000Y-69850000D01*
X97870000Y-66040000D02*
X99695000Y-66040000D01*
X97870000Y-62230000D02*
X99695000Y-62230000D01*
X97870000Y-58420000D02*
X99695000Y-58420000D01*
X97870000Y-54610000D02*
X99695000Y-54610000D01*
X97870000Y-50800000D02*
X99695000Y-50800000D01*
X99695000Y-50800000D02*
X101151010Y-49343990D01*
X101151010Y-49343990D02*
X115536390Y-49343990D01*
X115536390Y-49343990D02*
X116840000Y-50647600D01*
X116840000Y-50647600D02*
X116840000Y-50800000D01*
X125650000Y-73660000D02*
X123825000Y-73660000D01*
X125650000Y-69850000D02*
X123825000Y-69850000D01*
X125650000Y-66040000D02*
X123825000Y-66040000D01*
X125650000Y-62230000D02*
X123825000Y-62230000D01*
X125650000Y-58420000D02*
X123825000Y-58420000D01*
X123825000Y-54610000D02*
X125650000Y-54610000D01*
X123825000Y-50800000D02*
X116840000Y-50800000D01*
X124520000Y-50800000D02*
X123825000Y-50800000D01*
X125650000Y-50800000D02*
X124520000Y-50800000D01*
X114935000Y-57785000D02*
X115252500Y-57785000D01*
X115252500Y-65405000D02*
X114935000Y-65405000D01*
X116840000Y-50800000D02*
X116840000Y-56831500D01*
X116840000Y-56831500D02*
X115886500Y-57785000D01*
X115886500Y-57785000D02*
X114935000Y-57785000D01*
X108585000Y-60325000D02*
X107632500Y-60325000D01*
X107632500Y-60325000D02*
X102552500Y-65405000D01*
X102552500Y-65405000D02*
X102235000Y-65405000D01*
X114935000Y-61595000D02*
X116713000Y-61595000D01*
X102235000Y-65405000D02*
X102235000Y-66675000D01*
X106172000Y-72136000D02*
X108755180Y-72136000D01*
X108755180Y-72136000D02*
X109009180Y-72390000D01*
X121285000Y-55245000D02*
X121285000Y-56515000D01*
D20*
X92489020Y-50800000D02*
X95170000Y-50800000D01*
X104067499Y-55045499D02*
X106807000Y-57785000D01*
X106807000Y-57785000D02*
X108585000Y-57785000D01*
X104067499Y-53584999D02*
X104067499Y-55045499D01*
X90390980Y-50800000D02*
X90390980Y-51649440D01*
X90390980Y-51649440D02*
X92326539Y-53584999D01*
X92326539Y-53584999D02*
X104067499Y-53584999D01*
X108267500Y-57785000D02*
X108585000Y-57785000D01*
X92489020Y-54610000D02*
X95170000Y-54610000D01*
X90390980Y-54610000D02*
X90390980Y-55459440D01*
X101413500Y-56515000D02*
X102235000Y-56515000D01*
X90390980Y-55459440D02*
X91446540Y-56515000D01*
X91446540Y-56515000D02*
X101413500Y-56515000D01*
X92489020Y-58420000D02*
X95170000Y-58420000D01*
X90390980Y-58420000D02*
X90390980Y-57570560D01*
X90390980Y-57570560D02*
X90566541Y-57394999D01*
X90566541Y-57394999D02*
X101023499Y-57394999D01*
X101413500Y-57785000D02*
X102235000Y-57785000D01*
X101023499Y-57394999D02*
X101413500Y-57785000D01*
X92489020Y-62230000D02*
X95170000Y-62230000D01*
X90390980Y-62230000D02*
X90390980Y-61380560D01*
X90390980Y-61380560D02*
X92326539Y-59445001D01*
X92326539Y-59445001D02*
X101023499Y-59445001D01*
X101023499Y-59445001D02*
X101413500Y-59055000D01*
X101413500Y-59055000D02*
X102235000Y-59055000D01*
X92489020Y-66040000D02*
X95170000Y-66040000D01*
X90390980Y-66040000D02*
X90390980Y-65190560D01*
X90390980Y-65190560D02*
X92326539Y-63255001D01*
X92326539Y-63255001D02*
X99521001Y-63255001D01*
X99521001Y-63255001D02*
X101338499Y-61437503D01*
X101338499Y-61437503D02*
X101338499Y-60904001D01*
X101338499Y-60904001D02*
X101917500Y-60325000D01*
X101917500Y-60325000D02*
X102235000Y-60325000D01*
X92489020Y-69850000D02*
X95170000Y-69850000D01*
X90390980Y-69850000D02*
X90390980Y-69000560D01*
X90390980Y-69000560D02*
X92326539Y-67065001D01*
X99521001Y-67065001D02*
X100388480Y-66197522D01*
X100388480Y-66197522D02*
X100388480Y-63124020D01*
X92326539Y-67065001D02*
X99521001Y-67065001D01*
X100388480Y-63124020D02*
X101917500Y-61595000D01*
X101917500Y-61595000D02*
X102235000Y-61595000D01*
X92489020Y-73660000D02*
X95170000Y-73660000D01*
X90390980Y-73660000D02*
X90390980Y-72810560D01*
X90390980Y-72810560D02*
X92326539Y-70875001D01*
X101917500Y-62865000D02*
X102235000Y-62865000D01*
X92326539Y-70875001D02*
X99521001Y-70875001D01*
X99521001Y-70875001D02*
X100838490Y-69557512D01*
X100838490Y-69557512D02*
X100838490Y-63944010D01*
X100838490Y-63944010D02*
X101917500Y-62865000D01*
X92489020Y-77470000D02*
X95170000Y-77470000D01*
X90390980Y-77470000D02*
X90390980Y-76620560D01*
X92326539Y-74685001D02*
X99521001Y-74685001D01*
X90390980Y-76620560D02*
X92326539Y-74685001D01*
X101288499Y-72917503D02*
X101288499Y-64764001D01*
X99521001Y-74685001D02*
X101288499Y-72917503D01*
X101288499Y-64764001D02*
X101917500Y-64135000D01*
X101917500Y-64135000D02*
X102235000Y-64135000D01*
X128350000Y-77470000D02*
X131030980Y-77470000D01*
X133129020Y-77470000D02*
X133129020Y-76620560D01*
X115756500Y-64135000D02*
X114935000Y-64135000D01*
X133129020Y-76620560D02*
X131193461Y-74685001D01*
X131193461Y-74685001D02*
X123998999Y-74685001D01*
X123998999Y-74685001D02*
X117405010Y-68091012D01*
X117405010Y-68091012D02*
X117405010Y-65170966D01*
X117405010Y-65170966D02*
X116369044Y-64135000D01*
X116369044Y-64135000D02*
X115756500Y-64135000D01*
X128350000Y-73660000D02*
X131030980Y-73660000D01*
X133129020Y-73660000D02*
X133129020Y-72810560D01*
X133129020Y-72810560D02*
X131193461Y-70875001D01*
X131193461Y-70875001D02*
X123998999Y-70875001D01*
X123998999Y-70875001D02*
X121285000Y-68161002D01*
X121285000Y-68161002D02*
X121285000Y-65909000D01*
X121285000Y-65909000D02*
X121285000Y-65405000D01*
X128350000Y-69850000D02*
X131030980Y-69850000D01*
X133129020Y-69850000D02*
X133129020Y-69000560D01*
X133129020Y-69000560D02*
X131193461Y-67065001D01*
X123998999Y-67065001D02*
X122181501Y-65247503D01*
X131193461Y-67065001D02*
X123998999Y-67065001D01*
X122181501Y-65247503D02*
X122181501Y-64714001D01*
X122181501Y-64714001D02*
X121602500Y-64135000D01*
X121602500Y-64135000D02*
X121285000Y-64135000D01*
X128350000Y-66040000D02*
X131030980Y-66040000D01*
X133129020Y-66040000D02*
X133129020Y-65190560D01*
X133129020Y-65190560D02*
X131193461Y-63255001D01*
X131193461Y-63255001D02*
X122496501Y-63255001D01*
X122496501Y-63255001D02*
X122106500Y-62865000D01*
X122106500Y-62865000D02*
X121285000Y-62865000D01*
X128350000Y-62230000D02*
X131030980Y-62230000D01*
X133129020Y-62230000D02*
X133129020Y-61380560D01*
X133129020Y-61380560D02*
X132953459Y-61204999D01*
X132953459Y-61204999D02*
X122496501Y-61204999D01*
X122496501Y-61204999D02*
X122106500Y-61595000D01*
X122106500Y-61595000D02*
X121285000Y-61595000D01*
X128350000Y-58420000D02*
X129350000Y-58420000D01*
X129350000Y-58420000D02*
X131030980Y-58420000D01*
X133129020Y-58420000D02*
X133129020Y-59269440D01*
X133129020Y-59269440D02*
X132073460Y-60325000D01*
X132073460Y-60325000D02*
X122106500Y-60325000D01*
X122106500Y-60325000D02*
X121285000Y-60325000D01*
X128350000Y-54610000D02*
X131030980Y-54610000D01*
X133129020Y-54610000D02*
X133129020Y-55459440D01*
X133129020Y-55459440D02*
X131193461Y-57394999D01*
X131193461Y-57394999D02*
X123262501Y-57394999D01*
X123262501Y-57394999D02*
X121602500Y-59055000D01*
X121602500Y-59055000D02*
X121285000Y-59055000D01*
X128350000Y-50800000D02*
X131030980Y-50800000D01*
X133129020Y-50800000D02*
X133129020Y-51649440D01*
X133129020Y-51649440D02*
X131193461Y-53584999D01*
X131193461Y-53584999D02*
X123998999Y-53584999D01*
X122231501Y-55352497D02*
X122231501Y-57155999D01*
X123998999Y-53584999D02*
X122231501Y-55352497D01*
X122231501Y-57155999D02*
X121602500Y-57785000D01*
X121602500Y-57785000D02*
X121285000Y-57785000D01*
X114935000Y-60325000D02*
X114113500Y-60325000D01*
X114113500Y-60325000D02*
X112843500Y-61595000D01*
X112843500Y-61595000D02*
X109406500Y-61595000D01*
X109406500Y-61595000D02*
X108585000Y-61595000D01*
X111760000Y-50800000D02*
X111760000Y-56110502D01*
X111760000Y-56110502D02*
X114069498Y-58420000D01*
X114069498Y-58420000D02*
X115710502Y-58420000D01*
X115710502Y-58420000D02*
X115831501Y-58540999D01*
X115831501Y-58540999D02*
X115831501Y-59745999D01*
X115831501Y-59745999D02*
X115252500Y-60325000D01*
X115252500Y-60325000D02*
X114935000Y-60325000D01*
X114617500Y-60325000D02*
X114935000Y-60325000D01*
X108585000Y-62865000D02*
X108444498Y-62865000D01*
X108444498Y-62865000D02*
X107688499Y-62109001D01*
X107688499Y-62109001D02*
X107688499Y-61080999D01*
X107688499Y-61080999D02*
X107753499Y-61015999D01*
X107753499Y-61015999D02*
X110751501Y-61015999D01*
X110751501Y-61015999D02*
X112712500Y-59055000D01*
X112712500Y-59055000D02*
X114113500Y-59055000D01*
X114113500Y-59055000D02*
X114935000Y-59055000D01*
X114617500Y-59055000D02*
X114935000Y-59055000D01*
X109220000Y-50800000D02*
X109220000Y-54610000D01*
X109220000Y-54610000D02*
X113665000Y-59055000D01*
X113665000Y-59055000D02*
X114935000Y-59055000D01*
X109220000Y-50800000D02*
X109220000Y-52066000D01*
X115252500Y-59055000D02*
X114935000Y-59055000D01*
X108585000Y-59055000D02*
X109406500Y-59055000D01*
X109481501Y-58979999D02*
X109481501Y-57270999D01*
X109406500Y-59055000D02*
X109481501Y-58979999D01*
X109481501Y-57270999D02*
X109354503Y-57144001D01*
X109354503Y-57144001D02*
X107713499Y-57144001D01*
X107713499Y-57144001D02*
X106680000Y-56110502D01*
X106680000Y-56110502D02*
X106680000Y-52066000D01*
X106680000Y-52066000D02*
X106680000Y-50800000D01*
X108585000Y-65405000D02*
X107763500Y-65405000D01*
X107775497Y-63444001D02*
X113534499Y-63444001D01*
X107763500Y-65405000D02*
X107638499Y-65279999D01*
X107638499Y-65279999D02*
X107638499Y-63580999D01*
X107638499Y-63580999D02*
X107775497Y-63444001D01*
X113534499Y-63444001D02*
X114113500Y-62865000D01*
X114113500Y-62865000D02*
X114935000Y-62865000D01*
D21*
G36*
X106986351Y-62399840D02*
X107151098Y-62646402D01*
X107341922Y-62837226D01*
X107238096Y-62906600D01*
X107101098Y-63043598D01*
X106936351Y-63290160D01*
X106878499Y-63580999D01*
X106878499Y-65279999D01*
X106936351Y-65570838D01*
X107101098Y-65817400D01*
X107226099Y-65942401D01*
X107472661Y-66107148D01*
X107574130Y-66127332D01*
X107761610Y-66255431D01*
X108013500Y-66306440D01*
X109156500Y-66306440D01*
X109391817Y-66262162D01*
X109607941Y-66123090D01*
X109752931Y-65910890D01*
X109797510Y-65690750D01*
X113728500Y-65690750D01*
X113728500Y-65785309D01*
X113825173Y-66018698D01*
X114003801Y-66197327D01*
X114237190Y-66294000D01*
X114649250Y-66294000D01*
X114808000Y-66135250D01*
X114808000Y-65532000D01*
X115062000Y-65532000D01*
X115062000Y-66135250D01*
X115220750Y-66294000D01*
X115632810Y-66294000D01*
X115866199Y-66197327D01*
X116044827Y-66018698D01*
X116141500Y-65785309D01*
X116141500Y-65690750D01*
X115982750Y-65532000D01*
X115062000Y-65532000D01*
X114808000Y-65532000D01*
X113887250Y-65532000D01*
X113728500Y-65690750D01*
X109797510Y-65690750D01*
X109803940Y-65659000D01*
X109803940Y-65151000D01*
X109759662Y-64915683D01*
X109668896Y-64774629D01*
X109694827Y-64748698D01*
X109791500Y-64515309D01*
X109791500Y-64420750D01*
X109632752Y-64262002D01*
X109791500Y-64262002D01*
X109791500Y-64204001D01*
X113534499Y-64204001D01*
X113716060Y-64167886D01*
X113716060Y-64389000D01*
X113760338Y-64624317D01*
X113851104Y-64765371D01*
X113825173Y-64791302D01*
X113728500Y-65024691D01*
X113728500Y-65119250D01*
X113887250Y-65278000D01*
X114808000Y-65278000D01*
X114808000Y-65258000D01*
X115062000Y-65258000D01*
X115062000Y-65278000D01*
X115982750Y-65278000D01*
X116141500Y-65119250D01*
X116141500Y-65024691D01*
X116111495Y-64952253D01*
X116645010Y-65485768D01*
X116645010Y-68091012D01*
X116702862Y-68381851D01*
X116867609Y-68628413D01*
X123461598Y-75222402D01*
X123708160Y-75387149D01*
X123998999Y-75445001D01*
X130878659Y-75445001D01*
X131663471Y-76229813D01*
X131630420Y-76223120D01*
X130431540Y-76223120D01*
X130196223Y-76267398D01*
X129980099Y-76406470D01*
X129835109Y-76618670D01*
X129816614Y-76710000D01*
X129726742Y-76710000D01*
X129703162Y-76584683D01*
X129564090Y-76368559D01*
X129351890Y-76223569D01*
X129100000Y-76172560D01*
X127600000Y-76172560D01*
X127364683Y-76216838D01*
X127148559Y-76355910D01*
X127003569Y-76568110D01*
X126996809Y-76601490D01*
X126938327Y-76460301D01*
X126759698Y-76281673D01*
X126526309Y-76185000D01*
X125935750Y-76185000D01*
X125777000Y-76343750D01*
X125777000Y-77343000D01*
X125797000Y-77343000D01*
X125797000Y-77597000D01*
X125777000Y-77597000D01*
X125777000Y-78596250D01*
X125935750Y-78755000D01*
X126526309Y-78755000D01*
X126759698Y-78658327D01*
X126938327Y-78479699D01*
X126994654Y-78343713D01*
X126996838Y-78355317D01*
X127135910Y-78571441D01*
X127348110Y-78716431D01*
X127600000Y-78767440D01*
X129100000Y-78767440D01*
X129335317Y-78723162D01*
X129551441Y-78584090D01*
X129696431Y-78371890D01*
X129725164Y-78230000D01*
X129814311Y-78230000D01*
X129828378Y-78304757D01*
X129967450Y-78520881D01*
X130179650Y-78665871D01*
X130431540Y-78716880D01*
X131630420Y-78716880D01*
X131865737Y-78672602D01*
X132081861Y-78533530D01*
X132082543Y-78532533D01*
X132277690Y-78665871D01*
X132529580Y-78716880D01*
X133728460Y-78716880D01*
X133910000Y-78682721D01*
X133910000Y-79300000D01*
X89610000Y-79300000D01*
X89610000Y-78680117D01*
X89791540Y-78716880D01*
X90990420Y-78716880D01*
X91225737Y-78672602D01*
X91441861Y-78533530D01*
X91442543Y-78532533D01*
X91637690Y-78665871D01*
X91889580Y-78716880D01*
X93088460Y-78716880D01*
X93323777Y-78672602D01*
X93539901Y-78533530D01*
X93684891Y-78321330D01*
X93703386Y-78230000D01*
X93793258Y-78230000D01*
X93816838Y-78355317D01*
X93955910Y-78571441D01*
X94168110Y-78716431D01*
X94420000Y-78767440D01*
X95920000Y-78767440D01*
X96155317Y-78723162D01*
X96371441Y-78584090D01*
X96516431Y-78371890D01*
X96523191Y-78338510D01*
X96581673Y-78479699D01*
X96760302Y-78658327D01*
X96993691Y-78755000D01*
X97584250Y-78755000D01*
X97743000Y-78596250D01*
X97743000Y-77597000D01*
X97997000Y-77597000D01*
X97997000Y-78596250D01*
X98155750Y-78755000D01*
X98746309Y-78755000D01*
X98979698Y-78658327D01*
X99158327Y-78479699D01*
X99255000Y-78246310D01*
X99255000Y-77755750D01*
X124265000Y-77755750D01*
X124265000Y-78246310D01*
X124361673Y-78479699D01*
X124540302Y-78658327D01*
X124773691Y-78755000D01*
X125364250Y-78755000D01*
X125523000Y-78596250D01*
X125523000Y-77597000D01*
X124423750Y-77597000D01*
X124265000Y-77755750D01*
X99255000Y-77755750D01*
X99096250Y-77597000D01*
X97997000Y-77597000D01*
X97743000Y-77597000D01*
X97723000Y-77597000D01*
X97723000Y-77343000D01*
X97743000Y-77343000D01*
X97743000Y-76343750D01*
X97997000Y-76343750D01*
X97997000Y-77343000D01*
X99096250Y-77343000D01*
X99255000Y-77184250D01*
X99255000Y-76693690D01*
X124265000Y-76693690D01*
X124265000Y-77184250D01*
X124423750Y-77343000D01*
X125523000Y-77343000D01*
X125523000Y-76343750D01*
X125364250Y-76185000D01*
X124773691Y-76185000D01*
X124540302Y-76281673D01*
X124361673Y-76460301D01*
X124265000Y-76693690D01*
X99255000Y-76693690D01*
X99158327Y-76460301D01*
X98979698Y-76281673D01*
X98746309Y-76185000D01*
X98155750Y-76185000D01*
X97997000Y-76343750D01*
X97743000Y-76343750D01*
X97584250Y-76185000D01*
X96993691Y-76185000D01*
X96760302Y-76281673D01*
X96581673Y-76460301D01*
X96525346Y-76596287D01*
X96523162Y-76584683D01*
X96384090Y-76368559D01*
X96171890Y-76223569D01*
X95920000Y-76172560D01*
X94420000Y-76172560D01*
X94184683Y-76216838D01*
X93968559Y-76355910D01*
X93823569Y-76568110D01*
X93794836Y-76710000D01*
X93705689Y-76710000D01*
X93691622Y-76635243D01*
X93552550Y-76419119D01*
X93340350Y-76274129D01*
X93088460Y-76223120D01*
X91889580Y-76223120D01*
X91857113Y-76229229D01*
X92641341Y-75445001D01*
X99521001Y-75445001D01*
X99811840Y-75387149D01*
X100058402Y-75222402D01*
X101825900Y-73454904D01*
X101990647Y-73208342D01*
X102048499Y-72917503D01*
X102048499Y-72301363D01*
X105336855Y-72301363D01*
X105463708Y-72608372D01*
X105698393Y-72843466D01*
X106005179Y-72970855D01*
X106337363Y-72971145D01*
X106361916Y-72961000D01*
X106562150Y-72961000D01*
X106562150Y-73190100D01*
X106606428Y-73425417D01*
X106745500Y-73641541D01*
X106957700Y-73786531D01*
X107209590Y-73837540D01*
X110808770Y-73837540D01*
X111044087Y-73793262D01*
X111260211Y-73654190D01*
X111405201Y-73441990D01*
X111456210Y-73190100D01*
X111456210Y-72675750D01*
X112076230Y-72675750D01*
X112076230Y-73316410D01*
X112172903Y-73549799D01*
X112351532Y-73728427D01*
X112584921Y-73825100D01*
X114225070Y-73825100D01*
X114383820Y-73666350D01*
X114383820Y-72517000D01*
X114637820Y-72517000D01*
X114637820Y-73666350D01*
X114796570Y-73825100D01*
X116436719Y-73825100D01*
X116670108Y-73728427D01*
X116848737Y-73549799D01*
X116945410Y-73316410D01*
X116945410Y-72675750D01*
X116786660Y-72517000D01*
X114637820Y-72517000D01*
X114383820Y-72517000D01*
X112234980Y-72517000D01*
X112076230Y-72675750D01*
X111456210Y-72675750D01*
X111456210Y-71589900D01*
X111432444Y-71463590D01*
X112076230Y-71463590D01*
X112076230Y-72104250D01*
X112234980Y-72263000D01*
X114383820Y-72263000D01*
X114383820Y-71113650D01*
X114637820Y-71113650D01*
X114637820Y-72263000D01*
X116786660Y-72263000D01*
X116945410Y-72104250D01*
X116945410Y-71463590D01*
X116848737Y-71230201D01*
X116670108Y-71051573D01*
X116436719Y-70954900D01*
X114796570Y-70954900D01*
X114637820Y-71113650D01*
X114383820Y-71113650D01*
X114225070Y-70954900D01*
X112584921Y-70954900D01*
X112351532Y-71051573D01*
X112172903Y-71230201D01*
X112076230Y-71463590D01*
X111432444Y-71463590D01*
X111411932Y-71354583D01*
X111272860Y-71138459D01*
X111060660Y-70993469D01*
X110808770Y-70942460D01*
X107209590Y-70942460D01*
X106974273Y-70986738D01*
X106758149Y-71125810D01*
X106631614Y-71311000D01*
X106362554Y-71311000D01*
X106338821Y-71301145D01*
X106006637Y-71300855D01*
X105699628Y-71427708D01*
X105464534Y-71662393D01*
X105337145Y-71969179D01*
X105336855Y-72301363D01*
X102048499Y-72301363D01*
X102048499Y-67501683D01*
X102068179Y-67509855D01*
X102400363Y-67510145D01*
X102707372Y-67383292D01*
X102942466Y-67148607D01*
X103069855Y-66841821D01*
X103070145Y-66509637D01*
X103060000Y-66485084D01*
X103060000Y-66250462D01*
X103257941Y-66123090D01*
X103402931Y-65910890D01*
X103451074Y-65673152D01*
X106942888Y-62181338D01*
X106986351Y-62399840D01*
X106986351Y-62399840D01*
G37*
X106986351Y-62399840D02*
X107151098Y-62646402D01*
X107341922Y-62837226D01*
X107238096Y-62906600D01*
X107101098Y-63043598D01*
X106936351Y-63290160D01*
X106878499Y-63580999D01*
X106878499Y-65279999D01*
X106936351Y-65570838D01*
X107101098Y-65817400D01*
X107226099Y-65942401D01*
X107472661Y-66107148D01*
X107574130Y-66127332D01*
X107761610Y-66255431D01*
X108013500Y-66306440D01*
X109156500Y-66306440D01*
X109391817Y-66262162D01*
X109607941Y-66123090D01*
X109752931Y-65910890D01*
X109797510Y-65690750D01*
X113728500Y-65690750D01*
X113728500Y-65785309D01*
X113825173Y-66018698D01*
X114003801Y-66197327D01*
X114237190Y-66294000D01*
X114649250Y-66294000D01*
X114808000Y-66135250D01*
X114808000Y-65532000D01*
X115062000Y-65532000D01*
X115062000Y-66135250D01*
X115220750Y-66294000D01*
X115632810Y-66294000D01*
X115866199Y-66197327D01*
X116044827Y-66018698D01*
X116141500Y-65785309D01*
X116141500Y-65690750D01*
X115982750Y-65532000D01*
X115062000Y-65532000D01*
X114808000Y-65532000D01*
X113887250Y-65532000D01*
X113728500Y-65690750D01*
X109797510Y-65690750D01*
X109803940Y-65659000D01*
X109803940Y-65151000D01*
X109759662Y-64915683D01*
X109668896Y-64774629D01*
X109694827Y-64748698D01*
X109791500Y-64515309D01*
X109791500Y-64420750D01*
X109632752Y-64262002D01*
X109791500Y-64262002D01*
X109791500Y-64204001D01*
X113534499Y-64204001D01*
X113716060Y-64167886D01*
X113716060Y-64389000D01*
X113760338Y-64624317D01*
X113851104Y-64765371D01*
X113825173Y-64791302D01*
X113728500Y-65024691D01*
X113728500Y-65119250D01*
X113887250Y-65278000D01*
X114808000Y-65278000D01*
X114808000Y-65258000D01*
X115062000Y-65258000D01*
X115062000Y-65278000D01*
X115982750Y-65278000D01*
X116141500Y-65119250D01*
X116141500Y-65024691D01*
X116111495Y-64952253D01*
X116645010Y-65485768D01*
X116645010Y-68091012D01*
X116702862Y-68381851D01*
X116867609Y-68628413D01*
X123461598Y-75222402D01*
X123708160Y-75387149D01*
X123998999Y-75445001D01*
X130878659Y-75445001D01*
X131663471Y-76229813D01*
X131630420Y-76223120D01*
X130431540Y-76223120D01*
X130196223Y-76267398D01*
X129980099Y-76406470D01*
X129835109Y-76618670D01*
X129816614Y-76710000D01*
X129726742Y-76710000D01*
X129703162Y-76584683D01*
X129564090Y-76368559D01*
X129351890Y-76223569D01*
X129100000Y-76172560D01*
X127600000Y-76172560D01*
X127364683Y-76216838D01*
X127148559Y-76355910D01*
X127003569Y-76568110D01*
X126996809Y-76601490D01*
X126938327Y-76460301D01*
X126759698Y-76281673D01*
X126526309Y-76185000D01*
X125935750Y-76185000D01*
X125777000Y-76343750D01*
X125777000Y-77343000D01*
X125797000Y-77343000D01*
X125797000Y-77597000D01*
X125777000Y-77597000D01*
X125777000Y-78596250D01*
X125935750Y-78755000D01*
X126526309Y-78755000D01*
X126759698Y-78658327D01*
X126938327Y-78479699D01*
X126994654Y-78343713D01*
X126996838Y-78355317D01*
X127135910Y-78571441D01*
X127348110Y-78716431D01*
X127600000Y-78767440D01*
X129100000Y-78767440D01*
X129335317Y-78723162D01*
X129551441Y-78584090D01*
X129696431Y-78371890D01*
X129725164Y-78230000D01*
X129814311Y-78230000D01*
X129828378Y-78304757D01*
X129967450Y-78520881D01*
X130179650Y-78665871D01*
X130431540Y-78716880D01*
X131630420Y-78716880D01*
X131865737Y-78672602D01*
X132081861Y-78533530D01*
X132082543Y-78532533D01*
X132277690Y-78665871D01*
X132529580Y-78716880D01*
X133728460Y-78716880D01*
X133910000Y-78682721D01*
X133910000Y-79300000D01*
X89610000Y-79300000D01*
X89610000Y-78680117D01*
X89791540Y-78716880D01*
X90990420Y-78716880D01*
X91225737Y-78672602D01*
X91441861Y-78533530D01*
X91442543Y-78532533D01*
X91637690Y-78665871D01*
X91889580Y-78716880D01*
X93088460Y-78716880D01*
X93323777Y-78672602D01*
X93539901Y-78533530D01*
X93684891Y-78321330D01*
X93703386Y-78230000D01*
X93793258Y-78230000D01*
X93816838Y-78355317D01*
X93955910Y-78571441D01*
X94168110Y-78716431D01*
X94420000Y-78767440D01*
X95920000Y-78767440D01*
X96155317Y-78723162D01*
X96371441Y-78584090D01*
X96516431Y-78371890D01*
X96523191Y-78338510D01*
X96581673Y-78479699D01*
X96760302Y-78658327D01*
X96993691Y-78755000D01*
X97584250Y-78755000D01*
X97743000Y-78596250D01*
X97743000Y-77597000D01*
X97997000Y-77597000D01*
X97997000Y-78596250D01*
X98155750Y-78755000D01*
X98746309Y-78755000D01*
X98979698Y-78658327D01*
X99158327Y-78479699D01*
X99255000Y-78246310D01*
X99255000Y-77755750D01*
X124265000Y-77755750D01*
X124265000Y-78246310D01*
X124361673Y-78479699D01*
X124540302Y-78658327D01*
X124773691Y-78755000D01*
X125364250Y-78755000D01*
X125523000Y-78596250D01*
X125523000Y-77597000D01*
X124423750Y-77597000D01*
X124265000Y-77755750D01*
X99255000Y-77755750D01*
X99096250Y-77597000D01*
X97997000Y-77597000D01*
X97743000Y-77597000D01*
X97723000Y-77597000D01*
X97723000Y-77343000D01*
X97743000Y-77343000D01*
X97743000Y-76343750D01*
X97997000Y-76343750D01*
X97997000Y-77343000D01*
X99096250Y-77343000D01*
X99255000Y-77184250D01*
X99255000Y-76693690D01*
X124265000Y-76693690D01*
X124265000Y-77184250D01*
X124423750Y-77343000D01*
X125523000Y-77343000D01*
X125523000Y-76343750D01*
X125364250Y-76185000D01*
X124773691Y-76185000D01*
X124540302Y-76281673D01*
X124361673Y-76460301D01*
X124265000Y-76693690D01*
X99255000Y-76693690D01*
X99158327Y-76460301D01*
X98979698Y-76281673D01*
X98746309Y-76185000D01*
X98155750Y-76185000D01*
X97997000Y-76343750D01*
X97743000Y-76343750D01*
X97584250Y-76185000D01*
X96993691Y-76185000D01*
X96760302Y-76281673D01*
X96581673Y-76460301D01*
X96525346Y-76596287D01*
X96523162Y-76584683D01*
X96384090Y-76368559D01*
X96171890Y-76223569D01*
X95920000Y-76172560D01*
X94420000Y-76172560D01*
X94184683Y-76216838D01*
X93968559Y-76355910D01*
X93823569Y-76568110D01*
X93794836Y-76710000D01*
X93705689Y-76710000D01*
X93691622Y-76635243D01*
X93552550Y-76419119D01*
X93340350Y-76274129D01*
X93088460Y-76223120D01*
X91889580Y-76223120D01*
X91857113Y-76229229D01*
X92641341Y-75445001D01*
X99521001Y-75445001D01*
X99811840Y-75387149D01*
X100058402Y-75222402D01*
X101825900Y-73454904D01*
X101990647Y-73208342D01*
X102048499Y-72917503D01*
X102048499Y-72301363D01*
X105336855Y-72301363D01*
X105463708Y-72608372D01*
X105698393Y-72843466D01*
X106005179Y-72970855D01*
X106337363Y-72971145D01*
X106361916Y-72961000D01*
X106562150Y-72961000D01*
X106562150Y-73190100D01*
X106606428Y-73425417D01*
X106745500Y-73641541D01*
X106957700Y-73786531D01*
X107209590Y-73837540D01*
X110808770Y-73837540D01*
X111044087Y-73793262D01*
X111260211Y-73654190D01*
X111405201Y-73441990D01*
X111456210Y-73190100D01*
X111456210Y-72675750D01*
X112076230Y-72675750D01*
X112076230Y-73316410D01*
X112172903Y-73549799D01*
X112351532Y-73728427D01*
X112584921Y-73825100D01*
X114225070Y-73825100D01*
X114383820Y-73666350D01*
X114383820Y-72517000D01*
X114637820Y-72517000D01*
X114637820Y-73666350D01*
X114796570Y-73825100D01*
X116436719Y-73825100D01*
X116670108Y-73728427D01*
X116848737Y-73549799D01*
X116945410Y-73316410D01*
X116945410Y-72675750D01*
X116786660Y-72517000D01*
X114637820Y-72517000D01*
X114383820Y-72517000D01*
X112234980Y-72517000D01*
X112076230Y-72675750D01*
X111456210Y-72675750D01*
X111456210Y-71589900D01*
X111432444Y-71463590D01*
X112076230Y-71463590D01*
X112076230Y-72104250D01*
X112234980Y-72263000D01*
X114383820Y-72263000D01*
X114383820Y-71113650D01*
X114637820Y-71113650D01*
X114637820Y-72263000D01*
X116786660Y-72263000D01*
X116945410Y-72104250D01*
X116945410Y-71463590D01*
X116848737Y-71230201D01*
X116670108Y-71051573D01*
X116436719Y-70954900D01*
X114796570Y-70954900D01*
X114637820Y-71113650D01*
X114383820Y-71113650D01*
X114225070Y-70954900D01*
X112584921Y-70954900D01*
X112351532Y-71051573D01*
X112172903Y-71230201D01*
X112076230Y-71463590D01*
X111432444Y-71463590D01*
X111411932Y-71354583D01*
X111272860Y-71138459D01*
X111060660Y-70993469D01*
X110808770Y-70942460D01*
X107209590Y-70942460D01*
X106974273Y-70986738D01*
X106758149Y-71125810D01*
X106631614Y-71311000D01*
X106362554Y-71311000D01*
X106338821Y-71301145D01*
X106006637Y-71300855D01*
X105699628Y-71427708D01*
X105464534Y-71662393D01*
X105337145Y-71969179D01*
X105336855Y-72301363D01*
X102048499Y-72301363D01*
X102048499Y-67501683D01*
X102068179Y-67509855D01*
X102400363Y-67510145D01*
X102707372Y-67383292D01*
X102942466Y-67148607D01*
X103069855Y-66841821D01*
X103070145Y-66509637D01*
X103060000Y-66485084D01*
X103060000Y-66250462D01*
X103257941Y-66123090D01*
X103402931Y-65910890D01*
X103451074Y-65673152D01*
X106942888Y-62181338D01*
X106986351Y-62399840D01*
G36*
X133910000Y-49589883D02*
X133728460Y-49553120D01*
X132529580Y-49553120D01*
X132294263Y-49597398D01*
X132078139Y-49736470D01*
X132077457Y-49737467D01*
X131882310Y-49604129D01*
X131630420Y-49553120D01*
X130431540Y-49553120D01*
X130196223Y-49597398D01*
X129980099Y-49736470D01*
X129835109Y-49948670D01*
X129816614Y-50040000D01*
X129726742Y-50040000D01*
X129703162Y-49914683D01*
X129564090Y-49698559D01*
X129351890Y-49553569D01*
X129100000Y-49502560D01*
X127600000Y-49502560D01*
X127364683Y-49546838D01*
X127148559Y-49685910D01*
X127003569Y-49898110D01*
X126996809Y-49931490D01*
X126938327Y-49790301D01*
X126759698Y-49611673D01*
X126526309Y-49515000D01*
X125935750Y-49515000D01*
X125777000Y-49673750D01*
X125777000Y-50673000D01*
X125797000Y-50673000D01*
X125797000Y-50927000D01*
X125777000Y-50927000D01*
X125777000Y-51926250D01*
X125935750Y-52085000D01*
X126526309Y-52085000D01*
X126759698Y-51988327D01*
X126938327Y-51809699D01*
X126994654Y-51673713D01*
X126996838Y-51685317D01*
X127135910Y-51901441D01*
X127348110Y-52046431D01*
X127600000Y-52097440D01*
X129100000Y-52097440D01*
X129335317Y-52053162D01*
X129551441Y-51914090D01*
X129696431Y-51701890D01*
X129725164Y-51560000D01*
X129814311Y-51560000D01*
X129828378Y-51634757D01*
X129967450Y-51850881D01*
X130179650Y-51995871D01*
X130431540Y-52046880D01*
X131630420Y-52046880D01*
X131662887Y-52040771D01*
X130878659Y-52824999D01*
X123998999Y-52824999D01*
X123708160Y-52882851D01*
X123461598Y-53047598D01*
X121865042Y-54644154D01*
X121758607Y-54537534D01*
X121451821Y-54410145D01*
X121119637Y-54409855D01*
X120812628Y-54536708D01*
X120577534Y-54771393D01*
X120450145Y-55078179D01*
X120449855Y-55410363D01*
X120460000Y-55434916D01*
X120460000Y-55669538D01*
X120262059Y-55796910D01*
X120117069Y-56009110D01*
X120066060Y-56261000D01*
X120066060Y-56769000D01*
X120110338Y-57004317D01*
X120204666Y-57150907D01*
X120117069Y-57279110D01*
X120066060Y-57531000D01*
X120066060Y-58039000D01*
X120110338Y-58274317D01*
X120204666Y-58420907D01*
X120117069Y-58549110D01*
X120066060Y-58801000D01*
X120066060Y-59309000D01*
X120110338Y-59544317D01*
X120204666Y-59690907D01*
X120117069Y-59819110D01*
X120066060Y-60071000D01*
X120066060Y-60579000D01*
X120110338Y-60814317D01*
X120204666Y-60960907D01*
X120117069Y-61089110D01*
X120066060Y-61341000D01*
X120066060Y-61849000D01*
X120110338Y-62084317D01*
X120204666Y-62230907D01*
X120117069Y-62359110D01*
X120066060Y-62611000D01*
X120066060Y-63119000D01*
X120110338Y-63354317D01*
X120204666Y-63500907D01*
X120117069Y-63629110D01*
X120066060Y-63881000D01*
X120066060Y-64389000D01*
X120110338Y-64624317D01*
X120204666Y-64770907D01*
X120117069Y-64899110D01*
X120066060Y-65151000D01*
X120066060Y-65659000D01*
X120110338Y-65894317D01*
X120249410Y-66110441D01*
X120461610Y-66255431D01*
X120525000Y-66268268D01*
X120525000Y-68161002D01*
X120582852Y-68451841D01*
X120747599Y-68698403D01*
X123461598Y-71412402D01*
X123708159Y-71577149D01*
X123998999Y-71635001D01*
X130878659Y-71635001D01*
X131663471Y-72419813D01*
X131630420Y-72413120D01*
X130431540Y-72413120D01*
X130196223Y-72457398D01*
X129980099Y-72596470D01*
X129835109Y-72808670D01*
X129816614Y-72900000D01*
X129726742Y-72900000D01*
X129703162Y-72774683D01*
X129564090Y-72558559D01*
X129351890Y-72413569D01*
X129100000Y-72362560D01*
X127600000Y-72362560D01*
X127364683Y-72406838D01*
X127148559Y-72545910D01*
X127003569Y-72758110D01*
X126996809Y-72791490D01*
X126938327Y-72650301D01*
X126759698Y-72471673D01*
X126526309Y-72375000D01*
X125935750Y-72375000D01*
X125777000Y-72533750D01*
X125777000Y-73533000D01*
X125797000Y-73533000D01*
X125797000Y-73787000D01*
X125777000Y-73787000D01*
X125777000Y-73807000D01*
X125523000Y-73807000D01*
X125523000Y-73787000D01*
X124423750Y-73787000D01*
X124299775Y-73910975D01*
X123272490Y-72883690D01*
X124265000Y-72883690D01*
X124265000Y-73374250D01*
X124423750Y-73533000D01*
X125523000Y-73533000D01*
X125523000Y-72533750D01*
X125364250Y-72375000D01*
X124773691Y-72375000D01*
X124540302Y-72471673D01*
X124361673Y-72650301D01*
X124265000Y-72883690D01*
X123272490Y-72883690D01*
X118165010Y-67776210D01*
X118165010Y-65170966D01*
X118128838Y-64989119D01*
X118107158Y-64880126D01*
X117942411Y-64633565D01*
X116906445Y-63597599D01*
X116659883Y-63432852D01*
X116369044Y-63375000D01*
X116100123Y-63375000D01*
X116102931Y-63370890D01*
X116153940Y-63119000D01*
X116153940Y-62611000D01*
X116118001Y-62420000D01*
X116522446Y-62420000D01*
X116546179Y-62429855D01*
X116878363Y-62430145D01*
X117185372Y-62303292D01*
X117420466Y-62068607D01*
X117547855Y-61761821D01*
X117548145Y-61429637D01*
X117421292Y-61122628D01*
X117186607Y-60887534D01*
X116879821Y-60760145D01*
X116547637Y-60759855D01*
X116523084Y-60770000D01*
X116115262Y-60770000D01*
X116153940Y-60579000D01*
X116153940Y-60498362D01*
X116368902Y-60283400D01*
X116533649Y-60036838D01*
X116591501Y-59745999D01*
X116591501Y-58540999D01*
X116542568Y-58295000D01*
X116533649Y-58250159D01*
X116368902Y-58003598D01*
X116247903Y-57882599D01*
X116001341Y-57717852D01*
X115710502Y-57660000D01*
X114788000Y-57660000D01*
X114788000Y-57658000D01*
X114808000Y-57658000D01*
X114808000Y-57638000D01*
X115062000Y-57638000D01*
X115062000Y-57658000D01*
X115982750Y-57658000D01*
X116141500Y-57499250D01*
X116141500Y-57404691D01*
X116044827Y-57171302D01*
X116018291Y-57144765D01*
X116102931Y-57020890D01*
X116153940Y-56769000D01*
X116153940Y-56261000D01*
X116109662Y-56025683D01*
X115970590Y-55809559D01*
X115758390Y-55664569D01*
X115506500Y-55613560D01*
X114363500Y-55613560D01*
X114128183Y-55657838D01*
X113912059Y-55796910D01*
X113767069Y-56009110D01*
X113716060Y-56261000D01*
X113716060Y-56769000D01*
X113760338Y-57004317D01*
X113817592Y-57093292D01*
X112520000Y-55795700D01*
X112520000Y-52244648D01*
X112819670Y-52044415D01*
X113030000Y-51729634D01*
X113240330Y-52044415D01*
X113726511Y-52369271D01*
X114300000Y-52483345D01*
X114873489Y-52369271D01*
X115359670Y-52044415D01*
X115374500Y-52022220D01*
X115438073Y-52175698D01*
X115616701Y-52354327D01*
X115850090Y-52451000D01*
X116554250Y-52451000D01*
X116713000Y-52292250D01*
X116713000Y-50927000D01*
X116967000Y-50927000D01*
X116967000Y-52292250D01*
X117125750Y-52451000D01*
X117829910Y-52451000D01*
X118063299Y-52354327D01*
X118241927Y-52175698D01*
X118338600Y-51942309D01*
X118338600Y-51085750D01*
X124265000Y-51085750D01*
X124265000Y-51576310D01*
X124361673Y-51809699D01*
X124540302Y-51988327D01*
X124773691Y-52085000D01*
X125364250Y-52085000D01*
X125523000Y-51926250D01*
X125523000Y-50927000D01*
X124423750Y-50927000D01*
X124265000Y-51085750D01*
X118338600Y-51085750D01*
X118179850Y-50927000D01*
X116967000Y-50927000D01*
X116713000Y-50927000D01*
X116693000Y-50927000D01*
X116693000Y-50673000D01*
X116713000Y-50673000D01*
X116713000Y-49307750D01*
X116967000Y-49307750D01*
X116967000Y-50673000D01*
X118179850Y-50673000D01*
X118338600Y-50514250D01*
X118338600Y-50023690D01*
X124265000Y-50023690D01*
X124265000Y-50514250D01*
X124423750Y-50673000D01*
X125523000Y-50673000D01*
X125523000Y-49673750D01*
X125364250Y-49515000D01*
X124773691Y-49515000D01*
X124540302Y-49611673D01*
X124361673Y-49790301D01*
X124265000Y-50023690D01*
X118338600Y-50023690D01*
X118338600Y-49657691D01*
X118241927Y-49424302D01*
X118063299Y-49245673D01*
X117829910Y-49149000D01*
X117125750Y-49149000D01*
X116967000Y-49307750D01*
X116713000Y-49307750D01*
X116554250Y-49149000D01*
X115850090Y-49149000D01*
X115616701Y-49245673D01*
X115438073Y-49424302D01*
X115374500Y-49577780D01*
X115359670Y-49555585D01*
X114873489Y-49230729D01*
X114300000Y-49116655D01*
X113726511Y-49230729D01*
X113240330Y-49555585D01*
X113030000Y-49870366D01*
X112819670Y-49555585D01*
X112333489Y-49230729D01*
X111760000Y-49116655D01*
X111186511Y-49230729D01*
X110700330Y-49555585D01*
X110490000Y-49870366D01*
X110279670Y-49555585D01*
X109793489Y-49230729D01*
X109220000Y-49116655D01*
X108646511Y-49230729D01*
X108160330Y-49555585D01*
X107950000Y-49870366D01*
X107739670Y-49555585D01*
X107253489Y-49230729D01*
X106680000Y-49116655D01*
X106106511Y-49230729D01*
X105620330Y-49555585D01*
X105295474Y-50041766D01*
X105181400Y-50615255D01*
X105181400Y-50984745D01*
X105295474Y-51558234D01*
X105620330Y-52044415D01*
X105920000Y-52244648D01*
X105920000Y-55823198D01*
X104827499Y-54730697D01*
X104827499Y-53584999D01*
X104769647Y-53294160D01*
X104604900Y-53047598D01*
X104358338Y-52882851D01*
X104067499Y-52824999D01*
X92641341Y-52824999D01*
X91856529Y-52040187D01*
X91889580Y-52046880D01*
X93088460Y-52046880D01*
X93323777Y-52002602D01*
X93539901Y-51863530D01*
X93684891Y-51651330D01*
X93703386Y-51560000D01*
X93793258Y-51560000D01*
X93816838Y-51685317D01*
X93955910Y-51901441D01*
X94168110Y-52046431D01*
X94420000Y-52097440D01*
X95920000Y-52097440D01*
X96155317Y-52053162D01*
X96371441Y-51914090D01*
X96516431Y-51701890D01*
X96523191Y-51668510D01*
X96581673Y-51809699D01*
X96760302Y-51988327D01*
X96993691Y-52085000D01*
X97584250Y-52085000D01*
X97743000Y-51926250D01*
X97743000Y-50927000D01*
X97997000Y-50927000D01*
X97997000Y-51926250D01*
X98155750Y-52085000D01*
X98746309Y-52085000D01*
X98979698Y-51988327D01*
X99158327Y-51809699D01*
X99255000Y-51576310D01*
X99255000Y-51085750D01*
X99096250Y-50927000D01*
X97997000Y-50927000D01*
X97743000Y-50927000D01*
X97723000Y-50927000D01*
X97723000Y-50673000D01*
X97743000Y-50673000D01*
X97743000Y-49673750D01*
X97997000Y-49673750D01*
X97997000Y-50673000D01*
X99096250Y-50673000D01*
X99255000Y-50514250D01*
X99255000Y-50023690D01*
X99158327Y-49790301D01*
X98979698Y-49611673D01*
X98746309Y-49515000D01*
X98155750Y-49515000D01*
X97997000Y-49673750D01*
X97743000Y-49673750D01*
X97584250Y-49515000D01*
X96993691Y-49515000D01*
X96760302Y-49611673D01*
X96581673Y-49790301D01*
X96525346Y-49926287D01*
X96523162Y-49914683D01*
X96384090Y-49698559D01*
X96171890Y-49553569D01*
X95920000Y-49502560D01*
X94420000Y-49502560D01*
X94184683Y-49546838D01*
X93968559Y-49685910D01*
X93823569Y-49898110D01*
X93794836Y-50040000D01*
X93705689Y-50040000D01*
X93691622Y-49965243D01*
X93552550Y-49749119D01*
X93340350Y-49604129D01*
X93088460Y-49553120D01*
X91889580Y-49553120D01*
X91654263Y-49597398D01*
X91438139Y-49736470D01*
X91437457Y-49737467D01*
X91242310Y-49604129D01*
X90990420Y-49553120D01*
X89791540Y-49553120D01*
X89610000Y-49587279D01*
X89610000Y-48970000D01*
X133910000Y-48970000D01*
X133910000Y-49589883D01*
X133910000Y-49589883D01*
G37*
X133910000Y-49589883D02*
X133728460Y-49553120D01*
X132529580Y-49553120D01*
X132294263Y-49597398D01*
X132078139Y-49736470D01*
X132077457Y-49737467D01*
X131882310Y-49604129D01*
X131630420Y-49553120D01*
X130431540Y-49553120D01*
X130196223Y-49597398D01*
X129980099Y-49736470D01*
X129835109Y-49948670D01*
X129816614Y-50040000D01*
X129726742Y-50040000D01*
X129703162Y-49914683D01*
X129564090Y-49698559D01*
X129351890Y-49553569D01*
X129100000Y-49502560D01*
X127600000Y-49502560D01*
X127364683Y-49546838D01*
X127148559Y-49685910D01*
X127003569Y-49898110D01*
X126996809Y-49931490D01*
X126938327Y-49790301D01*
X126759698Y-49611673D01*
X126526309Y-49515000D01*
X125935750Y-49515000D01*
X125777000Y-49673750D01*
X125777000Y-50673000D01*
X125797000Y-50673000D01*
X125797000Y-50927000D01*
X125777000Y-50927000D01*
X125777000Y-51926250D01*
X125935750Y-52085000D01*
X126526309Y-52085000D01*
X126759698Y-51988327D01*
X126938327Y-51809699D01*
X126994654Y-51673713D01*
X126996838Y-51685317D01*
X127135910Y-51901441D01*
X127348110Y-52046431D01*
X127600000Y-52097440D01*
X129100000Y-52097440D01*
X129335317Y-52053162D01*
X129551441Y-51914090D01*
X129696431Y-51701890D01*
X129725164Y-51560000D01*
X129814311Y-51560000D01*
X129828378Y-51634757D01*
X129967450Y-51850881D01*
X130179650Y-51995871D01*
X130431540Y-52046880D01*
X131630420Y-52046880D01*
X131662887Y-52040771D01*
X130878659Y-52824999D01*
X123998999Y-52824999D01*
X123708160Y-52882851D01*
X123461598Y-53047598D01*
X121865042Y-54644154D01*
X121758607Y-54537534D01*
X121451821Y-54410145D01*
X121119637Y-54409855D01*
X120812628Y-54536708D01*
X120577534Y-54771393D01*
X120450145Y-55078179D01*
X120449855Y-55410363D01*
X120460000Y-55434916D01*
X120460000Y-55669538D01*
X120262059Y-55796910D01*
X120117069Y-56009110D01*
X120066060Y-56261000D01*
X120066060Y-56769000D01*
X120110338Y-57004317D01*
X120204666Y-57150907D01*
X120117069Y-57279110D01*
X120066060Y-57531000D01*
X120066060Y-58039000D01*
X120110338Y-58274317D01*
X120204666Y-58420907D01*
X120117069Y-58549110D01*
X120066060Y-58801000D01*
X120066060Y-59309000D01*
X120110338Y-59544317D01*
X120204666Y-59690907D01*
X120117069Y-59819110D01*
X120066060Y-60071000D01*
X120066060Y-60579000D01*
X120110338Y-60814317D01*
X120204666Y-60960907D01*
X120117069Y-61089110D01*
X120066060Y-61341000D01*
X120066060Y-61849000D01*
X120110338Y-62084317D01*
X120204666Y-62230907D01*
X120117069Y-62359110D01*
X120066060Y-62611000D01*
X120066060Y-63119000D01*
X120110338Y-63354317D01*
X120204666Y-63500907D01*
X120117069Y-63629110D01*
X120066060Y-63881000D01*
X120066060Y-64389000D01*
X120110338Y-64624317D01*
X120204666Y-64770907D01*
X120117069Y-64899110D01*
X120066060Y-65151000D01*
X120066060Y-65659000D01*
X120110338Y-65894317D01*
X120249410Y-66110441D01*
X120461610Y-66255431D01*
X120525000Y-66268268D01*
X120525000Y-68161002D01*
X120582852Y-68451841D01*
X120747599Y-68698403D01*
X123461598Y-71412402D01*
X123708159Y-71577149D01*
X123998999Y-71635001D01*
X130878659Y-71635001D01*
X131663471Y-72419813D01*
X131630420Y-72413120D01*
X130431540Y-72413120D01*
X130196223Y-72457398D01*
X129980099Y-72596470D01*
X129835109Y-72808670D01*
X129816614Y-72900000D01*
X129726742Y-72900000D01*
X129703162Y-72774683D01*
X129564090Y-72558559D01*
X129351890Y-72413569D01*
X129100000Y-72362560D01*
X127600000Y-72362560D01*
X127364683Y-72406838D01*
X127148559Y-72545910D01*
X127003569Y-72758110D01*
X126996809Y-72791490D01*
X126938327Y-72650301D01*
X126759698Y-72471673D01*
X126526309Y-72375000D01*
X125935750Y-72375000D01*
X125777000Y-72533750D01*
X125777000Y-73533000D01*
X125797000Y-73533000D01*
X125797000Y-73787000D01*
X125777000Y-73787000D01*
X125777000Y-73807000D01*
X125523000Y-73807000D01*
X125523000Y-73787000D01*
X124423750Y-73787000D01*
X124299775Y-73910975D01*
X123272490Y-72883690D01*
X124265000Y-72883690D01*
X124265000Y-73374250D01*
X124423750Y-73533000D01*
X125523000Y-73533000D01*
X125523000Y-72533750D01*
X125364250Y-72375000D01*
X124773691Y-72375000D01*
X124540302Y-72471673D01*
X124361673Y-72650301D01*
X124265000Y-72883690D01*
X123272490Y-72883690D01*
X118165010Y-67776210D01*
X118165010Y-65170966D01*
X118128838Y-64989119D01*
X118107158Y-64880126D01*
X117942411Y-64633565D01*
X116906445Y-63597599D01*
X116659883Y-63432852D01*
X116369044Y-63375000D01*
X116100123Y-63375000D01*
X116102931Y-63370890D01*
X116153940Y-63119000D01*
X116153940Y-62611000D01*
X116118001Y-62420000D01*
X116522446Y-62420000D01*
X116546179Y-62429855D01*
X116878363Y-62430145D01*
X117185372Y-62303292D01*
X117420466Y-62068607D01*
X117547855Y-61761821D01*
X117548145Y-61429637D01*
X117421292Y-61122628D01*
X117186607Y-60887534D01*
X116879821Y-60760145D01*
X116547637Y-60759855D01*
X116523084Y-60770000D01*
X116115262Y-60770000D01*
X116153940Y-60579000D01*
X116153940Y-60498362D01*
X116368902Y-60283400D01*
X116533649Y-60036838D01*
X116591501Y-59745999D01*
X116591501Y-58540999D01*
X116542568Y-58295000D01*
X116533649Y-58250159D01*
X116368902Y-58003598D01*
X116247903Y-57882599D01*
X116001341Y-57717852D01*
X115710502Y-57660000D01*
X114788000Y-57660000D01*
X114788000Y-57658000D01*
X114808000Y-57658000D01*
X114808000Y-57638000D01*
X115062000Y-57638000D01*
X115062000Y-57658000D01*
X115982750Y-57658000D01*
X116141500Y-57499250D01*
X116141500Y-57404691D01*
X116044827Y-57171302D01*
X116018291Y-57144765D01*
X116102931Y-57020890D01*
X116153940Y-56769000D01*
X116153940Y-56261000D01*
X116109662Y-56025683D01*
X115970590Y-55809559D01*
X115758390Y-55664569D01*
X115506500Y-55613560D01*
X114363500Y-55613560D01*
X114128183Y-55657838D01*
X113912059Y-55796910D01*
X113767069Y-56009110D01*
X113716060Y-56261000D01*
X113716060Y-56769000D01*
X113760338Y-57004317D01*
X113817592Y-57093292D01*
X112520000Y-55795700D01*
X112520000Y-52244648D01*
X112819670Y-52044415D01*
X113030000Y-51729634D01*
X113240330Y-52044415D01*
X113726511Y-52369271D01*
X114300000Y-52483345D01*
X114873489Y-52369271D01*
X115359670Y-52044415D01*
X115374500Y-52022220D01*
X115438073Y-52175698D01*
X115616701Y-52354327D01*
X115850090Y-52451000D01*
X116554250Y-52451000D01*
X116713000Y-52292250D01*
X116713000Y-50927000D01*
X116967000Y-50927000D01*
X116967000Y-52292250D01*
X117125750Y-52451000D01*
X117829910Y-52451000D01*
X118063299Y-52354327D01*
X118241927Y-52175698D01*
X118338600Y-51942309D01*
X118338600Y-51085750D01*
X124265000Y-51085750D01*
X124265000Y-51576310D01*
X124361673Y-51809699D01*
X124540302Y-51988327D01*
X124773691Y-52085000D01*
X125364250Y-52085000D01*
X125523000Y-51926250D01*
X125523000Y-50927000D01*
X124423750Y-50927000D01*
X124265000Y-51085750D01*
X118338600Y-51085750D01*
X118179850Y-50927000D01*
X116967000Y-50927000D01*
X116713000Y-50927000D01*
X116693000Y-50927000D01*
X116693000Y-50673000D01*
X116713000Y-50673000D01*
X116713000Y-49307750D01*
X116967000Y-49307750D01*
X116967000Y-50673000D01*
X118179850Y-50673000D01*
X118338600Y-50514250D01*
X118338600Y-50023690D01*
X124265000Y-50023690D01*
X124265000Y-50514250D01*
X124423750Y-50673000D01*
X125523000Y-50673000D01*
X125523000Y-49673750D01*
X125364250Y-49515000D01*
X124773691Y-49515000D01*
X124540302Y-49611673D01*
X124361673Y-49790301D01*
X124265000Y-50023690D01*
X118338600Y-50023690D01*
X118338600Y-49657691D01*
X118241927Y-49424302D01*
X118063299Y-49245673D01*
X117829910Y-49149000D01*
X117125750Y-49149000D01*
X116967000Y-49307750D01*
X116713000Y-49307750D01*
X116554250Y-49149000D01*
X115850090Y-49149000D01*
X115616701Y-49245673D01*
X115438073Y-49424302D01*
X115374500Y-49577780D01*
X115359670Y-49555585D01*
X114873489Y-49230729D01*
X114300000Y-49116655D01*
X113726511Y-49230729D01*
X113240330Y-49555585D01*
X113030000Y-49870366D01*
X112819670Y-49555585D01*
X112333489Y-49230729D01*
X111760000Y-49116655D01*
X111186511Y-49230729D01*
X110700330Y-49555585D01*
X110490000Y-49870366D01*
X110279670Y-49555585D01*
X109793489Y-49230729D01*
X109220000Y-49116655D01*
X108646511Y-49230729D01*
X108160330Y-49555585D01*
X107950000Y-49870366D01*
X107739670Y-49555585D01*
X107253489Y-49230729D01*
X106680000Y-49116655D01*
X106106511Y-49230729D01*
X105620330Y-49555585D01*
X105295474Y-50041766D01*
X105181400Y-50615255D01*
X105181400Y-50984745D01*
X105295474Y-51558234D01*
X105620330Y-52044415D01*
X105920000Y-52244648D01*
X105920000Y-55823198D01*
X104827499Y-54730697D01*
X104827499Y-53584999D01*
X104769647Y-53294160D01*
X104604900Y-53047598D01*
X104358338Y-52882851D01*
X104067499Y-52824999D01*
X92641341Y-52824999D01*
X91856529Y-52040187D01*
X91889580Y-52046880D01*
X93088460Y-52046880D01*
X93323777Y-52002602D01*
X93539901Y-51863530D01*
X93684891Y-51651330D01*
X93703386Y-51560000D01*
X93793258Y-51560000D01*
X93816838Y-51685317D01*
X93955910Y-51901441D01*
X94168110Y-52046431D01*
X94420000Y-52097440D01*
X95920000Y-52097440D01*
X96155317Y-52053162D01*
X96371441Y-51914090D01*
X96516431Y-51701890D01*
X96523191Y-51668510D01*
X96581673Y-51809699D01*
X96760302Y-51988327D01*
X96993691Y-52085000D01*
X97584250Y-52085000D01*
X97743000Y-51926250D01*
X97743000Y-50927000D01*
X97997000Y-50927000D01*
X97997000Y-51926250D01*
X98155750Y-52085000D01*
X98746309Y-52085000D01*
X98979698Y-51988327D01*
X99158327Y-51809699D01*
X99255000Y-51576310D01*
X99255000Y-51085750D01*
X99096250Y-50927000D01*
X97997000Y-50927000D01*
X97743000Y-50927000D01*
X97723000Y-50927000D01*
X97723000Y-50673000D01*
X97743000Y-50673000D01*
X97743000Y-49673750D01*
X97997000Y-49673750D01*
X97997000Y-50673000D01*
X99096250Y-50673000D01*
X99255000Y-50514250D01*
X99255000Y-50023690D01*
X99158327Y-49790301D01*
X98979698Y-49611673D01*
X98746309Y-49515000D01*
X98155750Y-49515000D01*
X97997000Y-49673750D01*
X97743000Y-49673750D01*
X97584250Y-49515000D01*
X96993691Y-49515000D01*
X96760302Y-49611673D01*
X96581673Y-49790301D01*
X96525346Y-49926287D01*
X96523162Y-49914683D01*
X96384090Y-49698559D01*
X96171890Y-49553569D01*
X95920000Y-49502560D01*
X94420000Y-49502560D01*
X94184683Y-49546838D01*
X93968559Y-49685910D01*
X93823569Y-49898110D01*
X93794836Y-50040000D01*
X93705689Y-50040000D01*
X93691622Y-49965243D01*
X93552550Y-49749119D01*
X93340350Y-49604129D01*
X93088460Y-49553120D01*
X91889580Y-49553120D01*
X91654263Y-49597398D01*
X91438139Y-49736470D01*
X91437457Y-49737467D01*
X91242310Y-49604129D01*
X90990420Y-49553120D01*
X89791540Y-49553120D01*
X89610000Y-49587279D01*
X89610000Y-48970000D01*
X133910000Y-48970000D01*
X133910000Y-49589883D01*
G36*
X100528499Y-72602701D02*
X99220225Y-73910975D01*
X99096250Y-73787000D01*
X97997000Y-73787000D01*
X97997000Y-73807000D01*
X97743000Y-73807000D01*
X97743000Y-73787000D01*
X97723000Y-73787000D01*
X97723000Y-73533000D01*
X97743000Y-73533000D01*
X97743000Y-72533750D01*
X97997000Y-72533750D01*
X97997000Y-73533000D01*
X99096250Y-73533000D01*
X99255000Y-73374250D01*
X99255000Y-72883690D01*
X99158327Y-72650301D01*
X98979698Y-72471673D01*
X98746309Y-72375000D01*
X98155750Y-72375000D01*
X97997000Y-72533750D01*
X97743000Y-72533750D01*
X97584250Y-72375000D01*
X96993691Y-72375000D01*
X96760302Y-72471673D01*
X96581673Y-72650301D01*
X96525346Y-72786287D01*
X96523162Y-72774683D01*
X96384090Y-72558559D01*
X96171890Y-72413569D01*
X95920000Y-72362560D01*
X94420000Y-72362560D01*
X94184683Y-72406838D01*
X93968559Y-72545910D01*
X93823569Y-72758110D01*
X93794836Y-72900000D01*
X93705689Y-72900000D01*
X93691622Y-72825243D01*
X93552550Y-72609119D01*
X93340350Y-72464129D01*
X93088460Y-72413120D01*
X91889580Y-72413120D01*
X91857113Y-72419229D01*
X92641341Y-71635001D01*
X99521001Y-71635001D01*
X99811840Y-71577149D01*
X100058402Y-71412402D01*
X100528499Y-70942305D01*
X100528499Y-72602701D01*
X100528499Y-72602701D01*
G37*
X100528499Y-72602701D02*
X99220225Y-73910975D01*
X99096250Y-73787000D01*
X97997000Y-73787000D01*
X97997000Y-73807000D01*
X97743000Y-73807000D01*
X97743000Y-73787000D01*
X97723000Y-73787000D01*
X97723000Y-73533000D01*
X97743000Y-73533000D01*
X97743000Y-72533750D01*
X97997000Y-72533750D01*
X97997000Y-73533000D01*
X99096250Y-73533000D01*
X99255000Y-73374250D01*
X99255000Y-72883690D01*
X99158327Y-72650301D01*
X98979698Y-72471673D01*
X98746309Y-72375000D01*
X98155750Y-72375000D01*
X97997000Y-72533750D01*
X97743000Y-72533750D01*
X97584250Y-72375000D01*
X96993691Y-72375000D01*
X96760302Y-72471673D01*
X96581673Y-72650301D01*
X96525346Y-72786287D01*
X96523162Y-72774683D01*
X96384090Y-72558559D01*
X96171890Y-72413569D01*
X95920000Y-72362560D01*
X94420000Y-72362560D01*
X94184683Y-72406838D01*
X93968559Y-72545910D01*
X93823569Y-72758110D01*
X93794836Y-72900000D01*
X93705689Y-72900000D01*
X93691622Y-72825243D01*
X93552550Y-72609119D01*
X93340350Y-72464129D01*
X93088460Y-72413120D01*
X91889580Y-72413120D01*
X91857113Y-72419229D01*
X92641341Y-71635001D01*
X99521001Y-71635001D01*
X99811840Y-71577149D01*
X100058402Y-71412402D01*
X100528499Y-70942305D01*
X100528499Y-72602701D01*
G36*
X100078490Y-69242710D02*
X99220225Y-70100975D01*
X99096250Y-69977000D01*
X97997000Y-69977000D01*
X97997000Y-69997000D01*
X97743000Y-69997000D01*
X97743000Y-69977000D01*
X97723000Y-69977000D01*
X97723000Y-69723000D01*
X97743000Y-69723000D01*
X97743000Y-68723750D01*
X97997000Y-68723750D01*
X97997000Y-69723000D01*
X99096250Y-69723000D01*
X99255000Y-69564250D01*
X99255000Y-69073690D01*
X99158327Y-68840301D01*
X98979698Y-68661673D01*
X98746309Y-68565000D01*
X98155750Y-68565000D01*
X97997000Y-68723750D01*
X97743000Y-68723750D01*
X97584250Y-68565000D01*
X96993691Y-68565000D01*
X96760302Y-68661673D01*
X96581673Y-68840301D01*
X96525346Y-68976287D01*
X96523162Y-68964683D01*
X96384090Y-68748559D01*
X96171890Y-68603569D01*
X95920000Y-68552560D01*
X94420000Y-68552560D01*
X94184683Y-68596838D01*
X93968559Y-68735910D01*
X93823569Y-68948110D01*
X93794836Y-69090000D01*
X93705689Y-69090000D01*
X93691622Y-69015243D01*
X93552550Y-68799119D01*
X93340350Y-68654129D01*
X93088460Y-68603120D01*
X91889580Y-68603120D01*
X91857113Y-68609229D01*
X92641341Y-67825001D01*
X99521001Y-67825001D01*
X99811840Y-67767149D01*
X100058402Y-67602402D01*
X100078490Y-67582314D01*
X100078490Y-69242710D01*
X100078490Y-69242710D01*
G37*
X100078490Y-69242710D02*
X99220225Y-70100975D01*
X99096250Y-69977000D01*
X97997000Y-69977000D01*
X97997000Y-69997000D01*
X97743000Y-69997000D01*
X97743000Y-69977000D01*
X97723000Y-69977000D01*
X97723000Y-69723000D01*
X97743000Y-69723000D01*
X97743000Y-68723750D01*
X97997000Y-68723750D01*
X97997000Y-69723000D01*
X99096250Y-69723000D01*
X99255000Y-69564250D01*
X99255000Y-69073690D01*
X99158327Y-68840301D01*
X98979698Y-68661673D01*
X98746309Y-68565000D01*
X98155750Y-68565000D01*
X97997000Y-68723750D01*
X97743000Y-68723750D01*
X97584250Y-68565000D01*
X96993691Y-68565000D01*
X96760302Y-68661673D01*
X96581673Y-68840301D01*
X96525346Y-68976287D01*
X96523162Y-68964683D01*
X96384090Y-68748559D01*
X96171890Y-68603569D01*
X95920000Y-68552560D01*
X94420000Y-68552560D01*
X94184683Y-68596838D01*
X93968559Y-68735910D01*
X93823569Y-68948110D01*
X93794836Y-69090000D01*
X93705689Y-69090000D01*
X93691622Y-69015243D01*
X93552550Y-68799119D01*
X93340350Y-68654129D01*
X93088460Y-68603120D01*
X91889580Y-68603120D01*
X91857113Y-68609229D01*
X92641341Y-67825001D01*
X99521001Y-67825001D01*
X99811840Y-67767149D01*
X100058402Y-67602402D01*
X100078490Y-67582314D01*
X100078490Y-69242710D01*
G36*
X123461598Y-67602402D02*
X123708159Y-67767149D01*
X123998999Y-67825001D01*
X130878659Y-67825001D01*
X131663471Y-68609813D01*
X131630420Y-68603120D01*
X130431540Y-68603120D01*
X130196223Y-68647398D01*
X129980099Y-68786470D01*
X129835109Y-68998670D01*
X129816614Y-69090000D01*
X129726742Y-69090000D01*
X129703162Y-68964683D01*
X129564090Y-68748559D01*
X129351890Y-68603569D01*
X129100000Y-68552560D01*
X127600000Y-68552560D01*
X127364683Y-68596838D01*
X127148559Y-68735910D01*
X127003569Y-68948110D01*
X126996809Y-68981490D01*
X126938327Y-68840301D01*
X126759698Y-68661673D01*
X126526309Y-68565000D01*
X125935750Y-68565000D01*
X125777000Y-68723750D01*
X125777000Y-69723000D01*
X125797000Y-69723000D01*
X125797000Y-69977000D01*
X125777000Y-69977000D01*
X125777000Y-69997000D01*
X125523000Y-69997000D01*
X125523000Y-69977000D01*
X124423750Y-69977000D01*
X124299775Y-70100975D01*
X123272490Y-69073690D01*
X124265000Y-69073690D01*
X124265000Y-69564250D01*
X124423750Y-69723000D01*
X125523000Y-69723000D01*
X125523000Y-68723750D01*
X125364250Y-68565000D01*
X124773691Y-68565000D01*
X124540302Y-68661673D01*
X124361673Y-68840301D01*
X124265000Y-69073690D01*
X123272490Y-69073690D01*
X122045000Y-67846200D01*
X122045000Y-66270971D01*
X122091817Y-66262162D01*
X122109792Y-66250596D01*
X123461598Y-67602402D01*
X123461598Y-67602402D01*
G37*
X123461598Y-67602402D02*
X123708159Y-67767149D01*
X123998999Y-67825001D01*
X130878659Y-67825001D01*
X131663471Y-68609813D01*
X131630420Y-68603120D01*
X130431540Y-68603120D01*
X130196223Y-68647398D01*
X129980099Y-68786470D01*
X129835109Y-68998670D01*
X129816614Y-69090000D01*
X129726742Y-69090000D01*
X129703162Y-68964683D01*
X129564090Y-68748559D01*
X129351890Y-68603569D01*
X129100000Y-68552560D01*
X127600000Y-68552560D01*
X127364683Y-68596838D01*
X127148559Y-68735910D01*
X127003569Y-68948110D01*
X126996809Y-68981490D01*
X126938327Y-68840301D01*
X126759698Y-68661673D01*
X126526309Y-68565000D01*
X125935750Y-68565000D01*
X125777000Y-68723750D01*
X125777000Y-69723000D01*
X125797000Y-69723000D01*
X125797000Y-69977000D01*
X125777000Y-69977000D01*
X125777000Y-69997000D01*
X125523000Y-69997000D01*
X125523000Y-69977000D01*
X124423750Y-69977000D01*
X124299775Y-70100975D01*
X123272490Y-69073690D01*
X124265000Y-69073690D01*
X124265000Y-69564250D01*
X124423750Y-69723000D01*
X125523000Y-69723000D01*
X125523000Y-68723750D01*
X125364250Y-68565000D01*
X124773691Y-68565000D01*
X124540302Y-68661673D01*
X124361673Y-68840301D01*
X124265000Y-69073690D01*
X123272490Y-69073690D01*
X122045000Y-67846200D01*
X122045000Y-66270971D01*
X122091817Y-66262162D01*
X122109792Y-66250596D01*
X123461598Y-67602402D01*
G36*
X99628480Y-65882720D02*
X99220225Y-66290975D01*
X99096250Y-66167000D01*
X97997000Y-66167000D01*
X97997000Y-66187000D01*
X97743000Y-66187000D01*
X97743000Y-66167000D01*
X97723000Y-66167000D01*
X97723000Y-65913000D01*
X97743000Y-65913000D01*
X97743000Y-64913750D01*
X97997000Y-64913750D01*
X97997000Y-65913000D01*
X99096250Y-65913000D01*
X99255000Y-65754250D01*
X99255000Y-65263690D01*
X99158327Y-65030301D01*
X98979698Y-64851673D01*
X98746309Y-64755000D01*
X98155750Y-64755000D01*
X97997000Y-64913750D01*
X97743000Y-64913750D01*
X97584250Y-64755000D01*
X96993691Y-64755000D01*
X96760302Y-64851673D01*
X96581673Y-65030301D01*
X96525346Y-65166287D01*
X96523162Y-65154683D01*
X96384090Y-64938559D01*
X96171890Y-64793569D01*
X95920000Y-64742560D01*
X94420000Y-64742560D01*
X94184683Y-64786838D01*
X93968559Y-64925910D01*
X93823569Y-65138110D01*
X93794836Y-65280000D01*
X93705689Y-65280000D01*
X93691622Y-65205243D01*
X93552550Y-64989119D01*
X93340350Y-64844129D01*
X93088460Y-64793120D01*
X91889580Y-64793120D01*
X91857113Y-64799229D01*
X92641341Y-64015001D01*
X99521001Y-64015001D01*
X99628480Y-63993622D01*
X99628480Y-65882720D01*
X99628480Y-65882720D01*
G37*
X99628480Y-65882720D02*
X99220225Y-66290975D01*
X99096250Y-66167000D01*
X97997000Y-66167000D01*
X97997000Y-66187000D01*
X97743000Y-66187000D01*
X97743000Y-66167000D01*
X97723000Y-66167000D01*
X97723000Y-65913000D01*
X97743000Y-65913000D01*
X97743000Y-64913750D01*
X97997000Y-64913750D01*
X97997000Y-65913000D01*
X99096250Y-65913000D01*
X99255000Y-65754250D01*
X99255000Y-65263690D01*
X99158327Y-65030301D01*
X98979698Y-64851673D01*
X98746309Y-64755000D01*
X98155750Y-64755000D01*
X97997000Y-64913750D01*
X97743000Y-64913750D01*
X97584250Y-64755000D01*
X96993691Y-64755000D01*
X96760302Y-64851673D01*
X96581673Y-65030301D01*
X96525346Y-65166287D01*
X96523162Y-65154683D01*
X96384090Y-64938559D01*
X96171890Y-64793569D01*
X95920000Y-64742560D01*
X94420000Y-64742560D01*
X94184683Y-64786838D01*
X93968559Y-64925910D01*
X93823569Y-65138110D01*
X93794836Y-65280000D01*
X93705689Y-65280000D01*
X93691622Y-65205243D01*
X93552550Y-64989119D01*
X93340350Y-64844129D01*
X93088460Y-64793120D01*
X91889580Y-64793120D01*
X91857113Y-64799229D01*
X92641341Y-64015001D01*
X99521001Y-64015001D01*
X99628480Y-63993622D01*
X99628480Y-65882720D01*
G36*
X131663471Y-64799813D02*
X131630420Y-64793120D01*
X130431540Y-64793120D01*
X130196223Y-64837398D01*
X129980099Y-64976470D01*
X129835109Y-65188670D01*
X129816614Y-65280000D01*
X129726742Y-65280000D01*
X129703162Y-65154683D01*
X129564090Y-64938559D01*
X129351890Y-64793569D01*
X129100000Y-64742560D01*
X127600000Y-64742560D01*
X127364683Y-64786838D01*
X127148559Y-64925910D01*
X127003569Y-65138110D01*
X126996809Y-65171490D01*
X126938327Y-65030301D01*
X126759698Y-64851673D01*
X126526309Y-64755000D01*
X125935750Y-64755000D01*
X125777000Y-64913750D01*
X125777000Y-65913000D01*
X125797000Y-65913000D01*
X125797000Y-66167000D01*
X125777000Y-66167000D01*
X125777000Y-66187000D01*
X125523000Y-66187000D01*
X125523000Y-66167000D01*
X124423750Y-66167000D01*
X124299775Y-66290975D01*
X123272490Y-65263690D01*
X124265000Y-65263690D01*
X124265000Y-65754250D01*
X124423750Y-65913000D01*
X125523000Y-65913000D01*
X125523000Y-64913750D01*
X125364250Y-64755000D01*
X124773691Y-64755000D01*
X124540302Y-64851673D01*
X124361673Y-65030301D01*
X124265000Y-65263690D01*
X123272490Y-65263690D01*
X122941501Y-64932701D01*
X122941501Y-64714001D01*
X122883649Y-64423162D01*
X122718902Y-64176600D01*
X122557303Y-64015001D01*
X130878659Y-64015001D01*
X131663471Y-64799813D01*
X131663471Y-64799813D01*
G37*
X131663471Y-64799813D02*
X131630420Y-64793120D01*
X130431540Y-64793120D01*
X130196223Y-64837398D01*
X129980099Y-64976470D01*
X129835109Y-65188670D01*
X129816614Y-65280000D01*
X129726742Y-65280000D01*
X129703162Y-65154683D01*
X129564090Y-64938559D01*
X129351890Y-64793569D01*
X129100000Y-64742560D01*
X127600000Y-64742560D01*
X127364683Y-64786838D01*
X127148559Y-64925910D01*
X127003569Y-65138110D01*
X126996809Y-65171490D01*
X126938327Y-65030301D01*
X126759698Y-64851673D01*
X126526309Y-64755000D01*
X125935750Y-64755000D01*
X125777000Y-64913750D01*
X125777000Y-65913000D01*
X125797000Y-65913000D01*
X125797000Y-66167000D01*
X125777000Y-66167000D01*
X125777000Y-66187000D01*
X125523000Y-66187000D01*
X125523000Y-66167000D01*
X124423750Y-66167000D01*
X124299775Y-66290975D01*
X123272490Y-65263690D01*
X124265000Y-65263690D01*
X124265000Y-65754250D01*
X124423750Y-65913000D01*
X125523000Y-65913000D01*
X125523000Y-64913750D01*
X125364250Y-64755000D01*
X124773691Y-64755000D01*
X124540302Y-64851673D01*
X124361673Y-65030301D01*
X124265000Y-65263690D01*
X123272490Y-65263690D01*
X122941501Y-64932701D01*
X122941501Y-64714001D01*
X122883649Y-64423162D01*
X122718902Y-64176600D01*
X122557303Y-64015001D01*
X130878659Y-64015001D01*
X131663471Y-64799813D01*
G36*
X103307499Y-55045499D02*
X103365351Y-55336338D01*
X103530098Y-55582900D01*
X106269599Y-58322401D01*
X106516160Y-58487148D01*
X106564414Y-58496746D01*
X106807000Y-58545000D01*
X107419877Y-58545000D01*
X107417069Y-58549110D01*
X107366060Y-58801000D01*
X107366060Y-59309000D01*
X107410315Y-59544195D01*
X107316786Y-59562799D01*
X107049137Y-59741637D01*
X103366359Y-63424415D01*
X103402931Y-63370890D01*
X103453940Y-63119000D01*
X103453940Y-62611000D01*
X103409662Y-62375683D01*
X103315334Y-62229093D01*
X103402931Y-62100890D01*
X103453940Y-61849000D01*
X103453940Y-61341000D01*
X103409662Y-61105683D01*
X103315334Y-60959093D01*
X103402931Y-60830890D01*
X103453940Y-60579000D01*
X103453940Y-60071000D01*
X103409662Y-59835683D01*
X103315334Y-59689093D01*
X103402931Y-59560890D01*
X103453940Y-59309000D01*
X103453940Y-58801000D01*
X103409662Y-58565683D01*
X103315334Y-58419093D01*
X103402931Y-58290890D01*
X103453940Y-58039000D01*
X103453940Y-57531000D01*
X103409662Y-57295683D01*
X103315334Y-57149093D01*
X103402931Y-57020890D01*
X103453940Y-56769000D01*
X103453940Y-56261000D01*
X103409662Y-56025683D01*
X103270590Y-55809559D01*
X103058390Y-55664569D01*
X102806500Y-55613560D01*
X101663500Y-55613560D01*
X101428183Y-55657838D01*
X101277189Y-55755000D01*
X99023025Y-55755000D01*
X99158327Y-55619699D01*
X99255000Y-55386310D01*
X99255000Y-54895750D01*
X99096250Y-54737000D01*
X97997000Y-54737000D01*
X97997000Y-54757000D01*
X97743000Y-54757000D01*
X97743000Y-54737000D01*
X97723000Y-54737000D01*
X97723000Y-54483000D01*
X97743000Y-54483000D01*
X97743000Y-54463000D01*
X97997000Y-54463000D01*
X97997000Y-54483000D01*
X99096250Y-54483000D01*
X99234251Y-54344999D01*
X103307499Y-54344999D01*
X103307499Y-55045499D01*
X103307499Y-55045499D01*
G37*
X103307499Y-55045499D02*
X103365351Y-55336338D01*
X103530098Y-55582900D01*
X106269599Y-58322401D01*
X106516160Y-58487148D01*
X106564414Y-58496746D01*
X106807000Y-58545000D01*
X107419877Y-58545000D01*
X107417069Y-58549110D01*
X107366060Y-58801000D01*
X107366060Y-59309000D01*
X107410315Y-59544195D01*
X107316786Y-59562799D01*
X107049137Y-59741637D01*
X103366359Y-63424415D01*
X103402931Y-63370890D01*
X103453940Y-63119000D01*
X103453940Y-62611000D01*
X103409662Y-62375683D01*
X103315334Y-62229093D01*
X103402931Y-62100890D01*
X103453940Y-61849000D01*
X103453940Y-61341000D01*
X103409662Y-61105683D01*
X103315334Y-60959093D01*
X103402931Y-60830890D01*
X103453940Y-60579000D01*
X103453940Y-60071000D01*
X103409662Y-59835683D01*
X103315334Y-59689093D01*
X103402931Y-59560890D01*
X103453940Y-59309000D01*
X103453940Y-58801000D01*
X103409662Y-58565683D01*
X103315334Y-58419093D01*
X103402931Y-58290890D01*
X103453940Y-58039000D01*
X103453940Y-57531000D01*
X103409662Y-57295683D01*
X103315334Y-57149093D01*
X103402931Y-57020890D01*
X103453940Y-56769000D01*
X103453940Y-56261000D01*
X103409662Y-56025683D01*
X103270590Y-55809559D01*
X103058390Y-55664569D01*
X102806500Y-55613560D01*
X101663500Y-55613560D01*
X101428183Y-55657838D01*
X101277189Y-55755000D01*
X99023025Y-55755000D01*
X99158327Y-55619699D01*
X99255000Y-55386310D01*
X99255000Y-54895750D01*
X99096250Y-54737000D01*
X97997000Y-54737000D01*
X97997000Y-54757000D01*
X97743000Y-54757000D01*
X97743000Y-54737000D01*
X97723000Y-54737000D01*
X97723000Y-54483000D01*
X97743000Y-54483000D01*
X97743000Y-54463000D01*
X97997000Y-54463000D01*
X97997000Y-54483000D01*
X99096250Y-54483000D01*
X99234251Y-54344999D01*
X103307499Y-54344999D01*
X103307499Y-55045499D01*
G36*
X124423750Y-62103000D02*
X125523000Y-62103000D01*
X125523000Y-62083000D01*
X125777000Y-62083000D01*
X125777000Y-62103000D01*
X125797000Y-62103000D01*
X125797000Y-62357000D01*
X125777000Y-62357000D01*
X125777000Y-62377000D01*
X125523000Y-62377000D01*
X125523000Y-62357000D01*
X124423750Y-62357000D01*
X124285749Y-62495001D01*
X122811303Y-62495001D01*
X122643901Y-62327599D01*
X122497833Y-62230000D01*
X122643901Y-62132401D01*
X122811303Y-61964999D01*
X124285749Y-61964999D01*
X124423750Y-62103000D01*
X124423750Y-62103000D01*
G37*
X124423750Y-62103000D02*
X125523000Y-62103000D01*
X125523000Y-62083000D01*
X125777000Y-62083000D01*
X125777000Y-62103000D01*
X125797000Y-62103000D01*
X125797000Y-62357000D01*
X125777000Y-62357000D01*
X125777000Y-62377000D01*
X125523000Y-62377000D01*
X125523000Y-62357000D01*
X124423750Y-62357000D01*
X124285749Y-62495001D01*
X122811303Y-62495001D01*
X122643901Y-62327599D01*
X122497833Y-62230000D01*
X122643901Y-62132401D01*
X122811303Y-61964999D01*
X124285749Y-61964999D01*
X124423750Y-62103000D01*
G36*
X100801098Y-60366600D02*
X100636351Y-60613162D01*
X100578499Y-60904001D01*
X100578499Y-61122701D01*
X99220225Y-62480975D01*
X99096250Y-62357000D01*
X97997000Y-62357000D01*
X97997000Y-62377000D01*
X97743000Y-62377000D01*
X97743000Y-62357000D01*
X97723000Y-62357000D01*
X97723000Y-62103000D01*
X97743000Y-62103000D01*
X97743000Y-61103750D01*
X97997000Y-61103750D01*
X97997000Y-62103000D01*
X99096250Y-62103000D01*
X99255000Y-61944250D01*
X99255000Y-61453690D01*
X99158327Y-61220301D01*
X98979698Y-61041673D01*
X98746309Y-60945000D01*
X98155750Y-60945000D01*
X97997000Y-61103750D01*
X97743000Y-61103750D01*
X97584250Y-60945000D01*
X96993691Y-60945000D01*
X96760302Y-61041673D01*
X96581673Y-61220301D01*
X96525346Y-61356287D01*
X96523162Y-61344683D01*
X96384090Y-61128559D01*
X96171890Y-60983569D01*
X95920000Y-60932560D01*
X94420000Y-60932560D01*
X94184683Y-60976838D01*
X93968559Y-61115910D01*
X93823569Y-61328110D01*
X93794836Y-61470000D01*
X93705689Y-61470000D01*
X93691622Y-61395243D01*
X93552550Y-61179119D01*
X93340350Y-61034129D01*
X93088460Y-60983120D01*
X91889580Y-60983120D01*
X91857113Y-60989229D01*
X92641341Y-60205001D01*
X100962697Y-60205001D01*
X100801098Y-60366600D01*
X100801098Y-60366600D01*
G37*
X100801098Y-60366600D02*
X100636351Y-60613162D01*
X100578499Y-60904001D01*
X100578499Y-61122701D01*
X99220225Y-62480975D01*
X99096250Y-62357000D01*
X97997000Y-62357000D01*
X97997000Y-62377000D01*
X97743000Y-62377000D01*
X97743000Y-62357000D01*
X97723000Y-62357000D01*
X97723000Y-62103000D01*
X97743000Y-62103000D01*
X97743000Y-61103750D01*
X97997000Y-61103750D01*
X97997000Y-62103000D01*
X99096250Y-62103000D01*
X99255000Y-61944250D01*
X99255000Y-61453690D01*
X99158327Y-61220301D01*
X98979698Y-61041673D01*
X98746309Y-60945000D01*
X98155750Y-60945000D01*
X97997000Y-61103750D01*
X97743000Y-61103750D01*
X97584250Y-60945000D01*
X96993691Y-60945000D01*
X96760302Y-61041673D01*
X96581673Y-61220301D01*
X96525346Y-61356287D01*
X96523162Y-61344683D01*
X96384090Y-61128559D01*
X96171890Y-60983569D01*
X95920000Y-60932560D01*
X94420000Y-60932560D01*
X94184683Y-60976838D01*
X93968559Y-61115910D01*
X93823569Y-61328110D01*
X93794836Y-61470000D01*
X93705689Y-61470000D01*
X93691622Y-61395243D01*
X93552550Y-61179119D01*
X93340350Y-61034129D01*
X93088460Y-60983120D01*
X91889580Y-60983120D01*
X91857113Y-60989229D01*
X92641341Y-60205001D01*
X100962697Y-60205001D01*
X100801098Y-60366600D01*
G36*
X124423750Y-58293000D02*
X125523000Y-58293000D01*
X125523000Y-58273000D01*
X125777000Y-58273000D01*
X125777000Y-58293000D01*
X125797000Y-58293000D01*
X125797000Y-58547000D01*
X125777000Y-58547000D01*
X125777000Y-58567000D01*
X125523000Y-58567000D01*
X125523000Y-58547000D01*
X124423750Y-58547000D01*
X124265000Y-58705750D01*
X124265000Y-59196310D01*
X124361673Y-59429699D01*
X124496975Y-59565000D01*
X122450123Y-59565000D01*
X122452931Y-59560890D01*
X122503940Y-59309000D01*
X122503940Y-59228362D01*
X123577303Y-58154999D01*
X124285749Y-58154999D01*
X124423750Y-58293000D01*
X124423750Y-58293000D01*
G37*
X124423750Y-58293000D02*
X125523000Y-58293000D01*
X125523000Y-58273000D01*
X125777000Y-58273000D01*
X125777000Y-58293000D01*
X125797000Y-58293000D01*
X125797000Y-58547000D01*
X125777000Y-58547000D01*
X125777000Y-58567000D01*
X125523000Y-58567000D01*
X125523000Y-58547000D01*
X124423750Y-58547000D01*
X124265000Y-58705750D01*
X124265000Y-59196310D01*
X124361673Y-59429699D01*
X124496975Y-59565000D01*
X122450123Y-59565000D01*
X122452931Y-59560890D01*
X122503940Y-59309000D01*
X122503940Y-59228362D01*
X123577303Y-58154999D01*
X124285749Y-58154999D01*
X124423750Y-58293000D01*
G36*
X100876099Y-58322401D02*
X101022167Y-58420000D01*
X100876099Y-58517599D01*
X100708697Y-58685001D01*
X99234251Y-58685001D01*
X99096250Y-58547000D01*
X97997000Y-58547000D01*
X97997000Y-58567000D01*
X97743000Y-58567000D01*
X97743000Y-58547000D01*
X97723000Y-58547000D01*
X97723000Y-58293000D01*
X97743000Y-58293000D01*
X97743000Y-58273000D01*
X97997000Y-58273000D01*
X97997000Y-58293000D01*
X99096250Y-58293000D01*
X99234251Y-58154999D01*
X100708697Y-58154999D01*
X100876099Y-58322401D01*
X100876099Y-58322401D01*
G37*
X100876099Y-58322401D02*
X101022167Y-58420000D01*
X100876099Y-58517599D01*
X100708697Y-58685001D01*
X99234251Y-58685001D01*
X99096250Y-58547000D01*
X97997000Y-58547000D01*
X97997000Y-58567000D01*
X97743000Y-58567000D01*
X97743000Y-58547000D01*
X97723000Y-58547000D01*
X97723000Y-58293000D01*
X97743000Y-58293000D01*
X97743000Y-58273000D01*
X97997000Y-58273000D01*
X97997000Y-58293000D01*
X99096250Y-58293000D01*
X99234251Y-58154999D01*
X100708697Y-58154999D01*
X100876099Y-58322401D01*
G36*
X124423750Y-54483000D02*
X125523000Y-54483000D01*
X125523000Y-54463000D01*
X125777000Y-54463000D01*
X125777000Y-54483000D01*
X125797000Y-54483000D01*
X125797000Y-54737000D01*
X125777000Y-54737000D01*
X125777000Y-55736250D01*
X125935750Y-55895000D01*
X126526309Y-55895000D01*
X126759698Y-55798327D01*
X126938327Y-55619699D01*
X126994654Y-55483713D01*
X126996838Y-55495317D01*
X127135910Y-55711441D01*
X127348110Y-55856431D01*
X127600000Y-55907440D01*
X129100000Y-55907440D01*
X129335317Y-55863162D01*
X129551441Y-55724090D01*
X129696431Y-55511890D01*
X129725164Y-55370000D01*
X129814311Y-55370000D01*
X129828378Y-55444757D01*
X129967450Y-55660881D01*
X130179650Y-55805871D01*
X130431540Y-55856880D01*
X131630420Y-55856880D01*
X131662887Y-55850771D01*
X130878659Y-56634999D01*
X123262501Y-56634999D01*
X122991501Y-56688905D01*
X122991501Y-55667299D01*
X123763050Y-54895750D01*
X124265000Y-54895750D01*
X124265000Y-55386310D01*
X124361673Y-55619699D01*
X124540302Y-55798327D01*
X124773691Y-55895000D01*
X125364250Y-55895000D01*
X125523000Y-55736250D01*
X125523000Y-54737000D01*
X124423750Y-54737000D01*
X124265000Y-54895750D01*
X123763050Y-54895750D01*
X124299775Y-54359025D01*
X124423750Y-54483000D01*
X124423750Y-54483000D01*
G37*
X124423750Y-54483000D02*
X125523000Y-54483000D01*
X125523000Y-54463000D01*
X125777000Y-54463000D01*
X125777000Y-54483000D01*
X125797000Y-54483000D01*
X125797000Y-54737000D01*
X125777000Y-54737000D01*
X125777000Y-55736250D01*
X125935750Y-55895000D01*
X126526309Y-55895000D01*
X126759698Y-55798327D01*
X126938327Y-55619699D01*
X126994654Y-55483713D01*
X126996838Y-55495317D01*
X127135910Y-55711441D01*
X127348110Y-55856431D01*
X127600000Y-55907440D01*
X129100000Y-55907440D01*
X129335317Y-55863162D01*
X129551441Y-55724090D01*
X129696431Y-55511890D01*
X129725164Y-55370000D01*
X129814311Y-55370000D01*
X129828378Y-55444757D01*
X129967450Y-55660881D01*
X130179650Y-55805871D01*
X130431540Y-55856880D01*
X131630420Y-55856880D01*
X131662887Y-55850771D01*
X130878659Y-56634999D01*
X123262501Y-56634999D01*
X122991501Y-56688905D01*
X122991501Y-55667299D01*
X123763050Y-54895750D01*
X124265000Y-54895750D01*
X124265000Y-55386310D01*
X124361673Y-55619699D01*
X124540302Y-55798327D01*
X124773691Y-55895000D01*
X125364250Y-55895000D01*
X125523000Y-55736250D01*
X125523000Y-54737000D01*
X124423750Y-54737000D01*
X124265000Y-54895750D01*
X123763050Y-54895750D01*
X124299775Y-54359025D01*
X124423750Y-54483000D01*
M02*
