G04 #@! TF.FileFunction,Legend,Bot*
%FSLAX46Y46*%
G04 Gerber Fmt 4.6, Leading zero omitted, Abs format (unit mm)*
G04 Created by KiCad (PCBNEW 4.0.1-stable) date 2016 May 22, Sunday 15:19:25*
%MOMM*%
G01*
G04 APERTURE LIST*
%ADD10C,0.100000*%
%ADD11C,0.200000*%
G04 APERTURE END LIST*
D10*
D11*
X126664763Y-67349714D02*
X126664763Y-68159238D01*
X126712382Y-68254476D01*
X126760001Y-68302095D01*
X126855240Y-68349714D01*
X126998097Y-68349714D01*
X127093335Y-68302095D01*
X126664763Y-67968762D02*
X126760001Y-68016381D01*
X126950478Y-68016381D01*
X127045716Y-67968762D01*
X127093335Y-67921143D01*
X127140954Y-67825905D01*
X127140954Y-67540190D01*
X127093335Y-67444952D01*
X127045716Y-67397333D01*
X126950478Y-67349714D01*
X126760001Y-67349714D01*
X126664763Y-67397333D01*
X126188573Y-68016381D02*
X126188573Y-67349714D01*
X126188573Y-67016381D02*
X126236192Y-67064000D01*
X126188573Y-67111619D01*
X126140954Y-67064000D01*
X126188573Y-67016381D01*
X126188573Y-67111619D01*
X125855240Y-67349714D02*
X125474288Y-67349714D01*
X125712383Y-67016381D02*
X125712383Y-67873524D01*
X125664764Y-67968762D01*
X125569526Y-68016381D01*
X125474288Y-68016381D01*
X125140954Y-68016381D02*
X125140954Y-67016381D01*
X124712382Y-68016381D02*
X124712382Y-67492571D01*
X124760001Y-67397333D01*
X124855239Y-67349714D01*
X124998097Y-67349714D01*
X125093335Y-67397333D01*
X125140954Y-67444952D01*
X123807620Y-67349714D02*
X123807620Y-68016381D01*
X124236192Y-67349714D02*
X124236192Y-67873524D01*
X124188573Y-67968762D01*
X124093335Y-68016381D01*
X123950477Y-68016381D01*
X123855239Y-67968762D01*
X123807620Y-67921143D01*
X123331430Y-68016381D02*
X123331430Y-67016381D01*
X123331430Y-67397333D02*
X123236192Y-67349714D01*
X123045715Y-67349714D01*
X122950477Y-67397333D01*
X122902858Y-67444952D01*
X122855239Y-67540190D01*
X122855239Y-67825905D01*
X122902858Y-67921143D01*
X122950477Y-67968762D01*
X123045715Y-68016381D01*
X123236192Y-68016381D01*
X123331430Y-67968762D01*
X122426668Y-67921143D02*
X122379049Y-67968762D01*
X122426668Y-68016381D01*
X122474287Y-67968762D01*
X122426668Y-67921143D01*
X122426668Y-68016381D01*
X121521906Y-67968762D02*
X121617144Y-68016381D01*
X121807621Y-68016381D01*
X121902859Y-67968762D01*
X121950478Y-67921143D01*
X121998097Y-67825905D01*
X121998097Y-67540190D01*
X121950478Y-67444952D01*
X121902859Y-67397333D01*
X121807621Y-67349714D01*
X121617144Y-67349714D01*
X121521906Y-67397333D01*
X120950478Y-68016381D02*
X121045716Y-67968762D01*
X121093335Y-67921143D01*
X121140954Y-67825905D01*
X121140954Y-67540190D01*
X121093335Y-67444952D01*
X121045716Y-67397333D01*
X120950478Y-67349714D01*
X120807620Y-67349714D01*
X120712382Y-67397333D01*
X120664763Y-67444952D01*
X120617144Y-67540190D01*
X120617144Y-67825905D01*
X120664763Y-67921143D01*
X120712382Y-67968762D01*
X120807620Y-68016381D01*
X120950478Y-68016381D01*
X120188573Y-68016381D02*
X120188573Y-67349714D01*
X120188573Y-67444952D02*
X120140954Y-67397333D01*
X120045716Y-67349714D01*
X119902858Y-67349714D01*
X119807620Y-67397333D01*
X119760001Y-67492571D01*
X119760001Y-68016381D01*
X119760001Y-67492571D02*
X119712382Y-67397333D01*
X119617144Y-67349714D01*
X119474287Y-67349714D01*
X119379049Y-67397333D01*
X119331430Y-67492571D01*
X119331430Y-68016381D01*
X118140954Y-66968762D02*
X118998097Y-68254476D01*
X117950478Y-67349714D02*
X117569526Y-67349714D01*
X117807621Y-67016381D02*
X117807621Y-67873524D01*
X117760002Y-67968762D01*
X117664764Y-68016381D01*
X117569526Y-68016381D01*
X116807620Y-68016381D02*
X116807620Y-67492571D01*
X116855239Y-67397333D01*
X116950477Y-67349714D01*
X117140954Y-67349714D01*
X117236192Y-67397333D01*
X116807620Y-67968762D02*
X116902858Y-68016381D01*
X117140954Y-68016381D01*
X117236192Y-67968762D01*
X117283811Y-67873524D01*
X117283811Y-67778286D01*
X117236192Y-67683048D01*
X117140954Y-67635429D01*
X116902858Y-67635429D01*
X116807620Y-67587810D01*
X116331430Y-68016381D02*
X116331430Y-67349714D01*
X116331430Y-67540190D02*
X116283811Y-67444952D01*
X116236192Y-67397333D01*
X116140954Y-67349714D01*
X116045715Y-67349714D01*
X115283810Y-68016381D02*
X115283810Y-67016381D01*
X115283810Y-67968762D02*
X115379048Y-68016381D01*
X115569525Y-68016381D01*
X115664763Y-67968762D01*
X115712382Y-67921143D01*
X115760001Y-67825905D01*
X115760001Y-67540190D01*
X115712382Y-67444952D01*
X115664763Y-67397333D01*
X115569525Y-67349714D01*
X115379048Y-67349714D01*
X115283810Y-67397333D01*
X114379048Y-68016381D02*
X114379048Y-67492571D01*
X114426667Y-67397333D01*
X114521905Y-67349714D01*
X114712382Y-67349714D01*
X114807620Y-67397333D01*
X114379048Y-67968762D02*
X114474286Y-68016381D01*
X114712382Y-68016381D01*
X114807620Y-67968762D01*
X114855239Y-67873524D01*
X114855239Y-67778286D01*
X114807620Y-67683048D01*
X114712382Y-67635429D01*
X114474286Y-67635429D01*
X114379048Y-67587810D01*
X114045715Y-67349714D02*
X113664763Y-67349714D01*
X113902858Y-67016381D02*
X113902858Y-67873524D01*
X113855239Y-67968762D01*
X113760001Y-68016381D01*
X113664763Y-68016381D01*
X112950476Y-67968762D02*
X113045714Y-68016381D01*
X113236191Y-68016381D01*
X113331429Y-67968762D01*
X113379048Y-67873524D01*
X113379048Y-67492571D01*
X113331429Y-67397333D01*
X113236191Y-67349714D01*
X113045714Y-67349714D01*
X112950476Y-67397333D01*
X112902857Y-67492571D01*
X112902857Y-67587810D01*
X113379048Y-67683048D01*
X111760000Y-66968762D02*
X112617143Y-68254476D01*
X110950476Y-68016381D02*
X111426667Y-68016381D01*
X111426667Y-67016381D01*
X110617143Y-68016381D02*
X110617143Y-67349714D01*
X110617143Y-67016381D02*
X110664762Y-67064000D01*
X110617143Y-67111619D01*
X110569524Y-67064000D01*
X110617143Y-67016381D01*
X110617143Y-67111619D01*
X110283810Y-67349714D02*
X109902858Y-67349714D01*
X110140953Y-67016381D02*
X110140953Y-67873524D01*
X110093334Y-67968762D01*
X109998096Y-68016381D01*
X109902858Y-68016381D01*
X109712381Y-67349714D02*
X109331429Y-67349714D01*
X109569524Y-67016381D02*
X109569524Y-67873524D01*
X109521905Y-67968762D01*
X109426667Y-68016381D01*
X109331429Y-68016381D01*
X108855238Y-68016381D02*
X108950476Y-67968762D01*
X108998095Y-67873524D01*
X108998095Y-67016381D01*
X108093332Y-67968762D02*
X108188570Y-68016381D01*
X108379047Y-68016381D01*
X108474285Y-67968762D01*
X108521904Y-67873524D01*
X108521904Y-67492571D01*
X108474285Y-67397333D01*
X108379047Y-67349714D01*
X108188570Y-67349714D01*
X108093332Y-67397333D01*
X108045713Y-67492571D01*
X108045713Y-67587810D01*
X108521904Y-67683048D01*
X107664761Y-67730667D02*
X107188570Y-67730667D01*
X107759999Y-68016381D02*
X107426666Y-67016381D01*
X107093332Y-68016381D01*
X106759999Y-68016381D02*
X106759999Y-67349714D01*
X106759999Y-67540190D02*
X106712380Y-67444952D01*
X106664761Y-67397333D01*
X106569523Y-67349714D01*
X106474284Y-67349714D01*
X105712379Y-68016381D02*
X105712379Y-67016381D01*
X105712379Y-67968762D02*
X105807617Y-68016381D01*
X105998094Y-68016381D01*
X106093332Y-67968762D01*
X106140951Y-67921143D01*
X106188570Y-67825905D01*
X106188570Y-67540190D01*
X106140951Y-67444952D01*
X106093332Y-67397333D01*
X105998094Y-67349714D01*
X105807617Y-67349714D01*
X105712379Y-67397333D01*
X104807617Y-67349714D02*
X104807617Y-68016381D01*
X105236189Y-67349714D02*
X105236189Y-67873524D01*
X105188570Y-67968762D01*
X105093332Y-68016381D01*
X104950474Y-68016381D01*
X104855236Y-67968762D01*
X104807617Y-67921143D01*
X104331427Y-68016381D02*
X104331427Y-67349714D01*
X104331427Y-67016381D02*
X104379046Y-67064000D01*
X104331427Y-67111619D01*
X104283808Y-67064000D01*
X104331427Y-67016381D01*
X104331427Y-67111619D01*
X103855237Y-67349714D02*
X103855237Y-68016381D01*
X103855237Y-67444952D02*
X103807618Y-67397333D01*
X103712380Y-67349714D01*
X103569522Y-67349714D01*
X103474284Y-67397333D01*
X103426665Y-67492571D01*
X103426665Y-68016381D01*
X102807618Y-68016381D02*
X102902856Y-67968762D01*
X102950475Y-67921143D01*
X102998094Y-67825905D01*
X102998094Y-67540190D01*
X102950475Y-67444952D01*
X102902856Y-67397333D01*
X102807618Y-67349714D01*
X102664760Y-67349714D01*
X102569522Y-67397333D01*
X102521903Y-67444952D01*
X102474284Y-67540190D01*
X102474284Y-67825905D01*
X102521903Y-67921143D01*
X102569522Y-67968762D01*
X102664760Y-68016381D01*
X102807618Y-68016381D01*
X102045713Y-68016381D02*
X102045713Y-67016381D01*
X101664760Y-67016381D01*
X101569522Y-67064000D01*
X101521903Y-67111619D01*
X101474284Y-67206857D01*
X101474284Y-67349714D01*
X101521903Y-67444952D01*
X101569522Y-67492571D01*
X101664760Y-67540190D01*
X102045713Y-67540190D01*
X101045713Y-68016381D02*
X101045713Y-67349714D01*
X101045713Y-67540190D02*
X100998094Y-67444952D01*
X100950475Y-67397333D01*
X100855237Y-67349714D01*
X100759998Y-67349714D01*
X100283808Y-68016381D02*
X100379046Y-67968762D01*
X100426665Y-67921143D01*
X100474284Y-67825905D01*
X100474284Y-67540190D01*
X100426665Y-67444952D01*
X100379046Y-67397333D01*
X100283808Y-67349714D01*
X100140950Y-67349714D01*
X100045712Y-67397333D01*
X99998093Y-67444952D01*
X99950474Y-67540190D01*
X99950474Y-67825905D01*
X99998093Y-67921143D01*
X100045712Y-67968762D01*
X100140950Y-68016381D01*
X100283808Y-68016381D01*
X99521903Y-67349714D02*
X99521903Y-68206857D01*
X99569522Y-68302095D01*
X99664760Y-68349714D01*
X99712379Y-68349714D01*
X99521903Y-67016381D02*
X99569522Y-67064000D01*
X99521903Y-67111619D01*
X99474284Y-67064000D01*
X99521903Y-67016381D01*
X99521903Y-67111619D01*
X98664760Y-67968762D02*
X98759998Y-68016381D01*
X98950475Y-68016381D01*
X99045713Y-67968762D01*
X99093332Y-67873524D01*
X99093332Y-67492571D01*
X99045713Y-67397333D01*
X98950475Y-67349714D01*
X98759998Y-67349714D01*
X98664760Y-67397333D01*
X98617141Y-67492571D01*
X98617141Y-67587810D01*
X99093332Y-67683048D01*
X97759998Y-67968762D02*
X97855236Y-68016381D01*
X98045713Y-68016381D01*
X98140951Y-67968762D01*
X98188570Y-67921143D01*
X98236189Y-67825905D01*
X98236189Y-67540190D01*
X98188570Y-67444952D01*
X98140951Y-67397333D01*
X98045713Y-67349714D01*
X97855236Y-67349714D01*
X97759998Y-67397333D01*
X97474284Y-67349714D02*
X97093332Y-67349714D01*
X97331427Y-67016381D02*
X97331427Y-67873524D01*
X97283808Y-67968762D01*
X97188570Y-68016381D01*
X97093332Y-68016381D01*
X96807617Y-67968762D02*
X96712379Y-68016381D01*
X96521903Y-68016381D01*
X96426664Y-67968762D01*
X96379045Y-67873524D01*
X96379045Y-67825905D01*
X96426664Y-67730667D01*
X96521903Y-67683048D01*
X96664760Y-67683048D01*
X96759998Y-67635429D01*
X96807617Y-67540190D01*
X96807617Y-67492571D01*
X96759998Y-67397333D01*
X96664760Y-67349714D01*
X96521903Y-67349714D01*
X96426664Y-67397333D01*
M02*
