G04 #@! TF.FileFunction,Legend,Top*
%FSLAX46Y46*%
G04 Gerber Fmt 4.6, Leading zero omitted, Abs format (unit mm)*
G04 Created by KiCad (PCBNEW 4.0.1-stable) date 2016 May 22, Sunday 15:19:25*
%MOMM*%
G01*
G04 APERTURE LIST*
%ADD10C,0.100000*%
%ADD11C,0.150000*%
%ADD12C,0.300000*%
G04 APERTURE END LIST*
D10*
X106384762Y-54028952D02*
X106384762Y-53628952D01*
X106480000Y-53628952D01*
X106537143Y-53648000D01*
X106575238Y-53686095D01*
X106594286Y-53724190D01*
X106613334Y-53800381D01*
X106613334Y-53857524D01*
X106594286Y-53933714D01*
X106575238Y-53971810D01*
X106537143Y-54009905D01*
X106480000Y-54028952D01*
X106384762Y-54028952D01*
X106765714Y-54009905D02*
X106822857Y-54028952D01*
X106918095Y-54028952D01*
X106956191Y-54009905D01*
X106975238Y-53990857D01*
X106994286Y-53952762D01*
X106994286Y-53914667D01*
X106975238Y-53876571D01*
X106956191Y-53857524D01*
X106918095Y-53838476D01*
X106841905Y-53819429D01*
X106803810Y-53800381D01*
X106784762Y-53781333D01*
X106765714Y-53743238D01*
X106765714Y-53705143D01*
X106784762Y-53667048D01*
X106803810Y-53648000D01*
X106841905Y-53628952D01*
X106937143Y-53628952D01*
X106994286Y-53648000D01*
X110940952Y-54009905D02*
X110998095Y-54028952D01*
X111093333Y-54028952D01*
X111131429Y-54009905D01*
X111150476Y-53990857D01*
X111169524Y-53952762D01*
X111169524Y-53914667D01*
X111150476Y-53876571D01*
X111131429Y-53857524D01*
X111093333Y-53838476D01*
X111017143Y-53819429D01*
X110979048Y-53800381D01*
X110960000Y-53781333D01*
X110940952Y-53743238D01*
X110940952Y-53705143D01*
X110960000Y-53667048D01*
X110979048Y-53648000D01*
X111017143Y-53628952D01*
X111112381Y-53628952D01*
X111169524Y-53648000D01*
X111283809Y-53628952D02*
X111512381Y-53628952D01*
X111398095Y-54028952D02*
X111398095Y-53628952D01*
X111550476Y-54067048D02*
X111855238Y-54067048D01*
X112179048Y-53990857D02*
X112160000Y-54009905D01*
X112102857Y-54028952D01*
X112064762Y-54028952D01*
X112007619Y-54009905D01*
X111969524Y-53971810D01*
X111950476Y-53933714D01*
X111931428Y-53857524D01*
X111931428Y-53800381D01*
X111950476Y-53724190D01*
X111969524Y-53686095D01*
X112007619Y-53648000D01*
X112064762Y-53628952D01*
X112102857Y-53628952D01*
X112160000Y-53648000D01*
X112179048Y-53667048D01*
X112350476Y-54028952D02*
X112350476Y-53628952D01*
X112502857Y-53628952D01*
X112540952Y-53648000D01*
X112560000Y-53667048D01*
X112579048Y-53705143D01*
X112579048Y-53762286D01*
X112560000Y-53800381D01*
X112540952Y-53819429D01*
X112502857Y-53838476D01*
X112350476Y-53838476D01*
X108343809Y-54009905D02*
X108400952Y-54028952D01*
X108496190Y-54028952D01*
X108534286Y-54009905D01*
X108553333Y-53990857D01*
X108572381Y-53952762D01*
X108572381Y-53914667D01*
X108553333Y-53876571D01*
X108534286Y-53857524D01*
X108496190Y-53838476D01*
X108420000Y-53819429D01*
X108381905Y-53800381D01*
X108362857Y-53781333D01*
X108343809Y-53743238D01*
X108343809Y-53705143D01*
X108362857Y-53667048D01*
X108381905Y-53648000D01*
X108420000Y-53628952D01*
X108515238Y-53628952D01*
X108572381Y-53648000D01*
X108743809Y-54028952D02*
X108743809Y-53628952D01*
X108743809Y-53819429D02*
X108972381Y-53819429D01*
X108972381Y-54028952D02*
X108972381Y-53628952D01*
X109067619Y-54067048D02*
X109372381Y-54067048D01*
X109696191Y-53990857D02*
X109677143Y-54009905D01*
X109620000Y-54028952D01*
X109581905Y-54028952D01*
X109524762Y-54009905D01*
X109486667Y-53971810D01*
X109467619Y-53933714D01*
X109448571Y-53857524D01*
X109448571Y-53800381D01*
X109467619Y-53724190D01*
X109486667Y-53686095D01*
X109524762Y-53648000D01*
X109581905Y-53628952D01*
X109620000Y-53628952D01*
X109677143Y-53648000D01*
X109696191Y-53667048D01*
X109867619Y-54028952D02*
X109867619Y-53628952D01*
X110020000Y-53628952D01*
X110058095Y-53648000D01*
X110077143Y-53667048D01*
X110096191Y-53705143D01*
X110096191Y-53762286D01*
X110077143Y-53800381D01*
X110058095Y-53819429D01*
X110020000Y-53838476D01*
X109867619Y-53838476D01*
D11*
X116040000Y-52757429D02*
X116240000Y-53357429D01*
X116440000Y-52757429D01*
X116982857Y-53300286D02*
X116954286Y-53328857D01*
X116868572Y-53357429D01*
X116811429Y-53357429D01*
X116725714Y-53328857D01*
X116668572Y-53271714D01*
X116640000Y-53214571D01*
X116611429Y-53100286D01*
X116611429Y-53014571D01*
X116640000Y-52900286D01*
X116668572Y-52843143D01*
X116725714Y-52786000D01*
X116811429Y-52757429D01*
X116868572Y-52757429D01*
X116954286Y-52786000D01*
X116982857Y-52814571D01*
X117582857Y-53300286D02*
X117554286Y-53328857D01*
X117468572Y-53357429D01*
X117411429Y-53357429D01*
X117325714Y-53328857D01*
X117268572Y-53271714D01*
X117240000Y-53214571D01*
X117211429Y-53100286D01*
X117211429Y-53014571D01*
X117240000Y-52900286D01*
X117268572Y-52843143D01*
X117325714Y-52786000D01*
X117411429Y-52757429D01*
X117468572Y-52757429D01*
X117554286Y-52786000D01*
X117582857Y-52814571D01*
X113842858Y-52786000D02*
X113785715Y-52757429D01*
X113700001Y-52757429D01*
X113614286Y-52786000D01*
X113557144Y-52843143D01*
X113528572Y-52900286D01*
X113500001Y-53014571D01*
X113500001Y-53100286D01*
X113528572Y-53214571D01*
X113557144Y-53271714D01*
X113614286Y-53328857D01*
X113700001Y-53357429D01*
X113757144Y-53357429D01*
X113842858Y-53328857D01*
X113871429Y-53300286D01*
X113871429Y-53100286D01*
X113757144Y-53100286D01*
X114128572Y-53357429D02*
X114128572Y-52757429D01*
X114471429Y-53357429D01*
X114471429Y-52757429D01*
X114757143Y-53357429D02*
X114757143Y-52757429D01*
X114900000Y-52757429D01*
X114985715Y-52786000D01*
X115042857Y-52843143D01*
X115071429Y-52900286D01*
X115100000Y-53014571D01*
X115100000Y-53100286D01*
X115071429Y-53214571D01*
X115042857Y-53271714D01*
X114985715Y-53328857D01*
X114900000Y-53357429D01*
X114757143Y-53357429D01*
X110845714Y-53357429D02*
X110560000Y-53357429D01*
X110560000Y-52757429D01*
X111017143Y-53186000D02*
X111302857Y-53186000D01*
X110960000Y-53357429D02*
X111160000Y-52757429D01*
X111360000Y-53357429D01*
X111474286Y-52757429D02*
X111817143Y-52757429D01*
X111645714Y-53357429D02*
X111645714Y-52757429D01*
X112360000Y-53300286D02*
X112331429Y-53328857D01*
X112245715Y-53357429D01*
X112188572Y-53357429D01*
X112102857Y-53328857D01*
X112045715Y-53271714D01*
X112017143Y-53214571D01*
X111988572Y-53100286D01*
X111988572Y-53014571D01*
X112017143Y-52900286D01*
X112045715Y-52843143D01*
X112102857Y-52786000D01*
X112188572Y-52757429D01*
X112245715Y-52757429D01*
X112331429Y-52786000D01*
X112360000Y-52814571D01*
X112617143Y-53357429D02*
X112617143Y-52757429D01*
X112617143Y-53043143D02*
X112960000Y-53043143D01*
X112960000Y-53357429D02*
X112960000Y-52757429D01*
X108862857Y-53300286D02*
X108834286Y-53328857D01*
X108748572Y-53357429D01*
X108691429Y-53357429D01*
X108605714Y-53328857D01*
X108548572Y-53271714D01*
X108520000Y-53214571D01*
X108491429Y-53100286D01*
X108491429Y-53014571D01*
X108520000Y-52900286D01*
X108548572Y-52843143D01*
X108605714Y-52786000D01*
X108691429Y-52757429D01*
X108748572Y-52757429D01*
X108834286Y-52786000D01*
X108862857Y-52814571D01*
X109405714Y-53357429D02*
X109120000Y-53357429D01*
X109120000Y-52757429D01*
X109605714Y-53357429D02*
X109605714Y-52757429D01*
X109948571Y-53357429D02*
X109691428Y-53014571D01*
X109948571Y-52757429D02*
X109605714Y-53100286D01*
X105653000Y-53357429D02*
X105653000Y-52757429D01*
X105795857Y-52757429D01*
X105881572Y-52786000D01*
X105938714Y-52843143D01*
X105967286Y-52900286D01*
X105995857Y-53014571D01*
X105995857Y-53100286D01*
X105967286Y-53214571D01*
X105938714Y-53271714D01*
X105881572Y-53328857D01*
X105795857Y-53357429D01*
X105653000Y-53357429D01*
X106224429Y-53186000D02*
X106510143Y-53186000D01*
X106167286Y-53357429D02*
X106367286Y-52757429D01*
X106567286Y-53357429D01*
X106681572Y-52757429D02*
X107024429Y-52757429D01*
X106853000Y-53357429D02*
X106853000Y-52757429D01*
X107195858Y-53186000D02*
X107481572Y-53186000D01*
X107138715Y-53357429D02*
X107338715Y-52757429D01*
X107538715Y-53357429D01*
D12*
X101764001Y-79164571D02*
X101049715Y-79164571D01*
X101049715Y-77664571D01*
X102264001Y-78378857D02*
X102764001Y-78378857D01*
X102978287Y-79164571D02*
X102264001Y-79164571D01*
X102264001Y-77664571D01*
X102978287Y-77664571D01*
X103621144Y-79164571D02*
X103621144Y-77664571D01*
X103978287Y-77664571D01*
X104192572Y-77736000D01*
X104335430Y-77878857D01*
X104406858Y-78021714D01*
X104478287Y-78307429D01*
X104478287Y-78521714D01*
X104406858Y-78807429D01*
X104335430Y-78950286D01*
X104192572Y-79093143D01*
X103978287Y-79164571D01*
X103621144Y-79164571D01*
X104978287Y-79164571D02*
X105764001Y-78164571D01*
X104978287Y-78164571D02*
X105764001Y-79164571D01*
X107121144Y-79164571D02*
X106264001Y-79164571D01*
X106692573Y-79164571D02*
X106692573Y-77664571D01*
X106549716Y-77878857D01*
X106406858Y-78021714D01*
X106264001Y-78093143D01*
X108406858Y-77664571D02*
X108121144Y-77664571D01*
X107978287Y-77736000D01*
X107906858Y-77807429D01*
X107764001Y-78021714D01*
X107692572Y-78307429D01*
X107692572Y-78878857D01*
X107764001Y-79021714D01*
X107835429Y-79093143D01*
X107978287Y-79164571D01*
X108264001Y-79164571D01*
X108406858Y-79093143D01*
X108478287Y-79021714D01*
X108549715Y-78878857D01*
X108549715Y-78521714D01*
X108478287Y-78378857D01*
X108406858Y-78307429D01*
X108264001Y-78236000D01*
X107978287Y-78236000D01*
X107835429Y-78307429D01*
X107764001Y-78378857D01*
X107692572Y-78521714D01*
X110835429Y-78378857D02*
X111049715Y-78450286D01*
X111121143Y-78521714D01*
X111192572Y-78664571D01*
X111192572Y-78878857D01*
X111121143Y-79021714D01*
X111049715Y-79093143D01*
X110906857Y-79164571D01*
X110335429Y-79164571D01*
X110335429Y-77664571D01*
X110835429Y-77664571D01*
X110978286Y-77736000D01*
X111049715Y-77807429D01*
X111121143Y-77950286D01*
X111121143Y-78093143D01*
X111049715Y-78236000D01*
X110978286Y-78307429D01*
X110835429Y-78378857D01*
X110335429Y-78378857D01*
X112049715Y-79164571D02*
X111906857Y-79093143D01*
X111835429Y-79021714D01*
X111764000Y-78878857D01*
X111764000Y-78450286D01*
X111835429Y-78307429D01*
X111906857Y-78236000D01*
X112049715Y-78164571D01*
X112264000Y-78164571D01*
X112406857Y-78236000D01*
X112478286Y-78307429D01*
X112549715Y-78450286D01*
X112549715Y-78878857D01*
X112478286Y-79021714D01*
X112406857Y-79093143D01*
X112264000Y-79164571D01*
X112049715Y-79164571D01*
X113835429Y-79164571D02*
X113835429Y-78378857D01*
X113764000Y-78236000D01*
X113621143Y-78164571D01*
X113335429Y-78164571D01*
X113192572Y-78236000D01*
X113835429Y-79093143D02*
X113692572Y-79164571D01*
X113335429Y-79164571D01*
X113192572Y-79093143D01*
X113121143Y-78950286D01*
X113121143Y-78807429D01*
X113192572Y-78664571D01*
X113335429Y-78593143D01*
X113692572Y-78593143D01*
X113835429Y-78521714D01*
X114549715Y-79164571D02*
X114549715Y-78164571D01*
X114549715Y-78450286D02*
X114621143Y-78307429D01*
X114692572Y-78236000D01*
X114835429Y-78164571D01*
X114978286Y-78164571D01*
X116121143Y-79164571D02*
X116121143Y-77664571D01*
X116121143Y-79093143D02*
X115978286Y-79164571D01*
X115692572Y-79164571D01*
X115549714Y-79093143D01*
X115478286Y-79021714D01*
X115406857Y-78878857D01*
X115406857Y-78450286D01*
X115478286Y-78307429D01*
X115549714Y-78236000D01*
X115692572Y-78164571D01*
X115978286Y-78164571D01*
X116121143Y-78236000D01*
X118764000Y-79164571D02*
X117906857Y-79164571D01*
X118335429Y-79164571D02*
X118335429Y-77664571D01*
X118192572Y-77878857D01*
X118049714Y-78021714D01*
X117906857Y-78093143D01*
X119406857Y-79021714D02*
X119478285Y-79093143D01*
X119406857Y-79164571D01*
X119335428Y-79093143D01*
X119406857Y-79021714D01*
X119406857Y-79164571D01*
X120406857Y-77664571D02*
X120549714Y-77664571D01*
X120692571Y-77736000D01*
X120764000Y-77807429D01*
X120835429Y-77950286D01*
X120906857Y-78236000D01*
X120906857Y-78593143D01*
X120835429Y-78878857D01*
X120764000Y-79021714D01*
X120692571Y-79093143D01*
X120549714Y-79164571D01*
X120406857Y-79164571D01*
X120264000Y-79093143D01*
X120192571Y-79021714D01*
X120121143Y-78878857D01*
X120049714Y-78593143D01*
X120049714Y-78236000D01*
X120121143Y-77950286D01*
X120192571Y-77807429D01*
X120264000Y-77736000D01*
X120406857Y-77664571D01*
X121549714Y-79021714D02*
X121621142Y-79093143D01*
X121549714Y-79164571D01*
X121478285Y-79093143D01*
X121549714Y-79021714D01*
X121549714Y-79164571D01*
X123049714Y-79164571D02*
X122192571Y-79164571D01*
X122621143Y-79164571D02*
X122621143Y-77664571D01*
X122478286Y-77878857D01*
X122335428Y-78021714D01*
X122192571Y-78093143D01*
D11*
X108839000Y-71628000D02*
X108839000Y-73152000D01*
X108966000Y-73533000D02*
X108966000Y-71247000D01*
X109093000Y-70993000D02*
X109093000Y-73787000D01*
X109220000Y-74041000D02*
X109220000Y-70739000D01*
X109347000Y-70612000D02*
X109347000Y-74168000D01*
X108458000Y-69088000D02*
X108458000Y-75692000D01*
X108458000Y-75692000D02*
X114300000Y-75692000D01*
X114300000Y-75692000D02*
X115062000Y-74930000D01*
X115062000Y-74930000D02*
X115062000Y-69850000D01*
X115062000Y-69850000D02*
X114300000Y-69088000D01*
X114300000Y-69088000D02*
X108458000Y-69088000D01*
X113919000Y-72390000D02*
X113157000Y-72390000D01*
X113538000Y-72009000D02*
X113538000Y-72771000D01*
X114808000Y-72390000D02*
G75*
G03X114808000Y-72390000I-3048000J0D01*
G01*
X89840000Y-51550000D02*
X92540000Y-51550000D01*
X89840000Y-50050000D02*
X92540000Y-50050000D01*
X91340000Y-50950000D02*
X91340000Y-50700000D01*
X91340000Y-50700000D02*
X91190000Y-50850000D01*
X91090000Y-50450000D02*
X91090000Y-51150000D01*
X91440000Y-50800000D02*
X91790000Y-50800000D01*
X91090000Y-50800000D02*
X91440000Y-50450000D01*
X91440000Y-50450000D02*
X91440000Y-51150000D01*
X91440000Y-51150000D02*
X91090000Y-50800000D01*
X89840000Y-55360000D02*
X92540000Y-55360000D01*
X89840000Y-53860000D02*
X92540000Y-53860000D01*
X91340000Y-54760000D02*
X91340000Y-54510000D01*
X91340000Y-54510000D02*
X91190000Y-54660000D01*
X91090000Y-54260000D02*
X91090000Y-54960000D01*
X91440000Y-54610000D02*
X91790000Y-54610000D01*
X91090000Y-54610000D02*
X91440000Y-54260000D01*
X91440000Y-54260000D02*
X91440000Y-54960000D01*
X91440000Y-54960000D02*
X91090000Y-54610000D01*
X89840000Y-59170000D02*
X92540000Y-59170000D01*
X89840000Y-57670000D02*
X92540000Y-57670000D01*
X91340000Y-58570000D02*
X91340000Y-58320000D01*
X91340000Y-58320000D02*
X91190000Y-58470000D01*
X91090000Y-58070000D02*
X91090000Y-58770000D01*
X91440000Y-58420000D02*
X91790000Y-58420000D01*
X91090000Y-58420000D02*
X91440000Y-58070000D01*
X91440000Y-58070000D02*
X91440000Y-58770000D01*
X91440000Y-58770000D02*
X91090000Y-58420000D01*
X89840000Y-62980000D02*
X92540000Y-62980000D01*
X89840000Y-61480000D02*
X92540000Y-61480000D01*
X91340000Y-62380000D02*
X91340000Y-62130000D01*
X91340000Y-62130000D02*
X91190000Y-62280000D01*
X91090000Y-61880000D02*
X91090000Y-62580000D01*
X91440000Y-62230000D02*
X91790000Y-62230000D01*
X91090000Y-62230000D02*
X91440000Y-61880000D01*
X91440000Y-61880000D02*
X91440000Y-62580000D01*
X91440000Y-62580000D02*
X91090000Y-62230000D01*
X89840000Y-66790000D02*
X92540000Y-66790000D01*
X89840000Y-65290000D02*
X92540000Y-65290000D01*
X91340000Y-66190000D02*
X91340000Y-65940000D01*
X91340000Y-65940000D02*
X91190000Y-66090000D01*
X91090000Y-65690000D02*
X91090000Y-66390000D01*
X91440000Y-66040000D02*
X91790000Y-66040000D01*
X91090000Y-66040000D02*
X91440000Y-65690000D01*
X91440000Y-65690000D02*
X91440000Y-66390000D01*
X91440000Y-66390000D02*
X91090000Y-66040000D01*
X89840000Y-70600000D02*
X92540000Y-70600000D01*
X89840000Y-69100000D02*
X92540000Y-69100000D01*
X91340000Y-70000000D02*
X91340000Y-69750000D01*
X91340000Y-69750000D02*
X91190000Y-69900000D01*
X91090000Y-69500000D02*
X91090000Y-70200000D01*
X91440000Y-69850000D02*
X91790000Y-69850000D01*
X91090000Y-69850000D02*
X91440000Y-69500000D01*
X91440000Y-69500000D02*
X91440000Y-70200000D01*
X91440000Y-70200000D02*
X91090000Y-69850000D01*
X89840000Y-74410000D02*
X92540000Y-74410000D01*
X89840000Y-72910000D02*
X92540000Y-72910000D01*
X91340000Y-73810000D02*
X91340000Y-73560000D01*
X91340000Y-73560000D02*
X91190000Y-73710000D01*
X91090000Y-73310000D02*
X91090000Y-74010000D01*
X91440000Y-73660000D02*
X91790000Y-73660000D01*
X91090000Y-73660000D02*
X91440000Y-73310000D01*
X91440000Y-73310000D02*
X91440000Y-74010000D01*
X91440000Y-74010000D02*
X91090000Y-73660000D01*
X89840000Y-78220000D02*
X92540000Y-78220000D01*
X89840000Y-76720000D02*
X92540000Y-76720000D01*
X91340000Y-77620000D02*
X91340000Y-77370000D01*
X91340000Y-77370000D02*
X91190000Y-77520000D01*
X91090000Y-77120000D02*
X91090000Y-77820000D01*
X91440000Y-77470000D02*
X91790000Y-77470000D01*
X91090000Y-77470000D02*
X91440000Y-77120000D01*
X91440000Y-77120000D02*
X91440000Y-77820000D01*
X91440000Y-77820000D02*
X91090000Y-77470000D01*
X133680000Y-76720000D02*
X130980000Y-76720000D01*
X133680000Y-78220000D02*
X130980000Y-78220000D01*
X132180000Y-77320000D02*
X132180000Y-77570000D01*
X132180000Y-77570000D02*
X132330000Y-77420000D01*
X132430000Y-77820000D02*
X132430000Y-77120000D01*
X132080000Y-77470000D02*
X131730000Y-77470000D01*
X132430000Y-77470000D02*
X132080000Y-77820000D01*
X132080000Y-77820000D02*
X132080000Y-77120000D01*
X132080000Y-77120000D02*
X132430000Y-77470000D01*
X133680000Y-72910000D02*
X130980000Y-72910000D01*
X133680000Y-74410000D02*
X130980000Y-74410000D01*
X132180000Y-73510000D02*
X132180000Y-73760000D01*
X132180000Y-73760000D02*
X132330000Y-73610000D01*
X132430000Y-74010000D02*
X132430000Y-73310000D01*
X132080000Y-73660000D02*
X131730000Y-73660000D01*
X132430000Y-73660000D02*
X132080000Y-74010000D01*
X132080000Y-74010000D02*
X132080000Y-73310000D01*
X132080000Y-73310000D02*
X132430000Y-73660000D01*
X133680000Y-69100000D02*
X130980000Y-69100000D01*
X133680000Y-70600000D02*
X130980000Y-70600000D01*
X132180000Y-69700000D02*
X132180000Y-69950000D01*
X132180000Y-69950000D02*
X132330000Y-69800000D01*
X132430000Y-70200000D02*
X132430000Y-69500000D01*
X132080000Y-69850000D02*
X131730000Y-69850000D01*
X132430000Y-69850000D02*
X132080000Y-70200000D01*
X132080000Y-70200000D02*
X132080000Y-69500000D01*
X132080000Y-69500000D02*
X132430000Y-69850000D01*
X133680000Y-65290000D02*
X130980000Y-65290000D01*
X133680000Y-66790000D02*
X130980000Y-66790000D01*
X132180000Y-65890000D02*
X132180000Y-66140000D01*
X132180000Y-66140000D02*
X132330000Y-65990000D01*
X132430000Y-66390000D02*
X132430000Y-65690000D01*
X132080000Y-66040000D02*
X131730000Y-66040000D01*
X132430000Y-66040000D02*
X132080000Y-66390000D01*
X132080000Y-66390000D02*
X132080000Y-65690000D01*
X132080000Y-65690000D02*
X132430000Y-66040000D01*
X133680000Y-61480000D02*
X130980000Y-61480000D01*
X133680000Y-62980000D02*
X130980000Y-62980000D01*
X132180000Y-62080000D02*
X132180000Y-62330000D01*
X132180000Y-62330000D02*
X132330000Y-62180000D01*
X132430000Y-62580000D02*
X132430000Y-61880000D01*
X132080000Y-62230000D02*
X131730000Y-62230000D01*
X132430000Y-62230000D02*
X132080000Y-62580000D01*
X132080000Y-62580000D02*
X132080000Y-61880000D01*
X132080000Y-61880000D02*
X132430000Y-62230000D01*
X133680000Y-57670000D02*
X130980000Y-57670000D01*
X133680000Y-59170000D02*
X130980000Y-59170000D01*
X132180000Y-58270000D02*
X132180000Y-58520000D01*
X132180000Y-58520000D02*
X132330000Y-58370000D01*
X132430000Y-58770000D02*
X132430000Y-58070000D01*
X132080000Y-58420000D02*
X131730000Y-58420000D01*
X132430000Y-58420000D02*
X132080000Y-58770000D01*
X132080000Y-58770000D02*
X132080000Y-58070000D01*
X132080000Y-58070000D02*
X132430000Y-58420000D01*
X133680000Y-53860000D02*
X130980000Y-53860000D01*
X133680000Y-55360000D02*
X130980000Y-55360000D01*
X132180000Y-54460000D02*
X132180000Y-54710000D01*
X132180000Y-54710000D02*
X132330000Y-54560000D01*
X132430000Y-54960000D02*
X132430000Y-54260000D01*
X132080000Y-54610000D02*
X131730000Y-54610000D01*
X132430000Y-54610000D02*
X132080000Y-54960000D01*
X132080000Y-54960000D02*
X132080000Y-54260000D01*
X132080000Y-54260000D02*
X132430000Y-54610000D01*
X133680000Y-50050000D02*
X130980000Y-50050000D01*
X133680000Y-51550000D02*
X130980000Y-51550000D01*
X132180000Y-50650000D02*
X132180000Y-50900000D01*
X132180000Y-50900000D02*
X132330000Y-50750000D01*
X132430000Y-51150000D02*
X132430000Y-50450000D01*
X132080000Y-50800000D02*
X131730000Y-50800000D01*
X132430000Y-50800000D02*
X132080000Y-51150000D01*
X132080000Y-51150000D02*
X132080000Y-50450000D01*
X132080000Y-50450000D02*
X132430000Y-50800000D01*
X116840000Y-49250000D02*
X118390000Y-49250000D01*
X118390000Y-49250000D02*
X118390000Y-52350000D01*
X118390000Y-52350000D02*
X116840000Y-52350000D01*
X115570000Y-52070000D02*
X105410000Y-52070000D01*
X105410000Y-52070000D02*
X105410000Y-49530000D01*
X105410000Y-49530000D02*
X115570000Y-49530000D01*
X115570000Y-52070000D02*
X115570000Y-49530000D01*
X97120000Y-51675000D02*
X95920000Y-51675000D01*
X95920000Y-49925000D02*
X97120000Y-49925000D01*
X97120000Y-55485000D02*
X95920000Y-55485000D01*
X95920000Y-53735000D02*
X97120000Y-53735000D01*
X97120000Y-59295000D02*
X95920000Y-59295000D01*
X95920000Y-57545000D02*
X97120000Y-57545000D01*
X97120000Y-63105000D02*
X95920000Y-63105000D01*
X95920000Y-61355000D02*
X97120000Y-61355000D01*
X97120000Y-66915000D02*
X95920000Y-66915000D01*
X95920000Y-65165000D02*
X97120000Y-65165000D01*
X97120000Y-70725000D02*
X95920000Y-70725000D01*
X95920000Y-68975000D02*
X97120000Y-68975000D01*
X97120000Y-74535000D02*
X95920000Y-74535000D01*
X95920000Y-72785000D02*
X97120000Y-72785000D01*
X97120000Y-78345000D02*
X95920000Y-78345000D01*
X95920000Y-76595000D02*
X97120000Y-76595000D01*
X126400000Y-76595000D02*
X127600000Y-76595000D01*
X127600000Y-78345000D02*
X126400000Y-78345000D01*
X126400000Y-72785000D02*
X127600000Y-72785000D01*
X127600000Y-74535000D02*
X126400000Y-74535000D01*
X126400000Y-68975000D02*
X127600000Y-68975000D01*
X127600000Y-70725000D02*
X126400000Y-70725000D01*
X126400000Y-65165000D02*
X127600000Y-65165000D01*
X127600000Y-66915000D02*
X126400000Y-66915000D01*
X126400000Y-61355000D02*
X127600000Y-61355000D01*
X127600000Y-63105000D02*
X126400000Y-63105000D01*
X126400000Y-57545000D02*
X127600000Y-57545000D01*
X127600000Y-59295000D02*
X126400000Y-59295000D01*
X126400000Y-53735000D02*
X127600000Y-53735000D01*
X127600000Y-55485000D02*
X126400000Y-55485000D01*
X126400000Y-49925000D02*
X127600000Y-49925000D01*
X127600000Y-51675000D02*
X126400000Y-51675000D01*
X106172000Y-55372000D02*
X106172000Y-56134000D01*
X106172000Y-56134000D02*
X104648000Y-56134000D01*
X104648000Y-56134000D02*
X104648000Y-55372000D01*
X107696000Y-66548000D02*
X103124000Y-66548000D01*
X103124000Y-66548000D02*
X103124000Y-55372000D01*
X103124000Y-55372000D02*
X107696000Y-55372000D01*
X107696000Y-55372000D02*
X107696000Y-66548000D01*
X117348000Y-66548000D02*
X117348000Y-65786000D01*
X117348000Y-65786000D02*
X118872000Y-65786000D01*
X118872000Y-65786000D02*
X118872000Y-66548000D01*
X115824000Y-55372000D02*
X120396000Y-55372000D01*
X120396000Y-55372000D02*
X120396000Y-66548000D01*
X120396000Y-66548000D02*
X115824000Y-66548000D01*
X115824000Y-66548000D02*
X115824000Y-55372000D01*
X109086667Y-76993714D02*
X109048572Y-77031810D01*
X108934286Y-77069905D01*
X108858096Y-77069905D01*
X108743810Y-77031810D01*
X108667619Y-76955619D01*
X108629524Y-76879429D01*
X108591429Y-76727048D01*
X108591429Y-76612762D01*
X108629524Y-76460381D01*
X108667619Y-76384190D01*
X108743810Y-76308000D01*
X108858096Y-76269905D01*
X108934286Y-76269905D01*
X109048572Y-76308000D01*
X109086667Y-76346095D01*
X109848572Y-77069905D02*
X109391429Y-77069905D01*
X109620000Y-77069905D02*
X109620000Y-76269905D01*
X109543810Y-76384190D01*
X109467619Y-76460381D01*
X109391429Y-76498476D01*
X111531619Y-76346095D02*
X111569714Y-76308000D01*
X111645905Y-76269905D01*
X111836381Y-76269905D01*
X111912571Y-76308000D01*
X111950667Y-76346095D01*
X111988762Y-76422286D01*
X111988762Y-76498476D01*
X111950667Y-76612762D01*
X111493524Y-77069905D01*
X111988762Y-77069905D01*
X112484000Y-76269905D02*
X112560191Y-76269905D01*
X112636381Y-76308000D01*
X112674476Y-76346095D01*
X112712572Y-76422286D01*
X112750667Y-76574667D01*
X112750667Y-76765143D01*
X112712572Y-76917524D01*
X112674476Y-76993714D01*
X112636381Y-77031810D01*
X112560191Y-77069905D01*
X112484000Y-77069905D01*
X112407810Y-77031810D01*
X112369714Y-76993714D01*
X112331619Y-76917524D01*
X112293524Y-76765143D01*
X112293524Y-76574667D01*
X112331619Y-76422286D01*
X112369714Y-76346095D01*
X112407810Y-76308000D01*
X112484000Y-76269905D01*
X113245905Y-76269905D02*
X113322096Y-76269905D01*
X113398286Y-76308000D01*
X113436381Y-76346095D01*
X113474477Y-76422286D01*
X113512572Y-76574667D01*
X113512572Y-76765143D01*
X113474477Y-76917524D01*
X113436381Y-76993714D01*
X113398286Y-77031810D01*
X113322096Y-77069905D01*
X113245905Y-77069905D01*
X113169715Y-77031810D01*
X113131619Y-76993714D01*
X113093524Y-76917524D01*
X113055429Y-76765143D01*
X113055429Y-76574667D01*
X113093524Y-76422286D01*
X113131619Y-76346095D01*
X113169715Y-76308000D01*
X113245905Y-76269905D01*
X113855429Y-76536571D02*
X113855429Y-77336571D01*
X114236382Y-76955619D02*
X114274477Y-77031810D01*
X114350667Y-77069905D01*
X113855429Y-76955619D02*
X113893524Y-77031810D01*
X113969715Y-77069905D01*
X114122096Y-77069905D01*
X114198286Y-77031810D01*
X114236382Y-76955619D01*
X114236382Y-76536571D01*
X114960191Y-76650857D02*
X114693524Y-76650857D01*
X114693524Y-77069905D02*
X114693524Y-76269905D01*
X115074477Y-76269905D01*
X89727143Y-49547429D02*
X89727143Y-48947429D01*
X89870000Y-48947429D01*
X89955715Y-48976000D01*
X90012857Y-49033143D01*
X90041429Y-49090286D01*
X90070000Y-49204571D01*
X90070000Y-49290286D01*
X90041429Y-49404571D01*
X90012857Y-49461714D01*
X89955715Y-49518857D01*
X89870000Y-49547429D01*
X89727143Y-49547429D01*
X90641429Y-49547429D02*
X90298572Y-49547429D01*
X90470000Y-49547429D02*
X90470000Y-48947429D01*
X90412857Y-49033143D01*
X90355715Y-49090286D01*
X90298572Y-49118857D01*
X89727143Y-53357429D02*
X89727143Y-52757429D01*
X89870000Y-52757429D01*
X89955715Y-52786000D01*
X90012857Y-52843143D01*
X90041429Y-52900286D01*
X90070000Y-53014571D01*
X90070000Y-53100286D01*
X90041429Y-53214571D01*
X90012857Y-53271714D01*
X89955715Y-53328857D01*
X89870000Y-53357429D01*
X89727143Y-53357429D01*
X90298572Y-52814571D02*
X90327143Y-52786000D01*
X90384286Y-52757429D01*
X90527143Y-52757429D01*
X90584286Y-52786000D01*
X90612857Y-52814571D01*
X90641429Y-52871714D01*
X90641429Y-52928857D01*
X90612857Y-53014571D01*
X90270000Y-53357429D01*
X90641429Y-53357429D01*
X89727143Y-57167429D02*
X89727143Y-56567429D01*
X89870000Y-56567429D01*
X89955715Y-56596000D01*
X90012857Y-56653143D01*
X90041429Y-56710286D01*
X90070000Y-56824571D01*
X90070000Y-56910286D01*
X90041429Y-57024571D01*
X90012857Y-57081714D01*
X89955715Y-57138857D01*
X89870000Y-57167429D01*
X89727143Y-57167429D01*
X90270000Y-56567429D02*
X90641429Y-56567429D01*
X90441429Y-56796000D01*
X90527143Y-56796000D01*
X90584286Y-56824571D01*
X90612857Y-56853143D01*
X90641429Y-56910286D01*
X90641429Y-57053143D01*
X90612857Y-57110286D01*
X90584286Y-57138857D01*
X90527143Y-57167429D01*
X90355715Y-57167429D01*
X90298572Y-57138857D01*
X90270000Y-57110286D01*
X89727143Y-60977429D02*
X89727143Y-60377429D01*
X89870000Y-60377429D01*
X89955715Y-60406000D01*
X90012857Y-60463143D01*
X90041429Y-60520286D01*
X90070000Y-60634571D01*
X90070000Y-60720286D01*
X90041429Y-60834571D01*
X90012857Y-60891714D01*
X89955715Y-60948857D01*
X89870000Y-60977429D01*
X89727143Y-60977429D01*
X90584286Y-60577429D02*
X90584286Y-60977429D01*
X90441429Y-60348857D02*
X90298572Y-60777429D01*
X90670000Y-60777429D01*
X89727143Y-64787429D02*
X89727143Y-64187429D01*
X89870000Y-64187429D01*
X89955715Y-64216000D01*
X90012857Y-64273143D01*
X90041429Y-64330286D01*
X90070000Y-64444571D01*
X90070000Y-64530286D01*
X90041429Y-64644571D01*
X90012857Y-64701714D01*
X89955715Y-64758857D01*
X89870000Y-64787429D01*
X89727143Y-64787429D01*
X90612857Y-64187429D02*
X90327143Y-64187429D01*
X90298572Y-64473143D01*
X90327143Y-64444571D01*
X90384286Y-64416000D01*
X90527143Y-64416000D01*
X90584286Y-64444571D01*
X90612857Y-64473143D01*
X90641429Y-64530286D01*
X90641429Y-64673143D01*
X90612857Y-64730286D01*
X90584286Y-64758857D01*
X90527143Y-64787429D01*
X90384286Y-64787429D01*
X90327143Y-64758857D01*
X90298572Y-64730286D01*
X89727143Y-68597429D02*
X89727143Y-67997429D01*
X89870000Y-67997429D01*
X89955715Y-68026000D01*
X90012857Y-68083143D01*
X90041429Y-68140286D01*
X90070000Y-68254571D01*
X90070000Y-68340286D01*
X90041429Y-68454571D01*
X90012857Y-68511714D01*
X89955715Y-68568857D01*
X89870000Y-68597429D01*
X89727143Y-68597429D01*
X90584286Y-67997429D02*
X90470000Y-67997429D01*
X90412857Y-68026000D01*
X90384286Y-68054571D01*
X90327143Y-68140286D01*
X90298572Y-68254571D01*
X90298572Y-68483143D01*
X90327143Y-68540286D01*
X90355715Y-68568857D01*
X90412857Y-68597429D01*
X90527143Y-68597429D01*
X90584286Y-68568857D01*
X90612857Y-68540286D01*
X90641429Y-68483143D01*
X90641429Y-68340286D01*
X90612857Y-68283143D01*
X90584286Y-68254571D01*
X90527143Y-68226000D01*
X90412857Y-68226000D01*
X90355715Y-68254571D01*
X90327143Y-68283143D01*
X90298572Y-68340286D01*
X89727143Y-72407429D02*
X89727143Y-71807429D01*
X89870000Y-71807429D01*
X89955715Y-71836000D01*
X90012857Y-71893143D01*
X90041429Y-71950286D01*
X90070000Y-72064571D01*
X90070000Y-72150286D01*
X90041429Y-72264571D01*
X90012857Y-72321714D01*
X89955715Y-72378857D01*
X89870000Y-72407429D01*
X89727143Y-72407429D01*
X90270000Y-71807429D02*
X90670000Y-71807429D01*
X90412857Y-72407429D01*
X89727143Y-76217429D02*
X89727143Y-75617429D01*
X89870000Y-75617429D01*
X89955715Y-75646000D01*
X90012857Y-75703143D01*
X90041429Y-75760286D01*
X90070000Y-75874571D01*
X90070000Y-75960286D01*
X90041429Y-76074571D01*
X90012857Y-76131714D01*
X89955715Y-76188857D01*
X89870000Y-76217429D01*
X89727143Y-76217429D01*
X90412857Y-75874571D02*
X90355715Y-75846000D01*
X90327143Y-75817429D01*
X90298572Y-75760286D01*
X90298572Y-75731714D01*
X90327143Y-75674571D01*
X90355715Y-75646000D01*
X90412857Y-75617429D01*
X90527143Y-75617429D01*
X90584286Y-75646000D01*
X90612857Y-75674571D01*
X90641429Y-75731714D01*
X90641429Y-75760286D01*
X90612857Y-75817429D01*
X90584286Y-75846000D01*
X90527143Y-75874571D01*
X90412857Y-75874571D01*
X90355715Y-75903143D01*
X90327143Y-75931714D01*
X90298572Y-75988857D01*
X90298572Y-76103143D01*
X90327143Y-76160286D01*
X90355715Y-76188857D01*
X90412857Y-76217429D01*
X90527143Y-76217429D01*
X90584286Y-76188857D01*
X90612857Y-76160286D01*
X90641429Y-76103143D01*
X90641429Y-75988857D01*
X90612857Y-75931714D01*
X90584286Y-75903143D01*
X90527143Y-75874571D01*
X132907143Y-76217429D02*
X132907143Y-75617429D01*
X133050000Y-75617429D01*
X133135715Y-75646000D01*
X133192857Y-75703143D01*
X133221429Y-75760286D01*
X133250000Y-75874571D01*
X133250000Y-75960286D01*
X133221429Y-76074571D01*
X133192857Y-76131714D01*
X133135715Y-76188857D01*
X133050000Y-76217429D01*
X132907143Y-76217429D01*
X133535715Y-76217429D02*
X133650000Y-76217429D01*
X133707143Y-76188857D01*
X133735715Y-76160286D01*
X133792857Y-76074571D01*
X133821429Y-75960286D01*
X133821429Y-75731714D01*
X133792857Y-75674571D01*
X133764286Y-75646000D01*
X133707143Y-75617429D01*
X133592857Y-75617429D01*
X133535715Y-75646000D01*
X133507143Y-75674571D01*
X133478572Y-75731714D01*
X133478572Y-75874571D01*
X133507143Y-75931714D01*
X133535715Y-75960286D01*
X133592857Y-75988857D01*
X133707143Y-75988857D01*
X133764286Y-75960286D01*
X133792857Y-75931714D01*
X133821429Y-75874571D01*
X132367428Y-72407429D02*
X132367428Y-71807429D01*
X132510285Y-71807429D01*
X132596000Y-71836000D01*
X132653142Y-71893143D01*
X132681714Y-71950286D01*
X132710285Y-72064571D01*
X132710285Y-72150286D01*
X132681714Y-72264571D01*
X132653142Y-72321714D01*
X132596000Y-72378857D01*
X132510285Y-72407429D01*
X132367428Y-72407429D01*
X133281714Y-72407429D02*
X132938857Y-72407429D01*
X133110285Y-72407429D02*
X133110285Y-71807429D01*
X133053142Y-71893143D01*
X132996000Y-71950286D01*
X132938857Y-71978857D01*
X133653143Y-71807429D02*
X133710286Y-71807429D01*
X133767429Y-71836000D01*
X133796000Y-71864571D01*
X133824571Y-71921714D01*
X133853143Y-72036000D01*
X133853143Y-72178857D01*
X133824571Y-72293143D01*
X133796000Y-72350286D01*
X133767429Y-72378857D01*
X133710286Y-72407429D01*
X133653143Y-72407429D01*
X133596000Y-72378857D01*
X133567429Y-72350286D01*
X133538857Y-72293143D01*
X133510286Y-72178857D01*
X133510286Y-72036000D01*
X133538857Y-71921714D01*
X133567429Y-71864571D01*
X133596000Y-71836000D01*
X133653143Y-71807429D01*
X132367428Y-68597429D02*
X132367428Y-67997429D01*
X132510285Y-67997429D01*
X132596000Y-68026000D01*
X132653142Y-68083143D01*
X132681714Y-68140286D01*
X132710285Y-68254571D01*
X132710285Y-68340286D01*
X132681714Y-68454571D01*
X132653142Y-68511714D01*
X132596000Y-68568857D01*
X132510285Y-68597429D01*
X132367428Y-68597429D01*
X133281714Y-68597429D02*
X132938857Y-68597429D01*
X133110285Y-68597429D02*
X133110285Y-67997429D01*
X133053142Y-68083143D01*
X132996000Y-68140286D01*
X132938857Y-68168857D01*
X133853143Y-68597429D02*
X133510286Y-68597429D01*
X133681714Y-68597429D02*
X133681714Y-67997429D01*
X133624571Y-68083143D01*
X133567429Y-68140286D01*
X133510286Y-68168857D01*
X132367428Y-64787429D02*
X132367428Y-64187429D01*
X132510285Y-64187429D01*
X132596000Y-64216000D01*
X132653142Y-64273143D01*
X132681714Y-64330286D01*
X132710285Y-64444571D01*
X132710285Y-64530286D01*
X132681714Y-64644571D01*
X132653142Y-64701714D01*
X132596000Y-64758857D01*
X132510285Y-64787429D01*
X132367428Y-64787429D01*
X133281714Y-64787429D02*
X132938857Y-64787429D01*
X133110285Y-64787429D02*
X133110285Y-64187429D01*
X133053142Y-64273143D01*
X132996000Y-64330286D01*
X132938857Y-64358857D01*
X133510286Y-64244571D02*
X133538857Y-64216000D01*
X133596000Y-64187429D01*
X133738857Y-64187429D01*
X133796000Y-64216000D01*
X133824571Y-64244571D01*
X133853143Y-64301714D01*
X133853143Y-64358857D01*
X133824571Y-64444571D01*
X133481714Y-64787429D01*
X133853143Y-64787429D01*
X132367428Y-60977429D02*
X132367428Y-60377429D01*
X132510285Y-60377429D01*
X132596000Y-60406000D01*
X132653142Y-60463143D01*
X132681714Y-60520286D01*
X132710285Y-60634571D01*
X132710285Y-60720286D01*
X132681714Y-60834571D01*
X132653142Y-60891714D01*
X132596000Y-60948857D01*
X132510285Y-60977429D01*
X132367428Y-60977429D01*
X133281714Y-60977429D02*
X132938857Y-60977429D01*
X133110285Y-60977429D02*
X133110285Y-60377429D01*
X133053142Y-60463143D01*
X132996000Y-60520286D01*
X132938857Y-60548857D01*
X133481714Y-60377429D02*
X133853143Y-60377429D01*
X133653143Y-60606000D01*
X133738857Y-60606000D01*
X133796000Y-60634571D01*
X133824571Y-60663143D01*
X133853143Y-60720286D01*
X133853143Y-60863143D01*
X133824571Y-60920286D01*
X133796000Y-60948857D01*
X133738857Y-60977429D01*
X133567429Y-60977429D01*
X133510286Y-60948857D01*
X133481714Y-60920286D01*
X132367428Y-57167429D02*
X132367428Y-56567429D01*
X132510285Y-56567429D01*
X132596000Y-56596000D01*
X132653142Y-56653143D01*
X132681714Y-56710286D01*
X132710285Y-56824571D01*
X132710285Y-56910286D01*
X132681714Y-57024571D01*
X132653142Y-57081714D01*
X132596000Y-57138857D01*
X132510285Y-57167429D01*
X132367428Y-57167429D01*
X133281714Y-57167429D02*
X132938857Y-57167429D01*
X133110285Y-57167429D02*
X133110285Y-56567429D01*
X133053142Y-56653143D01*
X132996000Y-56710286D01*
X132938857Y-56738857D01*
X133796000Y-56767429D02*
X133796000Y-57167429D01*
X133653143Y-56538857D02*
X133510286Y-56967429D01*
X133881714Y-56967429D01*
X132367428Y-53357429D02*
X132367428Y-52757429D01*
X132510285Y-52757429D01*
X132596000Y-52786000D01*
X132653142Y-52843143D01*
X132681714Y-52900286D01*
X132710285Y-53014571D01*
X132710285Y-53100286D01*
X132681714Y-53214571D01*
X132653142Y-53271714D01*
X132596000Y-53328857D01*
X132510285Y-53357429D01*
X132367428Y-53357429D01*
X133281714Y-53357429D02*
X132938857Y-53357429D01*
X133110285Y-53357429D02*
X133110285Y-52757429D01*
X133053142Y-52843143D01*
X132996000Y-52900286D01*
X132938857Y-52928857D01*
X133824571Y-52757429D02*
X133538857Y-52757429D01*
X133510286Y-53043143D01*
X133538857Y-53014571D01*
X133596000Y-52986000D01*
X133738857Y-52986000D01*
X133796000Y-53014571D01*
X133824571Y-53043143D01*
X133853143Y-53100286D01*
X133853143Y-53243143D01*
X133824571Y-53300286D01*
X133796000Y-53328857D01*
X133738857Y-53357429D01*
X133596000Y-53357429D01*
X133538857Y-53328857D01*
X133510286Y-53300286D01*
X132367428Y-49547429D02*
X132367428Y-48947429D01*
X132510285Y-48947429D01*
X132596000Y-48976000D01*
X132653142Y-49033143D01*
X132681714Y-49090286D01*
X132710285Y-49204571D01*
X132710285Y-49290286D01*
X132681714Y-49404571D01*
X132653142Y-49461714D01*
X132596000Y-49518857D01*
X132510285Y-49547429D01*
X132367428Y-49547429D01*
X133281714Y-49547429D02*
X132938857Y-49547429D01*
X133110285Y-49547429D02*
X133110285Y-48947429D01*
X133053142Y-49033143D01*
X132996000Y-49090286D01*
X132938857Y-49118857D01*
X133796000Y-48947429D02*
X133681714Y-48947429D01*
X133624571Y-48976000D01*
X133596000Y-49004571D01*
X133538857Y-49090286D01*
X133510286Y-49204571D01*
X133510286Y-49433143D01*
X133538857Y-49490286D01*
X133567429Y-49518857D01*
X133624571Y-49547429D01*
X133738857Y-49547429D01*
X133796000Y-49518857D01*
X133824571Y-49490286D01*
X133853143Y-49433143D01*
X133853143Y-49290286D01*
X133824571Y-49233143D01*
X133796000Y-49204571D01*
X133738857Y-49176000D01*
X133624571Y-49176000D01*
X133567429Y-49204571D01*
X133538857Y-49233143D01*
X133510286Y-49290286D01*
X119832381Y-51284095D02*
X118832381Y-51284095D01*
X118832381Y-50903142D01*
X118880000Y-50807904D01*
X118927619Y-50760285D01*
X119022857Y-50712666D01*
X119165714Y-50712666D01*
X119260952Y-50760285D01*
X119308571Y-50807904D01*
X119356190Y-50903142D01*
X119356190Y-51284095D01*
X119832381Y-49760285D02*
X119832381Y-50331714D01*
X119832381Y-50046000D02*
X118832381Y-50046000D01*
X118975238Y-50141238D01*
X119070476Y-50236476D01*
X119118095Y-50331714D01*
X94642000Y-49547429D02*
X94442000Y-49261714D01*
X94299143Y-49547429D02*
X94299143Y-48947429D01*
X94527715Y-48947429D01*
X94584857Y-48976000D01*
X94613429Y-49004571D01*
X94642000Y-49061714D01*
X94642000Y-49147429D01*
X94613429Y-49204571D01*
X94584857Y-49233143D01*
X94527715Y-49261714D01*
X94299143Y-49261714D01*
X95213429Y-49547429D02*
X94870572Y-49547429D01*
X95042000Y-49547429D02*
X95042000Y-48947429D01*
X94984857Y-49033143D01*
X94927715Y-49090286D01*
X94870572Y-49118857D01*
X96704286Y-49004571D02*
X96732857Y-48976000D01*
X96790000Y-48947429D01*
X96932857Y-48947429D01*
X96990000Y-48976000D01*
X97018571Y-49004571D01*
X97047143Y-49061714D01*
X97047143Y-49118857D01*
X97018571Y-49204571D01*
X96675714Y-49547429D01*
X97047143Y-49547429D01*
X97275715Y-49004571D02*
X97304286Y-48976000D01*
X97361429Y-48947429D01*
X97504286Y-48947429D01*
X97561429Y-48976000D01*
X97590000Y-49004571D01*
X97618572Y-49061714D01*
X97618572Y-49118857D01*
X97590000Y-49204571D01*
X97247143Y-49547429D01*
X97618572Y-49547429D01*
X97990001Y-48947429D02*
X98047144Y-48947429D01*
X98104287Y-48976000D01*
X98132858Y-49004571D01*
X98161429Y-49061714D01*
X98190001Y-49176000D01*
X98190001Y-49318857D01*
X98161429Y-49433143D01*
X98132858Y-49490286D01*
X98104287Y-49518857D01*
X98047144Y-49547429D01*
X97990001Y-49547429D01*
X97932858Y-49518857D01*
X97904287Y-49490286D01*
X97875715Y-49433143D01*
X97847144Y-49318857D01*
X97847144Y-49176000D01*
X97875715Y-49061714D01*
X97904287Y-49004571D01*
X97932858Y-48976000D01*
X97990001Y-48947429D01*
X98418573Y-49547429D02*
X98561430Y-49547429D01*
X98561430Y-49433143D01*
X98504287Y-49404571D01*
X98447144Y-49347429D01*
X98418573Y-49261714D01*
X98418573Y-49118857D01*
X98447144Y-49033143D01*
X98504287Y-48976000D01*
X98590001Y-48947429D01*
X98704287Y-48947429D01*
X98790001Y-48976000D01*
X98847144Y-49033143D01*
X98875716Y-49118857D01*
X98875716Y-49261714D01*
X98847144Y-49347429D01*
X98790001Y-49404571D01*
X98732858Y-49433143D01*
X98732858Y-49547429D01*
X98875716Y-49547429D01*
X94642000Y-53357429D02*
X94442000Y-53071714D01*
X94299143Y-53357429D02*
X94299143Y-52757429D01*
X94527715Y-52757429D01*
X94584857Y-52786000D01*
X94613429Y-52814571D01*
X94642000Y-52871714D01*
X94642000Y-52957429D01*
X94613429Y-53014571D01*
X94584857Y-53043143D01*
X94527715Y-53071714D01*
X94299143Y-53071714D01*
X94870572Y-52814571D02*
X94899143Y-52786000D01*
X94956286Y-52757429D01*
X95099143Y-52757429D01*
X95156286Y-52786000D01*
X95184857Y-52814571D01*
X95213429Y-52871714D01*
X95213429Y-52928857D01*
X95184857Y-53014571D01*
X94842000Y-53357429D01*
X95213429Y-53357429D01*
X96704286Y-52814571D02*
X96732857Y-52786000D01*
X96790000Y-52757429D01*
X96932857Y-52757429D01*
X96990000Y-52786000D01*
X97018571Y-52814571D01*
X97047143Y-52871714D01*
X97047143Y-52928857D01*
X97018571Y-53014571D01*
X96675714Y-53357429D01*
X97047143Y-53357429D01*
X97275715Y-52814571D02*
X97304286Y-52786000D01*
X97361429Y-52757429D01*
X97504286Y-52757429D01*
X97561429Y-52786000D01*
X97590000Y-52814571D01*
X97618572Y-52871714D01*
X97618572Y-52928857D01*
X97590000Y-53014571D01*
X97247143Y-53357429D01*
X97618572Y-53357429D01*
X97990001Y-52757429D02*
X98047144Y-52757429D01*
X98104287Y-52786000D01*
X98132858Y-52814571D01*
X98161429Y-52871714D01*
X98190001Y-52986000D01*
X98190001Y-53128857D01*
X98161429Y-53243143D01*
X98132858Y-53300286D01*
X98104287Y-53328857D01*
X98047144Y-53357429D01*
X97990001Y-53357429D01*
X97932858Y-53328857D01*
X97904287Y-53300286D01*
X97875715Y-53243143D01*
X97847144Y-53128857D01*
X97847144Y-52986000D01*
X97875715Y-52871714D01*
X97904287Y-52814571D01*
X97932858Y-52786000D01*
X97990001Y-52757429D01*
X98418573Y-53357429D02*
X98561430Y-53357429D01*
X98561430Y-53243143D01*
X98504287Y-53214571D01*
X98447144Y-53157429D01*
X98418573Y-53071714D01*
X98418573Y-52928857D01*
X98447144Y-52843143D01*
X98504287Y-52786000D01*
X98590001Y-52757429D01*
X98704287Y-52757429D01*
X98790001Y-52786000D01*
X98847144Y-52843143D01*
X98875716Y-52928857D01*
X98875716Y-53071714D01*
X98847144Y-53157429D01*
X98790001Y-53214571D01*
X98732858Y-53243143D01*
X98732858Y-53357429D01*
X98875716Y-53357429D01*
X94642000Y-57167429D02*
X94442000Y-56881714D01*
X94299143Y-57167429D02*
X94299143Y-56567429D01*
X94527715Y-56567429D01*
X94584857Y-56596000D01*
X94613429Y-56624571D01*
X94642000Y-56681714D01*
X94642000Y-56767429D01*
X94613429Y-56824571D01*
X94584857Y-56853143D01*
X94527715Y-56881714D01*
X94299143Y-56881714D01*
X94842000Y-56567429D02*
X95213429Y-56567429D01*
X95013429Y-56796000D01*
X95099143Y-56796000D01*
X95156286Y-56824571D01*
X95184857Y-56853143D01*
X95213429Y-56910286D01*
X95213429Y-57053143D01*
X95184857Y-57110286D01*
X95156286Y-57138857D01*
X95099143Y-57167429D01*
X94927715Y-57167429D01*
X94870572Y-57138857D01*
X94842000Y-57110286D01*
X96704286Y-56624571D02*
X96732857Y-56596000D01*
X96790000Y-56567429D01*
X96932857Y-56567429D01*
X96990000Y-56596000D01*
X97018571Y-56624571D01*
X97047143Y-56681714D01*
X97047143Y-56738857D01*
X97018571Y-56824571D01*
X96675714Y-57167429D01*
X97047143Y-57167429D01*
X97275715Y-56624571D02*
X97304286Y-56596000D01*
X97361429Y-56567429D01*
X97504286Y-56567429D01*
X97561429Y-56596000D01*
X97590000Y-56624571D01*
X97618572Y-56681714D01*
X97618572Y-56738857D01*
X97590000Y-56824571D01*
X97247143Y-57167429D01*
X97618572Y-57167429D01*
X97990001Y-56567429D02*
X98047144Y-56567429D01*
X98104287Y-56596000D01*
X98132858Y-56624571D01*
X98161429Y-56681714D01*
X98190001Y-56796000D01*
X98190001Y-56938857D01*
X98161429Y-57053143D01*
X98132858Y-57110286D01*
X98104287Y-57138857D01*
X98047144Y-57167429D01*
X97990001Y-57167429D01*
X97932858Y-57138857D01*
X97904287Y-57110286D01*
X97875715Y-57053143D01*
X97847144Y-56938857D01*
X97847144Y-56796000D01*
X97875715Y-56681714D01*
X97904287Y-56624571D01*
X97932858Y-56596000D01*
X97990001Y-56567429D01*
X98418573Y-57167429D02*
X98561430Y-57167429D01*
X98561430Y-57053143D01*
X98504287Y-57024571D01*
X98447144Y-56967429D01*
X98418573Y-56881714D01*
X98418573Y-56738857D01*
X98447144Y-56653143D01*
X98504287Y-56596000D01*
X98590001Y-56567429D01*
X98704287Y-56567429D01*
X98790001Y-56596000D01*
X98847144Y-56653143D01*
X98875716Y-56738857D01*
X98875716Y-56881714D01*
X98847144Y-56967429D01*
X98790001Y-57024571D01*
X98732858Y-57053143D01*
X98732858Y-57167429D01*
X98875716Y-57167429D01*
X94642000Y-60977429D02*
X94442000Y-60691714D01*
X94299143Y-60977429D02*
X94299143Y-60377429D01*
X94527715Y-60377429D01*
X94584857Y-60406000D01*
X94613429Y-60434571D01*
X94642000Y-60491714D01*
X94642000Y-60577429D01*
X94613429Y-60634571D01*
X94584857Y-60663143D01*
X94527715Y-60691714D01*
X94299143Y-60691714D01*
X95156286Y-60577429D02*
X95156286Y-60977429D01*
X95013429Y-60348857D02*
X94870572Y-60777429D01*
X95242000Y-60777429D01*
X96704286Y-60434571D02*
X96732857Y-60406000D01*
X96790000Y-60377429D01*
X96932857Y-60377429D01*
X96990000Y-60406000D01*
X97018571Y-60434571D01*
X97047143Y-60491714D01*
X97047143Y-60548857D01*
X97018571Y-60634571D01*
X96675714Y-60977429D01*
X97047143Y-60977429D01*
X97275715Y-60434571D02*
X97304286Y-60406000D01*
X97361429Y-60377429D01*
X97504286Y-60377429D01*
X97561429Y-60406000D01*
X97590000Y-60434571D01*
X97618572Y-60491714D01*
X97618572Y-60548857D01*
X97590000Y-60634571D01*
X97247143Y-60977429D01*
X97618572Y-60977429D01*
X97990001Y-60377429D02*
X98047144Y-60377429D01*
X98104287Y-60406000D01*
X98132858Y-60434571D01*
X98161429Y-60491714D01*
X98190001Y-60606000D01*
X98190001Y-60748857D01*
X98161429Y-60863143D01*
X98132858Y-60920286D01*
X98104287Y-60948857D01*
X98047144Y-60977429D01*
X97990001Y-60977429D01*
X97932858Y-60948857D01*
X97904287Y-60920286D01*
X97875715Y-60863143D01*
X97847144Y-60748857D01*
X97847144Y-60606000D01*
X97875715Y-60491714D01*
X97904287Y-60434571D01*
X97932858Y-60406000D01*
X97990001Y-60377429D01*
X98418573Y-60977429D02*
X98561430Y-60977429D01*
X98561430Y-60863143D01*
X98504287Y-60834571D01*
X98447144Y-60777429D01*
X98418573Y-60691714D01*
X98418573Y-60548857D01*
X98447144Y-60463143D01*
X98504287Y-60406000D01*
X98590001Y-60377429D01*
X98704287Y-60377429D01*
X98790001Y-60406000D01*
X98847144Y-60463143D01*
X98875716Y-60548857D01*
X98875716Y-60691714D01*
X98847144Y-60777429D01*
X98790001Y-60834571D01*
X98732858Y-60863143D01*
X98732858Y-60977429D01*
X98875716Y-60977429D01*
X94642000Y-64787429D02*
X94442000Y-64501714D01*
X94299143Y-64787429D02*
X94299143Y-64187429D01*
X94527715Y-64187429D01*
X94584857Y-64216000D01*
X94613429Y-64244571D01*
X94642000Y-64301714D01*
X94642000Y-64387429D01*
X94613429Y-64444571D01*
X94584857Y-64473143D01*
X94527715Y-64501714D01*
X94299143Y-64501714D01*
X95184857Y-64187429D02*
X94899143Y-64187429D01*
X94870572Y-64473143D01*
X94899143Y-64444571D01*
X94956286Y-64416000D01*
X95099143Y-64416000D01*
X95156286Y-64444571D01*
X95184857Y-64473143D01*
X95213429Y-64530286D01*
X95213429Y-64673143D01*
X95184857Y-64730286D01*
X95156286Y-64758857D01*
X95099143Y-64787429D01*
X94956286Y-64787429D01*
X94899143Y-64758857D01*
X94870572Y-64730286D01*
X96704286Y-64244571D02*
X96732857Y-64216000D01*
X96790000Y-64187429D01*
X96932857Y-64187429D01*
X96990000Y-64216000D01*
X97018571Y-64244571D01*
X97047143Y-64301714D01*
X97047143Y-64358857D01*
X97018571Y-64444571D01*
X96675714Y-64787429D01*
X97047143Y-64787429D01*
X97275715Y-64244571D02*
X97304286Y-64216000D01*
X97361429Y-64187429D01*
X97504286Y-64187429D01*
X97561429Y-64216000D01*
X97590000Y-64244571D01*
X97618572Y-64301714D01*
X97618572Y-64358857D01*
X97590000Y-64444571D01*
X97247143Y-64787429D01*
X97618572Y-64787429D01*
X97990001Y-64187429D02*
X98047144Y-64187429D01*
X98104287Y-64216000D01*
X98132858Y-64244571D01*
X98161429Y-64301714D01*
X98190001Y-64416000D01*
X98190001Y-64558857D01*
X98161429Y-64673143D01*
X98132858Y-64730286D01*
X98104287Y-64758857D01*
X98047144Y-64787429D01*
X97990001Y-64787429D01*
X97932858Y-64758857D01*
X97904287Y-64730286D01*
X97875715Y-64673143D01*
X97847144Y-64558857D01*
X97847144Y-64416000D01*
X97875715Y-64301714D01*
X97904287Y-64244571D01*
X97932858Y-64216000D01*
X97990001Y-64187429D01*
X98418573Y-64787429D02*
X98561430Y-64787429D01*
X98561430Y-64673143D01*
X98504287Y-64644571D01*
X98447144Y-64587429D01*
X98418573Y-64501714D01*
X98418573Y-64358857D01*
X98447144Y-64273143D01*
X98504287Y-64216000D01*
X98590001Y-64187429D01*
X98704287Y-64187429D01*
X98790001Y-64216000D01*
X98847144Y-64273143D01*
X98875716Y-64358857D01*
X98875716Y-64501714D01*
X98847144Y-64587429D01*
X98790001Y-64644571D01*
X98732858Y-64673143D01*
X98732858Y-64787429D01*
X98875716Y-64787429D01*
X94642000Y-68597429D02*
X94442000Y-68311714D01*
X94299143Y-68597429D02*
X94299143Y-67997429D01*
X94527715Y-67997429D01*
X94584857Y-68026000D01*
X94613429Y-68054571D01*
X94642000Y-68111714D01*
X94642000Y-68197429D01*
X94613429Y-68254571D01*
X94584857Y-68283143D01*
X94527715Y-68311714D01*
X94299143Y-68311714D01*
X95156286Y-67997429D02*
X95042000Y-67997429D01*
X94984857Y-68026000D01*
X94956286Y-68054571D01*
X94899143Y-68140286D01*
X94870572Y-68254571D01*
X94870572Y-68483143D01*
X94899143Y-68540286D01*
X94927715Y-68568857D01*
X94984857Y-68597429D01*
X95099143Y-68597429D01*
X95156286Y-68568857D01*
X95184857Y-68540286D01*
X95213429Y-68483143D01*
X95213429Y-68340286D01*
X95184857Y-68283143D01*
X95156286Y-68254571D01*
X95099143Y-68226000D01*
X94984857Y-68226000D01*
X94927715Y-68254571D01*
X94899143Y-68283143D01*
X94870572Y-68340286D01*
X96704286Y-68054571D02*
X96732857Y-68026000D01*
X96790000Y-67997429D01*
X96932857Y-67997429D01*
X96990000Y-68026000D01*
X97018571Y-68054571D01*
X97047143Y-68111714D01*
X97047143Y-68168857D01*
X97018571Y-68254571D01*
X96675714Y-68597429D01*
X97047143Y-68597429D01*
X97275715Y-68054571D02*
X97304286Y-68026000D01*
X97361429Y-67997429D01*
X97504286Y-67997429D01*
X97561429Y-68026000D01*
X97590000Y-68054571D01*
X97618572Y-68111714D01*
X97618572Y-68168857D01*
X97590000Y-68254571D01*
X97247143Y-68597429D01*
X97618572Y-68597429D01*
X97990001Y-67997429D02*
X98047144Y-67997429D01*
X98104287Y-68026000D01*
X98132858Y-68054571D01*
X98161429Y-68111714D01*
X98190001Y-68226000D01*
X98190001Y-68368857D01*
X98161429Y-68483143D01*
X98132858Y-68540286D01*
X98104287Y-68568857D01*
X98047144Y-68597429D01*
X97990001Y-68597429D01*
X97932858Y-68568857D01*
X97904287Y-68540286D01*
X97875715Y-68483143D01*
X97847144Y-68368857D01*
X97847144Y-68226000D01*
X97875715Y-68111714D01*
X97904287Y-68054571D01*
X97932858Y-68026000D01*
X97990001Y-67997429D01*
X98418573Y-68597429D02*
X98561430Y-68597429D01*
X98561430Y-68483143D01*
X98504287Y-68454571D01*
X98447144Y-68397429D01*
X98418573Y-68311714D01*
X98418573Y-68168857D01*
X98447144Y-68083143D01*
X98504287Y-68026000D01*
X98590001Y-67997429D01*
X98704287Y-67997429D01*
X98790001Y-68026000D01*
X98847144Y-68083143D01*
X98875716Y-68168857D01*
X98875716Y-68311714D01*
X98847144Y-68397429D01*
X98790001Y-68454571D01*
X98732858Y-68483143D01*
X98732858Y-68597429D01*
X98875716Y-68597429D01*
X94642000Y-72407429D02*
X94442000Y-72121714D01*
X94299143Y-72407429D02*
X94299143Y-71807429D01*
X94527715Y-71807429D01*
X94584857Y-71836000D01*
X94613429Y-71864571D01*
X94642000Y-71921714D01*
X94642000Y-72007429D01*
X94613429Y-72064571D01*
X94584857Y-72093143D01*
X94527715Y-72121714D01*
X94299143Y-72121714D01*
X94842000Y-71807429D02*
X95242000Y-71807429D01*
X94984857Y-72407429D01*
X96704286Y-71864571D02*
X96732857Y-71836000D01*
X96790000Y-71807429D01*
X96932857Y-71807429D01*
X96990000Y-71836000D01*
X97018571Y-71864571D01*
X97047143Y-71921714D01*
X97047143Y-71978857D01*
X97018571Y-72064571D01*
X96675714Y-72407429D01*
X97047143Y-72407429D01*
X97275715Y-71864571D02*
X97304286Y-71836000D01*
X97361429Y-71807429D01*
X97504286Y-71807429D01*
X97561429Y-71836000D01*
X97590000Y-71864571D01*
X97618572Y-71921714D01*
X97618572Y-71978857D01*
X97590000Y-72064571D01*
X97247143Y-72407429D01*
X97618572Y-72407429D01*
X97990001Y-71807429D02*
X98047144Y-71807429D01*
X98104287Y-71836000D01*
X98132858Y-71864571D01*
X98161429Y-71921714D01*
X98190001Y-72036000D01*
X98190001Y-72178857D01*
X98161429Y-72293143D01*
X98132858Y-72350286D01*
X98104287Y-72378857D01*
X98047144Y-72407429D01*
X97990001Y-72407429D01*
X97932858Y-72378857D01*
X97904287Y-72350286D01*
X97875715Y-72293143D01*
X97847144Y-72178857D01*
X97847144Y-72036000D01*
X97875715Y-71921714D01*
X97904287Y-71864571D01*
X97932858Y-71836000D01*
X97990001Y-71807429D01*
X98418573Y-72407429D02*
X98561430Y-72407429D01*
X98561430Y-72293143D01*
X98504287Y-72264571D01*
X98447144Y-72207429D01*
X98418573Y-72121714D01*
X98418573Y-71978857D01*
X98447144Y-71893143D01*
X98504287Y-71836000D01*
X98590001Y-71807429D01*
X98704287Y-71807429D01*
X98790001Y-71836000D01*
X98847144Y-71893143D01*
X98875716Y-71978857D01*
X98875716Y-72121714D01*
X98847144Y-72207429D01*
X98790001Y-72264571D01*
X98732858Y-72293143D01*
X98732858Y-72407429D01*
X98875716Y-72407429D01*
X94642000Y-76217429D02*
X94442000Y-75931714D01*
X94299143Y-76217429D02*
X94299143Y-75617429D01*
X94527715Y-75617429D01*
X94584857Y-75646000D01*
X94613429Y-75674571D01*
X94642000Y-75731714D01*
X94642000Y-75817429D01*
X94613429Y-75874571D01*
X94584857Y-75903143D01*
X94527715Y-75931714D01*
X94299143Y-75931714D01*
X94984857Y-75874571D02*
X94927715Y-75846000D01*
X94899143Y-75817429D01*
X94870572Y-75760286D01*
X94870572Y-75731714D01*
X94899143Y-75674571D01*
X94927715Y-75646000D01*
X94984857Y-75617429D01*
X95099143Y-75617429D01*
X95156286Y-75646000D01*
X95184857Y-75674571D01*
X95213429Y-75731714D01*
X95213429Y-75760286D01*
X95184857Y-75817429D01*
X95156286Y-75846000D01*
X95099143Y-75874571D01*
X94984857Y-75874571D01*
X94927715Y-75903143D01*
X94899143Y-75931714D01*
X94870572Y-75988857D01*
X94870572Y-76103143D01*
X94899143Y-76160286D01*
X94927715Y-76188857D01*
X94984857Y-76217429D01*
X95099143Y-76217429D01*
X95156286Y-76188857D01*
X95184857Y-76160286D01*
X95213429Y-76103143D01*
X95213429Y-75988857D01*
X95184857Y-75931714D01*
X95156286Y-75903143D01*
X95099143Y-75874571D01*
X96704286Y-75674571D02*
X96732857Y-75646000D01*
X96790000Y-75617429D01*
X96932857Y-75617429D01*
X96990000Y-75646000D01*
X97018571Y-75674571D01*
X97047143Y-75731714D01*
X97047143Y-75788857D01*
X97018571Y-75874571D01*
X96675714Y-76217429D01*
X97047143Y-76217429D01*
X97275715Y-75674571D02*
X97304286Y-75646000D01*
X97361429Y-75617429D01*
X97504286Y-75617429D01*
X97561429Y-75646000D01*
X97590000Y-75674571D01*
X97618572Y-75731714D01*
X97618572Y-75788857D01*
X97590000Y-75874571D01*
X97247143Y-76217429D01*
X97618572Y-76217429D01*
X97990001Y-75617429D02*
X98047144Y-75617429D01*
X98104287Y-75646000D01*
X98132858Y-75674571D01*
X98161429Y-75731714D01*
X98190001Y-75846000D01*
X98190001Y-75988857D01*
X98161429Y-76103143D01*
X98132858Y-76160286D01*
X98104287Y-76188857D01*
X98047144Y-76217429D01*
X97990001Y-76217429D01*
X97932858Y-76188857D01*
X97904287Y-76160286D01*
X97875715Y-76103143D01*
X97847144Y-75988857D01*
X97847144Y-75846000D01*
X97875715Y-75731714D01*
X97904287Y-75674571D01*
X97932858Y-75646000D01*
X97990001Y-75617429D01*
X98418573Y-76217429D02*
X98561430Y-76217429D01*
X98561430Y-76103143D01*
X98504287Y-76074571D01*
X98447144Y-76017429D01*
X98418573Y-75931714D01*
X98418573Y-75788857D01*
X98447144Y-75703143D01*
X98504287Y-75646000D01*
X98590001Y-75617429D01*
X98704287Y-75617429D01*
X98790001Y-75646000D01*
X98847144Y-75703143D01*
X98875716Y-75788857D01*
X98875716Y-75931714D01*
X98847144Y-76017429D01*
X98790001Y-76074571D01*
X98732858Y-76103143D01*
X98732858Y-76217429D01*
X98875716Y-76217429D01*
X125122000Y-76217429D02*
X124922000Y-75931714D01*
X124779143Y-76217429D02*
X124779143Y-75617429D01*
X125007715Y-75617429D01*
X125064857Y-75646000D01*
X125093429Y-75674571D01*
X125122000Y-75731714D01*
X125122000Y-75817429D01*
X125093429Y-75874571D01*
X125064857Y-75903143D01*
X125007715Y-75931714D01*
X124779143Y-75931714D01*
X125407715Y-76217429D02*
X125522000Y-76217429D01*
X125579143Y-76188857D01*
X125607715Y-76160286D01*
X125664857Y-76074571D01*
X125693429Y-75960286D01*
X125693429Y-75731714D01*
X125664857Y-75674571D01*
X125636286Y-75646000D01*
X125579143Y-75617429D01*
X125464857Y-75617429D01*
X125407715Y-75646000D01*
X125379143Y-75674571D01*
X125350572Y-75731714D01*
X125350572Y-75874571D01*
X125379143Y-75931714D01*
X125407715Y-75960286D01*
X125464857Y-75988857D01*
X125579143Y-75988857D01*
X125636286Y-75960286D01*
X125664857Y-75931714D01*
X125693429Y-75874571D01*
X127184286Y-75674571D02*
X127212857Y-75646000D01*
X127270000Y-75617429D01*
X127412857Y-75617429D01*
X127470000Y-75646000D01*
X127498571Y-75674571D01*
X127527143Y-75731714D01*
X127527143Y-75788857D01*
X127498571Y-75874571D01*
X127155714Y-76217429D01*
X127527143Y-76217429D01*
X127755715Y-75674571D02*
X127784286Y-75646000D01*
X127841429Y-75617429D01*
X127984286Y-75617429D01*
X128041429Y-75646000D01*
X128070000Y-75674571D01*
X128098572Y-75731714D01*
X128098572Y-75788857D01*
X128070000Y-75874571D01*
X127727143Y-76217429D01*
X128098572Y-76217429D01*
X128470001Y-75617429D02*
X128527144Y-75617429D01*
X128584287Y-75646000D01*
X128612858Y-75674571D01*
X128641429Y-75731714D01*
X128670001Y-75846000D01*
X128670001Y-75988857D01*
X128641429Y-76103143D01*
X128612858Y-76160286D01*
X128584287Y-76188857D01*
X128527144Y-76217429D01*
X128470001Y-76217429D01*
X128412858Y-76188857D01*
X128384287Y-76160286D01*
X128355715Y-76103143D01*
X128327144Y-75988857D01*
X128327144Y-75846000D01*
X128355715Y-75731714D01*
X128384287Y-75674571D01*
X128412858Y-75646000D01*
X128470001Y-75617429D01*
X128898573Y-76217429D02*
X129041430Y-76217429D01*
X129041430Y-76103143D01*
X128984287Y-76074571D01*
X128927144Y-76017429D01*
X128898573Y-75931714D01*
X128898573Y-75788857D01*
X128927144Y-75703143D01*
X128984287Y-75646000D01*
X129070001Y-75617429D01*
X129184287Y-75617429D01*
X129270001Y-75646000D01*
X129327144Y-75703143D01*
X129355716Y-75788857D01*
X129355716Y-75931714D01*
X129327144Y-76017429D01*
X129270001Y-76074571D01*
X129212858Y-76103143D01*
X129212858Y-76217429D01*
X129355716Y-76217429D01*
X125090285Y-72407429D02*
X124890285Y-72121714D01*
X124747428Y-72407429D02*
X124747428Y-71807429D01*
X124976000Y-71807429D01*
X125033142Y-71836000D01*
X125061714Y-71864571D01*
X125090285Y-71921714D01*
X125090285Y-72007429D01*
X125061714Y-72064571D01*
X125033142Y-72093143D01*
X124976000Y-72121714D01*
X124747428Y-72121714D01*
X125661714Y-72407429D02*
X125318857Y-72407429D01*
X125490285Y-72407429D02*
X125490285Y-71807429D01*
X125433142Y-71893143D01*
X125376000Y-71950286D01*
X125318857Y-71978857D01*
X126033143Y-71807429D02*
X126090286Y-71807429D01*
X126147429Y-71836000D01*
X126176000Y-71864571D01*
X126204571Y-71921714D01*
X126233143Y-72036000D01*
X126233143Y-72178857D01*
X126204571Y-72293143D01*
X126176000Y-72350286D01*
X126147429Y-72378857D01*
X126090286Y-72407429D01*
X126033143Y-72407429D01*
X125976000Y-72378857D01*
X125947429Y-72350286D01*
X125918857Y-72293143D01*
X125890286Y-72178857D01*
X125890286Y-72036000D01*
X125918857Y-71921714D01*
X125947429Y-71864571D01*
X125976000Y-71836000D01*
X126033143Y-71807429D01*
X127184286Y-71864571D02*
X127212857Y-71836000D01*
X127270000Y-71807429D01*
X127412857Y-71807429D01*
X127470000Y-71836000D01*
X127498571Y-71864571D01*
X127527143Y-71921714D01*
X127527143Y-71978857D01*
X127498571Y-72064571D01*
X127155714Y-72407429D01*
X127527143Y-72407429D01*
X127755715Y-71864571D02*
X127784286Y-71836000D01*
X127841429Y-71807429D01*
X127984286Y-71807429D01*
X128041429Y-71836000D01*
X128070000Y-71864571D01*
X128098572Y-71921714D01*
X128098572Y-71978857D01*
X128070000Y-72064571D01*
X127727143Y-72407429D01*
X128098572Y-72407429D01*
X128470001Y-71807429D02*
X128527144Y-71807429D01*
X128584287Y-71836000D01*
X128612858Y-71864571D01*
X128641429Y-71921714D01*
X128670001Y-72036000D01*
X128670001Y-72178857D01*
X128641429Y-72293143D01*
X128612858Y-72350286D01*
X128584287Y-72378857D01*
X128527144Y-72407429D01*
X128470001Y-72407429D01*
X128412858Y-72378857D01*
X128384287Y-72350286D01*
X128355715Y-72293143D01*
X128327144Y-72178857D01*
X128327144Y-72036000D01*
X128355715Y-71921714D01*
X128384287Y-71864571D01*
X128412858Y-71836000D01*
X128470001Y-71807429D01*
X128898573Y-72407429D02*
X129041430Y-72407429D01*
X129041430Y-72293143D01*
X128984287Y-72264571D01*
X128927144Y-72207429D01*
X128898573Y-72121714D01*
X128898573Y-71978857D01*
X128927144Y-71893143D01*
X128984287Y-71836000D01*
X129070001Y-71807429D01*
X129184287Y-71807429D01*
X129270001Y-71836000D01*
X129327144Y-71893143D01*
X129355716Y-71978857D01*
X129355716Y-72121714D01*
X129327144Y-72207429D01*
X129270001Y-72264571D01*
X129212858Y-72293143D01*
X129212858Y-72407429D01*
X129355716Y-72407429D01*
X125090285Y-68597429D02*
X124890285Y-68311714D01*
X124747428Y-68597429D02*
X124747428Y-67997429D01*
X124976000Y-67997429D01*
X125033142Y-68026000D01*
X125061714Y-68054571D01*
X125090285Y-68111714D01*
X125090285Y-68197429D01*
X125061714Y-68254571D01*
X125033142Y-68283143D01*
X124976000Y-68311714D01*
X124747428Y-68311714D01*
X125661714Y-68597429D02*
X125318857Y-68597429D01*
X125490285Y-68597429D02*
X125490285Y-67997429D01*
X125433142Y-68083143D01*
X125376000Y-68140286D01*
X125318857Y-68168857D01*
X126233143Y-68597429D02*
X125890286Y-68597429D01*
X126061714Y-68597429D02*
X126061714Y-67997429D01*
X126004571Y-68083143D01*
X125947429Y-68140286D01*
X125890286Y-68168857D01*
X127184286Y-68054571D02*
X127212857Y-68026000D01*
X127270000Y-67997429D01*
X127412857Y-67997429D01*
X127470000Y-68026000D01*
X127498571Y-68054571D01*
X127527143Y-68111714D01*
X127527143Y-68168857D01*
X127498571Y-68254571D01*
X127155714Y-68597429D01*
X127527143Y-68597429D01*
X127755715Y-68054571D02*
X127784286Y-68026000D01*
X127841429Y-67997429D01*
X127984286Y-67997429D01*
X128041429Y-68026000D01*
X128070000Y-68054571D01*
X128098572Y-68111714D01*
X128098572Y-68168857D01*
X128070000Y-68254571D01*
X127727143Y-68597429D01*
X128098572Y-68597429D01*
X128470001Y-67997429D02*
X128527144Y-67997429D01*
X128584287Y-68026000D01*
X128612858Y-68054571D01*
X128641429Y-68111714D01*
X128670001Y-68226000D01*
X128670001Y-68368857D01*
X128641429Y-68483143D01*
X128612858Y-68540286D01*
X128584287Y-68568857D01*
X128527144Y-68597429D01*
X128470001Y-68597429D01*
X128412858Y-68568857D01*
X128384287Y-68540286D01*
X128355715Y-68483143D01*
X128327144Y-68368857D01*
X128327144Y-68226000D01*
X128355715Y-68111714D01*
X128384287Y-68054571D01*
X128412858Y-68026000D01*
X128470001Y-67997429D01*
X128898573Y-68597429D02*
X129041430Y-68597429D01*
X129041430Y-68483143D01*
X128984287Y-68454571D01*
X128927144Y-68397429D01*
X128898573Y-68311714D01*
X128898573Y-68168857D01*
X128927144Y-68083143D01*
X128984287Y-68026000D01*
X129070001Y-67997429D01*
X129184287Y-67997429D01*
X129270001Y-68026000D01*
X129327144Y-68083143D01*
X129355716Y-68168857D01*
X129355716Y-68311714D01*
X129327144Y-68397429D01*
X129270001Y-68454571D01*
X129212858Y-68483143D01*
X129212858Y-68597429D01*
X129355716Y-68597429D01*
X125090285Y-64787429D02*
X124890285Y-64501714D01*
X124747428Y-64787429D02*
X124747428Y-64187429D01*
X124976000Y-64187429D01*
X125033142Y-64216000D01*
X125061714Y-64244571D01*
X125090285Y-64301714D01*
X125090285Y-64387429D01*
X125061714Y-64444571D01*
X125033142Y-64473143D01*
X124976000Y-64501714D01*
X124747428Y-64501714D01*
X125661714Y-64787429D02*
X125318857Y-64787429D01*
X125490285Y-64787429D02*
X125490285Y-64187429D01*
X125433142Y-64273143D01*
X125376000Y-64330286D01*
X125318857Y-64358857D01*
X125890286Y-64244571D02*
X125918857Y-64216000D01*
X125976000Y-64187429D01*
X126118857Y-64187429D01*
X126176000Y-64216000D01*
X126204571Y-64244571D01*
X126233143Y-64301714D01*
X126233143Y-64358857D01*
X126204571Y-64444571D01*
X125861714Y-64787429D01*
X126233143Y-64787429D01*
X127184286Y-64244571D02*
X127212857Y-64216000D01*
X127270000Y-64187429D01*
X127412857Y-64187429D01*
X127470000Y-64216000D01*
X127498571Y-64244571D01*
X127527143Y-64301714D01*
X127527143Y-64358857D01*
X127498571Y-64444571D01*
X127155714Y-64787429D01*
X127527143Y-64787429D01*
X127755715Y-64244571D02*
X127784286Y-64216000D01*
X127841429Y-64187429D01*
X127984286Y-64187429D01*
X128041429Y-64216000D01*
X128070000Y-64244571D01*
X128098572Y-64301714D01*
X128098572Y-64358857D01*
X128070000Y-64444571D01*
X127727143Y-64787429D01*
X128098572Y-64787429D01*
X128470001Y-64187429D02*
X128527144Y-64187429D01*
X128584287Y-64216000D01*
X128612858Y-64244571D01*
X128641429Y-64301714D01*
X128670001Y-64416000D01*
X128670001Y-64558857D01*
X128641429Y-64673143D01*
X128612858Y-64730286D01*
X128584287Y-64758857D01*
X128527144Y-64787429D01*
X128470001Y-64787429D01*
X128412858Y-64758857D01*
X128384287Y-64730286D01*
X128355715Y-64673143D01*
X128327144Y-64558857D01*
X128327144Y-64416000D01*
X128355715Y-64301714D01*
X128384287Y-64244571D01*
X128412858Y-64216000D01*
X128470001Y-64187429D01*
X128898573Y-64787429D02*
X129041430Y-64787429D01*
X129041430Y-64673143D01*
X128984287Y-64644571D01*
X128927144Y-64587429D01*
X128898573Y-64501714D01*
X128898573Y-64358857D01*
X128927144Y-64273143D01*
X128984287Y-64216000D01*
X129070001Y-64187429D01*
X129184287Y-64187429D01*
X129270001Y-64216000D01*
X129327144Y-64273143D01*
X129355716Y-64358857D01*
X129355716Y-64501714D01*
X129327144Y-64587429D01*
X129270001Y-64644571D01*
X129212858Y-64673143D01*
X129212858Y-64787429D01*
X129355716Y-64787429D01*
X125090285Y-60977429D02*
X124890285Y-60691714D01*
X124747428Y-60977429D02*
X124747428Y-60377429D01*
X124976000Y-60377429D01*
X125033142Y-60406000D01*
X125061714Y-60434571D01*
X125090285Y-60491714D01*
X125090285Y-60577429D01*
X125061714Y-60634571D01*
X125033142Y-60663143D01*
X124976000Y-60691714D01*
X124747428Y-60691714D01*
X125661714Y-60977429D02*
X125318857Y-60977429D01*
X125490285Y-60977429D02*
X125490285Y-60377429D01*
X125433142Y-60463143D01*
X125376000Y-60520286D01*
X125318857Y-60548857D01*
X125861714Y-60377429D02*
X126233143Y-60377429D01*
X126033143Y-60606000D01*
X126118857Y-60606000D01*
X126176000Y-60634571D01*
X126204571Y-60663143D01*
X126233143Y-60720286D01*
X126233143Y-60863143D01*
X126204571Y-60920286D01*
X126176000Y-60948857D01*
X126118857Y-60977429D01*
X125947429Y-60977429D01*
X125890286Y-60948857D01*
X125861714Y-60920286D01*
X127184286Y-60434571D02*
X127212857Y-60406000D01*
X127270000Y-60377429D01*
X127412857Y-60377429D01*
X127470000Y-60406000D01*
X127498571Y-60434571D01*
X127527143Y-60491714D01*
X127527143Y-60548857D01*
X127498571Y-60634571D01*
X127155714Y-60977429D01*
X127527143Y-60977429D01*
X127755715Y-60434571D02*
X127784286Y-60406000D01*
X127841429Y-60377429D01*
X127984286Y-60377429D01*
X128041429Y-60406000D01*
X128070000Y-60434571D01*
X128098572Y-60491714D01*
X128098572Y-60548857D01*
X128070000Y-60634571D01*
X127727143Y-60977429D01*
X128098572Y-60977429D01*
X128470001Y-60377429D02*
X128527144Y-60377429D01*
X128584287Y-60406000D01*
X128612858Y-60434571D01*
X128641429Y-60491714D01*
X128670001Y-60606000D01*
X128670001Y-60748857D01*
X128641429Y-60863143D01*
X128612858Y-60920286D01*
X128584287Y-60948857D01*
X128527144Y-60977429D01*
X128470001Y-60977429D01*
X128412858Y-60948857D01*
X128384287Y-60920286D01*
X128355715Y-60863143D01*
X128327144Y-60748857D01*
X128327144Y-60606000D01*
X128355715Y-60491714D01*
X128384287Y-60434571D01*
X128412858Y-60406000D01*
X128470001Y-60377429D01*
X128898573Y-60977429D02*
X129041430Y-60977429D01*
X129041430Y-60863143D01*
X128984287Y-60834571D01*
X128927144Y-60777429D01*
X128898573Y-60691714D01*
X128898573Y-60548857D01*
X128927144Y-60463143D01*
X128984287Y-60406000D01*
X129070001Y-60377429D01*
X129184287Y-60377429D01*
X129270001Y-60406000D01*
X129327144Y-60463143D01*
X129355716Y-60548857D01*
X129355716Y-60691714D01*
X129327144Y-60777429D01*
X129270001Y-60834571D01*
X129212858Y-60863143D01*
X129212858Y-60977429D01*
X129355716Y-60977429D01*
X125090285Y-57167429D02*
X124890285Y-56881714D01*
X124747428Y-57167429D02*
X124747428Y-56567429D01*
X124976000Y-56567429D01*
X125033142Y-56596000D01*
X125061714Y-56624571D01*
X125090285Y-56681714D01*
X125090285Y-56767429D01*
X125061714Y-56824571D01*
X125033142Y-56853143D01*
X124976000Y-56881714D01*
X124747428Y-56881714D01*
X125661714Y-57167429D02*
X125318857Y-57167429D01*
X125490285Y-57167429D02*
X125490285Y-56567429D01*
X125433142Y-56653143D01*
X125376000Y-56710286D01*
X125318857Y-56738857D01*
X126176000Y-56767429D02*
X126176000Y-57167429D01*
X126033143Y-56538857D02*
X125890286Y-56967429D01*
X126261714Y-56967429D01*
X127184286Y-56624571D02*
X127212857Y-56596000D01*
X127270000Y-56567429D01*
X127412857Y-56567429D01*
X127470000Y-56596000D01*
X127498571Y-56624571D01*
X127527143Y-56681714D01*
X127527143Y-56738857D01*
X127498571Y-56824571D01*
X127155714Y-57167429D01*
X127527143Y-57167429D01*
X127755715Y-56624571D02*
X127784286Y-56596000D01*
X127841429Y-56567429D01*
X127984286Y-56567429D01*
X128041429Y-56596000D01*
X128070000Y-56624571D01*
X128098572Y-56681714D01*
X128098572Y-56738857D01*
X128070000Y-56824571D01*
X127727143Y-57167429D01*
X128098572Y-57167429D01*
X128470001Y-56567429D02*
X128527144Y-56567429D01*
X128584287Y-56596000D01*
X128612858Y-56624571D01*
X128641429Y-56681714D01*
X128670001Y-56796000D01*
X128670001Y-56938857D01*
X128641429Y-57053143D01*
X128612858Y-57110286D01*
X128584287Y-57138857D01*
X128527144Y-57167429D01*
X128470001Y-57167429D01*
X128412858Y-57138857D01*
X128384287Y-57110286D01*
X128355715Y-57053143D01*
X128327144Y-56938857D01*
X128327144Y-56796000D01*
X128355715Y-56681714D01*
X128384287Y-56624571D01*
X128412858Y-56596000D01*
X128470001Y-56567429D01*
X128898573Y-57167429D02*
X129041430Y-57167429D01*
X129041430Y-57053143D01*
X128984287Y-57024571D01*
X128927144Y-56967429D01*
X128898573Y-56881714D01*
X128898573Y-56738857D01*
X128927144Y-56653143D01*
X128984287Y-56596000D01*
X129070001Y-56567429D01*
X129184287Y-56567429D01*
X129270001Y-56596000D01*
X129327144Y-56653143D01*
X129355716Y-56738857D01*
X129355716Y-56881714D01*
X129327144Y-56967429D01*
X129270001Y-57024571D01*
X129212858Y-57053143D01*
X129212858Y-57167429D01*
X129355716Y-57167429D01*
X125090285Y-53357429D02*
X124890285Y-53071714D01*
X124747428Y-53357429D02*
X124747428Y-52757429D01*
X124976000Y-52757429D01*
X125033142Y-52786000D01*
X125061714Y-52814571D01*
X125090285Y-52871714D01*
X125090285Y-52957429D01*
X125061714Y-53014571D01*
X125033142Y-53043143D01*
X124976000Y-53071714D01*
X124747428Y-53071714D01*
X125661714Y-53357429D02*
X125318857Y-53357429D01*
X125490285Y-53357429D02*
X125490285Y-52757429D01*
X125433142Y-52843143D01*
X125376000Y-52900286D01*
X125318857Y-52928857D01*
X126204571Y-52757429D02*
X125918857Y-52757429D01*
X125890286Y-53043143D01*
X125918857Y-53014571D01*
X125976000Y-52986000D01*
X126118857Y-52986000D01*
X126176000Y-53014571D01*
X126204571Y-53043143D01*
X126233143Y-53100286D01*
X126233143Y-53243143D01*
X126204571Y-53300286D01*
X126176000Y-53328857D01*
X126118857Y-53357429D01*
X125976000Y-53357429D01*
X125918857Y-53328857D01*
X125890286Y-53300286D01*
X127184286Y-52814571D02*
X127212857Y-52786000D01*
X127270000Y-52757429D01*
X127412857Y-52757429D01*
X127470000Y-52786000D01*
X127498571Y-52814571D01*
X127527143Y-52871714D01*
X127527143Y-52928857D01*
X127498571Y-53014571D01*
X127155714Y-53357429D01*
X127527143Y-53357429D01*
X127755715Y-52814571D02*
X127784286Y-52786000D01*
X127841429Y-52757429D01*
X127984286Y-52757429D01*
X128041429Y-52786000D01*
X128070000Y-52814571D01*
X128098572Y-52871714D01*
X128098572Y-52928857D01*
X128070000Y-53014571D01*
X127727143Y-53357429D01*
X128098572Y-53357429D01*
X128470001Y-52757429D02*
X128527144Y-52757429D01*
X128584287Y-52786000D01*
X128612858Y-52814571D01*
X128641429Y-52871714D01*
X128670001Y-52986000D01*
X128670001Y-53128857D01*
X128641429Y-53243143D01*
X128612858Y-53300286D01*
X128584287Y-53328857D01*
X128527144Y-53357429D01*
X128470001Y-53357429D01*
X128412858Y-53328857D01*
X128384287Y-53300286D01*
X128355715Y-53243143D01*
X128327144Y-53128857D01*
X128327144Y-52986000D01*
X128355715Y-52871714D01*
X128384287Y-52814571D01*
X128412858Y-52786000D01*
X128470001Y-52757429D01*
X128898573Y-53357429D02*
X129041430Y-53357429D01*
X129041430Y-53243143D01*
X128984287Y-53214571D01*
X128927144Y-53157429D01*
X128898573Y-53071714D01*
X128898573Y-52928857D01*
X128927144Y-52843143D01*
X128984287Y-52786000D01*
X129070001Y-52757429D01*
X129184287Y-52757429D01*
X129270001Y-52786000D01*
X129327144Y-52843143D01*
X129355716Y-52928857D01*
X129355716Y-53071714D01*
X129327144Y-53157429D01*
X129270001Y-53214571D01*
X129212858Y-53243143D01*
X129212858Y-53357429D01*
X129355716Y-53357429D01*
X125090285Y-49547429D02*
X124890285Y-49261714D01*
X124747428Y-49547429D02*
X124747428Y-48947429D01*
X124976000Y-48947429D01*
X125033142Y-48976000D01*
X125061714Y-49004571D01*
X125090285Y-49061714D01*
X125090285Y-49147429D01*
X125061714Y-49204571D01*
X125033142Y-49233143D01*
X124976000Y-49261714D01*
X124747428Y-49261714D01*
X125661714Y-49547429D02*
X125318857Y-49547429D01*
X125490285Y-49547429D02*
X125490285Y-48947429D01*
X125433142Y-49033143D01*
X125376000Y-49090286D01*
X125318857Y-49118857D01*
X126176000Y-48947429D02*
X126061714Y-48947429D01*
X126004571Y-48976000D01*
X125976000Y-49004571D01*
X125918857Y-49090286D01*
X125890286Y-49204571D01*
X125890286Y-49433143D01*
X125918857Y-49490286D01*
X125947429Y-49518857D01*
X126004571Y-49547429D01*
X126118857Y-49547429D01*
X126176000Y-49518857D01*
X126204571Y-49490286D01*
X126233143Y-49433143D01*
X126233143Y-49290286D01*
X126204571Y-49233143D01*
X126176000Y-49204571D01*
X126118857Y-49176000D01*
X126004571Y-49176000D01*
X125947429Y-49204571D01*
X125918857Y-49233143D01*
X125890286Y-49290286D01*
X126930286Y-49004571D02*
X126958857Y-48976000D01*
X127016000Y-48947429D01*
X127158857Y-48947429D01*
X127216000Y-48976000D01*
X127244571Y-49004571D01*
X127273143Y-49061714D01*
X127273143Y-49118857D01*
X127244571Y-49204571D01*
X126901714Y-49547429D01*
X127273143Y-49547429D01*
X127501715Y-49004571D02*
X127530286Y-48976000D01*
X127587429Y-48947429D01*
X127730286Y-48947429D01*
X127787429Y-48976000D01*
X127816000Y-49004571D01*
X127844572Y-49061714D01*
X127844572Y-49118857D01*
X127816000Y-49204571D01*
X127473143Y-49547429D01*
X127844572Y-49547429D01*
X128216001Y-48947429D02*
X128273144Y-48947429D01*
X128330287Y-48976000D01*
X128358858Y-49004571D01*
X128387429Y-49061714D01*
X128416001Y-49176000D01*
X128416001Y-49318857D01*
X128387429Y-49433143D01*
X128358858Y-49490286D01*
X128330287Y-49518857D01*
X128273144Y-49547429D01*
X128216001Y-49547429D01*
X128158858Y-49518857D01*
X128130287Y-49490286D01*
X128101715Y-49433143D01*
X128073144Y-49318857D01*
X128073144Y-49176000D01*
X128101715Y-49061714D01*
X128130287Y-49004571D01*
X128158858Y-48976000D01*
X128216001Y-48947429D01*
X128644573Y-49547429D02*
X128787430Y-49547429D01*
X128787430Y-49433143D01*
X128730287Y-49404571D01*
X128673144Y-49347429D01*
X128644573Y-49261714D01*
X128644573Y-49118857D01*
X128673144Y-49033143D01*
X128730287Y-48976000D01*
X128816001Y-48947429D01*
X128930287Y-48947429D01*
X129016001Y-48976000D01*
X129073144Y-49033143D01*
X129101716Y-49118857D01*
X129101716Y-49261714D01*
X129073144Y-49347429D01*
X129016001Y-49404571D01*
X128958858Y-49433143D01*
X128958858Y-49547429D01*
X129101716Y-49547429D01*
X104648095Y-68032381D02*
X104648095Y-68841905D01*
X104695714Y-68937143D01*
X104743333Y-68984762D01*
X104838571Y-69032381D01*
X105029048Y-69032381D01*
X105124286Y-68984762D01*
X105171905Y-68937143D01*
X105219524Y-68841905D01*
X105219524Y-68032381D01*
X106219524Y-69032381D02*
X105648095Y-69032381D01*
X105933809Y-69032381D02*
X105933809Y-68032381D01*
X105838571Y-68175238D01*
X105743333Y-68270476D01*
X105648095Y-68318095D01*
X102800476Y-66871905D02*
X103333809Y-66871905D01*
X102990952Y-67671905D01*
X103981428Y-67138571D02*
X103981428Y-67671905D01*
X103790952Y-66833810D02*
X103600476Y-67405238D01*
X104095714Y-67405238D01*
X104400476Y-67671905D02*
X104400476Y-66871905D01*
X104400476Y-67252857D02*
X104857619Y-67252857D01*
X104857619Y-67671905D02*
X104857619Y-66871905D01*
X105695714Y-67595714D02*
X105657619Y-67633810D01*
X105543333Y-67671905D01*
X105467143Y-67671905D01*
X105352857Y-67633810D01*
X105276666Y-67557619D01*
X105238571Y-67481429D01*
X105200476Y-67329048D01*
X105200476Y-67214762D01*
X105238571Y-67062381D01*
X105276666Y-66986190D01*
X105352857Y-66910000D01*
X105467143Y-66871905D01*
X105543333Y-66871905D01*
X105657619Y-66910000D01*
X105695714Y-66948095D01*
X106419524Y-66871905D02*
X106038571Y-66871905D01*
X106000476Y-67252857D01*
X106038571Y-67214762D01*
X106114762Y-67176667D01*
X106305238Y-67176667D01*
X106381428Y-67214762D01*
X106419524Y-67252857D01*
X106457619Y-67329048D01*
X106457619Y-67519524D01*
X106419524Y-67595714D01*
X106381428Y-67633810D01*
X106305238Y-67671905D01*
X106114762Y-67671905D01*
X106038571Y-67633810D01*
X106000476Y-67595714D01*
X106838571Y-67671905D02*
X106990952Y-67671905D01*
X107067143Y-67633810D01*
X107105238Y-67595714D01*
X107181429Y-67481429D01*
X107219524Y-67329048D01*
X107219524Y-67024286D01*
X107181429Y-66948095D01*
X107143333Y-66910000D01*
X107067143Y-66871905D01*
X106914762Y-66871905D01*
X106838571Y-66910000D01*
X106800476Y-66948095D01*
X106762381Y-67024286D01*
X106762381Y-67214762D01*
X106800476Y-67290952D01*
X106838571Y-67329048D01*
X106914762Y-67367143D01*
X107067143Y-67367143D01*
X107143333Y-67329048D01*
X107181429Y-67290952D01*
X107219524Y-67214762D01*
X107943334Y-66871905D02*
X107562381Y-66871905D01*
X107524286Y-67252857D01*
X107562381Y-67214762D01*
X107638572Y-67176667D01*
X107829048Y-67176667D01*
X107905238Y-67214762D01*
X107943334Y-67252857D01*
X107981429Y-67329048D01*
X107981429Y-67519524D01*
X107943334Y-67595714D01*
X107905238Y-67633810D01*
X107829048Y-67671905D01*
X107638572Y-67671905D01*
X107562381Y-67633810D01*
X107524286Y-67595714D01*
X117348095Y-68032381D02*
X117348095Y-68841905D01*
X117395714Y-68937143D01*
X117443333Y-68984762D01*
X117538571Y-69032381D01*
X117729048Y-69032381D01*
X117824286Y-68984762D01*
X117871905Y-68937143D01*
X117919524Y-68841905D01*
X117919524Y-68032381D01*
X118348095Y-68127619D02*
X118395714Y-68080000D01*
X118490952Y-68032381D01*
X118729048Y-68032381D01*
X118824286Y-68080000D01*
X118871905Y-68127619D01*
X118919524Y-68222857D01*
X118919524Y-68318095D01*
X118871905Y-68460952D01*
X118300476Y-69032381D01*
X118919524Y-69032381D01*
X115500476Y-66871905D02*
X116033809Y-66871905D01*
X115690952Y-67671905D01*
X116681428Y-67138571D02*
X116681428Y-67671905D01*
X116490952Y-66833810D02*
X116300476Y-67405238D01*
X116795714Y-67405238D01*
X117100476Y-67671905D02*
X117100476Y-66871905D01*
X117100476Y-67252857D02*
X117557619Y-67252857D01*
X117557619Y-67671905D02*
X117557619Y-66871905D01*
X118395714Y-67595714D02*
X118357619Y-67633810D01*
X118243333Y-67671905D01*
X118167143Y-67671905D01*
X118052857Y-67633810D01*
X117976666Y-67557619D01*
X117938571Y-67481429D01*
X117900476Y-67329048D01*
X117900476Y-67214762D01*
X117938571Y-67062381D01*
X117976666Y-66986190D01*
X118052857Y-66910000D01*
X118167143Y-66871905D01*
X118243333Y-66871905D01*
X118357619Y-66910000D01*
X118395714Y-66948095D01*
X119119524Y-66871905D02*
X118738571Y-66871905D01*
X118700476Y-67252857D01*
X118738571Y-67214762D01*
X118814762Y-67176667D01*
X119005238Y-67176667D01*
X119081428Y-67214762D01*
X119119524Y-67252857D01*
X119157619Y-67329048D01*
X119157619Y-67519524D01*
X119119524Y-67595714D01*
X119081428Y-67633810D01*
X119005238Y-67671905D01*
X118814762Y-67671905D01*
X118738571Y-67633810D01*
X118700476Y-67595714D01*
X119538571Y-67671905D02*
X119690952Y-67671905D01*
X119767143Y-67633810D01*
X119805238Y-67595714D01*
X119881429Y-67481429D01*
X119919524Y-67329048D01*
X119919524Y-67024286D01*
X119881429Y-66948095D01*
X119843333Y-66910000D01*
X119767143Y-66871905D01*
X119614762Y-66871905D01*
X119538571Y-66910000D01*
X119500476Y-66948095D01*
X119462381Y-67024286D01*
X119462381Y-67214762D01*
X119500476Y-67290952D01*
X119538571Y-67329048D01*
X119614762Y-67367143D01*
X119767143Y-67367143D01*
X119843333Y-67329048D01*
X119881429Y-67290952D01*
X119919524Y-67214762D01*
X120643334Y-66871905D02*
X120262381Y-66871905D01*
X120224286Y-67252857D01*
X120262381Y-67214762D01*
X120338572Y-67176667D01*
X120529048Y-67176667D01*
X120605238Y-67214762D01*
X120643334Y-67252857D01*
X120681429Y-67329048D01*
X120681429Y-67519524D01*
X120643334Y-67595714D01*
X120605238Y-67633810D01*
X120529048Y-67671905D01*
X120338572Y-67671905D01*
X120262381Y-67633810D01*
X120224286Y-67595714D01*
M02*
