G04 #@! TF.FileFunction,Copper,L2,Bot,Signal*
%FSLAX46Y46*%
G04 Gerber Fmt 4.6, Leading zero omitted, Abs format (unit mm)*
G04 Created by KiCad (PCBNEW 4.0.1-stable) date 2016 May 22, Sunday 15:19:24*
%MOMM*%
G01*
G04 APERTURE LIST*
%ADD10C,0.100000*%
%ADD11R,1.727200X2.032000*%
%ADD12O,1.727200X2.032000*%
%ADD13C,0.600000*%
%ADD14C,0.400000*%
%ADD15C,0.380000*%
%ADD16C,0.254000*%
G04 APERTURE END LIST*
D10*
D11*
X116840000Y-50800000D03*
D12*
X114300000Y-50800000D03*
X111760000Y-50800000D03*
X109220000Y-50800000D03*
X106680000Y-50800000D03*
D13*
X105918000Y-54610000D03*
D14*
X107315000Y-54610000D03*
X99695000Y-77470000D03*
X99695000Y-73660000D03*
X99695000Y-69850000D03*
X99695000Y-66040000D03*
X99695000Y-62230000D03*
X99695000Y-58420000D03*
X99695000Y-54610000D03*
X99695000Y-50800000D03*
X123825000Y-77470000D03*
X123825000Y-73660000D03*
X123825000Y-69850000D03*
X123825000Y-66040000D03*
X123825000Y-50800000D03*
X123825000Y-54610000D03*
X123825000Y-58420000D03*
X123825000Y-62230000D03*
X116713000Y-61595000D03*
X102235000Y-66675000D03*
X106172000Y-72136000D03*
X121285000Y-55245000D03*
D15*
X107315000Y-54610000D02*
X105918000Y-54610000D01*
X99695000Y-73660000D02*
X99695000Y-77470000D01*
X99695000Y-69850000D02*
X99695000Y-73660000D01*
X99695000Y-66040000D02*
X99695000Y-69850000D01*
X99695000Y-62230000D02*
X99695000Y-66040000D01*
X99695000Y-58420000D02*
X99695000Y-62230000D01*
X99695000Y-54610000D02*
X99695000Y-58420000D01*
X99695000Y-50800000D02*
X99695000Y-54610000D01*
X123825000Y-69850000D02*
X123825000Y-73660000D01*
X123825000Y-73660000D02*
X123825000Y-77470000D01*
X123825000Y-66040000D02*
X123825000Y-69850000D01*
X123825000Y-62230000D02*
X123825000Y-66040000D01*
X123825000Y-54610000D02*
X123825000Y-50800000D01*
X123825000Y-54610000D02*
X123825000Y-58420000D01*
X123825000Y-62230000D02*
X123825000Y-58420000D01*
X118592600Y-59715400D02*
X116713000Y-61595000D01*
X116713000Y-61595000D02*
X106172000Y-72136000D01*
X102235000Y-66675000D02*
X102235000Y-68199000D01*
X102235000Y-68199000D02*
X106172000Y-72136000D01*
X118592600Y-55245000D02*
X118592600Y-59715400D01*
X114300000Y-50952400D02*
X118592600Y-55245000D01*
X118592600Y-55245000D02*
X121285000Y-55245000D01*
X114300000Y-50800000D02*
X114300000Y-50952400D01*
D16*
G36*
X133910000Y-79300000D02*
X89610000Y-79300000D01*
X89610000Y-50965363D01*
X98859855Y-50965363D01*
X98870000Y-50989916D01*
X98870000Y-54419446D01*
X98860145Y-54443179D01*
X98859855Y-54775363D01*
X98870000Y-54799916D01*
X98870000Y-58229446D01*
X98860145Y-58253179D01*
X98859855Y-58585363D01*
X98870000Y-58609916D01*
X98870000Y-62039446D01*
X98860145Y-62063179D01*
X98859855Y-62395363D01*
X98870000Y-62419916D01*
X98870000Y-65849446D01*
X98860145Y-65873179D01*
X98859855Y-66205363D01*
X98870000Y-66229916D01*
X98870000Y-69659446D01*
X98860145Y-69683179D01*
X98859855Y-70015363D01*
X98870000Y-70039916D01*
X98870000Y-73469446D01*
X98860145Y-73493179D01*
X98859855Y-73825363D01*
X98870000Y-73849916D01*
X98870000Y-77279446D01*
X98860145Y-77303179D01*
X98859855Y-77635363D01*
X98986708Y-77942372D01*
X99221393Y-78177466D01*
X99528179Y-78304855D01*
X99860363Y-78305145D01*
X100167372Y-78178292D01*
X100402466Y-77943607D01*
X100529855Y-77636821D01*
X100530145Y-77304637D01*
X100520000Y-77280084D01*
X100520000Y-73850554D01*
X100529855Y-73826821D01*
X100530145Y-73494637D01*
X100520000Y-73470084D01*
X100520000Y-70040554D01*
X100529855Y-70016821D01*
X100530145Y-69684637D01*
X100520000Y-69660084D01*
X100520000Y-66230554D01*
X100529855Y-66206821D01*
X100530145Y-65874637D01*
X100520000Y-65850084D01*
X100520000Y-62420554D01*
X100529855Y-62396821D01*
X100530145Y-62064637D01*
X100520000Y-62040084D01*
X100520000Y-58610554D01*
X100529855Y-58586821D01*
X100530145Y-58254637D01*
X100520000Y-58230084D01*
X100520000Y-54800554D01*
X100522236Y-54795167D01*
X104982838Y-54795167D01*
X105124883Y-55138943D01*
X105387673Y-55402192D01*
X105731201Y-55544838D01*
X106103167Y-55545162D01*
X106369780Y-55435000D01*
X107124446Y-55435000D01*
X107148179Y-55444855D01*
X107480363Y-55445145D01*
X107787372Y-55318292D01*
X108022466Y-55083607D01*
X108149855Y-54776821D01*
X108150145Y-54444637D01*
X108023292Y-54137628D01*
X107788607Y-53902534D01*
X107481821Y-53775145D01*
X107149637Y-53774855D01*
X107125084Y-53785000D01*
X106369317Y-53785000D01*
X106104799Y-53675162D01*
X105732833Y-53674838D01*
X105389057Y-53816883D01*
X105125808Y-54079673D01*
X104983162Y-54423201D01*
X104982838Y-54795167D01*
X100522236Y-54795167D01*
X100529855Y-54776821D01*
X100530145Y-54444637D01*
X100520000Y-54420084D01*
X100520000Y-50990554D01*
X100529855Y-50966821D01*
X100530145Y-50634637D01*
X100522137Y-50615255D01*
X105181400Y-50615255D01*
X105181400Y-50984745D01*
X105295474Y-51558234D01*
X105620330Y-52044415D01*
X106106511Y-52369271D01*
X106680000Y-52483345D01*
X107253489Y-52369271D01*
X107739670Y-52044415D01*
X107950000Y-51729634D01*
X108160330Y-52044415D01*
X108646511Y-52369271D01*
X109220000Y-52483345D01*
X109793489Y-52369271D01*
X110279670Y-52044415D01*
X110490000Y-51729634D01*
X110700330Y-52044415D01*
X111186511Y-52369271D01*
X111760000Y-52483345D01*
X112333489Y-52369271D01*
X112819670Y-52044415D01*
X113026461Y-51734931D01*
X113397964Y-52150732D01*
X113925209Y-52404709D01*
X113940974Y-52407358D01*
X114173000Y-52286217D01*
X114173000Y-50927000D01*
X114153000Y-50927000D01*
X114153000Y-50673000D01*
X114173000Y-50673000D01*
X114173000Y-49313783D01*
X114427000Y-49313783D01*
X114427000Y-50673000D01*
X114447000Y-50673000D01*
X114447000Y-50927000D01*
X114427000Y-50927000D01*
X114427000Y-52286217D01*
X114659026Y-52407358D01*
X114674791Y-52404709D01*
X115202036Y-52150732D01*
X115358907Y-51975155D01*
X115373238Y-52051317D01*
X115512310Y-52267441D01*
X115724510Y-52412431D01*
X115976400Y-52463440D01*
X117703600Y-52463440D01*
X117938917Y-52419162D01*
X118155041Y-52280090D01*
X118300031Y-52067890D01*
X118351040Y-51816000D01*
X118351040Y-50965363D01*
X122989855Y-50965363D01*
X123000000Y-50989916D01*
X123000000Y-54419446D01*
X122990145Y-54443179D01*
X122989855Y-54775363D01*
X123000000Y-54799916D01*
X123000000Y-58229446D01*
X122990145Y-58253179D01*
X122989855Y-58585363D01*
X123000000Y-58609916D01*
X123000000Y-62039446D01*
X122990145Y-62063179D01*
X122989855Y-62395363D01*
X123000000Y-62419916D01*
X123000000Y-65849446D01*
X122990145Y-65873179D01*
X122989855Y-66205363D01*
X123000000Y-66229916D01*
X123000000Y-69659446D01*
X122990145Y-69683179D01*
X122989855Y-70015363D01*
X123000000Y-70039916D01*
X123000000Y-73469446D01*
X122990145Y-73493179D01*
X122989855Y-73825363D01*
X123000000Y-73849916D01*
X123000000Y-77279446D01*
X122990145Y-77303179D01*
X122989855Y-77635363D01*
X123116708Y-77942372D01*
X123351393Y-78177466D01*
X123658179Y-78304855D01*
X123990363Y-78305145D01*
X124297372Y-78178292D01*
X124532466Y-77943607D01*
X124659855Y-77636821D01*
X124660145Y-77304637D01*
X124650000Y-77280084D01*
X124650000Y-73850554D01*
X124659855Y-73826821D01*
X124660145Y-73494637D01*
X124650000Y-73470084D01*
X124650000Y-70040554D01*
X124659855Y-70016821D01*
X124660145Y-69684637D01*
X124650000Y-69660084D01*
X124650000Y-66230554D01*
X124659855Y-66206821D01*
X124660145Y-65874637D01*
X124650000Y-65850084D01*
X124650000Y-62420554D01*
X124659855Y-62396821D01*
X124660145Y-62064637D01*
X124650000Y-62040084D01*
X124650000Y-58610554D01*
X124659855Y-58586821D01*
X124660145Y-58254637D01*
X124650000Y-58230084D01*
X124650000Y-54800554D01*
X124659855Y-54776821D01*
X124660145Y-54444637D01*
X124650000Y-54420084D01*
X124650000Y-50990554D01*
X124659855Y-50966821D01*
X124660145Y-50634637D01*
X124533292Y-50327628D01*
X124298607Y-50092534D01*
X123991821Y-49965145D01*
X123659637Y-49964855D01*
X123352628Y-50091708D01*
X123117534Y-50326393D01*
X122990145Y-50633179D01*
X122989855Y-50965363D01*
X118351040Y-50965363D01*
X118351040Y-49784000D01*
X118306762Y-49548683D01*
X118167690Y-49332559D01*
X117955490Y-49187569D01*
X117703600Y-49136560D01*
X115976400Y-49136560D01*
X115741083Y-49180838D01*
X115524959Y-49319910D01*
X115379969Y-49532110D01*
X115360768Y-49626927D01*
X115202036Y-49449268D01*
X114674791Y-49195291D01*
X114659026Y-49192642D01*
X114427000Y-49313783D01*
X114173000Y-49313783D01*
X113940974Y-49192642D01*
X113925209Y-49195291D01*
X113397964Y-49449268D01*
X113026461Y-49865069D01*
X112819670Y-49555585D01*
X112333489Y-49230729D01*
X111760000Y-49116655D01*
X111186511Y-49230729D01*
X110700330Y-49555585D01*
X110490000Y-49870366D01*
X110279670Y-49555585D01*
X109793489Y-49230729D01*
X109220000Y-49116655D01*
X108646511Y-49230729D01*
X108160330Y-49555585D01*
X107950000Y-49870366D01*
X107739670Y-49555585D01*
X107253489Y-49230729D01*
X106680000Y-49116655D01*
X106106511Y-49230729D01*
X105620330Y-49555585D01*
X105295474Y-50041766D01*
X105181400Y-50615255D01*
X100522137Y-50615255D01*
X100403292Y-50327628D01*
X100168607Y-50092534D01*
X99861821Y-49965145D01*
X99529637Y-49964855D01*
X99222628Y-50091708D01*
X98987534Y-50326393D01*
X98860145Y-50633179D01*
X98859855Y-50965363D01*
X89610000Y-50965363D01*
X89610000Y-48970000D01*
X133910000Y-48970000D01*
X133910000Y-79300000D01*
X133910000Y-79300000D01*
G37*
X133910000Y-79300000D02*
X89610000Y-79300000D01*
X89610000Y-50965363D01*
X98859855Y-50965363D01*
X98870000Y-50989916D01*
X98870000Y-54419446D01*
X98860145Y-54443179D01*
X98859855Y-54775363D01*
X98870000Y-54799916D01*
X98870000Y-58229446D01*
X98860145Y-58253179D01*
X98859855Y-58585363D01*
X98870000Y-58609916D01*
X98870000Y-62039446D01*
X98860145Y-62063179D01*
X98859855Y-62395363D01*
X98870000Y-62419916D01*
X98870000Y-65849446D01*
X98860145Y-65873179D01*
X98859855Y-66205363D01*
X98870000Y-66229916D01*
X98870000Y-69659446D01*
X98860145Y-69683179D01*
X98859855Y-70015363D01*
X98870000Y-70039916D01*
X98870000Y-73469446D01*
X98860145Y-73493179D01*
X98859855Y-73825363D01*
X98870000Y-73849916D01*
X98870000Y-77279446D01*
X98860145Y-77303179D01*
X98859855Y-77635363D01*
X98986708Y-77942372D01*
X99221393Y-78177466D01*
X99528179Y-78304855D01*
X99860363Y-78305145D01*
X100167372Y-78178292D01*
X100402466Y-77943607D01*
X100529855Y-77636821D01*
X100530145Y-77304637D01*
X100520000Y-77280084D01*
X100520000Y-73850554D01*
X100529855Y-73826821D01*
X100530145Y-73494637D01*
X100520000Y-73470084D01*
X100520000Y-70040554D01*
X100529855Y-70016821D01*
X100530145Y-69684637D01*
X100520000Y-69660084D01*
X100520000Y-66230554D01*
X100529855Y-66206821D01*
X100530145Y-65874637D01*
X100520000Y-65850084D01*
X100520000Y-62420554D01*
X100529855Y-62396821D01*
X100530145Y-62064637D01*
X100520000Y-62040084D01*
X100520000Y-58610554D01*
X100529855Y-58586821D01*
X100530145Y-58254637D01*
X100520000Y-58230084D01*
X100520000Y-54800554D01*
X100522236Y-54795167D01*
X104982838Y-54795167D01*
X105124883Y-55138943D01*
X105387673Y-55402192D01*
X105731201Y-55544838D01*
X106103167Y-55545162D01*
X106369780Y-55435000D01*
X107124446Y-55435000D01*
X107148179Y-55444855D01*
X107480363Y-55445145D01*
X107787372Y-55318292D01*
X108022466Y-55083607D01*
X108149855Y-54776821D01*
X108150145Y-54444637D01*
X108023292Y-54137628D01*
X107788607Y-53902534D01*
X107481821Y-53775145D01*
X107149637Y-53774855D01*
X107125084Y-53785000D01*
X106369317Y-53785000D01*
X106104799Y-53675162D01*
X105732833Y-53674838D01*
X105389057Y-53816883D01*
X105125808Y-54079673D01*
X104983162Y-54423201D01*
X104982838Y-54795167D01*
X100522236Y-54795167D01*
X100529855Y-54776821D01*
X100530145Y-54444637D01*
X100520000Y-54420084D01*
X100520000Y-50990554D01*
X100529855Y-50966821D01*
X100530145Y-50634637D01*
X100522137Y-50615255D01*
X105181400Y-50615255D01*
X105181400Y-50984745D01*
X105295474Y-51558234D01*
X105620330Y-52044415D01*
X106106511Y-52369271D01*
X106680000Y-52483345D01*
X107253489Y-52369271D01*
X107739670Y-52044415D01*
X107950000Y-51729634D01*
X108160330Y-52044415D01*
X108646511Y-52369271D01*
X109220000Y-52483345D01*
X109793489Y-52369271D01*
X110279670Y-52044415D01*
X110490000Y-51729634D01*
X110700330Y-52044415D01*
X111186511Y-52369271D01*
X111760000Y-52483345D01*
X112333489Y-52369271D01*
X112819670Y-52044415D01*
X113026461Y-51734931D01*
X113397964Y-52150732D01*
X113925209Y-52404709D01*
X113940974Y-52407358D01*
X114173000Y-52286217D01*
X114173000Y-50927000D01*
X114153000Y-50927000D01*
X114153000Y-50673000D01*
X114173000Y-50673000D01*
X114173000Y-49313783D01*
X114427000Y-49313783D01*
X114427000Y-50673000D01*
X114447000Y-50673000D01*
X114447000Y-50927000D01*
X114427000Y-50927000D01*
X114427000Y-52286217D01*
X114659026Y-52407358D01*
X114674791Y-52404709D01*
X115202036Y-52150732D01*
X115358907Y-51975155D01*
X115373238Y-52051317D01*
X115512310Y-52267441D01*
X115724510Y-52412431D01*
X115976400Y-52463440D01*
X117703600Y-52463440D01*
X117938917Y-52419162D01*
X118155041Y-52280090D01*
X118300031Y-52067890D01*
X118351040Y-51816000D01*
X118351040Y-50965363D01*
X122989855Y-50965363D01*
X123000000Y-50989916D01*
X123000000Y-54419446D01*
X122990145Y-54443179D01*
X122989855Y-54775363D01*
X123000000Y-54799916D01*
X123000000Y-58229446D01*
X122990145Y-58253179D01*
X122989855Y-58585363D01*
X123000000Y-58609916D01*
X123000000Y-62039446D01*
X122990145Y-62063179D01*
X122989855Y-62395363D01*
X123000000Y-62419916D01*
X123000000Y-65849446D01*
X122990145Y-65873179D01*
X122989855Y-66205363D01*
X123000000Y-66229916D01*
X123000000Y-69659446D01*
X122990145Y-69683179D01*
X122989855Y-70015363D01*
X123000000Y-70039916D01*
X123000000Y-73469446D01*
X122990145Y-73493179D01*
X122989855Y-73825363D01*
X123000000Y-73849916D01*
X123000000Y-77279446D01*
X122990145Y-77303179D01*
X122989855Y-77635363D01*
X123116708Y-77942372D01*
X123351393Y-78177466D01*
X123658179Y-78304855D01*
X123990363Y-78305145D01*
X124297372Y-78178292D01*
X124532466Y-77943607D01*
X124659855Y-77636821D01*
X124660145Y-77304637D01*
X124650000Y-77280084D01*
X124650000Y-73850554D01*
X124659855Y-73826821D01*
X124660145Y-73494637D01*
X124650000Y-73470084D01*
X124650000Y-70040554D01*
X124659855Y-70016821D01*
X124660145Y-69684637D01*
X124650000Y-69660084D01*
X124650000Y-66230554D01*
X124659855Y-66206821D01*
X124660145Y-65874637D01*
X124650000Y-65850084D01*
X124650000Y-62420554D01*
X124659855Y-62396821D01*
X124660145Y-62064637D01*
X124650000Y-62040084D01*
X124650000Y-58610554D01*
X124659855Y-58586821D01*
X124660145Y-58254637D01*
X124650000Y-58230084D01*
X124650000Y-54800554D01*
X124659855Y-54776821D01*
X124660145Y-54444637D01*
X124650000Y-54420084D01*
X124650000Y-50990554D01*
X124659855Y-50966821D01*
X124660145Y-50634637D01*
X124533292Y-50327628D01*
X124298607Y-50092534D01*
X123991821Y-49965145D01*
X123659637Y-49964855D01*
X123352628Y-50091708D01*
X123117534Y-50326393D01*
X122990145Y-50633179D01*
X122989855Y-50965363D01*
X118351040Y-50965363D01*
X118351040Y-49784000D01*
X118306762Y-49548683D01*
X118167690Y-49332559D01*
X117955490Y-49187569D01*
X117703600Y-49136560D01*
X115976400Y-49136560D01*
X115741083Y-49180838D01*
X115524959Y-49319910D01*
X115379969Y-49532110D01*
X115360768Y-49626927D01*
X115202036Y-49449268D01*
X114674791Y-49195291D01*
X114659026Y-49192642D01*
X114427000Y-49313783D01*
X114173000Y-49313783D01*
X113940974Y-49192642D01*
X113925209Y-49195291D01*
X113397964Y-49449268D01*
X113026461Y-49865069D01*
X112819670Y-49555585D01*
X112333489Y-49230729D01*
X111760000Y-49116655D01*
X111186511Y-49230729D01*
X110700330Y-49555585D01*
X110490000Y-49870366D01*
X110279670Y-49555585D01*
X109793489Y-49230729D01*
X109220000Y-49116655D01*
X108646511Y-49230729D01*
X108160330Y-49555585D01*
X107950000Y-49870366D01*
X107739670Y-49555585D01*
X107253489Y-49230729D01*
X106680000Y-49116655D01*
X106106511Y-49230729D01*
X105620330Y-49555585D01*
X105295474Y-50041766D01*
X105181400Y-50615255D01*
X100522137Y-50615255D01*
X100403292Y-50327628D01*
X100168607Y-50092534D01*
X99861821Y-49965145D01*
X99529637Y-49964855D01*
X99222628Y-50091708D01*
X98987534Y-50326393D01*
X98860145Y-50633179D01*
X98859855Y-50965363D01*
X89610000Y-50965363D01*
X89610000Y-48970000D01*
X133910000Y-48970000D01*
X133910000Y-79300000D01*
M02*
