G04                                                      *
G04 Greetings!                                           *
G04 This Gerber was generated by PCBmodE, an open source *
G04 PCB design software. Get it here:                    *
G04                                                      *
G04   http://pcbmode.com                                 *
G04                                                      *
G04 Also visit                                           *
G04                                                      *
G04   http://boldport.com                                *
G04                                                      *
G04 and follow @boldport / @pcbmode for updates!         *
G04                                                      *

G04 leading zeros omitted (L); absolute data (A); 6 integer digits and 6 fractional digits *
%FSLAX66Y66*%

G04 mode (MO): millimeters (MM) *
%MOMM*%

G04 Aperture definitions *
%ADD10C,0.001X*%
%ADD11C,0.001X*%

%LPD*%
G36*
G01X4287177Y-22559969D02*
G01X4287177Y-22559969D01*
G01X4246687Y-22516772D01*
G01X4209572Y-22471646D01*
G01X4175830Y-22424760D01*
G01X4145463Y-22376280D01*
G01X4118470Y-22326374D01*
G01X4094851Y-22275211D01*
G01X4074607Y-22222958D01*
G01X4057736Y-22169782D01*
G01X4044239Y-22115851D01*
G01X4034117Y-22061334D01*
G01X4027369Y-22006397D01*
G01X4023995Y-21951209D01*
G01X4023995Y-21895937D01*
G01X4027369Y-21840748D01*
G01X4034117Y-21785811D01*
G01X4044239Y-21731294D01*
G01X4057736Y-21677363D01*
G01X4074607Y-21624187D01*
G01X4094851Y-21571934D01*
G01X4118470Y-21520771D01*
G01X4145463Y-21470865D01*
G01X4175830Y-21422386D01*
G01X4209572Y-21375499D01*
G01X4246687Y-21330373D01*
G01X4287177Y-21287177D01*
G01X4287177Y-21287177D01*
G01X4287177Y-21287177D01*
G01X4330374Y-21246687D01*
G01X4375499Y-21209572D01*
G01X4422386Y-21175830D01*
G01X4470866Y-21145463D01*
G01X4520771Y-21118470D01*
G01X4571934Y-21094851D01*
G01X4624188Y-21074606D01*
G01X4677364Y-21057736D01*
G01X4731294Y-21044239D01*
G01X4785812Y-21034117D01*
G01X4840748Y-21027369D01*
G01X4895937Y-21023994D01*
G01X4951209Y-21023994D01*
G01X5006397Y-21027369D01*
G01X5061334Y-21034117D01*
G01X5115852Y-21044239D01*
G01X5169782Y-21057736D01*
G01X5222958Y-21074606D01*
G01X5275211Y-21094851D01*
G01X5326375Y-21118470D01*
G01X5376280Y-21145463D01*
G01X5424760Y-21175830D01*
G01X5471647Y-21209572D01*
G01X5516772Y-21246687D01*
G01X5559969Y-21287177D01*
G01X5559969Y-21287177D01*
G01X5559969Y-21287177D01*
G01X5600459Y-21330373D01*
G01X5637574Y-21375499D01*
G01X5671315Y-21422386D01*
G01X5701682Y-21470865D01*
G01X5728675Y-21520771D01*
G01X5752294Y-21571934D01*
G01X5772539Y-21624187D01*
G01X5789410Y-21677363D01*
G01X5802906Y-21731294D01*
G01X5813029Y-21785811D01*
G01X5819777Y-21840748D01*
G01X5823151Y-21895937D01*
G01X5823151Y-21951209D01*
G01X5819777Y-22006397D01*
G01X5813029Y-22061334D01*
G01X5802906Y-22115851D01*
G01X5789410Y-22169782D01*
G01X5772539Y-22222958D01*
G01X5752294Y-22275211D01*
G01X5728675Y-22326374D01*
G01X5701682Y-22376280D01*
G01X5671315Y-22424760D01*
G01X5637574Y-22471646D01*
G01X5600459Y-22516772D01*
G01X5559969Y-22559969D01*
G01X5559969Y-22559969D01*
G01X5559969Y-22559969D01*
G01X5516772Y-22600458D01*
G01X5471647Y-22637574D01*
G01X5424760Y-22671315D01*
G01X5376280Y-22701682D01*
G01X5326375Y-22728675D01*
G01X5275211Y-22752294D01*
G01X5222958Y-22772539D01*
G01X5169782Y-22789410D01*
G01X5115852Y-22802906D01*
G01X5061334Y-22813029D01*
G01X5006397Y-22819777D01*
G01X4951209Y-22823151D01*
G01X4895937Y-22823151D01*
G01X4840748Y-22819777D01*
G01X4785812Y-22813029D01*
G01X4731294Y-22802906D01*
G01X4677364Y-22789410D01*
G01X4624188Y-22772539D01*
G01X4571934Y-22752294D01*
G01X4520771Y-22728675D01*
G01X4470866Y-22701682D01*
G01X4422386Y-22671315D01*
G01X4375499Y-22637574D01*
G01X4330374Y-22600458D01*
G01X4287177Y-22559969D01*
G01X4287177Y-22559969D01*
G37*
G36*
G01X3763918Y-20763918D02*
G01X4188182Y-20339653D01*
G01X4188182Y-20339653D01*
G01X4219814Y-20302468D01*
G01X4244417Y-20261789D01*
G01X4261991Y-20218489D01*
G01X4272535Y-20173442D01*
G01X4276049Y-20127521D01*
G01X4272535Y-20081601D01*
G01X4261991Y-20036554D01*
G01X4244417Y-19993254D01*
G01X4219814Y-19952575D01*
G01X4188182Y-19915389D01*
G01X4188182Y-19915389D01*
G01X3763918Y-19491125D01*
G01X3339653Y-19066861D01*
G01X3339653Y-19066861D01*
G01X3302468Y-19035229D01*
G01X3261789Y-19010626D01*
G01X3218489Y-18993052D01*
G01X3173442Y-18982508D01*
G01X3127521Y-18978994D01*
G01X3081601Y-18982508D01*
G01X3036554Y-18993052D01*
G01X2993254Y-19010626D01*
G01X2952575Y-19035229D01*
G01X2915389Y-19066861D01*
G01X2915389Y-19066861D01*
G01X2491125Y-19491125D01*
G01X2066861Y-19915389D01*
G01X2066861Y-19915389D01*
G01X2035229Y-19952575D01*
G01X2010626Y-19993254D01*
G01X1993052Y-20036554D01*
G01X1982508Y-20081601D01*
G01X1978994Y-20127521D01*
G01X1982508Y-20173442D01*
G01X1993052Y-20218489D01*
G01X2010626Y-20261789D01*
G01X2035229Y-20302468D01*
G01X2066861Y-20339653D01*
G01X2066861Y-20339653D01*
G01X2491125Y-20763918D01*
G01X2915389Y-21188182D01*
G01X2915389Y-21188182D01*
G01X2952575Y-21219814D01*
G01X2993254Y-21244417D01*
G01X3036554Y-21261991D01*
G01X3081601Y-21272535D01*
G01X3127521Y-21276049D01*
G01X3173442Y-21272535D01*
G01X3218489Y-21261991D01*
G01X3261789Y-21244417D01*
G01X3302468Y-21219814D01*
G01X3339653Y-21188182D01*
G01X3339653Y-21188182D01*
G01X3763918Y-20763918D01*
G37*
G36*
G01X11255547Y-2725547D02*
G01X11255547Y-2725547D01*
G01X11198136Y-2723227D01*
G01X11142004Y-2716385D01*
G01X11087329Y-2705203D01*
G01X11034293Y-2689861D01*
G01X10983076Y-2670538D01*
G01X10933857Y-2647414D01*
G01X10886817Y-2620671D01*
G01X10842136Y-2590488D01*
G01X10799995Y-2557045D01*
G01X10760572Y-2520522D01*
G01X10724050Y-2481100D01*
G01X10690607Y-2438958D01*
G01X10660423Y-2394277D01*
G01X10633680Y-2347237D01*
G01X10610557Y-2298019D01*
G01X10591234Y-2246801D01*
G01X10575891Y-2193765D01*
G01X10564709Y-2139091D01*
G01X10557868Y-2082958D01*
G01X10555547Y-2025547D01*
G01X10555547Y-2025547D01*
G01X10555547Y-2025547D01*
G01X10557868Y-1968136D01*
G01X10564709Y-1912004D01*
G01X10575891Y-1857329D01*
G01X10591234Y-1804293D01*
G01X10610557Y-1753076D01*
G01X10633680Y-1703857D01*
G01X10660423Y-1656817D01*
G01X10690607Y-1612136D01*
G01X10724050Y-1569995D01*
G01X10760572Y-1530572D01*
G01X10799995Y-1494050D01*
G01X10842136Y-1460607D01*
G01X10886817Y-1430423D01*
G01X10933857Y-1403680D01*
G01X10983076Y-1380557D01*
G01X11034293Y-1361234D01*
G01X11087329Y-1345891D01*
G01X11142004Y-1334709D01*
G01X11198136Y-1327868D01*
G01X11255547Y-1325547D01*
G01X11255547Y-1325547D01*
G01X11255547Y-1325547D01*
G01X11312958Y-1327868D01*
G01X11369091Y-1334709D01*
G01X11423765Y-1345891D01*
G01X11476801Y-1361234D01*
G01X11528019Y-1380557D01*
G01X11577237Y-1403680D01*
G01X11624277Y-1430423D01*
G01X11668958Y-1460607D01*
G01X11711100Y-1494050D01*
G01X11750522Y-1530572D01*
G01X11787045Y-1569995D01*
G01X11820488Y-1612136D01*
G01X11850671Y-1656817D01*
G01X11877414Y-1703857D01*
G01X11900538Y-1753076D01*
G01X11919861Y-1804293D01*
G01X11935203Y-1857329D01*
G01X11946385Y-1912004D01*
G01X11953227Y-1968136D01*
G01X11955547Y-2025547D01*
G01X11955547Y-2025547D01*
G01X11955547Y-2025547D01*
G01X11953227Y-2082958D01*
G01X11946385Y-2139091D01*
G01X11935203Y-2193765D01*
G01X11919861Y-2246801D01*
G01X11900538Y-2298019D01*
G01X11877414Y-2347237D01*
G01X11850671Y-2394277D01*
G01X11820488Y-2438958D01*
G01X11787045Y-2481100D01*
G01X11750522Y-2520522D01*
G01X11711100Y-2557045D01*
G01X11668958Y-2590488D01*
G01X11624277Y-2620671D01*
G01X11577237Y-2647414D01*
G01X11528019Y-2670538D01*
G01X11476801Y-2689861D01*
G01X11423765Y-2705203D01*
G01X11369091Y-2716385D01*
G01X11312958Y-2723227D01*
G01X11255547Y-2725547D01*
G01X11255547Y-2725547D01*
G37*
G36*
G01X13795547Y-2725547D02*
G01X13795547Y-2725547D01*
G01X13738136Y-2723227D01*
G01X13682004Y-2716385D01*
G01X13627329Y-2705203D01*
G01X13574293Y-2689861D01*
G01X13523076Y-2670538D01*
G01X13473857Y-2647414D01*
G01X13426817Y-2620671D01*
G01X13382136Y-2590488D01*
G01X13339995Y-2557045D01*
G01X13300572Y-2520522D01*
G01X13264050Y-2481100D01*
G01X13230607Y-2438958D01*
G01X13200423Y-2394277D01*
G01X13173680Y-2347237D01*
G01X13150557Y-2298019D01*
G01X13131234Y-2246801D01*
G01X13115891Y-2193765D01*
G01X13104709Y-2139091D01*
G01X13097868Y-2082958D01*
G01X13095547Y-2025547D01*
G01X13095547Y-2025547D01*
G01X13095547Y-2025547D01*
G01X13097868Y-1968136D01*
G01X13104709Y-1912004D01*
G01X13115891Y-1857329D01*
G01X13131234Y-1804293D01*
G01X13150557Y-1753076D01*
G01X13173680Y-1703857D01*
G01X13200423Y-1656817D01*
G01X13230607Y-1612136D01*
G01X13264050Y-1569995D01*
G01X13300572Y-1530572D01*
G01X13339995Y-1494050D01*
G01X13382136Y-1460607D01*
G01X13426817Y-1430423D01*
G01X13473857Y-1403680D01*
G01X13523076Y-1380557D01*
G01X13574293Y-1361234D01*
G01X13627329Y-1345891D01*
G01X13682004Y-1334709D01*
G01X13738136Y-1327868D01*
G01X13795547Y-1325547D01*
G01X13795547Y-1325547D01*
G01X13795547Y-1325547D01*
G01X13852958Y-1327868D01*
G01X13909091Y-1334709D01*
G01X13963765Y-1345891D01*
G01X14016801Y-1361234D01*
G01X14068019Y-1380557D01*
G01X14117237Y-1403680D01*
G01X14164277Y-1430423D01*
G01X14208958Y-1460607D01*
G01X14251100Y-1494050D01*
G01X14290522Y-1530572D01*
G01X14327045Y-1569995D01*
G01X14360488Y-1612136D01*
G01X14390671Y-1656817D01*
G01X14417414Y-1703857D01*
G01X14440538Y-1753076D01*
G01X14459861Y-1804293D01*
G01X14475203Y-1857329D01*
G01X14486385Y-1912004D01*
G01X14493227Y-1968136D01*
G01X14495547Y-2025547D01*
G01X14495547Y-2025547D01*
G01X14495547Y-2025547D01*
G01X14493227Y-2082958D01*
G01X14486385Y-2139091D01*
G01X14475203Y-2193765D01*
G01X14459861Y-2246801D01*
G01X14440538Y-2298019D01*
G01X14417414Y-2347237D01*
G01X14390671Y-2394277D01*
G01X14360488Y-2438958D01*
G01X14327045Y-2481100D01*
G01X14290522Y-2520522D01*
G01X14251100Y-2557045D01*
G01X14208958Y-2590488D01*
G01X14164277Y-2620671D01*
G01X14117237Y-2647414D01*
G01X14068019Y-2670538D01*
G01X14016801Y-2689861D01*
G01X13963765Y-2705203D01*
G01X13909091Y-2716385D01*
G01X13852958Y-2723227D01*
G01X13795547Y-2725547D01*
G01X13795547Y-2725547D01*
G37*
G36*
G01X15734521Y-6316573D02*
G01X15734521Y-6316573D01*
G01X15695566Y-6274337D01*
G01X15660712Y-6229808D01*
G01X15629958Y-6183240D01*
G01X15603305Y-6134889D01*
G01X15580752Y-6085009D01*
G01X15562300Y-6033856D01*
G01X15547948Y-5981683D01*
G01X15537697Y-5928746D01*
G01X15531546Y-5875300D01*
G01X15529496Y-5821599D01*
G01X15531546Y-5767897D01*
G01X15537697Y-5714451D01*
G01X15547948Y-5661514D01*
G01X15562300Y-5609341D01*
G01X15580752Y-5558188D01*
G01X15603305Y-5508308D01*
G01X15629958Y-5459957D01*
G01X15660712Y-5413390D01*
G01X15695566Y-5368860D01*
G01X15734521Y-5326624D01*
G01X15734521Y-5326624D01*
G01X15734521Y-5326624D01*
G01X15776757Y-5287669D01*
G01X15821287Y-5252815D01*
G01X15867854Y-5222061D01*
G01X15916205Y-5195408D01*
G01X15966085Y-5172855D01*
G01X16017239Y-5154403D01*
G01X16069411Y-5140051D01*
G01X16122348Y-5129800D01*
G01X16175794Y-5123649D01*
G01X16229496Y-5121599D01*
G01X16283197Y-5123649D01*
G01X16336643Y-5129800D01*
G01X16389580Y-5140051D01*
G01X16441753Y-5154403D01*
G01X16492906Y-5172855D01*
G01X16542786Y-5195408D01*
G01X16591137Y-5222061D01*
G01X16637705Y-5252815D01*
G01X16682234Y-5287669D01*
G01X16724470Y-5326624D01*
G01X16724470Y-5326624D01*
G01X16724470Y-5326624D01*
G01X16763425Y-5368860D01*
G01X16798280Y-5413390D01*
G01X16829033Y-5459957D01*
G01X16855687Y-5508308D01*
G01X16878239Y-5558188D01*
G01X16896692Y-5609341D01*
G01X16911043Y-5661514D01*
G01X16921295Y-5714451D01*
G01X16927445Y-5767897D01*
G01X16929496Y-5821599D01*
G01X16927445Y-5875300D01*
G01X16921295Y-5928746D01*
G01X16911043Y-5981683D01*
G01X16896692Y-6033856D01*
G01X16878239Y-6085009D01*
G01X16855687Y-6134889D01*
G01X16829033Y-6183240D01*
G01X16798280Y-6229808D01*
G01X16763425Y-6274337D01*
G01X16724470Y-6316573D01*
G01X16724470Y-6316573D01*
G01X16724470Y-6316573D01*
G01X16682234Y-6355528D01*
G01X16637705Y-6390382D01*
G01X16591137Y-6421136D01*
G01X16542786Y-6447790D01*
G01X16492906Y-6470342D01*
G01X16441753Y-6488795D01*
G01X16389580Y-6503146D01*
G01X16336643Y-6513398D01*
G01X16283197Y-6519548D01*
G01X16229496Y-6521599D01*
G01X16175794Y-6519548D01*
G01X16122348Y-6513398D01*
G01X16069411Y-6503146D01*
G01X16017239Y-6488795D01*
G01X15966085Y-6470342D01*
G01X15916205Y-6447790D01*
G01X15867854Y-6421136D01*
G01X15821287Y-6390382D01*
G01X15776757Y-6355528D01*
G01X15734521Y-6316573D01*
G01X15734521Y-6316573D01*
G37*
G36*
G01X19326623Y-2724471D02*
G01X19326623Y-2724471D01*
G01X19287669Y-2682234D01*
G01X19252814Y-2637705D01*
G01X19222060Y-2591137D01*
G01X19195407Y-2542786D01*
G01X19172854Y-2492907D01*
G01X19154402Y-2441753D01*
G01X19140050Y-2389581D01*
G01X19129799Y-2336644D01*
G01X19123648Y-2283197D01*
G01X19121598Y-2229496D01*
G01X19123648Y-2175795D01*
G01X19129799Y-2122349D01*
G01X19140050Y-2069412D01*
G01X19154402Y-2017239D01*
G01X19172854Y-1966086D01*
G01X19195407Y-1916206D01*
G01X19222060Y-1867855D01*
G01X19252814Y-1821287D01*
G01X19287669Y-1776758D01*
G01X19326623Y-1734521D01*
G01X19326623Y-1734521D01*
G01X19326623Y-1734521D01*
G01X19368860Y-1695567D01*
G01X19413389Y-1660712D01*
G01X19459957Y-1629959D01*
G01X19508308Y-1603305D01*
G01X19558187Y-1580753D01*
G01X19609341Y-1562300D01*
G01X19661514Y-1547948D01*
G01X19714450Y-1537697D01*
G01X19767897Y-1531546D01*
G01X19821598Y-1529496D01*
G01X19875299Y-1531546D01*
G01X19928746Y-1537697D01*
G01X19981683Y-1547948D01*
G01X20033855Y-1562300D01*
G01X20085009Y-1580753D01*
G01X20134888Y-1603305D01*
G01X20183239Y-1629959D01*
G01X20229807Y-1660712D01*
G01X20274336Y-1695567D01*
G01X20316573Y-1734521D01*
G01X20316573Y-1734521D01*
G01X20316573Y-1734521D01*
G01X20355528Y-1776758D01*
G01X20390382Y-1821287D01*
G01X20421136Y-1867855D01*
G01X20447789Y-1916206D01*
G01X20470342Y-1966086D01*
G01X20488794Y-2017239D01*
G01X20503146Y-2069412D01*
G01X20513397Y-2122349D01*
G01X20519548Y-2175795D01*
G01X20521598Y-2229496D01*
G01X20519548Y-2283197D01*
G01X20513397Y-2336644D01*
G01X20503146Y-2389581D01*
G01X20488794Y-2441753D01*
G01X20470342Y-2492907D01*
G01X20447789Y-2542786D01*
G01X20421136Y-2591137D01*
G01X20390382Y-2637705D01*
G01X20355528Y-2682234D01*
G01X20316573Y-2724471D01*
G01X20316573Y-2724471D01*
G01X20316573Y-2724471D01*
G01X20274336Y-2763426D01*
G01X20229807Y-2798280D01*
G01X20183239Y-2829034D01*
G01X20134888Y-2855687D01*
G01X20085009Y-2878240D01*
G01X20033855Y-2896692D01*
G01X19981683Y-2911044D01*
G01X19928746Y-2921295D01*
G01X19875299Y-2927446D01*
G01X19821598Y-2929496D01*
G01X19767897Y-2927446D01*
G01X19714450Y-2921295D01*
G01X19661514Y-2911044D01*
G01X19609341Y-2896692D01*
G01X19558187Y-2878240D01*
G01X19508308Y-2855687D01*
G01X19459957Y-2829034D01*
G01X19413389Y-2798280D01*
G01X19368860Y-2763426D01*
G01X19326623Y-2724471D01*
G01X19326623Y-2724471D01*
G37*
G36*
G01X8715547Y-15635547D02*
G01X8265547Y-15635547D01*
G01X8265547Y-15635547D01*
G01X8213213Y-15641033D01*
G01X8164661Y-15656739D01*
G01X8121021Y-15681532D01*
G01X8083425Y-15714282D01*
G01X8053003Y-15753858D01*
G01X8030886Y-15799130D01*
G01X8018204Y-15848966D01*
G01X8015547Y-15885547D01*
G01X8015547Y-16335547D01*
G01X8015547Y-16785547D01*
G01X8015547Y-16785547D01*
G01X8021033Y-16837881D01*
G01X8036739Y-16886433D01*
G01X8061532Y-16930073D01*
G01X8094282Y-16967669D01*
G01X8133858Y-16998091D01*
G01X8179130Y-17020209D01*
G01X8228966Y-17032890D01*
G01X8265547Y-17035547D01*
G01X8715547Y-17035547D01*
G01X9165547Y-17035547D01*
G01X9165547Y-17035547D01*
G01X9217881Y-17030061D01*
G01X9266433Y-17014356D01*
G01X9310073Y-16989563D01*
G01X9347669Y-16956813D01*
G01X9378091Y-16917236D01*
G01X9400209Y-16871965D01*
G01X9412890Y-16822129D01*
G01X9415547Y-16785547D01*
G01X9415547Y-16335547D01*
G01X9415547Y-15885547D01*
G01X9415547Y-15885547D01*
G01X9410061Y-15833213D01*
G01X9394356Y-15784661D01*
G01X9369563Y-15741021D01*
G01X9336813Y-15703425D01*
G01X9297236Y-15673003D01*
G01X9251965Y-15650886D01*
G01X9202129Y-15638204D01*
G01X9165547Y-15635547D01*
G01X8715547Y-15635547D01*
G37*
G36*
G01X8015547Y-11255547D02*
G01X8015547Y-11255547D01*
G01X8017868Y-11198136D01*
G01X8024709Y-11142004D01*
G01X8035891Y-11087329D01*
G01X8051234Y-11034293D01*
G01X8070557Y-10983076D01*
G01X8093680Y-10933857D01*
G01X8120423Y-10886817D01*
G01X8150607Y-10842136D01*
G01X8184050Y-10799995D01*
G01X8220572Y-10760572D01*
G01X8259995Y-10724050D01*
G01X8302136Y-10690607D01*
G01X8346817Y-10660423D01*
G01X8393857Y-10633680D01*
G01X8443076Y-10610557D01*
G01X8494293Y-10591234D01*
G01X8547329Y-10575891D01*
G01X8602004Y-10564709D01*
G01X8658136Y-10557868D01*
G01X8715547Y-10555547D01*
G01X8715547Y-10555547D01*
G01X8715547Y-10555547D01*
G01X8772958Y-10557868D01*
G01X8829091Y-10564709D01*
G01X8883765Y-10575891D01*
G01X8936801Y-10591234D01*
G01X8988019Y-10610557D01*
G01X9037237Y-10633680D01*
G01X9084277Y-10660423D01*
G01X9128958Y-10690607D01*
G01X9171100Y-10724050D01*
G01X9210522Y-10760572D01*
G01X9247045Y-10799995D01*
G01X9280488Y-10842136D01*
G01X9310671Y-10886817D01*
G01X9337414Y-10933857D01*
G01X9360538Y-10983076D01*
G01X9379861Y-11034293D01*
G01X9395203Y-11087329D01*
G01X9406385Y-11142004D01*
G01X9413227Y-11198136D01*
G01X9415547Y-11255547D01*
G01X9415547Y-11255547D01*
G01X9415547Y-11255547D01*
G01X9413227Y-11312958D01*
G01X9406385Y-11369091D01*
G01X9395203Y-11423765D01*
G01X9379861Y-11476801D01*
G01X9360538Y-11528019D01*
G01X9337414Y-11577237D01*
G01X9310671Y-11624277D01*
G01X9280488Y-11668958D01*
G01X9247045Y-11711100D01*
G01X9210522Y-11750522D01*
G01X9171100Y-11787045D01*
G01X9128958Y-11820488D01*
G01X9084277Y-11850671D01*
G01X9037237Y-11877414D01*
G01X8988019Y-11900538D01*
G01X8936801Y-11919861D01*
G01X8883765Y-11935203D01*
G01X8829091Y-11946385D01*
G01X8772958Y-11953227D01*
G01X8715547Y-11955547D01*
G01X8715547Y-11955547D01*
G01X8715547Y-11955547D01*
G01X8658136Y-11953227D01*
G01X8602004Y-11946385D01*
G01X8547329Y-11935203D01*
G01X8494293Y-11919861D01*
G01X8443076Y-11900538D01*
G01X8393857Y-11877414D01*
G01X8346817Y-11850671D01*
G01X8302136Y-11820488D01*
G01X8259995Y-11787045D01*
G01X8220572Y-11750522D01*
G01X8184050Y-11711100D01*
G01X8150607Y-11668958D01*
G01X8120423Y-11624277D01*
G01X8093680Y-11577237D01*
G01X8070557Y-11528019D01*
G01X8051234Y-11476801D01*
G01X8035891Y-11423765D01*
G01X8024709Y-11369091D01*
G01X8017868Y-11312958D01*
G01X8015547Y-11255547D01*
G01X8015547Y-11255547D01*
G37*
G36*
G01X8015547Y-13795547D02*
G01X8015547Y-13795547D01*
G01X8017868Y-13738136D01*
G01X8024709Y-13682004D01*
G01X8035891Y-13627329D01*
G01X8051234Y-13574293D01*
G01X8070557Y-13523076D01*
G01X8093680Y-13473857D01*
G01X8120423Y-13426817D01*
G01X8150607Y-13382136D01*
G01X8184050Y-13339995D01*
G01X8220572Y-13300572D01*
G01X8259995Y-13264050D01*
G01X8302136Y-13230607D01*
G01X8346817Y-13200423D01*
G01X8393857Y-13173680D01*
G01X8443076Y-13150557D01*
G01X8494293Y-13131234D01*
G01X8547329Y-13115891D01*
G01X8602004Y-13104709D01*
G01X8658136Y-13097868D01*
G01X8715547Y-13095547D01*
G01X8715547Y-13095547D01*
G01X8715547Y-13095547D01*
G01X8772958Y-13097868D01*
G01X8829091Y-13104709D01*
G01X8883765Y-13115891D01*
G01X8936801Y-13131234D01*
G01X8988019Y-13150557D01*
G01X9037237Y-13173680D01*
G01X9084277Y-13200423D01*
G01X9128958Y-13230607D01*
G01X9171100Y-13264050D01*
G01X9210522Y-13300572D01*
G01X9247045Y-13339995D01*
G01X9280488Y-13382136D01*
G01X9310671Y-13426817D01*
G01X9337414Y-13473857D01*
G01X9360538Y-13523076D01*
G01X9379861Y-13574293D01*
G01X9395203Y-13627329D01*
G01X9406385Y-13682004D01*
G01X9413227Y-13738136D01*
G01X9415547Y-13795547D01*
G01X9415547Y-13795547D01*
G01X9415547Y-13795547D01*
G01X9413227Y-13852958D01*
G01X9406385Y-13909091D01*
G01X9395203Y-13963765D01*
G01X9379861Y-14016801D01*
G01X9360538Y-14068019D01*
G01X9337414Y-14117237D01*
G01X9310671Y-14164277D01*
G01X9280488Y-14208958D01*
G01X9247045Y-14251100D01*
G01X9210522Y-14290522D01*
G01X9171100Y-14327045D01*
G01X9128958Y-14360488D01*
G01X9084277Y-14390671D01*
G01X9037237Y-14417414D01*
G01X8988019Y-14440538D01*
G01X8936801Y-14459861D01*
G01X8883765Y-14475203D01*
G01X8829091Y-14486385D01*
G01X8772958Y-14493227D01*
G01X8715547Y-14495547D01*
G01X8715547Y-14495547D01*
G01X8715547Y-14495547D01*
G01X8658136Y-14493227D01*
G01X8602004Y-14486385D01*
G01X8547329Y-14475203D01*
G01X8494293Y-14459861D01*
G01X8443076Y-14440538D01*
G01X8393857Y-14417414D01*
G01X8346817Y-14390671D01*
G01X8302136Y-14360488D01*
G01X8259995Y-14327045D01*
G01X8220572Y-14290522D01*
G01X8184050Y-14251100D01*
G01X8150607Y-14208958D01*
G01X8120423Y-14164277D01*
G01X8093680Y-14117237D01*
G01X8070557Y-14068019D01*
G01X8051234Y-14016801D01*
G01X8035891Y-13963765D01*
G01X8024709Y-13909091D01*
G01X8017868Y-13852958D01*
G01X8015547Y-13795547D01*
G01X8015547Y-13795547D01*
G37*
G36*
G01X15635547Y-8715547D02*
G01X15635547Y-8715547D01*
G01X15637868Y-8658136D01*
G01X15644709Y-8602004D01*
G01X15655891Y-8547329D01*
G01X15671234Y-8494293D01*
G01X15690557Y-8443076D01*
G01X15713680Y-8393857D01*
G01X15740423Y-8346817D01*
G01X15770607Y-8302136D01*
G01X15804050Y-8259995D01*
G01X15840572Y-8220572D01*
G01X15879995Y-8184050D01*
G01X15922136Y-8150607D01*
G01X15966817Y-8120423D01*
G01X16013857Y-8093680D01*
G01X16063076Y-8070557D01*
G01X16114293Y-8051234D01*
G01X16167329Y-8035891D01*
G01X16222004Y-8024709D01*
G01X16278136Y-8017868D01*
G01X16335547Y-8015547D01*
G01X16335547Y-8015547D01*
G01X16335547Y-8015547D01*
G01X16392958Y-8017868D01*
G01X16449091Y-8024709D01*
G01X16503765Y-8035891D01*
G01X16556801Y-8051234D01*
G01X16608019Y-8070557D01*
G01X16657237Y-8093680D01*
G01X16704277Y-8120423D01*
G01X16748958Y-8150607D01*
G01X16791100Y-8184050D01*
G01X16830522Y-8220572D01*
G01X16867045Y-8259995D01*
G01X16900488Y-8302136D01*
G01X16930671Y-8346817D01*
G01X16957414Y-8393857D01*
G01X16980538Y-8443076D01*
G01X16999861Y-8494293D01*
G01X17015203Y-8547329D01*
G01X17026385Y-8602004D01*
G01X17033227Y-8658136D01*
G01X17035547Y-8715547D01*
G01X17035547Y-8715547D01*
G01X17035547Y-8715547D01*
G01X17033227Y-8772958D01*
G01X17026385Y-8829091D01*
G01X17015203Y-8883765D01*
G01X16999861Y-8936801D01*
G01X16980538Y-8988019D01*
G01X16957414Y-9037237D01*
G01X16930671Y-9084277D01*
G01X16900488Y-9128958D01*
G01X16867045Y-9171100D01*
G01X16830522Y-9210522D01*
G01X16791100Y-9247045D01*
G01X16748958Y-9280488D01*
G01X16704277Y-9310671D01*
G01X16657237Y-9337414D01*
G01X16608019Y-9360538D01*
G01X16556801Y-9379861D01*
G01X16503765Y-9395203D01*
G01X16449091Y-9406385D01*
G01X16392958Y-9413227D01*
G01X16335547Y-9415547D01*
G01X16335547Y-9415547D01*
G01X16335547Y-9415547D01*
G01X16278136Y-9413227D01*
G01X16222004Y-9406385D01*
G01X16167329Y-9395203D01*
G01X16114293Y-9379861D01*
G01X16063076Y-9360538D01*
G01X16013857Y-9337414D01*
G01X15966817Y-9310671D01*
G01X15922136Y-9280488D01*
G01X15879995Y-9247045D01*
G01X15840572Y-9210522D01*
G01X15804050Y-9171100D01*
G01X15770607Y-9128958D01*
G01X15740423Y-9084277D01*
G01X15713680Y-9037237D01*
G01X15690557Y-8988019D01*
G01X15671234Y-8936801D01*
G01X15655891Y-8883765D01*
G01X15644709Y-8829091D01*
G01X15637868Y-8772958D01*
G01X15635547Y-8715547D01*
G01X15635547Y-8715547D01*
G37*
G36*
G01X8015547Y-8715547D02*
G01X8015547Y-8715547D01*
G01X8017868Y-8658136D01*
G01X8024709Y-8602004D01*
G01X8035891Y-8547329D01*
G01X8051234Y-8494293D01*
G01X8070557Y-8443076D01*
G01X8093680Y-8393857D01*
G01X8120423Y-8346817D01*
G01X8150607Y-8302136D01*
G01X8184050Y-8259995D01*
G01X8220572Y-8220572D01*
G01X8259995Y-8184050D01*
G01X8302136Y-8150607D01*
G01X8346817Y-8120423D01*
G01X8393857Y-8093680D01*
G01X8443076Y-8070557D01*
G01X8494293Y-8051234D01*
G01X8547329Y-8035891D01*
G01X8602004Y-8024709D01*
G01X8658136Y-8017868D01*
G01X8715547Y-8015547D01*
G01X8715547Y-8015547D01*
G01X8715547Y-8015547D01*
G01X8772958Y-8017868D01*
G01X8829091Y-8024709D01*
G01X8883765Y-8035891D01*
G01X8936801Y-8051234D01*
G01X8988019Y-8070557D01*
G01X9037237Y-8093680D01*
G01X9084277Y-8120423D01*
G01X9128958Y-8150607D01*
G01X9171100Y-8184050D01*
G01X9210522Y-8220572D01*
G01X9247045Y-8259995D01*
G01X9280488Y-8302136D01*
G01X9310671Y-8346817D01*
G01X9337414Y-8393857D01*
G01X9360538Y-8443076D01*
G01X9379861Y-8494293D01*
G01X9395203Y-8547329D01*
G01X9406385Y-8602004D01*
G01X9413227Y-8658136D01*
G01X9415547Y-8715547D01*
G01X9415547Y-8715547D01*
G01X9415547Y-8715547D01*
G01X9413227Y-8772958D01*
G01X9406385Y-8829091D01*
G01X9395203Y-8883765D01*
G01X9379861Y-8936801D01*
G01X9360538Y-8988019D01*
G01X9337414Y-9037237D01*
G01X9310671Y-9084277D01*
G01X9280488Y-9128958D01*
G01X9247045Y-9171100D01*
G01X9210522Y-9210522D01*
G01X9171100Y-9247045D01*
G01X9128958Y-9280488D01*
G01X9084277Y-9310671D01*
G01X9037237Y-9337414D01*
G01X8988019Y-9360538D01*
G01X8936801Y-9379861D01*
G01X8883765Y-9395203D01*
G01X8829091Y-9406385D01*
G01X8772958Y-9413227D01*
G01X8715547Y-9415547D01*
G01X8715547Y-9415547D01*
G01X8715547Y-9415547D01*
G01X8658136Y-9413227D01*
G01X8602004Y-9406385D01*
G01X8547329Y-9395203D01*
G01X8494293Y-9379861D01*
G01X8443076Y-9360538D01*
G01X8393857Y-9337414D01*
G01X8346817Y-9310671D01*
G01X8302136Y-9280488D01*
G01X8259995Y-9247045D01*
G01X8220572Y-9210522D01*
G01X8184050Y-9171100D01*
G01X8150607Y-9128958D01*
G01X8120423Y-9084277D01*
G01X8093680Y-9037237D01*
G01X8070557Y-8988019D01*
G01X8051234Y-8936801D01*
G01X8035891Y-8883765D01*
G01X8024709Y-8829091D01*
G01X8017868Y-8772958D01*
G01X8015547Y-8715547D01*
G01X8015547Y-8715547D01*
G37*
G36*
G01X15635547Y-13795547D02*
G01X15635547Y-13795547D01*
G01X15637868Y-13738136D01*
G01X15644709Y-13682004D01*
G01X15655891Y-13627329D01*
G01X15671234Y-13574293D01*
G01X15690557Y-13523076D01*
G01X15713680Y-13473857D01*
G01X15740423Y-13426817D01*
G01X15770607Y-13382136D01*
G01X15804050Y-13339995D01*
G01X15840572Y-13300572D01*
G01X15879995Y-13264050D01*
G01X15922136Y-13230607D01*
G01X15966817Y-13200423D01*
G01X16013857Y-13173680D01*
G01X16063076Y-13150557D01*
G01X16114293Y-13131234D01*
G01X16167329Y-13115891D01*
G01X16222004Y-13104709D01*
G01X16278136Y-13097868D01*
G01X16335547Y-13095547D01*
G01X16335547Y-13095547D01*
G01X16335547Y-13095547D01*
G01X16392958Y-13097868D01*
G01X16449091Y-13104709D01*
G01X16503765Y-13115891D01*
G01X16556801Y-13131234D01*
G01X16608019Y-13150557D01*
G01X16657237Y-13173680D01*
G01X16704277Y-13200423D01*
G01X16748958Y-13230607D01*
G01X16791100Y-13264050D01*
G01X16830522Y-13300572D01*
G01X16867045Y-13339995D01*
G01X16900488Y-13382136D01*
G01X16930671Y-13426817D01*
G01X16957414Y-13473857D01*
G01X16980538Y-13523076D01*
G01X16999861Y-13574293D01*
G01X17015203Y-13627329D01*
G01X17026385Y-13682004D01*
G01X17033227Y-13738136D01*
G01X17035547Y-13795547D01*
G01X17035547Y-13795547D01*
G01X17035547Y-13795547D01*
G01X17033227Y-13852958D01*
G01X17026385Y-13909091D01*
G01X17015203Y-13963765D01*
G01X16999861Y-14016801D01*
G01X16980538Y-14068019D01*
G01X16957414Y-14117237D01*
G01X16930671Y-14164277D01*
G01X16900488Y-14208958D01*
G01X16867045Y-14251100D01*
G01X16830522Y-14290522D01*
G01X16791100Y-14327045D01*
G01X16748958Y-14360488D01*
G01X16704277Y-14390671D01*
G01X16657237Y-14417414D01*
G01X16608019Y-14440538D01*
G01X16556801Y-14459861D01*
G01X16503765Y-14475203D01*
G01X16449091Y-14486385D01*
G01X16392958Y-14493227D01*
G01X16335547Y-14495547D01*
G01X16335547Y-14495547D01*
G01X16335547Y-14495547D01*
G01X16278136Y-14493227D01*
G01X16222004Y-14486385D01*
G01X16167329Y-14475203D01*
G01X16114293Y-14459861D01*
G01X16063076Y-14440538D01*
G01X16013857Y-14417414D01*
G01X15966817Y-14390671D01*
G01X15922136Y-14360488D01*
G01X15879995Y-14327045D01*
G01X15840572Y-14290522D01*
G01X15804050Y-14251100D01*
G01X15770607Y-14208958D01*
G01X15740423Y-14164277D01*
G01X15713680Y-14117237D01*
G01X15690557Y-14068019D01*
G01X15671234Y-14016801D01*
G01X15655891Y-13963765D01*
G01X15644709Y-13909091D01*
G01X15637868Y-13852958D01*
G01X15635547Y-13795547D01*
G01X15635547Y-13795547D01*
G37*
G36*
G01X15635547Y-11255547D02*
G01X15635547Y-11255547D01*
G01X15637868Y-11198136D01*
G01X15644709Y-11142004D01*
G01X15655891Y-11087329D01*
G01X15671234Y-11034293D01*
G01X15690557Y-10983076D01*
G01X15713680Y-10933857D01*
G01X15740423Y-10886817D01*
G01X15770607Y-10842136D01*
G01X15804050Y-10799995D01*
G01X15840572Y-10760572D01*
G01X15879995Y-10724050D01*
G01X15922136Y-10690607D01*
G01X15966817Y-10660423D01*
G01X16013857Y-10633680D01*
G01X16063076Y-10610557D01*
G01X16114293Y-10591234D01*
G01X16167329Y-10575891D01*
G01X16222004Y-10564709D01*
G01X16278136Y-10557868D01*
G01X16335547Y-10555547D01*
G01X16335547Y-10555547D01*
G01X16335547Y-10555547D01*
G01X16392958Y-10557868D01*
G01X16449091Y-10564709D01*
G01X16503765Y-10575891D01*
G01X16556801Y-10591234D01*
G01X16608019Y-10610557D01*
G01X16657237Y-10633680D01*
G01X16704277Y-10660423D01*
G01X16748958Y-10690607D01*
G01X16791100Y-10724050D01*
G01X16830522Y-10760572D01*
G01X16867045Y-10799995D01*
G01X16900488Y-10842136D01*
G01X16930671Y-10886817D01*
G01X16957414Y-10933857D01*
G01X16980538Y-10983076D01*
G01X16999861Y-11034293D01*
G01X17015203Y-11087329D01*
G01X17026385Y-11142004D01*
G01X17033227Y-11198136D01*
G01X17035547Y-11255547D01*
G01X17035547Y-11255547D01*
G01X17035547Y-11255547D01*
G01X17033227Y-11312958D01*
G01X17026385Y-11369091D01*
G01X17015203Y-11423765D01*
G01X16999861Y-11476801D01*
G01X16980538Y-11528019D01*
G01X16957414Y-11577237D01*
G01X16930671Y-11624277D01*
G01X16900488Y-11668958D01*
G01X16867045Y-11711100D01*
G01X16830522Y-11750522D01*
G01X16791100Y-11787045D01*
G01X16748958Y-11820488D01*
G01X16704277Y-11850671D01*
G01X16657237Y-11877414D01*
G01X16608019Y-11900538D01*
G01X16556801Y-11919861D01*
G01X16503765Y-11935203D01*
G01X16449091Y-11946385D01*
G01X16392958Y-11953227D01*
G01X16335547Y-11955547D01*
G01X16335547Y-11955547D01*
G01X16335547Y-11955547D01*
G01X16278136Y-11953227D01*
G01X16222004Y-11946385D01*
G01X16167329Y-11935203D01*
G01X16114293Y-11919861D01*
G01X16063076Y-11900538D01*
G01X16013857Y-11877414D01*
G01X15966817Y-11850671D01*
G01X15922136Y-11820488D01*
G01X15879995Y-11787045D01*
G01X15840572Y-11750522D01*
G01X15804050Y-11711100D01*
G01X15770607Y-11668958D01*
G01X15740423Y-11624277D01*
G01X15713680Y-11577237D01*
G01X15690557Y-11528019D01*
G01X15671234Y-11476801D01*
G01X15655891Y-11423765D01*
G01X15644709Y-11369091D01*
G01X15637868Y-11312958D01*
G01X15635547Y-11255547D01*
G01X15635547Y-11255547D01*
G37*
G36*
G01X15635547Y-16335547D02*
G01X15635547Y-16335547D01*
G01X15637868Y-16278136D01*
G01X15644709Y-16222004D01*
G01X15655891Y-16167329D01*
G01X15671234Y-16114293D01*
G01X15690557Y-16063076D01*
G01X15713680Y-16013857D01*
G01X15740423Y-15966817D01*
G01X15770607Y-15922136D01*
G01X15804050Y-15879995D01*
G01X15840572Y-15840572D01*
G01X15879995Y-15804050D01*
G01X15922136Y-15770607D01*
G01X15966817Y-15740423D01*
G01X16013857Y-15713680D01*
G01X16063076Y-15690557D01*
G01X16114293Y-15671234D01*
G01X16167329Y-15655891D01*
G01X16222004Y-15644709D01*
G01X16278136Y-15637868D01*
G01X16335547Y-15635547D01*
G01X16335547Y-15635547D01*
G01X16335547Y-15635547D01*
G01X16392958Y-15637868D01*
G01X16449091Y-15644709D01*
G01X16503765Y-15655891D01*
G01X16556801Y-15671234D01*
G01X16608019Y-15690557D01*
G01X16657237Y-15713680D01*
G01X16704277Y-15740423D01*
G01X16748958Y-15770607D01*
G01X16791100Y-15804050D01*
G01X16830522Y-15840572D01*
G01X16867045Y-15879995D01*
G01X16900488Y-15922136D01*
G01X16930671Y-15966817D01*
G01X16957414Y-16013857D01*
G01X16980538Y-16063076D01*
G01X16999861Y-16114293D01*
G01X17015203Y-16167329D01*
G01X17026385Y-16222004D01*
G01X17033227Y-16278136D01*
G01X17035547Y-16335547D01*
G01X17035547Y-16335547D01*
G01X17035547Y-16335547D01*
G01X17033227Y-16392958D01*
G01X17026385Y-16449091D01*
G01X17015203Y-16503765D01*
G01X16999861Y-16556801D01*
G01X16980538Y-16608019D01*
G01X16957414Y-16657237D01*
G01X16930671Y-16704277D01*
G01X16900488Y-16748958D01*
G01X16867045Y-16791100D01*
G01X16830522Y-16830522D01*
G01X16791100Y-16867045D01*
G01X16748958Y-16900488D01*
G01X16704277Y-16930671D01*
G01X16657237Y-16957414D01*
G01X16608019Y-16980538D01*
G01X16556801Y-16999861D01*
G01X16503765Y-17015203D01*
G01X16449091Y-17026385D01*
G01X16392958Y-17033227D01*
G01X16335547Y-17035547D01*
G01X16335547Y-17035547D01*
G01X16335547Y-17035547D01*
G01X16278136Y-17033227D01*
G01X16222004Y-17026385D01*
G01X16167329Y-17015203D01*
G01X16114293Y-16999861D01*
G01X16063076Y-16980538D01*
G01X16013857Y-16957414D01*
G01X15966817Y-16930671D01*
G01X15922136Y-16900488D01*
G01X15879995Y-16867045D01*
G01X15840572Y-16830522D01*
G01X15804050Y-16791100D01*
G01X15770607Y-16748958D01*
G01X15740423Y-16704277D01*
G01X15713680Y-16657237D01*
G01X15690557Y-16608019D01*
G01X15671234Y-16556801D01*
G01X15655891Y-16503765D01*
G01X15644709Y-16449091D01*
G01X15637868Y-16392958D01*
G01X15635547Y-16335547D01*
G01X15635547Y-16335547D01*
G37*
G36*
G01X11418105Y-22000628D02*
G01X11733572Y-21550094D01*
G01X11733572Y-21550094D01*
G01X11754502Y-21506870D01*
G01X11760677Y-21460927D01*
G01X11752703Y-21415704D01*
G01X11731187Y-21374643D01*
G01X11696736Y-21341185D01*
G01X11696736Y-21341185D01*
G01X11246202Y-21025718D01*
G01X10795669Y-20710251D01*
G01X10795669Y-20710251D01*
G01X10752445Y-20689321D01*
G01X10706501Y-20683146D01*
G01X10661279Y-20691120D01*
G01X10620218Y-20712636D01*
G01X10586759Y-20747087D01*
G01X10586759Y-20747087D01*
G01X10271292Y-21197621D01*
G01X9955825Y-21648154D01*
G01X9955825Y-21648154D01*
G01X9934895Y-21691378D01*
G01X9928720Y-21737321D01*
G01X9936694Y-21782544D01*
G01X9958210Y-21823605D01*
G01X9992662Y-21857063D01*
G01X9992662Y-21857063D01*
G01X10443195Y-22172531D01*
G01X10893729Y-22487998D01*
G01X10893729Y-22487998D01*
G01X10936952Y-22508928D01*
G01X10982896Y-22515102D01*
G01X11028119Y-22507128D01*
G01X11069180Y-22485612D01*
G01X11102638Y-22451161D01*
G01X11102638Y-22451161D01*
G01X11418105Y-22000628D01*
G37*
G36*
G01X8804891Y-21025377D02*
G01X8804891Y-21025377D01*
G01X8759194Y-20990546D01*
G01X8717137Y-20952746D01*
G01X8678764Y-20912226D01*
G01X8644119Y-20869238D01*
G01X8613248Y-20824032D01*
G01X8586193Y-20776860D01*
G01X8563000Y-20727972D01*
G01X8543712Y-20677620D01*
G01X8528373Y-20626053D01*
G01X8517029Y-20573524D01*
G01X8509723Y-20520283D01*
G01X8506500Y-20466580D01*
G01X8507403Y-20412667D01*
G01X8512477Y-20358795D01*
G01X8521766Y-20305215D01*
G01X8535315Y-20252176D01*
G01X8553167Y-20199932D01*
G01X8575367Y-20148731D01*
G01X8601959Y-20098826D01*
G01X8632988Y-20050467D01*
G01X8632988Y-20050467D01*
G01X8632988Y-20050467D01*
G01X8667819Y-20004769D01*
G01X8705619Y-19962712D01*
G01X8746139Y-19924339D01*
G01X8789127Y-19889695D01*
G01X8834333Y-19858823D01*
G01X8881505Y-19831769D01*
G01X8930393Y-19808575D01*
G01X8980745Y-19789287D01*
G01X9032312Y-19773949D01*
G01X9084841Y-19762605D01*
G01X9138082Y-19755299D01*
G01X9191785Y-19752075D01*
G01X9245698Y-19752978D01*
G01X9299570Y-19758052D01*
G01X9353150Y-19767342D01*
G01X9406188Y-19780890D01*
G01X9458433Y-19798743D01*
G01X9509634Y-19820943D01*
G01X9559539Y-19847535D01*
G01X9607898Y-19878564D01*
G01X9607898Y-19878564D01*
G01X9607898Y-19878564D01*
G01X9653595Y-19913394D01*
G01X9695653Y-19951195D01*
G01X9734026Y-19991715D01*
G01X9768670Y-20034703D01*
G01X9799542Y-20079908D01*
G01X9826596Y-20127080D01*
G01X9849790Y-20175968D01*
G01X9869078Y-20226321D01*
G01X9884416Y-20277887D01*
G01X9895760Y-20330417D01*
G01X9903066Y-20383658D01*
G01X9906290Y-20437361D01*
G01X9905387Y-20491273D01*
G01X9900312Y-20545145D01*
G01X9891023Y-20598726D01*
G01X9877475Y-20651764D01*
G01X9859622Y-20704009D01*
G01X9837422Y-20755209D01*
G01X9810830Y-20805115D01*
G01X9779801Y-20853474D01*
G01X9779801Y-20853474D01*
G01X9779801Y-20853474D01*
G01X9744971Y-20899171D01*
G01X9707170Y-20941228D01*
G01X9666650Y-20979601D01*
G01X9623662Y-21014246D01*
G01X9578457Y-21045117D01*
G01X9531284Y-21072172D01*
G01X9482397Y-21095365D01*
G01X9432044Y-21114653D01*
G01X9380478Y-21129991D01*
G01X9327948Y-21141336D01*
G01X9274707Y-21148642D01*
G01X9221004Y-21151865D01*
G01X9167092Y-21150962D01*
G01X9113219Y-21145888D01*
G01X9059639Y-21136599D01*
G01X9006601Y-21123050D01*
G01X8954356Y-21105198D01*
G01X8903156Y-21082998D01*
G01X8853250Y-21056405D01*
G01X8804891Y-21025377D01*
G01X8804891Y-21025377D01*
G37*
G36*
G01X26451094Y-5800000D02*
G01X27651094Y-5800000D01*
G01X27651094Y-7000000D01*
G01X26451094Y-7000000D01*
G01X26451094Y-5800000D01*
G37*
G36*
G01X27901094Y-6179102D02*
G01X27901094Y-6179102D01*
G01X27918965Y-6143946D01*
G01X27918965Y-6143946D01*
G01X27975972Y-6136381D01*
G01X27980196Y-6136329D01*
G01X28014180Y-6136329D01*
G01X28014180Y-6136329D01*
G01X28010689Y-6057561D01*
G01X28007361Y-6010582D01*
G01X28006563Y-6001563D01*
G01X28006563Y-6001563D01*
G01X28046407Y-5998047D01*
G01X28046407Y-5998047D01*
G01X28100678Y-6028967D01*
G01X28103829Y-6043750D01*
G01X28103829Y-6043750D01*
G01X28101204Y-6102063D01*
G01X28099141Y-6137500D01*
G01X28099141Y-6137500D01*
G01X28194905Y-6136493D01*
G01X28257051Y-6134278D01*
G01X28290633Y-6132062D01*
G01X28300704Y-6131055D01*
G01X28300704Y-6131055D01*
G01X28300704Y-6131055D01*
G01X28305391Y-6159180D01*
G01X28305391Y-6159180D01*
G01X28292793Y-6191407D01*
G01X28292793Y-6191407D01*
G01X28252657Y-6200782D01*
G01X28252657Y-6200782D01*
G01X28194712Y-6201601D01*
G01X28129210Y-6201907D01*
G01X28096832Y-6201954D01*
G01X28096797Y-6201954D01*
G01X28096797Y-6201954D01*
G01X28095699Y-6276151D01*
G01X28095012Y-6346828D01*
G01X28094640Y-6407548D01*
G01X28094486Y-6451872D01*
G01X28094454Y-6473362D01*
G01X28094454Y-6474414D01*
G01X28094454Y-6474414D01*
G01X28101379Y-6560115D01*
G01X28113408Y-6601574D01*
G01X28117891Y-6610059D01*
G01X28117891Y-6610059D01*
G01X28172959Y-6640169D01*
G01X28195235Y-6642579D01*
G01X28195235Y-6642579D01*
G01X28259871Y-6622782D01*
G01X28281368Y-6606250D01*
G01X28281368Y-6606250D01*
G01X28303047Y-6649610D01*
G01X28303047Y-6649610D01*
G01X28272315Y-6690166D01*
G01X28271993Y-6690332D01*
G01X28271993Y-6690332D01*
G01X28210285Y-6705194D01*
G01X28196407Y-6705860D01*
G01X28196407Y-6705860D01*
G01X28118135Y-6691983D01*
G01X28072342Y-6665405D01*
G01X28055688Y-6648706D01*
G01X28055489Y-6648438D01*
G01X28055489Y-6648438D01*
G01X28029599Y-6590592D01*
G01X28017699Y-6528545D01*
G01X28014349Y-6484832D01*
G01X28014180Y-6476758D01*
G01X28014180Y-6476758D01*
G01X28015278Y-6369360D01*
G01X28015965Y-6292231D01*
G01X28016338Y-6241250D01*
G01X28016492Y-6212292D01*
G01X28016524Y-6201234D01*
G01X28016524Y-6200782D01*
G01X28016524Y-6200782D01*
G01X27967497Y-6204519D01*
G01X27907649Y-6209325D01*
G01X27904610Y-6209571D01*
G01X27904610Y-6209571D01*
G01X27901094Y-6179102D01*
G37*
G36*
G01X28376876Y-6415821D02*
G01X28376876Y-6415821D01*
G01X28385805Y-6336638D01*
G01X28406455Y-6274311D01*
G01X28429617Y-6230636D01*
G01X28446081Y-6207411D01*
G01X28448946Y-6204004D01*
G01X28448946Y-6204004D01*
G01X28506304Y-6159133D01*
G01X28565687Y-6135270D01*
G01X28613730Y-6125780D01*
G01X28637068Y-6124029D01*
G01X28637618Y-6124024D01*
G01X28637618Y-6124024D01*
G01X28714110Y-6135633D01*
G01X28772568Y-6161616D01*
G01X28810852Y-6188704D01*
G01X28826826Y-6203631D01*
G01X28827168Y-6204004D01*
G01X28827168Y-6204004D01*
G01X28864884Y-6262365D01*
G01X28886341Y-6324049D01*
G01X28896125Y-6377320D01*
G01X28898822Y-6410443D01*
G01X28898946Y-6415821D01*
G01X28898946Y-6415821D01*
G01X28889301Y-6498098D01*
G01X28867355Y-6561712D01*
G01X28843585Y-6604739D01*
G01X28828473Y-6625253D01*
G01X28827168Y-6626758D01*
G01X28827168Y-6626758D01*
G01X28769805Y-6671136D01*
G01X28710128Y-6694737D01*
G01X28661723Y-6704123D01*
G01X28638173Y-6705855D01*
G01X28637618Y-6705860D01*
G01X28637618Y-6705860D01*
G01X28561740Y-6694378D01*
G01X28503537Y-6668681D01*
G01X28465292Y-6641890D01*
G01X28449290Y-6627128D01*
G01X28448946Y-6626758D01*
G01X28448946Y-6626758D01*
G01X28411077Y-6568859D01*
G01X28389532Y-6507439D01*
G01X28379708Y-6454287D01*
G01X28377000Y-6421197D01*
G01X28376876Y-6415821D01*
G37*
%LPC*%
G36*
G01X28461250Y-6398829D02*
G01X28461250Y-6398829D01*
G01X28470161Y-6476577D01*
G01X28488714Y-6533587D01*
G01X28504637Y-6565382D01*
G01X28507833Y-6570508D01*
G01X28507833Y-6570508D01*
G01X28561607Y-6618444D01*
G01X28613472Y-6636368D01*
G01X28637593Y-6639063D01*
G01X28637618Y-6639063D01*
G01X28637618Y-6639063D01*
G01X28711603Y-6623214D01*
G01X28755894Y-6594963D01*
G01X28768282Y-6582813D01*
G01X28768282Y-6582813D01*
G01X28800418Y-6521594D01*
G01X28812970Y-6463139D01*
G01X28815154Y-6433255D01*
G01X28815157Y-6432813D01*
G01X28815157Y-6432813D01*
G01X28805966Y-6354953D01*
G01X28786830Y-6297709D01*
G01X28770406Y-6265713D01*
G01X28767110Y-6260547D01*
G01X28767110Y-6260547D01*
G01X28712759Y-6212202D01*
G01X28661349Y-6194124D01*
G01X28637642Y-6191407D01*
G01X28637618Y-6191407D01*
G01X28637618Y-6191407D01*
G01X28563797Y-6207420D01*
G01X28519800Y-6235966D01*
G01X28507540Y-6248243D01*
G01X28507540Y-6248243D01*
G01X28475805Y-6309864D01*
G01X28463410Y-6368475D01*
G01X28461253Y-6398387D01*
G01X28461250Y-6398829D01*
G37*
%LPD*%
G36*
G01X29024922Y-6142188D02*
G01X29024922Y-6142188D01*
G01X29071797Y-6132813D01*
G01X29071797Y-6132813D01*
G01X29119260Y-6168930D01*
G01X29123360Y-6192579D01*
G01X29123360Y-6192579D01*
G01X29191493Y-6152945D01*
G01X29252266Y-6132593D01*
G01X29295900Y-6125095D01*
G01X29312618Y-6124024D01*
G01X29312618Y-6124024D01*
G01X29312618Y-6124024D01*
G01X29386544Y-6138698D01*
G01X29437344Y-6167431D01*
G01X29460305Y-6187285D01*
G01X29461153Y-6188184D01*
G01X29461153Y-6188184D01*
G01X29494858Y-6245784D01*
G01X29512166Y-6309949D01*
G01X29518543Y-6362084D01*
G01X29519454Y-6383594D01*
G01X29519454Y-6383594D01*
G01X29519454Y-6383594D01*
G01X29512869Y-6459919D01*
G01X29500258Y-6516070D01*
G01X29492335Y-6540872D01*
G01X29492208Y-6541211D01*
G01X29492208Y-6541211D01*
G01X29456766Y-6604637D01*
G01X29420532Y-6645678D01*
G01X29405196Y-6659278D01*
G01X29405196Y-6659278D01*
G01X29341905Y-6691850D01*
G01X29286033Y-6704029D01*
G01X29261080Y-6705860D01*
G01X29261055Y-6705860D01*
G01X29261055Y-6705860D01*
G01X29190044Y-6693913D01*
G01X29140537Y-6673164D01*
G01X29126876Y-6665430D01*
G01X29126876Y-6665430D01*
G01X29127401Y-6722430D01*
G01X29127461Y-6728418D01*
G01X29127461Y-6728418D01*
G01X29128443Y-6797617D01*
G01X29128633Y-6805762D01*
G01X29128633Y-6805762D01*
G01X29131315Y-6864140D01*
G01X29131563Y-6868750D01*
G01X29131563Y-6868750D01*
G01X29137816Y-6932415D01*
G01X29138887Y-6939063D01*
G01X29138887Y-6939063D01*
G01X29150897Y-6988275D01*
G01X29150899Y-6988282D01*
G01X29150899Y-6988282D01*
G01X29102852Y-6997657D01*
G01X29102852Y-6997657D01*
G01X29056270Y-6982129D01*
G01X29056270Y-6982129D01*
G01X29056270Y-6982129D01*
G01X29044267Y-6929970D01*
G01X29044258Y-6929102D01*
G01X29044258Y-6929102D01*
G01X29044409Y-6861405D01*
G01X29044778Y-6790867D01*
G01X29045242Y-6725525D01*
G01X29045680Y-6673417D01*
G01X29045967Y-6642580D01*
G01X29046016Y-6637598D01*
G01X29046016Y-6637598D01*
G01X29046907Y-6541724D01*
G01X29047431Y-6471644D01*
G01X29047685Y-6425323D01*
G01X29047767Y-6400728D01*
G01X29047774Y-6395313D01*
G01X29047774Y-6395313D01*
G01X29045397Y-6296313D01*
G01X29039730Y-6224454D01*
G01X29032966Y-6176782D01*
G01X29027299Y-6150344D01*
G01X29024922Y-6142188D01*
G01X29024922Y-6142188D01*
G37*
%LPC*%
G36*
G01X29126876Y-6257618D02*
G01X29126876Y-6257618D01*
G01X29127780Y-6364310D01*
G01X29128415Y-6448442D01*
G01X29128829Y-6512056D01*
G01X29129069Y-6557191D01*
G01X29129183Y-6585889D01*
G01X29129217Y-6600191D01*
G01X29129219Y-6602735D01*
G01X29129219Y-6602735D01*
G01X29192348Y-6628358D01*
G01X29250032Y-6637750D01*
G01X29273360Y-6639063D01*
G01X29273360Y-6639063D01*
G01X29339424Y-6620752D01*
G01X29365059Y-6602442D01*
G01X29365059Y-6602442D01*
G01X29365059Y-6602442D01*
G01X29404836Y-6546459D01*
G01X29418304Y-6513918D01*
G01X29418379Y-6513672D01*
G01X29418379Y-6513672D01*
G01X29431180Y-6445912D01*
G01X29433880Y-6403661D01*
G01X29433907Y-6401172D01*
G01X29433907Y-6401172D01*
G01X29424459Y-6317118D01*
G01X29405960Y-6264788D01*
G01X29393177Y-6243135D01*
G01X29392598Y-6242383D01*
G01X29392598Y-6242383D01*
G01X29334568Y-6201353D01*
G01X29290882Y-6191616D01*
G01X29286251Y-6191407D01*
G01X29286251Y-6191407D01*
G01X29218095Y-6204882D01*
G01X29162603Y-6232390D01*
G01X29130663Y-6254552D01*
G01X29126876Y-6257618D01*
G37*
%LPD*%
G36*
G01X29896797Y-6610352D02*
G01X29896797Y-6610352D01*
G01X29934775Y-6566249D01*
G01X29950704Y-6559961D01*
G01X29950704Y-6559961D01*
G01X29991604Y-6609257D01*
G01X30007833Y-6618848D01*
G01X30007833Y-6618848D01*
G01X30073985Y-6636827D01*
G01X30103047Y-6639063D01*
G01X30103047Y-6639063D01*
G01X30170556Y-6624918D01*
G01X30186543Y-6616211D01*
G01X30186543Y-6616211D01*
G01X30216860Y-6561336D01*
G01X30218477Y-6545313D01*
G01X30218477Y-6545313D01*
G01X30191179Y-6493536D01*
G01X30186543Y-6490235D01*
G01X30186543Y-6490235D01*
G01X30126427Y-6465254D01*
G01X30109200Y-6460645D01*
G01X30109200Y-6460645D01*
G01X30042622Y-6443680D01*
G01X30018086Y-6436622D01*
G01X30018086Y-6436622D01*
G01X29959726Y-6403367D01*
G01X29940450Y-6384473D01*
G01X29940450Y-6384473D01*
G01X29913270Y-6323012D01*
G01X29908523Y-6283477D01*
G01X29908516Y-6282813D01*
G01X29908516Y-6282813D01*
G01X29928511Y-6215300D01*
G01X29961360Y-6175983D01*
G01X29970333Y-6168555D01*
G01X29970333Y-6168555D01*
G01X30035277Y-6136826D01*
G01X30089220Y-6125483D01*
G01X30110079Y-6124024D01*
G01X30110079Y-6124024D01*
G01X30178695Y-6134365D01*
G01X30218277Y-6148218D01*
G01X30220528Y-6149219D01*
G01X30220528Y-6149219D01*
G01X30269452Y-6196894D01*
G01X30274727Y-6218946D01*
G01X30274727Y-6218946D01*
G01X30236749Y-6263632D01*
G01X30220821Y-6269336D01*
G01X30220821Y-6269336D01*
G01X30179904Y-6221545D01*
G01X30166622Y-6213086D01*
G01X30166622Y-6213086D01*
G01X30102226Y-6193130D01*
G01X30081368Y-6191407D01*
G01X30081368Y-6191407D01*
G01X30019558Y-6207998D01*
G01X30010469Y-6213672D01*
G01X30010469Y-6213672D01*
G01X29981393Y-6267034D01*
G01X29980586Y-6276368D01*
G01X29980586Y-6276368D01*
G01X30007530Y-6328855D01*
G01X30012520Y-6332618D01*
G01X30012520Y-6332618D01*
G01X30071836Y-6358837D01*
G01X30089864Y-6363965D01*
G01X30089864Y-6363965D01*
G01X30155465Y-6381183D01*
G01X30180977Y-6388575D01*
G01X30180977Y-6388575D01*
G01X30240110Y-6421179D01*
G01X30258614Y-6438379D01*
G01X30258614Y-6438379D01*
G01X30286556Y-6498914D01*
G01X30290547Y-6532422D01*
G01X30290547Y-6532422D01*
G01X30290547Y-6532422D01*
G01X30274126Y-6604822D01*
G01X30244114Y-6648147D01*
G01X30229317Y-6661622D01*
G01X30229317Y-6661622D01*
G01X30165001Y-6692555D01*
G01X30108747Y-6704121D01*
G01X30083737Y-6705860D01*
G01X30083711Y-6705860D01*
G01X30083711Y-6705860D01*
G01X30009541Y-6696952D01*
G01X29962896Y-6682318D01*
G01X29953633Y-6678321D01*
G01X29953633Y-6678321D01*
G01X29902330Y-6630827D01*
G01X29896797Y-6610352D01*
G37*
G36*
G01X30393086Y-6415821D02*
G01X30393086Y-6415821D01*
G01X30402016Y-6336638D01*
G01X30422666Y-6274311D01*
G01X30445828Y-6230636D01*
G01X30462292Y-6207411D01*
G01X30465157Y-6204004D01*
G01X30465157Y-6204004D01*
G01X30522515Y-6159133D01*
G01X30581898Y-6135270D01*
G01X30629941Y-6125780D01*
G01X30653279Y-6124029D01*
G01X30653829Y-6124024D01*
G01X30653829Y-6124024D01*
G01X30730321Y-6135633D01*
G01X30788779Y-6161616D01*
G01X30827063Y-6188704D01*
G01X30843037Y-6203631D01*
G01X30843379Y-6204004D01*
G01X30843379Y-6204004D01*
G01X30881095Y-6262365D01*
G01X30902551Y-6324049D01*
G01X30912336Y-6377320D01*
G01X30915033Y-6410443D01*
G01X30915157Y-6415821D01*
G01X30915157Y-6415821D01*
G01X30905512Y-6498098D01*
G01X30883566Y-6561712D01*
G01X30859796Y-6604739D01*
G01X30844684Y-6625253D01*
G01X30843379Y-6626758D01*
G01X30843379Y-6626758D01*
G01X30786016Y-6671136D01*
G01X30726339Y-6694737D01*
G01X30677934Y-6704123D01*
G01X30654383Y-6705855D01*
G01X30653829Y-6705860D01*
G01X30653829Y-6705860D01*
G01X30577951Y-6694378D01*
G01X30519748Y-6668681D01*
G01X30481503Y-6641890D01*
G01X30465501Y-6627128D01*
G01X30465157Y-6626758D01*
G01X30465157Y-6626758D01*
G01X30427288Y-6568859D01*
G01X30405743Y-6507438D01*
G01X30395919Y-6454287D01*
G01X30393211Y-6421197D01*
G01X30393086Y-6415821D01*
G37*
%LPC*%
G36*
G01X30477461Y-6398829D02*
G01X30477461Y-6398829D01*
G01X30486372Y-6476577D01*
G01X30504925Y-6533587D01*
G01X30520848Y-6565382D01*
G01X30524043Y-6570508D01*
G01X30524043Y-6570508D01*
G01X30577818Y-6618444D01*
G01X30629683Y-6636368D01*
G01X30653804Y-6639063D01*
G01X30653829Y-6639063D01*
G01X30653829Y-6639063D01*
G01X30727814Y-6623214D01*
G01X30772105Y-6594963D01*
G01X30784493Y-6582813D01*
G01X30784493Y-6582813D01*
G01X30816629Y-6521594D01*
G01X30829181Y-6463139D01*
G01X30831365Y-6433255D01*
G01X30831368Y-6432813D01*
G01X30831368Y-6432813D01*
G01X30822177Y-6354953D01*
G01X30803041Y-6297709D01*
G01X30786617Y-6265713D01*
G01X30783321Y-6260547D01*
G01X30783321Y-6260547D01*
G01X30728970Y-6212202D01*
G01X30677560Y-6194124D01*
G01X30653853Y-6191407D01*
G01X30653829Y-6191407D01*
G01X30653829Y-6191407D01*
G01X30580008Y-6207420D01*
G01X30536011Y-6235966D01*
G01X30523750Y-6248243D01*
G01X30523750Y-6248243D01*
G01X30492016Y-6309864D01*
G01X30479621Y-6368475D01*
G01X30477464Y-6398387D01*
G01X30477461Y-6398829D01*
G37*
%LPD*%
G36*
G01X31041133Y-5805860D02*
G01X31041133Y-5805860D01*
G01X31083321Y-5802344D01*
G01X31083321Y-5802344D01*
G01X31135609Y-5833907D01*
G01X31138399Y-5848047D01*
G01X31138399Y-5848047D01*
G01X31136859Y-5904789D01*
G01X31136641Y-5912207D01*
G01X31136641Y-5912207D01*
G01X31134799Y-5976627D01*
G01X31133108Y-6037843D01*
G01X31132259Y-6069071D01*
G01X31132247Y-6069532D01*
G01X31132247Y-6069532D01*
G01X31130678Y-6144038D01*
G01X31129901Y-6208111D01*
G01X31129638Y-6251555D01*
G01X31129610Y-6264649D01*
G01X31129610Y-6451563D01*
G01X31129610Y-6451563D01*
G01X31132210Y-6541160D01*
G01X31138317Y-6609312D01*
G01X31145391Y-6656279D01*
G01X31150894Y-6682322D01*
G01X31152461Y-6688282D01*
G01X31152461Y-6688282D01*
G01X31107344Y-6697657D01*
G01X31107344Y-6697657D01*
G01X31061055Y-6683301D01*
G01X31061055Y-6683301D01*
G01X31048165Y-6635547D01*
G01X31048165Y-6635547D01*
G01X31048165Y-6635547D01*
G01X31048463Y-6585454D01*
G01X31049022Y-6518080D01*
G01X31049336Y-6482949D01*
G01X31049336Y-6482911D01*
G01X31049336Y-6482911D01*
G01X31050052Y-6393698D01*
G01X31050394Y-6332444D01*
G01X31050500Y-6299047D01*
G01X31050508Y-6292188D01*
G01X31050508Y-6152735D01*
G01X31050508Y-6152735D01*
G01X31049939Y-6039649D01*
G01X31048483Y-5953003D01*
G01X31046522Y-5889653D01*
G01X31044433Y-5846454D01*
G01X31042598Y-5820261D01*
G01X31041396Y-5807931D01*
G01X31041133Y-5805860D01*
G37*
G36*
G01X31278438Y-6415821D02*
G01X31278438Y-6415821D01*
G01X31287586Y-6337181D01*
G01X31308739Y-6275036D01*
G01X31332466Y-6231333D01*
G01X31349332Y-6208018D01*
G01X31352266Y-6204590D01*
G01X31352266Y-6204590D01*
G01X31411244Y-6158013D01*
G01X31469014Y-6134095D01*
G01X31512941Y-6125283D01*
G01X31530391Y-6124024D01*
G01X31530391Y-6124024D01*
G01X31530391Y-6124024D01*
G01X31601654Y-6135580D01*
G01X31653344Y-6156180D01*
G01X31669844Y-6165039D01*
G01X31669844Y-6165039D01*
G01X31671707Y-6086439D01*
G01X31672174Y-6044792D01*
G01X31672188Y-6040235D01*
G01X31672188Y-6040235D01*
G01X31671026Y-5951904D01*
G01X31668340Y-5882917D01*
G01X31665327Y-5834921D01*
G01X31663186Y-5809562D01*
G01X31662813Y-5805860D01*
G01X31662813Y-5805860D01*
G01X31705586Y-5802344D01*
G01X31705586Y-5802344D01*
G01X31756978Y-5834543D01*
G01X31759493Y-5848047D01*
G01X31759493Y-5848047D01*
G01X31758994Y-5889368D01*
G01X31757787Y-5952903D01*
G01X31756306Y-6022159D01*
G01X31754985Y-6080644D01*
G01X31754257Y-6111862D01*
G01X31754219Y-6113477D01*
G01X31754219Y-6113477D01*
G01X31752071Y-6210156D01*
G01X31750604Y-6287669D01*
G01X31749687Y-6347009D01*
G01X31749192Y-6389170D01*
G01X31748988Y-6415146D01*
G01X31748946Y-6425929D01*
G01X31748946Y-6426368D01*
G01X31748946Y-6426368D01*
G01X31751107Y-6526081D01*
G01X31756337Y-6598900D01*
G01X31762755Y-6648005D01*
G01X31768480Y-6676581D01*
G01X31771632Y-6687811D01*
G01X31771797Y-6688282D01*
G01X31771797Y-6688282D01*
G01X31726094Y-6697657D01*
G01X31726094Y-6697657D01*
G01X31678294Y-6661539D01*
G01X31673360Y-6637891D01*
G01X31673360Y-6637891D01*
G01X31610288Y-6681533D01*
G01X31554946Y-6700824D01*
G01X31521565Y-6705710D01*
G01X31517501Y-6705860D01*
G01X31516329Y-6705860D01*
G01X31516329Y-6705860D01*
G01X31444902Y-6691149D01*
G01X31389894Y-6659933D01*
G01X31356701Y-6631587D01*
G01X31349336Y-6623829D01*
G01X31349336Y-6623829D01*
G01X31310805Y-6562320D01*
G01X31289602Y-6499268D01*
G01X31280550Y-6447078D01*
G01X31278474Y-6418152D01*
G01X31278438Y-6415821D01*
G37*
%LPC*%
G36*
G01X31362813Y-6398829D02*
G01X31362813Y-6398829D01*
G01X31372453Y-6478780D01*
G01X31392522Y-6536803D01*
G01X31409746Y-6568884D01*
G01X31413204Y-6574024D01*
G01X31413204Y-6574024D01*
G01X31469896Y-6623752D01*
G01X31518277Y-6640728D01*
G01X31535079Y-6642579D01*
G01X31535079Y-6642579D01*
G01X31600928Y-6625109D01*
G01X31649929Y-6592410D01*
G01X31669825Y-6574044D01*
G01X31669844Y-6574024D01*
G01X31669844Y-6574024D01*
G01X31668940Y-6452175D01*
G01X31668304Y-6362406D01*
G01X31667890Y-6299935D01*
G01X31667651Y-6259980D01*
G01X31667537Y-6237760D01*
G01X31667503Y-6228492D01*
G01X31667501Y-6227149D01*
G01X31667501Y-6227149D01*
G01X31597949Y-6199519D01*
G01X31551953Y-6191787D01*
G01X31543868Y-6191407D01*
G01X31543868Y-6191407D01*
G01X31471125Y-6206650D01*
G01X31425944Y-6234507D01*
G01X31411446Y-6248243D01*
G01X31411446Y-6248243D01*
G01X31378105Y-6309864D01*
G01X31365082Y-6368475D01*
G01X31362816Y-6398387D01*
G01X31362813Y-6398829D01*
G37*
%LPD*%
G36*
G01X31897188Y-6418164D02*
G01X31897188Y-6418164D01*
G01X31907098Y-6334220D01*
G01X31930015Y-6270006D01*
G01X31955718Y-6226198D01*
G01X31973990Y-6203468D01*
G01X31977168Y-6200196D01*
G01X31977168Y-6200196D01*
G01X32040253Y-6156159D01*
G01X32101058Y-6133545D01*
G01X32146866Y-6125214D01*
G01X32164961Y-6124024D01*
G01X32164961Y-6124024D01*
G01X32164961Y-6124024D01*
G01X32240433Y-6137396D01*
G01X32287373Y-6161233D01*
G01X32300899Y-6171485D01*
G01X32300899Y-6171485D01*
G01X32341783Y-6231175D01*
G01X32352630Y-6275791D01*
G01X32353047Y-6282813D01*
G01X32353047Y-6282813D01*
G01X32341515Y-6348760D01*
G01X32336348Y-6360743D01*
G01X32336348Y-6360743D01*
G01X32296839Y-6406645D01*
G01X32292696Y-6409668D01*
G01X32292696Y-6409668D01*
G01X32233578Y-6432883D01*
G01X32214766Y-6437207D01*
G01X32214766Y-6437207D01*
G01X32145552Y-6446839D01*
G01X32114571Y-6449219D01*
G01X32114571Y-6449219D01*
G01X32114571Y-6449219D01*
G01X32049419Y-6451031D01*
G01X31995549Y-6451538D01*
G01X31985079Y-6451563D01*
G01X31985079Y-6451563D01*
G01X32003151Y-6526526D01*
G01X32026361Y-6573309D01*
G01X32036934Y-6588379D01*
G01X32036934Y-6588379D01*
G01X32093739Y-6626984D01*
G01X32143442Y-6638362D01*
G01X32155001Y-6639063D01*
G01X32155001Y-6639063D01*
G01X32230391Y-6622249D01*
G01X32271205Y-6591519D01*
G01X32282735Y-6576368D01*
G01X32282735Y-6576368D01*
G01X32328898Y-6619079D01*
G01X32330196Y-6626758D01*
G01X32330196Y-6626758D01*
G01X32294885Y-6674261D01*
G01X32275704Y-6684180D01*
G01X32275704Y-6684180D01*
G01X32207710Y-6701407D01*
G01X32159910Y-6705733D01*
G01X32153829Y-6705860D01*
G01X32153829Y-6705860D01*
G01X32077236Y-6694736D01*
G01X32018990Y-6670264D01*
G01X31981948Y-6645792D01*
G01X31968965Y-6634668D01*
G01X31968965Y-6634668D01*
G01X31968965Y-6634668D01*
G01X31931250Y-6579256D01*
G01X31909793Y-6516338D01*
G01X31900009Y-6459934D01*
G01X31897312Y-6424063D01*
G01X31897188Y-6418164D01*
G37*
%LPC*%
G36*
G01X31983907Y-6391797D02*
G01X31983907Y-6391797D01*
G01X32054166Y-6391055D01*
G01X32070040Y-6390625D01*
G01X32070040Y-6390625D01*
G01X32132998Y-6384997D01*
G01X32145626Y-6383301D01*
G01X32145626Y-6383301D01*
G01X32206698Y-6368374D01*
G01X32211836Y-6366309D01*
G01X32211836Y-6366309D01*
G01X32253099Y-6335308D01*
G01X32253145Y-6335254D01*
G01X32253145Y-6335254D01*
G01X32270424Y-6285582D01*
G01X32270430Y-6285157D01*
G01X32270430Y-6285157D01*
G01X32247275Y-6227423D01*
G01X32238790Y-6218360D01*
G01X32238790Y-6218360D01*
G01X32179632Y-6192173D01*
G01X32160274Y-6190235D01*
G01X32160274Y-6190235D01*
G01X32090453Y-6205463D01*
G01X32047040Y-6231202D01*
G01X32037227Y-6239454D01*
G01X32037227Y-6239454D01*
G01X32002461Y-6296090D01*
G01X31987462Y-6355740D01*
G01X31983957Y-6390335D01*
G01X31983907Y-6391797D01*
G37*
%LPD*%
G36*
G01X32479024Y-6136329D02*
G01X32479024Y-6136329D01*
G01X32520040Y-6132813D01*
G01X32520040Y-6132813D01*
G01X32569575Y-6165830D01*
G01X32571602Y-6177930D01*
G01X32571602Y-6177930D01*
G01X32571016Y-6194336D01*
G01X32571016Y-6194336D01*
G01X32570430Y-6220118D01*
G01X32570430Y-6220118D01*
G01X32614587Y-6170230D01*
G01X32634590Y-6153614D01*
G01X32634590Y-6153614D01*
G01X32696832Y-6126063D01*
G01X32713985Y-6124024D01*
G01X32713985Y-6124024D01*
G01X32757344Y-6136622D01*
G01X32757344Y-6136622D01*
G01X32773165Y-6170899D01*
G01X32773165Y-6170899D01*
G01X32750789Y-6222581D01*
G01X32749141Y-6224805D01*
G01X32749141Y-6224805D01*
G01X32694978Y-6202165D01*
G01X32691133Y-6201954D01*
G01X32691133Y-6201954D01*
G01X32632744Y-6222290D01*
G01X32624043Y-6228321D01*
G01X32624043Y-6228321D01*
G01X32579749Y-6278005D01*
G01X32567501Y-6298047D01*
G01X32567501Y-6298047D01*
G01X32566681Y-6355096D01*
G01X32566375Y-6418922D01*
G01X32566329Y-6450358D01*
G01X32566329Y-6450391D01*
G01X32566329Y-6450391D01*
G01X32568929Y-6541043D01*
G01X32575036Y-6609580D01*
G01X32582110Y-6656523D01*
G01X32587612Y-6682393D01*
G01X32589180Y-6688282D01*
G01X32589180Y-6688282D01*
G01X32543477Y-6697657D01*
G01X32543477Y-6697657D01*
G01X32496895Y-6682129D01*
G01X32496895Y-6682129D01*
G01X32496895Y-6682129D01*
G01X32484892Y-6629970D01*
G01X32484883Y-6629102D01*
G01X32484883Y-6629102D01*
G01X32485522Y-6570743D01*
G01X32486055Y-6534473D01*
G01X32486055Y-6534473D01*
G01X32487010Y-6456431D01*
G01X32487224Y-6419448D01*
G01X32487227Y-6416993D01*
G01X32487227Y-6416993D01*
G01X32486525Y-6330650D01*
G01X32484803Y-6258114D01*
G01X32482634Y-6201006D01*
G01X32480593Y-6160946D01*
G01X32479254Y-6139552D01*
G01X32479024Y-6136329D01*
G37*
G36*
G01X32856954Y-6142188D02*
G01X32856954Y-6142188D01*
G01X32903829Y-6132813D01*
G01X32903829Y-6132813D01*
G01X32951292Y-6168930D01*
G01X32955391Y-6192579D01*
G01X32955391Y-6192579D01*
G01X33023525Y-6152945D01*
G01X33084297Y-6132593D01*
G01X33127931Y-6125095D01*
G01X33144649Y-6124024D01*
G01X33144649Y-6124024D01*
G01X33144649Y-6124024D01*
G01X33218575Y-6138698D01*
G01X33269375Y-6167431D01*
G01X33292336Y-6187285D01*
G01X33293184Y-6188184D01*
G01X33293184Y-6188184D01*
G01X33326889Y-6245784D01*
G01X33344197Y-6309949D01*
G01X33350574Y-6362084D01*
G01X33351485Y-6383594D01*
G01X33351485Y-6383594D01*
G01X33351485Y-6383594D01*
G01X33344900Y-6459919D01*
G01X33332290Y-6516070D01*
G01X33324366Y-6540872D01*
G01X33324239Y-6541211D01*
G01X33324239Y-6541211D01*
G01X33288797Y-6604637D01*
G01X33252563Y-6645678D01*
G01X33237227Y-6659278D01*
G01X33237227Y-6659278D01*
G01X33173936Y-6691850D01*
G01X33118064Y-6704029D01*
G01X33093112Y-6705860D01*
G01X33093086Y-6705860D01*
G01X33093086Y-6705860D01*
G01X33022075Y-6693913D01*
G01X32972569Y-6673164D01*
G01X32958907Y-6665430D01*
G01X32958907Y-6665430D01*
G01X32959432Y-6722430D01*
G01X32959493Y-6728418D01*
G01X32959493Y-6728418D01*
G01X32960474Y-6797617D01*
G01X32960665Y-6805762D01*
G01X32960665Y-6805762D01*
G01X32963346Y-6864140D01*
G01X32963594Y-6868750D01*
G01X32963594Y-6868750D01*
G01X32969848Y-6932415D01*
G01X32970918Y-6939063D01*
G01X32970918Y-6939063D01*
G01X32982928Y-6988275D01*
G01X32982930Y-6988282D01*
G01X32982930Y-6988282D01*
G01X32934883Y-6997657D01*
G01X32934883Y-6997657D01*
G01X32888301Y-6982129D01*
G01X32888301Y-6982129D01*
G01X32888301Y-6982129D01*
G01X32876298Y-6929970D01*
G01X32876290Y-6929102D01*
G01X32876290Y-6929102D01*
G01X32876440Y-6861405D01*
G01X32876809Y-6790867D01*
G01X32877274Y-6725525D01*
G01X32877711Y-6673417D01*
G01X32877998Y-6642580D01*
G01X32878047Y-6637598D01*
G01X32878047Y-6637598D01*
G01X32878939Y-6541724D01*
G01X32879462Y-6471644D01*
G01X32879716Y-6425323D01*
G01X32879798Y-6400728D01*
G01X32879805Y-6395313D01*
G01X32879805Y-6395313D01*
G01X32877429Y-6296313D01*
G01X32871761Y-6224454D01*
G01X32864997Y-6176782D01*
G01X32859330Y-6150344D01*
G01X32856954Y-6142188D01*
G01X32856954Y-6142188D01*
G37*
%LPC*%
G36*
G01X32958907Y-6257618D02*
G01X32958907Y-6257618D01*
G01X32959811Y-6364310D01*
G01X32960447Y-6448442D01*
G01X32960861Y-6512056D01*
G01X32961101Y-6557191D01*
G01X32961214Y-6585889D01*
G01X32961248Y-6600191D01*
G01X32961251Y-6602735D01*
G01X32961251Y-6602735D01*
G01X33024380Y-6628358D01*
G01X33082063Y-6637750D01*
G01X33105391Y-6639063D01*
G01X33105391Y-6639063D01*
G01X33171456Y-6620752D01*
G01X33197090Y-6602442D01*
G01X33197090Y-6602442D01*
G01X33197090Y-6602442D01*
G01X33236867Y-6546459D01*
G01X33250336Y-6513918D01*
G01X33250411Y-6513672D01*
G01X33250411Y-6513672D01*
G01X33263211Y-6445912D01*
G01X33265911Y-6403661D01*
G01X33265938Y-6401172D01*
G01X33265938Y-6401172D01*
G01X33256490Y-6317118D01*
G01X33237991Y-6264788D01*
G01X33225208Y-6243135D01*
G01X33224629Y-6242383D01*
G01X33224629Y-6242383D01*
G01X33166599Y-6201353D01*
G01X33122913Y-6191616D01*
G01X33118282Y-6191407D01*
G01X33118282Y-6191407D01*
G01X33050126Y-6204882D01*
G01X32994634Y-6232390D01*
G01X32962694Y-6254552D01*
G01X32958907Y-6257618D01*
G37*
%LPD*%
G36*
G01X33458711Y-6537110D02*
G01X33458711Y-6537110D01*
G01X33473928Y-6467540D01*
G01X33487422Y-6447168D01*
G01X33487422Y-6447168D01*
G01X33542479Y-6412388D01*
G01X33566524Y-6403516D01*
G01X33566524Y-6403516D01*
G01X33631071Y-6389877D01*
G01X33697667Y-6380345D01*
G01X33754407Y-6374434D01*
G01X33789388Y-6371657D01*
G01X33795040Y-6371289D01*
G01X33795040Y-6371289D01*
G01X33787941Y-6286357D01*
G01X33775286Y-6241541D01*
G01X33769844Y-6230372D01*
G01X33769844Y-6230372D01*
G01X33716856Y-6198623D01*
G01X33667060Y-6191514D01*
G01X33662618Y-6191407D01*
G01X33662618Y-6191407D01*
G01X33602421Y-6207902D01*
G01X33593184Y-6212793D01*
G01X33593184Y-6212793D01*
G01X33547685Y-6259390D01*
G01X33538985Y-6275196D01*
G01X33538985Y-6275196D01*
G01X33486477Y-6238722D01*
G01X33483907Y-6227149D01*
G01X33483907Y-6227149D01*
G01X33513630Y-6171304D01*
G01X33541622Y-6152149D01*
G01X33541622Y-6152149D01*
G01X33608653Y-6131056D01*
G01X33662212Y-6124518D01*
G01X33676094Y-6124024D01*
G01X33676094Y-6124024D01*
G01X33758405Y-6134361D01*
G01X33808257Y-6154158D01*
G01X33827035Y-6166597D01*
G01X33827266Y-6166797D01*
G01X33827266Y-6166797D01*
G01X33859529Y-6220714D01*
G01X33872677Y-6281749D01*
G01X33875297Y-6318169D01*
G01X33875313Y-6319727D01*
G01X33875313Y-6319727D01*
G01X33874380Y-6377642D01*
G01X33874141Y-6390332D01*
G01X33874141Y-6390332D01*
G01X33873076Y-6463495D01*
G01X33872969Y-6482032D01*
G01X33872969Y-6482032D01*
G01X33876540Y-6572596D01*
G01X33884395Y-6637012D01*
G01X33892250Y-6675501D01*
G01X33895821Y-6688282D01*
G01X33895821Y-6688282D01*
G01X33895821Y-6688282D01*
G01X33848946Y-6697657D01*
G01X33848946Y-6697657D01*
G01X33811739Y-6685059D01*
G01X33811739Y-6685059D01*
G01X33797383Y-6644922D01*
G01X33797383Y-6644922D01*
G01X33731407Y-6684958D01*
G01X33676474Y-6701960D01*
G01X33646157Y-6705799D01*
G01X33643868Y-6705860D01*
G01X33643868Y-6705860D01*
G01X33561013Y-6691426D01*
G01X33507508Y-6655996D01*
G01X33476935Y-6611381D01*
G01X33462875Y-6569391D01*
G01X33458912Y-6541835D01*
G01X33458711Y-6537110D01*
G37*
%LPC*%
G36*
G01X33543086Y-6537110D02*
G01X33543086Y-6537110D01*
G01X33561853Y-6602310D01*
G01X33574141Y-6616797D01*
G01X33574141Y-6616797D01*
G01X33634343Y-6640929D01*
G01X33653243Y-6642579D01*
G01X33653243Y-6642579D01*
G01X33726359Y-6628121D01*
G01X33774676Y-6601700D01*
G01X33790938Y-6588672D01*
G01X33790938Y-6588672D01*
G01X33789768Y-6533765D01*
G01X33789766Y-6532422D01*
G01X33789766Y-6532422D01*
G01X33792094Y-6463043D01*
G01X33793868Y-6432813D01*
G01X33793868Y-6432813D01*
G01X33741804Y-6438661D01*
G01X33741719Y-6438672D01*
G01X33741719Y-6438672D01*
G01X33694551Y-6444532D01*
G01X33694551Y-6444532D01*
G01X33650606Y-6451563D01*
G01X33650606Y-6451563D01*
G01X33615450Y-6461231D01*
G01X33615450Y-6461231D01*
G01X33584395Y-6474707D01*
G01X33584395Y-6474707D01*
G01X33562715Y-6490821D01*
G01X33562715Y-6490821D01*
G01X33547188Y-6511036D01*
G01X33547188Y-6511036D01*
G01X33543086Y-6537110D01*
G37*
%LPD*%
G36*
G01X34009493Y-6610352D02*
G01X34009493Y-6610352D01*
G01X34047470Y-6566249D01*
G01X34063399Y-6559961D01*
G01X34063399Y-6559961D01*
G01X34104300Y-6609257D01*
G01X34120528Y-6618848D01*
G01X34120528Y-6618848D01*
G01X34186680Y-6636827D01*
G01X34215743Y-6639063D01*
G01X34215743Y-6639063D01*
G01X34283251Y-6624918D01*
G01X34299239Y-6616211D01*
G01X34299239Y-6616211D01*
G01X34329555Y-6561336D01*
G01X34331172Y-6545313D01*
G01X34331172Y-6545313D01*
G01X34303874Y-6493536D01*
G01X34299239Y-6490235D01*
G01X34299239Y-6490235D01*
G01X34239123Y-6465254D01*
G01X34221895Y-6460645D01*
G01X34221895Y-6460645D01*
G01X34155317Y-6443680D01*
G01X34130782Y-6436622D01*
G01X34130782Y-6436622D01*
G01X34072422Y-6403367D01*
G01X34053145Y-6384473D01*
G01X34053145Y-6384473D01*
G01X34025966Y-6323012D01*
G01X34021218Y-6283477D01*
G01X34021211Y-6282813D01*
G01X34021211Y-6282813D01*
G01X34041206Y-6215300D01*
G01X34074055Y-6175983D01*
G01X34083028Y-6168555D01*
G01X34083028Y-6168555D01*
G01X34147972Y-6136826D01*
G01X34201916Y-6125483D01*
G01X34222774Y-6124024D01*
G01X34222774Y-6124024D01*
G01X34291391Y-6134365D01*
G01X34330972Y-6148218D01*
G01X34333223Y-6149219D01*
G01X34333223Y-6149219D01*
G01X34382147Y-6196894D01*
G01X34387422Y-6218946D01*
G01X34387422Y-6218946D01*
G01X34349445Y-6263632D01*
G01X34333516Y-6269336D01*
G01X34333516Y-6269336D01*
G01X34292599Y-6221545D01*
G01X34279317Y-6213086D01*
G01X34279317Y-6213086D01*
G01X34214921Y-6193130D01*
G01X34194063Y-6191407D01*
G01X34194063Y-6191407D01*
G01X34132253Y-6207998D01*
G01X34123165Y-6213672D01*
G01X34123165Y-6213672D01*
G01X34094089Y-6267034D01*
G01X34093282Y-6276368D01*
G01X34093282Y-6276368D01*
G01X34120226Y-6328855D01*
G01X34125215Y-6332618D01*
G01X34125215Y-6332618D01*
G01X34184531Y-6358837D01*
G01X34202559Y-6363965D01*
G01X34202559Y-6363965D01*
G01X34268160Y-6381183D01*
G01X34293672Y-6388575D01*
G01X34293672Y-6388575D01*
G01X34352806Y-6421179D01*
G01X34371309Y-6438379D01*
G01X34371309Y-6438379D01*
G01X34399251Y-6498914D01*
G01X34403243Y-6532422D01*
G01X34403243Y-6532422D01*
G01X34403243Y-6532422D01*
G01X34386821Y-6604822D01*
G01X34356809Y-6648147D01*
G01X34342012Y-6661622D01*
G01X34342012Y-6661622D01*
G01X34277697Y-6692555D01*
G01X34221442Y-6704121D01*
G01X34196432Y-6705860D01*
G01X34196407Y-6705860D01*
G01X34196407Y-6705860D01*
G01X34122236Y-6696952D01*
G01X34075591Y-6682318D01*
G01X34066329Y-6678321D01*
G01X34066329Y-6678321D01*
G01X34015025Y-6630827D01*
G01X34009493Y-6610352D01*
G37*
G36*
G01X34451876Y-6179102D02*
G01X34451876Y-6179102D01*
G01X34469747Y-6143946D01*
G01X34469747Y-6143946D01*
G01X34526753Y-6136381D01*
G01X34530977Y-6136329D01*
G01X34564961Y-6136329D01*
G01X34564961Y-6136329D01*
G01X34561471Y-6057561D01*
G01X34558142Y-6010582D01*
G01X34557344Y-6001563D01*
G01X34557344Y-6001563D01*
G01X34597188Y-5998047D01*
G01X34597188Y-5998047D01*
G01X34651459Y-6028967D01*
G01X34654610Y-6043750D01*
G01X34654610Y-6043750D01*
G01X34651985Y-6102063D01*
G01X34649922Y-6137500D01*
G01X34649922Y-6137500D01*
G01X34745687Y-6136493D01*
G01X34807833Y-6134278D01*
G01X34841414Y-6132062D01*
G01X34851485Y-6131055D01*
G01X34851485Y-6131055D01*
G01X34851485Y-6131055D01*
G01X34856172Y-6159180D01*
G01X34856172Y-6159180D01*
G01X34843575Y-6191407D01*
G01X34843575Y-6191407D01*
G01X34803438Y-6200782D01*
G01X34803438Y-6200782D01*
G01X34745493Y-6201601D01*
G01X34679991Y-6201907D01*
G01X34647613Y-6201954D01*
G01X34647579Y-6201954D01*
G01X34647579Y-6201954D01*
G01X34646480Y-6276151D01*
G01X34645793Y-6346828D01*
G01X34645421Y-6407548D01*
G01X34645267Y-6451872D01*
G01X34645235Y-6473362D01*
G01X34645235Y-6474414D01*
G01X34645235Y-6474414D01*
G01X34652160Y-6560115D01*
G01X34664189Y-6601574D01*
G01X34668672Y-6610059D01*
G01X34668672Y-6610059D01*
G01X34723740Y-6640169D01*
G01X34746016Y-6642579D01*
G01X34746016Y-6642579D01*
G01X34810653Y-6622782D01*
G01X34832149Y-6606250D01*
G01X34832149Y-6606250D01*
G01X34853829Y-6649610D01*
G01X34853829Y-6649610D01*
G01X34823096Y-6690166D01*
G01X34822774Y-6690332D01*
G01X34822774Y-6690332D01*
G01X34761066Y-6705194D01*
G01X34747188Y-6705860D01*
G01X34747188Y-6705860D01*
G01X34668916Y-6691983D01*
G01X34623124Y-6665405D01*
G01X34606469Y-6648706D01*
G01X34606270Y-6648438D01*
G01X34606270Y-6648438D01*
G01X34580380Y-6590592D01*
G01X34568480Y-6528545D01*
G01X34565131Y-6484832D01*
G01X34564961Y-6476758D01*
G01X34564961Y-6476758D01*
G01X34566060Y-6369360D01*
G01X34566747Y-6292231D01*
G01X34567119Y-6241250D01*
G01X34567273Y-6212292D01*
G01X34567305Y-6201234D01*
G01X34567305Y-6200782D01*
G01X34567305Y-6200782D01*
G01X34518278Y-6204519D01*
G01X34458430Y-6209325D01*
G01X34455391Y-6209571D01*
G01X34455391Y-6209571D01*
G01X34451875Y-6179102D01*
G37*
G36*
G01X34927657Y-6418164D02*
G01X34927657Y-6418164D01*
G01X34937567Y-6334220D01*
G01X34960483Y-6270006D01*
G01X34986187Y-6226198D01*
G01X35004458Y-6203468D01*
G01X35007637Y-6200196D01*
G01X35007637Y-6200196D01*
G01X35070722Y-6156159D01*
G01X35131526Y-6133545D01*
G01X35177335Y-6125214D01*
G01X35195430Y-6124024D01*
G01X35195430Y-6124024D01*
G01X35195430Y-6124024D01*
G01X35270902Y-6137396D01*
G01X35317841Y-6161233D01*
G01X35331368Y-6171485D01*
G01X35331368Y-6171485D01*
G01X35372252Y-6231175D01*
G01X35383099Y-6275791D01*
G01X35383516Y-6282813D01*
G01X35383516Y-6282813D01*
G01X35371984Y-6348760D01*
G01X35366817Y-6360743D01*
G01X35366817Y-6360743D01*
G01X35327308Y-6406645D01*
G01X35323165Y-6409668D01*
G01X35323165Y-6409668D01*
G01X35264047Y-6432883D01*
G01X35245235Y-6437207D01*
G01X35245235Y-6437207D01*
G01X35176021Y-6446839D01*
G01X35145040Y-6449219D01*
G01X35145040Y-6449219D01*
G01X35145040Y-6449219D01*
G01X35079887Y-6451031D01*
G01X35026018Y-6451538D01*
G01X35015547Y-6451563D01*
G01X35015547Y-6451563D01*
G01X35033620Y-6526526D01*
G01X35056830Y-6573309D01*
G01X35067403Y-6588379D01*
G01X35067403Y-6588379D01*
G01X35124208Y-6626984D01*
G01X35173911Y-6638362D01*
G01X35185469Y-6639063D01*
G01X35185469Y-6639063D01*
G01X35260860Y-6622249D01*
G01X35301674Y-6591519D01*
G01X35313204Y-6576368D01*
G01X35313204Y-6576368D01*
G01X35359367Y-6619079D01*
G01X35360665Y-6626758D01*
G01X35360665Y-6626758D01*
G01X35325354Y-6674261D01*
G01X35306172Y-6684180D01*
G01X35306172Y-6684180D01*
G01X35238179Y-6701407D01*
G01X35190379Y-6705733D01*
G01X35184297Y-6705860D01*
G01X35184297Y-6705860D01*
G01X35107704Y-6694736D01*
G01X35049459Y-6670264D01*
G01X35012416Y-6645792D01*
G01X34999434Y-6634668D01*
G01X34999434Y-6634668D01*
G01X34999434Y-6634668D01*
G01X34961719Y-6579256D01*
G01X34940262Y-6516338D01*
G01X34930478Y-6459934D01*
G01X34927781Y-6424063D01*
G01X34927657Y-6418164D01*
G37*
%LPC*%
G36*
G01X35014376Y-6391797D02*
G01X35014376Y-6391797D01*
G01X35084635Y-6391055D01*
G01X35100508Y-6390625D01*
G01X35100508Y-6390625D01*
G01X35163467Y-6384997D01*
G01X35176094Y-6383301D01*
G01X35176094Y-6383301D01*
G01X35237167Y-6368374D01*
G01X35242305Y-6366309D01*
G01X35242305Y-6366309D01*
G01X35283567Y-6335308D01*
G01X35283614Y-6335254D01*
G01X35283614Y-6335254D01*
G01X35300893Y-6285582D01*
G01X35300899Y-6285157D01*
G01X35300899Y-6285157D01*
G01X35277744Y-6227423D01*
G01X35269258Y-6218360D01*
G01X35269258Y-6218360D01*
G01X35210101Y-6192173D01*
G01X35190743Y-6190235D01*
G01X35190743Y-6190235D01*
G01X35120922Y-6205463D01*
G01X35077509Y-6231202D01*
G01X35067696Y-6239454D01*
G01X35067696Y-6239454D01*
G01X35032929Y-6296090D01*
G01X35017931Y-6355740D01*
G01X35014426Y-6390335D01*
G01X35014376Y-6391797D01*
G37*

G04 Pad flashes *
%LPD*%
D11*

G04 end of program *
M02*
