G04                                                      *
G04 Greetings!                                           *
G04 This Gerber was generated by PCBmodE, an open source *
G04 PCB design software. Get it here:                    *
G04                                                      *
G04   http://pcbmode.com                                 *
G04                                                      *
G04 Also visit                                           *
G04                                                      *
G04   http://boldport.com                                *
G04                                                      *
G04 and follow @boldport / @pcbmode for updates!         *
G04                                                      *

G04 leading zeros omitted (L); absolute data (A); 6 integer digits and 6 fractional digits *
%FSLAX66Y66*%

G04 mode (MO): millimeters (MM) *
%MOMM*%

G04 Aperture definitions *
%ADD10C,0.001X*%
%ADD11C,0.001X*%

%LPD*%
G36*
G01X4287177Y-22559969D02*
G01X4287177Y-22559969D01*
G01X4246687Y-22516772D01*
G01X4209572Y-22471646D01*
G01X4175830Y-22424760D01*
G01X4145463Y-22376280D01*
G01X4118470Y-22326374D01*
G01X4094851Y-22275211D01*
G01X4074607Y-22222958D01*
G01X4057736Y-22169782D01*
G01X4044239Y-22115851D01*
G01X4034117Y-22061334D01*
G01X4027369Y-22006397D01*
G01X4023995Y-21951209D01*
G01X4023995Y-21895937D01*
G01X4027369Y-21840748D01*
G01X4034117Y-21785811D01*
G01X4044239Y-21731294D01*
G01X4057736Y-21677363D01*
G01X4074607Y-21624187D01*
G01X4094851Y-21571934D01*
G01X4118470Y-21520771D01*
G01X4145463Y-21470865D01*
G01X4175830Y-21422386D01*
G01X4209572Y-21375499D01*
G01X4246687Y-21330373D01*
G01X4287177Y-21287177D01*
G01X4287177Y-21287177D01*
G01X4287177Y-21287177D01*
G01X4330374Y-21246687D01*
G01X4375499Y-21209572D01*
G01X4422386Y-21175830D01*
G01X4470866Y-21145463D01*
G01X4520771Y-21118470D01*
G01X4571934Y-21094851D01*
G01X4624188Y-21074606D01*
G01X4677364Y-21057736D01*
G01X4731294Y-21044239D01*
G01X4785812Y-21034117D01*
G01X4840748Y-21027369D01*
G01X4895937Y-21023994D01*
G01X4951209Y-21023994D01*
G01X5006397Y-21027369D01*
G01X5061334Y-21034117D01*
G01X5115852Y-21044239D01*
G01X5169782Y-21057736D01*
G01X5222958Y-21074606D01*
G01X5275211Y-21094851D01*
G01X5326375Y-21118470D01*
G01X5376280Y-21145463D01*
G01X5424760Y-21175830D01*
G01X5471647Y-21209572D01*
G01X5516772Y-21246687D01*
G01X5559969Y-21287177D01*
G01X5559969Y-21287177D01*
G01X5559969Y-21287177D01*
G01X5600459Y-21330373D01*
G01X5637574Y-21375499D01*
G01X5671315Y-21422386D01*
G01X5701682Y-21470865D01*
G01X5728675Y-21520771D01*
G01X5752294Y-21571934D01*
G01X5772539Y-21624187D01*
G01X5789410Y-21677363D01*
G01X5802906Y-21731294D01*
G01X5813029Y-21785811D01*
G01X5819777Y-21840748D01*
G01X5823151Y-21895937D01*
G01X5823151Y-21951209D01*
G01X5819777Y-22006397D01*
G01X5813029Y-22061334D01*
G01X5802906Y-22115851D01*
G01X5789410Y-22169782D01*
G01X5772539Y-22222958D01*
G01X5752294Y-22275211D01*
G01X5728675Y-22326374D01*
G01X5701682Y-22376280D01*
G01X5671315Y-22424760D01*
G01X5637574Y-22471646D01*
G01X5600459Y-22516772D01*
G01X5559969Y-22559969D01*
G01X5559969Y-22559969D01*
G01X5559969Y-22559969D01*
G01X5516772Y-22600458D01*
G01X5471647Y-22637574D01*
G01X5424760Y-22671315D01*
G01X5376280Y-22701682D01*
G01X5326375Y-22728675D01*
G01X5275211Y-22752294D01*
G01X5222958Y-22772539D01*
G01X5169782Y-22789410D01*
G01X5115852Y-22802906D01*
G01X5061334Y-22813029D01*
G01X5006397Y-22819777D01*
G01X4951209Y-22823151D01*
G01X4895937Y-22823151D01*
G01X4840748Y-22819777D01*
G01X4785812Y-22813029D01*
G01X4731294Y-22802906D01*
G01X4677364Y-22789410D01*
G01X4624188Y-22772539D01*
G01X4571934Y-22752294D01*
G01X4520771Y-22728675D01*
G01X4470866Y-22701682D01*
G01X4422386Y-22671315D01*
G01X4375499Y-22637574D01*
G01X4330374Y-22600458D01*
G01X4287177Y-22559969D01*
G01X4287177Y-22559969D01*
G37*
G36*
G01X3763918Y-20763918D02*
G01X4188182Y-20339653D01*
G01X4188182Y-20339653D01*
G01X4219814Y-20302468D01*
G01X4244417Y-20261789D01*
G01X4261991Y-20218489D01*
G01X4272535Y-20173442D01*
G01X4276049Y-20127521D01*
G01X4272535Y-20081601D01*
G01X4261991Y-20036554D01*
G01X4244417Y-19993254D01*
G01X4219814Y-19952575D01*
G01X4188182Y-19915389D01*
G01X4188182Y-19915389D01*
G01X3763918Y-19491125D01*
G01X3339653Y-19066861D01*
G01X3339653Y-19066861D01*
G01X3302468Y-19035229D01*
G01X3261789Y-19010626D01*
G01X3218489Y-18993052D01*
G01X3173442Y-18982508D01*
G01X3127521Y-18978994D01*
G01X3081601Y-18982508D01*
G01X3036554Y-18993052D01*
G01X2993254Y-19010626D01*
G01X2952575Y-19035229D01*
G01X2915389Y-19066861D01*
G01X2915389Y-19066861D01*
G01X2491125Y-19491125D01*
G01X2066861Y-19915389D01*
G01X2066861Y-19915389D01*
G01X2035229Y-19952575D01*
G01X2010626Y-19993254D01*
G01X1993052Y-20036554D01*
G01X1982508Y-20081601D01*
G01X1978994Y-20127521D01*
G01X1982508Y-20173442D01*
G01X1993052Y-20218489D01*
G01X2010626Y-20261789D01*
G01X2035229Y-20302468D01*
G01X2066861Y-20339653D01*
G01X2066861Y-20339653D01*
G01X2491125Y-20763918D01*
G01X2915389Y-21188182D01*
G01X2915389Y-21188182D01*
G01X2952575Y-21219814D01*
G01X2993254Y-21244417D01*
G01X3036554Y-21261991D01*
G01X3081601Y-21272535D01*
G01X3127521Y-21276049D01*
G01X3173442Y-21272535D01*
G01X3218489Y-21261991D01*
G01X3261789Y-21244417D01*
G01X3302468Y-21219814D01*
G01X3339653Y-21188182D01*
G01X3339653Y-21188182D01*
G01X3763918Y-20763918D01*
G37*
G36*
G01X11255547Y-2725547D02*
G01X11255547Y-2725547D01*
G01X11198136Y-2723227D01*
G01X11142004Y-2716385D01*
G01X11087329Y-2705203D01*
G01X11034293Y-2689861D01*
G01X10983076Y-2670538D01*
G01X10933857Y-2647414D01*
G01X10886817Y-2620671D01*
G01X10842136Y-2590488D01*
G01X10799995Y-2557045D01*
G01X10760572Y-2520522D01*
G01X10724050Y-2481100D01*
G01X10690607Y-2438958D01*
G01X10660423Y-2394277D01*
G01X10633680Y-2347237D01*
G01X10610557Y-2298019D01*
G01X10591234Y-2246801D01*
G01X10575891Y-2193765D01*
G01X10564709Y-2139091D01*
G01X10557868Y-2082958D01*
G01X10555547Y-2025547D01*
G01X10555547Y-2025547D01*
G01X10555547Y-2025547D01*
G01X10557868Y-1968136D01*
G01X10564709Y-1912004D01*
G01X10575891Y-1857329D01*
G01X10591234Y-1804293D01*
G01X10610557Y-1753076D01*
G01X10633680Y-1703857D01*
G01X10660423Y-1656817D01*
G01X10690607Y-1612136D01*
G01X10724050Y-1569995D01*
G01X10760572Y-1530572D01*
G01X10799995Y-1494050D01*
G01X10842136Y-1460607D01*
G01X10886817Y-1430423D01*
G01X10933857Y-1403680D01*
G01X10983076Y-1380557D01*
G01X11034293Y-1361234D01*
G01X11087329Y-1345891D01*
G01X11142004Y-1334709D01*
G01X11198136Y-1327868D01*
G01X11255547Y-1325547D01*
G01X11255547Y-1325547D01*
G01X11255547Y-1325547D01*
G01X11312958Y-1327868D01*
G01X11369091Y-1334709D01*
G01X11423765Y-1345891D01*
G01X11476801Y-1361234D01*
G01X11528019Y-1380557D01*
G01X11577237Y-1403680D01*
G01X11624277Y-1430423D01*
G01X11668958Y-1460607D01*
G01X11711100Y-1494050D01*
G01X11750522Y-1530572D01*
G01X11787045Y-1569995D01*
G01X11820488Y-1612136D01*
G01X11850671Y-1656817D01*
G01X11877414Y-1703857D01*
G01X11900538Y-1753076D01*
G01X11919861Y-1804293D01*
G01X11935203Y-1857329D01*
G01X11946385Y-1912004D01*
G01X11953227Y-1968136D01*
G01X11955547Y-2025547D01*
G01X11955547Y-2025547D01*
G01X11955547Y-2025547D01*
G01X11953227Y-2082958D01*
G01X11946385Y-2139091D01*
G01X11935203Y-2193765D01*
G01X11919861Y-2246801D01*
G01X11900538Y-2298019D01*
G01X11877414Y-2347237D01*
G01X11850671Y-2394277D01*
G01X11820488Y-2438958D01*
G01X11787045Y-2481100D01*
G01X11750522Y-2520522D01*
G01X11711100Y-2557045D01*
G01X11668958Y-2590488D01*
G01X11624277Y-2620671D01*
G01X11577237Y-2647414D01*
G01X11528019Y-2670538D01*
G01X11476801Y-2689861D01*
G01X11423765Y-2705203D01*
G01X11369091Y-2716385D01*
G01X11312958Y-2723227D01*
G01X11255547Y-2725547D01*
G01X11255547Y-2725547D01*
G37*
G36*
G01X13795547Y-2725547D02*
G01X13795547Y-2725547D01*
G01X13738136Y-2723227D01*
G01X13682004Y-2716385D01*
G01X13627329Y-2705203D01*
G01X13574293Y-2689861D01*
G01X13523076Y-2670538D01*
G01X13473857Y-2647414D01*
G01X13426817Y-2620671D01*
G01X13382136Y-2590488D01*
G01X13339995Y-2557045D01*
G01X13300572Y-2520522D01*
G01X13264050Y-2481100D01*
G01X13230607Y-2438958D01*
G01X13200423Y-2394277D01*
G01X13173680Y-2347237D01*
G01X13150557Y-2298019D01*
G01X13131234Y-2246801D01*
G01X13115891Y-2193765D01*
G01X13104709Y-2139091D01*
G01X13097868Y-2082958D01*
G01X13095547Y-2025547D01*
G01X13095547Y-2025547D01*
G01X13095547Y-2025547D01*
G01X13097868Y-1968136D01*
G01X13104709Y-1912004D01*
G01X13115891Y-1857329D01*
G01X13131234Y-1804293D01*
G01X13150557Y-1753076D01*
G01X13173680Y-1703857D01*
G01X13200423Y-1656817D01*
G01X13230607Y-1612136D01*
G01X13264050Y-1569995D01*
G01X13300572Y-1530572D01*
G01X13339995Y-1494050D01*
G01X13382136Y-1460607D01*
G01X13426817Y-1430423D01*
G01X13473857Y-1403680D01*
G01X13523076Y-1380557D01*
G01X13574293Y-1361234D01*
G01X13627329Y-1345891D01*
G01X13682004Y-1334709D01*
G01X13738136Y-1327868D01*
G01X13795547Y-1325547D01*
G01X13795547Y-1325547D01*
G01X13795547Y-1325547D01*
G01X13852958Y-1327868D01*
G01X13909091Y-1334709D01*
G01X13963765Y-1345891D01*
G01X14016801Y-1361234D01*
G01X14068019Y-1380557D01*
G01X14117237Y-1403680D01*
G01X14164277Y-1430423D01*
G01X14208958Y-1460607D01*
G01X14251100Y-1494050D01*
G01X14290522Y-1530572D01*
G01X14327045Y-1569995D01*
G01X14360488Y-1612136D01*
G01X14390671Y-1656817D01*
G01X14417414Y-1703857D01*
G01X14440538Y-1753076D01*
G01X14459861Y-1804293D01*
G01X14475203Y-1857329D01*
G01X14486385Y-1912004D01*
G01X14493227Y-1968136D01*
G01X14495547Y-2025547D01*
G01X14495547Y-2025547D01*
G01X14495547Y-2025547D01*
G01X14493227Y-2082958D01*
G01X14486385Y-2139091D01*
G01X14475203Y-2193765D01*
G01X14459861Y-2246801D01*
G01X14440538Y-2298019D01*
G01X14417414Y-2347237D01*
G01X14390671Y-2394277D01*
G01X14360488Y-2438958D01*
G01X14327045Y-2481100D01*
G01X14290522Y-2520522D01*
G01X14251100Y-2557045D01*
G01X14208958Y-2590488D01*
G01X14164277Y-2620671D01*
G01X14117237Y-2647414D01*
G01X14068019Y-2670538D01*
G01X14016801Y-2689861D01*
G01X13963765Y-2705203D01*
G01X13909091Y-2716385D01*
G01X13852958Y-2723227D01*
G01X13795547Y-2725547D01*
G01X13795547Y-2725547D01*
G37*
G36*
G01X15734521Y-6316573D02*
G01X15734521Y-6316573D01*
G01X15695566Y-6274337D01*
G01X15660712Y-6229808D01*
G01X15629958Y-6183240D01*
G01X15603305Y-6134889D01*
G01X15580752Y-6085009D01*
G01X15562300Y-6033856D01*
G01X15547948Y-5981683D01*
G01X15537697Y-5928746D01*
G01X15531546Y-5875300D01*
G01X15529496Y-5821599D01*
G01X15531546Y-5767897D01*
G01X15537697Y-5714451D01*
G01X15547948Y-5661514D01*
G01X15562300Y-5609341D01*
G01X15580752Y-5558188D01*
G01X15603305Y-5508308D01*
G01X15629958Y-5459957D01*
G01X15660712Y-5413390D01*
G01X15695566Y-5368860D01*
G01X15734521Y-5326624D01*
G01X15734521Y-5326624D01*
G01X15734521Y-5326624D01*
G01X15776757Y-5287669D01*
G01X15821287Y-5252815D01*
G01X15867854Y-5222061D01*
G01X15916205Y-5195408D01*
G01X15966085Y-5172855D01*
G01X16017239Y-5154403D01*
G01X16069411Y-5140051D01*
G01X16122348Y-5129800D01*
G01X16175794Y-5123649D01*
G01X16229496Y-5121599D01*
G01X16283197Y-5123649D01*
G01X16336643Y-5129800D01*
G01X16389580Y-5140051D01*
G01X16441753Y-5154403D01*
G01X16492906Y-5172855D01*
G01X16542786Y-5195408D01*
G01X16591137Y-5222061D01*
G01X16637705Y-5252815D01*
G01X16682234Y-5287669D01*
G01X16724470Y-5326624D01*
G01X16724470Y-5326624D01*
G01X16724470Y-5326624D01*
G01X16763425Y-5368860D01*
G01X16798280Y-5413390D01*
G01X16829033Y-5459957D01*
G01X16855687Y-5508308D01*
G01X16878239Y-5558188D01*
G01X16896692Y-5609341D01*
G01X16911043Y-5661514D01*
G01X16921295Y-5714451D01*
G01X16927445Y-5767897D01*
G01X16929496Y-5821599D01*
G01X16927445Y-5875300D01*
G01X16921295Y-5928746D01*
G01X16911043Y-5981683D01*
G01X16896692Y-6033856D01*
G01X16878239Y-6085009D01*
G01X16855687Y-6134889D01*
G01X16829033Y-6183240D01*
G01X16798280Y-6229808D01*
G01X16763425Y-6274337D01*
G01X16724470Y-6316573D01*
G01X16724470Y-6316573D01*
G01X16724470Y-6316573D01*
G01X16682234Y-6355528D01*
G01X16637705Y-6390382D01*
G01X16591137Y-6421136D01*
G01X16542786Y-6447790D01*
G01X16492906Y-6470342D01*
G01X16441753Y-6488795D01*
G01X16389580Y-6503146D01*
G01X16336643Y-6513398D01*
G01X16283197Y-6519548D01*
G01X16229496Y-6521599D01*
G01X16175794Y-6519548D01*
G01X16122348Y-6513398D01*
G01X16069411Y-6503146D01*
G01X16017239Y-6488795D01*
G01X15966085Y-6470342D01*
G01X15916205Y-6447790D01*
G01X15867854Y-6421136D01*
G01X15821287Y-6390382D01*
G01X15776757Y-6355528D01*
G01X15734521Y-6316573D01*
G01X15734521Y-6316573D01*
G37*
G36*
G01X19326623Y-2724471D02*
G01X19326623Y-2724471D01*
G01X19287669Y-2682234D01*
G01X19252814Y-2637705D01*
G01X19222060Y-2591137D01*
G01X19195407Y-2542786D01*
G01X19172854Y-2492907D01*
G01X19154402Y-2441753D01*
G01X19140050Y-2389581D01*
G01X19129799Y-2336644D01*
G01X19123648Y-2283197D01*
G01X19121598Y-2229496D01*
G01X19123648Y-2175795D01*
G01X19129799Y-2122349D01*
G01X19140050Y-2069412D01*
G01X19154402Y-2017239D01*
G01X19172854Y-1966086D01*
G01X19195407Y-1916206D01*
G01X19222060Y-1867855D01*
G01X19252814Y-1821287D01*
G01X19287669Y-1776758D01*
G01X19326623Y-1734521D01*
G01X19326623Y-1734521D01*
G01X19326623Y-1734521D01*
G01X19368860Y-1695567D01*
G01X19413389Y-1660712D01*
G01X19459957Y-1629959D01*
G01X19508308Y-1603305D01*
G01X19558187Y-1580753D01*
G01X19609341Y-1562300D01*
G01X19661514Y-1547948D01*
G01X19714450Y-1537697D01*
G01X19767897Y-1531546D01*
G01X19821598Y-1529496D01*
G01X19875299Y-1531546D01*
G01X19928746Y-1537697D01*
G01X19981683Y-1547948D01*
G01X20033855Y-1562300D01*
G01X20085009Y-1580753D01*
G01X20134888Y-1603305D01*
G01X20183239Y-1629959D01*
G01X20229807Y-1660712D01*
G01X20274336Y-1695567D01*
G01X20316573Y-1734521D01*
G01X20316573Y-1734521D01*
G01X20316573Y-1734521D01*
G01X20355528Y-1776758D01*
G01X20390382Y-1821287D01*
G01X20421136Y-1867855D01*
G01X20447789Y-1916206D01*
G01X20470342Y-1966086D01*
G01X20488794Y-2017239D01*
G01X20503146Y-2069412D01*
G01X20513397Y-2122349D01*
G01X20519548Y-2175795D01*
G01X20521598Y-2229496D01*
G01X20519548Y-2283197D01*
G01X20513397Y-2336644D01*
G01X20503146Y-2389581D01*
G01X20488794Y-2441753D01*
G01X20470342Y-2492907D01*
G01X20447789Y-2542786D01*
G01X20421136Y-2591137D01*
G01X20390382Y-2637705D01*
G01X20355528Y-2682234D01*
G01X20316573Y-2724471D01*
G01X20316573Y-2724471D01*
G01X20316573Y-2724471D01*
G01X20274336Y-2763426D01*
G01X20229807Y-2798280D01*
G01X20183239Y-2829034D01*
G01X20134888Y-2855687D01*
G01X20085009Y-2878240D01*
G01X20033855Y-2896692D01*
G01X19981683Y-2911044D01*
G01X19928746Y-2921295D01*
G01X19875299Y-2927446D01*
G01X19821598Y-2929496D01*
G01X19767897Y-2927446D01*
G01X19714450Y-2921295D01*
G01X19661514Y-2911044D01*
G01X19609341Y-2896692D01*
G01X19558187Y-2878240D01*
G01X19508308Y-2855687D01*
G01X19459957Y-2829034D01*
G01X19413389Y-2798280D01*
G01X19368860Y-2763426D01*
G01X19326623Y-2724471D01*
G01X19326623Y-2724471D01*
G37*
G36*
G01X8715547Y-15635547D02*
G01X8265547Y-15635547D01*
G01X8265547Y-15635547D01*
G01X8213213Y-15641033D01*
G01X8164661Y-15656739D01*
G01X8121021Y-15681532D01*
G01X8083425Y-15714282D01*
G01X8053003Y-15753858D01*
G01X8030886Y-15799130D01*
G01X8018204Y-15848966D01*
G01X8015547Y-15885547D01*
G01X8015547Y-16335547D01*
G01X8015547Y-16785547D01*
G01X8015547Y-16785547D01*
G01X8021033Y-16837881D01*
G01X8036739Y-16886433D01*
G01X8061532Y-16930073D01*
G01X8094282Y-16967669D01*
G01X8133858Y-16998091D01*
G01X8179130Y-17020209D01*
G01X8228966Y-17032890D01*
G01X8265547Y-17035547D01*
G01X8715547Y-17035547D01*
G01X9165547Y-17035547D01*
G01X9165547Y-17035547D01*
G01X9217881Y-17030061D01*
G01X9266433Y-17014356D01*
G01X9310073Y-16989563D01*
G01X9347669Y-16956813D01*
G01X9378091Y-16917236D01*
G01X9400209Y-16871965D01*
G01X9412890Y-16822129D01*
G01X9415547Y-16785547D01*
G01X9415547Y-16335547D01*
G01X9415547Y-15885547D01*
G01X9415547Y-15885547D01*
G01X9410061Y-15833213D01*
G01X9394356Y-15784661D01*
G01X9369563Y-15741021D01*
G01X9336813Y-15703425D01*
G01X9297236Y-15673003D01*
G01X9251965Y-15650886D01*
G01X9202129Y-15638204D01*
G01X9165547Y-15635547D01*
G01X8715547Y-15635547D01*
G37*
G36*
G01X8015547Y-11255547D02*
G01X8015547Y-11255547D01*
G01X8017868Y-11198136D01*
G01X8024709Y-11142004D01*
G01X8035891Y-11087329D01*
G01X8051234Y-11034293D01*
G01X8070557Y-10983076D01*
G01X8093680Y-10933857D01*
G01X8120423Y-10886817D01*
G01X8150607Y-10842136D01*
G01X8184050Y-10799995D01*
G01X8220572Y-10760572D01*
G01X8259995Y-10724050D01*
G01X8302136Y-10690607D01*
G01X8346817Y-10660423D01*
G01X8393857Y-10633680D01*
G01X8443076Y-10610557D01*
G01X8494293Y-10591234D01*
G01X8547329Y-10575891D01*
G01X8602004Y-10564709D01*
G01X8658136Y-10557868D01*
G01X8715547Y-10555547D01*
G01X8715547Y-10555547D01*
G01X8715547Y-10555547D01*
G01X8772958Y-10557868D01*
G01X8829091Y-10564709D01*
G01X8883765Y-10575891D01*
G01X8936801Y-10591234D01*
G01X8988019Y-10610557D01*
G01X9037237Y-10633680D01*
G01X9084277Y-10660423D01*
G01X9128958Y-10690607D01*
G01X9171100Y-10724050D01*
G01X9210522Y-10760572D01*
G01X9247045Y-10799995D01*
G01X9280488Y-10842136D01*
G01X9310671Y-10886817D01*
G01X9337414Y-10933857D01*
G01X9360538Y-10983076D01*
G01X9379861Y-11034293D01*
G01X9395203Y-11087329D01*
G01X9406385Y-11142004D01*
G01X9413227Y-11198136D01*
G01X9415547Y-11255547D01*
G01X9415547Y-11255547D01*
G01X9415547Y-11255547D01*
G01X9413227Y-11312958D01*
G01X9406385Y-11369091D01*
G01X9395203Y-11423765D01*
G01X9379861Y-11476801D01*
G01X9360538Y-11528019D01*
G01X9337414Y-11577237D01*
G01X9310671Y-11624277D01*
G01X9280488Y-11668958D01*
G01X9247045Y-11711100D01*
G01X9210522Y-11750522D01*
G01X9171100Y-11787045D01*
G01X9128958Y-11820488D01*
G01X9084277Y-11850671D01*
G01X9037237Y-11877414D01*
G01X8988019Y-11900538D01*
G01X8936801Y-11919861D01*
G01X8883765Y-11935203D01*
G01X8829091Y-11946385D01*
G01X8772958Y-11953227D01*
G01X8715547Y-11955547D01*
G01X8715547Y-11955547D01*
G01X8715547Y-11955547D01*
G01X8658136Y-11953227D01*
G01X8602004Y-11946385D01*
G01X8547329Y-11935203D01*
G01X8494293Y-11919861D01*
G01X8443076Y-11900538D01*
G01X8393857Y-11877414D01*
G01X8346817Y-11850671D01*
G01X8302136Y-11820488D01*
G01X8259995Y-11787045D01*
G01X8220572Y-11750522D01*
G01X8184050Y-11711100D01*
G01X8150607Y-11668958D01*
G01X8120423Y-11624277D01*
G01X8093680Y-11577237D01*
G01X8070557Y-11528019D01*
G01X8051234Y-11476801D01*
G01X8035891Y-11423765D01*
G01X8024709Y-11369091D01*
G01X8017868Y-11312958D01*
G01X8015547Y-11255547D01*
G01X8015547Y-11255547D01*
G37*
G36*
G01X8015547Y-13795547D02*
G01X8015547Y-13795547D01*
G01X8017868Y-13738136D01*
G01X8024709Y-13682004D01*
G01X8035891Y-13627329D01*
G01X8051234Y-13574293D01*
G01X8070557Y-13523076D01*
G01X8093680Y-13473857D01*
G01X8120423Y-13426817D01*
G01X8150607Y-13382136D01*
G01X8184050Y-13339995D01*
G01X8220572Y-13300572D01*
G01X8259995Y-13264050D01*
G01X8302136Y-13230607D01*
G01X8346817Y-13200423D01*
G01X8393857Y-13173680D01*
G01X8443076Y-13150557D01*
G01X8494293Y-13131234D01*
G01X8547329Y-13115891D01*
G01X8602004Y-13104709D01*
G01X8658136Y-13097868D01*
G01X8715547Y-13095547D01*
G01X8715547Y-13095547D01*
G01X8715547Y-13095547D01*
G01X8772958Y-13097868D01*
G01X8829091Y-13104709D01*
G01X8883765Y-13115891D01*
G01X8936801Y-13131234D01*
G01X8988019Y-13150557D01*
G01X9037237Y-13173680D01*
G01X9084277Y-13200423D01*
G01X9128958Y-13230607D01*
G01X9171100Y-13264050D01*
G01X9210522Y-13300572D01*
G01X9247045Y-13339995D01*
G01X9280488Y-13382136D01*
G01X9310671Y-13426817D01*
G01X9337414Y-13473857D01*
G01X9360538Y-13523076D01*
G01X9379861Y-13574293D01*
G01X9395203Y-13627329D01*
G01X9406385Y-13682004D01*
G01X9413227Y-13738136D01*
G01X9415547Y-13795547D01*
G01X9415547Y-13795547D01*
G01X9415547Y-13795547D01*
G01X9413227Y-13852958D01*
G01X9406385Y-13909091D01*
G01X9395203Y-13963765D01*
G01X9379861Y-14016801D01*
G01X9360538Y-14068019D01*
G01X9337414Y-14117237D01*
G01X9310671Y-14164277D01*
G01X9280488Y-14208958D01*
G01X9247045Y-14251100D01*
G01X9210522Y-14290522D01*
G01X9171100Y-14327045D01*
G01X9128958Y-14360488D01*
G01X9084277Y-14390671D01*
G01X9037237Y-14417414D01*
G01X8988019Y-14440538D01*
G01X8936801Y-14459861D01*
G01X8883765Y-14475203D01*
G01X8829091Y-14486385D01*
G01X8772958Y-14493227D01*
G01X8715547Y-14495547D01*
G01X8715547Y-14495547D01*
G01X8715547Y-14495547D01*
G01X8658136Y-14493227D01*
G01X8602004Y-14486385D01*
G01X8547329Y-14475203D01*
G01X8494293Y-14459861D01*
G01X8443076Y-14440538D01*
G01X8393857Y-14417414D01*
G01X8346817Y-14390671D01*
G01X8302136Y-14360488D01*
G01X8259995Y-14327045D01*
G01X8220572Y-14290522D01*
G01X8184050Y-14251100D01*
G01X8150607Y-14208958D01*
G01X8120423Y-14164277D01*
G01X8093680Y-14117237D01*
G01X8070557Y-14068019D01*
G01X8051234Y-14016801D01*
G01X8035891Y-13963765D01*
G01X8024709Y-13909091D01*
G01X8017868Y-13852958D01*
G01X8015547Y-13795547D01*
G01X8015547Y-13795547D01*
G37*
G36*
G01X15635547Y-8715547D02*
G01X15635547Y-8715547D01*
G01X15637868Y-8658136D01*
G01X15644709Y-8602004D01*
G01X15655891Y-8547329D01*
G01X15671234Y-8494293D01*
G01X15690557Y-8443076D01*
G01X15713680Y-8393857D01*
G01X15740423Y-8346817D01*
G01X15770607Y-8302136D01*
G01X15804050Y-8259995D01*
G01X15840572Y-8220572D01*
G01X15879995Y-8184050D01*
G01X15922136Y-8150607D01*
G01X15966817Y-8120423D01*
G01X16013857Y-8093680D01*
G01X16063076Y-8070557D01*
G01X16114293Y-8051234D01*
G01X16167329Y-8035891D01*
G01X16222004Y-8024709D01*
G01X16278136Y-8017868D01*
G01X16335547Y-8015547D01*
G01X16335547Y-8015547D01*
G01X16335547Y-8015547D01*
G01X16392958Y-8017868D01*
G01X16449091Y-8024709D01*
G01X16503765Y-8035891D01*
G01X16556801Y-8051234D01*
G01X16608019Y-8070557D01*
G01X16657237Y-8093680D01*
G01X16704277Y-8120423D01*
G01X16748958Y-8150607D01*
G01X16791100Y-8184050D01*
G01X16830522Y-8220572D01*
G01X16867045Y-8259995D01*
G01X16900488Y-8302136D01*
G01X16930671Y-8346817D01*
G01X16957414Y-8393857D01*
G01X16980538Y-8443076D01*
G01X16999861Y-8494293D01*
G01X17015203Y-8547329D01*
G01X17026385Y-8602004D01*
G01X17033227Y-8658136D01*
G01X17035547Y-8715547D01*
G01X17035547Y-8715547D01*
G01X17035547Y-8715547D01*
G01X17033227Y-8772958D01*
G01X17026385Y-8829091D01*
G01X17015203Y-8883765D01*
G01X16999861Y-8936801D01*
G01X16980538Y-8988019D01*
G01X16957414Y-9037237D01*
G01X16930671Y-9084277D01*
G01X16900488Y-9128958D01*
G01X16867045Y-9171100D01*
G01X16830522Y-9210522D01*
G01X16791100Y-9247045D01*
G01X16748958Y-9280488D01*
G01X16704277Y-9310671D01*
G01X16657237Y-9337414D01*
G01X16608019Y-9360538D01*
G01X16556801Y-9379861D01*
G01X16503765Y-9395203D01*
G01X16449091Y-9406385D01*
G01X16392958Y-9413227D01*
G01X16335547Y-9415547D01*
G01X16335547Y-9415547D01*
G01X16335547Y-9415547D01*
G01X16278136Y-9413227D01*
G01X16222004Y-9406385D01*
G01X16167329Y-9395203D01*
G01X16114293Y-9379861D01*
G01X16063076Y-9360538D01*
G01X16013857Y-9337414D01*
G01X15966817Y-9310671D01*
G01X15922136Y-9280488D01*
G01X15879995Y-9247045D01*
G01X15840572Y-9210522D01*
G01X15804050Y-9171100D01*
G01X15770607Y-9128958D01*
G01X15740423Y-9084277D01*
G01X15713680Y-9037237D01*
G01X15690557Y-8988019D01*
G01X15671234Y-8936801D01*
G01X15655891Y-8883765D01*
G01X15644709Y-8829091D01*
G01X15637868Y-8772958D01*
G01X15635547Y-8715547D01*
G01X15635547Y-8715547D01*
G37*
G36*
G01X8015547Y-8715547D02*
G01X8015547Y-8715547D01*
G01X8017868Y-8658136D01*
G01X8024709Y-8602004D01*
G01X8035891Y-8547329D01*
G01X8051234Y-8494293D01*
G01X8070557Y-8443076D01*
G01X8093680Y-8393857D01*
G01X8120423Y-8346817D01*
G01X8150607Y-8302136D01*
G01X8184050Y-8259995D01*
G01X8220572Y-8220572D01*
G01X8259995Y-8184050D01*
G01X8302136Y-8150607D01*
G01X8346817Y-8120423D01*
G01X8393857Y-8093680D01*
G01X8443076Y-8070557D01*
G01X8494293Y-8051234D01*
G01X8547329Y-8035891D01*
G01X8602004Y-8024709D01*
G01X8658136Y-8017868D01*
G01X8715547Y-8015547D01*
G01X8715547Y-8015547D01*
G01X8715547Y-8015547D01*
G01X8772958Y-8017868D01*
G01X8829091Y-8024709D01*
G01X8883765Y-8035891D01*
G01X8936801Y-8051234D01*
G01X8988019Y-8070557D01*
G01X9037237Y-8093680D01*
G01X9084277Y-8120423D01*
G01X9128958Y-8150607D01*
G01X9171100Y-8184050D01*
G01X9210522Y-8220572D01*
G01X9247045Y-8259995D01*
G01X9280488Y-8302136D01*
G01X9310671Y-8346817D01*
G01X9337414Y-8393857D01*
G01X9360538Y-8443076D01*
G01X9379861Y-8494293D01*
G01X9395203Y-8547329D01*
G01X9406385Y-8602004D01*
G01X9413227Y-8658136D01*
G01X9415547Y-8715547D01*
G01X9415547Y-8715547D01*
G01X9415547Y-8715547D01*
G01X9413227Y-8772958D01*
G01X9406385Y-8829091D01*
G01X9395203Y-8883765D01*
G01X9379861Y-8936801D01*
G01X9360538Y-8988019D01*
G01X9337414Y-9037237D01*
G01X9310671Y-9084277D01*
G01X9280488Y-9128958D01*
G01X9247045Y-9171100D01*
G01X9210522Y-9210522D01*
G01X9171100Y-9247045D01*
G01X9128958Y-9280488D01*
G01X9084277Y-9310671D01*
G01X9037237Y-9337414D01*
G01X8988019Y-9360538D01*
G01X8936801Y-9379861D01*
G01X8883765Y-9395203D01*
G01X8829091Y-9406385D01*
G01X8772958Y-9413227D01*
G01X8715547Y-9415547D01*
G01X8715547Y-9415547D01*
G01X8715547Y-9415547D01*
G01X8658136Y-9413227D01*
G01X8602004Y-9406385D01*
G01X8547329Y-9395203D01*
G01X8494293Y-9379861D01*
G01X8443076Y-9360538D01*
G01X8393857Y-9337414D01*
G01X8346817Y-9310671D01*
G01X8302136Y-9280488D01*
G01X8259995Y-9247045D01*
G01X8220572Y-9210522D01*
G01X8184050Y-9171100D01*
G01X8150607Y-9128958D01*
G01X8120423Y-9084277D01*
G01X8093680Y-9037237D01*
G01X8070557Y-8988019D01*
G01X8051234Y-8936801D01*
G01X8035891Y-8883765D01*
G01X8024709Y-8829091D01*
G01X8017868Y-8772958D01*
G01X8015547Y-8715547D01*
G01X8015547Y-8715547D01*
G37*
G36*
G01X15635547Y-13795547D02*
G01X15635547Y-13795547D01*
G01X15637868Y-13738136D01*
G01X15644709Y-13682004D01*
G01X15655891Y-13627329D01*
G01X15671234Y-13574293D01*
G01X15690557Y-13523076D01*
G01X15713680Y-13473857D01*
G01X15740423Y-13426817D01*
G01X15770607Y-13382136D01*
G01X15804050Y-13339995D01*
G01X15840572Y-13300572D01*
G01X15879995Y-13264050D01*
G01X15922136Y-13230607D01*
G01X15966817Y-13200423D01*
G01X16013857Y-13173680D01*
G01X16063076Y-13150557D01*
G01X16114293Y-13131234D01*
G01X16167329Y-13115891D01*
G01X16222004Y-13104709D01*
G01X16278136Y-13097868D01*
G01X16335547Y-13095547D01*
G01X16335547Y-13095547D01*
G01X16335547Y-13095547D01*
G01X16392958Y-13097868D01*
G01X16449091Y-13104709D01*
G01X16503765Y-13115891D01*
G01X16556801Y-13131234D01*
G01X16608019Y-13150557D01*
G01X16657237Y-13173680D01*
G01X16704277Y-13200423D01*
G01X16748958Y-13230607D01*
G01X16791100Y-13264050D01*
G01X16830522Y-13300572D01*
G01X16867045Y-13339995D01*
G01X16900488Y-13382136D01*
G01X16930671Y-13426817D01*
G01X16957414Y-13473857D01*
G01X16980538Y-13523076D01*
G01X16999861Y-13574293D01*
G01X17015203Y-13627329D01*
G01X17026385Y-13682004D01*
G01X17033227Y-13738136D01*
G01X17035547Y-13795547D01*
G01X17035547Y-13795547D01*
G01X17035547Y-13795547D01*
G01X17033227Y-13852958D01*
G01X17026385Y-13909091D01*
G01X17015203Y-13963765D01*
G01X16999861Y-14016801D01*
G01X16980538Y-14068019D01*
G01X16957414Y-14117237D01*
G01X16930671Y-14164277D01*
G01X16900488Y-14208958D01*
G01X16867045Y-14251100D01*
G01X16830522Y-14290522D01*
G01X16791100Y-14327045D01*
G01X16748958Y-14360488D01*
G01X16704277Y-14390671D01*
G01X16657237Y-14417414D01*
G01X16608019Y-14440538D01*
G01X16556801Y-14459861D01*
G01X16503765Y-14475203D01*
G01X16449091Y-14486385D01*
G01X16392958Y-14493227D01*
G01X16335547Y-14495547D01*
G01X16335547Y-14495547D01*
G01X16335547Y-14495547D01*
G01X16278136Y-14493227D01*
G01X16222004Y-14486385D01*
G01X16167329Y-14475203D01*
G01X16114293Y-14459861D01*
G01X16063076Y-14440538D01*
G01X16013857Y-14417414D01*
G01X15966817Y-14390671D01*
G01X15922136Y-14360488D01*
G01X15879995Y-14327045D01*
G01X15840572Y-14290522D01*
G01X15804050Y-14251100D01*
G01X15770607Y-14208958D01*
G01X15740423Y-14164277D01*
G01X15713680Y-14117237D01*
G01X15690557Y-14068019D01*
G01X15671234Y-14016801D01*
G01X15655891Y-13963765D01*
G01X15644709Y-13909091D01*
G01X15637868Y-13852958D01*
G01X15635547Y-13795547D01*
G01X15635547Y-13795547D01*
G37*
G36*
G01X15635547Y-11255547D02*
G01X15635547Y-11255547D01*
G01X15637868Y-11198136D01*
G01X15644709Y-11142004D01*
G01X15655891Y-11087329D01*
G01X15671234Y-11034293D01*
G01X15690557Y-10983076D01*
G01X15713680Y-10933857D01*
G01X15740423Y-10886817D01*
G01X15770607Y-10842136D01*
G01X15804050Y-10799995D01*
G01X15840572Y-10760572D01*
G01X15879995Y-10724050D01*
G01X15922136Y-10690607D01*
G01X15966817Y-10660423D01*
G01X16013857Y-10633680D01*
G01X16063076Y-10610557D01*
G01X16114293Y-10591234D01*
G01X16167329Y-10575891D01*
G01X16222004Y-10564709D01*
G01X16278136Y-10557868D01*
G01X16335547Y-10555547D01*
G01X16335547Y-10555547D01*
G01X16335547Y-10555547D01*
G01X16392958Y-10557868D01*
G01X16449091Y-10564709D01*
G01X16503765Y-10575891D01*
G01X16556801Y-10591234D01*
G01X16608019Y-10610557D01*
G01X16657237Y-10633680D01*
G01X16704277Y-10660423D01*
G01X16748958Y-10690607D01*
G01X16791100Y-10724050D01*
G01X16830522Y-10760572D01*
G01X16867045Y-10799995D01*
G01X16900488Y-10842136D01*
G01X16930671Y-10886817D01*
G01X16957414Y-10933857D01*
G01X16980538Y-10983076D01*
G01X16999861Y-11034293D01*
G01X17015203Y-11087329D01*
G01X17026385Y-11142004D01*
G01X17033227Y-11198136D01*
G01X17035547Y-11255547D01*
G01X17035547Y-11255547D01*
G01X17035547Y-11255547D01*
G01X17033227Y-11312958D01*
G01X17026385Y-11369091D01*
G01X17015203Y-11423765D01*
G01X16999861Y-11476801D01*
G01X16980538Y-11528019D01*
G01X16957414Y-11577237D01*
G01X16930671Y-11624277D01*
G01X16900488Y-11668958D01*
G01X16867045Y-11711100D01*
G01X16830522Y-11750522D01*
G01X16791100Y-11787045D01*
G01X16748958Y-11820488D01*
G01X16704277Y-11850671D01*
G01X16657237Y-11877414D01*
G01X16608019Y-11900538D01*
G01X16556801Y-11919861D01*
G01X16503765Y-11935203D01*
G01X16449091Y-11946385D01*
G01X16392958Y-11953227D01*
G01X16335547Y-11955547D01*
G01X16335547Y-11955547D01*
G01X16335547Y-11955547D01*
G01X16278136Y-11953227D01*
G01X16222004Y-11946385D01*
G01X16167329Y-11935203D01*
G01X16114293Y-11919861D01*
G01X16063076Y-11900538D01*
G01X16013857Y-11877414D01*
G01X15966817Y-11850671D01*
G01X15922136Y-11820488D01*
G01X15879995Y-11787045D01*
G01X15840572Y-11750522D01*
G01X15804050Y-11711100D01*
G01X15770607Y-11668958D01*
G01X15740423Y-11624277D01*
G01X15713680Y-11577237D01*
G01X15690557Y-11528019D01*
G01X15671234Y-11476801D01*
G01X15655891Y-11423765D01*
G01X15644709Y-11369091D01*
G01X15637868Y-11312958D01*
G01X15635547Y-11255547D01*
G01X15635547Y-11255547D01*
G37*
G36*
G01X15635547Y-16335547D02*
G01X15635547Y-16335547D01*
G01X15637868Y-16278136D01*
G01X15644709Y-16222004D01*
G01X15655891Y-16167329D01*
G01X15671234Y-16114293D01*
G01X15690557Y-16063076D01*
G01X15713680Y-16013857D01*
G01X15740423Y-15966817D01*
G01X15770607Y-15922136D01*
G01X15804050Y-15879995D01*
G01X15840572Y-15840572D01*
G01X15879995Y-15804050D01*
G01X15922136Y-15770607D01*
G01X15966817Y-15740423D01*
G01X16013857Y-15713680D01*
G01X16063076Y-15690557D01*
G01X16114293Y-15671234D01*
G01X16167329Y-15655891D01*
G01X16222004Y-15644709D01*
G01X16278136Y-15637868D01*
G01X16335547Y-15635547D01*
G01X16335547Y-15635547D01*
G01X16335547Y-15635547D01*
G01X16392958Y-15637868D01*
G01X16449091Y-15644709D01*
G01X16503765Y-15655891D01*
G01X16556801Y-15671234D01*
G01X16608019Y-15690557D01*
G01X16657237Y-15713680D01*
G01X16704277Y-15740423D01*
G01X16748958Y-15770607D01*
G01X16791100Y-15804050D01*
G01X16830522Y-15840572D01*
G01X16867045Y-15879995D01*
G01X16900488Y-15922136D01*
G01X16930671Y-15966817D01*
G01X16957414Y-16013857D01*
G01X16980538Y-16063076D01*
G01X16999861Y-16114293D01*
G01X17015203Y-16167329D01*
G01X17026385Y-16222004D01*
G01X17033227Y-16278136D01*
G01X17035547Y-16335547D01*
G01X17035547Y-16335547D01*
G01X17035547Y-16335547D01*
G01X17033227Y-16392958D01*
G01X17026385Y-16449091D01*
G01X17015203Y-16503765D01*
G01X16999861Y-16556801D01*
G01X16980538Y-16608019D01*
G01X16957414Y-16657237D01*
G01X16930671Y-16704277D01*
G01X16900488Y-16748958D01*
G01X16867045Y-16791100D01*
G01X16830522Y-16830522D01*
G01X16791100Y-16867045D01*
G01X16748958Y-16900488D01*
G01X16704277Y-16930671D01*
G01X16657237Y-16957414D01*
G01X16608019Y-16980538D01*
G01X16556801Y-16999861D01*
G01X16503765Y-17015203D01*
G01X16449091Y-17026385D01*
G01X16392958Y-17033227D01*
G01X16335547Y-17035547D01*
G01X16335547Y-17035547D01*
G01X16335547Y-17035547D01*
G01X16278136Y-17033227D01*
G01X16222004Y-17026385D01*
G01X16167329Y-17015203D01*
G01X16114293Y-16999861D01*
G01X16063076Y-16980538D01*
G01X16013857Y-16957414D01*
G01X15966817Y-16930671D01*
G01X15922136Y-16900488D01*
G01X15879995Y-16867045D01*
G01X15840572Y-16830522D01*
G01X15804050Y-16791100D01*
G01X15770607Y-16748958D01*
G01X15740423Y-16704277D01*
G01X15713680Y-16657237D01*
G01X15690557Y-16608019D01*
G01X15671234Y-16556801D01*
G01X15655891Y-16503765D01*
G01X15644709Y-16449091D01*
G01X15637868Y-16392958D01*
G01X15635547Y-16335547D01*
G01X15635547Y-16335547D01*
G37*
G36*
G01X11418105Y-22000628D02*
G01X11733572Y-21550094D01*
G01X11733572Y-21550094D01*
G01X11754502Y-21506870D01*
G01X11760677Y-21460927D01*
G01X11752703Y-21415704D01*
G01X11731187Y-21374643D01*
G01X11696736Y-21341185D01*
G01X11696736Y-21341185D01*
G01X11246202Y-21025718D01*
G01X10795669Y-20710251D01*
G01X10795669Y-20710251D01*
G01X10752445Y-20689321D01*
G01X10706501Y-20683146D01*
G01X10661279Y-20691120D01*
G01X10620218Y-20712636D01*
G01X10586759Y-20747087D01*
G01X10586759Y-20747087D01*
G01X10271292Y-21197621D01*
G01X9955825Y-21648154D01*
G01X9955825Y-21648154D01*
G01X9934895Y-21691378D01*
G01X9928720Y-21737321D01*
G01X9936694Y-21782544D01*
G01X9958210Y-21823605D01*
G01X9992662Y-21857063D01*
G01X9992662Y-21857063D01*
G01X10443195Y-22172531D01*
G01X10893729Y-22487998D01*
G01X10893729Y-22487998D01*
G01X10936952Y-22508928D01*
G01X10982896Y-22515102D01*
G01X11028119Y-22507128D01*
G01X11069180Y-22485612D01*
G01X11102638Y-22451161D01*
G01X11102638Y-22451161D01*
G01X11418105Y-22000628D01*
G37*
G36*
G01X8804891Y-21025377D02*
G01X8804891Y-21025377D01*
G01X8759194Y-20990546D01*
G01X8717137Y-20952746D01*
G01X8678764Y-20912226D01*
G01X8644119Y-20869238D01*
G01X8613248Y-20824032D01*
G01X8586193Y-20776860D01*
G01X8563000Y-20727972D01*
G01X8543712Y-20677620D01*
G01X8528373Y-20626053D01*
G01X8517029Y-20573524D01*
G01X8509723Y-20520283D01*
G01X8506500Y-20466580D01*
G01X8507403Y-20412667D01*
G01X8512477Y-20358795D01*
G01X8521766Y-20305215D01*
G01X8535315Y-20252176D01*
G01X8553167Y-20199932D01*
G01X8575367Y-20148731D01*
G01X8601959Y-20098826D01*
G01X8632988Y-20050467D01*
G01X8632988Y-20050467D01*
G01X8632988Y-20050467D01*
G01X8667819Y-20004769D01*
G01X8705619Y-19962712D01*
G01X8746139Y-19924339D01*
G01X8789127Y-19889695D01*
G01X8834333Y-19858823D01*
G01X8881505Y-19831769D01*
G01X8930393Y-19808575D01*
G01X8980745Y-19789287D01*
G01X9032312Y-19773949D01*
G01X9084841Y-19762605D01*
G01X9138082Y-19755299D01*
G01X9191785Y-19752075D01*
G01X9245698Y-19752978D01*
G01X9299570Y-19758052D01*
G01X9353150Y-19767342D01*
G01X9406188Y-19780890D01*
G01X9458433Y-19798743D01*
G01X9509634Y-19820943D01*
G01X9559539Y-19847535D01*
G01X9607898Y-19878564D01*
G01X9607898Y-19878564D01*
G01X9607898Y-19878564D01*
G01X9653595Y-19913394D01*
G01X9695653Y-19951195D01*
G01X9734026Y-19991715D01*
G01X9768670Y-20034703D01*
G01X9799542Y-20079908D01*
G01X9826596Y-20127080D01*
G01X9849790Y-20175968D01*
G01X9869078Y-20226321D01*
G01X9884416Y-20277887D01*
G01X9895760Y-20330417D01*
G01X9903066Y-20383658D01*
G01X9906290Y-20437361D01*
G01X9905387Y-20491273D01*
G01X9900312Y-20545145D01*
G01X9891023Y-20598726D01*
G01X9877475Y-20651764D01*
G01X9859622Y-20704009D01*
G01X9837422Y-20755209D01*
G01X9810830Y-20805115D01*
G01X9779801Y-20853474D01*
G01X9779801Y-20853474D01*
G01X9779801Y-20853474D01*
G01X9744971Y-20899171D01*
G01X9707170Y-20941228D01*
G01X9666650Y-20979601D01*
G01X9623662Y-21014246D01*
G01X9578457Y-21045117D01*
G01X9531284Y-21072172D01*
G01X9482397Y-21095365D01*
G01X9432044Y-21114653D01*
G01X9380478Y-21129991D01*
G01X9327948Y-21141336D01*
G01X9274707Y-21148642D01*
G01X9221004Y-21151865D01*
G01X9167092Y-21150962D01*
G01X9113219Y-21145888D01*
G01X9059639Y-21136599D01*
G01X9006601Y-21123050D01*
G01X8954356Y-21105198D01*
G01X8903156Y-21082998D01*
G01X8853250Y-21056405D01*
G01X8804891Y-21025377D01*
G01X8804891Y-21025377D01*
G37*
G36*
G01X26451094Y-14625000D02*
G01X27651094Y-14625000D01*
G01X27651094Y-15825000D01*
G01X26451094Y-15825000D01*
G01X26451094Y-14625000D01*
G37*
G36*
G01X27901094Y-14630859D02*
G01X27901094Y-14630859D01*
G01X27944453Y-14627343D01*
G01X27944453Y-14627343D01*
G01X27995845Y-14659542D01*
G01X27998360Y-14673046D01*
G01X27998360Y-14673046D01*
G01X27998076Y-14718372D01*
G01X27997534Y-14788645D01*
G01X27997193Y-14830875D01*
G01X27997188Y-14831543D01*
G01X27997188Y-14831543D01*
G01X27996453Y-14928363D01*
G01X27996116Y-14984864D01*
G01X27996021Y-15009653D01*
G01X27996016Y-15012890D01*
G01X27996016Y-15012890D01*
G01X28064696Y-14974904D01*
G01X28126046Y-14956086D01*
G01X28168698Y-14949703D01*
G01X28181758Y-14949023D01*
G01X28181758Y-14949023D01*
G01X28255945Y-14963704D01*
G01X28307287Y-14993067D01*
G01X28332083Y-15015089D01*
G01X28333809Y-15016992D01*
G01X28333809Y-15016992D01*
G01X28366517Y-15074600D01*
G01X28383912Y-15138470D01*
G01X28390830Y-15191980D01*
G01X28392106Y-15218509D01*
G01X28392110Y-15219140D01*
G01X28392110Y-15219140D01*
G01X28384051Y-15299557D01*
G01X28365416Y-15364739D01*
G01X28344514Y-15411614D01*
G01X28329656Y-15437115D01*
G01X28327071Y-15440918D01*
G01X28327071Y-15440918D01*
G01X28272807Y-15491377D01*
G01X28213618Y-15518213D01*
G01X28164425Y-15528885D01*
G01X28140147Y-15530853D01*
G01X28139571Y-15530859D01*
G01X28139571Y-15530859D01*
G01X28061802Y-15521592D01*
G01X27996843Y-15499826D01*
G01X27948050Y-15474612D01*
G01X27918774Y-15455001D01*
G01X27911641Y-15449414D01*
G01X27911641Y-15449414D01*
G01X27915705Y-15394926D01*
G01X27918278Y-15327529D01*
G01X27919699Y-15261595D01*
G01X27920303Y-15211495D01*
G01X27920430Y-15191601D01*
G01X27920430Y-15191601D01*
G01X27920430Y-15191601D01*
G01X27919957Y-15130239D01*
G01X27918780Y-15060855D01*
G01X27917262Y-14992345D01*
G01X27915764Y-14933603D01*
G01X27914651Y-14893526D01*
G01X27914278Y-14880761D01*
G01X27914278Y-14880761D01*
G01X27910544Y-14776359D01*
G01X27906979Y-14704582D01*
G01X27903963Y-14660015D01*
G01X27901875Y-14637246D01*
G01X27901094Y-14630859D01*
G01X27901094Y-14630859D01*
G37*
%LPC*%
G36*
G01X27994844Y-15401367D02*
G01X27994844Y-15401367D01*
G01X28059776Y-15442299D01*
G01X28116260Y-15459881D01*
G01X28148254Y-15463984D01*
G01X28150703Y-15464062D01*
G01X28150703Y-15464062D01*
G01X28219060Y-15444582D01*
G01X28258218Y-15409856D01*
G01X28268770Y-15394922D01*
G01X28268770Y-15394922D01*
G01X28294370Y-15328993D01*
G01X28305241Y-15268697D01*
G01X28307696Y-15233586D01*
G01X28307735Y-15230859D01*
G01X28307735Y-15230859D01*
G01X28298432Y-15148509D01*
G01X28279828Y-15095395D01*
G01X28265874Y-15071327D01*
G01X28264668Y-15069726D01*
G01X28264668Y-15069726D01*
G01X28206613Y-15027357D01*
G01X28162377Y-15016717D01*
G01X28156563Y-15016406D01*
G01X28154805Y-15016406D01*
G01X28154805Y-15016406D01*
G01X28085465Y-15029285D01*
G01X28031166Y-15055575D01*
G01X28000739Y-15076757D01*
G01X27997188Y-15079687D01*
G01X27997188Y-15079687D01*
G01X27997609Y-15138528D01*
G01X27997774Y-15156738D01*
G01X27997774Y-15156738D01*
G01X27998286Y-15230676D01*
G01X27998360Y-15257812D01*
G01X27998360Y-15257812D01*
G01X27998360Y-15257812D01*
G01X27997369Y-15340888D01*
G01X27995603Y-15388521D01*
G01X27994844Y-15401367D01*
G37*
%LPD*%
G36*
G01X28492305Y-15240820D02*
G01X28492305Y-15240820D01*
G01X28501235Y-15161637D01*
G01X28521885Y-15099310D01*
G01X28545047Y-15055635D01*
G01X28561511Y-15032410D01*
G01X28564375Y-15029004D01*
G01X28564375Y-15029004D01*
G01X28621733Y-14984133D01*
G01X28681117Y-14960269D01*
G01X28729160Y-14950779D01*
G01X28752498Y-14949028D01*
G01X28753047Y-14949023D01*
G01X28753047Y-14949023D01*
G01X28829540Y-14960632D01*
G01X28887997Y-14986615D01*
G01X28926282Y-15013704D01*
G01X28942255Y-15028630D01*
G01X28942598Y-15029004D01*
G01X28942598Y-15029004D01*
G01X28980313Y-15087364D01*
G01X29001770Y-15149048D01*
G01X29011554Y-15202319D01*
G01X29014251Y-15235442D01*
G01X29014375Y-15240820D01*
G01X29014375Y-15240820D01*
G01X29004731Y-15323097D01*
G01X28982784Y-15386711D01*
G01X28959015Y-15429738D01*
G01X28943903Y-15450252D01*
G01X28942598Y-15451757D01*
G01X28942598Y-15451757D01*
G01X28885234Y-15496135D01*
G01X28825558Y-15519737D01*
G01X28777152Y-15529123D01*
G01X28753602Y-15530854D01*
G01X28753047Y-15530859D01*
G01X28753047Y-15530859D01*
G01X28677170Y-15519377D01*
G01X28618967Y-15493680D01*
G01X28580722Y-15466889D01*
G01X28564719Y-15452127D01*
G01X28564375Y-15451757D01*
G01X28564375Y-15451757D01*
G01X28526506Y-15393859D01*
G01X28504962Y-15332438D01*
G01X28495138Y-15279286D01*
G01X28492430Y-15246196D01*
G01X28492305Y-15240820D01*
G37*
%LPC*%
G36*
G01X28576680Y-15223828D02*
G01X28576680Y-15223828D01*
G01X28585591Y-15301576D01*
G01X28604143Y-15358586D01*
G01X28620066Y-15390382D01*
G01X28623262Y-15395507D01*
G01X28623262Y-15395507D01*
G01X28677036Y-15443443D01*
G01X28728902Y-15461368D01*
G01X28753022Y-15464062D01*
G01X28753047Y-15464062D01*
G01X28753047Y-15464062D01*
G01X28827033Y-15448214D01*
G01X28871324Y-15419962D01*
G01X28883711Y-15407812D01*
G01X28883711Y-15407812D01*
G01X28915847Y-15346593D01*
G01X28928399Y-15288139D01*
G01X28930583Y-15258254D01*
G01X28930586Y-15257812D01*
G01X28930586Y-15257812D01*
G01X28921395Y-15179952D01*
G01X28902259Y-15122709D01*
G01X28885836Y-15090712D01*
G01X28882539Y-15085546D01*
G01X28882539Y-15085546D01*
G01X28828189Y-15037201D01*
G01X28776779Y-15019123D01*
G01X28753072Y-15016406D01*
G01X28753047Y-15016406D01*
G01X28753047Y-15016406D01*
G01X28679227Y-15032419D01*
G01X28635230Y-15060965D01*
G01X28622969Y-15073242D01*
G01X28622969Y-15073242D01*
G01X28591235Y-15134863D01*
G01X28578840Y-15193474D01*
G01X28576683Y-15223386D01*
G01X28576680Y-15223828D01*
G37*
%LPD*%
G36*
G01X29068282Y-15004101D02*
G01X29068282Y-15004101D01*
G01X29086153Y-14968945D01*
G01X29086153Y-14968945D01*
G01X29143160Y-14961380D01*
G01X29147383Y-14961328D01*
G01X29181368Y-14961328D01*
G01X29181368Y-14961328D01*
G01X29177877Y-14882560D01*
G01X29174548Y-14835581D01*
G01X29173750Y-14826562D01*
G01X29173750Y-14826562D01*
G01X29213594Y-14823046D01*
G01X29213594Y-14823046D01*
G01X29267865Y-14853967D01*
G01X29271016Y-14868750D01*
G01X29271016Y-14868750D01*
G01X29268392Y-14927062D01*
G01X29266328Y-14962500D01*
G01X29266328Y-14962500D01*
G01X29362093Y-14961493D01*
G01X29424239Y-14959277D01*
G01X29457820Y-14957061D01*
G01X29467891Y-14956054D01*
G01X29467891Y-14956054D01*
G01X29467891Y-14956054D01*
G01X29472578Y-14984179D01*
G01X29472578Y-14984179D01*
G01X29459981Y-15016406D01*
G01X29459981Y-15016406D01*
G01X29419844Y-15025781D01*
G01X29419844Y-15025781D01*
G01X29361899Y-15026600D01*
G01X29296397Y-15026907D01*
G01X29264019Y-15026953D01*
G01X29263985Y-15026953D01*
G01X29263985Y-15026953D01*
G01X29262887Y-15101150D01*
G01X29262200Y-15171827D01*
G01X29261827Y-15232547D01*
G01X29261673Y-15276871D01*
G01X29261641Y-15298361D01*
G01X29261641Y-15299414D01*
G01X29261641Y-15299414D01*
G01X29268566Y-15385114D01*
G01X29280595Y-15426574D01*
G01X29285078Y-15435058D01*
G01X29285078Y-15435058D01*
G01X29340146Y-15465168D01*
G01X29362422Y-15467578D01*
G01X29362422Y-15467578D01*
G01X29427059Y-15447781D01*
G01X29448555Y-15431250D01*
G01X29448555Y-15431250D01*
G01X29470235Y-15474609D01*
G01X29470235Y-15474609D01*
G01X29439502Y-15515165D01*
G01X29439180Y-15515332D01*
G01X29439180Y-15515332D01*
G01X29377472Y-15530193D01*
G01X29363594Y-15530859D01*
G01X29363594Y-15530859D01*
G01X29285322Y-15516982D01*
G01X29239530Y-15490405D01*
G01X29222875Y-15473705D01*
G01X29222676Y-15473437D01*
G01X29222676Y-15473437D01*
G01X29196786Y-15415591D01*
G01X29184886Y-15353544D01*
G01X29181537Y-15309832D01*
G01X29181368Y-15301757D01*
G01X29181368Y-15301757D01*
G01X29182466Y-15194359D01*
G01X29183153Y-15117230D01*
G01X29183525Y-15066249D01*
G01X29183679Y-15037291D01*
G01X29183711Y-15026233D01*
G01X29183711Y-15025781D01*
G01X29183711Y-15025781D01*
G01X29134684Y-15029518D01*
G01X29074836Y-15034324D01*
G01X29071797Y-15034570D01*
G01X29071797Y-15034570D01*
G01X29068282Y-15004101D01*
G37*
G36*
G01X29490157Y-15004101D02*
G01X29490157Y-15004101D01*
G01X29508028Y-14968945D01*
G01X29508028Y-14968945D01*
G01X29565035Y-14961380D01*
G01X29569258Y-14961328D01*
G01X29603243Y-14961328D01*
G01X29603243Y-14961328D01*
G01X29599752Y-14882560D01*
G01X29596423Y-14835581D01*
G01X29595625Y-14826562D01*
G01X29595625Y-14826562D01*
G01X29635469Y-14823046D01*
G01X29635469Y-14823046D01*
G01X29689740Y-14853967D01*
G01X29692891Y-14868750D01*
G01X29692891Y-14868750D01*
G01X29690267Y-14927062D01*
G01X29688203Y-14962500D01*
G01X29688203Y-14962500D01*
G01X29783968Y-14961493D01*
G01X29846114Y-14959277D01*
G01X29879695Y-14957061D01*
G01X29889766Y-14956054D01*
G01X29889766Y-14956054D01*
G01X29889766Y-14956054D01*
G01X29894453Y-14984179D01*
G01X29894453Y-14984179D01*
G01X29881856Y-15016406D01*
G01X29881856Y-15016406D01*
G01X29841719Y-15025781D01*
G01X29841719Y-15025781D01*
G01X29783774Y-15026600D01*
G01X29718272Y-15026907D01*
G01X29685894Y-15026953D01*
G01X29685860Y-15026953D01*
G01X29685860Y-15026953D01*
G01X29684762Y-15101150D01*
G01X29684075Y-15171827D01*
G01X29683702Y-15232547D01*
G01X29683548Y-15276871D01*
G01X29683516Y-15298361D01*
G01X29683516Y-15299414D01*
G01X29683516Y-15299414D01*
G01X29690441Y-15385114D01*
G01X29702470Y-15426574D01*
G01X29706953Y-15435058D01*
G01X29706953Y-15435058D01*
G01X29762021Y-15465168D01*
G01X29784297Y-15467578D01*
G01X29784297Y-15467578D01*
G01X29848934Y-15447781D01*
G01X29870430Y-15431250D01*
G01X29870430Y-15431250D01*
G01X29892110Y-15474609D01*
G01X29892110Y-15474609D01*
G01X29861377Y-15515165D01*
G01X29861055Y-15515332D01*
G01X29861055Y-15515332D01*
G01X29799347Y-15530193D01*
G01X29785469Y-15530859D01*
G01X29785469Y-15530859D01*
G01X29707197Y-15516982D01*
G01X29661405Y-15490405D01*
G01X29644750Y-15473705D01*
G01X29644551Y-15473437D01*
G01X29644551Y-15473437D01*
G01X29618661Y-15415591D01*
G01X29606761Y-15353544D01*
G01X29603412Y-15309832D01*
G01X29603243Y-15301757D01*
G01X29603243Y-15301757D01*
G01X29604341Y-15194359D01*
G01X29605028Y-15117230D01*
G01X29605400Y-15066249D01*
G01X29605554Y-15037291D01*
G01X29605586Y-15026233D01*
G01X29605586Y-15025781D01*
G01X29605586Y-15025781D01*
G01X29556559Y-15029518D01*
G01X29496711Y-15034324D01*
G01X29493672Y-15034570D01*
G01X29493672Y-15034570D01*
G01X29490157Y-15004101D01*
G37*
G36*
G01X29965938Y-15240820D02*
G01X29965938Y-15240820D01*
G01X29974868Y-15161637D01*
G01X29995518Y-15099310D01*
G01X30018679Y-15055635D01*
G01X30035144Y-15032410D01*
G01X30038008Y-15029004D01*
G01X30038008Y-15029004D01*
G01X30095366Y-14984133D01*
G01X30154749Y-14960269D01*
G01X30202793Y-14950779D01*
G01X30226131Y-14949028D01*
G01X30226680Y-14949023D01*
G01X30226680Y-14949023D01*
G01X30303172Y-14960632D01*
G01X30361630Y-14986615D01*
G01X30399915Y-15013704D01*
G01X30415888Y-15028630D01*
G01X30416231Y-15029004D01*
G01X30416231Y-15029004D01*
G01X30453946Y-15087364D01*
G01X30475403Y-15149048D01*
G01X30485187Y-15202319D01*
G01X30487884Y-15235442D01*
G01X30488008Y-15240820D01*
G01X30488008Y-15240820D01*
G01X30478364Y-15323097D01*
G01X30456417Y-15386711D01*
G01X30432648Y-15429738D01*
G01X30417535Y-15450252D01*
G01X30416231Y-15451757D01*
G01X30416231Y-15451757D01*
G01X30358867Y-15496135D01*
G01X30299191Y-15519737D01*
G01X30250785Y-15529123D01*
G01X30227235Y-15530854D01*
G01X30226680Y-15530859D01*
G01X30226680Y-15530859D01*
G01X30150803Y-15519377D01*
G01X30092599Y-15493680D01*
G01X30054355Y-15466889D01*
G01X30038352Y-15452127D01*
G01X30038008Y-15451757D01*
G01X30038008Y-15451757D01*
G01X30000139Y-15393859D01*
G01X29978595Y-15332438D01*
G01X29968770Y-15279286D01*
G01X29966062Y-15246196D01*
G01X29965938Y-15240820D01*
G37*
%LPC*%
G36*
G01X30050313Y-15223828D02*
G01X30050313Y-15223828D01*
G01X30059224Y-15301576D01*
G01X30077776Y-15358586D01*
G01X30093699Y-15390382D01*
G01X30096895Y-15395507D01*
G01X30096895Y-15395507D01*
G01X30150669Y-15443443D01*
G01X30202535Y-15461368D01*
G01X30226655Y-15464062D01*
G01X30226680Y-15464062D01*
G01X30226680Y-15464062D01*
G01X30300666Y-15448214D01*
G01X30344957Y-15419962D01*
G01X30357344Y-15407812D01*
G01X30357344Y-15407812D01*
G01X30389480Y-15346593D01*
G01X30402032Y-15288139D01*
G01X30404216Y-15258254D01*
G01X30404219Y-15257812D01*
G01X30404219Y-15257812D01*
G01X30395028Y-15179952D01*
G01X30375892Y-15122709D01*
G01X30359469Y-15090712D01*
G01X30356172Y-15085546D01*
G01X30356172Y-15085546D01*
G01X30301822Y-15037201D01*
G01X30250411Y-15019123D01*
G01X30226704Y-15016406D01*
G01X30226680Y-15016406D01*
G01X30226680Y-15016406D01*
G01X30152860Y-15032419D01*
G01X30108863Y-15060965D01*
G01X30096602Y-15073242D01*
G01X30096602Y-15073242D01*
G01X30064868Y-15134863D01*
G01X30052472Y-15193474D01*
G01X30050316Y-15223386D01*
G01X30050313Y-15223828D01*
G37*
%LPD*%
G36*
G01X30613985Y-14967187D02*
G01X30613985Y-14967187D01*
G01X30657344Y-14957812D01*
G01X30657344Y-14957812D01*
G01X30707403Y-14992162D01*
G01X30712422Y-15017578D01*
G01X30712422Y-15017578D01*
G01X30770503Y-14981762D01*
G01X30800899Y-14968359D01*
G01X30800899Y-14968359D01*
G01X30800899Y-14968359D01*
G01X30870039Y-14951440D01*
G01X30900508Y-14949023D01*
G01X30900508Y-14949023D01*
G01X30900508Y-14949023D01*
G01X30974908Y-14966847D01*
G01X31017486Y-15001746D01*
G01X31033583Y-15025861D01*
G01X31034102Y-15026953D01*
G01X31034102Y-15026953D01*
G01X31088061Y-14989125D01*
G01X31124018Y-14972119D01*
G01X31124629Y-14971875D01*
G01X31124629Y-14971875D01*
G01X31195157Y-14952825D01*
G01X31232990Y-14949046D01*
G01X31234493Y-14949023D01*
G01X31234493Y-14949023D01*
G01X31304824Y-14965496D01*
G01X31338523Y-14987565D01*
G01X31340254Y-14989160D01*
G01X31340254Y-14989160D01*
G01X31370794Y-15046816D01*
G01X31380261Y-15102722D01*
G01X31380977Y-15118359D01*
G01X31380977Y-15118359D01*
G01X31379708Y-15172574D01*
G01X31378926Y-15204785D01*
G01X31378926Y-15204785D01*
G01X31377318Y-15285968D01*
G01X31376892Y-15327044D01*
G01X31376875Y-15332226D01*
G01X31376875Y-15332226D01*
G01X31380798Y-15414829D01*
G01X31388966Y-15474798D01*
G01X31395976Y-15507965D01*
G01X31397383Y-15513281D01*
G01X31397383Y-15513281D01*
G01X31350508Y-15522656D01*
G01X31350508Y-15522656D01*
G01X31305684Y-15508886D01*
G01X31305684Y-15508886D01*
G01X31291914Y-15461718D01*
G01X31291914Y-15461718D01*
G01X31291914Y-15461718D01*
G01X31292718Y-15404728D01*
G01X31294293Y-15338284D01*
G01X31295381Y-15298207D01*
G01X31295430Y-15296484D01*
G01X31295430Y-15296484D01*
G01X31297980Y-15201310D01*
G01X31298851Y-15159065D01*
G01X31298946Y-15150586D01*
G01X31298946Y-15150586D01*
G01X31286147Y-15077306D01*
G01X31271112Y-15049573D01*
G01X31270821Y-15049218D01*
G01X31270821Y-15049218D01*
G01X31214093Y-15018352D01*
G01X31196993Y-15016406D01*
G01X31196993Y-15016406D01*
G01X31132080Y-15030879D01*
G01X31077576Y-15059218D01*
G01X31049297Y-15078800D01*
G01X31048164Y-15079687D01*
G01X31048164Y-15079687D01*
G01X31049353Y-15171297D01*
G01X31050051Y-15240514D01*
G01X31050389Y-15287893D01*
G01X31050499Y-15313986D01*
G01X31050508Y-15319922D01*
G01X31050508Y-15319922D01*
G01X31051785Y-15402927D01*
G01X31054545Y-15466793D01*
G01X31057182Y-15506635D01*
G01X31058125Y-15517968D01*
G01X31058125Y-15517968D01*
G01X31017110Y-15521484D01*
G01X31017110Y-15521484D01*
G01X30965719Y-15489286D01*
G01X30963203Y-15475781D01*
G01X30963203Y-15475781D01*
G01X30964961Y-15427441D01*
G01X30964961Y-15427441D01*
G01X30966823Y-15363506D01*
G01X30967803Y-15313567D01*
G01X30967891Y-15308203D01*
G01X30967891Y-15308203D01*
G01X30968694Y-15236559D01*
G01X30969008Y-15178351D01*
G01X30969063Y-15150974D01*
G01X30969063Y-15150586D01*
G01X30969063Y-15150586D01*
G01X30950149Y-15068604D01*
G01X30910014Y-15029466D01*
G01X30873570Y-15017326D01*
G01X30863594Y-15016406D01*
G01X30863594Y-15016406D01*
G01X30799468Y-15031550D01*
G01X30745285Y-15061201D01*
G01X30717070Y-15081689D01*
G01X30715938Y-15082617D01*
G01X30715938Y-15082617D01*
G01X30717169Y-15177663D01*
G01X30717870Y-15247686D01*
G01X30718189Y-15293696D01*
G01X30718278Y-15316705D01*
G01X30718282Y-15319922D01*
G01X30718282Y-15319922D01*
G01X30719460Y-15402927D01*
G01X30722008Y-15466793D01*
G01X30724442Y-15506635D01*
G01X30725313Y-15517968D01*
G01X30725313Y-15517968D01*
G01X30684883Y-15521484D01*
G01X30684883Y-15521484D01*
G01X30633492Y-15489286D01*
G01X30630977Y-15475781D01*
G01X30630977Y-15475781D01*
G01X30632747Y-15421008D01*
G01X30633907Y-15387597D01*
G01X30633907Y-15387597D01*
G01X30635874Y-15312634D01*
G01X30636676Y-15252789D01*
G01X30636835Y-15222670D01*
G01X30636836Y-15221484D01*
G01X30636836Y-15221484D01*
G01X30634460Y-15119437D01*
G01X30628793Y-15046922D01*
G01X30622028Y-15000000D01*
G01X30616361Y-14974734D01*
G01X30613985Y-14967187D01*
G01X30613985Y-14967187D01*
G37*
G36*
G01X31793477Y-15435351D02*
G01X31793477Y-15435351D01*
G01X31831454Y-15391248D01*
G01X31847383Y-15384961D01*
G01X31847383Y-15384961D01*
G01X31888284Y-15434257D01*
G01X31904512Y-15443847D01*
G01X31904512Y-15443847D01*
G01X31970664Y-15461827D01*
G01X31999727Y-15464062D01*
G01X31999727Y-15464062D01*
G01X32067235Y-15449918D01*
G01X32083223Y-15441211D01*
G01X32083223Y-15441211D01*
G01X32113539Y-15386335D01*
G01X32115157Y-15370312D01*
G01X32115157Y-15370312D01*
G01X32087858Y-15318535D01*
G01X32083223Y-15315234D01*
G01X32083223Y-15315234D01*
G01X32023107Y-15290253D01*
G01X32005879Y-15285644D01*
G01X32005879Y-15285644D01*
G01X31939301Y-15268679D01*
G01X31914766Y-15261621D01*
G01X31914766Y-15261621D01*
G01X31856406Y-15228366D01*
G01X31837129Y-15209472D01*
G01X31837129Y-15209472D01*
G01X31809950Y-15148011D01*
G01X31805203Y-15108476D01*
G01X31805196Y-15107812D01*
G01X31805196Y-15107812D01*
G01X31825191Y-15040299D01*
G01X31858039Y-15000982D01*
G01X31867012Y-14993554D01*
G01X31867012Y-14993554D01*
G01X31931957Y-14961826D01*
G01X31985900Y-14950482D01*
G01X32006758Y-14949023D01*
G01X32006758Y-14949023D01*
G01X32075375Y-14959364D01*
G01X32114956Y-14973217D01*
G01X32117207Y-14974218D01*
G01X32117207Y-14974218D01*
G01X32166131Y-15021893D01*
G01X32171407Y-15043945D01*
G01X32171407Y-15043945D01*
G01X32133429Y-15088631D01*
G01X32117500Y-15094336D01*
G01X32117500Y-15094336D01*
G01X32076583Y-15046544D01*
G01X32063301Y-15038086D01*
G01X32063301Y-15038086D01*
G01X31998905Y-15018130D01*
G01X31978047Y-15016406D01*
G01X31978047Y-15016406D01*
G01X31916238Y-15032998D01*
G01X31907149Y-15038671D01*
G01X31907149Y-15038671D01*
G01X31878073Y-15092033D01*
G01X31877266Y-15101367D01*
G01X31877266Y-15101367D01*
G01X31904210Y-15153854D01*
G01X31909200Y-15157617D01*
G01X31909200Y-15157617D01*
G01X31968515Y-15183836D01*
G01X31986543Y-15188964D01*
G01X31986543Y-15188964D01*
G01X32052145Y-15206183D01*
G01X32077657Y-15213574D01*
G01X32077657Y-15213574D01*
G01X32136790Y-15246178D01*
G01X32155293Y-15263379D01*
G01X32155293Y-15263379D01*
G01X32183235Y-15323913D01*
G01X32187227Y-15357421D01*
G01X32187227Y-15357421D01*
G01X32187227Y-15357421D01*
G01X32170805Y-15429821D01*
G01X32140794Y-15473146D01*
G01X32125996Y-15486621D01*
G01X32125996Y-15486621D01*
G01X32061681Y-15517554D01*
G01X32005426Y-15529120D01*
G01X31980416Y-15530859D01*
G01X31980391Y-15530859D01*
G01X31980391Y-15530859D01*
G01X31906220Y-15521951D01*
G01X31859575Y-15507317D01*
G01X31850313Y-15503320D01*
G01X31850313Y-15503320D01*
G01X31799009Y-15455826D01*
G01X31793477Y-15435351D01*
G37*
G36*
G01X32289766Y-15240820D02*
G01X32289766Y-15240820D01*
G01X32298696Y-15161637D01*
G01X32319346Y-15099310D01*
G01X32342508Y-15055635D01*
G01X32358972Y-15032410D01*
G01X32361836Y-15029004D01*
G01X32361836Y-15029004D01*
G01X32419194Y-14984133D01*
G01X32478578Y-14960269D01*
G01X32526621Y-14950779D01*
G01X32549959Y-14949028D01*
G01X32550508Y-14949023D01*
G01X32550508Y-14949023D01*
G01X32627000Y-14960632D01*
G01X32685458Y-14986615D01*
G01X32723743Y-15013704D01*
G01X32739716Y-15028630D01*
G01X32740059Y-15029004D01*
G01X32740059Y-15029004D01*
G01X32777774Y-15087364D01*
G01X32799231Y-15149048D01*
G01X32809015Y-15202319D01*
G01X32811712Y-15235442D01*
G01X32811836Y-15240820D01*
G01X32811836Y-15240820D01*
G01X32802192Y-15323097D01*
G01X32780245Y-15386711D01*
G01X32756476Y-15429738D01*
G01X32741364Y-15450252D01*
G01X32740059Y-15451757D01*
G01X32740059Y-15451757D01*
G01X32682695Y-15496135D01*
G01X32623019Y-15519737D01*
G01X32574613Y-15529123D01*
G01X32551063Y-15530854D01*
G01X32550508Y-15530859D01*
G01X32550508Y-15530859D01*
G01X32474631Y-15519377D01*
G01X32416427Y-15493680D01*
G01X32378183Y-15466889D01*
G01X32362180Y-15452127D01*
G01X32361836Y-15451757D01*
G01X32361836Y-15451757D01*
G01X32323967Y-15393859D01*
G01X32302423Y-15332438D01*
G01X32292599Y-15279286D01*
G01X32289890Y-15246196D01*
G01X32289766Y-15240820D01*
G37*
%LPC*%
G36*
G01X32374141Y-15223828D02*
G01X32374141Y-15223828D01*
G01X32383052Y-15301576D01*
G01X32401604Y-15358586D01*
G01X32417527Y-15390382D01*
G01X32420723Y-15395507D01*
G01X32420723Y-15395507D01*
G01X32474497Y-15443443D01*
G01X32526363Y-15461368D01*
G01X32550483Y-15464062D01*
G01X32550508Y-15464062D01*
G01X32550508Y-15464062D01*
G01X32624494Y-15448214D01*
G01X32668785Y-15419962D01*
G01X32681172Y-15407812D01*
G01X32681172Y-15407812D01*
G01X32713308Y-15346593D01*
G01X32725860Y-15288139D01*
G01X32728044Y-15258254D01*
G01X32728047Y-15257812D01*
G01X32728047Y-15257812D01*
G01X32718856Y-15179952D01*
G01X32699720Y-15122709D01*
G01X32683297Y-15090712D01*
G01X32680000Y-15085546D01*
G01X32680000Y-15085546D01*
G01X32625650Y-15037201D01*
G01X32574240Y-15019123D01*
G01X32550532Y-15016406D01*
G01X32550508Y-15016406D01*
G01X32550508Y-15016406D01*
G01X32476688Y-15032419D01*
G01X32432691Y-15060965D01*
G01X32420430Y-15073242D01*
G01X32420430Y-15073242D01*
G01X32388696Y-15134863D01*
G01X32376301Y-15193474D01*
G01X32374144Y-15223386D01*
G01X32374141Y-15223828D01*
G37*
%LPD*%
G36*
G01X32937813Y-14630859D02*
G01X32937813Y-14630859D01*
G01X32980000Y-14627343D01*
G01X32980000Y-14627343D01*
G01X33032289Y-14658906D01*
G01X33035078Y-14673046D01*
G01X33035078Y-14673046D01*
G01X33033538Y-14729788D01*
G01X33033321Y-14737207D01*
G01X33033321Y-14737207D01*
G01X33031478Y-14801626D01*
G01X33029787Y-14862842D01*
G01X33028939Y-14894070D01*
G01X33028926Y-14894531D01*
G01X33028926Y-14894531D01*
G01X33027358Y-14969037D01*
G01X33026581Y-15033110D01*
G01X33026317Y-15076555D01*
G01X33026289Y-15089648D01*
G01X33026289Y-15276562D01*
G01X33026289Y-15276562D01*
G01X33028889Y-15366159D01*
G01X33034996Y-15434311D01*
G01X33042071Y-15481278D01*
G01X33047573Y-15507322D01*
G01X33049141Y-15513281D01*
G01X33049141Y-15513281D01*
G01X33004024Y-15522656D01*
G01X33004024Y-15522656D01*
G01X32957735Y-15508300D01*
G01X32957735Y-15508300D01*
G01X32944844Y-15460546D01*
G01X32944844Y-15460546D01*
G01X32944844Y-15460546D01*
G01X32945143Y-15410454D01*
G01X32945702Y-15343079D01*
G01X32946016Y-15307948D01*
G01X32946016Y-15307910D01*
G01X32946016Y-15307910D01*
G01X32946732Y-15218697D01*
G01X32947074Y-15157444D01*
G01X32947180Y-15124046D01*
G01X32947188Y-15117187D01*
G01X32947188Y-14977734D01*
G01X32947188Y-14977734D01*
G01X32946618Y-14864648D01*
G01X32945163Y-14778003D01*
G01X32943201Y-14714652D01*
G01X32941113Y-14671453D01*
G01X32939278Y-14645260D01*
G01X32938075Y-14632930D01*
G01X32937813Y-14630859D01*
G37*
G36*
G01X33175118Y-15240820D02*
G01X33175118Y-15240820D01*
G01X33184265Y-15162180D01*
G01X33205419Y-15100036D01*
G01X33229146Y-15056332D01*
G01X33246011Y-15033017D01*
G01X33248946Y-15029589D01*
G01X33248946Y-15029589D01*
G01X33307924Y-14983012D01*
G01X33365694Y-14959094D01*
G01X33409621Y-14950282D01*
G01X33427071Y-14949023D01*
G01X33427071Y-14949023D01*
G01X33427071Y-14949023D01*
G01X33498334Y-14960579D01*
G01X33550023Y-14981179D01*
G01X33566524Y-14990039D01*
G01X33566524Y-14990039D01*
G01X33568386Y-14911438D01*
G01X33568854Y-14869791D01*
G01X33568868Y-14865234D01*
G01X33568868Y-14865234D01*
G01X33567706Y-14776903D01*
G01X33565020Y-14707916D01*
G01X33562007Y-14659920D01*
G01X33559865Y-14634561D01*
G01X33559493Y-14630859D01*
G01X33559493Y-14630859D01*
G01X33602266Y-14627343D01*
G01X33602266Y-14627343D01*
G01X33653657Y-14659542D01*
G01X33656172Y-14673046D01*
G01X33656172Y-14673046D01*
G01X33655673Y-14714367D01*
G01X33654466Y-14777902D01*
G01X33652985Y-14847159D01*
G01X33651664Y-14905643D01*
G01X33650937Y-14936861D01*
G01X33650899Y-14938476D01*
G01X33650899Y-14938476D01*
G01X33648751Y-15035156D01*
G01X33647283Y-15112668D01*
G01X33646367Y-15172009D01*
G01X33645871Y-15214170D01*
G01X33645668Y-15240145D01*
G01X33645626Y-15250928D01*
G01X33645625Y-15251367D01*
G01X33645625Y-15251367D01*
G01X33647787Y-15351081D01*
G01X33653017Y-15423899D01*
G01X33659435Y-15473004D01*
G01X33665160Y-15501580D01*
G01X33668311Y-15512810D01*
G01X33668477Y-15513281D01*
G01X33668477Y-15513281D01*
G01X33622774Y-15522656D01*
G01X33622774Y-15522656D01*
G01X33574973Y-15486539D01*
G01X33570039Y-15462890D01*
G01X33570039Y-15462890D01*
G01X33506968Y-15506532D01*
G01X33451625Y-15525823D01*
G01X33418244Y-15530710D01*
G01X33414180Y-15530859D01*
G01X33413008Y-15530859D01*
G01X33413008Y-15530859D01*
G01X33341582Y-15516148D01*
G01X33286574Y-15484932D01*
G01X33253381Y-15456586D01*
G01X33246016Y-15448828D01*
G01X33246016Y-15448828D01*
G01X33207485Y-15387319D01*
G01X33186281Y-15324268D01*
G01X33177230Y-15272077D01*
G01X33175154Y-15243152D01*
G01X33175118Y-15240820D01*
G37*
%LPC*%
G36*
G01X33259493Y-15223828D02*
G01X33259493Y-15223828D01*
G01X33269132Y-15303779D01*
G01X33289201Y-15361802D01*
G01X33306426Y-15393883D01*
G01X33309883Y-15399023D01*
G01X33309883Y-15399023D01*
G01X33366576Y-15448751D01*
G01X33414957Y-15465727D01*
G01X33431758Y-15467578D01*
G01X33431758Y-15467578D01*
G01X33497608Y-15450108D01*
G01X33546609Y-15417409D01*
G01X33566505Y-15399043D01*
G01X33566524Y-15399023D01*
G01X33566524Y-15399023D01*
G01X33565619Y-15277174D01*
G01X33564984Y-15187405D01*
G01X33564570Y-15124934D01*
G01X33564330Y-15084979D01*
G01X33564217Y-15062759D01*
G01X33564182Y-15053492D01*
G01X33564180Y-15052148D01*
G01X33564180Y-15052148D01*
G01X33494629Y-15024519D01*
G01X33448632Y-15016786D01*
G01X33440547Y-15016406D01*
G01X33440547Y-15016406D01*
G01X33367804Y-15031649D01*
G01X33322624Y-15059507D01*
G01X33308125Y-15073242D01*
G01X33308125Y-15073242D01*
G01X33274784Y-15134863D01*
G01X33261762Y-15193474D01*
G01X33259496Y-15223386D01*
G01X33259493Y-15223828D01*
G37*
%LPD*%
G36*
G01X33793868Y-15243164D02*
G01X33793868Y-15243164D01*
G01X33803777Y-15159219D01*
G01X33826694Y-15095005D01*
G01X33852398Y-15051197D01*
G01X33870669Y-15028467D01*
G01X33873848Y-15025195D01*
G01X33873848Y-15025195D01*
G01X33936932Y-14981158D01*
G01X33997737Y-14958545D01*
G01X34043546Y-14950213D01*
G01X34061641Y-14949023D01*
G01X34061641Y-14949023D01*
G01X34061641Y-14949023D01*
G01X34137112Y-14962395D01*
G01X34184052Y-14986232D01*
G01X34197578Y-14996484D01*
G01X34197578Y-14996484D01*
G01X34238463Y-15056175D01*
G01X34249310Y-15100790D01*
G01X34249727Y-15107812D01*
G01X34249727Y-15107812D01*
G01X34238194Y-15173759D01*
G01X34233028Y-15185742D01*
G01X34233028Y-15185742D01*
G01X34193519Y-15231644D01*
G01X34189375Y-15234668D01*
G01X34189375Y-15234668D01*
G01X34130257Y-15257882D01*
G01X34111446Y-15262207D01*
G01X34111446Y-15262207D01*
G01X34042232Y-15271838D01*
G01X34011250Y-15274218D01*
G01X34011250Y-15274218D01*
G01X34011250Y-15274218D01*
G01X33946098Y-15276030D01*
G01X33892228Y-15276537D01*
G01X33881758Y-15276562D01*
G01X33881758Y-15276562D01*
G01X33899831Y-15351525D01*
G01X33923040Y-15398308D01*
G01X33933614Y-15413379D01*
G01X33933614Y-15413379D01*
G01X33990419Y-15451983D01*
G01X34040121Y-15463361D01*
G01X34051680Y-15464062D01*
G01X34051680Y-15464062D01*
G01X34127071Y-15447248D01*
G01X34167885Y-15416518D01*
G01X34179414Y-15401367D01*
G01X34179414Y-15401367D01*
G01X34225578Y-15444079D01*
G01X34226875Y-15451757D01*
G01X34226875Y-15451757D01*
G01X34191564Y-15499261D01*
G01X34172383Y-15509179D01*
G01X34172383Y-15509179D01*
G01X34104390Y-15526406D01*
G01X34056590Y-15530733D01*
G01X34050508Y-15530859D01*
G01X34050508Y-15530859D01*
G01X33973915Y-15519735D01*
G01X33915669Y-15495263D01*
G01X33878627Y-15470791D01*
G01X33865645Y-15459668D01*
G01X33865645Y-15459668D01*
G01X33865645Y-15459668D01*
G01X33827930Y-15404255D01*
G01X33806473Y-15341338D01*
G01X33796689Y-15284933D01*
G01X33793992Y-15249062D01*
G01X33793868Y-15243164D01*
G37*
%LPC*%
G36*
G01X33880586Y-15216796D02*
G01X33880586Y-15216796D01*
G01X33950845Y-15216054D01*
G01X33966719Y-15215625D01*
G01X33966719Y-15215625D01*
G01X34029678Y-15209996D01*
G01X34042305Y-15208300D01*
G01X34042305Y-15208300D01*
G01X34103377Y-15193373D01*
G01X34108516Y-15191308D01*
G01X34108516Y-15191308D01*
G01X34149778Y-15160307D01*
G01X34149825Y-15160254D01*
G01X34149825Y-15160254D01*
G01X34167104Y-15110582D01*
G01X34167110Y-15110156D01*
G01X34167110Y-15110156D01*
G01X34143955Y-15052422D01*
G01X34135469Y-15043359D01*
G01X34135469Y-15043359D01*
G01X34076312Y-15017172D01*
G01X34056953Y-15015234D01*
G01X34056953Y-15015234D01*
G01X33987132Y-15030462D01*
G01X33943719Y-15056201D01*
G01X33933907Y-15064453D01*
G01X33933907Y-15064453D01*
G01X33899140Y-15121089D01*
G01X33884142Y-15180739D01*
G01X33880637Y-15215334D01*
G01X33880586Y-15216796D01*
G37*
%LPD*%
G36*
G01X34375703Y-14961328D02*
G01X34375703Y-14961328D01*
G01X34416719Y-14957812D01*
G01X34416719Y-14957812D01*
G01X34466255Y-14990829D01*
G01X34468282Y-15002929D01*
G01X34468282Y-15002929D01*
G01X34467696Y-15019336D01*
G01X34467696Y-15019336D01*
G01X34467110Y-15045117D01*
G01X34467110Y-15045117D01*
G01X34511266Y-14995229D01*
G01X34531270Y-14978613D01*
G01X34531270Y-14978613D01*
G01X34593512Y-14951062D01*
G01X34610664Y-14949023D01*
G01X34610664Y-14949023D01*
G01X34654024Y-14961621D01*
G01X34654024Y-14961621D01*
G01X34669844Y-14995898D01*
G01X34669844Y-14995898D01*
G01X34647469Y-15047580D01*
G01X34645821Y-15049804D01*
G01X34645821Y-15049804D01*
G01X34591657Y-15027164D01*
G01X34587813Y-15026953D01*
G01X34587813Y-15026953D01*
G01X34529424Y-15047289D01*
G01X34520723Y-15053320D01*
G01X34520723Y-15053320D01*
G01X34476429Y-15103004D01*
G01X34464180Y-15123046D01*
G01X34464180Y-15123046D01*
G01X34463361Y-15180095D01*
G01X34463054Y-15243921D01*
G01X34463008Y-15275357D01*
G01X34463008Y-15275390D01*
G01X34463008Y-15275390D01*
G01X34465608Y-15366042D01*
G01X34471715Y-15434579D01*
G01X34478790Y-15481522D01*
G01X34484292Y-15507392D01*
G01X34485860Y-15513281D01*
G01X34485860Y-15513281D01*
G01X34440157Y-15522656D01*
G01X34440157Y-15522656D01*
G01X34393575Y-15507129D01*
G01X34393575Y-15507129D01*
G01X34393575Y-15507129D01*
G01X34381572Y-15454969D01*
G01X34381563Y-15454101D01*
G01X34381563Y-15454101D01*
G01X34382201Y-15395742D01*
G01X34382735Y-15359472D01*
G01X34382735Y-15359472D01*
G01X34383690Y-15281430D01*
G01X34383903Y-15244447D01*
G01X34383907Y-15241992D01*
G01X34383907Y-15241992D01*
G01X34383205Y-15155649D01*
G01X34381483Y-15083113D01*
G01X34379314Y-15026005D01*
G01X34377273Y-14985945D01*
G01X34375933Y-14964551D01*
G01X34375703Y-14961328D01*
G37*
G36*
G01X34753633Y-14967187D02*
G01X34753633Y-14967187D01*
G01X34800508Y-14957812D01*
G01X34800508Y-14957812D01*
G01X34847971Y-14993929D01*
G01X34852071Y-15017578D01*
G01X34852071Y-15017578D01*
G01X34920204Y-14977945D01*
G01X34980977Y-14957592D01*
G01X35024611Y-14950094D01*
G01X35041328Y-14949023D01*
G01X35041328Y-14949023D01*
G01X35041328Y-14949023D01*
G01X35115254Y-14963698D01*
G01X35166055Y-14992430D01*
G01X35189016Y-15012284D01*
G01X35189864Y-15013183D01*
G01X35189864Y-15013183D01*
G01X35223569Y-15070784D01*
G01X35240877Y-15134948D01*
G01X35247253Y-15187083D01*
G01X35248164Y-15208593D01*
G01X35248164Y-15208593D01*
G01X35248164Y-15208593D01*
G01X35241580Y-15284918D01*
G01X35228969Y-15341069D01*
G01X35221046Y-15365871D01*
G01X35220918Y-15366211D01*
G01X35220918Y-15366211D01*
G01X35185477Y-15429636D01*
G01X35149243Y-15470677D01*
G01X35133907Y-15484277D01*
G01X35133907Y-15484277D01*
G01X35070615Y-15516849D01*
G01X35014744Y-15529028D01*
G01X34989791Y-15530859D01*
G01X34989766Y-15530859D01*
G01X34989766Y-15530859D01*
G01X34918754Y-15518913D01*
G01X34869248Y-15498163D01*
G01X34855586Y-15490429D01*
G01X34855586Y-15490429D01*
G01X34856111Y-15547429D01*
G01X34856172Y-15553418D01*
G01X34856172Y-15553418D01*
G01X34857154Y-15622616D01*
G01X34857344Y-15630761D01*
G01X34857344Y-15630761D01*
G01X34860025Y-15689139D01*
G01X34860274Y-15693750D01*
G01X34860274Y-15693750D01*
G01X34866527Y-15757414D01*
G01X34867598Y-15764062D01*
G01X34867598Y-15764062D01*
G01X34879608Y-15813274D01*
G01X34879610Y-15813281D01*
G01X34879610Y-15813281D01*
G01X34831563Y-15822656D01*
G01X34831563Y-15822656D01*
G01X34784981Y-15807129D01*
G01X34784981Y-15807129D01*
G01X34784981Y-15807129D01*
G01X34772978Y-15754969D01*
G01X34772969Y-15754101D01*
G01X34772969Y-15754101D01*
G01X34773119Y-15686404D01*
G01X34773489Y-15615866D01*
G01X34773953Y-15550525D01*
G01X34774391Y-15498417D01*
G01X34774678Y-15467580D01*
G01X34774727Y-15462597D01*
G01X34774727Y-15462597D01*
G01X34775618Y-15366723D01*
G01X34776142Y-15296643D01*
G01X34776396Y-15250322D01*
G01X34776478Y-15225727D01*
G01X34776485Y-15220312D01*
G01X34776485Y-15220312D01*
G01X34774108Y-15121312D01*
G01X34768441Y-15049453D01*
G01X34761677Y-15001781D01*
G01X34756010Y-14975343D01*
G01X34753633Y-14967187D01*
G01X34753633Y-14967187D01*
G37*
%LPC*%
G36*
G01X34855586Y-15082617D02*
G01X34855586Y-15082617D01*
G01X34856491Y-15189309D01*
G01X34857126Y-15273441D01*
G01X34857540Y-15337055D01*
G01X34857780Y-15382190D01*
G01X34857893Y-15410888D01*
G01X34857928Y-15425190D01*
G01X34857930Y-15427734D01*
G01X34857930Y-15427734D01*
G01X34921059Y-15453358D01*
G01X34978743Y-15462749D01*
G01X35002071Y-15464062D01*
G01X35002071Y-15464062D01*
G01X35068135Y-15445752D01*
G01X35093770Y-15427441D01*
G01X35093770Y-15427441D01*
G01X35093770Y-15427441D01*
G01X35133547Y-15371459D01*
G01X35147015Y-15338917D01*
G01X35147090Y-15338672D01*
G01X35147090Y-15338672D01*
G01X35159891Y-15270911D01*
G01X35162591Y-15228660D01*
G01X35162618Y-15226171D01*
G01X35162618Y-15226171D01*
G01X35153170Y-15142117D01*
G01X35134670Y-15089787D01*
G01X35121888Y-15068134D01*
G01X35121309Y-15067382D01*
G01X35121309Y-15067382D01*
G01X35063279Y-15026352D01*
G01X35019593Y-15016615D01*
G01X35014961Y-15016406D01*
G01X35014961Y-15016406D01*
G01X34946806Y-15029881D01*
G01X34891313Y-15057389D01*
G01X34859374Y-15079551D01*
G01X34855586Y-15082617D01*
G37*
%LPD*%
G36*
G01X35355391Y-15362109D02*
G01X35355391Y-15362109D01*
G01X35370607Y-15292539D01*
G01X35384102Y-15272168D01*
G01X35384102Y-15272168D01*
G01X35439159Y-15237387D01*
G01X35463203Y-15228515D01*
G01X35463203Y-15228515D01*
G01X35527751Y-15214876D01*
G01X35594346Y-15205344D01*
G01X35651087Y-15199433D01*
G01X35686067Y-15196656D01*
G01X35691719Y-15196289D01*
G01X35691719Y-15196289D01*
G01X35684620Y-15111356D01*
G01X35671966Y-15066540D01*
G01X35666524Y-15055371D01*
G01X35666524Y-15055371D01*
G01X35613536Y-15023622D01*
G01X35563740Y-15016513D01*
G01X35559297Y-15016406D01*
G01X35559297Y-15016406D01*
G01X35499101Y-15032901D01*
G01X35489864Y-15037793D01*
G01X35489864Y-15037793D01*
G01X35444364Y-15084389D01*
G01X35435664Y-15100195D01*
G01X35435664Y-15100195D01*
G01X35383156Y-15063721D01*
G01X35380586Y-15052148D01*
G01X35380586Y-15052148D01*
G01X35410309Y-14996304D01*
G01X35438301Y-14977148D01*
G01X35438301Y-14977148D01*
G01X35505333Y-14956056D01*
G01X35558891Y-14949517D01*
G01X35572774Y-14949023D01*
G01X35572774Y-14949023D01*
G01X35655084Y-14959360D01*
G01X35704937Y-14979157D01*
G01X35723715Y-14991597D01*
G01X35723946Y-14991796D01*
G01X35723946Y-14991796D01*
G01X35756209Y-15045713D01*
G01X35769356Y-15106748D01*
G01X35771976Y-15143168D01*
G01X35771993Y-15144726D01*
G01X35771993Y-15144726D01*
G01X35771059Y-15202641D01*
G01X35770821Y-15215332D01*
G01X35770821Y-15215332D01*
G01X35769756Y-15288494D01*
G01X35769649Y-15307031D01*
G01X35769649Y-15307031D01*
G01X35773219Y-15397595D01*
G01X35781075Y-15462011D01*
G01X35788930Y-15500500D01*
G01X35792500Y-15513281D01*
G01X35792500Y-15513281D01*
G01X35792500Y-15513281D01*
G01X35745625Y-15522656D01*
G01X35745625Y-15522656D01*
G01X35708418Y-15510058D01*
G01X35708418Y-15510058D01*
G01X35694063Y-15469921D01*
G01X35694063Y-15469921D01*
G01X35628087Y-15509957D01*
G01X35573154Y-15526959D01*
G01X35542837Y-15530798D01*
G01X35540547Y-15530859D01*
G01X35540547Y-15530859D01*
G01X35457693Y-15516425D01*
G01X35404188Y-15480995D01*
G01X35373614Y-15436381D01*
G01X35359555Y-15394390D01*
G01X35355592Y-15366834D01*
G01X35355391Y-15362109D01*
G37*
%LPC*%
G36*
G01X35439766Y-15362109D02*
G01X35439766Y-15362109D01*
G01X35458533Y-15427309D01*
G01X35470821Y-15441796D01*
G01X35470821Y-15441796D01*
G01X35531022Y-15465928D01*
G01X35549922Y-15467578D01*
G01X35549922Y-15467578D01*
G01X35623038Y-15453121D01*
G01X35671355Y-15426699D01*
G01X35687618Y-15413671D01*
G01X35687618Y-15413671D01*
G01X35686447Y-15358765D01*
G01X35686446Y-15357421D01*
G01X35686446Y-15357421D01*
G01X35688773Y-15288042D01*
G01X35690547Y-15257812D01*
G01X35690547Y-15257812D01*
G01X35638483Y-15263660D01*
G01X35638399Y-15263671D01*
G01X35638399Y-15263671D01*
G01X35591231Y-15269531D01*
G01X35591231Y-15269531D01*
G01X35547286Y-15276562D01*
G01X35547286Y-15276562D01*
G01X35512129Y-15286230D01*
G01X35512129Y-15286230D01*
G01X35481075Y-15299707D01*
G01X35481075Y-15299707D01*
G01X35459395Y-15315820D01*
G01X35459395Y-15315820D01*
G01X35443868Y-15336035D01*
G01X35443868Y-15336035D01*
G01X35439766Y-15362109D01*
G37*
%LPD*%
G36*
G01X35906172Y-15435351D02*
G01X35906172Y-15435351D01*
G01X35944150Y-15391248D01*
G01X35960078Y-15384961D01*
G01X35960078Y-15384961D01*
G01X36000979Y-15434257D01*
G01X36017207Y-15443847D01*
G01X36017207Y-15443847D01*
G01X36083359Y-15461827D01*
G01X36112422Y-15464062D01*
G01X36112422Y-15464062D01*
G01X36179931Y-15449918D01*
G01X36195918Y-15441211D01*
G01X36195918Y-15441211D01*
G01X36226234Y-15386335D01*
G01X36227852Y-15370312D01*
G01X36227852Y-15370312D01*
G01X36200554Y-15318535D01*
G01X36195918Y-15315234D01*
G01X36195918Y-15315234D01*
G01X36135802Y-15290253D01*
G01X36118575Y-15285644D01*
G01X36118575Y-15285644D01*
G01X36051997Y-15268679D01*
G01X36027461Y-15261621D01*
G01X36027461Y-15261621D01*
G01X35969101Y-15228366D01*
G01X35949825Y-15209472D01*
G01X35949825Y-15209472D01*
G01X35922645Y-15148011D01*
G01X35917898Y-15108477D01*
G01X35917891Y-15107812D01*
G01X35917891Y-15107812D01*
G01X35937886Y-15040299D01*
G01X35970735Y-15000982D01*
G01X35979707Y-14993554D01*
G01X35979707Y-14993554D01*
G01X36044652Y-14961826D01*
G01X36098595Y-14950482D01*
G01X36119453Y-14949023D01*
G01X36119453Y-14949023D01*
G01X36188070Y-14959364D01*
G01X36227651Y-14973217D01*
G01X36229903Y-14974218D01*
G01X36229903Y-14974218D01*
G01X36278826Y-15021893D01*
G01X36284102Y-15043945D01*
G01X36284102Y-15043945D01*
G01X36246124Y-15088631D01*
G01X36230196Y-15094336D01*
G01X36230196Y-15094336D01*
G01X36189278Y-15046544D01*
G01X36175996Y-15038086D01*
G01X36175996Y-15038086D01*
G01X36111601Y-15018130D01*
G01X36090743Y-15016406D01*
G01X36090743Y-15016406D01*
G01X36028933Y-15032998D01*
G01X36019844Y-15038671D01*
G01X36019844Y-15038671D01*
G01X35990768Y-15092033D01*
G01X35989961Y-15101367D01*
G01X35989961Y-15101367D01*
G01X36016905Y-15153854D01*
G01X36021895Y-15157617D01*
G01X36021895Y-15157617D01*
G01X36081210Y-15183836D01*
G01X36099239Y-15188964D01*
G01X36099239Y-15188964D01*
G01X36164840Y-15206183D01*
G01X36190352Y-15213574D01*
G01X36190352Y-15213574D01*
G01X36249485Y-15246178D01*
G01X36267989Y-15263379D01*
G01X36267989Y-15263379D01*
G01X36295931Y-15323913D01*
G01X36299922Y-15357421D01*
G01X36299922Y-15357421D01*
G01X36299922Y-15357421D01*
G01X36283501Y-15429821D01*
G01X36253489Y-15473146D01*
G01X36238692Y-15486621D01*
G01X36238692Y-15486621D01*
G01X36174376Y-15517554D01*
G01X36118122Y-15529120D01*
G01X36093111Y-15530859D01*
G01X36093086Y-15530859D01*
G01X36093086Y-15530859D01*
G01X36018916Y-15521951D01*
G01X35972271Y-15507317D01*
G01X35963008Y-15503320D01*
G01X35963008Y-15503320D01*
G01X35911704Y-15455826D01*
G01X35906172Y-15435351D01*
G37*
G36*
G01X36348555Y-15004101D02*
G01X36348555Y-15004101D01*
G01X36366426Y-14968945D01*
G01X36366426Y-14968945D01*
G01X36423433Y-14961380D01*
G01X36427657Y-14961328D01*
G01X36461641Y-14961328D01*
G01X36461641Y-14961328D01*
G01X36458150Y-14882560D01*
G01X36454822Y-14835581D01*
G01X36454024Y-14826562D01*
G01X36454024Y-14826562D01*
G01X36493868Y-14823046D01*
G01X36493868Y-14823046D01*
G01X36548139Y-14853967D01*
G01X36551289Y-14868750D01*
G01X36551289Y-14868750D01*
G01X36548665Y-14927062D01*
G01X36546602Y-14962500D01*
G01X36546602Y-14962500D01*
G01X36642366Y-14961493D01*
G01X36704512Y-14959277D01*
G01X36738094Y-14957061D01*
G01X36748164Y-14956054D01*
G01X36748164Y-14956054D01*
G01X36748164Y-14956054D01*
G01X36752852Y-14984179D01*
G01X36752852Y-14984179D01*
G01X36740254Y-15016406D01*
G01X36740254Y-15016406D01*
G01X36700118Y-15025781D01*
G01X36700118Y-15025781D01*
G01X36642173Y-15026600D01*
G01X36576670Y-15026907D01*
G01X36544292Y-15026953D01*
G01X36544258Y-15026953D01*
G01X36544258Y-15026953D01*
G01X36543160Y-15101150D01*
G01X36542473Y-15171827D01*
G01X36542101Y-15232547D01*
G01X36541947Y-15276871D01*
G01X36541915Y-15298361D01*
G01X36541914Y-15299414D01*
G01X36541914Y-15299414D01*
G01X36548840Y-15385114D01*
G01X36560868Y-15426574D01*
G01X36565352Y-15435058D01*
G01X36565352Y-15435058D01*
G01X36620420Y-15465168D01*
G01X36642696Y-15467578D01*
G01X36642696Y-15467578D01*
G01X36707332Y-15447781D01*
G01X36728828Y-15431250D01*
G01X36728828Y-15431250D01*
G01X36750508Y-15474609D01*
G01X36750508Y-15474609D01*
G01X36719775Y-15515165D01*
G01X36719453Y-15515332D01*
G01X36719453Y-15515332D01*
G01X36657746Y-15530193D01*
G01X36643868Y-15530859D01*
G01X36643868Y-15530859D01*
G01X36565596Y-15516982D01*
G01X36519803Y-15490405D01*
G01X36503149Y-15473705D01*
G01X36502950Y-15473437D01*
G01X36502950Y-15473437D01*
G01X36477059Y-15415591D01*
G01X36465160Y-15353544D01*
G01X36461810Y-15309832D01*
G01X36461641Y-15301757D01*
G01X36461641Y-15301757D01*
G01X36462739Y-15194359D01*
G01X36463426Y-15117230D01*
G01X36463798Y-15066249D01*
G01X36463952Y-15037291D01*
G01X36463984Y-15026233D01*
G01X36463985Y-15025781D01*
G01X36463985Y-15025781D01*
G01X36414958Y-15029518D01*
G01X36355109Y-15034324D01*
G01X36352071Y-15034570D01*
G01X36352071Y-15034570D01*
G01X36348555Y-15004101D01*
G37*
G36*
G01X36824336Y-15243164D02*
G01X36824336Y-15243164D01*
G01X36834246Y-15159219D01*
G01X36857163Y-15095005D01*
G01X36882867Y-15051197D01*
G01X36901138Y-15028467D01*
G01X36904317Y-15025195D01*
G01X36904317Y-15025195D01*
G01X36967401Y-14981158D01*
G01X37028206Y-14958545D01*
G01X37074014Y-14950213D01*
G01X37092110Y-14949023D01*
G01X37092110Y-14949023D01*
G01X37092110Y-14949023D01*
G01X37167581Y-14962395D01*
G01X37214521Y-14986232D01*
G01X37228047Y-14996484D01*
G01X37228047Y-14996484D01*
G01X37268932Y-15056175D01*
G01X37279778Y-15100790D01*
G01X37280196Y-15107812D01*
G01X37280196Y-15107812D01*
G01X37268663Y-15173759D01*
G01X37263496Y-15185742D01*
G01X37263496Y-15185742D01*
G01X37223987Y-15231644D01*
G01X37219844Y-15234668D01*
G01X37219844Y-15234668D01*
G01X37160726Y-15257882D01*
G01X37141914Y-15262207D01*
G01X37141914Y-15262207D01*
G01X37072701Y-15271838D01*
G01X37041719Y-15274218D01*
G01X37041719Y-15274218D01*
G01X37041719Y-15274218D01*
G01X36976567Y-15276030D01*
G01X36922697Y-15276537D01*
G01X36912227Y-15276562D01*
G01X36912227Y-15276562D01*
G01X36930300Y-15351525D01*
G01X36953509Y-15398308D01*
G01X36964082Y-15413379D01*
G01X36964082Y-15413379D01*
G01X37020887Y-15451983D01*
G01X37070590Y-15463361D01*
G01X37082149Y-15464062D01*
G01X37082149Y-15464062D01*
G01X37157540Y-15447248D01*
G01X37198354Y-15416518D01*
G01X37209883Y-15401367D01*
G01X37209883Y-15401367D01*
G01X37256047Y-15444079D01*
G01X37257344Y-15451757D01*
G01X37257344Y-15451757D01*
G01X37222033Y-15499261D01*
G01X37202852Y-15509179D01*
G01X37202852Y-15509179D01*
G01X37134858Y-15526406D01*
G01X37087058Y-15530733D01*
G01X37080977Y-15530859D01*
G01X37080977Y-15530859D01*
G01X37004384Y-15519735D01*
G01X36946138Y-15495263D01*
G01X36909096Y-15470791D01*
G01X36896114Y-15459668D01*
G01X36896114Y-15459668D01*
G01X36896114Y-15459668D01*
G01X36858398Y-15404255D01*
G01X36836942Y-15341338D01*
G01X36827157Y-15284933D01*
G01X36824460Y-15249062D01*
G01X36824336Y-15243164D01*
G37*
%LPC*%
G36*
G01X36911055Y-15216796D02*
G01X36911055Y-15216796D01*
G01X36981314Y-15216054D01*
G01X36997188Y-15215625D01*
G01X36997188Y-15215625D01*
G01X37060147Y-15209996D01*
G01X37072774Y-15208300D01*
G01X37072774Y-15208300D01*
G01X37133846Y-15193373D01*
G01X37138985Y-15191308D01*
G01X37138985Y-15191308D01*
G01X37180247Y-15160307D01*
G01X37180293Y-15160254D01*
G01X37180293Y-15160254D01*
G01X37197573Y-15110582D01*
G01X37197578Y-15110156D01*
G01X37197578Y-15110156D01*
G01X37174424Y-15052422D01*
G01X37165938Y-15043359D01*
G01X37165938Y-15043359D01*
G01X37106781Y-15017172D01*
G01X37087422Y-15015234D01*
G01X37087422Y-15015234D01*
G01X37017601Y-15030462D01*
G01X36974188Y-15056201D01*
G01X36964375Y-15064453D01*
G01X36964375Y-15064453D01*
G01X36929609Y-15121089D01*
G01X36914610Y-15180739D01*
G01X36911105Y-15215334D01*
G01X36911055Y-15216796D01*
G37*

G04 Pad flashes *
%LPD*%
D11*

G04 end of program *
M02*
