G04                                                      *
G04 Greetings!                                           *
G04 This Gerber was generated by PCBmodE, an open source *
G04 PCB design software. Get it here:                    *
G04                                                      *
G04   http://pcbmode.com                                 *
G04                                                      *
G04 Also visit                                           *
G04                                                      *
G04   http://boldport.com                                *
G04                                                      *
G04 and follow @boldport / @pcbmode for updates!         *
G04                                                      *

G04 leading zeros omitted (L); absolute data (A); 6 integer digits and 6 fractional digits *
%FSLAX66Y66*%

G04 mode (MO): millimeters (MM) *
%MOMM*%

G04 Aperture definitions *
%ADD10C,0.001X*%
%ADD11C,0.001X*%
%ADD20C,0.15X*%
%ADD21C,0.33X*%

%LPD*%
D20*
G01X2788110Y-22262984D02*
G01X2788110Y-22262984D01*
G01X2747925Y-22221476D01*
G01X2709380Y-22178990D01*
G01X2672476Y-22135567D01*
G01X2637212Y-22091246D01*
G01X2603587Y-22046070D01*
G01X2571603Y-22000078D01*
G01X2541260Y-21953311D01*
G01X2512556Y-21905811D01*
G01X2485493Y-21857618D01*
G01X2460070Y-21808773D01*
G01X2436287Y-21759316D01*
G01X2414144Y-21709289D01*
G01X2393642Y-21658732D01*
G01X2374779Y-21607685D01*
G01X2357557Y-21556190D01*
G01X2341975Y-21504288D01*
G01X2328033Y-21452018D01*
G01X2315732Y-21399423D01*
G01X2305071Y-21346542D01*
G01X2296050Y-21293416D01*
G01X2288669Y-21240087D01*
G01X2282928Y-21186595D01*
G01X2278827Y-21132980D01*
G01X2276367Y-21079284D01*
G01X2275547Y-21025547D01*
G01X2276367Y-20971810D01*
G01X2278827Y-20918114D01*
G01X2282928Y-20864500D01*
G01X2288669Y-20811007D01*
G01X2296050Y-20757678D01*
G01X2305071Y-20704553D01*
G01X2315732Y-20651672D01*
G01X2328033Y-20599076D01*
G01X2341975Y-20546807D01*
G01X2357557Y-20494904D01*
G01X2374779Y-20443409D01*
G01X2393642Y-20392363D01*
G01X2414144Y-20341806D01*
G01X2436287Y-20291778D01*
G01X2460070Y-20242322D01*
G01X2485493Y-20193476D01*
G01X2512556Y-20145283D01*
G01X2541260Y-20097783D01*
G01X2571603Y-20051017D01*
G01X2603587Y-20005025D01*
G01X2637212Y-19959849D01*
G01X2672476Y-19915528D01*
G01X2709380Y-19872104D01*
G01X2747925Y-19829618D01*
G01X2788110Y-19788110D01*
G01X2788110Y-19788110D01*
G01X2788110Y-19788110D01*
G01X2829618Y-19747925D01*
G01X2872104Y-19709381D01*
G01X2915528Y-19672476D01*
G01X2959848Y-19637212D01*
G01X3005025Y-19603588D01*
G01X3051017Y-19571604D01*
G01X3097783Y-19541260D01*
G01X3145283Y-19512556D01*
G01X3193476Y-19485493D01*
G01X3242321Y-19460070D01*
G01X3291778Y-19436287D01*
G01X3341805Y-19414144D01*
G01X3392363Y-19393642D01*
G01X3443409Y-19374780D01*
G01X3494904Y-19357557D01*
G01X3546807Y-19341975D01*
G01X3599076Y-19328034D01*
G01X3651672Y-19315732D01*
G01X3704552Y-19305071D01*
G01X3757678Y-19296050D01*
G01X3811007Y-19288669D01*
G01X3864499Y-19282928D01*
G01X3918114Y-19278828D01*
G01X3971810Y-19276367D01*
G01X4025547Y-19275547D01*
G01X4079284Y-19276367D01*
G01X4132980Y-19278828D01*
G01X4186595Y-19282928D01*
G01X4240087Y-19288669D01*
G01X4293416Y-19296050D01*
G01X4346542Y-19305071D01*
G01X4399423Y-19315732D01*
G01X4452018Y-19328034D01*
G01X4504287Y-19341975D01*
G01X4556190Y-19357557D01*
G01X4607685Y-19374780D01*
G01X4658731Y-19393642D01*
G01X4709289Y-19414144D01*
G01X4759316Y-19436287D01*
G01X4808773Y-19460070D01*
G01X4857618Y-19485493D01*
G01X4905811Y-19512556D01*
G01X4953311Y-19541260D01*
G01X5000077Y-19571604D01*
G01X5046069Y-19603588D01*
G01X5091246Y-19637212D01*
G01X5135566Y-19672476D01*
G01X5178990Y-19709381D01*
G01X5221476Y-19747925D01*
G01X5262984Y-19788110D01*
G01X5262984Y-19788110D01*
G01X5262984Y-19788110D01*
G01X5303169Y-19829618D01*
G01X5341714Y-19872104D01*
G01X5378618Y-19915528D01*
G01X5413882Y-19959849D01*
G01X5447507Y-20005025D01*
G01X5479491Y-20051017D01*
G01X5509834Y-20097783D01*
G01X5538538Y-20145283D01*
G01X5565601Y-20193476D01*
G01X5591024Y-20242322D01*
G01X5614807Y-20291778D01*
G01X5636950Y-20341806D01*
G01X5657452Y-20392363D01*
G01X5676315Y-20443409D01*
G01X5693537Y-20494904D01*
G01X5709119Y-20546807D01*
G01X5723061Y-20599076D01*
G01X5735362Y-20651672D01*
G01X5746023Y-20704553D01*
G01X5755044Y-20757678D01*
G01X5762425Y-20811007D01*
G01X5768166Y-20864500D01*
G01X5772267Y-20918114D01*
G01X5774727Y-20971810D01*
G01X5775547Y-21025547D01*
G01X5774727Y-21079284D01*
G01X5772267Y-21132980D01*
G01X5768166Y-21186595D01*
G01X5762425Y-21240087D01*
G01X5755044Y-21293416D01*
G01X5746023Y-21346542D01*
G01X5735362Y-21399423D01*
G01X5723061Y-21452018D01*
G01X5709119Y-21504288D01*
G01X5693537Y-21556190D01*
G01X5676315Y-21607685D01*
G01X5657452Y-21658732D01*
G01X5636950Y-21709289D01*
G01X5614807Y-21759316D01*
G01X5591024Y-21808773D01*
G01X5565601Y-21857618D01*
G01X5538538Y-21905811D01*
G01X5509834Y-21953311D01*
G01X5479491Y-22000078D01*
G01X5447507Y-22046070D01*
G01X5413882Y-22091246D01*
G01X5378618Y-22135567D01*
G01X5341714Y-22178990D01*
G01X5303169Y-22221476D01*
G01X5262984Y-22262984D01*
G01X5262984Y-22262984D01*
G01X5262984Y-22262984D01*
G01X5221476Y-22303169D01*
G01X5178990Y-22341714D01*
G01X5135566Y-22378618D01*
G01X5091246Y-22413883D01*
G01X5046069Y-22447507D01*
G01X5000077Y-22479491D01*
G01X4953311Y-22509835D01*
G01X4905811Y-22538538D01*
G01X4857618Y-22565601D01*
G01X4808773Y-22591025D01*
G01X4759316Y-22614807D01*
G01X4709289Y-22636950D01*
G01X4658731Y-22657453D01*
G01X4607685Y-22676315D01*
G01X4556190Y-22693537D01*
G01X4504287Y-22709119D01*
G01X4452018Y-22723061D01*
G01X4399423Y-22735362D01*
G01X4346542Y-22746024D01*
G01X4293416Y-22755045D01*
G01X4240087Y-22762426D01*
G01X4186595Y-22768166D01*
G01X4132980Y-22772267D01*
G01X4079284Y-22774727D01*
G01X4025547Y-22775547D01*
G01X3971810Y-22774727D01*
G01X3918114Y-22772267D01*
G01X3864499Y-22768166D01*
G01X3811007Y-22762426D01*
G01X3757678Y-22755045D01*
G01X3704552Y-22746024D01*
G01X3651672Y-22735362D01*
G01X3599076Y-22723061D01*
G01X3546807Y-22709119D01*
G01X3494904Y-22693537D01*
G01X3443409Y-22676315D01*
G01X3392363Y-22657453D01*
G01X3341805Y-22636950D01*
G01X3291778Y-22614807D01*
G01X3242321Y-22591025D01*
G01X3193476Y-22565601D01*
G01X3145283Y-22538538D01*
G01X3097783Y-22509835D01*
G01X3051017Y-22479491D01*
G01X3005025Y-22447507D01*
G01X2959848Y-22413883D01*
G01X2915528Y-22378618D01*
G01X2872104Y-22341714D01*
G01X2829618Y-22303169D01*
G01X2788110Y-22262984D01*
G01X2788110Y-22262984D01*
D20*
G01X2081003Y-22970091D02*
G01X2081003Y-22970091D01*
G01X2017855Y-22904865D01*
G01X1957285Y-22838101D01*
G01X1899292Y-22769863D01*
G01X1843877Y-22700217D01*
G01X1791039Y-22629225D01*
G01X1740778Y-22556952D01*
G01X1693095Y-22483463D01*
G01X1647990Y-22408820D01*
G01X1605462Y-22333088D01*
G01X1565511Y-22256331D01*
G01X1528138Y-22178613D01*
G01X1493342Y-22099999D01*
G01X1461124Y-22020551D01*
G01X1431483Y-21940336D01*
G01X1404420Y-21859415D01*
G01X1379934Y-21777854D01*
G01X1358026Y-21695716D01*
G01X1338695Y-21613066D01*
G01X1321941Y-21529968D01*
G01X1307765Y-21446485D01*
G01X1296166Y-21362682D01*
G01X1287145Y-21278622D01*
G01X1280702Y-21194371D01*
G01X1276836Y-21109991D01*
G01X1275547Y-21025547D01*
G01X1276836Y-20941104D01*
G01X1280702Y-20856724D01*
G01X1287145Y-20772473D01*
G01X1296166Y-20688413D01*
G01X1307765Y-20604610D01*
G01X1321941Y-20521127D01*
G01X1338695Y-20438029D01*
G01X1358026Y-20355379D01*
G01X1379934Y-20273241D01*
G01X1404420Y-20191680D01*
G01X1431483Y-20110759D01*
G01X1461124Y-20030544D01*
G01X1493342Y-19951096D01*
G01X1528138Y-19872482D01*
G01X1565511Y-19794764D01*
G01X1605462Y-19718007D01*
G01X1647990Y-19642275D01*
G01X1693095Y-19567632D01*
G01X1740778Y-19494143D01*
G01X1791039Y-19421870D01*
G01X1843877Y-19350878D01*
G01X1899292Y-19281232D01*
G01X1957285Y-19212994D01*
G01X2017855Y-19146230D01*
G01X2081003Y-19081004D01*
G01X2081003Y-19081004D01*
G01X2081003Y-19081004D01*
G01X2146230Y-19017856D01*
G01X2212994Y-18957286D01*
G01X2281231Y-18899293D01*
G01X2350877Y-18843878D01*
G01X2421869Y-18791040D01*
G01X2494142Y-18740779D01*
G01X2567632Y-18693096D01*
G01X2642275Y-18647991D01*
G01X2718007Y-18605462D01*
G01X2794763Y-18565512D01*
G01X2872481Y-18528139D01*
G01X2951096Y-18493343D01*
G01X3030543Y-18461125D01*
G01X3110759Y-18431484D01*
G01X3191679Y-18404421D01*
G01X3273240Y-18379935D01*
G01X3355378Y-18358026D01*
G01X3438028Y-18338695D01*
G01X3521127Y-18321942D01*
G01X3604610Y-18307766D01*
G01X3688413Y-18296167D01*
G01X3772472Y-18287146D01*
G01X3856723Y-18280702D01*
G01X3941103Y-18276836D01*
G01X4025547Y-18275547D01*
G01X4109990Y-18276836D01*
G01X4194370Y-18280702D01*
G01X4278622Y-18287146D01*
G01X4362681Y-18296167D01*
G01X4446484Y-18307766D01*
G01X4529967Y-18321942D01*
G01X4613065Y-18338695D01*
G01X4695716Y-18358026D01*
G01X4777853Y-18379935D01*
G01X4859414Y-18404421D01*
G01X4940335Y-18431484D01*
G01X5020551Y-18461125D01*
G01X5099998Y-18493343D01*
G01X5178612Y-18528139D01*
G01X5256330Y-18565512D01*
G01X5333087Y-18605462D01*
G01X5408819Y-18647991D01*
G01X5483462Y-18693096D01*
G01X5556952Y-18740779D01*
G01X5629225Y-18791040D01*
G01X5700216Y-18843878D01*
G01X5769863Y-18899293D01*
G01X5838100Y-18957286D01*
G01X5904864Y-19017856D01*
G01X5970090Y-19081004D01*
G01X5970090Y-19081004D01*
G01X5970090Y-19081004D01*
G01X6033238Y-19146230D01*
G01X6093809Y-19212994D01*
G01X6151801Y-19281232D01*
G01X6207217Y-19350878D01*
G01X6260055Y-19421870D01*
G01X6310315Y-19494143D01*
G01X6357998Y-19567632D01*
G01X6403104Y-19642275D01*
G01X6445632Y-19718007D01*
G01X6485583Y-19794764D01*
G01X6522956Y-19872482D01*
G01X6557751Y-19951096D01*
G01X6589970Y-20030544D01*
G01X6619610Y-20110759D01*
G01X6646674Y-20191680D01*
G01X6671160Y-20273241D01*
G01X6693068Y-20355379D01*
G01X6712399Y-20438029D01*
G01X6729153Y-20521127D01*
G01X6743329Y-20604610D01*
G01X6754927Y-20688413D01*
G01X6763948Y-20772473D01*
G01X6770392Y-20856724D01*
G01X6774258Y-20941104D01*
G01X6775547Y-21025547D01*
G01X6774258Y-21109991D01*
G01X6770392Y-21194371D01*
G01X6763948Y-21278622D01*
G01X6754927Y-21362682D01*
G01X6743329Y-21446485D01*
G01X6729153Y-21529968D01*
G01X6712399Y-21613066D01*
G01X6693068Y-21695716D01*
G01X6671160Y-21777854D01*
G01X6646674Y-21859415D01*
G01X6619610Y-21940336D01*
G01X6589970Y-22020551D01*
G01X6557751Y-22099999D01*
G01X6522956Y-22178613D01*
G01X6485583Y-22256331D01*
G01X6445632Y-22333088D01*
G01X6403104Y-22408820D01*
G01X6357998Y-22483463D01*
G01X6310315Y-22556952D01*
G01X6260055Y-22629225D01*
G01X6207217Y-22700217D01*
G01X6151801Y-22769863D01*
G01X6093809Y-22838101D01*
G01X6033238Y-22904865D01*
G01X5970090Y-22970091D01*
G01X5970090Y-22970091D01*
G01X5970090Y-22970091D01*
G01X5904864Y-23033239D01*
G01X5838100Y-23093809D01*
G01X5769863Y-23151802D01*
G01X5700216Y-23207217D01*
G01X5629225Y-23260055D01*
G01X5556952Y-23310316D01*
G01X5483462Y-23357999D01*
G01X5408819Y-23403104D01*
G01X5333087Y-23445633D01*
G01X5256330Y-23485583D01*
G01X5178612Y-23522956D01*
G01X5099998Y-23557752D01*
G01X5020551Y-23589970D01*
G01X4940335Y-23619611D01*
G01X4859414Y-23646674D01*
G01X4777853Y-23671160D01*
G01X4695716Y-23693069D01*
G01X4613065Y-23712400D01*
G01X4529967Y-23729153D01*
G01X4446484Y-23743329D01*
G01X4362681Y-23754928D01*
G01X4278622Y-23763949D01*
G01X4194370Y-23770393D01*
G01X4109990Y-23774259D01*
G01X4025547Y-23775547D01*
G01X3941103Y-23774259D01*
G01X3856723Y-23770393D01*
G01X3772472Y-23763949D01*
G01X3688413Y-23754928D01*
G01X3604610Y-23743329D01*
G01X3521127Y-23729153D01*
G01X3438028Y-23712400D01*
G01X3355378Y-23693069D01*
G01X3273240Y-23671160D01*
G01X3191679Y-23646674D01*
G01X3110759Y-23619611D01*
G01X3030543Y-23589970D01*
G01X2951096Y-23557752D01*
G01X2872481Y-23522956D01*
G01X2794763Y-23485583D01*
G01X2718007Y-23445633D01*
G01X2642275Y-23403104D01*
G01X2567632Y-23357999D01*
G01X2494142Y-23310316D01*
G01X2421869Y-23260055D01*
G01X2350877Y-23207217D01*
G01X2281231Y-23151802D01*
G01X2212994Y-23093809D01*
G01X2146230Y-23033239D01*
G01X2081003Y-22970091D01*
G01X2081003Y-22970091D01*
D20*
G01X20605544Y-14310383D02*
G01X21945551Y-14310383D01*
G01X21945551Y-14310383D01*
G01X22002714Y-14307151D01*
G01X22057986Y-14297691D01*
G01X22111014Y-14282356D01*
G01X22161447Y-14261498D01*
G01X22208930Y-14235472D01*
G01X22253110Y-14204629D01*
G01X22293634Y-14169324D01*
G01X22330150Y-14129909D01*
G01X22362303Y-14086737D01*
G01X22389742Y-14040162D01*
G01X22412112Y-13990536D01*
G01X22429062Y-13938213D01*
G01X22440236Y-13883546D01*
G01X22445284Y-13826888D01*
G01X22445551Y-13810383D01*
G01X22445551Y-11240712D01*
G01X22445551Y-11240712D01*
G01X22442027Y-11183620D01*
G01X22431777Y-11128539D01*
G01X22415287Y-11075789D01*
G01X22393041Y-11025692D01*
G01X22365526Y-10978569D01*
G01X22333227Y-10934740D01*
G01X22296629Y-10894528D01*
G01X22256216Y-10858254D01*
G01X22212475Y-10826238D01*
G01X22165890Y-10798801D01*
G01X22116947Y-10776266D01*
G01X22066132Y-10758953D01*
G01X22013928Y-10747183D01*
G01X21960822Y-10741277D01*
G01X21945551Y-10740712D01*
G01X21105544Y-10740712D01*
G01X21105544Y-10740712D01*
G01X21048396Y-10743944D01*
G01X20993161Y-10753404D01*
G01X20940188Y-10768740D01*
G01X20889822Y-10789597D01*
G01X20842410Y-10815624D01*
G01X20798300Y-10846467D01*
G01X20757838Y-10881772D01*
G01X20721370Y-10921187D01*
G01X20689243Y-10964359D01*
G01X20661805Y-11010934D01*
G01X20639402Y-11060560D01*
G01X20622381Y-11112883D01*
G01X20611088Y-11167550D01*
G01X20605870Y-11224208D01*
G01X20605544Y-11240712D01*
G01X20605544Y-14310383D01*
D20*
G01X20310383Y-22445550D02*
G01X20310383Y-21105543D01*
G01X20310383Y-21105543D01*
G01X20307151Y-21048381D01*
G01X20297691Y-20993109D01*
G01X20282356Y-20940080D01*
G01X20261498Y-20889647D01*
G01X20235472Y-20842165D01*
G01X20204629Y-20797984D01*
G01X20169324Y-20757460D01*
G01X20129909Y-20720945D01*
G01X20086737Y-20688791D01*
G01X20040162Y-20661352D01*
G01X19990536Y-20638982D01*
G01X19938213Y-20622033D01*
G01X19883546Y-20610858D01*
G01X19826888Y-20605810D01*
G01X19810383Y-20605543D01*
G01X17240712Y-20605543D01*
G01X17240712Y-20605543D01*
G01X17183620Y-20609068D01*
G01X17128539Y-20619318D01*
G01X17075789Y-20635808D01*
G01X17025692Y-20658053D01*
G01X16978569Y-20685568D01*
G01X16934740Y-20717867D01*
G01X16894528Y-20754466D01*
G01X16858254Y-20794878D01*
G01X16826238Y-20838619D01*
G01X16798801Y-20885204D01*
G01X16776266Y-20934147D01*
G01X16758953Y-20984963D01*
G01X16747183Y-21037166D01*
G01X16741277Y-21090272D01*
G01X16740712Y-21105543D01*
G01X16740712Y-21945550D01*
G01X16740712Y-21945550D01*
G01X16743944Y-22002699D01*
G01X16753404Y-22057933D01*
G01X16768740Y-22110906D01*
G01X16789597Y-22161272D01*
G01X16815624Y-22208684D01*
G01X16846467Y-22252794D01*
G01X16881772Y-22293257D01*
G01X16921187Y-22329724D01*
G01X16964359Y-22361851D01*
G01X17010934Y-22389289D01*
G01X17060560Y-22411692D01*
G01X17112883Y-22428713D01*
G01X17167550Y-22440006D01*
G01X17224208Y-22445224D01*
G01X17240712Y-22445550D01*
G01X20310383Y-22445550D01*
D20*
G01X2605544Y-11310383D02*
G01X3945551Y-11310383D01*
G01X3945551Y-11310383D01*
G01X4002714Y-11307151D01*
G01X4057986Y-11297691D01*
G01X4111014Y-11282356D01*
G01X4161447Y-11261498D01*
G01X4208930Y-11235472D01*
G01X4253110Y-11204629D01*
G01X4293634Y-11169324D01*
G01X4330150Y-11129909D01*
G01X4362303Y-11086737D01*
G01X4389742Y-11040162D01*
G01X4412112Y-10990536D01*
G01X4429062Y-10938213D01*
G01X4440236Y-10883546D01*
G01X4445284Y-10826888D01*
G01X4445551Y-10810383D01*
G01X4445551Y-8240712D01*
G01X4445551Y-8240712D01*
G01X4442027Y-8183620D01*
G01X4431777Y-8128539D01*
G01X4415286Y-8075789D01*
G01X4393041Y-8025692D01*
G01X4365526Y-7978569D01*
G01X4333227Y-7934740D01*
G01X4296629Y-7894528D01*
G01X4256216Y-7858254D01*
G01X4212475Y-7826238D01*
G01X4165890Y-7798801D01*
G01X4116947Y-7776266D01*
G01X4066132Y-7758953D01*
G01X4013928Y-7747183D01*
G01X3960822Y-7741277D01*
G01X3945551Y-7740712D01*
G01X3105544Y-7740712D01*
G01X3105544Y-7740712D01*
G01X3048396Y-7743944D01*
G01X2993161Y-7753404D01*
G01X2940188Y-7768740D01*
G01X2889822Y-7789598D01*
G01X2842411Y-7815624D01*
G01X2798300Y-7846467D01*
G01X2757838Y-7881772D01*
G01X2721370Y-7921187D01*
G01X2689243Y-7964359D01*
G01X2661805Y-8010934D01*
G01X2639402Y-8060560D01*
G01X2622381Y-8112883D01*
G01X2611088Y-8167550D01*
G01X2605870Y-8224208D01*
G01X2605544Y-8240712D01*
G01X2605544Y-11310383D01*
G36*
G01X19013846Y-3037248D02*
G01X19013846Y-3037248D01*
G01X19043981Y-3071420D01*
G01X19069129Y-3108649D01*
G01X19088309Y-3147903D01*
G01X19100537Y-3188150D01*
G01X19104830Y-3228359D01*
G01X19104830Y-3228359D01*
G01X19104830Y-3228359D01*
G01X19098663Y-3276805D01*
G01X19081305Y-3324913D01*
G01X19054468Y-3370968D01*
G01X19019867Y-3413256D01*
G01X18979215Y-3450065D01*
G01X18934225Y-3479681D01*
G01X18886610Y-3500389D01*
G01X18838086Y-3510478D01*
G01X18822005Y-3511184D01*
G01X18822005Y-3511184D01*
G01X18773768Y-3505022D01*
G01X18725827Y-3487679D01*
G01X18679899Y-3460876D01*
G01X18637704Y-3426331D01*
G01X18600959Y-3385761D01*
G01X18571384Y-3340886D01*
G01X18550697Y-3293425D01*
G01X18540616Y-3245096D01*
G01X18539910Y-3229090D01*
G01X18539910Y-3229090D01*
G01X18546077Y-3180643D01*
G01X18563436Y-3132535D01*
G01X18590272Y-3086481D01*
G01X18624873Y-3044192D01*
G01X18665526Y-3007383D01*
G01X18710516Y-2977768D01*
G01X18758130Y-2957059D01*
G01X18806655Y-2946971D01*
G01X18822736Y-2946264D01*
G01X18822736Y-2946264D01*
G01X18862944Y-2950557D01*
G01X18903191Y-2962785D01*
G01X18942445Y-2981965D01*
G01X18979674Y-3007114D01*
G01X19013846Y-3037248D01*
G01X19013846Y-3037248D01*
G37*
G36*
G01X17419938Y-4631156D02*
G01X17419938Y-4631156D01*
G01X17450111Y-4665290D01*
G01X17475351Y-4702427D01*
G01X17494639Y-4741573D01*
G01X17506959Y-4781728D01*
G01X17511290Y-4821899D01*
G01X17511290Y-4821899D01*
G01X17511290Y-4821899D01*
G01X17505109Y-4870361D01*
G01X17487713Y-4918507D01*
G01X17460822Y-4964617D01*
G01X17426157Y-5006970D01*
G01X17385440Y-5043843D01*
G01X17340391Y-5073517D01*
G01X17292731Y-5094270D01*
G01X17244183Y-5104381D01*
G01X17228100Y-5105089D01*
G01X17228100Y-5105089D01*
G01X17179863Y-5098926D01*
G01X17131921Y-5081584D01*
G01X17085993Y-5054780D01*
G01X17043798Y-5020235D01*
G01X17007054Y-4979666D01*
G01X16977479Y-4934791D01*
G01X16956792Y-4887330D01*
G01X16946711Y-4839000D01*
G01X16946005Y-4822995D01*
G01X16946005Y-4822995D01*
G01X16952186Y-4774533D01*
G01X16969582Y-4726386D01*
G01X16996474Y-4680276D01*
G01X17031138Y-4637924D01*
G01X17071856Y-4601050D01*
G01X17116905Y-4571377D01*
G01X17164564Y-4550623D01*
G01X17213113Y-4540512D01*
G01X17229196Y-4539804D01*
G01X17229196Y-4539804D01*
G01X17269366Y-4544136D01*
G01X17309522Y-4556455D01*
G01X17348667Y-4575743D01*
G01X17385805Y-4600983D01*
G01X17419938Y-4631156D01*
G01X17419938Y-4631156D01*
G37*
G36*
G01X7102082Y-15354546D02*
G01X7102082Y-15354546D01*
G01X7138458Y-15312578D01*
G01X7177237Y-15289198D01*
G01X7217089Y-15287474D01*
G01X7256685Y-15310474D01*
G01X7256685Y-15310474D01*
G01X7256685Y-15310474D01*
G01X7277172Y-15331799D01*
G01X7297601Y-15357406D01*
G01X7317879Y-15387060D01*
G01X7337917Y-15420521D01*
G01X7357625Y-15457553D01*
G01X7376912Y-15497919D01*
G01X7395688Y-15541379D01*
G01X7413863Y-15587698D01*
G01X7431345Y-15636637D01*
G01X7448045Y-15687959D01*
G01X7463872Y-15741426D01*
G01X7478736Y-15796801D01*
G01X7492547Y-15853846D01*
G01X7505213Y-15912323D01*
G01X7516646Y-15971996D01*
G01X7526753Y-16032626D01*
G01X7532711Y-16073461D01*
G01X7532711Y-16073461D01*
G01X7539221Y-16124081D01*
G01X7544795Y-16174410D01*
G01X7549449Y-16224499D01*
G01X7553197Y-16274402D01*
G01X7556054Y-16324172D01*
G01X7558037Y-16373861D01*
G01X7559160Y-16423523D01*
G01X7559439Y-16473209D01*
G01X7558888Y-16522972D01*
G01X7557524Y-16572866D01*
G01X7555362Y-16622944D01*
G01X7552416Y-16673256D01*
G01X7548702Y-16723858D01*
G01X7544236Y-16774801D01*
G01X7539032Y-16826138D01*
G01X7533106Y-16877921D01*
G01X7526474Y-16930205D01*
G01X7519150Y-16983040D01*
G01X7511150Y-17036481D01*
G01X7502490Y-17090579D01*
G01X7502490Y-17090579D01*
G01X7502490Y-17090579D01*
G01X7481934Y-17203265D01*
G01X7460544Y-17298335D01*
G01X7438388Y-17376922D01*
G01X7415538Y-17440156D01*
G01X7392061Y-17489172D01*
G01X7368028Y-17525099D01*
G01X7343509Y-17549072D01*
G01X7318572Y-17562220D01*
G01X7293287Y-17565677D01*
G01X7267725Y-17560574D01*
G01X7241954Y-17548044D01*
G01X7216043Y-17529219D01*
G01X7190064Y-17505229D01*
G01X7164084Y-17477208D01*
G01X7138174Y-17446288D01*
G01X7112403Y-17413600D01*
G01X7095334Y-17391385D01*
G01X7095334Y-17391385D01*
G01X7076628Y-17363731D01*
G01X7058481Y-17330651D01*
G01X7040951Y-17292594D01*
G01X7024099Y-17250011D01*
G01X7007981Y-17203352D01*
G01X6992657Y-17153067D01*
G01X6978186Y-17099605D01*
G01X6964626Y-17043416D01*
G01X6952036Y-16984951D01*
G01X6940474Y-16924660D01*
G01X6929999Y-16862991D01*
G01X6920670Y-16800396D01*
G01X6912546Y-16737323D01*
G01X6905685Y-16674224D01*
G01X6900145Y-16611548D01*
G01X6895986Y-16549744D01*
G01X6894009Y-16509249D01*
G01X6894009Y-16509249D01*
G01X6892121Y-16445537D01*
G01X6891666Y-16382174D01*
G01X6892583Y-16319277D01*
G01X6894813Y-16256963D01*
G01X6898293Y-16195349D01*
G01X6902963Y-16134550D01*
G01X6908762Y-16074684D01*
G01X6915630Y-16015867D01*
G01X6923505Y-15958216D01*
G01X6932326Y-15901847D01*
G01X6942033Y-15846877D01*
G01X6952566Y-15793423D01*
G01X6963862Y-15741601D01*
G01X6975862Y-15691527D01*
G01X6988504Y-15643320D01*
G01X7001727Y-15597094D01*
G01X7015471Y-15552967D01*
G01X7029675Y-15511056D01*
G01X7044279Y-15471476D01*
G01X7059220Y-15434345D01*
G01X7059220Y-15434345D01*
G01X7059220Y-15434345D01*
G01X7079629Y-15391498D01*
G01X7102083Y-15354545D01*
G01X7102083Y-15354545D01*
G37*
G36*
G01X8878394Y-22663851D02*
G01X8878394Y-22663851D01*
G01X8824929Y-22625109D01*
G01X8773115Y-22584941D01*
G01X8722962Y-22543392D01*
G01X8674476Y-22500507D01*
G01X8627667Y-22456334D01*
G01X8582542Y-22410918D01*
G01X8539109Y-22364305D01*
G01X8497377Y-22316540D01*
G01X8457353Y-22267670D01*
G01X8419046Y-22217740D01*
G01X8382463Y-22166797D01*
G01X8347614Y-22114886D01*
G01X8314505Y-22062052D01*
G01X8283145Y-22008343D01*
G01X8253542Y-21953804D01*
G01X8225705Y-21898480D01*
G01X8199640Y-21842418D01*
G01X8175357Y-21785663D01*
G01X8152863Y-21728262D01*
G01X8132167Y-21670260D01*
G01X8113276Y-21611703D01*
G01X8096199Y-21552637D01*
G01X8080944Y-21493108D01*
G01X8067519Y-21433161D01*
G01X8055932Y-21372843D01*
G01X8046190Y-21312200D01*
G01X8038303Y-21251277D01*
G01X8032278Y-21190120D01*
G01X8028123Y-21128776D01*
G01X8025847Y-21067289D01*
G01X8025457Y-21005707D01*
G01X8026962Y-20944074D01*
G01X8030369Y-20882436D01*
G01X8035688Y-20820841D01*
G01X8042925Y-20759332D01*
G01X8052089Y-20697957D01*
G01X8063188Y-20636761D01*
G01X8076230Y-20575791D01*
G01X8091223Y-20515091D01*
G01X8108176Y-20454708D01*
G01X8127096Y-20394687D01*
G01X8147991Y-20335075D01*
G01X8170870Y-20275918D01*
G01X8195741Y-20217261D01*
G01X8222611Y-20159150D01*
G01X8251490Y-20101631D01*
G01X8282384Y-20044750D01*
G01X8315302Y-19988553D01*
G01X8350252Y-19933086D01*
G01X8387243Y-19878394D01*
G01X8387243Y-19878394D01*
G01X8387243Y-19878394D01*
G01X8425985Y-19824929D01*
G01X8466153Y-19773115D01*
G01X8507703Y-19722962D01*
G01X8550587Y-19674476D01*
G01X8594760Y-19627667D01*
G01X8640176Y-19582542D01*
G01X8686789Y-19539109D01*
G01X8734554Y-19497377D01*
G01X8783424Y-19457353D01*
G01X8833354Y-19419046D01*
G01X8884297Y-19382464D01*
G01X8936208Y-19347614D01*
G01X8989042Y-19314505D01*
G01X9042751Y-19283145D01*
G01X9097290Y-19253542D01*
G01X9152614Y-19225705D01*
G01X9208676Y-19199640D01*
G01X9265431Y-19175357D01*
G01X9322832Y-19152863D01*
G01X9380834Y-19132167D01*
G01X9439391Y-19113276D01*
G01X9498457Y-19096199D01*
G01X9557986Y-19080944D01*
G01X9617933Y-19067519D01*
G01X9678251Y-19055932D01*
G01X9738894Y-19046190D01*
G01X9799817Y-19038303D01*
G01X9860974Y-19032278D01*
G01X9922318Y-19028123D01*
G01X9983805Y-19025847D01*
G01X10045387Y-19025457D01*
G01X10107020Y-19026962D01*
G01X10168658Y-19030369D01*
G01X10230253Y-19035688D01*
G01X10291762Y-19042925D01*
G01X10353137Y-19052089D01*
G01X10414333Y-19063188D01*
G01X10475303Y-19076230D01*
G01X10536003Y-19091223D01*
G01X10596386Y-19108176D01*
G01X10656407Y-19127096D01*
G01X10716019Y-19147991D01*
G01X10775176Y-19170870D01*
G01X10833833Y-19195741D01*
G01X10891944Y-19222611D01*
G01X10949463Y-19251490D01*
G01X11006344Y-19282384D01*
G01X11062541Y-19315302D01*
G01X11118008Y-19350252D01*
G01X11172700Y-19387243D01*
G01X11172700Y-19387243D01*
G01X11172700Y-19387243D01*
G01X11226165Y-19425985D01*
G01X11277979Y-19466153D01*
G01X11328132Y-19507703D01*
G01X11376618Y-19550587D01*
G01X11423427Y-19594760D01*
G01X11468552Y-19640176D01*
G01X11511985Y-19686789D01*
G01X11553717Y-19734554D01*
G01X11593741Y-19783424D01*
G01X11632048Y-19833354D01*
G01X11668631Y-19884297D01*
G01X11703480Y-19936208D01*
G01X11736589Y-19989042D01*
G01X11767949Y-20042751D01*
G01X11797552Y-20097290D01*
G01X11825390Y-20152614D01*
G01X11851454Y-20208676D01*
G01X11875737Y-20265431D01*
G01X11898231Y-20322832D01*
G01X11918927Y-20380834D01*
G01X11937818Y-20439391D01*
G01X11954895Y-20498457D01*
G01X11970150Y-20557986D01*
G01X11983575Y-20617933D01*
G01X11995163Y-20678251D01*
G01X12004904Y-20738894D01*
G01X12012791Y-20799817D01*
G01X12018816Y-20860974D01*
G01X12022971Y-20922318D01*
G01X12025247Y-20983805D01*
G01X12025637Y-21045388D01*
G01X12024132Y-21107020D01*
G01X12020725Y-21168658D01*
G01X12015406Y-21230253D01*
G01X12008169Y-21291762D01*
G01X11999005Y-21353137D01*
G01X11987906Y-21414333D01*
G01X11974864Y-21475303D01*
G01X11959871Y-21536003D01*
G01X11942918Y-21596387D01*
G01X11923998Y-21656407D01*
G01X11903103Y-21716019D01*
G01X11880224Y-21775176D01*
G01X11855353Y-21833833D01*
G01X11828483Y-21891944D01*
G01X11799604Y-21949463D01*
G01X11768710Y-22006344D01*
G01X11735792Y-22062541D01*
G01X11700842Y-22118008D01*
G01X11663851Y-22172700D01*
G01X11663851Y-22172700D01*
G01X11663851Y-22172700D01*
G01X11625109Y-22226165D01*
G01X11584941Y-22277979D01*
G01X11543391Y-22328132D01*
G01X11500507Y-22376618D01*
G01X11456334Y-22423427D01*
G01X11410918Y-22468552D01*
G01X11364305Y-22511985D01*
G01X11316540Y-22553717D01*
G01X11267670Y-22593741D01*
G01X11217740Y-22632048D01*
G01X11166797Y-22668631D01*
G01X11114886Y-22703480D01*
G01X11062052Y-22736589D01*
G01X11008343Y-22767949D01*
G01X10953804Y-22797552D01*
G01X10898480Y-22825390D01*
G01X10842418Y-22851454D01*
G01X10785663Y-22875737D01*
G01X10728262Y-22898231D01*
G01X10670260Y-22918927D01*
G01X10611703Y-22937818D01*
G01X10552637Y-22954895D01*
G01X10493108Y-22970150D01*
G01X10433161Y-22983575D01*
G01X10372843Y-22995163D01*
G01X10312200Y-23004904D01*
G01X10251277Y-23012791D01*
G01X10190120Y-23018816D01*
G01X10128776Y-23022971D01*
G01X10067289Y-23025247D01*
G01X10005707Y-23025637D01*
G01X9944074Y-23024132D01*
G01X9882436Y-23020725D01*
G01X9820841Y-23015406D01*
G01X9759332Y-23008169D01*
G01X9697957Y-22999005D01*
G01X9636761Y-22987906D01*
G01X9575791Y-22974864D01*
G01X9515091Y-22959871D01*
G01X9454708Y-22942918D01*
G01X9394687Y-22923998D01*
G01X9335075Y-22903103D01*
G01X9275918Y-22880224D01*
G01X9217261Y-22855353D01*
G01X9159150Y-22828483D01*
G01X9101631Y-22799604D01*
G01X9044750Y-22768710D01*
G01X8988553Y-22735792D01*
G01X8933086Y-22700842D01*
G01X8878394Y-22663851D01*
G01X8878394Y-22663851D01*
G37*
D21*
G01X11011629Y-23547171D02*
G01X11905988Y-24173408D01*
D21*
G01X11771927Y-23413110D02*
G01X11145690Y-24307469D01*
G36*
G01X4893211Y-22770173D02*
G01X5768808Y-21894576D01*
G01X5652799Y-21778566D01*
G01X4875948Y-22555417D01*
G01X4469914Y-22149383D01*
G01X4371167Y-22248129D01*
G01X4893211Y-22770173D01*
G37*
G36*
G01X4186104Y-22063066D02*
G01X5061701Y-21187469D01*
G01X4570732Y-20696500D01*
G01X4471295Y-20795937D01*
G01X4846255Y-21170896D01*
G01X4577637Y-21439514D01*
G01X4249633Y-21111511D01*
G01X4150887Y-21210257D01*
G01X4478891Y-21538261D01*
G01X4168841Y-21848310D01*
G01X3762807Y-21442276D01*
G01X3664061Y-21541023D01*
G01X4186104Y-22063066D01*
G37*
G36*
G01X3544598Y-21393939D02*
G01X4393265Y-20545273D01*
G01X4393265Y-20545273D01*
G01X4351120Y-20482235D01*
G01X4309340Y-20427783D01*
G01X4273095Y-20385030D01*
G01X4247556Y-20357094D01*
G01X4237894Y-20347089D01*
G01X4237894Y-20347089D01*
G01X4237894Y-20347089D01*
G01X4178745Y-20294435D01*
G01X4123784Y-20254253D01*
G01X4080926Y-20227402D01*
G01X4058085Y-20214738D01*
G01X4056284Y-20213816D01*
G01X4056284Y-20213816D01*
G01X3986561Y-20186748D01*
G01X3923058Y-20172438D01*
G01X3875453Y-20166819D01*
G01X3853426Y-20165826D01*
G01X3852922Y-20165824D01*
G01X3852922Y-20165824D01*
G01X3782574Y-20172765D01*
G01X3717640Y-20188499D01*
G01X3666036Y-20206078D01*
G01X3635683Y-20218553D01*
G01X3630915Y-20220722D01*
G01X3630915Y-20220722D01*
G01X3572297Y-20253318D01*
G01X3516526Y-20291814D01*
G01X3467285Y-20330734D01*
G01X3428258Y-20364603D01*
G01X3403131Y-20387943D01*
G01X3395443Y-20395427D01*
G01X3395443Y-20395427D01*
G01X3339207Y-20456334D01*
G01X3294219Y-20512948D01*
G01X3260113Y-20562052D01*
G01X3236523Y-20600429D01*
G01X3223081Y-20624864D01*
G01X3219357Y-20632280D01*
G01X3219357Y-20632280D01*
G01X3190692Y-20706050D01*
G01X3174385Y-20770994D01*
G01X3166949Y-20820889D01*
G01X3164899Y-20849516D01*
G01X3164805Y-20853941D01*
G01X3164805Y-20853941D01*
G01X3171921Y-20927634D01*
G01X3187849Y-20990770D01*
G01X3204454Y-21036130D01*
G01X3213604Y-21056500D01*
G01X3213833Y-21056958D01*
G01X3213833Y-21056958D01*
G01X3251797Y-21120818D01*
G01X3292219Y-21175489D01*
G01X3326377Y-21215730D01*
G01X3345549Y-21236298D01*
G01X3347106Y-21237878D01*
G01X3347106Y-21237878D01*
G01X3401056Y-21288050D01*
G01X3454210Y-21330995D01*
G01X3500139Y-21364461D01*
G01X3532412Y-21386194D01*
G01X3544598Y-21393939D01*
G01X3544598Y-21393939D01*
G37*
%LPC*%
G36*
G01X3512143Y-21194375D02*
G01X3512143Y-21194375D01*
G01X3459404Y-21148886D01*
G01X3436184Y-21126702D01*
G01X3436184Y-21126702D01*
G01X3436184Y-21126702D01*
G01X3386576Y-21068407D01*
G01X3355586Y-21020409D01*
G01X3342719Y-20995790D01*
G01X3342272Y-20994810D01*
G01X3342272Y-20994810D01*
G01X3322661Y-20925730D01*
G01X3318644Y-20871085D01*
G01X3319484Y-20850489D01*
G01X3319484Y-20850489D01*
G01X3334766Y-20782387D01*
G01X3357469Y-20724800D01*
G01X3373385Y-20692720D01*
G01X3374727Y-20690285D01*
G01X3374727Y-20690285D01*
G01X3412962Y-20632160D01*
G01X3455293Y-20578883D01*
G01X3491790Y-20537714D01*
G01X3512521Y-20515911D01*
G01X3514215Y-20514199D01*
G01X3514215Y-20514199D01*
G01X3582106Y-20452671D01*
G01X3645705Y-20405746D01*
G01X3703347Y-20371466D01*
G01X3753367Y-20347875D01*
G01X3794097Y-20333016D01*
G01X3823872Y-20324931D01*
G01X3841027Y-20321663D01*
G01X3844635Y-20321194D01*
G01X3844635Y-20321194D01*
G01X3915842Y-20324338D01*
G01X3981396Y-20343390D01*
G01X4038454Y-20371401D01*
G01X4084173Y-20401420D01*
G01X4115711Y-20426498D01*
G01X4130226Y-20439687D01*
G01X4130862Y-20440312D01*
G01X4130862Y-20440312D01*
G01X4166404Y-20477233D01*
G01X4166424Y-20477255D01*
G01X4166424Y-20477255D01*
G01X4193700Y-20512818D01*
G01X3512143Y-21194375D01*
G37*
%LPD*%
G36*
G01X3488665Y-19976273D02*
G01X3488665Y-19976273D01*
G01X3461636Y-19906965D01*
G01X3440918Y-19843132D01*
G01X3427018Y-19793646D01*
G01X3420437Y-19767380D01*
G01X3419957Y-19765315D01*
G01X3419957Y-19765315D01*
G01X3407826Y-19691592D01*
G01X3402863Y-19622649D01*
G01X3402312Y-19567374D01*
G01X3403416Y-19534656D01*
G01X3403729Y-19529497D01*
G01X3322246Y-19448014D01*
G01X2545396Y-20224865D01*
G01X2379668Y-20059137D01*
G01X2280921Y-20157883D01*
G01X2751865Y-20628827D01*
G01X2850612Y-20530081D01*
G01X2661405Y-20340875D01*
G01X3275290Y-19726990D01*
G01X3275290Y-19726990D01*
G01X3283156Y-19787099D01*
G01X3284267Y-19793281D01*
G01X3284267Y-19793281D01*
G01X3299120Y-19856388D01*
G01X3302911Y-19869930D01*
G01X3302911Y-19869930D01*
G01X3323685Y-19933251D01*
G01X3330188Y-19951068D01*
G01X3330188Y-19951068D01*
G01X3356812Y-20012346D01*
G01X3364369Y-20027372D01*
G37*
G36*
G01X20900547Y-13408360D02*
G01X22120274Y-13408360D01*
G01X22120274Y-13408360D01*
G01X22133048Y-13347556D01*
G01X22134434Y-13339512D01*
G01X22134434Y-13339512D01*
G01X22142483Y-13274567D01*
G01X22143711Y-13259923D01*
G01X22143711Y-13259923D01*
G01X22147802Y-13194069D01*
G01X22148594Y-13178868D01*
G01X22148594Y-13178868D01*
G01X22150494Y-13114644D01*
G01X22150547Y-13106602D01*
G01X22150547Y-13106602D01*
G01X22144585Y-13013426D01*
G01X22129348Y-12935207D01*
G01X22108811Y-12872004D01*
G01X22086949Y-12823876D01*
G01X22067738Y-12790883D01*
G01X22055151Y-12773084D01*
G01X22052403Y-12769688D01*
G01X22052403Y-12769688D01*
G01X21999163Y-12723549D01*
G01X21938390Y-12692026D01*
G01X21877176Y-12672335D01*
G01X21822613Y-12661692D01*
G01X21781793Y-12657313D01*
G01X21761808Y-12656414D01*
G01X21760899Y-12656407D01*
G01X21760899Y-12656407D01*
G01X21684182Y-12665125D01*
G01X21621855Y-12684636D01*
G01X21578861Y-12704977D01*
G01X21560140Y-12716185D01*
G01X21559727Y-12716466D01*
G01X21559727Y-12716466D01*
G01X21504020Y-12765044D01*
G01X21462543Y-12816274D01*
G01X21436023Y-12858130D01*
G01X21425190Y-12878580D01*
G01X21424961Y-12879063D01*
G01X21315586Y-12811680D01*
G01X21185703Y-12736485D01*
G01X21043125Y-12661290D01*
G01X21043125Y-12661290D01*
G01X20976157Y-12628297D01*
G01X20924452Y-12603896D01*
G01X20900876Y-12593079D01*
G01X20900547Y-12592930D01*
G01X20900547Y-12768712D01*
G01X20900547Y-12768712D01*
G01X20972191Y-12799701D01*
G01X21038319Y-12830275D01*
G01X21095359Y-12857987D01*
G01X21139744Y-12880391D01*
G01X21167903Y-12895039D01*
G01X21176426Y-12899571D01*
G01X21176426Y-12899571D01*
G01X21249532Y-12941165D01*
G01X21309043Y-12978493D01*
G01X21353438Y-13008696D01*
G01X21381192Y-13028915D01*
G01X21390782Y-13036290D01*
G01X21390782Y-13036290D01*
G01X21390782Y-13036290D01*
G01X21388828Y-13071446D01*
G01X21388828Y-13102696D01*
G01X21388828Y-13242345D01*
G01X20900547Y-13242345D01*
G01X20900547Y-13408360D01*
G37*
%LPC*%
G36*
G01X21524571Y-13242345D02*
G01X21524571Y-13136876D01*
G01X21524571Y-13136876D01*
G01X21527868Y-13061723D01*
G01X21533126Y-13015329D01*
G01X21534336Y-13007481D01*
G01X21534336Y-13007481D01*
G01X21555581Y-12939107D01*
G01X21571317Y-12909532D01*
G01X21571446Y-12909337D01*
G01X21571446Y-12909337D01*
G01X21619713Y-12861831D01*
G01X21645664Y-12846348D01*
G01X21645664Y-12846348D01*
G01X21709227Y-12829122D01*
G01X21760414Y-12824552D01*
G01X21768711Y-12824376D01*
G01X21768711Y-12824376D01*
G01X21844365Y-12832748D01*
G01X21883430Y-12844841D01*
G01X21886875Y-12846348D01*
G01X21886875Y-12846348D01*
G01X21943342Y-12886412D01*
G01X21959629Y-12904454D01*
G01X21959629Y-12904454D01*
G01X21990158Y-12964407D01*
G01X21997715Y-12989415D01*
G01X21997715Y-12989415D01*
G01X22007367Y-13057081D01*
G01X22008945Y-13092672D01*
G01X22008946Y-13092930D01*
G01X22008946Y-13092930D01*
G01X22008355Y-13161146D01*
G01X22007969Y-13181798D01*
G01X22007969Y-13181798D01*
G01X22002490Y-13240782D01*
G01X22002110Y-13242345D01*
G01X21524571Y-13242345D01*
G37*
%LPD*%
G36*
G01X21882969Y-12368321D02*
G01X21882969Y-12368321D01*
G01X21912864Y-12300200D01*
G01X21943352Y-12240414D01*
G01X21968514Y-12195594D01*
G01X21982434Y-12172368D01*
G01X21983555Y-12170567D01*
G01X21983555Y-12170567D01*
G01X22027106Y-12109860D01*
G01X22072348Y-12057600D01*
G01X22111044Y-12018125D01*
G01X22134959Y-11995771D01*
G01X22138828Y-11992345D01*
G01X22138828Y-11877110D01*
G01X21040196Y-11877110D01*
G01X21040196Y-11642735D01*
G01X20900547Y-11642735D01*
G01X20900547Y-12308751D01*
G01X21040196Y-12308751D01*
G01X21040196Y-12041173D01*
G01X21908360Y-12041173D01*
G01X21908360Y-12041173D01*
G01X21871418Y-12089238D01*
G01X21867832Y-12094395D01*
G01X21867832Y-12094395D01*
G01X21833712Y-12149522D01*
G01X21826817Y-12161778D01*
G01X21826817Y-12161778D01*
G01X21796731Y-12221242D01*
G01X21788731Y-12238438D01*
G01X21788731Y-12238438D01*
G01X21764227Y-12300595D01*
G01X21758946Y-12316563D01*
G37*
G36*
G01X19415195Y-22158359D02*
G01X19415195Y-20938633D01*
G01X19415195Y-20938633D01*
G01X19354391Y-20925858D01*
G01X19346347Y-20924472D01*
G01X19346347Y-20924472D01*
G01X19281402Y-20916423D01*
G01X19266758Y-20915195D01*
G01X19266758Y-20915195D01*
G01X19200904Y-20911105D01*
G01X19185703Y-20910312D01*
G01X19185703Y-20910312D01*
G01X19121479Y-20908412D01*
G01X19113437Y-20908359D01*
G01X19113437Y-20908359D01*
G01X19020261Y-20914321D01*
G01X18942042Y-20929558D01*
G01X18878839Y-20950095D01*
G01X18830711Y-20971957D01*
G01X18797718Y-20991169D01*
G01X18779919Y-21003756D01*
G01X18776523Y-21006504D01*
G01X18776523Y-21006504D01*
G01X18730384Y-21059744D01*
G01X18698861Y-21120516D01*
G01X18679170Y-21181730D01*
G01X18668527Y-21236293D01*
G01X18664148Y-21277113D01*
G01X18663249Y-21297098D01*
G01X18663242Y-21298008D01*
G01X18663242Y-21298008D01*
G01X18671960Y-21374725D01*
G01X18691471Y-21437051D01*
G01X18711812Y-21480045D01*
G01X18723020Y-21498766D01*
G01X18723301Y-21499179D01*
G01X18723301Y-21499179D01*
G01X18771879Y-21554886D01*
G01X18823109Y-21596364D01*
G01X18864965Y-21622883D01*
G01X18885415Y-21633716D01*
G01X18885898Y-21633945D01*
G01X18818515Y-21743320D01*
G01X18743320Y-21873203D01*
G01X18668125Y-22015781D01*
G01X18668125Y-22015781D01*
G01X18635132Y-22082750D01*
G01X18610731Y-22134454D01*
G01X18599914Y-22158031D01*
G01X18599765Y-22158359D01*
G01X18775547Y-22158359D01*
G01X18775547Y-22158359D01*
G01X18806536Y-22086715D01*
G01X18837110Y-22020588D01*
G01X18864822Y-21963547D01*
G01X18887226Y-21919162D01*
G01X18901874Y-21891003D01*
G01X18906406Y-21882480D01*
G01X18906406Y-21882480D01*
G01X18948000Y-21809375D01*
G01X18985328Y-21749863D01*
G01X19015531Y-21705469D01*
G01X19035750Y-21677715D01*
G01X19043125Y-21668125D01*
G01X19043125Y-21668125D01*
G01X19043125Y-21668125D01*
G01X19078281Y-21670078D01*
G01X19109531Y-21670078D01*
G01X19249180Y-21670078D01*
G01X19249180Y-22158359D01*
G01X19415195Y-22158359D01*
G37*
%LPC*%
G36*
G01X19249180Y-21534336D02*
G01X19143711Y-21534336D01*
G01X19143711Y-21534336D01*
G01X19068558Y-21531038D01*
G01X19022164Y-21525780D01*
G01X19014316Y-21524570D01*
G01X19014316Y-21524570D01*
G01X18945942Y-21503326D01*
G01X18916367Y-21487589D01*
G01X18916172Y-21487461D01*
G01X18916172Y-21487461D01*
G01X18868666Y-21439193D01*
G01X18853183Y-21413242D01*
G01X18853183Y-21413242D01*
G01X18835957Y-21349679D01*
G01X18831387Y-21298492D01*
G01X18831211Y-21290195D01*
G01X18831211Y-21290195D01*
G01X18839583Y-21214541D01*
G01X18851676Y-21175476D01*
G01X18853183Y-21172031D01*
G01X18853183Y-21172031D01*
G01X18893247Y-21115565D01*
G01X18911289Y-21099277D01*
G01X18911289Y-21099277D01*
G01X18971242Y-21068748D01*
G01X18996250Y-21061191D01*
G01X18996250Y-21061191D01*
G01X19063916Y-21051540D01*
G01X19099507Y-21049961D01*
G01X19099765Y-21049961D01*
G01X19099765Y-21049961D01*
G01X19167981Y-21050551D01*
G01X19188633Y-21050937D01*
G01X19188633Y-21050937D01*
G01X19247617Y-21056416D01*
G01X19249180Y-21056797D01*
G01X19249180Y-21534336D01*
G37*
%LPD*%
G36*
G01X18411289Y-21040195D02*
G01X18411289Y-21040195D01*
G01X18367958Y-21000006D01*
G01X18363437Y-20996250D01*
G01X18363437Y-20996250D01*
G01X18308329Y-20959095D01*
G01X18286289Y-20946933D01*
G01X18286289Y-20946933D01*
G01X18222503Y-20920291D01*
G01X18185807Y-20908526D01*
G01X18185215Y-20908359D01*
G01X18185215Y-20908359D01*
G01X18115832Y-20895783D01*
G01X18070171Y-20892798D01*
G01X18065586Y-20892734D01*
G01X18065586Y-20892734D01*
G01X17975237Y-20899566D01*
G01X17902240Y-20916568D01*
G01X17846335Y-20938501D01*
G01X17807264Y-20960125D01*
G01X17784768Y-20976203D01*
G01X17778476Y-20981601D01*
G01X17778476Y-20981601D01*
G01X17735007Y-21038943D01*
G01X17707813Y-21102988D01*
G01X17693079Y-21163729D01*
G01X17686985Y-21211158D01*
G01X17685715Y-21235269D01*
G01X17685703Y-21236484D01*
G01X17685703Y-21236484D01*
G01X17694469Y-21307984D01*
G01X17708015Y-21353797D01*
G01X17710605Y-21360508D01*
G01X17710605Y-21360508D01*
G01X17742839Y-21424675D01*
G01X17770226Y-21468926D01*
G01X17776523Y-21478183D01*
G01X17776523Y-21478183D01*
G01X17820858Y-21536015D01*
G01X17857010Y-21578361D01*
G01X17869297Y-21591953D01*
G01X17975742Y-21702304D01*
G01X18045078Y-21774570D01*
G01X18045078Y-21774570D01*
G01X18092916Y-21827224D01*
G01X18119745Y-21858688D01*
G01X18121250Y-21860508D01*
G01X18121250Y-21860508D01*
G01X18163548Y-21918011D01*
G01X18181194Y-21946246D01*
G01X18181308Y-21946445D01*
G01X18181308Y-21946445D01*
G01X18204294Y-22008941D01*
G01X18205234Y-22018711D01*
G01X17635898Y-22018711D01*
G01X17635898Y-22158359D01*
G01X18385898Y-22158359D01*
G01X18385898Y-22158359D01*
G01X18387851Y-22136875D01*
G01X18387851Y-22116367D01*
G01X18387851Y-22116367D01*
G01X18381007Y-22041444D01*
G01X18367899Y-21985733D01*
G01X18359663Y-21960946D01*
G01X18359531Y-21960605D01*
G01X18359531Y-21960605D01*
G01X18328530Y-21893992D01*
G01X18300164Y-21844482D01*
G01X18287279Y-21824394D01*
G01X18287265Y-21824375D01*
G01X18287265Y-21824375D01*
G01X18243922Y-21766500D01*
G01X18206842Y-21723025D01*
G01X18188891Y-21703550D01*
G01X18188633Y-21703281D01*
G01X18079258Y-21591953D01*
G01X17994297Y-21506015D01*
G01X17994297Y-21506015D01*
G01X17946200Y-21452154D01*
G01X17923099Y-21422816D01*
G01X17922519Y-21422031D01*
G01X17922519Y-21422031D01*
G01X17886081Y-21362827D01*
G01X17872715Y-21335117D01*
G01X17872715Y-21335117D01*
G01X17872715Y-21335117D01*
G01X17855649Y-21268782D01*
G01X17853672Y-21242343D01*
G01X17853672Y-21242343D01*
G01X17863240Y-21172537D01*
G01X17870762Y-21150547D01*
G01X17870762Y-21150547D01*
G01X17907350Y-21096694D01*
G01X17916660Y-21087558D01*
G01X17916660Y-21087558D01*
G01X17971589Y-21054956D01*
G01X17983555Y-21050449D01*
G01X17983555Y-21050449D01*
G01X18048488Y-21038966D01*
G01X18065586Y-21038242D01*
G01X18065586Y-21038242D01*
G01X18135386Y-21045958D01*
G01X18160312Y-21052402D01*
G01X18160312Y-21052402D01*
G01X18222047Y-21078629D01*
G01X18236484Y-21086582D01*
G01X18236484Y-21086582D01*
G01X18288669Y-21121835D01*
G01X18293613Y-21125644D01*
G01X18293613Y-21125644D01*
G01X18329258Y-21156406D01*
G37*
G36*
G01X2905918Y-10412266D02*
G01X4125645Y-10412266D01*
G01X4125645Y-10412266D01*
G01X4138419Y-10351462D01*
G01X4139805Y-10343418D01*
G01X4139805Y-10343418D01*
G01X4147854Y-10278473D01*
G01X4149082Y-10263829D01*
G01X4149082Y-10263829D01*
G01X4153173Y-10197975D01*
G01X4153965Y-10182774D01*
G01X4153965Y-10182774D01*
G01X4155865Y-10118550D01*
G01X4155918Y-10110508D01*
G01X4155918Y-10110508D01*
G01X4149956Y-10017332D01*
G01X4134719Y-9939113D01*
G01X4114182Y-9875910D01*
G01X4092320Y-9827782D01*
G01X4073109Y-9794789D01*
G01X4060522Y-9776990D01*
G01X4057774Y-9773594D01*
G01X4057774Y-9773594D01*
G01X4004534Y-9727455D01*
G01X3943761Y-9695932D01*
G01X3882547Y-9676241D01*
G01X3827984Y-9665598D01*
G01X3787164Y-9661219D01*
G01X3767179Y-9660320D01*
G01X3766270Y-9660313D01*
G01X3766270Y-9660313D01*
G01X3689553Y-9669031D01*
G01X3627226Y-9688542D01*
G01X3584232Y-9708883D01*
G01X3565511Y-9720091D01*
G01X3565098Y-9720372D01*
G01X3565098Y-9720372D01*
G01X3509391Y-9768950D01*
G01X3467914Y-9820180D01*
G01X3441394Y-9862036D01*
G01X3430561Y-9882486D01*
G01X3430332Y-9882969D01*
G01X3320957Y-9815586D01*
G01X3191074Y-9740391D01*
G01X3048496Y-9665196D01*
G01X3048496Y-9665196D01*
G01X2981528Y-9632203D01*
G01X2929823Y-9607802D01*
G01X2906247Y-9596985D01*
G01X2905918Y-9596836D01*
G01X2905918Y-9772618D01*
G01X2905918Y-9772618D01*
G01X2977562Y-9803607D01*
G01X3043690Y-9834181D01*
G01X3100730Y-9861893D01*
G01X3145115Y-9884297D01*
G01X3173274Y-9898945D01*
G01X3181797Y-9903477D01*
G01X3181797Y-9903477D01*
G01X3254903Y-9945071D01*
G01X3314414Y-9982399D01*
G01X3358809Y-10012602D01*
G01X3386563Y-10032821D01*
G01X3396153Y-10040196D01*
G01X3396153Y-10040196D01*
G01X3396153Y-10040196D01*
G01X3394199Y-10075352D01*
G01X3394199Y-10106602D01*
G01X3394199Y-10246251D01*
G01X2905918Y-10246251D01*
G01X2905918Y-10412266D01*
G37*
%LPC*%
G36*
G01X3529942Y-10246251D02*
G01X3529942Y-10140782D01*
G01X3529942Y-10140782D01*
G01X3533239Y-10065629D01*
G01X3538497Y-10019235D01*
G01X3539707Y-10011387D01*
G01X3539707Y-10011387D01*
G01X3560952Y-9943013D01*
G01X3576688Y-9913438D01*
G01X3576817Y-9913243D01*
G01X3576817Y-9913243D01*
G01X3625084Y-9865737D01*
G01X3651035Y-9850254D01*
G01X3651035Y-9850254D01*
G01X3714598Y-9833028D01*
G01X3765785Y-9828458D01*
G01X3774082Y-9828282D01*
G01X3774082Y-9828282D01*
G01X3849736Y-9836654D01*
G01X3888801Y-9848747D01*
G01X3892246Y-9850254D01*
G01X3892246Y-9850254D01*
G01X3948713Y-9890318D01*
G01X3965000Y-9908360D01*
G01X3965000Y-9908360D01*
G01X3995529Y-9968313D01*
G01X4003086Y-9993321D01*
G01X4003086Y-9993321D01*
G01X4012738Y-10060987D01*
G01X4014316Y-10096578D01*
G01X4014317Y-10096836D01*
G01X4014317Y-10096836D01*
G01X4013726Y-10165052D01*
G01X4013340Y-10185704D01*
G01X4013340Y-10185704D01*
G01X4007861Y-10244688D01*
G01X4007481Y-10246251D01*
G01X3529942Y-10246251D01*
G37*
%LPD*%
G36*
G01X2944004Y-9404454D02*
G01X3085606Y-9372227D01*
G01X3085606Y-9372227D01*
G01X3062770Y-9314343D01*
G01X3048415Y-9271462D01*
G01X3048008Y-9270176D01*
G01X3048008Y-9270176D01*
G01X3033900Y-9204673D01*
G01X3027663Y-9142660D01*
G01X3026084Y-9103646D01*
G01X3026035Y-9098790D01*
G01X3026035Y-9098790D01*
G01X3033840Y-9007374D01*
G01X3051888Y-8940914D01*
G01X3072131Y-8897851D01*
G01X3086520Y-8876624D01*
G01X3089024Y-8873692D01*
G01X3089024Y-8873692D01*
G01X3146423Y-8832821D01*
G01X3204930Y-8813309D01*
G01X3247073Y-8807256D01*
G01X3257481Y-8806797D01*
G01X3257481Y-8806797D01*
G01X3331342Y-8817810D01*
G01X3369104Y-8833146D01*
G01X3371738Y-8834629D01*
G01X3371738Y-8834629D01*
G01X3424494Y-8880121D01*
G01X3445822Y-8908144D01*
G01X3445957Y-8908360D01*
G01X3445957Y-8908360D01*
G01X3474114Y-8970848D01*
G01X3485482Y-9011851D01*
G01X3485996Y-9014317D01*
G01X3485996Y-9014317D01*
G01X3495184Y-9084778D01*
G01X3497621Y-9133395D01*
G01X3497715Y-9140782D01*
G01X3497715Y-9182774D01*
G01X3631504Y-9182774D01*
G01X3631504Y-9124180D01*
G01X3631504Y-9124180D01*
G01X3636836Y-9057298D01*
G01X3640781Y-9033360D01*
G01X3640781Y-9033360D01*
G01X3662403Y-8968305D01*
G01X3673008Y-8947422D01*
G01X3673008Y-8947422D01*
G01X3717608Y-8897582D01*
G01X3735996Y-8884434D01*
G01X3735996Y-8884434D01*
G01X3799323Y-8863873D01*
G01X3837269Y-8860510D01*
G01X3837559Y-8860508D01*
G01X3837559Y-8860508D01*
G01X3915696Y-8874915D01*
G01X3962949Y-8903123D01*
G01X3981934Y-8922614D01*
G01X3982578Y-8923497D01*
G01X3982578Y-8923497D01*
G01X4012965Y-8988942D01*
G01X4024327Y-9045470D01*
G01X4026035Y-9070444D01*
G01X4026035Y-9070469D01*
G01X4026035Y-9070469D01*
G01X4019357Y-9147807D01*
G01X4007151Y-9199135D01*
G01X4001133Y-9216465D01*
G01X4001133Y-9216465D01*
G01X3969161Y-9283558D01*
G01X3950627Y-9315382D01*
G01X3949863Y-9316563D01*
G01X4075840Y-9381016D01*
G01X4075840Y-9381016D01*
G01X4107844Y-9324927D01*
G01X4131906Y-9271238D01*
G01X4138828Y-9254063D01*
G01X4138828Y-9254063D01*
G01X4158286Y-9186012D01*
G01X4167925Y-9123119D01*
G01X4171195Y-9078462D01*
G01X4171543Y-9064610D01*
G01X4171543Y-9064610D01*
G01X4166375Y-8985262D01*
G01X4156039Y-8927641D01*
G01X4148287Y-8898708D01*
G01X4147617Y-8896641D01*
G01X4147617Y-8896641D01*
G01X4115179Y-8828556D01*
G01X4086456Y-8788899D01*
G01X4079746Y-8781407D01*
G01X4079746Y-8781407D01*
G01X4023175Y-8737659D01*
G01X3982029Y-8716654D01*
G01X3976719Y-8714512D01*
G01X3976719Y-8714512D01*
G01X3907635Y-8697527D01*
G01X3857521Y-8692774D01*
G01X3848301Y-8692540D01*
G01X3848301Y-8692540D01*
G01X3771684Y-8702974D01*
G01X3715567Y-8724274D01*
G01X3685665Y-8741435D01*
G01X3682285Y-8743809D01*
G01X3682285Y-8743809D01*
G01X3629569Y-8794579D01*
G01X3594887Y-8843055D01*
G01X3578873Y-8871914D01*
G01X3577793Y-8874180D01*
G01X3577793Y-8874180D01*
G01X3548832Y-8807942D01*
G01X3512730Y-8755528D01*
G01X3481937Y-8721058D01*
G01X3468906Y-8708653D01*
G01X3468906Y-8708653D01*
G01X3468906Y-8708653D01*
G01X3409875Y-8671964D01*
G01X3347177Y-8651091D01*
G01X3292884Y-8641573D01*
G01X3259070Y-8638949D01*
G01X3253574Y-8638829D01*
G01X3253574Y-8638829D01*
G01X3180037Y-8645672D01*
G01X3126260Y-8658482D01*
G01X3104669Y-8665676D01*
G01X3104649Y-8665684D01*
G01X3104649Y-8665684D01*
G01X3040676Y-8700710D01*
G01X2998613Y-8735072D01*
G01X2985996Y-8747715D01*
G01X2985996Y-8747715D01*
G01X2946076Y-8804644D01*
G01X2919765Y-8858665D01*
G01X2908285Y-8888568D01*
G01X2907871Y-8889805D01*
G01X2907871Y-8889805D01*
G01X2891983Y-8956001D01*
G01X2883533Y-9020955D01*
G01X2880173Y-9071951D01*
G01X2879553Y-9096270D01*
G01X2879551Y-9096836D01*
G01X2879551Y-9096836D01*
G01X2883542Y-9164578D01*
G01X2886875Y-9191563D01*
G01X2886875Y-9191563D01*
G01X2899501Y-9259149D01*
G01X2904942Y-9282383D01*
G01X2904942Y-9282383D01*
G01X2923095Y-9345808D01*
G01X2926914Y-9357579D01*
G01X2926914Y-9357579D01*
G01X2944004Y-9404454D01*
G37*
G36*
G01X13409336Y-2557285D02*
G01X13343906Y-2423496D01*
G01X13343906Y-2423496D01*
G01X13287950Y-2459130D01*
G01X13246295Y-2481785D01*
G01X13242832Y-2483555D01*
G01X13242832Y-2483555D01*
G01X13175429Y-2506168D01*
G01X13118220Y-2514253D01*
G01X13095860Y-2515293D01*
G01X13095860Y-2515293D01*
G01X13012058Y-2504688D01*
G01X12952427Y-2481357D01*
G01X12916782Y-2458027D01*
G01X12904942Y-2447422D01*
G01X12904942Y-2447422D01*
G01X12904942Y-2447422D01*
G01X12873009Y-2394569D01*
G01X12854243Y-2331026D01*
G01X12845144Y-2271035D01*
G01X12842211Y-2228841D01*
G01X12841953Y-2217441D01*
G01X12841953Y-1533848D01*
G01X13263828Y-1533848D01*
G01X13263828Y-1393223D01*
G01X12677891Y-1393223D01*
G01X12677891Y-2233066D01*
G01X12677891Y-2233066D01*
G01X12682004Y-2307686D01*
G01X12690231Y-2365957D01*
G01X12696401Y-2396807D01*
G01X12696934Y-2399082D01*
G01X12696934Y-2399082D01*
G01X12723073Y-2470068D01*
G01X12750900Y-2517970D01*
G01X12762852Y-2534336D01*
G01X12762852Y-2534336D01*
G01X12814104Y-2581526D01*
G01X12863268Y-2612191D01*
G01X12888456Y-2624509D01*
G01X12888828Y-2624668D01*
G01X12888828Y-2624668D01*
G01X12953327Y-2643864D01*
G01X13018101Y-2653721D01*
G01X13068043Y-2657352D01*
G01X13088047Y-2657871D01*
G01X13088047Y-2657871D01*
G01X13088047Y-2657871D01*
G01X13170231Y-2652531D01*
G01X13233921Y-2640781D01*
G01X13275089Y-2629032D01*
G01X13289707Y-2623691D01*
G01X13289707Y-2623691D01*
G01X13289707Y-2623691D01*
G01X13362644Y-2588088D01*
G01X13401518Y-2563289D01*
G01X13409336Y-2557285D01*
G37*
G36*
G01X12367344Y-1649082D02*
G01X12367344Y-1649082D01*
G01X12299223Y-1619187D01*
G01X12239437Y-1588699D01*
G01X12194616Y-1563537D01*
G01X12171390Y-1549617D01*
G01X12169590Y-1548496D01*
G01X12169590Y-1548496D01*
G01X12108882Y-1504945D01*
G01X12056623Y-1459703D01*
G01X12017148Y-1421007D01*
G01X11994794Y-1397092D01*
G01X11991367Y-1393223D01*
G01X11876133Y-1393223D01*
G01X11876133Y-2491855D01*
G01X11641758Y-2491855D01*
G01X11641758Y-2631504D01*
G01X12307774Y-2631504D01*
G01X12307774Y-2491855D01*
G01X12040196Y-2491855D01*
G01X12040196Y-1623691D01*
G01X12040196Y-1623691D01*
G01X12088261Y-1660633D01*
G01X12093418Y-1664219D01*
G01X12093418Y-1664219D01*
G01X12148545Y-1698339D01*
G01X12160801Y-1705234D01*
G01X12160801Y-1705234D01*
G01X12220265Y-1735320D01*
G01X12237461Y-1743320D01*
G01X12237461Y-1743320D01*
G01X12299617Y-1767824D01*
G01X12315586Y-1773105D01*
G37*
G36*
G01X18661529Y-4660838D02*
G01X18661529Y-4660838D01*
G01X18716471Y-4600935D01*
G01X18760496Y-4544731D01*
G01X18793629Y-4496263D01*
G01X18815894Y-4459564D01*
G01X18827315Y-4438671D01*
G01X18828984Y-4435379D01*
G01X18828984Y-4435379D01*
G01X18859219Y-4362344D01*
G01X18878210Y-4297522D01*
G01X18888451Y-4247418D01*
G01X18892433Y-4218540D01*
G01X18892858Y-4214063D01*
G01X18892858Y-4214063D01*
G01X18891930Y-4136788D01*
G01X18881809Y-4071813D01*
G01X18870135Y-4027036D01*
G01X18864546Y-4010355D01*
G01X18864546Y-4010355D01*
G01X18864546Y-4010355D01*
G01X18831627Y-3943104D01*
G01X18794889Y-3888735D01*
G01X18765012Y-3852363D01*
G01X18752680Y-3839103D01*
G01X18752680Y-3839103D01*
G01X18752680Y-3839103D01*
G01X18698563Y-3792200D01*
G01X18652233Y-3759375D01*
G01X18631857Y-3746583D01*
G01X18631836Y-3746571D01*
G01X18631836Y-3746571D01*
G01X18566505Y-3715097D01*
G01X18509762Y-3695170D01*
G01X18479751Y-3686789D01*
G01X18478538Y-3686495D01*
G01X18416390Y-3816315D01*
G01X18416390Y-3816315D01*
G01X18496713Y-3844069D01*
G01X18560628Y-3876099D01*
G01X18607308Y-3906405D01*
G01X18635924Y-3928988D01*
G01X18645647Y-3937849D01*
G01X18645647Y-3937849D01*
G01X18645647Y-3937849D01*
G01X18691573Y-3996445D01*
G01X18716785Y-4045371D01*
G01X18724707Y-4066613D01*
G01X18724713Y-4066634D01*
G01X18724713Y-4066634D01*
G01X18736015Y-4138362D01*
G01X18734611Y-4195315D01*
G01X18731964Y-4216825D01*
G01X18731964Y-4216825D01*
G01X18713469Y-4284608D01*
G01X18689898Y-4341430D01*
G01X18673072Y-4374759D01*
G01X18670851Y-4378755D01*
G01X18670851Y-4378755D01*
G01X18630881Y-4439085D01*
G01X18589066Y-4491355D01*
G01X18556120Y-4528153D01*
G01X18542757Y-4542066D01*
G01X18542757Y-4542066D01*
G01X18542757Y-4542066D01*
G01X18482044Y-4597584D01*
G01X18428703Y-4639101D01*
G01X18388684Y-4666314D01*
G01X18367935Y-4678922D01*
G01X18366326Y-4679828D01*
G01X18366326Y-4679828D01*
G01X18295314Y-4712237D01*
G01X18238639Y-4729823D01*
G01X18206456Y-4736575D01*
G01X18202669Y-4737142D01*
G01X18202669Y-4737142D01*
G01X18128984Y-4737239D01*
G01X18075688Y-4726928D01*
G01X18056621Y-4720915D01*
G01X18056621Y-4720915D01*
G01X17993097Y-4687403D01*
G01X17948606Y-4653642D01*
G01X17933016Y-4639432D01*
G01X17933016Y-4639432D01*
G01X17887989Y-4586560D01*
G01X17860939Y-4547779D01*
G01X17857748Y-4542757D01*
G01X17857748Y-4542757D01*
G01X17826672Y-4480977D01*
G01X17807370Y-4429324D01*
G01X17801814Y-4411555D01*
G01X17674066Y-4477156D01*
G01X17674066Y-4477156D01*
G01X17698921Y-4547339D01*
G01X17724149Y-4600195D01*
G01X17737397Y-4623912D01*
G01X17737595Y-4624240D01*
G01X17737595Y-4624240D01*
G01X17779141Y-4683479D01*
G01X17818636Y-4730488D01*
G01X17842097Y-4755646D01*
G01X17843937Y-4757513D01*
G01X17843937Y-4757513D01*
G01X17903614Y-4808558D01*
G01X17958825Y-4844779D01*
G01X17999404Y-4866369D01*
G01X18015189Y-4873523D01*
G01X18015189Y-4873523D01*
G01X18015189Y-4873523D01*
G01X18085322Y-4894239D01*
G01X18148721Y-4902784D01*
G01X18194642Y-4904208D01*
G01X18212337Y-4903561D01*
G01X18212337Y-4903561D01*
G01X18212337Y-4903561D01*
G01X18281062Y-4892116D01*
G01X18344775Y-4872924D01*
G01X18395558Y-4852978D01*
G01X18425492Y-4839271D01*
G01X18430200Y-4836924D01*
G01X18430200Y-4836924D01*
G01X18491358Y-4800551D01*
G01X18548958Y-4758928D01*
G01X18598772Y-4718218D01*
G01X18636572Y-4684583D01*
G01X18658128Y-4664184D01*
G01X18661529Y-4660838D01*
G37*
G36*
G01X18290712Y-3585677D02*
G01X18290712Y-3585677D01*
G01X18288490Y-3526619D01*
G01X18287950Y-3520767D01*
G01X18287950Y-3520767D01*
G01X18275255Y-3455527D01*
G01X18268270Y-3431342D01*
G01X18268270Y-3431342D01*
G01X18242006Y-3367399D01*
G01X18224376Y-3333133D01*
G01X18224076Y-3332596D01*
G01X18224076Y-3332596D01*
G01X18183908Y-3274642D01*
G01X18153731Y-3240244D01*
G01X18150534Y-3236957D01*
G01X18150534Y-3236957D01*
G01X18081817Y-3177901D01*
G01X18018178Y-3138307D01*
G01X17963139Y-3114285D01*
G01X17920220Y-3101949D01*
G01X17892945Y-3097410D01*
G01X17884678Y-3096779D01*
G01X17884678Y-3096779D01*
G01X17813394Y-3106588D01*
G01X17748879Y-3132646D01*
G01X17695510Y-3165177D01*
G01X17657663Y-3194406D01*
G01X17639716Y-3210557D01*
G01X17638848Y-3211407D01*
G01X17638848Y-3211407D01*
G01X17594488Y-3268164D01*
G01X17571673Y-3310137D01*
G01X17568759Y-3316714D01*
G01X17568759Y-3316714D01*
G01X17546179Y-3384880D01*
G01X17534254Y-3435535D01*
G01X17532161Y-3446534D01*
G01X17532161Y-3446534D01*
G01X17522617Y-3518777D01*
G01X17518237Y-3574283D01*
G01X17517314Y-3592582D01*
G01X17514552Y-3745881D01*
G01X17512481Y-3846008D01*
G01X17512481Y-3846008D01*
G01X17509075Y-3917067D01*
G01X17505797Y-3958286D01*
G01X17505575Y-3960637D01*
G01X17505575Y-3960637D01*
G01X17494823Y-4031207D01*
G01X17487336Y-4063650D01*
G01X17487276Y-4063872D01*
G01X17487276Y-4063872D01*
G01X17459338Y-4124316D01*
G01X17453095Y-4131889D01*
G01X17050513Y-3729308D01*
G01X16951767Y-3828054D01*
G01X17482097Y-4358384D01*
G01X17482097Y-4358384D01*
G01X17498670Y-4344574D01*
G01X17513171Y-4330072D01*
G01X17513171Y-4330072D01*
G01X17561310Y-4272254D01*
G01X17591435Y-4223592D01*
G01X17603138Y-4200241D01*
G01X17603286Y-4199907D01*
G01X17603286Y-4199907D01*
G01X17628468Y-4130883D01*
G01X17643419Y-4075816D01*
G01X17648511Y-4052501D01*
G01X17648516Y-4052478D01*
G01X17648516Y-4052478D01*
G01X17658791Y-3980905D01*
G01X17663313Y-3923945D01*
G01X17664391Y-3897480D01*
G01X17664398Y-3897108D01*
G01X17665779Y-3741047D01*
G01X17666470Y-3620204D01*
G01X17666470Y-3620204D01*
G01X17670547Y-3548108D01*
G01X17674957Y-3511028D01*
G01X17675101Y-3510063D01*
G01X17675101Y-3510063D01*
G01X17691199Y-3442434D01*
G01X17701342Y-3413389D01*
G01X17701342Y-3413389D01*
G01X17701342Y-3413389D01*
G01X17736180Y-3354416D01*
G01X17753477Y-3334322D01*
G01X17753477Y-3334322D01*
G01X17809603Y-3291728D01*
G01X17830472Y-3281497D01*
G01X17830472Y-3281497D01*
G01X17894423Y-3269289D01*
G01X17907466Y-3269412D01*
G01X17907466Y-3269412D01*
G01X17969360Y-3285199D01*
G01X17981008Y-3290474D01*
G01X17981008Y-3290474D01*
G01X18035042Y-3328269D01*
G01X18047644Y-3339847D01*
G01X18047644Y-3339847D01*
G01X18091544Y-3394659D01*
G01X18104614Y-3416841D01*
G01X18104614Y-3416841D01*
G01X18129721Y-3479039D01*
G01X18134306Y-3494872D01*
G01X18134306Y-3494872D01*
G01X18146279Y-3556700D01*
G01X18147081Y-3562889D01*
G01X18147081Y-3562889D01*
G01X18150534Y-3609846D01*
G37*
G36*
G01X11905918Y-13874668D02*
G01X12045567Y-13874668D01*
G01X12045567Y-13634434D01*
G01X13003574Y-13634434D01*
G01X13003574Y-13874668D01*
G01X13144199Y-13874668D01*
G01X13144199Y-13230137D01*
G01X13003574Y-13230137D01*
G01X13003574Y-13470371D01*
G01X12045567Y-13470371D01*
G01X12045567Y-13230137D01*
G01X11905918Y-13230137D01*
G01X11905918Y-13874668D01*
G37*
G36*
G01X12526035Y-12960606D02*
G01X12526035Y-12960606D01*
G01X12607243Y-12957097D01*
G01X12678115Y-12948486D01*
G01X12735816Y-12937642D01*
G01X12777510Y-12927436D01*
G01X12800360Y-12920738D01*
G01X12803867Y-12919590D01*
G01X12803867Y-12919590D01*
G01X12876890Y-12889326D01*
G01X12936156Y-12856919D01*
G01X12978826Y-12828731D01*
G01X13002061Y-12811127D01*
G01X13005528Y-12808262D01*
G01X13005528Y-12808262D01*
G01X13059513Y-12752964D01*
G01X13098301Y-12699863D01*
G01X13121708Y-12659946D01*
G01X13129551Y-12644199D01*
G01X13129551Y-12644199D01*
G01X13129551Y-12644199D01*
G01X13153828Y-12573368D01*
G01X13166294Y-12508945D01*
G01X13170887Y-12462101D01*
G01X13171543Y-12444004D01*
G01X13171543Y-12444004D01*
G01X13171543Y-12444004D01*
G01X13166442Y-12372573D01*
G01X13156893Y-12316602D01*
G01X13151530Y-12293148D01*
G01X13151524Y-12293125D01*
G01X13151524Y-12293125D01*
G01X13127583Y-12224673D01*
G01X13101550Y-12170459D01*
G01X13086256Y-12143313D01*
G01X13085606Y-12142246D01*
G01X12949863Y-12190098D01*
G01X12949863Y-12190098D01*
G01X12987035Y-12266520D01*
G01X13009582Y-12334363D01*
G01X13021160Y-12388801D01*
G01X13025426Y-12425004D01*
G01X13026035Y-12438145D01*
G01X13026035Y-12438145D01*
G01X13026035Y-12438145D01*
G01X13017077Y-12512053D01*
G01X13000308Y-12564476D01*
G01X12990890Y-12585098D01*
G01X12990879Y-12585117D01*
G01X12990879Y-12585117D01*
G01X12948151Y-12643829D01*
G01X12906887Y-12683107D01*
G01X12889805Y-12696445D01*
G01X12889805Y-12696445D01*
G01X12828797Y-12731298D01*
G01X12771951Y-12754809D01*
G01X12736486Y-12766480D01*
G01X12732090Y-12767735D01*
G01X12732090Y-12767735D01*
G01X12661167Y-12782131D01*
G01X12594639Y-12789524D01*
G01X12545322Y-12792248D01*
G01X12526035Y-12792637D01*
G01X12526035Y-12792637D01*
G01X12526035Y-12792637D01*
G01X12443847Y-12788963D01*
G01X12376773Y-12780602D01*
G01X12329233Y-12771547D01*
G01X12305646Y-12765790D01*
G01X12303867Y-12765293D01*
G01X12303867Y-12765293D01*
G01X12230737Y-12737997D01*
G01X12178227Y-12710356D01*
G01X12150696Y-12692374D01*
G01X12147617Y-12690098D01*
G01X12147617Y-12690098D01*
G01X12095446Y-12638063D01*
G01X12065050Y-12593086D01*
G01X12055820Y-12575352D01*
G01X12055820Y-12575352D01*
G01X12034598Y-12506737D01*
G01X12027011Y-12451404D01*
G01X12026035Y-12430332D01*
G01X12026035Y-12430332D01*
G01X12031582Y-12361108D01*
G01X12039877Y-12314557D01*
G01X12041172Y-12308750D01*
G01X12041172Y-12308750D01*
G01X12062883Y-12243091D01*
G01X12085759Y-12192919D01*
G01X12094395Y-12176426D01*
G01X11957676Y-12132481D01*
G01X11957676Y-12132481D01*
G01X11925624Y-12199683D01*
G01X11906089Y-12254897D01*
G01X11898685Y-12281035D01*
G01X11898594Y-12281406D01*
G01X11898594Y-12281406D01*
G01X11886083Y-12352673D01*
G01X11880770Y-12413840D01*
G01X11879570Y-12448218D01*
G01X11879551Y-12450840D01*
G01X11879551Y-12450840D01*
G01X11885654Y-12529133D01*
G01X11899082Y-12593784D01*
G01X11912510Y-12637745D01*
G01X11918613Y-12653965D01*
G01X11918613Y-12653965D01*
G01X11918613Y-12653965D01*
G01X11953556Y-12718205D01*
G01X11992344Y-12769077D01*
G01X12023808Y-12802555D01*
G01X12036778Y-12814610D01*
G01X12036778Y-12814610D01*
G01X12036778Y-12814610D01*
G01X12093466Y-12855112D01*
G01X12152089Y-12886594D01*
G01X12202102Y-12908399D01*
G01X12232961Y-12919873D01*
G01X12237949Y-12921543D01*
G01X12237949Y-12921543D01*
G01X12306914Y-12939068D01*
G01X12377075Y-12950366D01*
G01X12441085Y-12956803D01*
G01X12491598Y-12959748D01*
G01X12521265Y-12960567D01*
G01X12526035Y-12960606D01*
G37*
G36*
G01X12888340Y-11902012D02*
G01X12888340Y-11902012D01*
G01X12918235Y-11833891D01*
G01X12948723Y-11774105D01*
G01X12973885Y-11729284D01*
G01X12987805Y-11706058D01*
G01X12988926Y-11704258D01*
G01X12988926Y-11704258D01*
G01X13032477Y-11643550D01*
G01X13077719Y-11591291D01*
G01X13116415Y-11551816D01*
G01X13140330Y-11529462D01*
G01X13144199Y-11526035D01*
G01X13144199Y-11410801D01*
G01X12045567Y-11410801D01*
G01X12045567Y-11176426D01*
G01X11905918Y-11176426D01*
G01X11905918Y-11842442D01*
G01X12045567Y-11842442D01*
G01X12045567Y-11574863D01*
G01X12913731Y-11574863D01*
G01X12913731Y-11574863D01*
G01X12876789Y-11622929D01*
G01X12873203Y-11628086D01*
G01X12873203Y-11628086D01*
G01X12839083Y-11683213D01*
G01X12832188Y-11695469D01*
G01X12832188Y-11695469D01*
G01X12802102Y-11754932D01*
G01X12794102Y-11772129D01*
G01X12794102Y-11772129D01*
G01X12769598Y-11834285D01*
G01X12764317Y-11850254D01*
G37*
G36*
G01X10756584Y-21536829D02*
G01X10756584Y-21536829D01*
G01X10800289Y-21468296D01*
G01X10833886Y-21405301D01*
G01X10858099Y-21351815D01*
G01X10873653Y-21311808D01*
G01X10881273Y-21289249D01*
G01X10882344Y-21285717D01*
G01X10882344Y-21285717D01*
G01X10899438Y-21208542D01*
G01X10906884Y-21141406D01*
G01X10908269Y-21090285D01*
G01X10907175Y-21061155D01*
G01X10906817Y-21056671D01*
G01X10906817Y-21056671D01*
G01X10892484Y-20980731D01*
G01X10871235Y-20918501D01*
G01X10851962Y-20876432D01*
G01X10843562Y-20860975D01*
G01X10843562Y-20860975D01*
G01X10843562Y-20860975D01*
G01X10799465Y-20800461D01*
G01X10753843Y-20753298D01*
G01X10718105Y-20722667D01*
G01X10703657Y-20711750D01*
G01X10703657Y-20711750D01*
G01X10703657Y-20711750D01*
G01X10642218Y-20674957D01*
G01X10590892Y-20650676D01*
G01X10568604Y-20641616D01*
G01X10568581Y-20641608D01*
G01X10568581Y-20641608D01*
G01X10498777Y-20621957D01*
G01X10439436Y-20612186D01*
G01X10408426Y-20609143D01*
G01X10407180Y-20609064D01*
G01X10368519Y-20747704D01*
G01X10368519Y-20747704D01*
G01X10452441Y-20761089D01*
G01X10520948Y-20781533D01*
G01X10572181Y-20803273D01*
G01X10604284Y-20820544D01*
G01X10615397Y-20827582D01*
G01X10615397Y-20827582D01*
G01X10615397Y-20827582D01*
G01X10670801Y-20877312D01*
G01X10704126Y-20921118D01*
G01X10715616Y-20940660D01*
G01X10715626Y-20940680D01*
G01X10715626Y-20940680D01*
G01X10739212Y-21009356D01*
G01X10747718Y-21065687D01*
G01X10748846Y-21087331D01*
G01X10748846Y-21087331D01*
G01X10742403Y-21157296D01*
G01X10729057Y-21217347D01*
G01X10718275Y-21253092D01*
G01X10716782Y-21257413D01*
G01X10716782Y-21257413D01*
G01X10687895Y-21323767D01*
G01X10655792Y-21382504D01*
G01X10629736Y-21424464D01*
G01X10618992Y-21440486D01*
G01X10618992Y-21440486D01*
G01X10618992Y-21440486D01*
G01X10568841Y-21505703D01*
G01X10523521Y-21555852D01*
G01X10488835Y-21589601D01*
G01X10470590Y-21605620D01*
G01X10469163Y-21606792D01*
G01X10469163Y-21606792D01*
G01X10404858Y-21651040D01*
G01X10352097Y-21678200D01*
G01X10321576Y-21690438D01*
G01X10317945Y-21691654D01*
G01X10317945Y-21691654D01*
G01X10245396Y-21704545D01*
G01X10191119Y-21703645D01*
G01X10171298Y-21701034D01*
G01X10171298Y-21701034D01*
G01X10102920Y-21679062D01*
G01X10053242Y-21653540D01*
G01X10035421Y-21642253D01*
G01X10035421Y-21642253D01*
G01X9981898Y-21598004D01*
G01X9948524Y-21564508D01*
G01X9944509Y-21560117D01*
G01X9944509Y-21560117D01*
G01X9903177Y-21504672D01*
G01X9875200Y-21457155D01*
G01X9866643Y-21440621D01*
G01X9752226Y-21527409D01*
G01X9752226Y-21527409D01*
G01X9788891Y-21592209D01*
G01X9822915Y-21639881D01*
G01X9840079Y-21660938D01*
G01X9840331Y-21661226D01*
G01X9840331Y-21661226D01*
G01X9891533Y-21712352D01*
G01X9938591Y-21751788D01*
G01X9966064Y-21772489D01*
G01X9968200Y-21774009D01*
G01X9968200Y-21774009D01*
G01X10035835Y-21813916D01*
G01X10096496Y-21839999D01*
G01X10140208Y-21854214D01*
G01X10156996Y-21858518D01*
G01X10156996Y-21858518D01*
G01X10156996Y-21858518D01*
G01X10229660Y-21866741D01*
G01X10293581Y-21864147D01*
G01X10339051Y-21857576D01*
G01X10356364Y-21853866D01*
G01X10356364Y-21853866D01*
G01X10356364Y-21853866D01*
G01X10422058Y-21830660D01*
G01X10481471Y-21800697D01*
G01X10528019Y-21772235D01*
G01X10555118Y-21753538D01*
G01X10559347Y-21750410D01*
G01X10559347Y-21750410D01*
G01X10613259Y-21703969D01*
G01X10662756Y-21652977D01*
G01X10704744Y-21604235D01*
G01X10736129Y-21564547D01*
G01X10753816Y-21540715D01*
G01X10756584Y-21536829D01*
G37*
G36*
G01X10097244Y-20632862D02*
G01X10097244Y-20632862D01*
G01X10058590Y-20569301D01*
G01X10027104Y-20510035D01*
G01X10004821Y-20463715D01*
G01X9993779Y-20438991D01*
G01X9992948Y-20437040D01*
G01X9992948Y-20437040D01*
G01X9968199Y-20366544D01*
G01X9951340Y-20299510D01*
G01X9941199Y-20245170D01*
G01X9936605Y-20212758D01*
G01X9936017Y-20207623D01*
G01X9841623Y-20141527D01*
G01X9211473Y-21041475D01*
G01X9019484Y-20907043D01*
G01X8939385Y-21021436D01*
G01X9484953Y-21403447D01*
G01X9565052Y-21289054D01*
G01X9345865Y-21135577D01*
G01X9843824Y-20424419D01*
G01X9843824Y-20424419D01*
G01X9862007Y-20482248D01*
G01X9864175Y-20488144D01*
G01X9864175Y-20488144D01*
G01X9889762Y-20547713D01*
G01X9895847Y-20560391D01*
G01X9895847Y-20560391D01*
G01X9927300Y-20619143D01*
G01X9936798Y-20635560D01*
G01X9936798Y-20635560D01*
G01X9973658Y-20691284D01*
G01X9983710Y-20704769D01*
G37*
G36*
G01X26451094Y-11725000D02*
G01X27651094Y-11725000D01*
G01X27651094Y-12925000D01*
G01X26451094Y-12925000D01*
G01X26451094Y-11725000D01*
G37*
G36*
G01X27901094Y-11876758D02*
G01X27901094Y-11876758D01*
G01X27944453Y-11873242D01*
G01X27944453Y-11873242D01*
G01X27995845Y-11905441D01*
G01X27998360Y-11918945D01*
G01X27998360Y-11918945D01*
G01X27998076Y-11964271D01*
G01X27997534Y-12034544D01*
G01X27997193Y-12076774D01*
G01X27997188Y-12077442D01*
G01X27997188Y-12077442D01*
G01X27996453Y-12174262D01*
G01X27996116Y-12230763D01*
G01X27996021Y-12255552D01*
G01X27996016Y-12258789D01*
G01X27996016Y-12258789D01*
G01X28064696Y-12220803D01*
G01X28126046Y-12201985D01*
G01X28168698Y-12195602D01*
G01X28181758Y-12194922D01*
G01X28181758Y-12194922D01*
G01X28255945Y-12209603D01*
G01X28307287Y-12238966D01*
G01X28332083Y-12260988D01*
G01X28333809Y-12262891D01*
G01X28333809Y-12262891D01*
G01X28366517Y-12320499D01*
G01X28383912Y-12384369D01*
G01X28390830Y-12437879D01*
G01X28392106Y-12464408D01*
G01X28392110Y-12465039D01*
G01X28392110Y-12465039D01*
G01X28384051Y-12545456D01*
G01X28365415Y-12610638D01*
G01X28344513Y-12657513D01*
G01X28329655Y-12683014D01*
G01X28327071Y-12686817D01*
G01X28327071Y-12686817D01*
G01X28272807Y-12737276D01*
G01X28213618Y-12764112D01*
G01X28164425Y-12774784D01*
G01X28140147Y-12776752D01*
G01X28139571Y-12776758D01*
G01X28139571Y-12776758D01*
G01X28061801Y-12767491D01*
G01X27996843Y-12745725D01*
G01X27948050Y-12720511D01*
G01X27918774Y-12700900D01*
G01X27911641Y-12695313D01*
G01X27911641Y-12695313D01*
G01X27915705Y-12640825D01*
G01X27918278Y-12573428D01*
G01X27919699Y-12507494D01*
G01X27920303Y-12457394D01*
G01X27920430Y-12437500D01*
G01X27920430Y-12437500D01*
G01X27920430Y-12437500D01*
G01X27919957Y-12376138D01*
G01X27918780Y-12306754D01*
G01X27917261Y-12238244D01*
G01X27915764Y-12179502D01*
G01X27914651Y-12139425D01*
G01X27914278Y-12126660D01*
G01X27914278Y-12126660D01*
G01X27910544Y-12022258D01*
G01X27906979Y-11950481D01*
G01X27903963Y-11905914D01*
G01X27901874Y-11883145D01*
G01X27901094Y-11876758D01*
G01X27901094Y-11876758D01*
G37*
%LPC*%
G36*
G01X27994844Y-12647266D02*
G01X27994844Y-12647266D01*
G01X28059776Y-12688198D01*
G01X28116260Y-12705780D01*
G01X28148254Y-12709883D01*
G01X28150703Y-12709961D01*
G01X28150703Y-12709961D01*
G01X28219060Y-12690481D01*
G01X28258218Y-12655755D01*
G01X28268770Y-12640821D01*
G01X28268770Y-12640821D01*
G01X28294370Y-12574892D01*
G01X28305241Y-12514596D01*
G01X28307696Y-12479485D01*
G01X28307735Y-12476758D01*
G01X28307735Y-12476758D01*
G01X28298432Y-12394408D01*
G01X28279828Y-12341294D01*
G01X28265874Y-12317226D01*
G01X28264668Y-12315625D01*
G01X28264668Y-12315625D01*
G01X28206613Y-12273256D01*
G01X28162377Y-12262616D01*
G01X28156563Y-12262305D01*
G01X28154805Y-12262305D01*
G01X28154805Y-12262305D01*
G01X28085465Y-12275184D01*
G01X28031166Y-12301474D01*
G01X28000739Y-12322656D01*
G01X27997188Y-12325586D01*
G01X27997188Y-12325586D01*
G01X27997609Y-12384427D01*
G01X27997774Y-12402637D01*
G01X27997774Y-12402637D01*
G01X27998286Y-12476575D01*
G01X27998360Y-12503711D01*
G01X27998360Y-12503711D01*
G01X27998360Y-12503711D01*
G01X27997369Y-12586787D01*
G01X27995603Y-12634420D01*
G01X27994844Y-12647266D01*
G37*
%LPD*%
G36*
G01X28492305Y-12486719D02*
G01X28492305Y-12486719D01*
G01X28501235Y-12407536D01*
G01X28521885Y-12345209D01*
G01X28545047Y-12301534D01*
G01X28561511Y-12278309D01*
G01X28564375Y-12274903D01*
G01X28564375Y-12274903D01*
G01X28621733Y-12230032D01*
G01X28681116Y-12206168D01*
G01X28729160Y-12196678D01*
G01X28752498Y-12194927D01*
G01X28753047Y-12194922D01*
G01X28753047Y-12194922D01*
G01X28829539Y-12206531D01*
G01X28887997Y-12232514D01*
G01X28926282Y-12259603D01*
G01X28942255Y-12274529D01*
G01X28942598Y-12274903D01*
G01X28942598Y-12274903D01*
G01X28980313Y-12333263D01*
G01X29001770Y-12394947D01*
G01X29011554Y-12448218D01*
G01X29014251Y-12481341D01*
G01X29014375Y-12486719D01*
G01X29014375Y-12486719D01*
G01X29004731Y-12568996D01*
G01X28982784Y-12632610D01*
G01X28959015Y-12675637D01*
G01X28943902Y-12696151D01*
G01X28942598Y-12697656D01*
G01X28942598Y-12697656D01*
G01X28885234Y-12742034D01*
G01X28825558Y-12765636D01*
G01X28777152Y-12775022D01*
G01X28753602Y-12776753D01*
G01X28753047Y-12776758D01*
G01X28753047Y-12776758D01*
G01X28677170Y-12765276D01*
G01X28618966Y-12739579D01*
G01X28580722Y-12712788D01*
G01X28564719Y-12698026D01*
G01X28564375Y-12697656D01*
G01X28564375Y-12697656D01*
G01X28526506Y-12639758D01*
G01X28504962Y-12578337D01*
G01X28495138Y-12525185D01*
G01X28492429Y-12492095D01*
G01X28492305Y-12486719D01*
G37*
%LPC*%
G36*
G01X28576680Y-12469727D02*
G01X28576680Y-12469727D01*
G01X28585591Y-12547475D01*
G01X28604143Y-12604485D01*
G01X28620066Y-12636281D01*
G01X28623262Y-12641406D01*
G01X28623262Y-12641406D01*
G01X28677036Y-12689342D01*
G01X28728902Y-12707267D01*
G01X28753022Y-12709961D01*
G01X28753047Y-12709961D01*
G01X28753047Y-12709961D01*
G01X28827033Y-12694113D01*
G01X28871324Y-12665861D01*
G01X28883711Y-12653711D01*
G01X28883711Y-12653711D01*
G01X28915847Y-12592492D01*
G01X28928399Y-12534038D01*
G01X28930583Y-12504153D01*
G01X28930586Y-12503711D01*
G01X28930586Y-12503711D01*
G01X28921395Y-12425851D01*
G01X28902259Y-12368608D01*
G01X28885836Y-12336611D01*
G01X28882539Y-12331445D01*
G01X28882539Y-12331445D01*
G01X28828189Y-12283100D01*
G01X28776778Y-12265022D01*
G01X28753071Y-12262305D01*
G01X28753047Y-12262305D01*
G01X28753047Y-12262305D01*
G01X28679227Y-12278318D01*
G01X28635230Y-12306864D01*
G01X28622969Y-12319141D01*
G01X28622969Y-12319141D01*
G01X28591235Y-12380762D01*
G01X28578840Y-12439373D01*
G01X28576683Y-12469285D01*
G01X28576680Y-12469727D01*
G37*
%LPD*%
G36*
G01X29068281Y-12250000D02*
G01X29068281Y-12250000D01*
G01X29086153Y-12214844D01*
G01X29086153Y-12214844D01*
G01X29143159Y-12207279D01*
G01X29147383Y-12207227D01*
G01X29181367Y-12207227D01*
G01X29181367Y-12207227D01*
G01X29177876Y-12128459D01*
G01X29174548Y-12081480D01*
G01X29173750Y-12072461D01*
G01X29173750Y-12072461D01*
G01X29213594Y-12068945D01*
G01X29213594Y-12068945D01*
G01X29267865Y-12099866D01*
G01X29271016Y-12114649D01*
G01X29271016Y-12114649D01*
G01X29268391Y-12172961D01*
G01X29266328Y-12208399D01*
G01X29266328Y-12208399D01*
G01X29362092Y-12207392D01*
G01X29424238Y-12205176D01*
G01X29457820Y-12202960D01*
G01X29467891Y-12201953D01*
G01X29467891Y-12201953D01*
G01X29467891Y-12201953D01*
G01X29472578Y-12230078D01*
G01X29472578Y-12230078D01*
G01X29459981Y-12262305D01*
G01X29459981Y-12262305D01*
G01X29419844Y-12271680D01*
G01X29419844Y-12271680D01*
G01X29361899Y-12272499D01*
G01X29296397Y-12272806D01*
G01X29264019Y-12272852D01*
G01X29263985Y-12272852D01*
G01X29263985Y-12272852D01*
G01X29262886Y-12347049D01*
G01X29262199Y-12417726D01*
G01X29261827Y-12478446D01*
G01X29261673Y-12522770D01*
G01X29261641Y-12544260D01*
G01X29261641Y-12545313D01*
G01X29261641Y-12545313D01*
G01X29268566Y-12631013D01*
G01X29280595Y-12672473D01*
G01X29285078Y-12680957D01*
G01X29285078Y-12680957D01*
G01X29340146Y-12711067D01*
G01X29362422Y-12713477D01*
G01X29362422Y-12713477D01*
G01X29427059Y-12693680D01*
G01X29448555Y-12677149D01*
G01X29448555Y-12677149D01*
G01X29470235Y-12720508D01*
G01X29470235Y-12720508D01*
G01X29439502Y-12761064D01*
G01X29439180Y-12761231D01*
G01X29439180Y-12761231D01*
G01X29377472Y-12776092D01*
G01X29363594Y-12776758D01*
G01X29363594Y-12776758D01*
G01X29285322Y-12762881D01*
G01X29239530Y-12736304D01*
G01X29222875Y-12719604D01*
G01X29222676Y-12719336D01*
G01X29222676Y-12719336D01*
G01X29196786Y-12661490D01*
G01X29184886Y-12599443D01*
G01X29181537Y-12555731D01*
G01X29181367Y-12547656D01*
G01X29181367Y-12547656D01*
G01X29182466Y-12440258D01*
G01X29183153Y-12363129D01*
G01X29183525Y-12312148D01*
G01X29183679Y-12283190D01*
G01X29183711Y-12272132D01*
G01X29183711Y-12271680D01*
G01X29183711Y-12271680D01*
G01X29134684Y-12275417D01*
G01X29074836Y-12280223D01*
G01X29071797Y-12280469D01*
G01X29071797Y-12280469D01*
G01X29068281Y-12250000D01*
G37*
G36*
G01X29490156Y-12250000D02*
G01X29490156Y-12250000D01*
G01X29508028Y-12214844D01*
G01X29508028Y-12214844D01*
G01X29565034Y-12207279D01*
G01X29569258Y-12207227D01*
G01X29603242Y-12207227D01*
G01X29603242Y-12207227D01*
G01X29599751Y-12128459D01*
G01X29596423Y-12081480D01*
G01X29595625Y-12072461D01*
G01X29595625Y-12072461D01*
G01X29635469Y-12068945D01*
G01X29635469Y-12068945D01*
G01X29689740Y-12099866D01*
G01X29692891Y-12114649D01*
G01X29692891Y-12114649D01*
G01X29690266Y-12172961D01*
G01X29688203Y-12208399D01*
G01X29688203Y-12208399D01*
G01X29783967Y-12207392D01*
G01X29846113Y-12205176D01*
G01X29879695Y-12202960D01*
G01X29889766Y-12201953D01*
G01X29889766Y-12201953D01*
G01X29889766Y-12201953D01*
G01X29894453Y-12230078D01*
G01X29894453Y-12230078D01*
G01X29881856Y-12262305D01*
G01X29881856Y-12262305D01*
G01X29841719Y-12271680D01*
G01X29841719Y-12271680D01*
G01X29783774Y-12272499D01*
G01X29718272Y-12272806D01*
G01X29685894Y-12272852D01*
G01X29685860Y-12272852D01*
G01X29685860Y-12272852D01*
G01X29684761Y-12347049D01*
G01X29684074Y-12417726D01*
G01X29683702Y-12478446D01*
G01X29683548Y-12522770D01*
G01X29683516Y-12544260D01*
G01X29683516Y-12545313D01*
G01X29683516Y-12545313D01*
G01X29690441Y-12631013D01*
G01X29702470Y-12672473D01*
G01X29706953Y-12680957D01*
G01X29706953Y-12680957D01*
G01X29762021Y-12711067D01*
G01X29784297Y-12713477D01*
G01X29784297Y-12713477D01*
G01X29848934Y-12693680D01*
G01X29870430Y-12677149D01*
G01X29870430Y-12677149D01*
G01X29892110Y-12720508D01*
G01X29892110Y-12720508D01*
G01X29861377Y-12761064D01*
G01X29861055Y-12761231D01*
G01X29861055Y-12761231D01*
G01X29799347Y-12776092D01*
G01X29785469Y-12776758D01*
G01X29785469Y-12776758D01*
G01X29707197Y-12762881D01*
G01X29661405Y-12736304D01*
G01X29644750Y-12719604D01*
G01X29644551Y-12719336D01*
G01X29644551Y-12719336D01*
G01X29618661Y-12661490D01*
G01X29606761Y-12599443D01*
G01X29603412Y-12555731D01*
G01X29603242Y-12547656D01*
G01X29603242Y-12547656D01*
G01X29604341Y-12440258D01*
G01X29605028Y-12363129D01*
G01X29605400Y-12312148D01*
G01X29605554Y-12283190D01*
G01X29605586Y-12272132D01*
G01X29605586Y-12271680D01*
G01X29605586Y-12271680D01*
G01X29556559Y-12275417D01*
G01X29496711Y-12280223D01*
G01X29493672Y-12280469D01*
G01X29493672Y-12280469D01*
G01X29490156Y-12250000D01*
G37*
G36*
G01X29965938Y-12486719D02*
G01X29965938Y-12486719D01*
G01X29974867Y-12407536D01*
G01X29995518Y-12345209D01*
G01X30018679Y-12301534D01*
G01X30035144Y-12278309D01*
G01X30038008Y-12274903D01*
G01X30038008Y-12274903D01*
G01X30095366Y-12230032D01*
G01X30154749Y-12206168D01*
G01X30202792Y-12196678D01*
G01X30226131Y-12194927D01*
G01X30226680Y-12194922D01*
G01X30226680Y-12194922D01*
G01X30303172Y-12206531D01*
G01X30361630Y-12232514D01*
G01X30399915Y-12259603D01*
G01X30415888Y-12274529D01*
G01X30416231Y-12274903D01*
G01X30416231Y-12274903D01*
G01X30453946Y-12333263D01*
G01X30475403Y-12394947D01*
G01X30485187Y-12448218D01*
G01X30487884Y-12481341D01*
G01X30488008Y-12486719D01*
G01X30488008Y-12486719D01*
G01X30478364Y-12568996D01*
G01X30456417Y-12632610D01*
G01X30432647Y-12675637D01*
G01X30417535Y-12696151D01*
G01X30416231Y-12697656D01*
G01X30416231Y-12697656D01*
G01X30358867Y-12742034D01*
G01X30299190Y-12765636D01*
G01X30250785Y-12775022D01*
G01X30227235Y-12776753D01*
G01X30226680Y-12776758D01*
G01X30226680Y-12776758D01*
G01X30150802Y-12765276D01*
G01X30092599Y-12739579D01*
G01X30054354Y-12712788D01*
G01X30038352Y-12698026D01*
G01X30038008Y-12697656D01*
G01X30038008Y-12697656D01*
G01X30000139Y-12639758D01*
G01X29978594Y-12578337D01*
G01X29968770Y-12525185D01*
G01X29966062Y-12492095D01*
G01X29965938Y-12486719D01*
G37*
%LPC*%
G36*
G01X30050313Y-12469727D02*
G01X30050313Y-12469727D01*
G01X30059224Y-12547475D01*
G01X30077776Y-12604485D01*
G01X30093699Y-12636281D01*
G01X30096895Y-12641406D01*
G01X30096895Y-12641406D01*
G01X30150669Y-12689342D01*
G01X30202535Y-12707267D01*
G01X30226655Y-12709961D01*
G01X30226680Y-12709961D01*
G01X30226680Y-12709961D01*
G01X30300665Y-12694113D01*
G01X30344957Y-12665861D01*
G01X30357344Y-12653711D01*
G01X30357344Y-12653711D01*
G01X30389480Y-12592492D01*
G01X30402032Y-12534038D01*
G01X30404216Y-12504153D01*
G01X30404219Y-12503711D01*
G01X30404219Y-12503711D01*
G01X30395028Y-12425851D01*
G01X30375892Y-12368608D01*
G01X30359468Y-12336611D01*
G01X30356172Y-12331445D01*
G01X30356172Y-12331445D01*
G01X30301822Y-12283100D01*
G01X30250411Y-12265022D01*
G01X30226704Y-12262305D01*
G01X30226680Y-12262305D01*
G01X30226680Y-12262305D01*
G01X30152859Y-12278318D01*
G01X30108862Y-12306864D01*
G01X30096602Y-12319141D01*
G01X30096602Y-12319141D01*
G01X30064867Y-12380762D01*
G01X30052472Y-12439373D01*
G01X30050316Y-12469285D01*
G01X30050313Y-12469727D01*
G37*
%LPD*%
G36*
G01X30613985Y-12213086D02*
G01X30613985Y-12213086D01*
G01X30657344Y-12203711D01*
G01X30657344Y-12203711D01*
G01X30707403Y-12238061D01*
G01X30712422Y-12263477D01*
G01X30712422Y-12263477D01*
G01X30770503Y-12227661D01*
G01X30800899Y-12214258D01*
G01X30800899Y-12214258D01*
G01X30800899Y-12214258D01*
G01X30870039Y-12197339D01*
G01X30900508Y-12194922D01*
G01X30900508Y-12194922D01*
G01X30900508Y-12194922D01*
G01X30974908Y-12212746D01*
G01X31017486Y-12247645D01*
G01X31033583Y-12271760D01*
G01X31034102Y-12272852D01*
G01X31034102Y-12272852D01*
G01X31088061Y-12235024D01*
G01X31124018Y-12218018D01*
G01X31124629Y-12217774D01*
G01X31124629Y-12217774D01*
G01X31195157Y-12198724D01*
G01X31232990Y-12194945D01*
G01X31234492Y-12194922D01*
G01X31234492Y-12194922D01*
G01X31304823Y-12211395D01*
G01X31338523Y-12233464D01*
G01X31340254Y-12235059D01*
G01X31340254Y-12235059D01*
G01X31370794Y-12292715D01*
G01X31380261Y-12348621D01*
G01X31380977Y-12364258D01*
G01X31380977Y-12364258D01*
G01X31379707Y-12418473D01*
G01X31378926Y-12450684D01*
G01X31378926Y-12450684D01*
G01X31377318Y-12531867D01*
G01X31376892Y-12572943D01*
G01X31376875Y-12578125D01*
G01X31376875Y-12578125D01*
G01X31380798Y-12660728D01*
G01X31388966Y-12720697D01*
G01X31395976Y-12753864D01*
G01X31397383Y-12759180D01*
G01X31397383Y-12759180D01*
G01X31350508Y-12768555D01*
G01X31350508Y-12768555D01*
G01X31305684Y-12754785D01*
G01X31305684Y-12754785D01*
G01X31291914Y-12707617D01*
G01X31291914Y-12707617D01*
G01X31291914Y-12707617D01*
G01X31292718Y-12650627D01*
G01X31294293Y-12584183D01*
G01X31295381Y-12544106D01*
G01X31295430Y-12542383D01*
G01X31295430Y-12542383D01*
G01X31297980Y-12447209D01*
G01X31298851Y-12404964D01*
G01X31298946Y-12396485D01*
G01X31298946Y-12396485D01*
G01X31286147Y-12323205D01*
G01X31271112Y-12295472D01*
G01X31270821Y-12295117D01*
G01X31270821Y-12295117D01*
G01X31214093Y-12264251D01*
G01X31196992Y-12262305D01*
G01X31196992Y-12262305D01*
G01X31132080Y-12276778D01*
G01X31077576Y-12305117D01*
G01X31049297Y-12324699D01*
G01X31048164Y-12325586D01*
G01X31048164Y-12325586D01*
G01X31049352Y-12417196D01*
G01X31050051Y-12486413D01*
G01X31050389Y-12533792D01*
G01X31050498Y-12559885D01*
G01X31050508Y-12565821D01*
G01X31050508Y-12565821D01*
G01X31051785Y-12648826D01*
G01X31054545Y-12712692D01*
G01X31057181Y-12752534D01*
G01X31058125Y-12763867D01*
G01X31058125Y-12763867D01*
G01X31017110Y-12767383D01*
G01X31017110Y-12767383D01*
G01X30965718Y-12735185D01*
G01X30963203Y-12721680D01*
G01X30963203Y-12721680D01*
G01X30964961Y-12673340D01*
G01X30964961Y-12673340D01*
G01X30966822Y-12609405D01*
G01X30967803Y-12559466D01*
G01X30967891Y-12554102D01*
G01X30967891Y-12554102D01*
G01X30968694Y-12482458D01*
G01X30969008Y-12424250D01*
G01X30969063Y-12396873D01*
G01X30969063Y-12396485D01*
G01X30969063Y-12396485D01*
G01X30950149Y-12314503D01*
G01X30910014Y-12275365D01*
G01X30873569Y-12263225D01*
G01X30863594Y-12262305D01*
G01X30863594Y-12262305D01*
G01X30799468Y-12277449D01*
G01X30745285Y-12307100D01*
G01X30717070Y-12327588D01*
G01X30715938Y-12328516D01*
G01X30715938Y-12328516D01*
G01X30717169Y-12423562D01*
G01X30717870Y-12493585D01*
G01X30718189Y-12539595D01*
G01X30718277Y-12562604D01*
G01X30718281Y-12565821D01*
G01X30718281Y-12565821D01*
G01X30719460Y-12648826D01*
G01X30722008Y-12712692D01*
G01X30724441Y-12752534D01*
G01X30725313Y-12763867D01*
G01X30725313Y-12763867D01*
G01X30684883Y-12767383D01*
G01X30684883Y-12767383D01*
G01X30633492Y-12735185D01*
G01X30630977Y-12721680D01*
G01X30630977Y-12721680D01*
G01X30632747Y-12666907D01*
G01X30633906Y-12633496D01*
G01X30633906Y-12633496D01*
G01X30635874Y-12558533D01*
G01X30636675Y-12498688D01*
G01X30636835Y-12468569D01*
G01X30636836Y-12467383D01*
G01X30636836Y-12467383D01*
G01X30634460Y-12365336D01*
G01X30628792Y-12292821D01*
G01X30622028Y-12245899D01*
G01X30616361Y-12220633D01*
G01X30613985Y-12213086D01*
G01X30613985Y-12213086D01*
G37*
G36*
G01X31793477Y-12681250D02*
G01X31793477Y-12681250D01*
G01X31831454Y-12637147D01*
G01X31847383Y-12630860D01*
G01X31847383Y-12630860D01*
G01X31888284Y-12680156D01*
G01X31904512Y-12689746D01*
G01X31904512Y-12689746D01*
G01X31970664Y-12707726D01*
G01X31999727Y-12709961D01*
G01X31999727Y-12709961D01*
G01X32067235Y-12695817D01*
G01X32083223Y-12687110D01*
G01X32083223Y-12687110D01*
G01X32113539Y-12632234D01*
G01X32115156Y-12616211D01*
G01X32115156Y-12616211D01*
G01X32087858Y-12564434D01*
G01X32083223Y-12561133D01*
G01X32083223Y-12561133D01*
G01X32023107Y-12536152D01*
G01X32005879Y-12531543D01*
G01X32005879Y-12531543D01*
G01X31939301Y-12514578D01*
G01X31914766Y-12507520D01*
G01X31914766Y-12507520D01*
G01X31856406Y-12474265D01*
G01X31837129Y-12455371D01*
G01X31837129Y-12455371D01*
G01X31809950Y-12393910D01*
G01X31805202Y-12354375D01*
G01X31805196Y-12353711D01*
G01X31805196Y-12353711D01*
G01X31825190Y-12286198D01*
G01X31858039Y-12246881D01*
G01X31867012Y-12239453D01*
G01X31867012Y-12239453D01*
G01X31931956Y-12207725D01*
G01X31985900Y-12196381D01*
G01X32006758Y-12194922D01*
G01X32006758Y-12194922D01*
G01X32075375Y-12205263D01*
G01X32114956Y-12219116D01*
G01X32117207Y-12220117D01*
G01X32117207Y-12220117D01*
G01X32166131Y-12267792D01*
G01X32171406Y-12289844D01*
G01X32171406Y-12289844D01*
G01X32133429Y-12334530D01*
G01X32117500Y-12340235D01*
G01X32117500Y-12340235D01*
G01X32076583Y-12292443D01*
G01X32063301Y-12283985D01*
G01X32063301Y-12283985D01*
G01X31998905Y-12264029D01*
G01X31978047Y-12262305D01*
G01X31978047Y-12262305D01*
G01X31916238Y-12278897D01*
G01X31907149Y-12284570D01*
G01X31907149Y-12284570D01*
G01X31878073Y-12337932D01*
G01X31877266Y-12347266D01*
G01X31877266Y-12347266D01*
G01X31904210Y-12399753D01*
G01X31909199Y-12403516D01*
G01X31909199Y-12403516D01*
G01X31968515Y-12429735D01*
G01X31986543Y-12434863D01*
G01X31986543Y-12434863D01*
G01X32052144Y-12452082D01*
G01X32077656Y-12459473D01*
G01X32077656Y-12459473D01*
G01X32136790Y-12492077D01*
G01X32155293Y-12509278D01*
G01X32155293Y-12509278D01*
G01X32183235Y-12569812D01*
G01X32187227Y-12603320D01*
G01X32187227Y-12603320D01*
G01X32187227Y-12603320D01*
G01X32170805Y-12675720D01*
G01X32140793Y-12719045D01*
G01X32125996Y-12732520D01*
G01X32125996Y-12732520D01*
G01X32061681Y-12763453D01*
G01X32005426Y-12775019D01*
G01X31980416Y-12776758D01*
G01X31980391Y-12776758D01*
G01X31980391Y-12776758D01*
G01X31906220Y-12767850D01*
G01X31859575Y-12753216D01*
G01X31850313Y-12749219D01*
G01X31850313Y-12749219D01*
G01X31799009Y-12701725D01*
G01X31793477Y-12681250D01*
G37*
G36*
G01X32299727Y-12074805D02*
G01X32299727Y-12074805D01*
G01X32318770Y-12029981D01*
G01X32318770Y-12029981D01*
G01X32363008Y-12011524D01*
G01X32363008Y-12011524D01*
G01X32404903Y-12029981D01*
G01X32404903Y-12029981D01*
G01X32422774Y-12074805D01*
G01X32422774Y-12074805D01*
G01X32403753Y-12121071D01*
G01X32403731Y-12121094D01*
G01X32403731Y-12121094D01*
G01X32360664Y-12139844D01*
G01X32360664Y-12139844D01*
G01X32317598Y-12121973D01*
G01X32317598Y-12121973D01*
G01X32299727Y-12074883D01*
G01X32299727Y-12074805D01*
G37*
G36*
G01X32314961Y-12207227D02*
G01X32314961Y-12207227D01*
G01X32355977Y-12203711D01*
G01X32355977Y-12203711D01*
G01X32409378Y-12234869D01*
G01X32412227Y-12248828D01*
G01X32412227Y-12248828D01*
G01X32409883Y-12298047D01*
G01X32409883Y-12298047D01*
G01X32406767Y-12363633D01*
G01X32405207Y-12402343D01*
G01X32405196Y-12402637D01*
G01X32405196Y-12402637D01*
G01X32403286Y-12475740D01*
G01X32402858Y-12518119D01*
G01X32402852Y-12521289D01*
G01X32402852Y-12521289D01*
G01X32405452Y-12611941D01*
G01X32411559Y-12680478D01*
G01X32418633Y-12727421D01*
G01X32424136Y-12753291D01*
G01X32425703Y-12759180D01*
G01X32425703Y-12759180D01*
G01X32380000Y-12768555D01*
G01X32380000Y-12768555D01*
G01X32333129Y-12753032D01*
G01X32333125Y-12753027D01*
G01X32333125Y-12753027D01*
G01X32320829Y-12700868D01*
G01X32320821Y-12700000D01*
G01X32320821Y-12700000D01*
G01X32321619Y-12641641D01*
G01X32322285Y-12605371D01*
G01X32322285Y-12605371D01*
G01X32323479Y-12527329D01*
G01X32323746Y-12490346D01*
G01X32323750Y-12487891D01*
G01X32323750Y-12487891D01*
G01X32322998Y-12401548D01*
G01X32321153Y-12329012D01*
G01X32318829Y-12271904D01*
G01X32316642Y-12231844D01*
G01X32315207Y-12210450D01*
G01X32314961Y-12207227D01*
G37*
G36*
G01X32563399Y-11876758D02*
G01X32563399Y-11876758D01*
G01X32605586Y-11873242D01*
G01X32605586Y-11873242D01*
G01X32657874Y-11904805D01*
G01X32660664Y-11918945D01*
G01X32660664Y-11918945D01*
G01X32659124Y-11975687D01*
G01X32658906Y-11983106D01*
G01X32658906Y-11983106D01*
G01X32657064Y-12047525D01*
G01X32655373Y-12108741D01*
G01X32654524Y-12139969D01*
G01X32654512Y-12140430D01*
G01X32654512Y-12140430D01*
G01X32652944Y-12214936D01*
G01X32652167Y-12279009D01*
G01X32651903Y-12322454D01*
G01X32651875Y-12335547D01*
G01X32651875Y-12522461D01*
G01X32651875Y-12522461D01*
G01X32654475Y-12612058D01*
G01X32660582Y-12680210D01*
G01X32667657Y-12727177D01*
G01X32673159Y-12753221D01*
G01X32674727Y-12759180D01*
G01X32674727Y-12759180D01*
G01X32629610Y-12768555D01*
G01X32629610Y-12768555D01*
G01X32583320Y-12754199D01*
G01X32583320Y-12754199D01*
G01X32570430Y-12706445D01*
G01X32570430Y-12706445D01*
G01X32570430Y-12706445D01*
G01X32570729Y-12656353D01*
G01X32571287Y-12588978D01*
G01X32571601Y-12553847D01*
G01X32571602Y-12553809D01*
G01X32571602Y-12553809D01*
G01X32572318Y-12464596D01*
G01X32572660Y-12403343D01*
G01X32572766Y-12369945D01*
G01X32572774Y-12363086D01*
G01X32572774Y-12223633D01*
G01X32572774Y-12223633D01*
G01X32572204Y-12110547D01*
G01X32570749Y-12023902D01*
G01X32568787Y-11960551D01*
G01X32566699Y-11917352D01*
G01X32564863Y-11891159D01*
G01X32563661Y-11878829D01*
G01X32563399Y-11876758D01*
G37*
G36*
G01X32818867Y-11876758D02*
G01X32818867Y-11876758D01*
G01X32861055Y-11873242D01*
G01X32861055Y-11873242D01*
G01X32913343Y-11904805D01*
G01X32916133Y-11918945D01*
G01X32916133Y-11918945D01*
G01X32914415Y-11972869D01*
G01X32914375Y-11974024D01*
G01X32914375Y-11974024D01*
G01X32912183Y-12039412D01*
G01X32910388Y-12095094D01*
G01X32909981Y-12107910D01*
G01X32909981Y-12107910D01*
G01X32908248Y-12180866D01*
G01X32907513Y-12240358D01*
G01X32907347Y-12272766D01*
G01X32907344Y-12275195D01*
G01X32907344Y-12275195D01*
G01X32971934Y-12228787D01*
G01X33031196Y-12204956D01*
G01X33074528Y-12196176D01*
G01X33091328Y-12194922D01*
G01X33091328Y-12194922D01*
G01X33091328Y-12194922D01*
G01X33165320Y-12209365D01*
G01X33204105Y-12232396D01*
G01X33209981Y-12237695D01*
G01X33209981Y-12237695D01*
G01X33243552Y-12298449D01*
G01X33250633Y-12340036D01*
G01X33250703Y-12342578D01*
G01X33250703Y-12342578D01*
G01X33236835Y-12414003D01*
G01X33213394Y-12458914D01*
G01X33205879Y-12469141D01*
G01X33205879Y-12469141D01*
G01X33150583Y-12510294D01*
G01X33098871Y-12527912D01*
G01X33080196Y-12531250D01*
G01X33080196Y-12531250D01*
G01X33130353Y-12610211D01*
G01X33159659Y-12651200D01*
G01X33170303Y-12664123D01*
G01X33170430Y-12664258D01*
G01X33170430Y-12664258D01*
G01X33228558Y-12700265D01*
G01X33244844Y-12702930D01*
G01X33244844Y-12702930D01*
G01X33275899Y-12697656D01*
G01X33275899Y-12697656D01*
G01X33287031Y-12732813D01*
G01X33287031Y-12732813D01*
G01X33261836Y-12765625D01*
G01X33261836Y-12765625D01*
G01X33213789Y-12776758D01*
G01X33213789Y-12776758D01*
G01X33151910Y-12754730D01*
G01X33127071Y-12733985D01*
G01X33127071Y-12733985D01*
G01X33096895Y-12697949D01*
G01X33096895Y-12697949D01*
G01X33067085Y-12654996D01*
G01X33067012Y-12654883D01*
G01X33067012Y-12654883D01*
G01X33041817Y-12614453D01*
G01X33041817Y-12614453D01*
G01X33014531Y-12568300D01*
G01X33014278Y-12567871D01*
G01X33014278Y-12567871D01*
G01X32990547Y-12527149D01*
G01X32990547Y-12527149D01*
G01X32958906Y-12501953D01*
G01X32958906Y-12501953D01*
G01X32965352Y-12473242D01*
G01X32965352Y-12473242D01*
G01X33024159Y-12481933D01*
G01X33026289Y-12482031D01*
G01X33026289Y-12482031D01*
G01X33097934Y-12465913D01*
G01X33127846Y-12446076D01*
G01X33128535Y-12445410D01*
G01X33128535Y-12445410D01*
G01X33161063Y-12385454D01*
G01X33164571Y-12360742D01*
G01X33164571Y-12360742D01*
G01X33146232Y-12299806D01*
G01X33139961Y-12291016D01*
G01X33139961Y-12291016D01*
G01X33084422Y-12263536D01*
G01X33070821Y-12262305D01*
G01X33070821Y-12262305D01*
G01X33007598Y-12276814D01*
G01X32985567Y-12286914D01*
G01X32985567Y-12286914D01*
G01X32928601Y-12327639D01*
G01X32907344Y-12348438D01*
G01X32907344Y-12522461D01*
G01X32907344Y-12522461D01*
G01X32909944Y-12612058D01*
G01X32916051Y-12680210D01*
G01X32923125Y-12727177D01*
G01X32928628Y-12753221D01*
G01X32930196Y-12759180D01*
G01X32930196Y-12759180D01*
G01X32885078Y-12768555D01*
G01X32885078Y-12768555D01*
G01X32838789Y-12754199D01*
G01X32838789Y-12754199D01*
G01X32825899Y-12706445D01*
G01X32825899Y-12706445D01*
G01X32825899Y-12706445D01*
G01X32826197Y-12656353D01*
G01X32826756Y-12588978D01*
G01X32827070Y-12553847D01*
G01X32827071Y-12553809D01*
G01X32827071Y-12553809D01*
G01X32827787Y-12464596D01*
G01X32828128Y-12403343D01*
G01X32828234Y-12369945D01*
G01X32828242Y-12363086D01*
G01X32828242Y-12223633D01*
G01X32828242Y-12223633D01*
G01X32827673Y-12110547D01*
G01X32826217Y-12023901D01*
G01X32824256Y-11960551D01*
G01X32822167Y-11917352D01*
G01X32820332Y-11891159D01*
G01X32819130Y-11878829D01*
G01X32818867Y-11876758D01*
G37*
G36*
G01X33366719Y-12681250D02*
G01X33366719Y-12681250D01*
G01X33404697Y-12637147D01*
G01X33420625Y-12630860D01*
G01X33420625Y-12630860D01*
G01X33461526Y-12680156D01*
G01X33477754Y-12689746D01*
G01X33477754Y-12689746D01*
G01X33543906Y-12707726D01*
G01X33572969Y-12709961D01*
G01X33572969Y-12709961D01*
G01X33640477Y-12695817D01*
G01X33656465Y-12687110D01*
G01X33656465Y-12687110D01*
G01X33686781Y-12632234D01*
G01X33688399Y-12616211D01*
G01X33688399Y-12616211D01*
G01X33661100Y-12564434D01*
G01X33656465Y-12561133D01*
G01X33656465Y-12561133D01*
G01X33596349Y-12536152D01*
G01X33579121Y-12531543D01*
G01X33579121Y-12531543D01*
G01X33512543Y-12514578D01*
G01X33488008Y-12507520D01*
G01X33488008Y-12507520D01*
G01X33429648Y-12474265D01*
G01X33410371Y-12455371D01*
G01X33410371Y-12455371D01*
G01X33383192Y-12393910D01*
G01X33378445Y-12354375D01*
G01X33378438Y-12353711D01*
G01X33378438Y-12353711D01*
G01X33398433Y-12286198D01*
G01X33431281Y-12246881D01*
G01X33440254Y-12239453D01*
G01X33440254Y-12239453D01*
G01X33505199Y-12207725D01*
G01X33559142Y-12196381D01*
G01X33580000Y-12194922D01*
G01X33580000Y-12194922D01*
G01X33648617Y-12205263D01*
G01X33688198Y-12219116D01*
G01X33690449Y-12220117D01*
G01X33690449Y-12220117D01*
G01X33739373Y-12267792D01*
G01X33744649Y-12289844D01*
G01X33744649Y-12289844D01*
G01X33706671Y-12334530D01*
G01X33690742Y-12340235D01*
G01X33690742Y-12340235D01*
G01X33649825Y-12292443D01*
G01X33636543Y-12283985D01*
G01X33636543Y-12283985D01*
G01X33572147Y-12264029D01*
G01X33551289Y-12262305D01*
G01X33551289Y-12262305D01*
G01X33489480Y-12278897D01*
G01X33480391Y-12284570D01*
G01X33480391Y-12284570D01*
G01X33451315Y-12337932D01*
G01X33450508Y-12347266D01*
G01X33450508Y-12347266D01*
G01X33477452Y-12399753D01*
G01X33482442Y-12403516D01*
G01X33482442Y-12403516D01*
G01X33541757Y-12429735D01*
G01X33559785Y-12434863D01*
G01X33559785Y-12434863D01*
G01X33625387Y-12452082D01*
G01X33650899Y-12459473D01*
G01X33650899Y-12459473D01*
G01X33710032Y-12492077D01*
G01X33728535Y-12509278D01*
G01X33728535Y-12509278D01*
G01X33756477Y-12569812D01*
G01X33760469Y-12603320D01*
G01X33760469Y-12603320D01*
G01X33760469Y-12603320D01*
G01X33744047Y-12675720D01*
G01X33714036Y-12719045D01*
G01X33699238Y-12732520D01*
G01X33699238Y-12732520D01*
G01X33634923Y-12763453D01*
G01X33578668Y-12775019D01*
G01X33553658Y-12776758D01*
G01X33553633Y-12776758D01*
G01X33553633Y-12776758D01*
G01X33479463Y-12767850D01*
G01X33432817Y-12753216D01*
G01X33423555Y-12749219D01*
G01X33423555Y-12749219D01*
G01X33372251Y-12701725D01*
G01X33366719Y-12681250D01*
G37*
G36*
G01X33863008Y-12492578D02*
G01X33863008Y-12492578D01*
G01X33870441Y-12417492D01*
G01X33883004Y-12368819D01*
G01X33887031Y-12357520D01*
G01X33887031Y-12357520D01*
G01X33923069Y-12294543D01*
G01X33948992Y-12265516D01*
G01X33950606Y-12264063D01*
G01X33950606Y-12264063D01*
G01X34008739Y-12225024D01*
G01X34035274Y-12212500D01*
G01X34035274Y-12212500D01*
G01X34102243Y-12196633D01*
G01X34127266Y-12194922D01*
G01X34127266Y-12194922D01*
G01X34197411Y-12205415D01*
G01X34239526Y-12220572D01*
G01X34243574Y-12222461D01*
G01X34243574Y-12222461D01*
G01X34292024Y-12271753D01*
G01X34298946Y-12300391D01*
G01X34298946Y-12300391D01*
G01X34298946Y-12300391D01*
G01X34261356Y-12346291D01*
G01X34240938Y-12351953D01*
G01X34240938Y-12351953D01*
G01X34205341Y-12296919D01*
G01X34190254Y-12285449D01*
G01X34190254Y-12285449D01*
G01X34127338Y-12264020D01*
G01X34107930Y-12262305D01*
G01X34107930Y-12262305D01*
G01X34041729Y-12281542D01*
G01X34002159Y-12313145D01*
G01X33994551Y-12321778D01*
G01X33994551Y-12321778D01*
G01X33963665Y-12383557D01*
G01X33951079Y-12442602D01*
G01X33948571Y-12475399D01*
G01X33948555Y-12476758D01*
G01X33948555Y-12476758D01*
G01X33957276Y-12560288D01*
G01X33975783Y-12616840D01*
G01X33992588Y-12647246D01*
G01X33997188Y-12653418D01*
G01X33997188Y-12653418D01*
G01X34055753Y-12695139D01*
G01X34106827Y-12708720D01*
G01X34122578Y-12709961D01*
G01X34122578Y-12709961D01*
G01X34184762Y-12698391D01*
G01X34195528Y-12694434D01*
G01X34195528Y-12694434D01*
G01X34244133Y-12654519D01*
G01X34248555Y-12647266D01*
G01X34248555Y-12647266D01*
G01X34294963Y-12688998D01*
G01X34296016Y-12695313D01*
G01X34296016Y-12695313D01*
G01X34262286Y-12745080D01*
G01X34241524Y-12755957D01*
G01X34241524Y-12755957D01*
G01X34174670Y-12772265D01*
G01X34126042Y-12776592D01*
G01X34118477Y-12776758D01*
G01X34118477Y-12776758D01*
G01X34041377Y-12764823D01*
G01X33982728Y-12739028D01*
G01X33946486Y-12714387D01*
G01X33936250Y-12705567D01*
G01X33936250Y-12705567D01*
G01X33897765Y-12650590D01*
G01X33875870Y-12588680D01*
G01X33865887Y-12533405D01*
G01X33863135Y-12498337D01*
G01X33863008Y-12492578D01*
G37*
G36*
G01X34417305Y-12207227D02*
G01X34417305Y-12207227D01*
G01X34458321Y-12203711D01*
G01X34458321Y-12203711D01*
G01X34507856Y-12236728D01*
G01X34509883Y-12248828D01*
G01X34509883Y-12248828D01*
G01X34509297Y-12265235D01*
G01X34509297Y-12265235D01*
G01X34508711Y-12291016D01*
G01X34508711Y-12291016D01*
G01X34552868Y-12241128D01*
G01X34572871Y-12224512D01*
G01X34572871Y-12224512D01*
G01X34635113Y-12196961D01*
G01X34652266Y-12194922D01*
G01X34652266Y-12194922D01*
G01X34695625Y-12207520D01*
G01X34695625Y-12207520D01*
G01X34711446Y-12241797D01*
G01X34711446Y-12241797D01*
G01X34689070Y-12293479D01*
G01X34687422Y-12295703D01*
G01X34687422Y-12295703D01*
G01X34633258Y-12273063D01*
G01X34629414Y-12272852D01*
G01X34629414Y-12272852D01*
G01X34571025Y-12293188D01*
G01X34562324Y-12299219D01*
G01X34562324Y-12299219D01*
G01X34518030Y-12348903D01*
G01X34505781Y-12368945D01*
G01X34505781Y-12368945D01*
G01X34504962Y-12425994D01*
G01X34504656Y-12489820D01*
G01X34504610Y-12521256D01*
G01X34504610Y-12521289D01*
G01X34504610Y-12521289D01*
G01X34507210Y-12611941D01*
G01X34513317Y-12680478D01*
G01X34520391Y-12727421D01*
G01X34525893Y-12753291D01*
G01X34527461Y-12759180D01*
G01X34527461Y-12759180D01*
G01X34481758Y-12768555D01*
G01X34481758Y-12768555D01*
G01X34435176Y-12753028D01*
G01X34435176Y-12753028D01*
G01X34435176Y-12753028D01*
G01X34423173Y-12700868D01*
G01X34423164Y-12700000D01*
G01X34423164Y-12700000D01*
G01X34423803Y-12641641D01*
G01X34424336Y-12605371D01*
G01X34424336Y-12605371D01*
G01X34425291Y-12527329D01*
G01X34425505Y-12490346D01*
G01X34425508Y-12487891D01*
G01X34425508Y-12487891D01*
G01X34424806Y-12401548D01*
G01X34423084Y-12329012D01*
G01X34420915Y-12271904D01*
G01X34418874Y-12231844D01*
G01X34417535Y-12210450D01*
G01X34417305Y-12207227D01*
G37*
G36*
G01X34777071Y-12489063D02*
G01X34777071Y-12489063D01*
G01X34786980Y-12405118D01*
G01X34809897Y-12340904D01*
G01X34835601Y-12297096D01*
G01X34853872Y-12274366D01*
G01X34857051Y-12271094D01*
G01X34857051Y-12271094D01*
G01X34920135Y-12227057D01*
G01X34980940Y-12204444D01*
G01X35026749Y-12196112D01*
G01X35044844Y-12194922D01*
G01X35044844Y-12194922D01*
G01X35044844Y-12194922D01*
G01X35120315Y-12208294D01*
G01X35167255Y-12232131D01*
G01X35180781Y-12242383D01*
G01X35180781Y-12242383D01*
G01X35221666Y-12302074D01*
G01X35232513Y-12346689D01*
G01X35232930Y-12353711D01*
G01X35232930Y-12353711D01*
G01X35221397Y-12419658D01*
G01X35216231Y-12431641D01*
G01X35216231Y-12431641D01*
G01X35176721Y-12477543D01*
G01X35172578Y-12480567D01*
G01X35172578Y-12480567D01*
G01X35113460Y-12503781D01*
G01X35094649Y-12508106D01*
G01X35094649Y-12508106D01*
G01X35025435Y-12517737D01*
G01X34994453Y-12520117D01*
G01X34994453Y-12520117D01*
G01X34994453Y-12520117D01*
G01X34929301Y-12521929D01*
G01X34875431Y-12522436D01*
G01X34864961Y-12522461D01*
G01X34864961Y-12522461D01*
G01X34883034Y-12597424D01*
G01X34906243Y-12644207D01*
G01X34916817Y-12659278D01*
G01X34916817Y-12659278D01*
G01X34973622Y-12697882D01*
G01X35023324Y-12709260D01*
G01X35034883Y-12709961D01*
G01X35034883Y-12709961D01*
G01X35110274Y-12693147D01*
G01X35151088Y-12662417D01*
G01X35162617Y-12647266D01*
G01X35162617Y-12647266D01*
G01X35208781Y-12689978D01*
G01X35210078Y-12697656D01*
G01X35210078Y-12697656D01*
G01X35174767Y-12745160D01*
G01X35155586Y-12755078D01*
G01X35155586Y-12755078D01*
G01X35087593Y-12772305D01*
G01X35039793Y-12776632D01*
G01X35033711Y-12776758D01*
G01X35033711Y-12776758D01*
G01X34957118Y-12765634D01*
G01X34898872Y-12741162D01*
G01X34861830Y-12716690D01*
G01X34848848Y-12705567D01*
G01X34848848Y-12705567D01*
G01X34848848Y-12705567D01*
G01X34811133Y-12650154D01*
G01X34789676Y-12587237D01*
G01X34779892Y-12530832D01*
G01X34777195Y-12494961D01*
G01X34777071Y-12489063D01*
G37*
%LPC*%
G36*
G01X34863789Y-12462695D02*
G01X34863789Y-12462695D01*
G01X34934048Y-12461953D01*
G01X34949922Y-12461524D01*
G01X34949922Y-12461524D01*
G01X35012881Y-12455895D01*
G01X35025508Y-12454199D01*
G01X35025508Y-12454199D01*
G01X35086580Y-12439272D01*
G01X35091719Y-12437207D01*
G01X35091719Y-12437207D01*
G01X35132981Y-12406206D01*
G01X35133028Y-12406153D01*
G01X35133028Y-12406153D01*
G01X35150307Y-12356481D01*
G01X35150313Y-12356055D01*
G01X35150313Y-12356055D01*
G01X35127158Y-12298321D01*
G01X35118672Y-12289258D01*
G01X35118672Y-12289258D01*
G01X35059515Y-12263071D01*
G01X35040156Y-12261133D01*
G01X35040156Y-12261133D01*
G01X34970335Y-12276361D01*
G01X34926922Y-12302100D01*
G01X34917110Y-12310352D01*
G01X34917110Y-12310352D01*
G01X34882343Y-12366988D01*
G01X34867345Y-12426638D01*
G01X34863840Y-12461233D01*
G01X34863789Y-12462695D01*
G37*
%LPD*%
G36*
G01X35340742Y-12489063D02*
G01X35340742Y-12489063D01*
G01X35350652Y-12405118D01*
G01X35373569Y-12340904D01*
G01X35399273Y-12297096D01*
G01X35417544Y-12274366D01*
G01X35420723Y-12271094D01*
G01X35420723Y-12271094D01*
G01X35483807Y-12227057D01*
G01X35544612Y-12204444D01*
G01X35590420Y-12196112D01*
G01X35608516Y-12194922D01*
G01X35608516Y-12194922D01*
G01X35608516Y-12194922D01*
G01X35683987Y-12208294D01*
G01X35730927Y-12232131D01*
G01X35744453Y-12242383D01*
G01X35744453Y-12242383D01*
G01X35785338Y-12302074D01*
G01X35796185Y-12346689D01*
G01X35796602Y-12353711D01*
G01X35796602Y-12353711D01*
G01X35785069Y-12419658D01*
G01X35779903Y-12431641D01*
G01X35779903Y-12431641D01*
G01X35740393Y-12477543D01*
G01X35736250Y-12480567D01*
G01X35736250Y-12480567D01*
G01X35677132Y-12503781D01*
G01X35658321Y-12508106D01*
G01X35658321Y-12508106D01*
G01X35589107Y-12517737D01*
G01X35558125Y-12520117D01*
G01X35558125Y-12520117D01*
G01X35558125Y-12520117D01*
G01X35492973Y-12521929D01*
G01X35439103Y-12522436D01*
G01X35428633Y-12522461D01*
G01X35428633Y-12522461D01*
G01X35446706Y-12597424D01*
G01X35469915Y-12644207D01*
G01X35480488Y-12659278D01*
G01X35480488Y-12659278D01*
G01X35537293Y-12697882D01*
G01X35586996Y-12709260D01*
G01X35598555Y-12709961D01*
G01X35598555Y-12709961D01*
G01X35673946Y-12693147D01*
G01X35714760Y-12662417D01*
G01X35726289Y-12647266D01*
G01X35726289Y-12647266D01*
G01X35772453Y-12689978D01*
G01X35773750Y-12697656D01*
G01X35773750Y-12697656D01*
G01X35738439Y-12745160D01*
G01X35719258Y-12755078D01*
G01X35719258Y-12755078D01*
G01X35651264Y-12772305D01*
G01X35603464Y-12776632D01*
G01X35597383Y-12776758D01*
G01X35597383Y-12776758D01*
G01X35520790Y-12765634D01*
G01X35462544Y-12741162D01*
G01X35425502Y-12716690D01*
G01X35412520Y-12705567D01*
G01X35412520Y-12705567D01*
G01X35412520Y-12705567D01*
G01X35374804Y-12650154D01*
G01X35353348Y-12587237D01*
G01X35343564Y-12530832D01*
G01X35340866Y-12494961D01*
G01X35340742Y-12489063D01*
G37*
%LPC*%
G36*
G01X35427461Y-12462695D02*
G01X35427461Y-12462695D01*
G01X35497720Y-12461953D01*
G01X35513594Y-12461524D01*
G01X35513594Y-12461524D01*
G01X35576553Y-12455895D01*
G01X35589180Y-12454199D01*
G01X35589180Y-12454199D01*
G01X35650252Y-12439272D01*
G01X35655391Y-12437207D01*
G01X35655391Y-12437207D01*
G01X35696653Y-12406206D01*
G01X35696699Y-12406153D01*
G01X35696699Y-12406153D01*
G01X35713979Y-12356481D01*
G01X35713985Y-12356055D01*
G01X35713985Y-12356055D01*
G01X35690830Y-12298321D01*
G01X35682344Y-12289258D01*
G01X35682344Y-12289258D01*
G01X35623187Y-12263071D01*
G01X35603828Y-12261133D01*
G01X35603828Y-12261133D01*
G01X35534007Y-12276361D01*
G01X35490594Y-12302100D01*
G01X35480781Y-12310352D01*
G01X35480781Y-12310352D01*
G01X35446015Y-12366988D01*
G01X35431016Y-12426638D01*
G01X35427511Y-12461233D01*
G01X35427461Y-12462695D01*
G37*
%LPD*%
G36*
G01X35922578Y-12213086D02*
G01X35922578Y-12213086D01*
G01X35965938Y-12203711D01*
G01X35965938Y-12203711D01*
G01X36015997Y-12238061D01*
G01X36021016Y-12263477D01*
G01X36021016Y-12263477D01*
G01X36078308Y-12230171D01*
G01X36113034Y-12215527D01*
G01X36113301Y-12215430D01*
G01X36113301Y-12215430D01*
G01X36183360Y-12198334D01*
G01X36222184Y-12194943D01*
G01X36223750Y-12194922D01*
G01X36223750Y-12194922D01*
G01X36296514Y-12209630D01*
G01X36335225Y-12231626D01*
G01X36339473Y-12235059D01*
G01X36339473Y-12235059D01*
G01X36372547Y-12290991D01*
G01X36383313Y-12346340D01*
G01X36384297Y-12364258D01*
G01X36384297Y-12364258D01*
G01X36383209Y-12418473D01*
G01X36382539Y-12450684D01*
G01X36382539Y-12450684D01*
G01X36381161Y-12531867D01*
G01X36380795Y-12572943D01*
G01X36380781Y-12578125D01*
G01X36380781Y-12578125D01*
G01X36384704Y-12660728D01*
G01X36392872Y-12720697D01*
G01X36399882Y-12753864D01*
G01X36401289Y-12759180D01*
G01X36401289Y-12759180D01*
G01X36354414Y-12768555D01*
G01X36354414Y-12768555D01*
G01X36309590Y-12754785D01*
G01X36309590Y-12754785D01*
G01X36295820Y-12707617D01*
G01X36295820Y-12707617D01*
G01X36295820Y-12707617D01*
G01X36296625Y-12650627D01*
G01X36298199Y-12584183D01*
G01X36299287Y-12544106D01*
G01X36299336Y-12542383D01*
G01X36299336Y-12542383D01*
G01X36301886Y-12447209D01*
G01X36302757Y-12404964D01*
G01X36302852Y-12396485D01*
G01X36302852Y-12396485D01*
G01X36287787Y-12323935D01*
G01X36270090Y-12296064D01*
G01X36269746Y-12295703D01*
G01X36269746Y-12295703D01*
G01X36210995Y-12265556D01*
G01X36185078Y-12262305D01*
G01X36185078Y-12262305D01*
G01X36116684Y-12275780D01*
G01X36060705Y-12303288D01*
G01X36028373Y-12325450D01*
G01X36024531Y-12328516D01*
G01X36024531Y-12328516D01*
G01X36025763Y-12423562D01*
G01X36026464Y-12493585D01*
G01X36026783Y-12539595D01*
G01X36026871Y-12562604D01*
G01X36026875Y-12565821D01*
G01X36026875Y-12565821D01*
G01X36028054Y-12648826D01*
G01X36030602Y-12712692D01*
G01X36033035Y-12752534D01*
G01X36033906Y-12763867D01*
G01X36033906Y-12763867D01*
G01X35993477Y-12767383D01*
G01X35993477Y-12767383D01*
G01X35942086Y-12735185D01*
G01X35939571Y-12721680D01*
G01X35939571Y-12721680D01*
G01X35941341Y-12666907D01*
G01X35942500Y-12633496D01*
G01X35942500Y-12633496D01*
G01X35944467Y-12558533D01*
G01X35945269Y-12498688D01*
G01X35945429Y-12468569D01*
G01X35945430Y-12467383D01*
G01X35945430Y-12467383D01*
G01X35943053Y-12365336D01*
G01X35937386Y-12292821D01*
G01X35930622Y-12245899D01*
G01X35924955Y-12220633D01*
G01X35922578Y-12213086D01*
G01X35922578Y-12213086D01*
G37*

G04 Pad flashes *
%LPD*%
D11*

G04 end of program *
M02*
