M48
METRIC,TZ
G90
M71
T1C1.0
T2C0.9
T3C1.1
T4C0.7
M95
T1
X21.525547Y-8.215547
X21.525547Y-16.835547
X14.215547Y-21.525547
X22.835547Y-21.525547
X3.525547Y-5.215547
X3.525547Y-13.835547
T2
X11.255547Y-2.025547
X13.795547Y-2.025547
T3
X4.923573Y-21.923573
X3.127522Y-20.127522
T4
X16.229496Y-5.821598
X19.821598Y-2.229496
X8.715547Y-16.335547
X8.715547Y-11.255547
X8.715547Y-13.795547
X16.335547Y-8.715547
X8.715547Y-8.715547
X16.335547Y-13.795547
X16.335547Y-11.255547
X16.335547Y-16.335547
X10.844699Y-21.599124
X9.206395Y-20.451971
M30
