G04                                                      *
G04 Greetings!                                           *
G04 This Gerber was generated by PCBmodE, an open source *
G04 PCB design software. Get it here:                    *
G04                                                      *
G04   http://pcbmode.com                                 *
G04                                                      *
G04 Also visit                                           *
G04                                                      *
G04   http://boldport.com                                *
G04                                                      *
G04 and follow @boldport / @pcbmode for updates!         *
G04                                                      *

G04 leading zeros omitted (L); absolute data (A); 6 integer digits and 6 fractional digits *
%FSLAX66Y66*%

G04 mode (MO): millimeters (MM) *
%MOMM*%

G04 Aperture definitions *
%ADD10C,0.001X*%
%ADD11C,0.001X*%

%LPD*%
G36*
G01X4234144Y-22613002D02*
G01X4234144Y-22613002D01*
G01X4190280Y-22566205D01*
G01X4150072Y-22517319D01*
G01X4113519Y-22466525D01*
G01X4080621Y-22414005D01*
G01X4051378Y-22359941D01*
G01X4025791Y-22304514D01*
G01X4003859Y-22247907D01*
G01X3985583Y-22190299D01*
G01X3970962Y-22131875D01*
G01X3959996Y-22072814D01*
G01X3952685Y-22013299D01*
G01X3949030Y-21953512D01*
G01X3949030Y-21893634D01*
G01X3952685Y-21833846D01*
G01X3959996Y-21774331D01*
G01X3970962Y-21715271D01*
G01X3985583Y-21656846D01*
G01X4003859Y-21599239D01*
G01X4025791Y-21542631D01*
G01X4051378Y-21487204D01*
G01X4080621Y-21433140D01*
G01X4113519Y-21380620D01*
G01X4150072Y-21329826D01*
G01X4190280Y-21280940D01*
G01X4234144Y-21234144D01*
G01X4234144Y-21234144D01*
G01X4234144Y-21234144D01*
G01X4280940Y-21190280D01*
G01X4329826Y-21150071D01*
G01X4380620Y-21113518D01*
G01X4433140Y-21080621D01*
G01X4487204Y-21051378D01*
G01X4542631Y-21025791D01*
G01X4599239Y-21003859D01*
G01X4656846Y-20985583D01*
G01X4715271Y-20970961D01*
G01X4774331Y-20959995D01*
G01X4833846Y-20952685D01*
G01X4893634Y-20949030D01*
G01X4953512Y-20949030D01*
G01X5013299Y-20952685D01*
G01X5072814Y-20959995D01*
G01X5131875Y-20970961D01*
G01X5190300Y-20985583D01*
G01X5247907Y-21003859D01*
G01X5304515Y-21025791D01*
G01X5359942Y-21051378D01*
G01X5414006Y-21080621D01*
G01X5466526Y-21113518D01*
G01X5517319Y-21150071D01*
G01X5566205Y-21190280D01*
G01X5613002Y-21234144D01*
G01X5613002Y-21234144D01*
G01X5613002Y-21234144D01*
G01X5656866Y-21280940D01*
G01X5697074Y-21329826D01*
G01X5733627Y-21380620D01*
G01X5766525Y-21433140D01*
G01X5795767Y-21487204D01*
G01X5821354Y-21542631D01*
G01X5843286Y-21599239D01*
G01X5861563Y-21656846D01*
G01X5876184Y-21715271D01*
G01X5887150Y-21774331D01*
G01X5894461Y-21833846D01*
G01X5898116Y-21893634D01*
G01X5898116Y-21953512D01*
G01X5894461Y-22013299D01*
G01X5887150Y-22072814D01*
G01X5876184Y-22131875D01*
G01X5861563Y-22190299D01*
G01X5843286Y-22247907D01*
G01X5821354Y-22304514D01*
G01X5795767Y-22359941D01*
G01X5766525Y-22414005D01*
G01X5733627Y-22466525D01*
G01X5697074Y-22517319D01*
G01X5656866Y-22566205D01*
G01X5613002Y-22613002D01*
G01X5613002Y-22613002D01*
G01X5613002Y-22613002D01*
G01X5566205Y-22656865D01*
G01X5517319Y-22697074D01*
G01X5466526Y-22733627D01*
G01X5414006Y-22766525D01*
G01X5359942Y-22795767D01*
G01X5304515Y-22821354D01*
G01X5247907Y-22843286D01*
G01X5190300Y-22861563D01*
G01X5131875Y-22876184D01*
G01X5072814Y-22887150D01*
G01X5013299Y-22894460D01*
G01X4953512Y-22898116D01*
G01X4893634Y-22898116D01*
G01X4833846Y-22894460D01*
G01X4774331Y-22887150D01*
G01X4715271Y-22876184D01*
G01X4656846Y-22861563D01*
G01X4599239Y-22843286D01*
G01X4542631Y-22821354D01*
G01X4487204Y-22795767D01*
G01X4433140Y-22766525D01*
G01X4380620Y-22733627D01*
G01X4329826Y-22697074D01*
G01X4280940Y-22656865D01*
G01X4234144Y-22613002D01*
G01X4234144Y-22613002D01*
G37*
G36*
G01X3816951Y-20816951D02*
G01X4294248Y-20339653D01*
G01X4294248Y-20339653D01*
G01X4325880Y-20302468D01*
G01X4350483Y-20261789D01*
G01X4368057Y-20218489D01*
G01X4378601Y-20173442D01*
G01X4382115Y-20127521D01*
G01X4378601Y-20081601D01*
G01X4368057Y-20036554D01*
G01X4350483Y-19993254D01*
G01X4325880Y-19952575D01*
G01X4294248Y-19915389D01*
G01X4294248Y-19915389D01*
G01X3816951Y-19438092D01*
G01X3339653Y-18960795D01*
G01X3339653Y-18960795D01*
G01X3302468Y-18929163D01*
G01X3261789Y-18904560D01*
G01X3218489Y-18886986D01*
G01X3173442Y-18876442D01*
G01X3127521Y-18872927D01*
G01X3081601Y-18876442D01*
G01X3036554Y-18886986D01*
G01X2993254Y-18904560D01*
G01X2952575Y-18929163D01*
G01X2915389Y-18960795D01*
G01X2915389Y-18960795D01*
G01X2438092Y-19438092D01*
G01X1960795Y-19915389D01*
G01X1960795Y-19915389D01*
G01X1929163Y-19952575D01*
G01X1904560Y-19993254D01*
G01X1886986Y-20036554D01*
G01X1876442Y-20081601D01*
G01X1872927Y-20127521D01*
G01X1876442Y-20173442D01*
G01X1886986Y-20218489D01*
G01X1904560Y-20261789D01*
G01X1929163Y-20302468D01*
G01X1960795Y-20339653D01*
G01X1960795Y-20339653D01*
G01X2438092Y-20816951D01*
G01X2915389Y-21294248D01*
G01X2915389Y-21294248D01*
G01X2952575Y-21325880D01*
G01X2993254Y-21350483D01*
G01X3036554Y-21368057D01*
G01X3081601Y-21378601D01*
G01X3127521Y-21382115D01*
G01X3173442Y-21378601D01*
G01X3218489Y-21368057D01*
G01X3261789Y-21350483D01*
G01X3302468Y-21325880D01*
G01X3339653Y-21294248D01*
G01X3339653Y-21294248D01*
G01X3816951Y-20816951D01*
G37*
G36*
G01X20550547Y-8215547D02*
G01X20550547Y-8215547D01*
G01X20552621Y-8151441D01*
G01X20558757Y-8088441D01*
G01X20568827Y-8026678D01*
G01X20582702Y-7966278D01*
G01X20600253Y-7907372D01*
G01X20621353Y-7850086D01*
G01X20645873Y-7794550D01*
G01X20673684Y-7740892D01*
G01X20704657Y-7689241D01*
G01X20738666Y-7639725D01*
G01X20775580Y-7592472D01*
G01X20815271Y-7547611D01*
G01X20857611Y-7505271D01*
G01X20902472Y-7465580D01*
G01X20949725Y-7428666D01*
G01X20999241Y-7394657D01*
G01X21050892Y-7363684D01*
G01X21104550Y-7335873D01*
G01X21160086Y-7311353D01*
G01X21217372Y-7290253D01*
G01X21276278Y-7272702D01*
G01X21336678Y-7258827D01*
G01X21398441Y-7248757D01*
G01X21461441Y-7242621D01*
G01X21525547Y-7240547D01*
G01X21525547Y-7240547D01*
G01X21525547Y-7240547D01*
G01X21589654Y-7242621D01*
G01X21652653Y-7248757D01*
G01X21714416Y-7258827D01*
G01X21774816Y-7272702D01*
G01X21833723Y-7290253D01*
G01X21891008Y-7311353D01*
G01X21946544Y-7335873D01*
G01X22000202Y-7363684D01*
G01X22051853Y-7394657D01*
G01X22101369Y-7428666D01*
G01X22148622Y-7465580D01*
G01X22193483Y-7505271D01*
G01X22235823Y-7547611D01*
G01X22275515Y-7592472D01*
G01X22312429Y-7639725D01*
G01X22346437Y-7689241D01*
G01X22377411Y-7740892D01*
G01X22405222Y-7794550D01*
G01X22429741Y-7850086D01*
G01X22450841Y-7907372D01*
G01X22468393Y-7966278D01*
G01X22482268Y-8026678D01*
G01X22492337Y-8088441D01*
G01X22498473Y-8151441D01*
G01X22500547Y-8215547D01*
G01X22500547Y-8215547D01*
G01X22500547Y-8215547D01*
G01X22498473Y-8279654D01*
G01X22492337Y-8342653D01*
G01X22482268Y-8404416D01*
G01X22468393Y-8464816D01*
G01X22450841Y-8523723D01*
G01X22429741Y-8581008D01*
G01X22405222Y-8636544D01*
G01X22377411Y-8690202D01*
G01X22346437Y-8741853D01*
G01X22312429Y-8791369D01*
G01X22275515Y-8838622D01*
G01X22235823Y-8883483D01*
G01X22193483Y-8925823D01*
G01X22148622Y-8965515D01*
G01X22101369Y-9002429D01*
G01X22051853Y-9036437D01*
G01X22000202Y-9067411D01*
G01X21946544Y-9095222D01*
G01X21891008Y-9119741D01*
G01X21833723Y-9140841D01*
G01X21774816Y-9158393D01*
G01X21714416Y-9172268D01*
G01X21652653Y-9182337D01*
G01X21589654Y-9188473D01*
G01X21525547Y-9190547D01*
G01X21525547Y-9190547D01*
G01X21525547Y-9190547D01*
G01X21461441Y-9188473D01*
G01X21398441Y-9182337D01*
G01X21336678Y-9172268D01*
G01X21276278Y-9158393D01*
G01X21217372Y-9140841D01*
G01X21160086Y-9119741D01*
G01X21104550Y-9095222D01*
G01X21050892Y-9067411D01*
G01X20999241Y-9036437D01*
G01X20949725Y-9002429D01*
G01X20902472Y-8965515D01*
G01X20857611Y-8925823D01*
G01X20815271Y-8883483D01*
G01X20775580Y-8838622D01*
G01X20738666Y-8791369D01*
G01X20704657Y-8741853D01*
G01X20673684Y-8690202D01*
G01X20645873Y-8636544D01*
G01X20621353Y-8581008D01*
G01X20600253Y-8523723D01*
G01X20582702Y-8464816D01*
G01X20568827Y-8404416D01*
G01X20558757Y-8342653D01*
G01X20552621Y-8279654D01*
G01X20550547Y-8215547D01*
G01X20550547Y-8215547D01*
G37*
G36*
G01X20550547Y-16835547D02*
G01X20550547Y-16835547D01*
G01X20552621Y-16771441D01*
G01X20558757Y-16708441D01*
G01X20568827Y-16646678D01*
G01X20582702Y-16586278D01*
G01X20600253Y-16527372D01*
G01X20621353Y-16470086D01*
G01X20645873Y-16414550D01*
G01X20673684Y-16360892D01*
G01X20704657Y-16309241D01*
G01X20738666Y-16259725D01*
G01X20775580Y-16212472D01*
G01X20815271Y-16167611D01*
G01X20857611Y-16125271D01*
G01X20902472Y-16085580D01*
G01X20949725Y-16048666D01*
G01X20999241Y-16014657D01*
G01X21050892Y-15983684D01*
G01X21104550Y-15955873D01*
G01X21160086Y-15931353D01*
G01X21217372Y-15910253D01*
G01X21276278Y-15892702D01*
G01X21336678Y-15878827D01*
G01X21398441Y-15868757D01*
G01X21461441Y-15862621D01*
G01X21525547Y-15860547D01*
G01X21525547Y-15860547D01*
G01X21525547Y-15860547D01*
G01X21589654Y-15862621D01*
G01X21652653Y-15868757D01*
G01X21714416Y-15878827D01*
G01X21774816Y-15892702D01*
G01X21833723Y-15910253D01*
G01X21891008Y-15931353D01*
G01X21946544Y-15955873D01*
G01X22000202Y-15983684D01*
G01X22051853Y-16014657D01*
G01X22101369Y-16048666D01*
G01X22148622Y-16085580D01*
G01X22193483Y-16125271D01*
G01X22235823Y-16167611D01*
G01X22275515Y-16212472D01*
G01X22312429Y-16259725D01*
G01X22346437Y-16309241D01*
G01X22377411Y-16360892D01*
G01X22405222Y-16414550D01*
G01X22429741Y-16470086D01*
G01X22450841Y-16527372D01*
G01X22468393Y-16586278D01*
G01X22482268Y-16646678D01*
G01X22492337Y-16708441D01*
G01X22498473Y-16771441D01*
G01X22500547Y-16835547D01*
G01X22500547Y-16835547D01*
G01X22500547Y-16835547D01*
G01X22498473Y-16899654D01*
G01X22492337Y-16962653D01*
G01X22482268Y-17024417D01*
G01X22468393Y-17084816D01*
G01X22450841Y-17143723D01*
G01X22429741Y-17201008D01*
G01X22405222Y-17256544D01*
G01X22377411Y-17310202D01*
G01X22346437Y-17361853D01*
G01X22312429Y-17411369D01*
G01X22275515Y-17458622D01*
G01X22235823Y-17503483D01*
G01X22193483Y-17545823D01*
G01X22148622Y-17585515D01*
G01X22101369Y-17622429D01*
G01X22051853Y-17656437D01*
G01X22000202Y-17687411D01*
G01X21946544Y-17715222D01*
G01X21891008Y-17739741D01*
G01X21833723Y-17760841D01*
G01X21774816Y-17778393D01*
G01X21714416Y-17792268D01*
G01X21652653Y-17802337D01*
G01X21589654Y-17808473D01*
G01X21525547Y-17810547D01*
G01X21525547Y-17810547D01*
G01X21525547Y-17810547D01*
G01X21461441Y-17808473D01*
G01X21398441Y-17802337D01*
G01X21336678Y-17792268D01*
G01X21276278Y-17778393D01*
G01X21217372Y-17760841D01*
G01X21160086Y-17739741D01*
G01X21104550Y-17715222D01*
G01X21050892Y-17687411D01*
G01X20999241Y-17656437D01*
G01X20949725Y-17622429D01*
G01X20902472Y-17585515D01*
G01X20857611Y-17545823D01*
G01X20815271Y-17503483D01*
G01X20775580Y-17458622D01*
G01X20738666Y-17411369D01*
G01X20704657Y-17361853D01*
G01X20673684Y-17310202D01*
G01X20645873Y-17256544D01*
G01X20621353Y-17201008D01*
G01X20600253Y-17143723D01*
G01X20582702Y-17084816D01*
G01X20568827Y-17024417D01*
G01X20558757Y-16962653D01*
G01X20552621Y-16899654D01*
G01X20550547Y-16835547D01*
G01X20550547Y-16835547D01*
G37*
G36*
G01X14215547Y-22500547D02*
G01X14215547Y-22500547D01*
G01X14151441Y-22498473D01*
G01X14088441Y-22492337D01*
G01X14026678Y-22482268D01*
G01X13966278Y-22468393D01*
G01X13907372Y-22450841D01*
G01X13850086Y-22429741D01*
G01X13794550Y-22405222D01*
G01X13740892Y-22377411D01*
G01X13689241Y-22346437D01*
G01X13639725Y-22312429D01*
G01X13592472Y-22275515D01*
G01X13547611Y-22235823D01*
G01X13505271Y-22193483D01*
G01X13465580Y-22148622D01*
G01X13428666Y-22101369D01*
G01X13394657Y-22051853D01*
G01X13363684Y-22000202D01*
G01X13335873Y-21946544D01*
G01X13311353Y-21891008D01*
G01X13290253Y-21833723D01*
G01X13272702Y-21774816D01*
G01X13258827Y-21714416D01*
G01X13248757Y-21652653D01*
G01X13242621Y-21589654D01*
G01X13240547Y-21525547D01*
G01X13240547Y-21525547D01*
G01X13240547Y-21525547D01*
G01X13242621Y-21461441D01*
G01X13248757Y-21398441D01*
G01X13258827Y-21336678D01*
G01X13272702Y-21276278D01*
G01X13290253Y-21217372D01*
G01X13311353Y-21160086D01*
G01X13335873Y-21104550D01*
G01X13363684Y-21050892D01*
G01X13394657Y-20999241D01*
G01X13428666Y-20949725D01*
G01X13465580Y-20902472D01*
G01X13505271Y-20857611D01*
G01X13547611Y-20815271D01*
G01X13592472Y-20775580D01*
G01X13639725Y-20738666D01*
G01X13689241Y-20704657D01*
G01X13740892Y-20673684D01*
G01X13794550Y-20645873D01*
G01X13850086Y-20621353D01*
G01X13907372Y-20600253D01*
G01X13966278Y-20582702D01*
G01X14026678Y-20568827D01*
G01X14088441Y-20558757D01*
G01X14151441Y-20552621D01*
G01X14215547Y-20550547D01*
G01X14215547Y-20550547D01*
G01X14215547Y-20550547D01*
G01X14279654Y-20552621D01*
G01X14342653Y-20558757D01*
G01X14404416Y-20568827D01*
G01X14464816Y-20582702D01*
G01X14523723Y-20600253D01*
G01X14581008Y-20621353D01*
G01X14636544Y-20645873D01*
G01X14690202Y-20673684D01*
G01X14741853Y-20704657D01*
G01X14791369Y-20738666D01*
G01X14838622Y-20775580D01*
G01X14883483Y-20815271D01*
G01X14925823Y-20857611D01*
G01X14965515Y-20902472D01*
G01X15002429Y-20949725D01*
G01X15036437Y-20999241D01*
G01X15067411Y-21050892D01*
G01X15095222Y-21104550D01*
G01X15119741Y-21160086D01*
G01X15140841Y-21217372D01*
G01X15158393Y-21276278D01*
G01X15172268Y-21336678D01*
G01X15182337Y-21398441D01*
G01X15188473Y-21461441D01*
G01X15190547Y-21525547D01*
G01X15190547Y-21525547D01*
G01X15190547Y-21525547D01*
G01X15188473Y-21589654D01*
G01X15182337Y-21652653D01*
G01X15172268Y-21714416D01*
G01X15158393Y-21774816D01*
G01X15140841Y-21833723D01*
G01X15119741Y-21891008D01*
G01X15095222Y-21946544D01*
G01X15067411Y-22000202D01*
G01X15036437Y-22051853D01*
G01X15002429Y-22101369D01*
G01X14965515Y-22148622D01*
G01X14925823Y-22193483D01*
G01X14883483Y-22235823D01*
G01X14838622Y-22275515D01*
G01X14791369Y-22312429D01*
G01X14741853Y-22346437D01*
G01X14690202Y-22377411D01*
G01X14636544Y-22405222D01*
G01X14581008Y-22429741D01*
G01X14523723Y-22450841D01*
G01X14464816Y-22468393D01*
G01X14404416Y-22482268D01*
G01X14342653Y-22492337D01*
G01X14279654Y-22498473D01*
G01X14215547Y-22500547D01*
G01X14215547Y-22500547D01*
G37*
G36*
G01X22835547Y-22500547D02*
G01X22835547Y-22500547D01*
G01X22771441Y-22498473D01*
G01X22708441Y-22492337D01*
G01X22646678Y-22482268D01*
G01X22586278Y-22468393D01*
G01X22527372Y-22450841D01*
G01X22470086Y-22429741D01*
G01X22414550Y-22405222D01*
G01X22360892Y-22377411D01*
G01X22309241Y-22346437D01*
G01X22259725Y-22312429D01*
G01X22212472Y-22275515D01*
G01X22167611Y-22235823D01*
G01X22125271Y-22193483D01*
G01X22085580Y-22148622D01*
G01X22048666Y-22101369D01*
G01X22014657Y-22051853D01*
G01X21983684Y-22000202D01*
G01X21955873Y-21946544D01*
G01X21931353Y-21891008D01*
G01X21910253Y-21833723D01*
G01X21892702Y-21774816D01*
G01X21878827Y-21714416D01*
G01X21868757Y-21652653D01*
G01X21862621Y-21589654D01*
G01X21860547Y-21525547D01*
G01X21860547Y-21525547D01*
G01X21860547Y-21525547D01*
G01X21862621Y-21461441D01*
G01X21868757Y-21398441D01*
G01X21878827Y-21336678D01*
G01X21892702Y-21276278D01*
G01X21910253Y-21217372D01*
G01X21931353Y-21160086D01*
G01X21955873Y-21104550D01*
G01X21983684Y-21050892D01*
G01X22014657Y-20999241D01*
G01X22048666Y-20949725D01*
G01X22085580Y-20902472D01*
G01X22125271Y-20857611D01*
G01X22167611Y-20815271D01*
G01X22212472Y-20775580D01*
G01X22259725Y-20738666D01*
G01X22309241Y-20704657D01*
G01X22360892Y-20673684D01*
G01X22414550Y-20645873D01*
G01X22470086Y-20621353D01*
G01X22527372Y-20600253D01*
G01X22586278Y-20582702D01*
G01X22646678Y-20568827D01*
G01X22708441Y-20558757D01*
G01X22771441Y-20552621D01*
G01X22835547Y-20550547D01*
G01X22835547Y-20550547D01*
G01X22835547Y-20550547D01*
G01X22899654Y-20552621D01*
G01X22962653Y-20558757D01*
G01X23024417Y-20568827D01*
G01X23084816Y-20582702D01*
G01X23143723Y-20600253D01*
G01X23201008Y-20621353D01*
G01X23256544Y-20645873D01*
G01X23310202Y-20673684D01*
G01X23361853Y-20704657D01*
G01X23411369Y-20738666D01*
G01X23458622Y-20775580D01*
G01X23503483Y-20815271D01*
G01X23545823Y-20857611D01*
G01X23585515Y-20902472D01*
G01X23622429Y-20949725D01*
G01X23656437Y-20999241D01*
G01X23687411Y-21050892D01*
G01X23715222Y-21104550D01*
G01X23739741Y-21160086D01*
G01X23760841Y-21217372D01*
G01X23778393Y-21276278D01*
G01X23792268Y-21336678D01*
G01X23802337Y-21398441D01*
G01X23808473Y-21461441D01*
G01X23810547Y-21525547D01*
G01X23810547Y-21525547D01*
G01X23810547Y-21525547D01*
G01X23808473Y-21589654D01*
G01X23802337Y-21652653D01*
G01X23792268Y-21714416D01*
G01X23778393Y-21774816D01*
G01X23760841Y-21833723D01*
G01X23739741Y-21891008D01*
G01X23715222Y-21946544D01*
G01X23687411Y-22000202D01*
G01X23656437Y-22051853D01*
G01X23622429Y-22101369D01*
G01X23585515Y-22148622D01*
G01X23545823Y-22193483D01*
G01X23503483Y-22235823D01*
G01X23458622Y-22275515D01*
G01X23411369Y-22312429D01*
G01X23361853Y-22346437D01*
G01X23310202Y-22377411D01*
G01X23256544Y-22405222D01*
G01X23201008Y-22429741D01*
G01X23143723Y-22450841D01*
G01X23084816Y-22468393D01*
G01X23024417Y-22482268D01*
G01X22962653Y-22492337D01*
G01X22899654Y-22498473D01*
G01X22835547Y-22500547D01*
G01X22835547Y-22500547D01*
G37*
G36*
G01X2550547Y-5215547D02*
G01X2550547Y-5215547D01*
G01X2552621Y-5151441D01*
G01X2558757Y-5088441D01*
G01X2568827Y-5026678D01*
G01X2582702Y-4966278D01*
G01X2600253Y-4907372D01*
G01X2621353Y-4850086D01*
G01X2645873Y-4794550D01*
G01X2673684Y-4740892D01*
G01X2704657Y-4689241D01*
G01X2738666Y-4639725D01*
G01X2775580Y-4592472D01*
G01X2815271Y-4547611D01*
G01X2857611Y-4505271D01*
G01X2902472Y-4465580D01*
G01X2949725Y-4428666D01*
G01X2999241Y-4394657D01*
G01X3050892Y-4363684D01*
G01X3104550Y-4335873D01*
G01X3160086Y-4311353D01*
G01X3217372Y-4290253D01*
G01X3276278Y-4272702D01*
G01X3336678Y-4258827D01*
G01X3398441Y-4248757D01*
G01X3461441Y-4242621D01*
G01X3525547Y-4240547D01*
G01X3525547Y-4240547D01*
G01X3525547Y-4240547D01*
G01X3589654Y-4242621D01*
G01X3652653Y-4248757D01*
G01X3714417Y-4258827D01*
G01X3774816Y-4272702D01*
G01X3833723Y-4290253D01*
G01X3891008Y-4311353D01*
G01X3946544Y-4335873D01*
G01X4000202Y-4363684D01*
G01X4051853Y-4394657D01*
G01X4101369Y-4428666D01*
G01X4148622Y-4465580D01*
G01X4193483Y-4505271D01*
G01X4235823Y-4547611D01*
G01X4275515Y-4592472D01*
G01X4312429Y-4639725D01*
G01X4346437Y-4689241D01*
G01X4377411Y-4740892D01*
G01X4405222Y-4794550D01*
G01X4429741Y-4850086D01*
G01X4450841Y-4907372D01*
G01X4468393Y-4966278D01*
G01X4482268Y-5026678D01*
G01X4492337Y-5088441D01*
G01X4498473Y-5151441D01*
G01X4500547Y-5215547D01*
G01X4500547Y-5215547D01*
G01X4500547Y-5215547D01*
G01X4498473Y-5279654D01*
G01X4492337Y-5342653D01*
G01X4482268Y-5404416D01*
G01X4468393Y-5464816D01*
G01X4450841Y-5523723D01*
G01X4429741Y-5581008D01*
G01X4405222Y-5636544D01*
G01X4377411Y-5690202D01*
G01X4346437Y-5741853D01*
G01X4312429Y-5791369D01*
G01X4275515Y-5838622D01*
G01X4235823Y-5883483D01*
G01X4193483Y-5925823D01*
G01X4148622Y-5965515D01*
G01X4101369Y-6002429D01*
G01X4051853Y-6036437D01*
G01X4000202Y-6067411D01*
G01X3946544Y-6095222D01*
G01X3891008Y-6119741D01*
G01X3833723Y-6140841D01*
G01X3774816Y-6158393D01*
G01X3714417Y-6172268D01*
G01X3652653Y-6182337D01*
G01X3589654Y-6188473D01*
G01X3525547Y-6190547D01*
G01X3525547Y-6190547D01*
G01X3525547Y-6190547D01*
G01X3461441Y-6188473D01*
G01X3398441Y-6182337D01*
G01X3336678Y-6172268D01*
G01X3276278Y-6158393D01*
G01X3217372Y-6140841D01*
G01X3160086Y-6119741D01*
G01X3104550Y-6095222D01*
G01X3050892Y-6067411D01*
G01X2999241Y-6036437D01*
G01X2949725Y-6002429D01*
G01X2902472Y-5965515D01*
G01X2857611Y-5925823D01*
G01X2815271Y-5883483D01*
G01X2775580Y-5838622D01*
G01X2738666Y-5791369D01*
G01X2704657Y-5741853D01*
G01X2673684Y-5690202D01*
G01X2645873Y-5636544D01*
G01X2621353Y-5581008D01*
G01X2600253Y-5523723D01*
G01X2582702Y-5464816D01*
G01X2568827Y-5404416D01*
G01X2558757Y-5342653D01*
G01X2552621Y-5279654D01*
G01X2550547Y-5215547D01*
G01X2550547Y-5215547D01*
G37*
G36*
G01X2550547Y-13835547D02*
G01X2550547Y-13835547D01*
G01X2552621Y-13771441D01*
G01X2558757Y-13708441D01*
G01X2568827Y-13646678D01*
G01X2582702Y-13586278D01*
G01X2600253Y-13527372D01*
G01X2621353Y-13470086D01*
G01X2645873Y-13414550D01*
G01X2673684Y-13360892D01*
G01X2704657Y-13309241D01*
G01X2738666Y-13259725D01*
G01X2775580Y-13212472D01*
G01X2815271Y-13167611D01*
G01X2857611Y-13125271D01*
G01X2902472Y-13085580D01*
G01X2949725Y-13048666D01*
G01X2999241Y-13014657D01*
G01X3050892Y-12983684D01*
G01X3104550Y-12955873D01*
G01X3160086Y-12931353D01*
G01X3217372Y-12910253D01*
G01X3276278Y-12892702D01*
G01X3336678Y-12878827D01*
G01X3398441Y-12868757D01*
G01X3461441Y-12862621D01*
G01X3525547Y-12860547D01*
G01X3525547Y-12860547D01*
G01X3525547Y-12860547D01*
G01X3589654Y-12862621D01*
G01X3652653Y-12868757D01*
G01X3714417Y-12878827D01*
G01X3774816Y-12892702D01*
G01X3833723Y-12910253D01*
G01X3891008Y-12931353D01*
G01X3946544Y-12955873D01*
G01X4000202Y-12983684D01*
G01X4051853Y-13014657D01*
G01X4101369Y-13048666D01*
G01X4148622Y-13085580D01*
G01X4193483Y-13125271D01*
G01X4235823Y-13167611D01*
G01X4275515Y-13212472D01*
G01X4312429Y-13259725D01*
G01X4346437Y-13309241D01*
G01X4377411Y-13360892D01*
G01X4405222Y-13414550D01*
G01X4429741Y-13470086D01*
G01X4450841Y-13527372D01*
G01X4468393Y-13586278D01*
G01X4482268Y-13646678D01*
G01X4492337Y-13708441D01*
G01X4498473Y-13771441D01*
G01X4500547Y-13835547D01*
G01X4500547Y-13835547D01*
G01X4500547Y-13835547D01*
G01X4498473Y-13899654D01*
G01X4492337Y-13962653D01*
G01X4482268Y-14024416D01*
G01X4468393Y-14084816D01*
G01X4450841Y-14143723D01*
G01X4429741Y-14201008D01*
G01X4405222Y-14256544D01*
G01X4377411Y-14310202D01*
G01X4346437Y-14361853D01*
G01X4312429Y-14411369D01*
G01X4275515Y-14458622D01*
G01X4235823Y-14503483D01*
G01X4193483Y-14545823D01*
G01X4148622Y-14585515D01*
G01X4101369Y-14622429D01*
G01X4051853Y-14656437D01*
G01X4000202Y-14687411D01*
G01X3946544Y-14715222D01*
G01X3891008Y-14739741D01*
G01X3833723Y-14760841D01*
G01X3774816Y-14778393D01*
G01X3714417Y-14792268D01*
G01X3652653Y-14802337D01*
G01X3589654Y-14808473D01*
G01X3525547Y-14810547D01*
G01X3525547Y-14810547D01*
G01X3525547Y-14810547D01*
G01X3461441Y-14808473D01*
G01X3398441Y-14802337D01*
G01X3336678Y-14792268D01*
G01X3276278Y-14778393D01*
G01X3217372Y-14760841D01*
G01X3160086Y-14739741D01*
G01X3104550Y-14715222D01*
G01X3050892Y-14687411D01*
G01X2999241Y-14656437D01*
G01X2949725Y-14622429D01*
G01X2902472Y-14585515D01*
G01X2857611Y-14545823D01*
G01X2815271Y-14503483D01*
G01X2775580Y-14458622D01*
G01X2738666Y-14411369D01*
G01X2704657Y-14361853D01*
G01X2673684Y-14310202D01*
G01X2645873Y-14256544D01*
G01X2621353Y-14201008D01*
G01X2600253Y-14143723D01*
G01X2582702Y-14084816D01*
G01X2568827Y-14024416D01*
G01X2558757Y-13962653D01*
G01X2552621Y-13899654D01*
G01X2550547Y-13835547D01*
G01X2550547Y-13835547D01*
G37*
G36*
G01X11255547Y-2800547D02*
G01X11255547Y-2800547D01*
G01X11204591Y-2798899D01*
G01X11154514Y-2794021D01*
G01X11105420Y-2786017D01*
G01X11057410Y-2774988D01*
G01X11010587Y-2761037D01*
G01X10965053Y-2744265D01*
G01X10920909Y-2724775D01*
G01X10878257Y-2702669D01*
G01X10837201Y-2678049D01*
G01X10797842Y-2651017D01*
G01X10760282Y-2621675D01*
G01X10724624Y-2590126D01*
G01X10690969Y-2556471D01*
G01X10659419Y-2520812D01*
G01X10630077Y-2483252D01*
G01X10603045Y-2443893D01*
G01X10578425Y-2402837D01*
G01X10556319Y-2360186D01*
G01X10536829Y-2316042D01*
G01X10520057Y-2270507D01*
G01X10506106Y-2223684D01*
G01X10495077Y-2175674D01*
G01X10487073Y-2126580D01*
G01X10482196Y-2076504D01*
G01X10480547Y-2025547D01*
G01X10480547Y-2025547D01*
G01X10480547Y-2025547D01*
G01X10482196Y-1974591D01*
G01X10487073Y-1924514D01*
G01X10495077Y-1875420D01*
G01X10506106Y-1827410D01*
G01X10520057Y-1780587D01*
G01X10536829Y-1735053D01*
G01X10556319Y-1690909D01*
G01X10578425Y-1648257D01*
G01X10603045Y-1607201D01*
G01X10630077Y-1567842D01*
G01X10659419Y-1530282D01*
G01X10690969Y-1494624D01*
G01X10724624Y-1460969D01*
G01X10760282Y-1429419D01*
G01X10797842Y-1400077D01*
G01X10837201Y-1373045D01*
G01X10878257Y-1348425D01*
G01X10920909Y-1326319D01*
G01X10965053Y-1306829D01*
G01X11010587Y-1290057D01*
G01X11057410Y-1276106D01*
G01X11105420Y-1265077D01*
G01X11154514Y-1257073D01*
G01X11204591Y-1252196D01*
G01X11255547Y-1250547D01*
G01X11255547Y-1250547D01*
G01X11255547Y-1250547D01*
G01X11306504Y-1252196D01*
G01X11356580Y-1257073D01*
G01X11405674Y-1265077D01*
G01X11453684Y-1276106D01*
G01X11500507Y-1290057D01*
G01X11546042Y-1306829D01*
G01X11590186Y-1326319D01*
G01X11632837Y-1348425D01*
G01X11673893Y-1373045D01*
G01X11713252Y-1400077D01*
G01X11750812Y-1429419D01*
G01X11786471Y-1460969D01*
G01X11820126Y-1494624D01*
G01X11851675Y-1530282D01*
G01X11881017Y-1567842D01*
G01X11908049Y-1607201D01*
G01X11932669Y-1648257D01*
G01X11954775Y-1690909D01*
G01X11974265Y-1735053D01*
G01X11991037Y-1780587D01*
G01X12004988Y-1827410D01*
G01X12016017Y-1875420D01*
G01X12024021Y-1924514D01*
G01X12028899Y-1974591D01*
G01X12030547Y-2025547D01*
G01X12030547Y-2025547D01*
G01X12030547Y-2025547D01*
G01X12028899Y-2076504D01*
G01X12024021Y-2126580D01*
G01X12016017Y-2175674D01*
G01X12004988Y-2223684D01*
G01X11991037Y-2270507D01*
G01X11974265Y-2316042D01*
G01X11954775Y-2360186D01*
G01X11932669Y-2402837D01*
G01X11908049Y-2443893D01*
G01X11881017Y-2483252D01*
G01X11851675Y-2520812D01*
G01X11820126Y-2556471D01*
G01X11786471Y-2590126D01*
G01X11750812Y-2621675D01*
G01X11713252Y-2651017D01*
G01X11673893Y-2678049D01*
G01X11632837Y-2702669D01*
G01X11590186Y-2724775D01*
G01X11546042Y-2744265D01*
G01X11500507Y-2761037D01*
G01X11453684Y-2774988D01*
G01X11405674Y-2786017D01*
G01X11356580Y-2794021D01*
G01X11306504Y-2798899D01*
G01X11255547Y-2800547D01*
G01X11255547Y-2800547D01*
G37*
G36*
G01X13795547Y-2800547D02*
G01X13795547Y-2800547D01*
G01X13744591Y-2798899D01*
G01X13694514Y-2794021D01*
G01X13645420Y-2786017D01*
G01X13597410Y-2774988D01*
G01X13550587Y-2761037D01*
G01X13505053Y-2744265D01*
G01X13460909Y-2724775D01*
G01X13418257Y-2702669D01*
G01X13377201Y-2678049D01*
G01X13337842Y-2651017D01*
G01X13300282Y-2621675D01*
G01X13264624Y-2590126D01*
G01X13230969Y-2556471D01*
G01X13199419Y-2520812D01*
G01X13170077Y-2483252D01*
G01X13143045Y-2443893D01*
G01X13118425Y-2402837D01*
G01X13096319Y-2360186D01*
G01X13076829Y-2316042D01*
G01X13060057Y-2270507D01*
G01X13046106Y-2223684D01*
G01X13035077Y-2175674D01*
G01X13027073Y-2126580D01*
G01X13022196Y-2076504D01*
G01X13020547Y-2025547D01*
G01X13020547Y-2025547D01*
G01X13020547Y-2025547D01*
G01X13022196Y-1974591D01*
G01X13027073Y-1924514D01*
G01X13035077Y-1875420D01*
G01X13046106Y-1827410D01*
G01X13060057Y-1780587D01*
G01X13076829Y-1735053D01*
G01X13096319Y-1690909D01*
G01X13118425Y-1648257D01*
G01X13143045Y-1607201D01*
G01X13170077Y-1567842D01*
G01X13199419Y-1530282D01*
G01X13230969Y-1494624D01*
G01X13264624Y-1460969D01*
G01X13300282Y-1429419D01*
G01X13337842Y-1400077D01*
G01X13377201Y-1373045D01*
G01X13418257Y-1348425D01*
G01X13460909Y-1326319D01*
G01X13505053Y-1306829D01*
G01X13550587Y-1290057D01*
G01X13597410Y-1276106D01*
G01X13645420Y-1265077D01*
G01X13694514Y-1257073D01*
G01X13744591Y-1252196D01*
G01X13795547Y-1250547D01*
G01X13795547Y-1250547D01*
G01X13795547Y-1250547D01*
G01X13846504Y-1252196D01*
G01X13896580Y-1257073D01*
G01X13945674Y-1265077D01*
G01X13993684Y-1276106D01*
G01X14040507Y-1290057D01*
G01X14086042Y-1306829D01*
G01X14130186Y-1326319D01*
G01X14172837Y-1348425D01*
G01X14213893Y-1373045D01*
G01X14253252Y-1400077D01*
G01X14290812Y-1429419D01*
G01X14326471Y-1460969D01*
G01X14360126Y-1494624D01*
G01X14391675Y-1530282D01*
G01X14421017Y-1567842D01*
G01X14448049Y-1607201D01*
G01X14472669Y-1648257D01*
G01X14494775Y-1690909D01*
G01X14514265Y-1735053D01*
G01X14531037Y-1780587D01*
G01X14544988Y-1827410D01*
G01X14556017Y-1875420D01*
G01X14564021Y-1924514D01*
G01X14568899Y-1974591D01*
G01X14570547Y-2025547D01*
G01X14570547Y-2025547D01*
G01X14570547Y-2025547D01*
G01X14568899Y-2076504D01*
G01X14564021Y-2126580D01*
G01X14556017Y-2175674D01*
G01X14544988Y-2223684D01*
G01X14531037Y-2270507D01*
G01X14514265Y-2316042D01*
G01X14494775Y-2360186D01*
G01X14472669Y-2402837D01*
G01X14448049Y-2443893D01*
G01X14421017Y-2483252D01*
G01X14391675Y-2520812D01*
G01X14360126Y-2556471D01*
G01X14326471Y-2590126D01*
G01X14290812Y-2621675D01*
G01X14253252Y-2651017D01*
G01X14213893Y-2678049D01*
G01X14172837Y-2702669D01*
G01X14130186Y-2724775D01*
G01X14086042Y-2744265D01*
G01X14040507Y-2761037D01*
G01X13993684Y-2774988D01*
G01X13945674Y-2786017D01*
G01X13896580Y-2794021D01*
G01X13846504Y-2798899D01*
G01X13795547Y-2800547D01*
G01X13795547Y-2800547D01*
G37*
G36*
G01X15681488Y-6369606D02*
G01X15681488Y-6369606D01*
G01X15646622Y-6332409D01*
G01X15614661Y-6293551D01*
G01X15585606Y-6253176D01*
G01X15559457Y-6211430D01*
G01X15536213Y-6168456D01*
G01X15515874Y-6124398D01*
G01X15498441Y-6079402D01*
G01X15483914Y-6033612D01*
G01X15472292Y-5987172D01*
G01X15463575Y-5940226D01*
G01X15457764Y-5892920D01*
G01X15454859Y-5845396D01*
G01X15454859Y-5797801D01*
G01X15457764Y-5750278D01*
G01X15463575Y-5702971D01*
G01X15472292Y-5656025D01*
G01X15483914Y-5609585D01*
G01X15498441Y-5563795D01*
G01X15515874Y-5518799D01*
G01X15536213Y-5474741D01*
G01X15559457Y-5431767D01*
G01X15585606Y-5390021D01*
G01X15614661Y-5349646D01*
G01X15646622Y-5310788D01*
G01X15681488Y-5273591D01*
G01X15681488Y-5273591D01*
G01X15681488Y-5273591D01*
G01X15718685Y-5238725D01*
G01X15757543Y-5206764D01*
G01X15797918Y-5177709D01*
G01X15839664Y-5151560D01*
G01X15882639Y-5128316D01*
G01X15926696Y-5107977D01*
G01X15971692Y-5090544D01*
G01X16017482Y-5076017D01*
G01X16063922Y-5064395D01*
G01X16110868Y-5055678D01*
G01X16158175Y-5049867D01*
G01X16205698Y-5046962D01*
G01X16253293Y-5046962D01*
G01X16300817Y-5049867D01*
G01X16348123Y-5055678D01*
G01X16395069Y-5064395D01*
G01X16441509Y-5076017D01*
G01X16487300Y-5090544D01*
G01X16532296Y-5107977D01*
G01X16576353Y-5128316D01*
G01X16619327Y-5151560D01*
G01X16661073Y-5177709D01*
G01X16701448Y-5206764D01*
G01X16740306Y-5238725D01*
G01X16777503Y-5273591D01*
G01X16777503Y-5273591D01*
G01X16777503Y-5273591D01*
G01X16812369Y-5310788D01*
G01X16844330Y-5349646D01*
G01X16873385Y-5390021D01*
G01X16899534Y-5431767D01*
G01X16922778Y-5474742D01*
G01X16943117Y-5518799D01*
G01X16960550Y-5563795D01*
G01X16975077Y-5609585D01*
G01X16986700Y-5656025D01*
G01X16995416Y-5702971D01*
G01X17001227Y-5750278D01*
G01X17004133Y-5797801D01*
G01X17004133Y-5845396D01*
G01X17001227Y-5892920D01*
G01X16995416Y-5940226D01*
G01X16986700Y-5987172D01*
G01X16975077Y-6033612D01*
G01X16960550Y-6079403D01*
G01X16943117Y-6124398D01*
G01X16922778Y-6168456D01*
G01X16899534Y-6211430D01*
G01X16873385Y-6253176D01*
G01X16844330Y-6293551D01*
G01X16812369Y-6332409D01*
G01X16777503Y-6369606D01*
G01X16777503Y-6369606D01*
G01X16777503Y-6369606D01*
G01X16740306Y-6404472D01*
G01X16701448Y-6436433D01*
G01X16661073Y-6465488D01*
G01X16619327Y-6491637D01*
G01X16576353Y-6514881D01*
G01X16532296Y-6535220D01*
G01X16487300Y-6552653D01*
G01X16441509Y-6567180D01*
G01X16395069Y-6578802D01*
G01X16348123Y-6587519D01*
G01X16300817Y-6593330D01*
G01X16253293Y-6596235D01*
G01X16205698Y-6596235D01*
G01X16158175Y-6593330D01*
G01X16110868Y-6587519D01*
G01X16063922Y-6578802D01*
G01X16017482Y-6567180D01*
G01X15971692Y-6552653D01*
G01X15926696Y-6535220D01*
G01X15882639Y-6514881D01*
G01X15839664Y-6491637D01*
G01X15797918Y-6465488D01*
G01X15757543Y-6436433D01*
G01X15718685Y-6404472D01*
G01X15681488Y-6369606D01*
G01X15681488Y-6369606D01*
G37*
G36*
G01X19273590Y-2777504D02*
G01X19273590Y-2777504D01*
G01X19238724Y-2740307D01*
G01X19206764Y-2701448D01*
G01X19177709Y-2661074D01*
G01X19151559Y-2619327D01*
G01X19128315Y-2576353D01*
G01X19107977Y-2532296D01*
G01X19090544Y-2487300D01*
G01X19076016Y-2441510D01*
G01X19064394Y-2395070D01*
G01X19055678Y-2348124D01*
G01X19049867Y-2300817D01*
G01X19046961Y-2253294D01*
G01X19046961Y-2205698D01*
G01X19049867Y-2158175D01*
G01X19055678Y-2110868D01*
G01X19064394Y-2063923D01*
G01X19076016Y-2017483D01*
G01X19090544Y-1971692D01*
G01X19107977Y-1926696D01*
G01X19128315Y-1882639D01*
G01X19151559Y-1839665D01*
G01X19177709Y-1797918D01*
G01X19206764Y-1757544D01*
G01X19238724Y-1718686D01*
G01X19273590Y-1681488D01*
G01X19273590Y-1681488D01*
G01X19273590Y-1681488D01*
G01X19310788Y-1646622D01*
G01X19349646Y-1614662D01*
G01X19390020Y-1585607D01*
G01X19431767Y-1559457D01*
G01X19474741Y-1536213D01*
G01X19518798Y-1515875D01*
G01X19563794Y-1498442D01*
G01X19609585Y-1483914D01*
G01X19656025Y-1472292D01*
G01X19702970Y-1463576D01*
G01X19750277Y-1457765D01*
G01X19797800Y-1454859D01*
G01X19845396Y-1454859D01*
G01X19892919Y-1457765D01*
G01X19940226Y-1463576D01*
G01X19987172Y-1472292D01*
G01X20033612Y-1483914D01*
G01X20079402Y-1498442D01*
G01X20124398Y-1515875D01*
G01X20168455Y-1536213D01*
G01X20211429Y-1559457D01*
G01X20253176Y-1585607D01*
G01X20293550Y-1614662D01*
G01X20332409Y-1646622D01*
G01X20369606Y-1681488D01*
G01X20369606Y-1681488D01*
G01X20369606Y-1681488D01*
G01X20404472Y-1718686D01*
G01X20436432Y-1757544D01*
G01X20465487Y-1797918D01*
G01X20491637Y-1839665D01*
G01X20514881Y-1882639D01*
G01X20535219Y-1926696D01*
G01X20552652Y-1971692D01*
G01X20567180Y-2017483D01*
G01X20578802Y-2063923D01*
G01X20587518Y-2110868D01*
G01X20593329Y-2158175D01*
G01X20596235Y-2205698D01*
G01X20596235Y-2253294D01*
G01X20593329Y-2300817D01*
G01X20587518Y-2348124D01*
G01X20578802Y-2395070D01*
G01X20567180Y-2441510D01*
G01X20552652Y-2487300D01*
G01X20535219Y-2532296D01*
G01X20514881Y-2576353D01*
G01X20491637Y-2619327D01*
G01X20465487Y-2661074D01*
G01X20436432Y-2701448D01*
G01X20404472Y-2740307D01*
G01X20369606Y-2777504D01*
G01X20369606Y-2777504D01*
G01X20369606Y-2777504D01*
G01X20332409Y-2812370D01*
G01X20293550Y-2844330D01*
G01X20253176Y-2873385D01*
G01X20211429Y-2899535D01*
G01X20168455Y-2922779D01*
G01X20124398Y-2943117D01*
G01X20079402Y-2960550D01*
G01X20033612Y-2975078D01*
G01X19987172Y-2986700D01*
G01X19940226Y-2995416D01*
G01X19892919Y-3001227D01*
G01X19845396Y-3004133D01*
G01X19797800Y-3004133D01*
G01X19750277Y-3001227D01*
G01X19702970Y-2995416D01*
G01X19656025Y-2986700D01*
G01X19609585Y-2975078D01*
G01X19563794Y-2960550D01*
G01X19518798Y-2943117D01*
G01X19474741Y-2922779D01*
G01X19431767Y-2899535D01*
G01X19390020Y-2873385D01*
G01X19349646Y-2844330D01*
G01X19310788Y-2812370D01*
G01X19273590Y-2777504D01*
G01X19273590Y-2777504D01*
G37*
G36*
G01X8715547Y-15560547D02*
G01X8190547Y-15560547D01*
G01X8190547Y-15560547D01*
G01X8138213Y-15566033D01*
G01X8089661Y-15581739D01*
G01X8046021Y-15606532D01*
G01X8008425Y-15639282D01*
G01X7978003Y-15678858D01*
G01X7955886Y-15724130D01*
G01X7943204Y-15773966D01*
G01X7940547Y-15810547D01*
G01X7940547Y-16335547D01*
G01X7940547Y-16860547D01*
G01X7940547Y-16860547D01*
G01X7946033Y-16912881D01*
G01X7961739Y-16961433D01*
G01X7986532Y-17005073D01*
G01X8019282Y-17042669D01*
G01X8058858Y-17073091D01*
G01X8104130Y-17095209D01*
G01X8153966Y-17107890D01*
G01X8190547Y-17110547D01*
G01X8715547Y-17110547D01*
G01X9240547Y-17110547D01*
G01X9240547Y-17110547D01*
G01X9292881Y-17105061D01*
G01X9341433Y-17089356D01*
G01X9385073Y-17064563D01*
G01X9422669Y-17031813D01*
G01X9453091Y-16992236D01*
G01X9475209Y-16946965D01*
G01X9487890Y-16897129D01*
G01X9490547Y-16860547D01*
G01X9490547Y-16335547D01*
G01X9490547Y-15810547D01*
G01X9490547Y-15810547D01*
G01X9485061Y-15758213D01*
G01X9469356Y-15709661D01*
G01X9444563Y-15666021D01*
G01X9411813Y-15628425D01*
G01X9372236Y-15598003D01*
G01X9326965Y-15575886D01*
G01X9277129Y-15563204D01*
G01X9240547Y-15560547D01*
G01X8715547Y-15560547D01*
G37*
G36*
G01X7940547Y-11255547D02*
G01X7940547Y-11255547D01*
G01X7942196Y-11204591D01*
G01X7947073Y-11154514D01*
G01X7955077Y-11105420D01*
G01X7966106Y-11057410D01*
G01X7980057Y-11010587D01*
G01X7996829Y-10965053D01*
G01X8016319Y-10920909D01*
G01X8038425Y-10878257D01*
G01X8063045Y-10837201D01*
G01X8090077Y-10797842D01*
G01X8119419Y-10760282D01*
G01X8150969Y-10724624D01*
G01X8184624Y-10690969D01*
G01X8220282Y-10659419D01*
G01X8257842Y-10630077D01*
G01X8297201Y-10603045D01*
G01X8338257Y-10578425D01*
G01X8380909Y-10556319D01*
G01X8425053Y-10536829D01*
G01X8470587Y-10520057D01*
G01X8517410Y-10506106D01*
G01X8565420Y-10495077D01*
G01X8614514Y-10487073D01*
G01X8664591Y-10482196D01*
G01X8715547Y-10480547D01*
G01X8715547Y-10480547D01*
G01X8715547Y-10480547D01*
G01X8766504Y-10482196D01*
G01X8816580Y-10487073D01*
G01X8865674Y-10495077D01*
G01X8913684Y-10506106D01*
G01X8960507Y-10520057D01*
G01X9006042Y-10536829D01*
G01X9050186Y-10556319D01*
G01X9092837Y-10578425D01*
G01X9133893Y-10603045D01*
G01X9173252Y-10630077D01*
G01X9210812Y-10659419D01*
G01X9246471Y-10690969D01*
G01X9280126Y-10724624D01*
G01X9311675Y-10760282D01*
G01X9341017Y-10797842D01*
G01X9368049Y-10837201D01*
G01X9392669Y-10878257D01*
G01X9414775Y-10920909D01*
G01X9434265Y-10965053D01*
G01X9451037Y-11010587D01*
G01X9464988Y-11057410D01*
G01X9476017Y-11105420D01*
G01X9484021Y-11154514D01*
G01X9488899Y-11204591D01*
G01X9490547Y-11255547D01*
G01X9490547Y-11255547D01*
G01X9490547Y-11255547D01*
G01X9488899Y-11306504D01*
G01X9484021Y-11356580D01*
G01X9476017Y-11405674D01*
G01X9464988Y-11453684D01*
G01X9451037Y-11500507D01*
G01X9434265Y-11546042D01*
G01X9414775Y-11590186D01*
G01X9392669Y-11632837D01*
G01X9368049Y-11673893D01*
G01X9341017Y-11713252D01*
G01X9311675Y-11750812D01*
G01X9280126Y-11786471D01*
G01X9246471Y-11820126D01*
G01X9210812Y-11851675D01*
G01X9173252Y-11881017D01*
G01X9133893Y-11908049D01*
G01X9092837Y-11932669D01*
G01X9050186Y-11954775D01*
G01X9006042Y-11974265D01*
G01X8960507Y-11991037D01*
G01X8913684Y-12004988D01*
G01X8865674Y-12016017D01*
G01X8816580Y-12024021D01*
G01X8766504Y-12028899D01*
G01X8715547Y-12030547D01*
G01X8715547Y-12030547D01*
G01X8715547Y-12030547D01*
G01X8664591Y-12028899D01*
G01X8614514Y-12024021D01*
G01X8565420Y-12016017D01*
G01X8517410Y-12004988D01*
G01X8470587Y-11991037D01*
G01X8425053Y-11974265D01*
G01X8380909Y-11954775D01*
G01X8338257Y-11932669D01*
G01X8297201Y-11908049D01*
G01X8257842Y-11881017D01*
G01X8220282Y-11851675D01*
G01X8184624Y-11820126D01*
G01X8150969Y-11786471D01*
G01X8119419Y-11750812D01*
G01X8090077Y-11713252D01*
G01X8063045Y-11673893D01*
G01X8038425Y-11632837D01*
G01X8016319Y-11590186D01*
G01X7996829Y-11546042D01*
G01X7980057Y-11500507D01*
G01X7966106Y-11453684D01*
G01X7955077Y-11405674D01*
G01X7947073Y-11356580D01*
G01X7942196Y-11306504D01*
G01X7940547Y-11255547D01*
G01X7940547Y-11255547D01*
G37*
G36*
G01X7940547Y-13795547D02*
G01X7940547Y-13795547D01*
G01X7942196Y-13744591D01*
G01X7947073Y-13694514D01*
G01X7955077Y-13645420D01*
G01X7966106Y-13597410D01*
G01X7980057Y-13550587D01*
G01X7996829Y-13505053D01*
G01X8016319Y-13460909D01*
G01X8038425Y-13418257D01*
G01X8063045Y-13377201D01*
G01X8090077Y-13337842D01*
G01X8119419Y-13300282D01*
G01X8150969Y-13264624D01*
G01X8184624Y-13230969D01*
G01X8220282Y-13199419D01*
G01X8257842Y-13170077D01*
G01X8297201Y-13143045D01*
G01X8338257Y-13118425D01*
G01X8380909Y-13096319D01*
G01X8425053Y-13076829D01*
G01X8470587Y-13060057D01*
G01X8517410Y-13046106D01*
G01X8565420Y-13035077D01*
G01X8614514Y-13027073D01*
G01X8664591Y-13022196D01*
G01X8715547Y-13020547D01*
G01X8715547Y-13020547D01*
G01X8715547Y-13020547D01*
G01X8766504Y-13022196D01*
G01X8816580Y-13027073D01*
G01X8865674Y-13035077D01*
G01X8913684Y-13046106D01*
G01X8960507Y-13060057D01*
G01X9006042Y-13076829D01*
G01X9050186Y-13096319D01*
G01X9092837Y-13118425D01*
G01X9133893Y-13143045D01*
G01X9173252Y-13170077D01*
G01X9210812Y-13199419D01*
G01X9246471Y-13230969D01*
G01X9280126Y-13264624D01*
G01X9311675Y-13300282D01*
G01X9341017Y-13337842D01*
G01X9368049Y-13377201D01*
G01X9392669Y-13418257D01*
G01X9414775Y-13460909D01*
G01X9434265Y-13505053D01*
G01X9451037Y-13550587D01*
G01X9464988Y-13597410D01*
G01X9476017Y-13645420D01*
G01X9484021Y-13694514D01*
G01X9488899Y-13744591D01*
G01X9490547Y-13795547D01*
G01X9490547Y-13795547D01*
G01X9490547Y-13795547D01*
G01X9488899Y-13846504D01*
G01X9484021Y-13896580D01*
G01X9476017Y-13945674D01*
G01X9464988Y-13993684D01*
G01X9451037Y-14040507D01*
G01X9434265Y-14086042D01*
G01X9414775Y-14130186D01*
G01X9392669Y-14172837D01*
G01X9368049Y-14213893D01*
G01X9341017Y-14253252D01*
G01X9311675Y-14290812D01*
G01X9280126Y-14326471D01*
G01X9246471Y-14360126D01*
G01X9210812Y-14391675D01*
G01X9173252Y-14421017D01*
G01X9133893Y-14448049D01*
G01X9092837Y-14472669D01*
G01X9050186Y-14494775D01*
G01X9006042Y-14514265D01*
G01X8960507Y-14531037D01*
G01X8913684Y-14544988D01*
G01X8865674Y-14556017D01*
G01X8816580Y-14564021D01*
G01X8766504Y-14568899D01*
G01X8715547Y-14570547D01*
G01X8715547Y-14570547D01*
G01X8715547Y-14570547D01*
G01X8664591Y-14568899D01*
G01X8614514Y-14564021D01*
G01X8565420Y-14556017D01*
G01X8517410Y-14544988D01*
G01X8470587Y-14531037D01*
G01X8425053Y-14514265D01*
G01X8380909Y-14494775D01*
G01X8338257Y-14472669D01*
G01X8297201Y-14448049D01*
G01X8257842Y-14421017D01*
G01X8220282Y-14391675D01*
G01X8184624Y-14360126D01*
G01X8150969Y-14326471D01*
G01X8119419Y-14290812D01*
G01X8090077Y-14253252D01*
G01X8063045Y-14213893D01*
G01X8038425Y-14172837D01*
G01X8016319Y-14130186D01*
G01X7996829Y-14086042D01*
G01X7980057Y-14040507D01*
G01X7966106Y-13993684D01*
G01X7955077Y-13945674D01*
G01X7947073Y-13896580D01*
G01X7942196Y-13846504D01*
G01X7940547Y-13795547D01*
G01X7940547Y-13795547D01*
G37*
G36*
G01X15560547Y-8715547D02*
G01X15560547Y-8715547D01*
G01X15562196Y-8664591D01*
G01X15567073Y-8614514D01*
G01X15575077Y-8565420D01*
G01X15586106Y-8517410D01*
G01X15600057Y-8470587D01*
G01X15616829Y-8425053D01*
G01X15636319Y-8380909D01*
G01X15658425Y-8338257D01*
G01X15683045Y-8297201D01*
G01X15710077Y-8257842D01*
G01X15739419Y-8220282D01*
G01X15770969Y-8184624D01*
G01X15804624Y-8150969D01*
G01X15840282Y-8119419D01*
G01X15877842Y-8090077D01*
G01X15917201Y-8063045D01*
G01X15958257Y-8038425D01*
G01X16000909Y-8016319D01*
G01X16045053Y-7996829D01*
G01X16090587Y-7980057D01*
G01X16137410Y-7966106D01*
G01X16185420Y-7955077D01*
G01X16234514Y-7947073D01*
G01X16284591Y-7942196D01*
G01X16335547Y-7940547D01*
G01X16335547Y-7940547D01*
G01X16335547Y-7940547D01*
G01X16386504Y-7942196D01*
G01X16436580Y-7947073D01*
G01X16485674Y-7955077D01*
G01X16533684Y-7966106D01*
G01X16580507Y-7980057D01*
G01X16626042Y-7996829D01*
G01X16670186Y-8016319D01*
G01X16712837Y-8038425D01*
G01X16753893Y-8063045D01*
G01X16793252Y-8090077D01*
G01X16830812Y-8119419D01*
G01X16866471Y-8150969D01*
G01X16900126Y-8184624D01*
G01X16931675Y-8220282D01*
G01X16961017Y-8257842D01*
G01X16988049Y-8297201D01*
G01X17012669Y-8338257D01*
G01X17034775Y-8380909D01*
G01X17054265Y-8425053D01*
G01X17071037Y-8470587D01*
G01X17084988Y-8517410D01*
G01X17096017Y-8565420D01*
G01X17104021Y-8614514D01*
G01X17108899Y-8664591D01*
G01X17110547Y-8715547D01*
G01X17110547Y-8715547D01*
G01X17110547Y-8715547D01*
G01X17108899Y-8766504D01*
G01X17104021Y-8816580D01*
G01X17096017Y-8865674D01*
G01X17084988Y-8913684D01*
G01X17071037Y-8960507D01*
G01X17054265Y-9006042D01*
G01X17034775Y-9050186D01*
G01X17012669Y-9092837D01*
G01X16988049Y-9133893D01*
G01X16961017Y-9173252D01*
G01X16931675Y-9210812D01*
G01X16900126Y-9246471D01*
G01X16866471Y-9280126D01*
G01X16830812Y-9311675D01*
G01X16793252Y-9341017D01*
G01X16753893Y-9368049D01*
G01X16712837Y-9392669D01*
G01X16670186Y-9414775D01*
G01X16626042Y-9434265D01*
G01X16580507Y-9451037D01*
G01X16533684Y-9464988D01*
G01X16485674Y-9476017D01*
G01X16436580Y-9484021D01*
G01X16386504Y-9488899D01*
G01X16335547Y-9490547D01*
G01X16335547Y-9490547D01*
G01X16335547Y-9490547D01*
G01X16284591Y-9488899D01*
G01X16234514Y-9484021D01*
G01X16185420Y-9476017D01*
G01X16137410Y-9464988D01*
G01X16090587Y-9451037D01*
G01X16045053Y-9434265D01*
G01X16000909Y-9414775D01*
G01X15958257Y-9392669D01*
G01X15917201Y-9368049D01*
G01X15877842Y-9341017D01*
G01X15840282Y-9311675D01*
G01X15804624Y-9280126D01*
G01X15770969Y-9246471D01*
G01X15739419Y-9210812D01*
G01X15710077Y-9173252D01*
G01X15683045Y-9133893D01*
G01X15658425Y-9092837D01*
G01X15636319Y-9050186D01*
G01X15616829Y-9006042D01*
G01X15600057Y-8960507D01*
G01X15586106Y-8913684D01*
G01X15575077Y-8865674D01*
G01X15567073Y-8816580D01*
G01X15562196Y-8766504D01*
G01X15560547Y-8715547D01*
G01X15560547Y-8715547D01*
G37*
G36*
G01X7940547Y-8715547D02*
G01X7940547Y-8715547D01*
G01X7942196Y-8664591D01*
G01X7947073Y-8614514D01*
G01X7955077Y-8565420D01*
G01X7966106Y-8517410D01*
G01X7980057Y-8470587D01*
G01X7996829Y-8425053D01*
G01X8016319Y-8380909D01*
G01X8038425Y-8338257D01*
G01X8063045Y-8297201D01*
G01X8090077Y-8257842D01*
G01X8119419Y-8220282D01*
G01X8150969Y-8184624D01*
G01X8184624Y-8150969D01*
G01X8220282Y-8119419D01*
G01X8257842Y-8090077D01*
G01X8297201Y-8063045D01*
G01X8338257Y-8038425D01*
G01X8380909Y-8016319D01*
G01X8425053Y-7996829D01*
G01X8470587Y-7980057D01*
G01X8517410Y-7966106D01*
G01X8565420Y-7955077D01*
G01X8614514Y-7947073D01*
G01X8664591Y-7942196D01*
G01X8715547Y-7940547D01*
G01X8715547Y-7940547D01*
G01X8715547Y-7940547D01*
G01X8766504Y-7942196D01*
G01X8816580Y-7947073D01*
G01X8865674Y-7955077D01*
G01X8913684Y-7966106D01*
G01X8960507Y-7980057D01*
G01X9006042Y-7996829D01*
G01X9050186Y-8016319D01*
G01X9092837Y-8038425D01*
G01X9133893Y-8063045D01*
G01X9173252Y-8090077D01*
G01X9210812Y-8119419D01*
G01X9246471Y-8150969D01*
G01X9280126Y-8184624D01*
G01X9311675Y-8220282D01*
G01X9341017Y-8257842D01*
G01X9368049Y-8297201D01*
G01X9392669Y-8338257D01*
G01X9414775Y-8380909D01*
G01X9434265Y-8425053D01*
G01X9451037Y-8470587D01*
G01X9464988Y-8517410D01*
G01X9476017Y-8565420D01*
G01X9484021Y-8614514D01*
G01X9488899Y-8664591D01*
G01X9490547Y-8715547D01*
G01X9490547Y-8715547D01*
G01X9490547Y-8715547D01*
G01X9488899Y-8766504D01*
G01X9484021Y-8816580D01*
G01X9476017Y-8865674D01*
G01X9464988Y-8913684D01*
G01X9451037Y-8960507D01*
G01X9434265Y-9006042D01*
G01X9414775Y-9050186D01*
G01X9392669Y-9092837D01*
G01X9368049Y-9133893D01*
G01X9341017Y-9173252D01*
G01X9311675Y-9210812D01*
G01X9280126Y-9246471D01*
G01X9246471Y-9280126D01*
G01X9210812Y-9311675D01*
G01X9173252Y-9341017D01*
G01X9133893Y-9368049D01*
G01X9092837Y-9392669D01*
G01X9050186Y-9414775D01*
G01X9006042Y-9434265D01*
G01X8960507Y-9451037D01*
G01X8913684Y-9464988D01*
G01X8865674Y-9476017D01*
G01X8816580Y-9484021D01*
G01X8766504Y-9488899D01*
G01X8715547Y-9490547D01*
G01X8715547Y-9490547D01*
G01X8715547Y-9490547D01*
G01X8664591Y-9488899D01*
G01X8614514Y-9484021D01*
G01X8565420Y-9476017D01*
G01X8517410Y-9464988D01*
G01X8470587Y-9451037D01*
G01X8425053Y-9434265D01*
G01X8380909Y-9414775D01*
G01X8338257Y-9392669D01*
G01X8297201Y-9368049D01*
G01X8257842Y-9341017D01*
G01X8220282Y-9311675D01*
G01X8184624Y-9280126D01*
G01X8150969Y-9246471D01*
G01X8119419Y-9210812D01*
G01X8090077Y-9173252D01*
G01X8063045Y-9133893D01*
G01X8038425Y-9092837D01*
G01X8016319Y-9050186D01*
G01X7996829Y-9006042D01*
G01X7980057Y-8960507D01*
G01X7966106Y-8913684D01*
G01X7955077Y-8865674D01*
G01X7947073Y-8816580D01*
G01X7942196Y-8766504D01*
G01X7940547Y-8715547D01*
G01X7940547Y-8715547D01*
G37*
G36*
G01X15560547Y-13795547D02*
G01X15560547Y-13795547D01*
G01X15562196Y-13744591D01*
G01X15567073Y-13694514D01*
G01X15575077Y-13645420D01*
G01X15586106Y-13597410D01*
G01X15600057Y-13550587D01*
G01X15616829Y-13505053D01*
G01X15636319Y-13460909D01*
G01X15658425Y-13418257D01*
G01X15683045Y-13377201D01*
G01X15710077Y-13337842D01*
G01X15739419Y-13300282D01*
G01X15770969Y-13264624D01*
G01X15804624Y-13230969D01*
G01X15840282Y-13199419D01*
G01X15877842Y-13170077D01*
G01X15917201Y-13143045D01*
G01X15958257Y-13118425D01*
G01X16000909Y-13096319D01*
G01X16045053Y-13076829D01*
G01X16090587Y-13060057D01*
G01X16137410Y-13046106D01*
G01X16185420Y-13035077D01*
G01X16234514Y-13027073D01*
G01X16284591Y-13022196D01*
G01X16335547Y-13020547D01*
G01X16335547Y-13020547D01*
G01X16335547Y-13020547D01*
G01X16386504Y-13022196D01*
G01X16436580Y-13027073D01*
G01X16485674Y-13035077D01*
G01X16533684Y-13046106D01*
G01X16580507Y-13060057D01*
G01X16626042Y-13076829D01*
G01X16670186Y-13096319D01*
G01X16712837Y-13118425D01*
G01X16753893Y-13143045D01*
G01X16793252Y-13170077D01*
G01X16830812Y-13199419D01*
G01X16866471Y-13230969D01*
G01X16900126Y-13264624D01*
G01X16931675Y-13300282D01*
G01X16961017Y-13337842D01*
G01X16988049Y-13377201D01*
G01X17012669Y-13418257D01*
G01X17034775Y-13460909D01*
G01X17054265Y-13505053D01*
G01X17071037Y-13550587D01*
G01X17084988Y-13597410D01*
G01X17096017Y-13645420D01*
G01X17104021Y-13694514D01*
G01X17108899Y-13744591D01*
G01X17110547Y-13795547D01*
G01X17110547Y-13795547D01*
G01X17110547Y-13795547D01*
G01X17108899Y-13846504D01*
G01X17104021Y-13896580D01*
G01X17096017Y-13945674D01*
G01X17084988Y-13993684D01*
G01X17071037Y-14040507D01*
G01X17054265Y-14086042D01*
G01X17034775Y-14130186D01*
G01X17012669Y-14172837D01*
G01X16988049Y-14213893D01*
G01X16961017Y-14253252D01*
G01X16931675Y-14290812D01*
G01X16900126Y-14326471D01*
G01X16866471Y-14360126D01*
G01X16830812Y-14391675D01*
G01X16793252Y-14421017D01*
G01X16753893Y-14448049D01*
G01X16712837Y-14472669D01*
G01X16670186Y-14494775D01*
G01X16626042Y-14514265D01*
G01X16580507Y-14531037D01*
G01X16533684Y-14544988D01*
G01X16485674Y-14556017D01*
G01X16436580Y-14564021D01*
G01X16386504Y-14568899D01*
G01X16335547Y-14570547D01*
G01X16335547Y-14570547D01*
G01X16335547Y-14570547D01*
G01X16284591Y-14568899D01*
G01X16234514Y-14564021D01*
G01X16185420Y-14556017D01*
G01X16137410Y-14544988D01*
G01X16090587Y-14531037D01*
G01X16045053Y-14514265D01*
G01X16000909Y-14494775D01*
G01X15958257Y-14472669D01*
G01X15917201Y-14448049D01*
G01X15877842Y-14421017D01*
G01X15840282Y-14391675D01*
G01X15804624Y-14360126D01*
G01X15770969Y-14326471D01*
G01X15739419Y-14290812D01*
G01X15710077Y-14253252D01*
G01X15683045Y-14213893D01*
G01X15658425Y-14172837D01*
G01X15636319Y-14130186D01*
G01X15616829Y-14086042D01*
G01X15600057Y-14040507D01*
G01X15586106Y-13993684D01*
G01X15575077Y-13945674D01*
G01X15567073Y-13896580D01*
G01X15562196Y-13846504D01*
G01X15560547Y-13795547D01*
G01X15560547Y-13795547D01*
G37*
G36*
G01X15560547Y-11255547D02*
G01X15560547Y-11255547D01*
G01X15562196Y-11204591D01*
G01X15567073Y-11154514D01*
G01X15575077Y-11105420D01*
G01X15586106Y-11057410D01*
G01X15600057Y-11010587D01*
G01X15616829Y-10965053D01*
G01X15636319Y-10920909D01*
G01X15658425Y-10878257D01*
G01X15683045Y-10837201D01*
G01X15710077Y-10797842D01*
G01X15739419Y-10760282D01*
G01X15770969Y-10724624D01*
G01X15804624Y-10690969D01*
G01X15840282Y-10659419D01*
G01X15877842Y-10630077D01*
G01X15917201Y-10603045D01*
G01X15958257Y-10578425D01*
G01X16000909Y-10556319D01*
G01X16045053Y-10536829D01*
G01X16090587Y-10520057D01*
G01X16137410Y-10506106D01*
G01X16185420Y-10495077D01*
G01X16234514Y-10487073D01*
G01X16284591Y-10482196D01*
G01X16335547Y-10480547D01*
G01X16335547Y-10480547D01*
G01X16335547Y-10480547D01*
G01X16386504Y-10482196D01*
G01X16436580Y-10487073D01*
G01X16485674Y-10495077D01*
G01X16533684Y-10506106D01*
G01X16580507Y-10520057D01*
G01X16626042Y-10536829D01*
G01X16670186Y-10556319D01*
G01X16712837Y-10578425D01*
G01X16753893Y-10603045D01*
G01X16793252Y-10630077D01*
G01X16830812Y-10659419D01*
G01X16866471Y-10690969D01*
G01X16900126Y-10724624D01*
G01X16931675Y-10760282D01*
G01X16961017Y-10797842D01*
G01X16988049Y-10837201D01*
G01X17012669Y-10878257D01*
G01X17034775Y-10920909D01*
G01X17054265Y-10965053D01*
G01X17071037Y-11010587D01*
G01X17084988Y-11057410D01*
G01X17096017Y-11105420D01*
G01X17104021Y-11154514D01*
G01X17108899Y-11204591D01*
G01X17110547Y-11255547D01*
G01X17110547Y-11255547D01*
G01X17110547Y-11255547D01*
G01X17108899Y-11306504D01*
G01X17104021Y-11356580D01*
G01X17096017Y-11405674D01*
G01X17084988Y-11453684D01*
G01X17071037Y-11500507D01*
G01X17054265Y-11546042D01*
G01X17034775Y-11590186D01*
G01X17012669Y-11632837D01*
G01X16988049Y-11673893D01*
G01X16961017Y-11713252D01*
G01X16931675Y-11750812D01*
G01X16900126Y-11786471D01*
G01X16866471Y-11820126D01*
G01X16830812Y-11851675D01*
G01X16793252Y-11881017D01*
G01X16753893Y-11908049D01*
G01X16712837Y-11932669D01*
G01X16670186Y-11954775D01*
G01X16626042Y-11974265D01*
G01X16580507Y-11991037D01*
G01X16533684Y-12004988D01*
G01X16485674Y-12016017D01*
G01X16436580Y-12024021D01*
G01X16386504Y-12028899D01*
G01X16335547Y-12030547D01*
G01X16335547Y-12030547D01*
G01X16335547Y-12030547D01*
G01X16284591Y-12028899D01*
G01X16234514Y-12024021D01*
G01X16185420Y-12016017D01*
G01X16137410Y-12004988D01*
G01X16090587Y-11991037D01*
G01X16045053Y-11974265D01*
G01X16000909Y-11954775D01*
G01X15958257Y-11932669D01*
G01X15917201Y-11908049D01*
G01X15877842Y-11881017D01*
G01X15840282Y-11851675D01*
G01X15804624Y-11820126D01*
G01X15770969Y-11786471D01*
G01X15739419Y-11750812D01*
G01X15710077Y-11713252D01*
G01X15683045Y-11673893D01*
G01X15658425Y-11632837D01*
G01X15636319Y-11590186D01*
G01X15616829Y-11546042D01*
G01X15600057Y-11500507D01*
G01X15586106Y-11453684D01*
G01X15575077Y-11405674D01*
G01X15567073Y-11356580D01*
G01X15562196Y-11306504D01*
G01X15560547Y-11255547D01*
G01X15560547Y-11255547D01*
G37*
G36*
G01X15560547Y-16335547D02*
G01X15560547Y-16335547D01*
G01X15562196Y-16284591D01*
G01X15567073Y-16234514D01*
G01X15575077Y-16185420D01*
G01X15586106Y-16137410D01*
G01X15600057Y-16090587D01*
G01X15616829Y-16045053D01*
G01X15636319Y-16000909D01*
G01X15658425Y-15958257D01*
G01X15683045Y-15917201D01*
G01X15710077Y-15877842D01*
G01X15739419Y-15840282D01*
G01X15770969Y-15804624D01*
G01X15804624Y-15770969D01*
G01X15840282Y-15739419D01*
G01X15877842Y-15710077D01*
G01X15917201Y-15683045D01*
G01X15958257Y-15658425D01*
G01X16000909Y-15636319D01*
G01X16045053Y-15616829D01*
G01X16090587Y-15600057D01*
G01X16137410Y-15586106D01*
G01X16185420Y-15575077D01*
G01X16234514Y-15567073D01*
G01X16284591Y-15562196D01*
G01X16335547Y-15560547D01*
G01X16335547Y-15560547D01*
G01X16335547Y-15560547D01*
G01X16386504Y-15562196D01*
G01X16436580Y-15567073D01*
G01X16485674Y-15575077D01*
G01X16533684Y-15586106D01*
G01X16580507Y-15600057D01*
G01X16626042Y-15616829D01*
G01X16670186Y-15636319D01*
G01X16712837Y-15658425D01*
G01X16753893Y-15683045D01*
G01X16793252Y-15710077D01*
G01X16830812Y-15739419D01*
G01X16866471Y-15770969D01*
G01X16900126Y-15804624D01*
G01X16931675Y-15840282D01*
G01X16961017Y-15877842D01*
G01X16988049Y-15917201D01*
G01X17012669Y-15958257D01*
G01X17034775Y-16000909D01*
G01X17054265Y-16045053D01*
G01X17071037Y-16090587D01*
G01X17084988Y-16137410D01*
G01X17096017Y-16185420D01*
G01X17104021Y-16234514D01*
G01X17108899Y-16284591D01*
G01X17110547Y-16335547D01*
G01X17110547Y-16335547D01*
G01X17110547Y-16335547D01*
G01X17108899Y-16386504D01*
G01X17104021Y-16436580D01*
G01X17096017Y-16485674D01*
G01X17084988Y-16533684D01*
G01X17071037Y-16580507D01*
G01X17054265Y-16626042D01*
G01X17034775Y-16670186D01*
G01X17012669Y-16712837D01*
G01X16988049Y-16753893D01*
G01X16961017Y-16793252D01*
G01X16931675Y-16830812D01*
G01X16900126Y-16866471D01*
G01X16866471Y-16900126D01*
G01X16830812Y-16931675D01*
G01X16793252Y-16961017D01*
G01X16753893Y-16988049D01*
G01X16712837Y-17012669D01*
G01X16670186Y-17034775D01*
G01X16626042Y-17054265D01*
G01X16580507Y-17071037D01*
G01X16533684Y-17084988D01*
G01X16485674Y-17096017D01*
G01X16436580Y-17104021D01*
G01X16386504Y-17108899D01*
G01X16335547Y-17110547D01*
G01X16335547Y-17110547D01*
G01X16335547Y-17110547D01*
G01X16284591Y-17108899D01*
G01X16234514Y-17104021D01*
G01X16185420Y-17096017D01*
G01X16137410Y-17084988D01*
G01X16090587Y-17071037D01*
G01X16045053Y-17054265D01*
G01X16000909Y-17034775D01*
G01X15958257Y-17012669D01*
G01X15917201Y-16988049D01*
G01X15877842Y-16961017D01*
G01X15840282Y-16931675D01*
G01X15804624Y-16900126D01*
G01X15770969Y-16866471D01*
G01X15739419Y-16830812D01*
G01X15710077Y-16793252D01*
G01X15683045Y-16753893D01*
G01X15658425Y-16712837D01*
G01X15636319Y-16670186D01*
G01X15616829Y-16626042D01*
G01X15600057Y-16580507D01*
G01X15586106Y-16533684D01*
G01X15575077Y-16485674D01*
G01X15567073Y-16436580D01*
G01X15562196Y-16386504D01*
G01X15560547Y-16335547D01*
G01X15560547Y-16335547D01*
G37*
G36*
G01X11479542Y-22043646D02*
G01X11838027Y-21531676D01*
G01X11838027Y-21531676D01*
G01X11858958Y-21488452D01*
G01X11865132Y-21442508D01*
G01X11857158Y-21397286D01*
G01X11835642Y-21356225D01*
G01X11801191Y-21322766D01*
G01X11801191Y-21322766D01*
G01X11289221Y-20964281D01*
G01X10777251Y-20605796D01*
G01X10777251Y-20605796D01*
G01X10734027Y-20584866D01*
G01X10688084Y-20578691D01*
G01X10642861Y-20586665D01*
G01X10601800Y-20608181D01*
G01X10568342Y-20642632D01*
G01X10568342Y-20642632D01*
G01X10209857Y-21154602D01*
G01X9851371Y-21666572D01*
G01X9851371Y-21666572D01*
G01X9830441Y-21709796D01*
G01X9824266Y-21755739D01*
G01X9832240Y-21800962D01*
G01X9853756Y-21842023D01*
G01X9888208Y-21875481D01*
G01X9888208Y-21875481D01*
G01X10400178Y-22233967D01*
G01X10912148Y-22592452D01*
G01X10912148Y-22592452D01*
G01X10955371Y-22613382D01*
G01X11001315Y-22619557D01*
G01X11046538Y-22611583D01*
G01X11087599Y-22590067D01*
G01X11121057Y-22555616D01*
G01X11121057Y-22555616D01*
G01X11479542Y-22043646D01*
G37*
G36*
G01X8761873Y-21086814D02*
G01X8761873Y-21086814D01*
G01X8721078Y-21056236D01*
G01X8682855Y-21023518D01*
G01X8647230Y-20988802D01*
G01X8614229Y-20952231D01*
G01X8583876Y-20913946D01*
G01X8556196Y-20874090D01*
G01X8531214Y-20832804D01*
G01X8508956Y-20790232D01*
G01X8489446Y-20746516D01*
G01X8472710Y-20701797D01*
G01X8458773Y-20656218D01*
G01X8447659Y-20609921D01*
G01X8439394Y-20563049D01*
G01X8434003Y-20515743D01*
G01X8431511Y-20468146D01*
G01X8431943Y-20420400D01*
G01X8435324Y-20372647D01*
G01X8441680Y-20325030D01*
G01X8451034Y-20277690D01*
G01X8463413Y-20230771D01*
G01X8478842Y-20184413D01*
G01X8497345Y-20138760D01*
G01X8518948Y-20093953D01*
G01X8543675Y-20050136D01*
G01X8571552Y-20007449D01*
G01X8571552Y-20007449D01*
G01X8571552Y-20007449D01*
G01X8602130Y-19966654D01*
G01X8634848Y-19928431D01*
G01X8669564Y-19892806D01*
G01X8706135Y-19859805D01*
G01X8744420Y-19829452D01*
G01X8784276Y-19801772D01*
G01X8825561Y-19776790D01*
G01X8868133Y-19754532D01*
G01X8911850Y-19735022D01*
G01X8956569Y-19718286D01*
G01X9002148Y-19704349D01*
G01X9048444Y-19693235D01*
G01X9095317Y-19684970D01*
G01X9142623Y-19679579D01*
G01X9190220Y-19677087D01*
G01X9237966Y-19677519D01*
G01X9285719Y-19680900D01*
G01X9333336Y-19687256D01*
G01X9380675Y-19696610D01*
G01X9427595Y-19708990D01*
G01X9473953Y-19724418D01*
G01X9519606Y-19742921D01*
G01X9564412Y-19764524D01*
G01X9608230Y-19789251D01*
G01X9650917Y-19817128D01*
G01X9650917Y-19817128D01*
G01X9650917Y-19817128D01*
G01X9691712Y-19847706D01*
G01X9729935Y-19880424D01*
G01X9765559Y-19915140D01*
G01X9798561Y-19951711D01*
G01X9828914Y-19989996D01*
G01X9856594Y-20029852D01*
G01X9881576Y-20071137D01*
G01X9903834Y-20113709D01*
G01X9923343Y-20157426D01*
G01X9940080Y-20202145D01*
G01X9954017Y-20247724D01*
G01X9965131Y-20294020D01*
G01X9973396Y-20340893D01*
G01X9978787Y-20388199D01*
G01X9981279Y-20435796D01*
G01X9980847Y-20483542D01*
G01X9977465Y-20531295D01*
G01X9971110Y-20578912D01*
G01X9961755Y-20626251D01*
G01X9949376Y-20673171D01*
G01X9933948Y-20719529D01*
G01X9915445Y-20765182D01*
G01X9893842Y-20809988D01*
G01X9869115Y-20853806D01*
G01X9841238Y-20896493D01*
G01X9841238Y-20896493D01*
G01X9841238Y-20896493D01*
G01X9810660Y-20937288D01*
G01X9777942Y-20975511D01*
G01X9743226Y-21011135D01*
G01X9706655Y-21044137D01*
G01X9668370Y-21074490D01*
G01X9628514Y-21102170D01*
G01X9587228Y-21127152D01*
G01X9544656Y-21149410D01*
G01X9500940Y-21168920D01*
G01X9456221Y-21185656D01*
G01X9410642Y-21199593D01*
G01X9364345Y-21210707D01*
G01X9317473Y-21218972D01*
G01X9270167Y-21224363D01*
G01X9222570Y-21226855D01*
G01X9174824Y-21226423D01*
G01X9127071Y-21223041D01*
G01X9079454Y-21216686D01*
G01X9032114Y-21207331D01*
G01X8985195Y-21194952D01*
G01X8938837Y-21179524D01*
G01X8893184Y-21161021D01*
G01X8848377Y-21139418D01*
G01X8804560Y-21114691D01*
G01X8761873Y-21086814D01*
G01X8761873Y-21086814D01*
G37*
G36*
G01X26451094Y-10275000D02*
G01X27651094Y-10275000D01*
G01X27651094Y-11475000D01*
G01X26451094Y-11475000D01*
G01X26451094Y-10275000D01*
G37*
G36*
G01X27901095Y-10426758D02*
G01X27901095Y-10426758D01*
G01X27944454Y-10423242D01*
G01X27944454Y-10423242D01*
G01X27995845Y-10455441D01*
G01X27998360Y-10468945D01*
G01X27998360Y-10468945D01*
G01X27998077Y-10514271D01*
G01X27997535Y-10584544D01*
G01X27997194Y-10626774D01*
G01X27997188Y-10627442D01*
G01X27997188Y-10627442D01*
G01X27996454Y-10724262D01*
G01X27996116Y-10780763D01*
G01X27996021Y-10805552D01*
G01X27996016Y-10808789D01*
G01X27996016Y-10808789D01*
G01X28064696Y-10770803D01*
G01X28126047Y-10751985D01*
G01X28168699Y-10745602D01*
G01X28181759Y-10744922D01*
G01X28181759Y-10744922D01*
G01X28255945Y-10759603D01*
G01X28307288Y-10788966D01*
G01X28332083Y-10810988D01*
G01X28333809Y-10812891D01*
G01X28333809Y-10812891D01*
G01X28366518Y-10870499D01*
G01X28383913Y-10934369D01*
G01X28390830Y-10987879D01*
G01X28392106Y-11014408D01*
G01X28392110Y-11015039D01*
G01X28392110Y-11015039D01*
G01X28384052Y-11095456D01*
G01X28365416Y-11160638D01*
G01X28344514Y-11207513D01*
G01X28329656Y-11233014D01*
G01X28327071Y-11236817D01*
G01X28327071Y-11236817D01*
G01X28272807Y-11287276D01*
G01X28213618Y-11314111D01*
G01X28164425Y-11324784D01*
G01X28140147Y-11326752D01*
G01X28139571Y-11326758D01*
G01X28139571Y-11326758D01*
G01X28061802Y-11317491D01*
G01X27996844Y-11295725D01*
G01X27948050Y-11270511D01*
G01X27918774Y-11250900D01*
G01X27911641Y-11245313D01*
G01X27911641Y-11245313D01*
G01X27915706Y-11190825D01*
G01X27918279Y-11123428D01*
G01X27919699Y-11057494D01*
G01X27920304Y-11007394D01*
G01X27920430Y-10987500D01*
G01X27920430Y-10987500D01*
G01X27920430Y-10987500D01*
G01X27919958Y-10926138D01*
G01X27918780Y-10856754D01*
G01X27917262Y-10788244D01*
G01X27915765Y-10729502D01*
G01X27914652Y-10689425D01*
G01X27914278Y-10676660D01*
G01X27914278Y-10676660D01*
G01X27910545Y-10572258D01*
G01X27906980Y-10500481D01*
G01X27903963Y-10455914D01*
G01X27901875Y-10433145D01*
G01X27901095Y-10426758D01*
G01X27901095Y-10426758D01*
G37*
%LPC*%
G36*
G01X27994845Y-11197266D02*
G01X27994845Y-11197266D01*
G01X28059776Y-11238198D01*
G01X28116260Y-11255780D01*
G01X28148254Y-11259883D01*
G01X28150704Y-11259961D01*
G01X28150704Y-11259961D01*
G01X28219061Y-11240481D01*
G01X28258218Y-11205755D01*
G01X28268770Y-11190820D01*
G01X28268770Y-11190820D01*
G01X28294370Y-11124892D01*
G01X28305241Y-11064595D01*
G01X28307696Y-11029485D01*
G01X28307735Y-11026758D01*
G01X28307735Y-11026758D01*
G01X28298433Y-10944408D01*
G01X28279828Y-10891294D01*
G01X28265875Y-10867226D01*
G01X28264669Y-10865625D01*
G01X28264669Y-10865625D01*
G01X28206613Y-10823256D01*
G01X28162378Y-10812616D01*
G01X28156563Y-10812305D01*
G01X28154805Y-10812305D01*
G01X28154805Y-10812305D01*
G01X28085466Y-10825184D01*
G01X28031167Y-10851474D01*
G01X28000739Y-10872656D01*
G01X27997188Y-10875586D01*
G01X27997188Y-10875586D01*
G01X27997609Y-10934427D01*
G01X27997774Y-10952637D01*
G01X27997774Y-10952637D01*
G01X27998287Y-11026575D01*
G01X27998360Y-11053711D01*
G01X27998360Y-11053711D01*
G01X27998360Y-11053711D01*
G01X27997370Y-11136787D01*
G01X27995604Y-11184420D01*
G01X27994845Y-11197266D01*
G37*
%LPD*%
G36*
G01X28492306Y-11036719D02*
G01X28492306Y-11036719D01*
G01X28501235Y-10957536D01*
G01X28521885Y-10895209D01*
G01X28545047Y-10851534D01*
G01X28561511Y-10828309D01*
G01X28564376Y-10824903D01*
G01X28564376Y-10824903D01*
G01X28621734Y-10780032D01*
G01X28681117Y-10756168D01*
G01X28729160Y-10746678D01*
G01X28752498Y-10744927D01*
G01X28753048Y-10744922D01*
G01X28753048Y-10744922D01*
G01X28829540Y-10756531D01*
G01X28887998Y-10782514D01*
G01X28926282Y-10809603D01*
G01X28942256Y-10824529D01*
G01X28942598Y-10824903D01*
G01X28942598Y-10824903D01*
G01X28980314Y-10883263D01*
G01X29001771Y-10944947D01*
G01X29011555Y-10998218D01*
G01X29014252Y-11031341D01*
G01X29014376Y-11036719D01*
G01X29014376Y-11036719D01*
G01X29004731Y-11118996D01*
G01X28982785Y-11182610D01*
G01X28959015Y-11225637D01*
G01X28943903Y-11246151D01*
G01X28942598Y-11247656D01*
G01X28942598Y-11247656D01*
G01X28885235Y-11292034D01*
G01X28825558Y-11315636D01*
G01X28777153Y-11325022D01*
G01X28753603Y-11326753D01*
G01X28753048Y-11326758D01*
G01X28753048Y-11326758D01*
G01X28677170Y-11315276D01*
G01X28618967Y-11289579D01*
G01X28580722Y-11262788D01*
G01X28564720Y-11248026D01*
G01X28564376Y-11247656D01*
G01X28564376Y-11247656D01*
G01X28526507Y-11189758D01*
G01X28504962Y-11128337D01*
G01X28495138Y-11075185D01*
G01X28492430Y-11042095D01*
G01X28492306Y-11036719D01*
G37*
%LPC*%
G36*
G01X28576680Y-11019727D02*
G01X28576680Y-11019727D01*
G01X28585591Y-11097475D01*
G01X28604144Y-11154485D01*
G01X28620067Y-11186281D01*
G01X28623263Y-11191406D01*
G01X28623263Y-11191406D01*
G01X28677037Y-11239342D01*
G01X28728902Y-11257267D01*
G01X28753023Y-11259961D01*
G01X28753048Y-11259961D01*
G01X28753048Y-11259961D01*
G01X28827033Y-11244113D01*
G01X28871324Y-11215861D01*
G01X28883712Y-11203711D01*
G01X28883712Y-11203711D01*
G01X28915848Y-11142492D01*
G01X28928400Y-11084038D01*
G01X28930584Y-11054153D01*
G01X28930587Y-11053711D01*
G01X28930587Y-11053711D01*
G01X28921396Y-10975851D01*
G01X28902260Y-10918608D01*
G01X28885836Y-10886611D01*
G01X28882540Y-10881445D01*
G01X28882540Y-10881445D01*
G01X28828189Y-10833100D01*
G01X28776779Y-10815022D01*
G01X28753072Y-10812305D01*
G01X28753048Y-10812305D01*
G01X28753048Y-10812305D01*
G01X28679227Y-10828318D01*
G01X28635230Y-10856864D01*
G01X28622970Y-10869141D01*
G01X28622970Y-10869141D01*
G01X28591235Y-10930762D01*
G01X28578840Y-10989373D01*
G01X28576683Y-11019285D01*
G01X28576680Y-11019727D01*
G37*
%LPD*%
G36*
G01X29068282Y-10800000D02*
G01X29068282Y-10800000D01*
G01X29086153Y-10764844D01*
G01X29086153Y-10764844D01*
G01X29143160Y-10757279D01*
G01X29147384Y-10757227D01*
G01X29181368Y-10757227D01*
G01X29181368Y-10757227D01*
G01X29177877Y-10678459D01*
G01X29174549Y-10631480D01*
G01X29173751Y-10622461D01*
G01X29173751Y-10622461D01*
G01X29213595Y-10618945D01*
G01X29213595Y-10618945D01*
G01X29267866Y-10649866D01*
G01X29271016Y-10664649D01*
G01X29271016Y-10664649D01*
G01X29268392Y-10722961D01*
G01X29266329Y-10758399D01*
G01X29266329Y-10758399D01*
G01X29362093Y-10757392D01*
G01X29424239Y-10755176D01*
G01X29457821Y-10752960D01*
G01X29467891Y-10751953D01*
G01X29467891Y-10751953D01*
G01X29467891Y-10751953D01*
G01X29472579Y-10780078D01*
G01X29472579Y-10780078D01*
G01X29459981Y-10812305D01*
G01X29459981Y-10812305D01*
G01X29419845Y-10821680D01*
G01X29419845Y-10821680D01*
G01X29361900Y-10822499D01*
G01X29296397Y-10822806D01*
G01X29264019Y-10822852D01*
G01X29263985Y-10822852D01*
G01X29263985Y-10822852D01*
G01X29262887Y-10897049D01*
G01X29262200Y-10967726D01*
G01X29261828Y-11028446D01*
G01X29261674Y-11072770D01*
G01X29261642Y-11094260D01*
G01X29261641Y-11095313D01*
G01X29261641Y-11095313D01*
G01X29268567Y-11181013D01*
G01X29280595Y-11222473D01*
G01X29285079Y-11230957D01*
G01X29285079Y-11230957D01*
G01X29340147Y-11261067D01*
G01X29362423Y-11263477D01*
G01X29362423Y-11263477D01*
G01X29427059Y-11243680D01*
G01X29448555Y-11227149D01*
G01X29448555Y-11227149D01*
G01X29470235Y-11270508D01*
G01X29470235Y-11270508D01*
G01X29439502Y-11311064D01*
G01X29439180Y-11311231D01*
G01X29439180Y-11311231D01*
G01X29377473Y-11326092D01*
G01X29363595Y-11326758D01*
G01X29363595Y-11326758D01*
G01X29285323Y-11312881D01*
G01X29239530Y-11286304D01*
G01X29222876Y-11269604D01*
G01X29222677Y-11269336D01*
G01X29222677Y-11269336D01*
G01X29196786Y-11211490D01*
G01X29184887Y-11149443D01*
G01X29181537Y-11105731D01*
G01X29181368Y-11097656D01*
G01X29181368Y-11097656D01*
G01X29182466Y-10990258D01*
G01X29183153Y-10913130D01*
G01X29183525Y-10862148D01*
G01X29183679Y-10833190D01*
G01X29183711Y-10822132D01*
G01X29183712Y-10821680D01*
G01X29183712Y-10821680D01*
G01X29134685Y-10825417D01*
G01X29074836Y-10830223D01*
G01X29071798Y-10830469D01*
G01X29071798Y-10830469D01*
G01X29068282Y-10800000D01*
G37*
G36*
G01X29490157Y-10800000D02*
G01X29490157Y-10800000D01*
G01X29508028Y-10764844D01*
G01X29508028Y-10764844D01*
G01X29565035Y-10757279D01*
G01X29569259Y-10757227D01*
G01X29603243Y-10757227D01*
G01X29603243Y-10757227D01*
G01X29599752Y-10678459D01*
G01X29596424Y-10631480D01*
G01X29595626Y-10622461D01*
G01X29595626Y-10622461D01*
G01X29635470Y-10618945D01*
G01X29635470Y-10618945D01*
G01X29689741Y-10649866D01*
G01X29692891Y-10664649D01*
G01X29692891Y-10664649D01*
G01X29690267Y-10722961D01*
G01X29688204Y-10758399D01*
G01X29688204Y-10758399D01*
G01X29783968Y-10757392D01*
G01X29846114Y-10755176D01*
G01X29879696Y-10752960D01*
G01X29889766Y-10751953D01*
G01X29889766Y-10751953D01*
G01X29889766Y-10751953D01*
G01X29894454Y-10780078D01*
G01X29894454Y-10780078D01*
G01X29881856Y-10812305D01*
G01X29881856Y-10812305D01*
G01X29841720Y-10821680D01*
G01X29841720Y-10821680D01*
G01X29783775Y-10822499D01*
G01X29718272Y-10822806D01*
G01X29685894Y-10822852D01*
G01X29685860Y-10822852D01*
G01X29685860Y-10822852D01*
G01X29684762Y-10897049D01*
G01X29684075Y-10967726D01*
G01X29683703Y-11028446D01*
G01X29683549Y-11072770D01*
G01X29683517Y-11094260D01*
G01X29683516Y-11095313D01*
G01X29683516Y-11095313D01*
G01X29690442Y-11181013D01*
G01X29702470Y-11222473D01*
G01X29706954Y-11230957D01*
G01X29706954Y-11230957D01*
G01X29762022Y-11261067D01*
G01X29784298Y-11263477D01*
G01X29784298Y-11263477D01*
G01X29848934Y-11243680D01*
G01X29870430Y-11227149D01*
G01X29870430Y-11227149D01*
G01X29892110Y-11270508D01*
G01X29892110Y-11270508D01*
G01X29861377Y-11311064D01*
G01X29861055Y-11311231D01*
G01X29861055Y-11311231D01*
G01X29799348Y-11326092D01*
G01X29785470Y-11326758D01*
G01X29785470Y-11326758D01*
G01X29707198Y-11312881D01*
G01X29661405Y-11286304D01*
G01X29644751Y-11269604D01*
G01X29644552Y-11269336D01*
G01X29644552Y-11269336D01*
G01X29618661Y-11211490D01*
G01X29606762Y-11149443D01*
G01X29603412Y-11105731D01*
G01X29603243Y-11097656D01*
G01X29603243Y-11097656D01*
G01X29604341Y-10990258D01*
G01X29605028Y-10913130D01*
G01X29605400Y-10862148D01*
G01X29605554Y-10833190D01*
G01X29605586Y-10822132D01*
G01X29605587Y-10821680D01*
G01X29605587Y-10821680D01*
G01X29556560Y-10825417D01*
G01X29496711Y-10830223D01*
G01X29493673Y-10830469D01*
G01X29493673Y-10830469D01*
G01X29490157Y-10800000D01*
G37*
G36*
G01X29965938Y-11036719D02*
G01X29965938Y-11036719D01*
G01X29974868Y-10957536D01*
G01X29995518Y-10895209D01*
G01X30018680Y-10851534D01*
G01X30035144Y-10828309D01*
G01X30038009Y-10824903D01*
G01X30038009Y-10824903D01*
G01X30095367Y-10780032D01*
G01X30154750Y-10756168D01*
G01X30202793Y-10746678D01*
G01X30226131Y-10744927D01*
G01X30226680Y-10744922D01*
G01X30226680Y-10744922D01*
G01X30303173Y-10756531D01*
G01X30361631Y-10782514D01*
G01X30399915Y-10809603D01*
G01X30415888Y-10824529D01*
G01X30416231Y-10824903D01*
G01X30416231Y-10824903D01*
G01X30453947Y-10883263D01*
G01X30475403Y-10944947D01*
G01X30485187Y-10998218D01*
G01X30487885Y-11031341D01*
G01X30488009Y-11036719D01*
G01X30488009Y-11036719D01*
G01X30478364Y-11118996D01*
G01X30456417Y-11182610D01*
G01X30432648Y-11225637D01*
G01X30417536Y-11246151D01*
G01X30416231Y-11247656D01*
G01X30416231Y-11247656D01*
G01X30358867Y-11292034D01*
G01X30299191Y-11315636D01*
G01X30250786Y-11325022D01*
G01X30227235Y-11326753D01*
G01X30226680Y-11326758D01*
G01X30226680Y-11326758D01*
G01X30150803Y-11315276D01*
G01X30092600Y-11289579D01*
G01X30054355Y-11262788D01*
G01X30038353Y-11248026D01*
G01X30038009Y-11247656D01*
G01X30038009Y-11247656D01*
G01X30000139Y-11189758D01*
G01X29978595Y-11128337D01*
G01X29968771Y-11075185D01*
G01X29966063Y-11042095D01*
G01X29965938Y-11036719D01*
G37*
%LPC*%
G36*
G01X30050313Y-11019727D02*
G01X30050313Y-11019727D01*
G01X30059224Y-11097475D01*
G01X30077777Y-11154485D01*
G01X30093699Y-11186281D01*
G01X30096895Y-11191406D01*
G01X30096895Y-11191406D01*
G01X30150670Y-11239342D01*
G01X30202535Y-11257267D01*
G01X30226656Y-11259961D01*
G01X30226681Y-11259961D01*
G01X30226681Y-11259961D01*
G01X30300666Y-11244113D01*
G01X30344957Y-11215861D01*
G01X30357345Y-11203711D01*
G01X30357345Y-11203711D01*
G01X30389481Y-11142492D01*
G01X30402033Y-11084038D01*
G01X30404217Y-11054153D01*
G01X30404220Y-11053711D01*
G01X30404220Y-11053711D01*
G01X30395028Y-10975851D01*
G01X30375893Y-10918608D01*
G01X30359469Y-10886611D01*
G01X30356173Y-10881445D01*
G01X30356173Y-10881445D01*
G01X30301822Y-10833100D01*
G01X30250412Y-10815022D01*
G01X30226705Y-10812305D01*
G01X30226680Y-10812305D01*
G01X30226680Y-10812305D01*
G01X30152860Y-10828318D01*
G01X30108863Y-10856864D01*
G01X30096602Y-10869141D01*
G01X30096602Y-10869141D01*
G01X30064868Y-10930762D01*
G01X30052473Y-10989373D01*
G01X30050316Y-11019285D01*
G01X30050313Y-11019727D01*
G37*
%LPD*%
G36*
G01X30613985Y-10763086D02*
G01X30613985Y-10763086D01*
G01X30657345Y-10753711D01*
G01X30657345Y-10753711D01*
G01X30707404Y-10788061D01*
G01X30712423Y-10813477D01*
G01X30712423Y-10813477D01*
G01X30770504Y-10777661D01*
G01X30800899Y-10764258D01*
G01X30800899Y-10764258D01*
G01X30800899Y-10764258D01*
G01X30870040Y-10747339D01*
G01X30900509Y-10744922D01*
G01X30900509Y-10744922D01*
G01X30900509Y-10744922D01*
G01X30974909Y-10762746D01*
G01X31017487Y-10797645D01*
G01X31033584Y-10821760D01*
G01X31034102Y-10822852D01*
G01X31034102Y-10822852D01*
G01X31088061Y-10785024D01*
G01X31124018Y-10768018D01*
G01X31124630Y-10767774D01*
G01X31124630Y-10767774D01*
G01X31195158Y-10748724D01*
G01X31232991Y-10744945D01*
G01X31234493Y-10744922D01*
G01X31234493Y-10744922D01*
G01X31304824Y-10761395D01*
G01X31338524Y-10783464D01*
G01X31340255Y-10785059D01*
G01X31340255Y-10785059D01*
G01X31370795Y-10842715D01*
G01X31380262Y-10898621D01*
G01X31380977Y-10914258D01*
G01X31380977Y-10914258D01*
G01X31379708Y-10968473D01*
G01X31378927Y-11000684D01*
G01X31378927Y-11000684D01*
G01X31377319Y-11081867D01*
G01X31376892Y-11122943D01*
G01X31376876Y-11128125D01*
G01X31376876Y-11128125D01*
G01X31380799Y-11210728D01*
G01X31388967Y-11270697D01*
G01X31395977Y-11303864D01*
G01X31397384Y-11309180D01*
G01X31397384Y-11309180D01*
G01X31350509Y-11318555D01*
G01X31350509Y-11318555D01*
G01X31305684Y-11304785D01*
G01X31305684Y-11304785D01*
G01X31291915Y-11257617D01*
G01X31291915Y-11257617D01*
G01X31291915Y-11257617D01*
G01X31292719Y-11200627D01*
G01X31294293Y-11134183D01*
G01X31295381Y-11094106D01*
G01X31295430Y-11092383D01*
G01X31295430Y-11092383D01*
G01X31297981Y-10997209D01*
G01X31298851Y-10954964D01*
G01X31298946Y-10946485D01*
G01X31298946Y-10946485D01*
G01X31286148Y-10873205D01*
G01X31271113Y-10845472D01*
G01X31270821Y-10845117D01*
G01X31270821Y-10845117D01*
G01X31214094Y-10814251D01*
G01X31196993Y-10812305D01*
G01X31196993Y-10812305D01*
G01X31132080Y-10826778D01*
G01X31077577Y-10855117D01*
G01X31049297Y-10874699D01*
G01X31048165Y-10875586D01*
G01X31048165Y-10875586D01*
G01X31049353Y-10967196D01*
G01X31050051Y-11036413D01*
G01X31050390Y-11083792D01*
G01X31050499Y-11109885D01*
G01X31050509Y-11115821D01*
G01X31050509Y-11115821D01*
G01X31051786Y-11198826D01*
G01X31054546Y-11262692D01*
G01X31057182Y-11302534D01*
G01X31058126Y-11313867D01*
G01X31058126Y-11313867D01*
G01X31017110Y-11317383D01*
G01X31017110Y-11317383D01*
G01X30965719Y-11285185D01*
G01X30963204Y-11271680D01*
G01X30963204Y-11271680D01*
G01X30964962Y-11223340D01*
G01X30964962Y-11223340D01*
G01X30966823Y-11159405D01*
G01X30967804Y-11109466D01*
G01X30967891Y-11104102D01*
G01X30967891Y-11104102D01*
G01X30968695Y-11032458D01*
G01X30969009Y-10974250D01*
G01X30969063Y-10946873D01*
G01X30969063Y-10946485D01*
G01X30969063Y-10946485D01*
G01X30950149Y-10864503D01*
G01X30910014Y-10825365D01*
G01X30873570Y-10813225D01*
G01X30863595Y-10812305D01*
G01X30863595Y-10812305D01*
G01X30799469Y-10827449D01*
G01X30745286Y-10857100D01*
G01X30717070Y-10877588D01*
G01X30715938Y-10878516D01*
G01X30715938Y-10878516D01*
G01X30717170Y-10973562D01*
G01X30717870Y-11043585D01*
G01X30718190Y-11089595D01*
G01X30718278Y-11112604D01*
G01X30718282Y-11115821D01*
G01X30718282Y-11115821D01*
G01X30719461Y-11198826D01*
G01X30722009Y-11262692D01*
G01X30724442Y-11302534D01*
G01X30725313Y-11313867D01*
G01X30725313Y-11313867D01*
G01X30684884Y-11317383D01*
G01X30684884Y-11317383D01*
G01X30633492Y-11285185D01*
G01X30630977Y-11271680D01*
G01X30630977Y-11271680D01*
G01X30632748Y-11216907D01*
G01X30633907Y-11183496D01*
G01X30633907Y-11183496D01*
G01X30635874Y-11108533D01*
G01X30636676Y-11048688D01*
G01X30636836Y-11018569D01*
G01X30636837Y-11017383D01*
G01X30636837Y-11017383D01*
G01X30634460Y-10915336D01*
G01X30628793Y-10842821D01*
G01X30622029Y-10795899D01*
G01X30616362Y-10770633D01*
G01X30613985Y-10763086D01*
G01X30613985Y-10763086D01*
G37*
G36*
G01X31793477Y-11231250D02*
G01X31793477Y-11231250D01*
G01X31831455Y-11187147D01*
G01X31847384Y-11180860D01*
G01X31847384Y-11180860D01*
G01X31888284Y-11230156D01*
G01X31904513Y-11239746D01*
G01X31904513Y-11239746D01*
G01X31970665Y-11257725D01*
G01X31999727Y-11259961D01*
G01X31999727Y-11259961D01*
G01X32067236Y-11245817D01*
G01X32083223Y-11237110D01*
G01X32083223Y-11237110D01*
G01X32113540Y-11182234D01*
G01X32115157Y-11166211D01*
G01X32115157Y-11166211D01*
G01X32087859Y-11114434D01*
G01X32083223Y-11111133D01*
G01X32083223Y-11111133D01*
G01X32023107Y-11086152D01*
G01X32005880Y-11081543D01*
G01X32005880Y-11081543D01*
G01X31939302Y-11064578D01*
G01X31914766Y-11057520D01*
G01X31914766Y-11057520D01*
G01X31856406Y-11024265D01*
G01X31837130Y-11005371D01*
G01X31837130Y-11005371D01*
G01X31809950Y-10943910D01*
G01X31805203Y-10904375D01*
G01X31805196Y-10903711D01*
G01X31805196Y-10903711D01*
G01X31825191Y-10836198D01*
G01X31858040Y-10796881D01*
G01X31867013Y-10789453D01*
G01X31867013Y-10789453D01*
G01X31931957Y-10757725D01*
G01X31985900Y-10746381D01*
G01X32006759Y-10744922D01*
G01X32006759Y-10744922D01*
G01X32075375Y-10755263D01*
G01X32114957Y-10769116D01*
G01X32117208Y-10770117D01*
G01X32117208Y-10770117D01*
G01X32166132Y-10817792D01*
G01X32171407Y-10839844D01*
G01X32171407Y-10839844D01*
G01X32133429Y-10884530D01*
G01X32117501Y-10890235D01*
G01X32117501Y-10890235D01*
G01X32076584Y-10842443D01*
G01X32063302Y-10833985D01*
G01X32063302Y-10833985D01*
G01X31998906Y-10814029D01*
G01X31978048Y-10812305D01*
G01X31978048Y-10812305D01*
G01X31916238Y-10828897D01*
G01X31907149Y-10834570D01*
G01X31907149Y-10834570D01*
G01X31878073Y-10887932D01*
G01X31877266Y-10897266D01*
G01X31877266Y-10897266D01*
G01X31904210Y-10949753D01*
G01X31909200Y-10953516D01*
G01X31909200Y-10953516D01*
G01X31968516Y-10979735D01*
G01X31986544Y-10984863D01*
G01X31986544Y-10984863D01*
G01X32052145Y-11002082D01*
G01X32077657Y-11009473D01*
G01X32077657Y-11009473D01*
G01X32136790Y-11042077D01*
G01X32155294Y-11059278D01*
G01X32155294Y-11059278D01*
G01X32183236Y-11119812D01*
G01X32187227Y-11153320D01*
G01X32187227Y-11153320D01*
G01X32187227Y-11153320D01*
G01X32170806Y-11225720D01*
G01X32140794Y-11269045D01*
G01X32125997Y-11282520D01*
G01X32125997Y-11282520D01*
G01X32061681Y-11313453D01*
G01X32005427Y-11325019D01*
G01X31980417Y-11326758D01*
G01X31980391Y-11326758D01*
G01X31980391Y-11326758D01*
G01X31906221Y-11317850D01*
G01X31859576Y-11303216D01*
G01X31850313Y-11299219D01*
G01X31850313Y-11299219D01*
G01X31799010Y-11251725D01*
G01X31793477Y-11231250D01*
G37*
G36*
G01X32289766Y-11036719D02*
G01X32289766Y-11036719D01*
G01X32298696Y-10957536D01*
G01X32319346Y-10895209D01*
G01X32342508Y-10851534D01*
G01X32358972Y-10828309D01*
G01X32361837Y-10824903D01*
G01X32361837Y-10824903D01*
G01X32419195Y-10780032D01*
G01X32478578Y-10756168D01*
G01X32526621Y-10746678D01*
G01X32549959Y-10744927D01*
G01X32550509Y-10744922D01*
G01X32550509Y-10744922D01*
G01X32627001Y-10756531D01*
G01X32685459Y-10782514D01*
G01X32723743Y-10809603D01*
G01X32739717Y-10824529D01*
G01X32740059Y-10824903D01*
G01X32740059Y-10824903D01*
G01X32777775Y-10883263D01*
G01X32799231Y-10944947D01*
G01X32809016Y-10998218D01*
G01X32811713Y-11031341D01*
G01X32811837Y-11036719D01*
G01X32811837Y-11036719D01*
G01X32802192Y-11118996D01*
G01X32780246Y-11182610D01*
G01X32756476Y-11225637D01*
G01X32741364Y-11246151D01*
G01X32740059Y-11247656D01*
G01X32740059Y-11247656D01*
G01X32682696Y-11292034D01*
G01X32623019Y-11315636D01*
G01X32574614Y-11325022D01*
G01X32551063Y-11326753D01*
G01X32550509Y-11326758D01*
G01X32550509Y-11326758D01*
G01X32474631Y-11315276D01*
G01X32416428Y-11289579D01*
G01X32378183Y-11262788D01*
G01X32362181Y-11248026D01*
G01X32361837Y-11247656D01*
G01X32361837Y-11247656D01*
G01X32323968Y-11189758D01*
G01X32302423Y-11128337D01*
G01X32292599Y-11075185D01*
G01X32289891Y-11042095D01*
G01X32289766Y-11036719D01*
G37*
%LPC*%
G36*
G01X32374141Y-11019727D02*
G01X32374141Y-11019727D01*
G01X32383052Y-11097475D01*
G01X32401605Y-11154485D01*
G01X32417528Y-11186281D01*
G01X32420723Y-11191406D01*
G01X32420723Y-11191406D01*
G01X32474498Y-11239342D01*
G01X32526363Y-11257267D01*
G01X32550484Y-11259961D01*
G01X32550509Y-11259961D01*
G01X32550509Y-11259961D01*
G01X32624494Y-11244113D01*
G01X32668785Y-11215861D01*
G01X32681173Y-11203711D01*
G01X32681173Y-11203711D01*
G01X32713309Y-11142492D01*
G01X32725861Y-11084038D01*
G01X32728045Y-11054153D01*
G01X32728048Y-11053711D01*
G01X32728048Y-11053711D01*
G01X32718857Y-10975851D01*
G01X32699721Y-10918608D01*
G01X32683297Y-10886611D01*
G01X32680001Y-10881445D01*
G01X32680001Y-10881445D01*
G01X32625650Y-10833100D01*
G01X32574240Y-10815022D01*
G01X32550533Y-10812305D01*
G01X32550509Y-10812305D01*
G01X32550509Y-10812305D01*
G01X32476688Y-10828318D01*
G01X32432691Y-10856864D01*
G01X32420431Y-10869141D01*
G01X32420431Y-10869141D01*
G01X32388696Y-10930762D01*
G01X32376301Y-10989373D01*
G01X32374144Y-11019285D01*
G01X32374141Y-11019727D01*
G37*
%LPD*%
G36*
G01X32937813Y-10426758D02*
G01X32937813Y-10426758D01*
G01X32980001Y-10423242D01*
G01X32980001Y-10423242D01*
G01X33032289Y-10454805D01*
G01X33035079Y-10468945D01*
G01X33035079Y-10468945D01*
G01X33033539Y-10525687D01*
G01X33033321Y-10533106D01*
G01X33033321Y-10533106D01*
G01X33031479Y-10597525D01*
G01X33029788Y-10658741D01*
G01X33028939Y-10689969D01*
G01X33028927Y-10690430D01*
G01X33028927Y-10690430D01*
G01X33027358Y-10764936D01*
G01X33026581Y-10829009D01*
G01X33026318Y-10872454D01*
G01X33026290Y-10885547D01*
G01X33026290Y-11072461D01*
G01X33026290Y-11072461D01*
G01X33028890Y-11162058D01*
G01X33034997Y-11230210D01*
G01X33042071Y-11277177D01*
G01X33047574Y-11303221D01*
G01X33049141Y-11309180D01*
G01X33049141Y-11309180D01*
G01X33004024Y-11318555D01*
G01X33004024Y-11318555D01*
G01X32957735Y-11304199D01*
G01X32957735Y-11304199D01*
G01X32944845Y-11256445D01*
G01X32944845Y-11256445D01*
G01X32944845Y-11256445D01*
G01X32945143Y-11206353D01*
G01X32945702Y-11138978D01*
G01X32946016Y-11103847D01*
G01X32946016Y-11103809D01*
G01X32946016Y-11103809D01*
G01X32946732Y-11014596D01*
G01X32947074Y-10953343D01*
G01X32947180Y-10919945D01*
G01X32947188Y-10913086D01*
G01X32947188Y-10773633D01*
G01X32947188Y-10773633D01*
G01X32946619Y-10660547D01*
G01X32945163Y-10573902D01*
G01X32943202Y-10510551D01*
G01X32941113Y-10467352D01*
G01X32939278Y-10441159D01*
G01X32938076Y-10428829D01*
G01X32937813Y-10426758D01*
G37*
G36*
G01X33175118Y-11036719D02*
G01X33175118Y-11036719D01*
G01X33184266Y-10958079D01*
G01X33205419Y-10895935D01*
G01X33229146Y-10852231D01*
G01X33246012Y-10828916D01*
G01X33248946Y-10825488D01*
G01X33248946Y-10825488D01*
G01X33307924Y-10778911D01*
G01X33365694Y-10754993D01*
G01X33409621Y-10746181D01*
G01X33427071Y-10744922D01*
G01X33427071Y-10744922D01*
G01X33427071Y-10744922D01*
G01X33498334Y-10756478D01*
G01X33550024Y-10777078D01*
G01X33566524Y-10785938D01*
G01X33566524Y-10785938D01*
G01X33568387Y-10707337D01*
G01X33568854Y-10665690D01*
G01X33568868Y-10661133D01*
G01X33568868Y-10661133D01*
G01X33567706Y-10572802D01*
G01X33565020Y-10503815D01*
G01X33562007Y-10455819D01*
G01X33559866Y-10430460D01*
G01X33559493Y-10426758D01*
G01X33559493Y-10426758D01*
G01X33602266Y-10423242D01*
G01X33602266Y-10423242D01*
G01X33653658Y-10455441D01*
G01X33656173Y-10468945D01*
G01X33656173Y-10468945D01*
G01X33655674Y-10510266D01*
G01X33654467Y-10573801D01*
G01X33652986Y-10643058D01*
G01X33651665Y-10701542D01*
G01X33650937Y-10732760D01*
G01X33650899Y-10734375D01*
G01X33650899Y-10734375D01*
G01X33648751Y-10831055D01*
G01X33647284Y-10908567D01*
G01X33646367Y-10967908D01*
G01X33645872Y-11010069D01*
G01X33645668Y-11036044D01*
G01X33645626Y-11046827D01*
G01X33645626Y-11047266D01*
G01X33645626Y-11047266D01*
G01X33647787Y-11146980D01*
G01X33653017Y-11219798D01*
G01X33659435Y-11268903D01*
G01X33665160Y-11297479D01*
G01X33668312Y-11308709D01*
G01X33668477Y-11309180D01*
G01X33668477Y-11309180D01*
G01X33622774Y-11318555D01*
G01X33622774Y-11318555D01*
G01X33574974Y-11282438D01*
G01X33570040Y-11258789D01*
G01X33570040Y-11258789D01*
G01X33506968Y-11302431D01*
G01X33451626Y-11321722D01*
G01X33418245Y-11326609D01*
G01X33414181Y-11326758D01*
G01X33413009Y-11326758D01*
G01X33413009Y-11326758D01*
G01X33341582Y-11312047D01*
G01X33286574Y-11280831D01*
G01X33253381Y-11252485D01*
G01X33246016Y-11244727D01*
G01X33246016Y-11244727D01*
G01X33207485Y-11183218D01*
G01X33186282Y-11120167D01*
G01X33177230Y-11067976D01*
G01X33175154Y-11039051D01*
G01X33175118Y-11036719D01*
G37*
%LPC*%
G36*
G01X33259493Y-11019727D02*
G01X33259493Y-11019727D01*
G01X33269133Y-11099678D01*
G01X33289202Y-11157701D01*
G01X33306426Y-11189782D01*
G01X33309884Y-11194922D01*
G01X33309884Y-11194922D01*
G01X33366576Y-11244650D01*
G01X33414957Y-11261626D01*
G01X33431759Y-11263477D01*
G01X33431759Y-11263477D01*
G01X33497608Y-11246007D01*
G01X33546609Y-11213308D01*
G01X33566505Y-11194942D01*
G01X33566524Y-11194922D01*
G01X33566524Y-11194922D01*
G01X33565620Y-11073073D01*
G01X33564984Y-10983304D01*
G01X33564570Y-10920833D01*
G01X33564331Y-10880878D01*
G01X33564217Y-10858658D01*
G01X33564183Y-10849391D01*
G01X33564181Y-10848047D01*
G01X33564181Y-10848047D01*
G01X33494629Y-10820418D01*
G01X33448633Y-10812685D01*
G01X33440548Y-10812305D01*
G01X33440548Y-10812305D01*
G01X33367805Y-10827548D01*
G01X33322624Y-10855406D01*
G01X33308126Y-10869141D01*
G01X33308126Y-10869141D01*
G01X33274785Y-10930762D01*
G01X33261762Y-10989373D01*
G01X33259496Y-11019285D01*
G01X33259493Y-11019727D01*
G37*
%LPD*%
G36*
G01X33793868Y-11039063D02*
G01X33793868Y-11039063D01*
G01X33803778Y-10955118D01*
G01X33826695Y-10890904D01*
G01X33852398Y-10847096D01*
G01X33870670Y-10824366D01*
G01X33873848Y-10821094D01*
G01X33873848Y-10821094D01*
G01X33936933Y-10777057D01*
G01X33997738Y-10754444D01*
G01X34043546Y-10746112D01*
G01X34061641Y-10744922D01*
G01X34061641Y-10744922D01*
G01X34061641Y-10744922D01*
G01X34137113Y-10758294D01*
G01X34184053Y-10782131D01*
G01X34197579Y-10792383D01*
G01X34197579Y-10792383D01*
G01X34238463Y-10852074D01*
G01X34249310Y-10896689D01*
G01X34249727Y-10903711D01*
G01X34249727Y-10903711D01*
G01X34238195Y-10969658D01*
G01X34233028Y-10981641D01*
G01X34233028Y-10981641D01*
G01X34193519Y-11027543D01*
G01X34189376Y-11030567D01*
G01X34189376Y-11030567D01*
G01X34130258Y-11053781D01*
G01X34111446Y-11058106D01*
G01X34111446Y-11058106D01*
G01X34042232Y-11067737D01*
G01X34011251Y-11070117D01*
G01X34011251Y-11070117D01*
G01X34011251Y-11070117D01*
G01X33946099Y-11071929D01*
G01X33892229Y-11072436D01*
G01X33881759Y-11072461D01*
G01X33881759Y-11072461D01*
G01X33899831Y-11147424D01*
G01X33923041Y-11194207D01*
G01X33933614Y-11209278D01*
G01X33933614Y-11209278D01*
G01X33990419Y-11247882D01*
G01X34040122Y-11259260D01*
G01X34051681Y-11259961D01*
G01X34051681Y-11259961D01*
G01X34127071Y-11243147D01*
G01X34167885Y-11212417D01*
G01X34179415Y-11197266D01*
G01X34179415Y-11197266D01*
G01X34225578Y-11239978D01*
G01X34226876Y-11247656D01*
G01X34226876Y-11247656D01*
G01X34191565Y-11295160D01*
G01X34172384Y-11305078D01*
G01X34172384Y-11305078D01*
G01X34104390Y-11322305D01*
G01X34056590Y-11326632D01*
G01X34050509Y-11326758D01*
G01X34050509Y-11326758D01*
G01X33973916Y-11315634D01*
G01X33915670Y-11291162D01*
G01X33878628Y-11266690D01*
G01X33865645Y-11255567D01*
G01X33865645Y-11255567D01*
G01X33865645Y-11255567D01*
G01X33827930Y-11200154D01*
G01X33806473Y-11137237D01*
G01X33796689Y-11080832D01*
G01X33793992Y-11044961D01*
G01X33793868Y-11039063D01*
G37*
%LPC*%
G36*
G01X33880587Y-11012695D02*
G01X33880587Y-11012695D01*
G01X33950846Y-11011953D01*
G01X33966720Y-11011524D01*
G01X33966720Y-11011524D01*
G01X34029678Y-11005895D01*
G01X34042306Y-11004199D01*
G01X34042306Y-11004199D01*
G01X34103378Y-10989272D01*
G01X34108516Y-10987207D01*
G01X34108516Y-10987207D01*
G01X34149779Y-10956206D01*
G01X34149825Y-10956153D01*
G01X34149825Y-10956153D01*
G01X34167104Y-10906481D01*
G01X34167110Y-10906055D01*
G01X34167110Y-10906055D01*
G01X34143955Y-10848321D01*
G01X34135470Y-10839258D01*
G01X34135470Y-10839258D01*
G01X34076312Y-10813071D01*
G01X34056954Y-10811133D01*
G01X34056954Y-10811133D01*
G01X33987133Y-10826361D01*
G01X33943720Y-10852100D01*
G01X33933907Y-10860352D01*
G01X33933907Y-10860352D01*
G01X33899141Y-10916988D01*
G01X33884142Y-10976638D01*
G01X33880637Y-11011233D01*
G01X33880587Y-11012695D01*
G37*
%LPD*%
G36*
G01X34375704Y-10757227D02*
G01X34375704Y-10757227D01*
G01X34416720Y-10753711D01*
G01X34416720Y-10753711D01*
G01X34466255Y-10786728D01*
G01X34468282Y-10798828D01*
G01X34468282Y-10798828D01*
G01X34467696Y-10815235D01*
G01X34467696Y-10815235D01*
G01X34467110Y-10841016D01*
G01X34467110Y-10841016D01*
G01X34511267Y-10791128D01*
G01X34531270Y-10774512D01*
G01X34531270Y-10774512D01*
G01X34593512Y-10746961D01*
G01X34610665Y-10744922D01*
G01X34610665Y-10744922D01*
G01X34654024Y-10757520D01*
G01X34654024Y-10757520D01*
G01X34669845Y-10791797D01*
G01X34669845Y-10791797D01*
G01X34647469Y-10843479D01*
G01X34645821Y-10845703D01*
G01X34645821Y-10845703D01*
G01X34591658Y-10823063D01*
G01X34587813Y-10822852D01*
G01X34587813Y-10822852D01*
G01X34529424Y-10843188D01*
G01X34520723Y-10849219D01*
G01X34520723Y-10849219D01*
G01X34476429Y-10898903D01*
G01X34464181Y-10918945D01*
G01X34464181Y-10918945D01*
G01X34463361Y-10975994D01*
G01X34463055Y-11039820D01*
G01X34463009Y-11071256D01*
G01X34463009Y-11071289D01*
G01X34463009Y-11071289D01*
G01X34465609Y-11161941D01*
G01X34471716Y-11230478D01*
G01X34478790Y-11277421D01*
G01X34484292Y-11303291D01*
G01X34485860Y-11309180D01*
G01X34485860Y-11309180D01*
G01X34440157Y-11318555D01*
G01X34440157Y-11318555D01*
G01X34393575Y-11303028D01*
G01X34393575Y-11303028D01*
G01X34393575Y-11303028D01*
G01X34381572Y-11250868D01*
G01X34381563Y-11250000D01*
G01X34381563Y-11250000D01*
G01X34382202Y-11191641D01*
G01X34382735Y-11155371D01*
G01X34382735Y-11155371D01*
G01X34383690Y-11077329D01*
G01X34383904Y-11040346D01*
G01X34383907Y-11037891D01*
G01X34383907Y-11037891D01*
G01X34383205Y-10951548D01*
G01X34381483Y-10879012D01*
G01X34379314Y-10821904D01*
G01X34377273Y-10781844D01*
G01X34375934Y-10760450D01*
G01X34375704Y-10757227D01*
G37*
G36*
G01X34753634Y-10763086D02*
G01X34753634Y-10763086D01*
G01X34796993Y-10753711D01*
G01X34796993Y-10753711D01*
G01X34847052Y-10788061D01*
G01X34852071Y-10813477D01*
G01X34852071Y-10813477D01*
G01X34910152Y-10777661D01*
G01X34940548Y-10764258D01*
G01X34940548Y-10764258D01*
G01X34940548Y-10764258D01*
G01X35009688Y-10747339D01*
G01X35040157Y-10744922D01*
G01X35040157Y-10744922D01*
G01X35040157Y-10744922D01*
G01X35114557Y-10762746D01*
G01X35157135Y-10797645D01*
G01X35173232Y-10821760D01*
G01X35173751Y-10822852D01*
G01X35173751Y-10822852D01*
G01X35227710Y-10785024D01*
G01X35263667Y-10768018D01*
G01X35264278Y-10767774D01*
G01X35264278Y-10767774D01*
G01X35334806Y-10748724D01*
G01X35372639Y-10744945D01*
G01X35374141Y-10744922D01*
G01X35374141Y-10744922D01*
G01X35444472Y-10761395D01*
G01X35478172Y-10783464D01*
G01X35479903Y-10785059D01*
G01X35479903Y-10785059D01*
G01X35510443Y-10842715D01*
G01X35519910Y-10898621D01*
G01X35520626Y-10914258D01*
G01X35520626Y-10914258D01*
G01X35519356Y-10968473D01*
G01X35518575Y-11000684D01*
G01X35518575Y-11000684D01*
G01X35516967Y-11081867D01*
G01X35516541Y-11122943D01*
G01X35516524Y-11128125D01*
G01X35516524Y-11128125D01*
G01X35520447Y-11210728D01*
G01X35528615Y-11270697D01*
G01X35535625Y-11303864D01*
G01X35537032Y-11309180D01*
G01X35537032Y-11309180D01*
G01X35490157Y-11318555D01*
G01X35490157Y-11318555D01*
G01X35445333Y-11304785D01*
G01X35445333Y-11304785D01*
G01X35431563Y-11257617D01*
G01X35431563Y-11257617D01*
G01X35431563Y-11257617D01*
G01X35432367Y-11200627D01*
G01X35433942Y-11134183D01*
G01X35435030Y-11094106D01*
G01X35435079Y-11092383D01*
G01X35435079Y-11092383D01*
G01X35437629Y-10997209D01*
G01X35438500Y-10954964D01*
G01X35438595Y-10946485D01*
G01X35438595Y-10946485D01*
G01X35425796Y-10873205D01*
G01X35410761Y-10845472D01*
G01X35410470Y-10845117D01*
G01X35410470Y-10845117D01*
G01X35353742Y-10814251D01*
G01X35336641Y-10812305D01*
G01X35336641Y-10812305D01*
G01X35271729Y-10826778D01*
G01X35217225Y-10855117D01*
G01X35188946Y-10874699D01*
G01X35187813Y-10875586D01*
G01X35187813Y-10875586D01*
G01X35189002Y-10967196D01*
G01X35189700Y-11036413D01*
G01X35190038Y-11083792D01*
G01X35190147Y-11109885D01*
G01X35190157Y-11115821D01*
G01X35190157Y-11115821D01*
G01X35191434Y-11198826D01*
G01X35194194Y-11262692D01*
G01X35196830Y-11302534D01*
G01X35197774Y-11313867D01*
G01X35197774Y-11313867D01*
G01X35156759Y-11317383D01*
G01X35156759Y-11317383D01*
G01X35105367Y-11285185D01*
G01X35102852Y-11271680D01*
G01X35102852Y-11271680D01*
G01X35104610Y-11223340D01*
G01X35104610Y-11223340D01*
G01X35106472Y-11159405D01*
G01X35107452Y-11109466D01*
G01X35107540Y-11104102D01*
G01X35107540Y-11104102D01*
G01X35108343Y-11032458D01*
G01X35108657Y-10974250D01*
G01X35108712Y-10946873D01*
G01X35108712Y-10946485D01*
G01X35108712Y-10946485D01*
G01X35089798Y-10864503D01*
G01X35049663Y-10825365D01*
G01X35013218Y-10813225D01*
G01X35003243Y-10812305D01*
G01X35003243Y-10812305D01*
G01X34939117Y-10827449D01*
G01X34884934Y-10857100D01*
G01X34856719Y-10877588D01*
G01X34855587Y-10878516D01*
G01X34855587Y-10878516D01*
G01X34856818Y-10973562D01*
G01X34857519Y-11043585D01*
G01X34857838Y-11089595D01*
G01X34857926Y-11112604D01*
G01X34857931Y-11115821D01*
G01X34857931Y-11115821D01*
G01X34859109Y-11198826D01*
G01X34861657Y-11262692D01*
G01X34864091Y-11302534D01*
G01X34864962Y-11313867D01*
G01X34864962Y-11313867D01*
G01X34824532Y-11317383D01*
G01X34824532Y-11317383D01*
G01X34773141Y-11285185D01*
G01X34770626Y-11271680D01*
G01X34770626Y-11271680D01*
G01X34772396Y-11216907D01*
G01X34773556Y-11183496D01*
G01X34773556Y-11183496D01*
G01X34775523Y-11108533D01*
G01X34776324Y-11048688D01*
G01X34776484Y-11018569D01*
G01X34776485Y-11017383D01*
G01X34776485Y-11017383D01*
G01X34774109Y-10915336D01*
G01X34768441Y-10842821D01*
G01X34761677Y-10795899D01*
G01X34756010Y-10770633D01*
G01X34753634Y-10763086D01*
G01X34753634Y-10763086D01*
G37*
G36*
G01X35663009Y-11158008D02*
G01X35663009Y-11158008D01*
G01X35678225Y-11088438D01*
G01X35691720Y-11068067D01*
G01X35691720Y-11068067D01*
G01X35746776Y-11033286D01*
G01X35770821Y-11024414D01*
G01X35770821Y-11024414D01*
G01X35835368Y-11010775D01*
G01X35901964Y-11001243D01*
G01X35958704Y-10995332D01*
G01X35993685Y-10992555D01*
G01X35999337Y-10992188D01*
G01X35999337Y-10992188D01*
G01X35992238Y-10907255D01*
G01X35979584Y-10862439D01*
G01X35974141Y-10851270D01*
G01X35974141Y-10851270D01*
G01X35921154Y-10819521D01*
G01X35871357Y-10812412D01*
G01X35866915Y-10812305D01*
G01X35866915Y-10812305D01*
G01X35806718Y-10828800D01*
G01X35797481Y-10833692D01*
G01X35797481Y-10833692D01*
G01X35751982Y-10880288D01*
G01X35743282Y-10896094D01*
G01X35743282Y-10896094D01*
G01X35690774Y-10859620D01*
G01X35688204Y-10848047D01*
G01X35688204Y-10848047D01*
G01X35717927Y-10792203D01*
G01X35745919Y-10773047D01*
G01X35745919Y-10773047D01*
G01X35812951Y-10751955D01*
G01X35866509Y-10745416D01*
G01X35880391Y-10744922D01*
G01X35880391Y-10744922D01*
G01X35962702Y-10755259D01*
G01X36012555Y-10775056D01*
G01X36031332Y-10787496D01*
G01X36031563Y-10787695D01*
G01X36031563Y-10787695D01*
G01X36063826Y-10841612D01*
G01X36076974Y-10902647D01*
G01X36079594Y-10939067D01*
G01X36079610Y-10940625D01*
G01X36079610Y-10940625D01*
G01X36078677Y-10998540D01*
G01X36078438Y-11011231D01*
G01X36078438Y-11011231D01*
G01X36077373Y-11084393D01*
G01X36077266Y-11102930D01*
G01X36077266Y-11102930D01*
G01X36080837Y-11193494D01*
G01X36088692Y-11257910D01*
G01X36096547Y-11296399D01*
G01X36100118Y-11309180D01*
G01X36100118Y-11309180D01*
G01X36100118Y-11309180D01*
G01X36053243Y-11318555D01*
G01X36053243Y-11318555D01*
G01X36016036Y-11305957D01*
G01X36016036Y-11305957D01*
G01X36001681Y-11265820D01*
G01X36001681Y-11265820D01*
G01X35935705Y-11305856D01*
G01X35880771Y-11322858D01*
G01X35850454Y-11326697D01*
G01X35848165Y-11326758D01*
G01X35848165Y-11326758D01*
G01X35765311Y-11312324D01*
G01X35711805Y-11276894D01*
G01X35681232Y-11232280D01*
G01X35667172Y-11190289D01*
G01X35663210Y-11162733D01*
G01X35663009Y-11158008D01*
G37*
%LPC*%
G36*
G01X35747384Y-11158008D02*
G01X35747384Y-11158008D01*
G01X35766150Y-11223208D01*
G01X35778438Y-11237695D01*
G01X35778438Y-11237695D01*
G01X35838640Y-11261827D01*
G01X35857540Y-11263477D01*
G01X35857540Y-11263477D01*
G01X35930656Y-11249020D01*
G01X35978973Y-11222598D01*
G01X35995235Y-11209570D01*
G01X35995235Y-11209570D01*
G01X35994065Y-11154664D01*
G01X35994063Y-11153320D01*
G01X35994063Y-11153320D01*
G01X35996391Y-11083941D01*
G01X35998165Y-11053711D01*
G01X35998165Y-11053711D01*
G01X35946101Y-11059559D01*
G01X35946016Y-11059570D01*
G01X35946016Y-11059570D01*
G01X35898848Y-11065430D01*
G01X35898848Y-11065430D01*
G01X35854903Y-11072461D01*
G01X35854903Y-11072461D01*
G01X35819747Y-11082129D01*
G01X35819747Y-11082129D01*
G01X35788692Y-11095606D01*
G01X35788692Y-11095606D01*
G01X35767013Y-11111719D01*
G01X35767013Y-11111719D01*
G01X35751485Y-11131934D01*
G01X35751485Y-11131934D01*
G01X35747384Y-11158008D01*
G37*
%LPD*%
G36*
G01X36213790Y-11231250D02*
G01X36213790Y-11231250D01*
G01X36251767Y-11187147D01*
G01X36267696Y-11180860D01*
G01X36267696Y-11180860D01*
G01X36308597Y-11230156D01*
G01X36324825Y-11239746D01*
G01X36324825Y-11239746D01*
G01X36390977Y-11257725D01*
G01X36420040Y-11259961D01*
G01X36420040Y-11259961D01*
G01X36487548Y-11245817D01*
G01X36503536Y-11237110D01*
G01X36503536Y-11237110D01*
G01X36533852Y-11182234D01*
G01X36535470Y-11166211D01*
G01X36535470Y-11166211D01*
G01X36508171Y-11114434D01*
G01X36503536Y-11111133D01*
G01X36503536Y-11111133D01*
G01X36443420Y-11086152D01*
G01X36426192Y-11081543D01*
G01X36426192Y-11081543D01*
G01X36359614Y-11064578D01*
G01X36335079Y-11057520D01*
G01X36335079Y-11057520D01*
G01X36276719Y-11024265D01*
G01X36257442Y-11005371D01*
G01X36257442Y-11005371D01*
G01X36230263Y-10943910D01*
G01X36225516Y-10904375D01*
G01X36225509Y-10903711D01*
G01X36225509Y-10903711D01*
G01X36245504Y-10836198D01*
G01X36278352Y-10796881D01*
G01X36287325Y-10789453D01*
G01X36287325Y-10789453D01*
G01X36352270Y-10757725D01*
G01X36406213Y-10746381D01*
G01X36427071Y-10744922D01*
G01X36427071Y-10744922D01*
G01X36495688Y-10755263D01*
G01X36535269Y-10769116D01*
G01X36537520Y-10770117D01*
G01X36537520Y-10770117D01*
G01X36586444Y-10817792D01*
G01X36591720Y-10839844D01*
G01X36591720Y-10839844D01*
G01X36553742Y-10884530D01*
G01X36537813Y-10890235D01*
G01X36537813Y-10890235D01*
G01X36496896Y-10842443D01*
G01X36483614Y-10833985D01*
G01X36483614Y-10833985D01*
G01X36419218Y-10814029D01*
G01X36398360Y-10812305D01*
G01X36398360Y-10812305D01*
G01X36336551Y-10828897D01*
G01X36327462Y-10834570D01*
G01X36327462Y-10834570D01*
G01X36298386Y-10887932D01*
G01X36297579Y-10897266D01*
G01X36297579Y-10897266D01*
G01X36324523Y-10949753D01*
G01X36329513Y-10953516D01*
G01X36329513Y-10953516D01*
G01X36388828Y-10979735D01*
G01X36406856Y-10984863D01*
G01X36406856Y-10984863D01*
G01X36472458Y-11002082D01*
G01X36497970Y-11009473D01*
G01X36497970Y-11009473D01*
G01X36557103Y-11042077D01*
G01X36575606Y-11059278D01*
G01X36575606Y-11059278D01*
G01X36603548Y-11119812D01*
G01X36607540Y-11153320D01*
G01X36607540Y-11153320D01*
G01X36607540Y-11153320D01*
G01X36591118Y-11225720D01*
G01X36561107Y-11269045D01*
G01X36546309Y-11282520D01*
G01X36546309Y-11282520D01*
G01X36481994Y-11313453D01*
G01X36425739Y-11325019D01*
G01X36400729Y-11326758D01*
G01X36400704Y-11326758D01*
G01X36400704Y-11326758D01*
G01X36326533Y-11317850D01*
G01X36279888Y-11303216D01*
G01X36270626Y-11299219D01*
G01X36270626Y-11299219D01*
G01X36219322Y-11251725D01*
G01X36213790Y-11231250D01*
G37*
G36*
G01X36728243Y-10426758D02*
G01X36728243Y-10426758D01*
G01X36770431Y-10423242D01*
G01X36770431Y-10423242D01*
G01X36822719Y-10454805D01*
G01X36825509Y-10468945D01*
G01X36825509Y-10468945D01*
G01X36823791Y-10522869D01*
G01X36823751Y-10524024D01*
G01X36823751Y-10524024D01*
G01X36821559Y-10589412D01*
G01X36819763Y-10645094D01*
G01X36819356Y-10657910D01*
G01X36819356Y-10657910D01*
G01X36817624Y-10730866D01*
G01X36816888Y-10790358D01*
G01X36816722Y-10822766D01*
G01X36816720Y-10825195D01*
G01X36816720Y-10825195D01*
G01X36881310Y-10778787D01*
G01X36940572Y-10754956D01*
G01X36983904Y-10746176D01*
G01X37000704Y-10744922D01*
G01X37000704Y-10744922D01*
G01X37000704Y-10744922D01*
G01X37074696Y-10759365D01*
G01X37113481Y-10782396D01*
G01X37119356Y-10787695D01*
G01X37119356Y-10787695D01*
G01X37152927Y-10848449D01*
G01X37160009Y-10890036D01*
G01X37160079Y-10892578D01*
G01X37160079Y-10892578D01*
G01X37146211Y-10964003D01*
G01X37122769Y-11008914D01*
G01X37115255Y-11019141D01*
G01X37115255Y-11019141D01*
G01X37059958Y-11060294D01*
G01X37008247Y-11077912D01*
G01X36989571Y-11081250D01*
G01X36989571Y-11081250D01*
G01X37039728Y-11160211D01*
G01X37069035Y-11201200D01*
G01X37079678Y-11214123D01*
G01X37079806Y-11214258D01*
G01X37079806Y-11214258D01*
G01X37137933Y-11250265D01*
G01X37154220Y-11252930D01*
G01X37154220Y-11252930D01*
G01X37185274Y-11247656D01*
G01X37185274Y-11247656D01*
G01X37196407Y-11282813D01*
G01X37196407Y-11282813D01*
G01X37171212Y-11315625D01*
G01X37171212Y-11315625D01*
G01X37123165Y-11326758D01*
G01X37123165Y-11326758D01*
G01X37061285Y-11304730D01*
G01X37036446Y-11283985D01*
G01X37036446Y-11283985D01*
G01X37006270Y-11247949D01*
G01X37006270Y-11247949D01*
G01X36976461Y-11204996D01*
G01X36976388Y-11204883D01*
G01X36976388Y-11204883D01*
G01X36951192Y-11164453D01*
G01X36951192Y-11164453D01*
G01X36923907Y-11118300D01*
G01X36923653Y-11117871D01*
G01X36923653Y-11117871D01*
G01X36899923Y-11077149D01*
G01X36899923Y-11077149D01*
G01X36868282Y-11051953D01*
G01X36868282Y-11051953D01*
G01X36874727Y-11023242D01*
G01X36874727Y-11023242D01*
G01X36933535Y-11031933D01*
G01X36935665Y-11032031D01*
G01X36935665Y-11032031D01*
G01X37007310Y-11015913D01*
G01X37037222Y-10996076D01*
G01X37037911Y-10995410D01*
G01X37037911Y-10995410D01*
G01X37070439Y-10935454D01*
G01X37073946Y-10910742D01*
G01X37073946Y-10910742D01*
G01X37055608Y-10849806D01*
G01X37049337Y-10841016D01*
G01X37049337Y-10841016D01*
G01X36993798Y-10813536D01*
G01X36980196Y-10812305D01*
G01X36980196Y-10812305D01*
G01X36916974Y-10826814D01*
G01X36894942Y-10836914D01*
G01X36894942Y-10836914D01*
G01X36837976Y-10877639D01*
G01X36816720Y-10898438D01*
G01X36816720Y-11072461D01*
G01X36816720Y-11072461D01*
G01X36819320Y-11162058D01*
G01X36825427Y-11230210D01*
G01X36832501Y-11277177D01*
G01X36838003Y-11303221D01*
G01X36839571Y-11309180D01*
G01X36839571Y-11309180D01*
G01X36794454Y-11318555D01*
G01X36794454Y-11318555D01*
G01X36748165Y-11304199D01*
G01X36748165Y-11304199D01*
G01X36735274Y-11256445D01*
G01X36735274Y-11256445D01*
G01X36735274Y-11256445D01*
G01X36735573Y-11206353D01*
G01X36736132Y-11138978D01*
G01X36736446Y-11103847D01*
G01X36736446Y-11103809D01*
G01X36736446Y-11103809D01*
G01X36737162Y-11014596D01*
G01X36737504Y-10953343D01*
G01X36737610Y-10919945D01*
G01X36737618Y-10913086D01*
G01X36737618Y-10773633D01*
G01X36737618Y-10773633D01*
G01X36737048Y-10660547D01*
G01X36735593Y-10573901D01*
G01X36733631Y-10510551D01*
G01X36731543Y-10467352D01*
G01X36729708Y-10441159D01*
G01X36728506Y-10428829D01*
G01X36728243Y-10426758D01*
G37*

G04 Pad flashes *
%LPD*%
D11*

G04 end of program *
M02*
