<?xml version="1.0" encoding="UTF-8"?>
<!-- Created by Makercase v3 -->
<svg width="341.58mm" height="285.93mm" viewBox="-5 -280.926342054634 341.58 285.93" version="1.1" xmlns="http://www.w3.org/2000/svg" xmlns:xlink="http://www.w3.org/1999/xlink"><path d="M60.767 -14.200L60.339 -14.629L59.696 -14.843L58.839 -14.843L58.196 -14.629L57.767 -14.200L57.767 -13.771L57.982 -13.343L58.196 -13.129L58.625 -12.914L59.910 -12.486L60.339 -12.271L60.553 -12.057L60.767 -11.629L60.767 -10.986L60.339 -10.557L59.696 -10.343L58.839 -10.343L58.196 -10.557L57.767 -10.986" fill="none" stroke="#777777" stroke-width="0.5"></path>
<path d="M62.053 -14.843L62.267 -14.629L62.482 -14.843L62.267 -15.057L62.053 -14.843Z" fill="none" stroke="#777777" stroke-width="0.5"></path>
<path d="M62.267 -13.343L62.267 -10.343" fill="none" stroke="#777777" stroke-width="0.5"></path>
<path d="M66.339 -14.843L66.339 -10.343" fill="none" stroke="#777777" stroke-width="0.5"></path>
<path d="M66.339 -12.700L65.910 -13.129L65.482 -13.343L64.839 -13.343L64.410 -13.129L63.982 -12.700L63.767 -12.057L63.767 -11.629L63.982 -10.986L64.410 -10.557L64.839 -10.343L65.482 -10.343L65.910 -10.557L66.339 -10.986" fill="none" stroke="#777777" stroke-width="0.5"></path>
<path d="M67.839 -12.057L70.410 -12.057L70.410 -12.486L70.196 -12.914L69.982 -13.129L69.553 -13.343L68.910 -13.343L68.482 -13.129L68.053 -12.700L67.839 -12.057L67.839 -11.629L68.053 -10.986L68.482 -10.557L68.910 -10.343L69.553 -10.343L69.982 -10.557L70.410 -10.986" fill="none" stroke="#777777" stroke-width="0.5"></path>
<path d="M72.982 -14.843L72.339 -14.629L71.910 -13.986L71.696 -12.914L71.696 -12.271L71.910 -11.200L72.339 -10.557L72.982 -10.343L73.410 -10.343L74.053 -10.557L74.482 -11.200L74.696 -12.271L74.696 -12.914L74.482 -13.986L74.053 -14.629L73.410 -14.843L72.982 -14.843Z" fill="none" stroke="#777777" stroke-width="0.5"></path>
<path d="M131.178 0.000L131.178 -25.400L0.000 -25.400L0.000 0.000L131.178 0.000Z" fill="none" stroke="#ff0000" stroke-width="0.100"></path>
<path d="M195.588 -14.200L195.159 -14.629L194.516 -14.843L193.659 -14.843L193.016 -14.629L192.588 -14.200L192.588 -13.771L192.802 -13.343L193.016 -13.129L193.445 -12.914L194.731 -12.486L195.159 -12.271L195.374 -12.057L195.588 -11.629L195.588 -10.986L195.159 -10.557L194.516 -10.343L193.659 -10.343L193.016 -10.557L192.588 -10.986" fill="none" stroke="#777777" stroke-width="0.5"></path>
<path d="M196.874 -14.843L197.088 -14.629L197.302 -14.843L197.088 -15.057L196.874 -14.843Z" fill="none" stroke="#777777" stroke-width="0.5"></path>
<path d="M197.088 -13.343L197.088 -10.343" fill="none" stroke="#777777" stroke-width="0.5"></path>
<path d="M201.159 -14.843L201.159 -10.343" fill="none" stroke="#777777" stroke-width="0.5"></path>
<path d="M201.159 -12.700L200.731 -13.129L200.302 -13.343L199.659 -13.343L199.231 -13.129L198.802 -12.700L198.588 -12.057L198.588 -11.629L198.802 -10.986L199.231 -10.557L199.659 -10.343L200.302 -10.343L200.731 -10.557L201.159 -10.986" fill="none" stroke="#777777" stroke-width="0.5"></path>
<path d="M202.659 -12.057L205.231 -12.057L205.231 -12.486L205.016 -12.914L204.802 -13.129L204.374 -13.343L203.731 -13.343L203.302 -13.129L202.874 -12.700L202.659 -12.057L202.659 -11.629L202.874 -10.986L203.302 -10.557L203.731 -10.343L204.374 -10.343L204.802 -10.557L205.231 -10.986" fill="none" stroke="#777777" stroke-width="0.5"></path>
<path d="M207.159 -13.986L207.588 -14.200L208.231 -14.843L208.231 -10.343" fill="none" stroke="#777777" stroke-width="0.5"></path>
<path d="M265.355 0.000L265.355 -25.400L134.178 -25.400L134.178 0.000L265.355 0.000Z" fill="none" stroke="#ff0000" stroke-width="0.100"></path>
<path d="M60.767 -42.600L60.339 -43.029L59.696 -43.243L58.839 -43.243L58.196 -43.029L57.767 -42.600L57.767 -42.171L57.982 -41.743L58.196 -41.529L58.625 -41.314L59.910 -40.886L60.339 -40.671L60.553 -40.457L60.767 -40.029L60.767 -39.386L60.339 -38.957L59.696 -38.743L58.839 -38.743L58.196 -38.957L57.767 -39.386" fill="none" stroke="#777777" stroke-width="0.5"></path>
<path d="M62.053 -43.243L62.267 -43.029L62.482 -43.243L62.267 -43.457L62.053 -43.243Z" fill="none" stroke="#777777" stroke-width="0.5"></path>
<path d="M62.267 -41.743L62.267 -38.743" fill="none" stroke="#777777" stroke-width="0.5"></path>
<path d="M66.339 -43.243L66.339 -38.743" fill="none" stroke="#777777" stroke-width="0.5"></path>
<path d="M66.339 -41.100L65.910 -41.529L65.482 -41.743L64.839 -41.743L64.410 -41.529L63.982 -41.100L63.767 -40.457L63.767 -40.029L63.982 -39.386L64.410 -38.957L64.839 -38.743L65.482 -38.743L65.910 -38.957L66.339 -39.386" fill="none" stroke="#777777" stroke-width="0.5"></path>
<path d="M67.839 -40.457L70.410 -40.457L70.410 -40.886L70.196 -41.314L69.982 -41.529L69.553 -41.743L68.910 -41.743L68.482 -41.529L68.053 -41.100L67.839 -40.457L67.839 -40.029L68.053 -39.386L68.482 -38.957L68.910 -38.743L69.553 -38.743L69.982 -38.957L70.410 -39.386" fill="none" stroke="#777777" stroke-width="0.5"></path>
<path d="M71.910 -42.171L71.910 -42.386L72.125 -42.814L72.339 -43.029L72.767 -43.243L73.625 -43.243L74.053 -43.029L74.267 -42.814L74.482 -42.386L74.482 -41.957L74.267 -41.529L73.839 -40.886L71.696 -38.743L74.696 -38.743" fill="none" stroke="#777777" stroke-width="0.5"></path>
<path d="M131.178 -28.400L131.178 -53.800L0.000 -53.800L0.000 -28.400L131.178 -28.400Z" fill="none" stroke="#ff0000" stroke-width="0.100"></path>
<path d="M194.945 -42.600L194.516 -43.029L193.874 -43.243L193.016 -43.243L192.374 -43.029L191.945 -42.600L191.945 -42.171L192.159 -41.743L192.374 -41.529L192.802 -41.314L194.088 -40.886L194.516 -40.671L194.731 -40.457L194.945 -40.029L194.945 -39.386L194.516 -38.957L193.874 -38.743L193.016 -38.743L192.374 -38.957L191.945 -39.386" fill="none" stroke="#777777" stroke-width="0.5"></path>
<path d="M196.231 -43.243L196.445 -43.029L196.659 -43.243L196.445 -43.457L196.231 -43.243Z" fill="none" stroke="#777777" stroke-width="0.5"></path>
<path d="M196.445 -41.743L196.445 -38.743" fill="none" stroke="#777777" stroke-width="0.5"></path>
<path d="M200.516 -43.243L200.516 -38.743" fill="none" stroke="#777777" stroke-width="0.5"></path>
<path d="M200.516 -41.100L200.088 -41.529L199.659 -41.743L199.016 -41.743L198.588 -41.529L198.159 -41.100L197.945 -40.457L197.945 -40.029L198.159 -39.386L198.588 -38.957L199.016 -38.743L199.659 -38.743L200.088 -38.957L200.516 -39.386" fill="none" stroke="#777777" stroke-width="0.5"></path>
<path d="M202.016 -40.457L204.588 -40.457L204.588 -40.886L204.374 -41.314L204.159 -41.529L203.731 -41.743L203.088 -41.743L202.659 -41.529L202.231 -41.100L202.016 -40.457L202.016 -40.029L202.231 -39.386L202.659 -38.957L203.088 -38.743L203.731 -38.743L204.159 -38.957L204.588 -39.386" fill="none" stroke="#777777" stroke-width="0.5"></path>
<path d="M206.302 -43.243L208.659 -43.243L207.374 -41.529L208.016 -41.529L208.445 -41.314L208.659 -41.100L208.874 -40.457L208.874 -40.029L208.659 -39.386L208.231 -38.957L207.588 -38.743L206.945 -38.743L206.302 -38.957L206.088 -39.171L205.874 -39.600" fill="none" stroke="#777777" stroke-width="0.5"></path>
<path d="M265.355 -28.400L265.355 -53.800L134.178 -53.800L134.178 -28.400L265.355 -28.400Z" fill="none" stroke="#ff0000" stroke-width="0.100"></path>
<path d="M60.660 -71.000L60.232 -71.429L59.589 -71.643L58.732 -71.643L58.089 -71.429L57.660 -71.000L57.660 -70.571L57.875 -70.143L58.089 -69.929L58.517 -69.714L59.803 -69.286L60.232 -69.071L60.446 -68.857L60.660 -68.429L60.660 -67.786L60.232 -67.357L59.589 -67.143L58.732 -67.143L58.089 -67.357L57.660 -67.786" fill="none" stroke="#777777" stroke-width="0.5"></path>
<path d="M61.946 -71.643L62.160 -71.429L62.375 -71.643L62.160 -71.857L61.946 -71.643Z" fill="none" stroke="#777777" stroke-width="0.5"></path>
<path d="M62.160 -70.143L62.160 -67.143" fill="none" stroke="#777777" stroke-width="0.5"></path>
<path d="M66.232 -71.643L66.232 -67.143" fill="none" stroke="#777777" stroke-width="0.5"></path>
<path d="M66.232 -69.500L65.803 -69.929L65.375 -70.143L64.732 -70.143L64.303 -69.929L63.875 -69.500L63.660 -68.857L63.660 -68.429L63.875 -67.786L64.303 -67.357L64.732 -67.143L65.375 -67.143L65.803 -67.357L66.232 -67.786" fill="none" stroke="#777777" stroke-width="0.5"></path>
<path d="M67.732 -68.857L70.303 -68.857L70.303 -69.286L70.089 -69.714L69.875 -69.929L69.446 -70.143L68.803 -70.143L68.375 -69.929L67.946 -69.500L67.732 -68.857L67.732 -68.429L67.946 -67.786L68.375 -67.357L68.803 -67.143L69.446 -67.143L69.875 -67.357L70.303 -67.786" fill="none" stroke="#777777" stroke-width="0.5"></path>
<path d="M73.732 -71.643L71.589 -68.643L74.803 -68.643" fill="none" stroke="#777777" stroke-width="0.5"></path>
<path d="M73.732 -71.643L73.732 -67.143" fill="none" stroke="#777777" stroke-width="0.5"></path>
<path d="M131.178 -56.800L131.178 -82.200L0.000 -82.200L0.000 -56.800L131.178 -56.800Z" fill="none" stroke="#ff0000" stroke-width="0.100"></path>
<path d="M227.986 -168.613L227.986 -164.113" fill="none" stroke="#777777" stroke-width="0.5"></path>
<path d="M227.986 -168.613L229.914 -168.613L230.557 -168.399L230.771 -168.185L230.986 -167.756L230.986 -167.327L230.771 -166.899L230.557 -166.685L229.914 -166.470" fill="none" stroke="#777777" stroke-width="0.5"></path>
<path d="M227.986 -166.470L229.914 -166.470L230.557 -166.256L230.771 -166.042L230.986 -165.613L230.986 -164.970L230.771 -164.542L230.557 -164.327L229.914 -164.113L227.986 -164.113" fill="none" stroke="#777777" stroke-width="0.5"></path>
<path d="M233.343 -167.113L232.914 -166.899L232.486 -166.470L232.271 -165.827L232.271 -165.399L232.486 -164.756L232.914 -164.327L233.343 -164.113L233.986 -164.113L234.414 -164.327L234.843 -164.756L235.057 -165.399L235.057 -165.827L234.843 -166.470L234.414 -166.899L233.986 -167.113L233.343 -167.113Z" fill="none" stroke="#777777" stroke-width="0.5"></path>
<path d="M236.771 -168.613L236.771 -164.970L236.986 -164.327L237.414 -164.113L237.843 -164.113" fill="none" stroke="#777777" stroke-width="0.5"></path>
<path d="M236.128 -167.113L237.628 -167.113" fill="none" stroke="#777777" stroke-width="0.5"></path>
<path d="M239.343 -168.613L239.343 -164.970L239.557 -164.327L239.986 -164.113L240.414 -164.113" fill="none" stroke="#777777" stroke-width="0.5"></path>
<path d="M238.700 -167.113L240.200 -167.113" fill="none" stroke="#777777" stroke-width="0.5"></path>
<path d="M242.557 -167.113L242.128 -166.899L241.700 -166.470L241.486 -165.827L241.486 -165.399L241.700 -164.756L242.128 -164.327L242.557 -164.113L243.200 -164.113L243.628 -164.327L244.057 -164.756L244.271 -165.399L244.271 -165.827L244.057 -166.470L243.628 -166.899L243.200 -167.113L242.557 -167.113Z" fill="none" stroke="#777777" stroke-width="0.5"></path>
<path d="M245.771 -167.113L245.771 -164.113" fill="none" stroke="#777777" stroke-width="0.5"></path>
<path d="M245.771 -166.256L246.414 -166.899L246.843 -167.113L247.486 -167.113L247.914 -166.899L248.128 -166.256L248.128 -164.113" fill="none" stroke="#777777" stroke-width="0.5"></path>
<path d="M248.128 -166.256L248.771 -166.899L249.200 -167.113L249.843 -167.113L250.271 -166.899L250.486 -166.256L250.486 -164.113" fill="none" stroke="#777777" stroke-width="0.5"></path>
<path d="M331.578 -234.077L202.779 -275.926L123.177 -166.363L202.779 -56.800L331.578 -98.649L331.578 -234.077Z" fill="none" stroke="#ff0000" stroke-width="0.100"></path></svg>