<?xml version="1.0" encoding="UTF-8" standalone="no"?>
<!-- Created with Fritzing (http://www.fritzing.org/) -->

<svg
   xmlns:dc="http://purl.org/dc/elements/1.1/"
   xmlns:cc="http://creativecommons.org/ns#"
   xmlns:rdf="http://www.w3.org/1999/02/22-rdf-syntax-ns#"
   xmlns:svg="http://www.w3.org/2000/svg"
   xmlns="http://www.w3.org/2000/svg"
   xmlns:sodipodi="http://sodipodi.sourceforge.net/DTD/sodipodi-0.dtd"
   xmlns:inkscape="http://www.inkscape.org/namespaces/inkscape"
   version="1.2"
   height="126.89999"
   x="0in"
   width="63.899998"
   y="0in"
   viewBox="0 0 709.99999 1410"
   id="svg2"
   inkscape:version="0.48.5 r10040"
   sodipodi:docname="TheCuttle_pcb.svg">
  <metadata
     id="metadata55">
    <rdf:RDF>
      <cc:Work
         rdf:about="">
        <dc:format>image/svg+xml</dc:format>
        <dc:type
           rdf:resource="http://purl.org/dc/dcmitype/StillImage" />
      </cc:Work>
    </rdf:RDF>
  </metadata>
  <defs
     id="defs53" />
  <sodipodi:namedview
     pagecolor="#ffffff"
     bordercolor="#666666"
     borderopacity="1"
     objecttolerance="10"
     gridtolerance="10"
     guidetolerance="10"
     inkscape:pageopacity="0"
     inkscape:pageshadow="2"
     inkscape:window-width="810"
     inkscape:window-height="563"
     id="namedview51"
     showgrid="false"
     inkscape:zoom="1.8466354"
     inkscape:cx="18.449999"
     inkscape:cy="63.449998"
     inkscape:window-x="0"
     inkscape:window-y="0"
     inkscape:window-maximized="0"
     inkscape:current-layer="svg2"
     fit-margin-top="0"
     fit-margin-left="0"
     fit-margin-right="0"
     fit-margin-bottom="0" />
  <desc
     id="desc4">
    <referenceFile
       id="referenceFile6">atmega_pcb_8e4b4f3e54f56b3f712afc6a8e6a8a71.svg</referenceFile>
  </desc>
  <g
     gorn="0.1"
     id="copper1"
     style="stroke-width:0"
     transform="translate(-5.0000033,-5)">
    <g
       gorn="0.1.0"
       id="copper0"
       style="stroke-width:0">
      <rect
         height="55"
         x="32.5"
         width="55"
         y="32.5"
         id="rect10"
         style="fill:none;stroke:#ffbf00;stroke-width:20" />
      <circle
         gorn="0.1.0.1"
         id="connector0pin"
         cx="60"
         cy="60"
         r="27.5"
         sodipodi:cx="60"
         sodipodi:cy="60"
         sodipodi:rx="27.5"
         sodipodi:ry="27.5"
         style="fill:none;stroke:#ffbf00;stroke-width:20"
         d="M 87.5,60 C 87.5,75.187831 75.187831,87.5 60,87.5 44.812169,87.5 32.5,75.187831 32.5,60 32.5,44.812169 44.812169,32.5 60,32.5 75.187831,32.5 87.5,44.812169 87.5,60 z" />
      <circle
         gorn="0.1.0.2"
         id="connector27pin"
         cx="360"
         cy="60"
         r="27.5"
         sodipodi:cx="360"
         sodipodi:cy="60"
         sodipodi:rx="27.5"
         sodipodi:ry="27.5"
         style="fill:none;stroke:#ffbf00;stroke-width:20"
         d="m 387.5,60 c 0,15.187831 -12.31217,27.5 -27.5,27.5 -15.18783,0 -27.5,-12.312169 -27.5,-27.5 0,-15.187831 12.31217,-27.5 27.5,-27.5 15.18783,0 27.5,12.312169 27.5,27.5 z" />
      <circle
         gorn="0.1.0.3"
         id="connector1pin"
         cx="60"
         cy="160"
         r="27.5"
         sodipodi:cx="60"
         sodipodi:cy="160"
         sodipodi:rx="27.5"
         sodipodi:ry="27.5"
         style="fill:none;stroke:#ffbf00;stroke-width:20"
         d="m 87.5,160 c 0,15.18783 -12.312169,27.5 -27.5,27.5 -15.187831,0 -27.5,-12.31217 -27.5,-27.5 0,-15.18783 12.312169,-27.5 27.5,-27.5 15.187831,0 27.5,12.31217 27.5,27.5 z" />
      <circle
         gorn="0.1.0.4"
         id="connector26pin"
         cx="360"
         cy="160"
         r="27.5"
         sodipodi:cx="360"
         sodipodi:cy="160"
         sodipodi:rx="27.5"
         sodipodi:ry="27.5"
         style="fill:none;stroke:#ffbf00;stroke-width:20"
         d="m 387.5,160 c 0,15.18783 -12.31217,27.5 -27.5,27.5 -15.18783,0 -27.5,-12.31217 -27.5,-27.5 0,-15.18783 12.31217,-27.5 27.5,-27.5 15.18783,0 27.5,12.31217 27.5,27.5 z" />
      <circle
         gorn="0.1.0.5"
         id="connector2pin"
         cx="60"
         cy="260"
         r="27.5"
         sodipodi:cx="60"
         sodipodi:cy="260"
         sodipodi:rx="27.5"
         sodipodi:ry="27.5"
         style="fill:none;stroke:#ffbf00;stroke-width:20"
         d="m 87.5,260 c 0,15.18783 -12.312169,27.5 -27.5,27.5 -15.187831,0 -27.5,-12.31217 -27.5,-27.5 0,-15.18783 12.312169,-27.5 27.5,-27.5 15.187831,0 27.5,12.31217 27.5,27.5 z" />
      <circle
         gorn="0.1.0.6"
         id="connector25pin"
         cx="360"
         cy="260"
         r="27.5"
         sodipodi:cx="360"
         sodipodi:cy="260"
         sodipodi:rx="27.5"
         sodipodi:ry="27.5"
         style="fill:none;stroke:#ffbf00;stroke-width:20"
         d="m 387.5,260 c 0,15.18783 -12.31217,27.5 -27.5,27.5 -15.18783,0 -27.5,-12.31217 -27.5,-27.5 0,-15.18783 12.31217,-27.5 27.5,-27.5 15.18783,0 27.5,12.31217 27.5,27.5 z" />
      <circle
         gorn="0.1.0.7"
         id="connector3pin"
         cx="60"
         cy="360"
         r="27.5"
         sodipodi:cx="60"
         sodipodi:cy="360"
         sodipodi:rx="27.5"
         sodipodi:ry="27.5"
         style="fill:none;stroke:#ffbf00;stroke-width:20"
         d="m 87.5,360 c 0,15.18783 -12.312169,27.5 -27.5,27.5 -15.187831,0 -27.5,-12.31217 -27.5,-27.5 0,-15.18783 12.312169,-27.5 27.5,-27.5 15.187831,0 27.5,12.31217 27.5,27.5 z" />
      <circle
         gorn="0.1.0.8"
         id="connector24pin"
         cx="360"
         cy="360"
         r="27.5"
         sodipodi:cx="360"
         sodipodi:cy="360"
         sodipodi:rx="27.5"
         sodipodi:ry="27.5"
         style="fill:none;stroke:#ffbf00;stroke-width:20"
         d="m 387.5,360 c 0,15.18783 -12.31217,27.5 -27.5,27.5 -15.18783,0 -27.5,-12.31217 -27.5,-27.5 0,-15.18783 12.31217,-27.5 27.5,-27.5 15.18783,0 27.5,12.31217 27.5,27.5 z" />
      <circle
         gorn="0.1.0.9"
         id="connector4pin"
         cx="60"
         cy="460"
         r="27.5"
         sodipodi:cx="60"
         sodipodi:cy="460"
         sodipodi:rx="27.5"
         sodipodi:ry="27.5"
         style="fill:none;stroke:#ffbf00;stroke-width:20"
         d="m 87.5,460 c 0,15.18783 -12.312169,27.5 -27.5,27.5 -15.187831,0 -27.5,-12.31217 -27.5,-27.5 0,-15.18783 12.312169,-27.5 27.5,-27.5 15.187831,0 27.5,12.31217 27.5,27.5 z" />
      <circle
         gorn="0.1.0.10"
         id="connector23pin"
         cx="360"
         cy="460"
         r="27.5"
         sodipodi:cx="360"
         sodipodi:cy="460"
         sodipodi:rx="27.5"
         sodipodi:ry="27.5"
         style="fill:none;stroke:#ffbf00;stroke-width:20"
         d="m 387.5,460 c 0,15.18783 -12.31217,27.5 -27.5,27.5 -15.18783,0 -27.5,-12.31217 -27.5,-27.5 0,-15.18783 12.31217,-27.5 27.5,-27.5 15.18783,0 27.5,12.31217 27.5,27.5 z" />
      <circle
         gorn="0.1.0.11"
         id="connector5pin"
         cx="60"
         cy="560"
         r="27.5"
         sodipodi:cx="60"
         sodipodi:cy="560"
         sodipodi:rx="27.5"
         sodipodi:ry="27.5"
         style="fill:none;stroke:#ffbf00;stroke-width:20"
         d="m 87.5,560 c 0,15.18783 -12.312169,27.5 -27.5,27.5 -15.187831,0 -27.5,-12.31217 -27.5,-27.5 0,-15.18783 12.312169,-27.5 27.5,-27.5 15.187831,0 27.5,12.31217 27.5,27.5 z" />
      <circle
         gorn="0.1.0.12"
         id="connector22pin"
         cx="360"
         cy="560"
         r="27.5"
         sodipodi:cx="360"
         sodipodi:cy="560"
         sodipodi:rx="27.5"
         sodipodi:ry="27.5"
         style="fill:none;stroke:#ffbf00;stroke-width:20"
         d="m 387.5,560 c 0,15.18783 -12.31217,27.5 -27.5,27.5 -15.18783,0 -27.5,-12.31217 -27.5,-27.5 0,-15.18783 12.31217,-27.5 27.5,-27.5 15.18783,0 27.5,12.31217 27.5,27.5 z" />
      <circle
         gorn="0.1.0.13"
         id="connector6pin"
         cx="60"
         cy="660"
         r="27.5"
         sodipodi:cx="60"
         sodipodi:cy="660"
         sodipodi:rx="27.5"
         sodipodi:ry="27.5"
         style="fill:none;stroke:#ffbf00;stroke-width:20"
         d="m 87.5,660 c 0,15.18783 -12.312169,27.5 -27.5,27.5 -15.187831,0 -27.5,-12.31217 -27.5,-27.5 0,-15.18783 12.312169,-27.5 27.5,-27.5 15.187831,0 27.5,12.31217 27.5,27.5 z" />
      <circle
         gorn="0.1.0.14"
         id="connector21pin"
         cx="360"
         cy="660"
         r="27.5"
         sodipodi:cx="360"
         sodipodi:cy="660"
         sodipodi:rx="27.5"
         sodipodi:ry="27.5"
         style="fill:none;stroke:#ffbf00;stroke-width:20"
         d="m 387.5,660 c 0,15.18783 -12.31217,27.5 -27.5,27.5 -15.18783,0 -27.5,-12.31217 -27.5,-27.5 0,-15.18783 12.31217,-27.5 27.5,-27.5 15.18783,0 27.5,12.31217 27.5,27.5 z" />
      <circle
         gorn="0.1.0.15"
         id="connector7pin"
         cx="60"
         cy="760"
         r="27.5"
         sodipodi:cx="60"
         sodipodi:cy="760"
         sodipodi:rx="27.5"
         sodipodi:ry="27.5"
         style="fill:none;stroke:#ffbf00;stroke-width:20"
         d="m 87.5,760 c 0,15.18783 -12.312169,27.5 -27.5,27.5 -15.187831,0 -27.5,-12.31217 -27.5,-27.5 0,-15.18783 12.312169,-27.5 27.5,-27.5 15.187831,0 27.5,12.31217 27.5,27.5 z" />
      <circle
         gorn="0.1.0.16"
         id="connector20pin"
         cx="360"
         cy="760"
         r="27.5"
         sodipodi:cx="360"
         sodipodi:cy="760"
         sodipodi:rx="27.5"
         sodipodi:ry="27.5"
         style="fill:none;stroke:#ffbf00;stroke-width:20"
         d="m 387.5,760 c 0,15.18783 -12.31217,27.5 -27.5,27.5 -15.18783,0 -27.5,-12.31217 -27.5,-27.5 0,-15.18783 12.31217,-27.5 27.5,-27.5 15.18783,0 27.5,12.31217 27.5,27.5 z" />
      <circle
         gorn="0.1.0.17"
         id="connector8pin"
         cx="60"
         cy="860"
         r="27.5"
         sodipodi:cx="60"
         sodipodi:cy="860"
         sodipodi:rx="27.5"
         sodipodi:ry="27.5"
         style="fill:none;stroke:#ffbf00;stroke-width:20"
         d="m 87.5,860 c 0,15.18783 -12.312169,27.5 -27.5,27.5 -15.187831,0 -27.5,-12.31217 -27.5,-27.5 0,-15.18783 12.312169,-27.5 27.5,-27.5 15.187831,0 27.5,12.31217 27.5,27.5 z" />
      <circle
         gorn="0.1.0.18"
         id="connector19pin"
         cx="360"
         cy="860"
         r="27.5"
         sodipodi:cx="360"
         sodipodi:cy="860"
         sodipodi:rx="27.5"
         sodipodi:ry="27.5"
         style="fill:none;stroke:#ffbf00;stroke-width:20"
         d="m 387.5,860 c 0,15.18783 -12.31217,27.5 -27.5,27.5 -15.18783,0 -27.5,-12.31217 -27.5,-27.5 0,-15.18783 12.31217,-27.5 27.5,-27.5 15.18783,0 27.5,12.31217 27.5,27.5 z" />
      <circle
         gorn="0.1.0.19"
         id="connector9pin"
         cx="60"
         cy="960"
         r="27.5"
         sodipodi:cx="60"
         sodipodi:cy="960"
         sodipodi:rx="27.5"
         sodipodi:ry="27.5"
         style="fill:none;stroke:#ffbf00;stroke-width:20"
         d="m 87.5,960 c 0,15.18783 -12.312169,27.5 -27.5,27.5 -15.187831,0 -27.5,-12.31217 -27.5,-27.5 0,-15.18783 12.312169,-27.5 27.5,-27.5 15.187831,0 27.5,12.31217 27.5,27.5 z" />
      <circle
         gorn="0.1.0.20"
         id="connector18pin"
         cx="360"
         cy="960"
         r="27.5"
         sodipodi:cx="360"
         sodipodi:cy="960"
         sodipodi:rx="27.5"
         sodipodi:ry="27.5"
         style="fill:none;stroke:#ffbf00;stroke-width:20"
         d="m 387.5,960 c 0,15.18783 -12.31217,27.5 -27.5,27.5 -15.18783,0 -27.5,-12.31217 -27.5,-27.5 0,-15.18783 12.31217,-27.5 27.5,-27.5 15.18783,0 27.5,12.31217 27.5,27.5 z" />
      <circle
         gorn="0.1.0.21"
         id="connector10pin"
         cx="60"
         cy="1060"
         r="27.5"
         sodipodi:cx="60"
         sodipodi:cy="1060"
         sodipodi:rx="27.5"
         sodipodi:ry="27.5"
         style="fill:none;stroke:#ffbf00;stroke-width:20"
         d="m 87.5,1060 c 0,15.1878 -12.312169,27.5 -27.5,27.5 -15.187831,0 -27.5,-12.3122 -27.5,-27.5 0,-15.1878 12.312169,-27.5 27.5,-27.5 15.187831,0 27.5,12.3122 27.5,27.5 z" />
      <circle
         gorn="0.1.0.22"
         id="connector17pin"
         cx="360"
         cy="1060"
         r="27.5"
         sodipodi:cx="360"
         sodipodi:cy="1060"
         sodipodi:rx="27.5"
         sodipodi:ry="27.5"
         style="fill:none;stroke:#ffbf00;stroke-width:20"
         d="m 387.5,1060 c 0,15.1878 -12.31217,27.5 -27.5,27.5 -15.18783,0 -27.5,-12.3122 -27.5,-27.5 0,-15.1878 12.31217,-27.5 27.5,-27.5 15.18783,0 27.5,12.3122 27.5,27.5 z" />
      <circle
         gorn="0.1.0.23"
         id="connector11pin"
         cx="60"
         cy="1160"
         r="27.5"
         sodipodi:cx="60"
         sodipodi:cy="1160"
         sodipodi:rx="27.5"
         sodipodi:ry="27.5"
         style="fill:none;stroke:#ffbf00;stroke-width:20"
         d="m 87.5,1160 c 0,15.1878 -12.312169,27.5 -27.5,27.5 -15.187831,0 -27.5,-12.3122 -27.5,-27.5 0,-15.1878 12.312169,-27.5 27.5,-27.5 15.187831,0 27.5,12.3122 27.5,27.5 z" />
      <circle
         gorn="0.1.0.24"
         id="connector16pin"
         cx="360"
         cy="1160"
         r="27.5"
         sodipodi:cx="360"
         sodipodi:cy="1160"
         sodipodi:rx="27.5"
         sodipodi:ry="27.5"
         style="fill:none;stroke:#ffbf00;stroke-width:20"
         d="m 387.5,1160 c 0,15.1878 -12.31217,27.5 -27.5,27.5 -15.18783,0 -27.5,-12.3122 -27.5,-27.5 0,-15.1878 12.31217,-27.5 27.5,-27.5 15.18783,0 27.5,12.3122 27.5,27.5 z" />
      <circle
         gorn="0.1.0.25"
         id="connector12pin"
         cx="60"
         cy="1260"
         r="27.5"
         sodipodi:cx="60"
         sodipodi:cy="1260"
         sodipodi:rx="27.5"
         sodipodi:ry="27.5"
         style="fill:none;stroke:#ffbf00;stroke-width:20"
         d="m 87.5,1260 c 0,15.1878 -12.312169,27.5 -27.5,27.5 -15.187831,0 -27.5,-12.3122 -27.5,-27.5 0,-15.1878 12.312169,-27.5 27.5,-27.5 15.187831,0 27.5,12.3122 27.5,27.5 z" />
      <circle
         gorn="0.1.0.26"
         id="connector15pin"
         cx="360"
         cy="1260"
         r="27.5"
         sodipodi:cx="360"
         sodipodi:cy="1260"
         sodipodi:rx="27.5"
         sodipodi:ry="27.5"
         style="fill:none;stroke:#ffbf00;stroke-width:20"
         d="m 387.5,1260 c 0,15.1878 -12.31217,27.5 -27.5,27.5 -15.18783,0 -27.5,-12.3122 -27.5,-27.5 0,-15.1878 12.31217,-27.5 27.5,-27.5 15.18783,0 27.5,12.3122 27.5,27.5 z" />
      <circle
         gorn="0.1.0.27"
         id="connector13pin"
         cx="60"
         cy="1360"
         r="27.5"
         sodipodi:cx="60"
         sodipodi:cy="1360"
         sodipodi:rx="27.5"
         sodipodi:ry="27.5"
         style="fill:none;stroke:#ffbf00;stroke-width:20"
         d="m 87.5,1360 c 0,15.1878 -12.312169,27.5 -27.5,27.5 -15.187831,0 -27.5,-12.3122 -27.5,-27.5 0,-15.1878 12.312169,-27.5 27.5,-27.5 15.187831,0 27.5,12.3122 27.5,27.5 z" />
      <circle
         gorn="0.1.0.28"
         id="connector14pin"
         cx="360"
         cy="1360"
         r="27.5"
         sodipodi:cx="360"
         sodipodi:cy="1360"
         sodipodi:rx="27.5"
         sodipodi:ry="27.5"
         style="fill:none;stroke:#ffbf00;stroke-width:20"
         d="m 387.5,1360 c 0,15.1878 -12.31217,27.5 -27.5,27.5 -15.18783,0 -27.5,-12.3122 -27.5,-27.5 0,-15.1878 12.31217,-27.5 27.5,-27.5 15.18783,0 27.5,12.3122 27.5,27.5 z" />
      <circle
         r="27.5"
         cy="60"
         cx="60"
         id="connector28pin"
         gorn="0.1.0.1"
         sodipodi:cx="60"
         sodipodi:cy="60"
         sodipodi:rx="27.5"
         sodipodi:ry="27.5"
         transform="translate(555.55552,0)"
         style="fill:none;stroke:#ffbf00;stroke-width:20"
         d="M 87.5,60 C 87.5,75.187831 75.187831,87.5 60,87.5 44.812169,87.5 32.5,75.187831 32.5,60 32.5,44.812169 44.812169,32.5 60,32.5 75.187831,32.5 87.5,44.812169 87.5,60 z" />
      <circle
         r="27.5"
         cy="160"
         cx="60"
         id="connector29pin"
         gorn="0.1.0.3"
         sodipodi:cx="60"
         sodipodi:cy="160"
         sodipodi:rx="27.5"
         sodipodi:ry="27.5"
         transform="translate(555.55552,0)"
         style="fill:none;stroke:#ffbf00;stroke-width:20"
         d="m 87.5,160 c 0,15.18783 -12.312169,27.5 -27.5,27.5 -15.187831,0 -27.5,-12.31217 -27.5,-27.5 0,-15.18783 12.312169,-27.5 27.5,-27.5 15.187831,0 27.5,12.31217 27.5,27.5 z" />
      <circle
         r="27.5"
         cy="260"
         cx="60"
         id="connector30pin"
         gorn="0.1.0.5"
         sodipodi:cx="60"
         sodipodi:cy="260"
         sodipodi:rx="27.5"
         sodipodi:ry="27.5"
         transform="translate(555.55552,0)"
         style="fill:none;stroke:#ffbf00;stroke-width:20"
         d="m 87.5,260 c 0,15.18783 -12.312169,27.5 -27.5,27.5 -15.187831,0 -27.5,-12.31217 -27.5,-27.5 0,-15.18783 12.312169,-27.5 27.5,-27.5 15.187831,0 27.5,12.31217 27.5,27.5 z" />
      <circle
         r="27.5"
         cy="360"
         cx="60"
         id="connector31pin"
         gorn="0.1.0.7"
         sodipodi:cx="60"
         sodipodi:cy="360"
         sodipodi:rx="27.5"
         sodipodi:ry="27.5"
         transform="translate(555.55552,0)"
         style="fill:none;stroke:#ffbf00;stroke-width:20"
         d="m 87.5,360 c 0,15.18783 -12.312169,27.5 -27.5,27.5 -15.187831,0 -27.5,-12.31217 -27.5,-27.5 0,-15.18783 12.312169,-27.5 27.5,-27.5 15.187831,0 27.5,12.31217 27.5,27.5 z" />
      <circle
         r="27.5"
         cy="460"
         cx="60"
         id="connector32pin"
         gorn="0.1.0.9"
         sodipodi:cx="60"
         sodipodi:cy="460"
         sodipodi:rx="27.5"
         sodipodi:ry="27.5"
         transform="translate(555.55552,0)"
         style="fill:none;stroke:#ffbf00;stroke-width:20"
         d="m 87.5,460 c 0,15.18783 -12.312169,27.5 -27.5,27.5 -15.187831,0 -27.5,-12.31217 -27.5,-27.5 0,-15.18783 12.312169,-27.5 27.5,-27.5 15.187831,0 27.5,12.31217 27.5,27.5 z" />
      <circle
         r="27.5"
         cy="560"
         cx="60"
         id="connector33pin"
         gorn="0.1.0.11"
         sodipodi:cx="60"
         sodipodi:cy="560"
         sodipodi:rx="27.5"
         sodipodi:ry="27.5"
         transform="translate(555.55552,0)"
         style="fill:none;stroke:#ffbf00;stroke-width:20"
         d="m 87.5,560 c 0,15.18783 -12.312169,27.5 -27.5,27.5 -15.187831,0 -27.5,-12.31217 -27.5,-27.5 0,-15.18783 12.312169,-27.5 27.5,-27.5 15.187831,0 27.5,12.31217 27.5,27.5 z" />
      <circle
         r="27.5"
         cy="660"
         cx="60"
         id="connector34pin"
         gorn="0.1.0.13"
         sodipodi:cx="60"
         sodipodi:cy="660"
         sodipodi:rx="27.5"
         sodipodi:ry="27.5"
         transform="translate(555.55552,0)"
         style="fill:none;stroke:#ffbf00;stroke-width:20"
         d="m 87.5,660 c 0,15.18783 -12.312169,27.5 -27.5,27.5 -15.187831,0 -27.5,-12.31217 -27.5,-27.5 0,-15.18783 12.312169,-27.5 27.5,-27.5 15.187831,0 27.5,12.31217 27.5,27.5 z" />
      <circle
         r="27.5"
         cy="760"
         cx="60"
         id="connector35pin"
         gorn="0.1.0.15"
         sodipodi:cx="60"
         sodipodi:cy="760"
         sodipodi:rx="27.5"
         sodipodi:ry="27.5"
         transform="translate(555.55552,0)"
         style="fill:none;stroke:#ffbf00;stroke-width:20"
         d="m 87.5,760 c 0,15.18783 -12.312169,27.5 -27.5,27.5 -15.187831,0 -27.5,-12.31217 -27.5,-27.5 0,-15.18783 12.312169,-27.5 27.5,-27.5 15.187831,0 27.5,12.31217 27.5,27.5 z" />
      <circle
         r="27.5"
         cy="860"
         cx="60"
         id="connector36pin"
         gorn="0.1.0.17"
         sodipodi:cx="60"
         sodipodi:cy="860"
         sodipodi:rx="27.5"
         sodipodi:ry="27.5"
         transform="translate(555.55552,0)"
         style="fill:none;stroke:#ffbf00;stroke-width:20"
         d="m 87.5,860 c 0,15.18783 -12.312169,27.5 -27.5,27.5 -15.187831,0 -27.5,-12.31217 -27.5,-27.5 0,-15.18783 12.312169,-27.5 27.5,-27.5 15.187831,0 27.5,12.31217 27.5,27.5 z" />
      <circle
         r="27.5"
         cy="960"
         cx="60"
         id="connector37pin"
         gorn="0.1.0.19"
         sodipodi:cx="60"
         sodipodi:cy="960"
         sodipodi:rx="27.5"
         sodipodi:ry="27.5"
         transform="translate(555.55552,0)"
         style="fill:none;stroke:#ffbf00;stroke-width:20"
         d="m 87.5,960 c 0,15.18783 -12.312169,27.5 -27.5,27.5 -15.187831,0 -27.5,-12.31217 -27.5,-27.5 0,-15.18783 12.312169,-27.5 27.5,-27.5 15.187831,0 27.5,12.31217 27.5,27.5 z" />
    </g>
  </g>
  <g
     gorn="0.2"
     id="silkscreen"
     style="stroke-width:0"
     transform="translate(-5.0000033,-5)">
    <line
       y1="10"
       y2="1410"
       x1="10"
       x2="10"
       id="line41"
       style="stroke:#ffffff;stroke-width:10" />
    <line
       y1="1410"
       y2="1410"
       x1="10"
       x2="710"
       id="line43"
       style="stroke:#ffffff;stroke-width:10" />
    <line
       y1="1410"
       y2="10"
       x1="710"
       x2="710"
       id="line45"
       style="stroke:#ffffff;stroke-width:10" />
    <line
       y1="10"
       y2="10"
       x1="10"
       x2="160"
       id="line47"
       style="stroke:#ffffff;stroke-width:10" />
    <line
       y1="10"
       y2="10"
       x1="260"
       x2="710"
       id="line49"
       style="stroke:#ffffff;stroke-width:10" />
  </g>
</svg>
