<?xml version='1.0' encoding='UTF-8' standalone='no'?>
<!-- Created with Fritzing (http://www.fritzing.org/) -->
<svg xmlns:svg='http://www.w3.org/2000/svg' xmlns='http://www.w3.org/2000/svg' version='1.2' baseProfile='tiny' x='0in' y='0in' width='0.333in' height='0.6in' viewBox='0 0 23.976 43.2' >
<g partID='854979650'><g  gorn="0.1" id="breadboard">
 <g  gorn="0.1.0" id="icon">
  <path  d="M0,0L0,19.44A2.16,2.16,0,0,1,0,23.76L0,43.2L23.976,43.2L23.976,0L0,0z" stroke-width="0" fill="#1F7A34" stroke="none"/>
  <g transform="matrix(1, 0, 0, 1, 2.412, 9.6727)">
   <g >
    <g >
     <g transform="matrix(0.5, 0, 0, 0.5, 4.788, 5.96367)">
      <g >
       <g >
        <rect  stroke-linecap="round" stroke-width="0" x="1.296" y="17.5187" fill="#8c8c8c" stroke="none" width="3.456" connectorname="1" height="6.336"/>
        <rect  stroke-linecap="round" stroke-width="0" x="7.848" y="17.5187" fill="#8c8c8c" stroke="none" width="3.456" connectorname="2" height="6.336"/>
        <rect  stroke-linecap="round" stroke-width="0" x="14.4" y="17.5187" fill="#8c8c8c" stroke="none" width="3.456" connectorname="3" height="6.336"/>
        <rect  stroke-linecap="round" stroke-width="0" x="4.47364" y="0" fill="#8c8c8c" stroke="none" width="10.2047" connectorname="4" height="6.23622"/>
        <rect  stroke-width="0" x="0" y="6.95934" fill="#303030" stroke="none" width="19.152" height="9.936"/>
        <polygon  fill="#1f1f1f" points="0,6.95934,19.152,6.95934,18.432,7.6793,0.72,7.6793"/>
        <polygon  fill="#1f1f1f" points="0,16.8953,19.152,16.8953,18.432,16.1753,0.72,16.1753"/>
        <polygon  fill="#000000" points="0,6.95934,0,16.8953,0.72,16.1753,0.72,7.6793"/>
        <polygon  fill="#3d3d3d" points="19.152,6.95934,19.152,16.8953,18.432,16.1753,18.432,7.6793"/>
        <circle  stroke-width="0" fill="#1f1f1f" cx="2.16" cy="14.7353" stroke="none" r="0.72"/>
       </g>
      </g>
     </g>
    </g>
   </g>
  </g>
  <text  gorn="0.1.0.2" stroke-width="0" id="label" x="3.6" y="23.355" font-family="OCRA" fill="white" font-size="4.68" stroke="none" text-anchor="start">SOT223</text>
  <g transform="matrix(1, 0, 0, 1, 9.36, 37.8756)">
   <g >
    <g >
     <g transform="rotate(-90)">
      <g >
       <g >
        <text  stroke-width="0" x="0" y="0" font-family="OCRA" fill="white" font-size="3.24" stroke="none" text-anchor="start">1</text>
       </g>
      </g>
     </g>
    </g>
   </g>
  </g>
  <g transform="matrix(1, 0, 0, 1, 9.36, 5.3244)">
   <g >
    <g >
     <g transform="rotate(-90)">
      <g >
       <g >
        <text  stroke-width="0" x="0" y="0" font-family="OCRA" fill="white" font-size="3.24" stroke="none" text-anchor="end">4</text>
       </g>
      </g>
     </g>
    </g>
   </g>
  </g>
  <g transform="matrix(1, 0, 0, 1, 16.56, 37.8756)">
   <g >
    <g >
     <g transform="rotate(-90)">
      <g >
       <g >
        <text  stroke-width="0" x="0" y="0" font-family="OCRA" fill="white" font-size="3.24" stroke="none" text-anchor="start">2</text>
       </g>
      </g>
     </g>
    </g>
   </g>
  </g>
  <g transform="matrix(1, 0, 0, 1, 16.56, 5.3244)">
   <g >
    <g >
     <g transform="rotate(-90)">
      <g >
       <g >
        <text  stroke-width="0" x="0" y="0" font-family="OCRA" fill="white" font-size="3.24" stroke="none" text-anchor="end">3</text>
       </g>
      </g>
     </g>
    </g>
   </g>
  </g>
 </g>
 <g transform="matrix(1, 0, 0, 1, 7.23852, 38.4516)">
  <g >
   <g >
    <rect  gorn="0.1.1.0.0" id="connector0pin" x="0" y="0" fill="#8D8C8C" width="2.29896" height="2.2968"/>
    <rect  x="0.56099" y="0.556952" fill="#8C8663" width="1.18398" height="1.18189"/>
    <polygon  fill="#B8AF82" points="0,2.2968,0.56099,1.73785,0.56099,0.501957,0,0"/>
    <polygon  fill="#80795B" points="1.74297,0.558951,0.56899,0.558951,0,0,2.29896,0"/>
    <polygon  fill="#5E5B43" points="1.74297,1.73785,1.74297,0.558951,2.29896,0,2.29896,2.2968"/>
    <polygon  fill="#9A916C" points="0,2.2968,0.56699,1.73785,1.74297,1.73785,2.29896,2.2968"/>
   </g>
  </g>
 </g>
 <g transform="matrix(1, 0, 0, 1, 7.23852, 2.4516)">
  <g >
   <g >
    <rect  gorn="0.1.2.0.0" id="connector3pin" x="0" y="0" fill="#8D8C8C" width="2.29896" height="2.2968"/>
    <rect  x="0.56099" y="0.556952" fill="#8C8663" width="1.18398" height="1.18189"/>
    <polygon  fill="#B8AF82" points="0,2.2968,0.56099,1.73785,0.56099,0.501957,0,0"/>
    <polygon  fill="#80795B" points="1.74297,0.558951,0.56899,0.558951,0,0,2.29896,0"/>
    <polygon  fill="#5E5B43" points="1.74297,1.73785,1.74297,0.558951,2.29896,0,2.29896,2.2968"/>
    <polygon  fill="#9A916C" points="0,2.2968,0.56699,1.73785,1.74297,1.73785,2.29896,2.2968"/>
   </g>
  </g>
 </g>
 <g transform="matrix(1, 0, 0, 1, 14.4385, 38.4516)">
  <g >
   <g >
    <rect  gorn="0.1.3.0.0" id="connector1pin" x="0" y="0" fill="#8D8C8C" width="2.29896" height="2.2968"/>
    <rect  x="0.56099" y="0.556952" fill="#8C8663" width="1.18398" height="1.18189"/>
    <polygon  fill="#B8AF82" points="0,2.2968,0.56099,1.73785,0.56099,0.501957,0,0"/>
    <polygon  fill="#80795B" points="1.74297,0.558951,0.56899,0.558951,0,0,2.29896,0"/>
    <polygon  fill="#5E5B43" points="1.74297,1.73785,1.74297,0.558951,2.29896,0,2.29896,2.2968"/>
    <polygon  fill="#9A916C" points="0,2.2968,0.56699,1.73785,1.74297,1.73785,2.29896,2.2968"/>
   </g>
  </g>
 </g>
 <g transform="matrix(1, 0, 0, 1, 14.4385, 2.4516)">
  <g >
   <g >
    <rect  gorn="0.1.4.0.0" id="connector2pin" x="0" y="0" fill="#8D8C8C" width="2.29896" height="2.2968"/>
    <rect  x="0.56099" y="0.556952" fill="#8C8663" width="1.18398" height="1.18189"/>
    <polygon  fill="#B8AF82" points="0,2.2968,0.56099,1.73785,0.56099,0.501957,0,0"/>
    <polygon  fill="#80795B" points="1.74297,0.558951,0.56899,0.558951,0,0,2.29896,0"/>
    <polygon  fill="#5E5B43" points="1.74297,1.73785,1.74297,0.558951,2.29896,0,2.29896,2.2968"/>
    <polygon  fill="#9A916C" points="0,2.2968,0.56699,1.73785,1.74297,1.73785,2.29896,2.2968"/>
   </g>
  </g>
 </g>
</g>
</g></svg>