<svg width="200mm" height="100mm" viewBox="0 0 200 100" xmlns="http://www.w3.org/2000/svg" version="1.1" preserveAspectRatio="xMidYMid meet"><g id="svgGroup" stroke-linecap="round" fill-rule="evenodd" font-size="9pt" stroke="#000" stroke-width="0.25mm" fill="none" style="stroke:#000;stroke-width:0.25mm;fill:none"><path d="M 0 47.5 L 0 61.5 L 3 61.5 L 3 70.5 L 0 70.5 L 0 79.5 L 3 79.5 L 3 88.5 L 0 88.5 L 0 97.5 L 0 100 L 8.5 100 L 8.5 97 L 17.5 97 L 17.5 100 L 26.5 100 L 26.5 97 L 35.5 97 L 35.5 100 L 44.5 100 L 44.5 97 L 53.5 97 L 53.5 100 L 62.5 100 L 62.5 97 L 71.5 97 L 71.5 100 L 80 100 L 80 79.5 L 80 61.5 L 80 52.5 L 80 29.5 M 83 88.5 L 77 88.5 L 77 79.5 L 83 79.5 M 83 70.5 L 77 70.5 L 77 61.5 L 83 61.5 M 71.5 47 L 71.5 53 L 62.5 53 L 62.5 47 M 53.5 47 L 53.5 53 L 44.5 53 L 44.5 47 M 35.5 47 L 35.5 53 L 26.5 53 L 26.5 47 M 17.5 47 L 17.5 53 L 8.5 53 L 8.5 47 M 71.5 50 80 50 M 53.5 50 62.5 50 M 35.5 50 44.5 50 M 17.5 50 26.5 50 M 0 50 8.5 50" id="front_outsideCutPath" stroke="#FF0000" stroke-width="0.1" style="stroke:#FF0000;stroke-width:0.1" vector-effect="non-scaling-stroke"/><path d="M 120 88.5 L 117 88.5 L 117 100 L 113.5 100 L 113.5 97 L 104.5 97 L 104.5 100 L 95.5 100 L 95.5 97 L 86.5 97 L 86.5 100 L 83 100 L 83 97.5 L 83 88.5 M 117 38.5 L 117 52.5 L 117 61.5 L 120 61.5 L 120 75.5 M 120 70.5 L 117 70.5 L 117 79.5 L 120 79.5 L 120 93.5 M 113.5 47 L 113.5 53 L 104.5 53 L 104.5 47 M 95.5 47 L 95.5 53 L 86.5 53 L 86.5 47 M 83 61.5 83 47.5 M 83 70.5 83 79.5 M 113.5 50 117 50 M 95.5 50 104.5 50 M 83 50 86.5 50" id="left_outsideCutPath" stroke="#FF0000" stroke-width="0.1" style="stroke:#FF0000;stroke-width:0.1" vector-effect="non-scaling-stroke"/><path d="M 191.5 57 L 191.5 63 L 197 63 L 197 66.5 L 200 66.5 L 200 75.5 L 197 75.5 L 197 84.5 L 200 84.5 L 200 93.5 L 197 93.5 L 197 97 L 191.5 97 L 191.5 100 L 182.5 100 L 182.5 97 L 173.5 97 L 173.5 100 L 164.5 100 L 164.5 97 L 155.5 97 L 155.5 100 L 146.5 100 L 146.5 97 L 137.5 97 L 137.5 100 L 128.5 100 L 128.5 97 L 123 97 L 123 93.5 L 120 93.5 M 182.5 57 L 182.5 63 L 173.5 63 L 173.5 57 M 164.5 57 L 164.5 63 L 155.5 63 L 155.5 57 M 146.5 57 L 146.5 63 L 137.5 63 L 137.5 57 M 120 66.5 L 123 66.5 L 123 63 L 128.5 63 L 128.5 57 M 120 84.5 L 123 84.5 L 123 75.5 L 120 75.5 M 182.5 60 191.5 60 M 164.5 60 173.5 60 M 146.5 60 155.5 60 M 128.5 60 137.5 60" id="top_outsideCutPath" stroke="#FF0000" stroke-width="0.1" style="stroke:#FF0000;stroke-width:0.1" vector-effect="non-scaling-stroke"/><path d="M 0 47.5 L 0 38.5 L 3 38.5 L 3 29.5 L 0 29.5 L 0 20.5 L 3 20.5 L 3 11.5 L 0 11.5 L 0 0 L 8.5 0 L 8.5 3 L 17.5 3 L 17.5 0 L 26.5 0 L 26.5 3 L 35.5 3 L 35.5 0 L 44.5 0 L 44.5 3 L 53.5 3 L 53.5 0 L 62.5 0 L 62.5 3 L 71.5 3 L 71.5 0 L 80 0 L 80 2.5 L 80 11.5 L 80 29.5 M 83 38.5 L 77 38.5 L 77 29.5 L 83 29.5 M 83 20.5 L 77 20.5 L 77 11.5 L 83 11.5 M 8.5 47 17.5 47 M 26.5 47 35.5 47 M 44.5 47 53.5 47 M 62.5 47 71.5 47" id="back_outsideCutPath" stroke="#FF0000" stroke-width="0.1" style="stroke:#FF0000;stroke-width:0.1" vector-effect="non-scaling-stroke"/><path d="M 83 11.5 L 83 0 L 86.5 0 L 86.5 3 L 95.5 3 L 95.5 0 L 104.5 0 L 104.5 3 L 113.5 3 L 113.5 0 L 117 0 L 117 2.5 L 117 11.5 L 120 11.5 L 120 20.5 L 117 20.5 L 117 29.5 L 120 29.5 M 120 26.5 L 120 38.5 L 117 38.5 M 83 20.5 83 29.5 M 83 38.5 83 47.5 M 86.5 47 95.5 47 M 104.5 47 113.5 47" id="right_outsideCutPath" stroke="#FF0000" stroke-width="0.1" style="stroke:#FF0000;stroke-width:0.1" vector-effect="non-scaling-stroke"/><path d="M 120 26.5 L 123 26.5 L 123 23 L 128.5 23 L 128.5 20 L 137.5 20 L 137.5 23 L 146.5 23 L 146.5 20 L 155.5 20 L 155.5 23 L 164.5 23 L 164.5 20 L 173.5 20 L 173.5 23 L 182.5 23 L 182.5 20 L 191.5 20 L 191.5 23 L 197 23 L 197 26.5 L 200 26.5 L 200 35.5 L 197 35.5 L 197 44.5 L 200 44.5 L 200 53.5 L 197 53.5 L 197 57 L 191.5 57 M 128.5 57 L 123 57 L 123 53.5 L 120 53.5 L 120 44.5 L 123 44.5 L 123 35.5 L 120 35.5 M 137.5 57 146.5 57 M 155.5 57 164.5 57 M 173.5 57 182.5 57" id="bottom_outsideCutPath" stroke="#FF0000" stroke-width="0.1" style="stroke:#FF0000;stroke-width:0.1" vector-effect="non-scaling-stroke"/></g></svg>