<?xml version="1.0" encoding="UTF-8" standalone="no"?>
<!DOCTYPE svg PUBLIC "-//W3C//DTD SVG 1.1//EN" "http://www.w3.org/Graphics/SVG/1.1/DTD/svg11.dtd">
<svg width="100%" height="100%" viewBox="0 0 831 392" version="1.1" xmlns="http://www.w3.org/2000/svg" xmlns:xlink="http://www.w3.org/1999/xlink" xml:space="preserve" xmlns:serif="http://www.serif.com/" style="fill-rule:evenodd;clip-rule:evenodd;">
    <g id="front" transform="matrix(2.83465,0,0,-2.83465,212.598,316.063)">
        <path d="M67,-13.5L70,-13.5L70,-4.5L67,-4.5L67,0.022L-67,0.022L-67,-4.5L-70,-4.5L-70,-13.5L-67,-13.5L-67,-21.5L-58.5,-21.5L-58.5,-18.5L-49.5,-18.5L-49.5,-21.5L-40.5,-21.5L-40.5,-18.5L-31.5,-18.5L-31.5,-21.5L-22.5,-21.5L-22.5,-18.5L-13.5,-18.5L-13.5,-21.5L-4.5,-21.5L-4.5,-18.5L4.5,-18.5L4.5,-21.5L13.5,-21.5L13.5,-18.5L22.5,-18.5L22.5,-21.5L31.5,-21.5L31.5,-18.5L40.5,-18.5L40.5,-21.5L49.5,-21.5L49.5,-18.5L58.5,-18.5L58.5,-21.5L67,-21.5L67,-13.5Z" style="fill:none;fill-rule:nonzero;stroke:rgb(255,0,0);stroke-width:0.25px;"/>
    </g>
    <g id="back" transform="matrix(2.83465,0,0,-2.83465,212.598,194.173)">
        <path d="M67,-13.5L70,-13.5L70,-4.5L67,-4.5L67,4.5L70,4.5L70,13.5L67,13.5L67,18.5L-67,18.5L-67,13.5L-70,13.5L-70,4.5L-67,4.5L-67,-4.5L-70,-4.5L-70,-13.5L-67,-13.5L-67,-21.5L-58.5,-21.5L-58.5,-18.5L-49.5,-18.5L-49.5,-21.5L-40.5,-21.5L-40.5,-18.5L-31.5,-18.5L-31.5,-21.5L-22.5,-21.5L-22.5,-18.5L-13.5,-18.5L-13.5,-21.5L-4.5,-21.5L-4.5,-18.5L4.5,-18.5L4.5,-21.5L13.5,-21.5L13.5,-18.5L22.5,-18.5L22.5,-21.5L31.5,-21.5L31.5,-18.5L40.5,-18.5L40.5,-21.5L49.5,-21.5L49.5,-18.5L58.5,-18.5L58.5,-21.5L67,-21.5L67,-13.5Z" style="fill:none;fill-rule:nonzero;stroke:rgb(255,0,0);stroke-width:0.25px;"/>
        <g id="vin" transform="matrix(0.317556,0,0,-0.299919,-72.5232,55.8055)">
            <ellipse cx="71.759" cy="191.07" rx="18.894" ry="20.005" style="fill:none;stroke:rgb(255,0,0);stroke-width:0.8px;"/>
        </g>
    </g>
    <g id="left" transform="matrix(2.83465,0,0,-2.83465,134.646,72.2835)">
        <path d="M-22.5,-18.5L-22.5,-21.5L-13.5,-21.5L-13.5,-18.5L-4.5,-18.5L-4.5,-21.5L4.5,-21.5L4.5,-18.5L13.5,-18.5L13.5,-21.5L22.5,-21.5L22.5,-18.5L31.5,-18.5L31.5,-21.5L42.5,-21.5L42.5,-13.5L39.5,-13.5L39.5,-4.5L42.5,-4.5L42.5,4.5L39.5,4.5L39.5,13.5L42.5,13.5L42.5,18.5L39.5,18.5L-42.5,0.029L-42.5,-4.5L-39.5,-4.5L-39.5,-13.5L-42.5,-13.5L-42.5,-21.5L-31.5,-21.5L-31.5,-18.5L-22.5,-18.5Z" style="fill:none;fill-rule:nonzero;stroke:rgb(255,0,0);stroke-width:0.25px;"/>
    </g>
    <g id="right" transform="matrix(2.83465,0,0,-2.83465,384.094,66.6142)">
        <g transform="matrix(1,0,0,1,0,-1.99)">
            <path d="M-22.5,-18.5L-22.5,-21.5L-13.5,-21.5L-13.5,-18.5L-4.5,-18.5L-4.5,-21.5L4.5,-21.5L4.5,-18.5L13.5,-18.5L13.5,-21.5L22.5,-21.5L22.5,-18.5L31.5,-18.5L31.5,-21.5L42.5,-21.5L42.5,-13.5L39.5,-13.5L39.5,-4.5L42.5,-4.5L42.5,0.019L-39.5,18.5L-42.5,18.5L-42.5,13.5L-39.5,13.5L-39.5,4.5L-42.5,4.5L-42.5,-4.5L-39.5,-4.5L-39.5,-13.5L-42.5,-13.5L-42.5,-21.5L-31.5,-21.5L-31.5,-18.5L-22.5,-18.5Z" style="fill:none;fill-rule:nonzero;stroke:rgb(255,0,0);stroke-width:0.25px;"/>
        </g>
        <g id="vout" transform="matrix(0.132315,0,0,-0.124966,-9.4948,20.3773)">
            <ellipse cx="71.759" cy="191.07" rx="18.894" ry="20.005" style="fill:none;stroke:rgb(255,0,0);stroke-width:1.92px;"/>
        </g>
    </g>
    <g id="bottom">
        <g transform="matrix(2.83465,0,0,-2.83465,617.953,256.535)">
            <path d="M58.5,42.5L49.5,42.5L49.5,39.5L40.5,39.5L40.5,42.5L31.5,42.5L31.5,39.5L22.5,39.5L22.5,42.5L13.5,42.5L13.5,39.5L4.5,39.5L4.5,42.5L-4.5,42.5L-4.5,39.5L-13.5,39.5L-13.5,42.5L-22.5,42.5L-22.5,39.5L-31.5,39.5L-31.5,42.5L-40.5,42.5L-40.5,39.5L-49.5,39.5L-49.5,42.5L-58.5,42.5L-58.5,39.5L-67,39.5L-67,31.5L-70,31.5L-70,22.5L-67,22.5L-67,13.5L-70,13.5L-70,4.5L-67,4.5L-67,-4.5L-70,-4.5L-70,-13.5L-67,-13.5L-67,-22.5L-70,-22.5L-70,-31.5L-67,-31.5L-67,-39.5L-58.5,-39.5L-58.5,-42.5L-49.5,-42.5L-49.5,-39.5L-40.5,-39.5L-40.5,-42.5L-31.5,-42.5L-31.5,-39.5L-22.5,-39.5L-22.5,-42.5L-13.5,-42.5L-13.5,-39.5L-4.5,-39.5L-4.5,-42.5L4.5,-42.5L4.5,-39.5L13.5,-39.5L13.5,-42.5L22.5,-42.5L22.5,-39.5L31.5,-39.5L31.5,-42.5L40.5,-42.5L40.5,-39.5L49.5,-39.5L49.5,-42.5L58.5,-42.5L58.5,-39.5L67,-39.5L67,-31.5L70,-31.5L70,-22.5L67,-22.5L67,-13.5L70,-13.5L70,-4.5L67,-4.5L67,4.5L70,4.5L70,13.5L67,13.5L67,22.5L70,22.5L70,31.5L67,31.5L67,39.5L58.5,39.5L58.5,42.5Z" style="fill:none;fill-rule:nonzero;stroke:rgb(255,0,0);stroke-width:0.25px;"/>
        </g>
        <g id="pcb">
            <g id="pcb-1" transform="matrix(0.150027,0,0,0.141694,614.841,313.217)">
                <ellipse cx="71.759" cy="191.07" rx="18.894" ry="20.005" style="fill:none;stroke:rgb(255,0,0);stroke-width:4.8px;"/>
            </g>
            <g id="pcb-2" transform="matrix(0.150027,0,0,0.141694,546.643,228.042)">
                <ellipse cx="71.759" cy="191.07" rx="18.894" ry="20.005" style="fill:none;stroke:rgb(255,0,0);stroke-width:4.8px;"/>
            </g>
        </g>
        <g id="lcd" transform="matrix(1,0,0,1,6.38169,11.5983)">
            <g id="lcd-1" transform="matrix(0.150027,0,0,0.141694,584.51,154.96)">
                <ellipse cx="71.759" cy="191.07" rx="18.894" ry="20.005" style="fill:none;stroke:rgb(255,0,0);stroke-width:4.8px;"/>
            </g>
            <g id="lcd-2" transform="matrix(0.150027,0,0,0.141694,662.463,154.96)">
                <ellipse cx="71.759" cy="191.07" rx="18.894" ry="20.005" style="fill:none;stroke:rgb(255,0,0);stroke-width:4.8px;"/>
            </g>
        </g>
    </g>
</svg>
